<svg xmlns="http://www.w3.org/2000/svg" viewBox="0 0 200 200"><defs><style>.cls-1{fill:#ededed;}.cls-2{fill:#9d9d9c;}</style></defs><title>build</title><g id="Слой_2" data-name="Слой 2"><g id="Слой_1-2" data-name="Слой 1"><rect class="cls-1" width="200" height="200" rx="69.81"/><path class="cls-2" d="M104.65,65.85A4.65,4.65,0,1,1,100,61.2a4.65,4.65,0,0,1,4.65,4.65ZM54.09,150.19l4.88-7H141l4.88,7ZM49.81,71.48,99.89,50.21l50.3,21.27V76.3H49.81V71.48ZM83,91.64a5.81,5.81,0,0,1,11.62,0v42.28H83V91.64Zm-20.91,0a5.81,5.81,0,1,1,11.61,0v42.28H62.13V91.64ZM104,133.92V91.64a5.81,5.81,0,1,1,11.62,0v42.28Zm54.69,18.25L147.26,135.9a4.67,4.67,0,0,0-3.81-2H124.86V91.64a5.81,5.81,0,0,1,11.62,0v23.93a4.65,4.65,0,0,0,9.29,0v-30h9.06A4.65,4.65,0,0,0,159.48,81V68.4a4.65,4.65,0,0,0-2.84-4.28L101.69,40.89a4.64,4.64,0,0,0-3.62,0L43.35,64.12a4.65,4.65,0,0,0-2.83,4.28V81a4.65,4.65,0,0,0,4.65,4.64h7.66v50.19l-.09.12L41.36,152.17a4.64,4.64,0,0,0,3.81,7.31H154.83a4.64,4.64,0,0,0,3.81-7.31Z"/></g></g></svg>