<svg xmlns="http://www.w3.org/2000/svg" width="516" height="245" viewBox="0 0 516 245"><g><g><path fill="#ebfae9" d="M-394.164 424.063c42.228-38.236 108.01-60.915 181.292-46.364 16.82 3.341 32.648 8.875 48.786 15.36 15.968 6.416 32.47 12.898 49.182 14.175 37.056 2.832 52.907-24.604 65.94-46.323 63.773-106.27 63.047-254.029 181.66-328.637 47.22-29.702 115.74-42.027 183.71-23.344 71.329 19.607 117.956 73.046 148.155 126.769 15.81 28.129 28.335 56.867 40.99 85.505 13.944 31.552 27.58 63.16 39.307 94.943 11.535 31.256 21.3 62.697 27.568 94.036 6.032 30.17 7.056 59.137 6.987 88.526-.055 23.099.936 48.732 16.625 71.806 19.387 28.512 53.123 39.859 86.584 51.885 16.457 5.915 33.4 12.657 46.058 24.322 10.594 9.764 17.196 21.56 20.696 33.278 8.163 27.32 1.397 52.243-9.225 75.03-11.654 25.003-26.194 48.68-31.562 76.05-1.931 1.107-3.218 2.978-3.295 5.75-1.891 67.89-10.456 134.513-26.371 198.733-7.915 31.938-17.532 63.318-28.843 94.021-8.878 24.1-17.475 49.533-36.163 68.664-17.891 18.314-46.613 26.585-79.334 12.442-35.442-15.318-61.137-45.068-82.265-71.924-45.82-58.24-79.674-120.423-118.246-180.91-18.924-29.677-38.694-59.714-62.295-87.768-24.091-28.637-53.97-49.689-93.033-60.276-66.078-17.909-135.907-15.616-198.811-12.274-62.981 3.346-125.051 10.007-189.576 8.442-62.55-1.518-134.403-11.379-193.35-44.688-35.302-19.95-55.134-46.82-63.123-78.462-8.17-32.357-9.093-65.006-6.033-95.854 6.086-61.349 31.17-120.522 77.985-162.913z"/></g></g></svg>