<svg xmlns="http://www.w3.org/2000/svg" viewBox="0 0 1071.06 843.93"><defs><style>.cls-1{fill:#fefbe6;}</style></defs><title>Ресурс 84</title><g id="Слой_2" data-name="Слой 2"><g id="Главная"><path class="cls-1" d="M1056.37,266.83c-18.52,44.52-60.69,85.65-122,101-14.09,3.52-28.21,5-42.9,5.86s-29.52,1.86-42.78,6.91c-29.39,11.22-31.62,37.95-33.75,59.29-10.44,104.39,43.49,217.26-20.37,317.22-25.42,39.8-73.43,74-132.22,84.23C600.61,852.08,545.61,828,503.09,797.78c-22.27-15.82-42.24-33.3-62.27-50.65-22.07-19.12-43.93-38.4-64.39-58.49-20.12-19.77-39-40.31-55.07-62-15.52-20.92-26.77-42.73-37.33-65.25-8.3-17.71-18.32-37-38.66-49-25.15-14.83-55.07-11.33-85-8.45-14.74,1.42-30.15,2.37-44-2a62.43,62.43,0,0,1-27.87-18c-16.12-18-19.94-39.49-20-60.77-.11-23.35,2.47-46.73-3.3-69.63a5.45,5.45,0,0,0,.44-5.59C42.45,295.29,24.94,241.19,13.93,186.27a755.53,755.53,0,0,1-11.88-82.4C.14,82.22-2.46,59.64,4.93,38.24,12,17.76,31,1.05,61.18.06c32.66-1.07,63.08,12.42,89,25.35,56.11,28,104.5,63.42,155.87,95.79,25.21,15.89,51.2,31.74,79.4,44.7,28.79,13.22,59.27,18.54,93,12.54C535.47,168.28,588.1,141.3,635.05,116s92.13-52.83,142.09-74.94c48.44-21.43,107-39.83,164.17-35.62C975.55,8,1000.44,21.39,1018,42.73c17.94,21.82,30.44,46.48,39.24,71.2C1074.72,163.1,1076.9,217.46,1056.37,266.83Z"/></g></g></svg>