<svg xmlns="http://www.w3.org/2000/svg" width="14" height="12" viewBox="0 0 14 12"><g><g><path fill="#b2b2b2" d="M8.332 8.204c-.846.357-1.766.535-2.761.535-.448 0-.907-.042-1.375-.125a6.574 6.574 0 0 1-2.172 1 6.412 6.412 0 0 1-.672.125h-.023a.24.24 0 0 1-.16-.062.254.254 0 0 1-.09-.164.144.144 0 0 1-.008-.051c0-.018 0-.035.004-.051a.146.146 0 0 1 .016-.047l.019-.038.028-.044c.018-.028.028-.041.03-.038.003.002.015-.011.036-.04a6.418 6.418 0 0 1 .21-.23c.095-.1.162-.175.204-.23.042-.055.1-.131.176-.227.076-.096.14-.197.195-.3.055-.105.108-.22.16-.345C1.504 7.498.995 7.037.626 6.49A3.07 3.07 0 0 1 .07 4.739c0-.724.245-1.392.735-2.007.489-.615 1.157-1.1 2.003-1.457A7.036 7.036 0 0 1 5.57.74c.995 0 1.915.178 2.76.535.848.357 1.516.842 2.005 1.457.49.615.735 1.283.735 2.007 0 .725-.245 1.394-.735 2.008-.49.615-1.157 1.1-2.004 1.457zm5.184.29c-.37.544-.877 1.004-1.523 1.379.052.125.106.239.16.343.055.105.12.205.196.3l.175.228c.04.055.11.132.203.23a5.351 5.351 0 0 1 .21.23c.017.019.028.032.036.039a.535.535 0 0 1 .059.082l.019.039.016.048c.01.03.012.048.004.05-.008.003-.011.019-.008.05a.29.29 0 0 1-.102.172.236.236 0 0 1-.172.055 6.388 6.388 0 0 1-.671-.125 6.564 6.564 0 0 1-2.172-1 7.881 7.881 0 0 1-1.375.125c-1.412 0-2.641-.344-3.688-1.031a8.268 8.268 0 0 0 3.102-.32 6.948 6.948 0 0 0 2.062-1.008c.65-.48 1.152-1.032 1.5-1.657a4.009 4.009 0 0 0 .344-3.171c.672.37 1.203.833 1.594 1.39.39.558.586 1.156.586 1.798 0 .625-.185 1.209-.555 1.754z"/></g></g></svg>