<svg xmlns="http://www.w3.org/2000/svg" width="94" height="57" viewBox="0 0 94 57"><g><g><path fill="#ff8f7d" d="M89.662 31.685v1.08H64.477V31.34l.103-.279a10.962 10.962 0 0 0 .466-5.956h1.19c.868 0 1.574.706 1.574 1.574v1.302h1.564v-1.302c0-.664-.21-1.278-.564-1.786l1.079.008.78.918 2.36-2.007v7.873h1.564v-9.203l1.302-1.107 5.84-4.967 7.145 6.105v9.172zm-4.384-7.361h-1.563v4.738h1.563z"/></g><g><path fill="#ffbb95" d="M79.883 15.93H75.31v1.808h-1.564V15.93h-1.804l-6.195 5.127-.5-.602-1.502 1.245c.28.478.526.976.732 1.495.046.114.086.23.127.346h1.633c1.065 0 2.006.536 2.573 1.35l1.079.01-.233-.274 2.944-2.503z"/></g><g><path fill="#00c286" d="M12.02 21.236l-2.447 3.368h2.333l-4.093 5.517h4.989v.782h4.973l-4.093-5.517h2.313l-.87-1.197-.633.46z"/></g><g><path fill="#00c286" d="M26.207 23.334l-2.067-2.786h2.314l-1.021-1.405-.58.418-2.364-3.28-2.536 3.492h2.386l-4.188 5.644h5.122v.648h2.452a5.971 5.971 0 0 1 .482-2.731z"/></g><g><path fill="#86e1e7" d="M38.998 24.672h-.001c-3.236 0-5.927 2.425-6.328 5.6a8.923 8.923 0 0 0 3.504-.876c.183-.095.368-.191.552-.306 2.008-1.276 2.949-3.123 3.373-4.316a6.149 6.149 0 0 0-1.1-.102z"/></g><g><path fill="#86e1e7" d="M44.441 18.449a1.465 1.465 0 0 0-1.123 2.399 1.45 1.45 0 0 0 1.192.522l.037-.001h.377l.248-.36c.024-.034.053-.064.078-.098.024-.037.046-.076.071-.112.178-.253.37-.497.572-.73a1.578 1.578 0 0 0-.112-.746 1.914 1.914 0 0 0-.215-.35 1.463 1.463 0 0 0-1.125-.524z"/></g><g><path fill="#86e1e7" d="M41.596 25.247a10.178 10.178 0 0 1-1.763 3.154c.67.492 1.387.912 2.156 1.216a9.31 9.31 0 0 0 2.58.603c.269.025.524.04.76.047a6.35 6.35 0 0 0-1.211-2.97 6.521 6.521 0 0 0-2.522-2.05z"/></g><g><path fill="#86e1e7" d="M48.795 21.044a12.56 12.56 0 0 0-.018-1.49 9.434 9.434 0 0 0-1.59 1.416c-.033.037-.061.081-.095.12-.19.22-.37.45-.54.687-.16.236-.31.48-.44.732l-.218.427-.835-.002-.498-.002a2.998 2.998 0 0 1-2.443-1.083 3.03 3.03 0 0 1 .386-4.263 3.03 3.03 0 0 1 4.263.387c.254.304.424.67.442.71.013.031.018.061.03.092.405-.335.832-.635 1.278-.907-.295-1.137-.78-1.955-1.32-2.543-.006-.008-.012-.013-.02-.02l-.596.55c-.826-.9-1.786-1.208-2.9-1.564-1.155-.37-2.465-.789-3.587-1.987a6.364 6.364 0 0 1-1.113-1.677 6.384 6.384 0 0 1-1.114 1.677c-1.122 1.197-2.432 1.616-3.587 1.986-1.113.356-2.074.664-2.9 1.564-1.037 1.128-1.505 2.862-1.392 5.151l.023.465-.398.242c-1.206.732-2.01 1.895-2.26 3.165-.078.39-.096.788-.064 1.188.006.077.003.155.013.232.26 1.913 1.839 3.47 3.807 3.875.456-3.997 3.826-7.064 7.888-7.064h.002c2.026 0 3.895.8 5.314 2.092 1.538 1.403 2.546 3.387 2.627 5.591l.004.161c2.377-.439 4.224-2.289 4.53-4.55.283-2.08-.774-4.2-2.68-5.358z"/></g><g><path fill="#97e78d" d="M52.206 38.31h.751l-.378-.875z"/></g><g><path fill="#97e78d" d="M66.514 37.445l-.498 1.295h1.021l-.518-1.295z"/></g><g><path fill="#97e78d" d="M40.789 36.756c-.471 0-.922.32-.922.984 0 .648.445.985.912.985.45 0 .912-.337.912-.985 0-.647-.451-.984-.902-.984z"/></g><g><path fill="#97e78d" d="M90.495 34.328c.035 1.198-.17 2.927-1.33 4.4-2.005 2.548-5.921 3.245-9.522 1.694l-1.683-.725.642 1.716c.01.027.977 2.684-.521 4.465-1.101 1.308-3.054 1.555-4.402 1.232-1.078-.258-1.747-.92-2.523-1.685-.95-.937-2.024-1.998-4.006-2.538a8.83 8.83 0 0 0-2.223-.306l-.877-.008.09.872a6.9 6.9 0 0 1-.413 3.231c-.228.584-.611 1.562-1.567 2.272-.1.074-.18.127-.228.16-1.05.705-2.367.922-3.81.63-1.077-.22-1.787-.864-2.697-1.689a9.15 9.15 0 0 1-.195-.182c-.695-.654-2.324-2.188-3.978-3.038-1.315-.674-2.84-1.01-4.521-.994l-1.32.011.644 1.152c.276.494.483 1.022.615 1.567a6.586 6.586 0 0 1-.114 3.362c-.617 2.04-2.095 3.207-2.702 3.614-1.592 1.07-3.584 1.401-5.76.96-3.35-.68-7.967-6.468-11.35-10.704-.963-1.208-2.757-3.456-5.704-4.014a7.272 7.272 0 0 0-1.277-.125l-1.111-.01.365 1.05c.067.191.374 1.194-.153 2.06-.4.657-1.14 1.027-2.2 1.101-.458.031-1.394-.03-2.53-.804-1.06-.723-1.833-1.834-2.433-3.498-.083-.23-.16-.483-.24-.753-.314-1.054-.705-2.367-1.88-3.065a2.955 2.955 0 0 0-1.073-.375 13.801 13.801 0 0 1 2.598-.775 14.158 14.158 0 0 1 2.7-.26zM31.41 39.413c-.347-.539-.694-1.083-1.037-1.62.203-.219.306-.545.415-.98.062-.239.264-.28.47-.239v-.637c-.61-.14-1.175-.062-1.304.622-.052.238-.13.585-.357.715-.088.057-.207.062-.353.062v-1.409h-.937v1.41c-.146 0-.26-.006-.348-.063-.233-.13-.31-.477-.357-.715-.135-.684-.7-.762-1.311-.622v.637c.213-.04.415 0 .472.24.108.434.212.76.419.978a259.63 259.63 0 0 0-1.036 1.621v.14h1.067c.265-.466.529-.932.793-1.394.109.011.17.021.3.021v1.373h.938V38.18c.135 0 .192-.01.306-.02.259.461.523.927.787 1.393h1.073zm3.56-3.502h-.296l-1.89 1.788v-1.772h-.95v3.637h.282l1.906-1.88v1.87h.948zm2.448 3.621c.746 0 1.15-.48 1.15-1.103 0-.332-.156-.627-.451-.777a.856.856 0 0 0 .3-.627c0-.674-.471-1.114-1.144-1.114h-1.601v3.621zm3.356.088c1.098 0 1.865-.772 1.865-1.88 0-1.254-.923-1.886-1.85-1.886-.943 0-1.87.632-1.87 1.886 0 1.26.896 1.88 1.855 1.88zm4.679-.932H44.09v-.59h1.212v-.83H44.09v-.518h1.316v-.823h-2.264v3.626h2.31zm4.91-2.76h-.95v1.31H48.29v-1.31h-.948v3.625h.948v-1.45h1.124v1.45h.949zm4.087 3.496l-.972-2.084-.676-1.45h-.435l-.552 1.174-1.111 2.36v.13h.99l.207-.452h1.357l.213.451h.979zm1.84.165c.773 0 1.576-.409 1.716-1.44h-.912c-.098.394-.41.575-.803.575-.554 0-.906-.46-.906-.984 0-.16.029-.303.077-.43.13-.35.427-.565.829-.565.287 0 .512.081.662.273a.85.85 0 0 1 .13.245h.912c-.028-.2-.092-.37-.172-.523-.308-.589-.94-.85-1.532-.85-.83 0-1.652.488-1.82 1.482-.02.118-.035.24-.035.373 0 1.223.928 1.844 1.855 1.844zm5.41-.165l-1.642-3.534h-.4l-1.631 3.534v.13h.906l.928-2.115.922 2.114h.917zm2.662-.736h-1.363v-.59h1.213v-.83h-1.213v-.518h1.316v-.823h-2.263v3.626h2.31zm4.017.062h-.383l-1.28-2.86h-.398l-1.25 2.86h-.362v1.243h.767v-.44h2.145v.44h.76zm3.543-2.839h-.296L69.735 37.7v-1.772h-.948v3.637h.28l1.907-1.88v1.87h.948zm3.01 2.777h-1.363v-.59h1.213v-.83h-1.213v-.518h1.316v-.823H72.62v3.626h2.31z"/></g><g><path fill="#97e78d" d="M37.345 38.108h-.725v.6h.73c.182 0 .265-.134.28-.28.01-.165-.098-.32-.285-.32z"/></g><g><path fill="#97e78d" d="M37.485 37.056c.005-.16-.088-.32-.28-.32h-.585v.605h.585c.18 0 .275-.139.28-.285z"/></g><g><path fill="#ffea7c" d="M63.113 30.52a9.422 9.422 0 0 0 .582-3.273c0-.83-.118-1.628-.319-2.394a9.387 9.387 0 0 0-.836-2.128c-1.605-2.933-4.72-4.927-8.292-4.927a9.443 9.443 0 0 0-5.47 1.756c.03.462.043.948.017 1.49 1.905 1.157 2.962 3.278 2.68 5.358-.308 2.261-2.154 4.111-4.53 4.55l.026.886H46.05c-.238 0-.514 0-.815-.01.165.322.344.636.541.937h17.04c.263-.403.494-.826.7-1.265l-.673-.248z"/></g><g><path fill="#ffea7c" d="M58.492 12.716l.483-1.35H49.52l.485 1.35z"/></g><g><path fill="#ffea7c" d="M50.194 17.017a10.995 10.995 0 0 1 4.054-.782c1.431 0 2.795.283 4.05.782h.04V14.28h-8.18v2.737z"/></g><g><path fill="#ffea7c" d="M56.635 9.803a3.584 3.584 0 0 0 1.218-2.492v-.489c-.13-1.883-1.689-3.38-3.605-3.38-.693 0-1.335.205-1.886.544a3.55 3.55 0 0 0-.569.43c-.033.03-.074.054-.106.086-.013.014-.024.03-.038.044a3.705 3.705 0 0 0-.353.427c-.054.077-.1.157-.149.238a3.596 3.596 0 0 0-.53 1.862c0 1.057.45 2.04 1.244 2.73z"/></g><g><path fill="#23409d" d="M82.224 14.768l-.486-.415-.001.001-.015.013H75.31v-2.116h-1.564v2.116h-2.367l-6.63 5.486.499.602.499.603 6.195-5.127h1.804v1.806h1.564v-1.806h4.573L72.6 22.124l-2.943 2.503.233.274.779.918 2.36-2.008v7.874h1.564v-9.203l1.302-1.108 5.84-4.966 7.146 6.105v9.172H90.444v-7.874l2.36 2.008 1.014-1.192z"/></g><g><path fill="#23409d" d="M75.765 5.57c0 .344-.28.624-.624.624h-2.056a2.19 2.19 0 0 0-2.187 2.188 2.19 2.19 0 0 0 2.187 2.188h5.73V9.006h-5.73a.625.625 0 0 1 0-1.248h2.056a2.19 2.19 0 0 0 2.187-2.188 2.19 2.19 0 0 0-2.187-2.188h-8.43v1.564h8.43c.344 0 .624.28.624.624z"/></g><g><path fill="#23409d" d="M15.044 26.98h6.666v4.705h1.563v-6.268h-5.122l4.187-5.644h-2.386l2.537-3.492 2.364 3.28.58-.418.688-.497-3.627-5.032-5.61 7.722h2.347z"/></g><g><path fill="#23409d" d="M12.802 31.685v-1.562h-4.99l4.094-5.519H9.573l2.447-3.368 2.472 3.412.634-.459.632-.458-3.737-5.157-5.516 7.594h2.294l-4.094 5.517z"/></g><g><path fill="#23409d" d="M47.3 9.803h2.534a5.137 5.137 0 0 1-.781-2.73c0-.489.09-.953.217-1.402a2.757 2.757 0 0 1-1.15-.679 2.784 2.784 0 0 1 0-3.931 2.784 2.784 0 0 1 3.932 0c.252.253.43.555.462.613.086.156.152.311.202.462a5.125 5.125 0 0 1 1.532-.257c2.43 0 4.459 1.683 5.024 3.94h.88a.355.355 0 0 0 .356-.356v-.161c0-1.058.86-1.919 1.92-1.919h.78v1.563h-.78a.356.356 0 0 0-.356.356v.161a1.921 1.921 0 0 1-1.92 1.919h-.727a5.125 5.125 0 0 1-.762 2.421h2.534L59.9 13.419v4.38h-.026a11.075 11.075 0 0 1 4.602 5.397c.046.114.086.23.127.345h1.633c1.066 0 2.006.537 2.573 1.352.354.508.564 1.122.564 1.786v1.302H67.81v-1.302c0-.868-.705-1.574-1.573-1.574h-1.19a10.962 10.962 0 0 1-.467 5.956l-.103.279-.168.454-.795-.293-.671-.248.27-.733a9.422 9.422 0 0 0 .583-3.273 9.42 9.42 0 0 0-.32-2.395 9.359 9.359 0 0 0-.835-2.126c-1.606-2.933-4.72-4.927-8.293-4.927a9.439 9.439 0 0 0-5.47 1.754 9.445 9.445 0 0 0-1.59 1.417c-.034.037-.062.081-.096.119-.19.22-.37.45-.54.689a6.89 6.89 0 0 0-.44.732l-.218.426-.835-.002-.498-.001a3.002 3.002 0 0 1-2.443-1.084 3.03 3.03 0 0 1 .387-4.263 3.03 3.03 0 0 1 4.262.387c.254.305.424.67.442.711.013.03.018.061.03.091.405-.334.833-.634 1.278-.907l.115-.069h-.037v-4.381zm3.848-4.592a3.587 3.587 0 0 0-.531 1.862c0 1.057.45 2.039 1.244 2.73h4.775a3.586 3.586 0 0 0 1.218-2.492v-.489c-.132-1.883-1.69-3.38-3.606-3.38-.693 0-1.335.205-1.886.544a3.55 3.55 0 0 0-.57.429c-.032.031-.072.055-.104.087-.014.014-.025.03-.038.044a3.632 3.632 0 0 0-.353.428c-.054.076-.101.156-.15.237zm-1.627 6.156l.484 1.349h8.487l.483-1.349zM44.925 21.37l.248-.361c.024-.034.053-.064.077-.098.025-.037.047-.076.072-.113.177-.252.369-.497.572-.728a1.592 1.592 0 0 0-.112-.747 1.896 1.896 0 0 0-.216-.349 1.456 1.456 0 0 0-1.124-.525 1.464 1.464 0 0 0-1.123 2.399 1.45 1.45 0 0 0 1.192.522l.037-.001zm13.374-4.353l.038.014V14.28h-8.178v2.754l.036-.017a10.99 10.99 0 0 1 4.053-.782c1.43 0 2.795.284 4.05.782zM49.907 4.228c.003-.006.009-.01.012-.016.194-.296.419-.569.669-.819.008-.008.013-.018.02-.026.056-.054.12-.096.178-.147.11-.098.22-.194.339-.282.053-.04.099-.089.154-.127a1.222 1.222 0 0 0-.13-.375 1.754 1.754 0 0 0-.202-.269 1.216 1.216 0 1 0-1.04 2.061z"/></g><g><path fill="#23409d" d="M23.645 6.721c1.323 1.345 1.431 3.01 1.432 3.49l1.564.003c.004-.51.13-2.287 1.557-3.714 1.413-1.412 3.174-1.547 3.68-1.554l.782-.01-.022-1.565-.783.012c-.839.012-2.983.233-4.763 2.011A6.811 6.811 0 0 0 25.848 7.1a6.46 6.46 0 0 0-1.089-1.475c-1.778-1.805-4.01-1.953-4.654-1.955l-.78-.002-.006 1.563.782.003c.49.002 2.19.113 3.544 1.488z"/></g><g><path fill="#23409d" d="M83.715 29.062h1.563v-4.738h-1.563z"/></g><g><path fill="#23409d" d="M28.41 20.632c-.048-2.506.563-4.468 1.819-5.836 1.106-1.205 2.417-1.624 3.575-1.995 1.068-.341 2.078-.665 2.922-1.566.926-.988 1.399-2.452 1.462-4.308a14.02 14.02 0 0 1-.004-.796h.03l-.02-.737 1.563-.044.022.78c.008.274.003.537-.005.797.063 1.856.535 3.32 1.462 4.308.844.9 1.854 1.225 2.923 1.567 1.157.37 2.468.789 3.574 1.994l-.554.51-.598.548c-.826-.9-1.786-1.207-2.9-1.563-1.154-.37-2.464-.79-3.586-1.987a6.354 6.354 0 0 1-1.114-1.676 6.375 6.375 0 0 1-1.113 1.676c-1.122 1.198-2.433 1.617-3.588 1.987-1.113.356-2.074.663-2.9 1.563-1.036 1.129-1.505 2.862-1.392 5.152l.023.465-.398.242c-1.205.732-2.01 1.895-2.26 3.165a4.325 4.325 0 0 0-.064 1.187c.007.078.003.155.014.232.259 1.914 1.839 3.47 3.806 3.876.456-3.998 3.826-7.064 7.888-7.064h.002c2.026 0 3.895.799 5.314 2.092 1.538 1.402 2.547 3.387 2.627 5.59l.005.16.027.888h-.922c-.238 0-.514-.001-.816-.012-1.011-.034-2.35-.175-3.82-.755a11.223 11.223 0 0 1-2.692-1.53 9.245 9.245 0 0 1-1.098.824c-.022.015-.04.032-.063.046-.001 0-.002 0-.003.002l-.002.002a9.847 9.847 0 0 1-5.122 1.444c-.224 0-.421-.01-.6-.021l-.041-.001h-.004l-.012-.001-.78-.055.003-.05c-2.73-.464-4.883-2.545-5.247-5.224-.02-.148-.02-.295-.027-.443a5.957 5.957 0 0 1 .48-2.731 6.459 6.459 0 0 1 2.205-2.702zm15.709 6.664a6.524 6.524 0 0 0-2.523-2.05 10.178 10.178 0 0 1-1.763 3.155c.67.492 1.387.913 2.156 1.216a9.31 9.31 0 0 0 2.58.603c.269.025.524.039.76.047a6.371 6.371 0 0 0-1.21-2.971zm-5.122-2.624c-3.236 0-5.927 2.425-6.328 5.6a9.009 9.009 0 0 0 2.854-.594c.216-.088.43-.17.65-.282.184-.095.368-.191.553-.306 2.007-1.276 2.948-3.123 3.373-4.316a6.168 6.168 0 0 0-1.101-.102z"/></g><g><path fill="#23409d" d="M30.788 36.813c.062-.238.264-.28.47-.238v-.638c-.61-.14-1.175-.061-1.304.622-.052.238-.13.586-.357.715-.088.057-.207.062-.353.062v-1.409h-.937v1.409c-.145 0-.26-.005-.348-.062-.233-.129-.31-.477-.357-.715-.135-.683-.7-.762-1.311-.622v.638c.213-.042.415 0 .472.238.108.435.212.762.42.979-.348.539-.695 1.083-1.037 1.622v.139h1.067c.265-.466.529-.932.793-1.393.109.01.17.021.3.021v1.372h.938v-1.372c.135 0 .192-.011.306-.021.259.461.523.927.787 1.393h1.073v-.139c-.347-.539-.694-1.083-1.037-1.622.203-.217.306-.544.415-.979z"/></g><g><path fill="#23409d" d="M32.783 37.699v-1.772h-.948v3.637h.28l1.906-1.881v1.87h.948v-3.641h-.295z"/></g><g><path fill="#23409d" d="M38.117 37.652c.295.15.45.446.45.777 0 .622-.404 1.104-1.15 1.104h-1.746v-3.621h1.601c.674 0 1.145.44 1.145 1.113a.855.855 0 0 1-.3.627zm-1.497-.311h.585c.181 0 .274-.139.28-.285.005-.16-.088-.321-.28-.321h-.585zm.73 1.368c.181 0 .264-.135.28-.28.01-.166-.099-.321-.285-.321h-.725v.601z"/></g><g><path fill="#23409d" d="M40.788 35.855c.927 0 1.85.632 1.85 1.886 0 1.108-.767 1.88-1.865 1.88-.959 0-1.855-.622-1.855-1.88 0-1.254.927-1.886 1.87-1.886zm-.01 2.87c.451 0 .912-.337.912-.984 0-.648-.45-.985-.902-.985-.47 0-.922.322-.922.985 0 .647.446.984.912.984z"/></g><g><path fill="#23409d" d="M44.09 38.098h1.212v-.83H44.09v-.517h1.315v-.824h-2.263v3.627h2.31v-.865H44.09z"/></g><g><path fill="#23409d" d="M49.414 36.135v1.103H48.29v-1.31h-.948v3.625h.948v-1.45h1.124v1.45h.948v-3.626h-.948z"/></g><g><path fill="#23409d" d="M53.477 37.34l.972 2.084v.13h-.979l-.212-.452H51.9l-.207.451h-.989v-.129l1.11-2.36.553-1.173h.435zm-.52.97l-.378-.875-.373.875z"/></g><g><path fill="#23409d" d="M56.291 38.725c-.555 0-.907-.461-.907-.984 0-.161.03-.304.077-.432.132-.35.428-.563.83-.563.287 0 .511.08.661.273a.826.826 0 0 1 .131.245h.912a1.61 1.61 0 0 0-.172-.523c-.308-.59-.94-.85-1.532-.85-.829 0-1.652.488-1.819 1.48-.02.12-.036.242-.036.375 0 1.222.927 1.844 1.855 1.844.771 0 1.575-.41 1.714-1.44h-.911c-.098.393-.409.575-.803.575z"/></g><g><path fill="#23409d" d="M59.659 35.89l-1.632 3.534v.13h.906l.928-2.114.922 2.114h.917v-.13l-1.642-3.533z"/></g><g><path fill="#23409d" d="M62.999 38.098h1.212v-.83h-1.212v-.517h1.316v-.824h-2.264v3.627h2.311v-.865h-1.363z"/></g><g><path fill="#23409d" d="M67.996 38.75h.383v1.244h-.761v-.441h-2.145v.44h-.767v-1.242h.363l1.249-2.86h.398zm-.958-.01l-.518-1.295h-.005l-.498 1.295z"/></g><g><path fill="#23409d" d="M69.735 37.699v-1.772h-.948v3.637h.28l1.906-1.881v1.87h.949v-3.641h-.296z"/></g><g><path fill="#23409d" d="M73.569 38.098h1.212v-.83h-1.212v-.517h1.316v-.824H72.62v3.627h2.31v-.865H73.57z"/></g><g><path fill="#23409d" d="M92 33.46c.154 1.372.148 4.006-1.606 6.235-2.18 2.769-6.135 3.776-9.98 2.662.164 1.248.104 3.054-1.138 4.528-1.536 1.825-4.1 2.192-5.962 1.746-1.502-.36-2.394-1.242-3.257-2.094-.89-.88-1.732-1.71-3.318-2.141a7.043 7.043 0 0 0-.994-.195c0 1.056-.19 2.094-.562 3.045-.25.642-.775 1.98-2.09 2.957a6.293 6.293 0 0 1-.289.203c-1.385.93-3.158 1.236-4.993.864-1.498-.305-2.435-1.154-3.426-2.052a14.594 14.594 0 0 1-.227-.212c-.592-.557-2.163-2.037-3.62-2.785a7.513 7.513 0 0 0-2.565-.758c.085.242.157.486.217.735.15.622.44 2.277-.138 4.182-.763 2.52-2.58 3.959-3.326 4.459-1.385.93-3.054 1.41-4.836 1.41-.689 0-1.394-.072-2.106-.216-3.613-.734-7.686-5.528-12.252-11.25-.906-1.133-2.406-3.013-4.783-3.463l-.029-.005c.046.648-.04 1.466-.52 2.256-.467.768-1.44 1.71-3.429 1.848-.659.045-1.992-.033-3.517-1.072-1.345-.917-2.307-2.27-3.024-4.258a15.97 15.97 0 0 1-.267-.837c-.273-.916-.53-1.783-1.18-2.168-.328-.195-.783-.246-1.282-.145-1.038.21-2.194.865-3.438 1.945a10.923 10.923 0 0 0-1.674 1.828l-.069.117c-.32.542-.53.9-1.01.924-.53.023-.996-.392-1.06-.947a1.134 1.134 0 0 1-.003-.218c.035-.387.25-.663.365-.812.233-.3.467-.601.708-.896 2.531-3.096 5.811-5.11 9.487-5.826a15.724 15.724 0 0 1 2.998-.29h78.118zm-12.357 6.962c3.601 1.55 7.517.854 9.522-1.694 1.16-1.473 1.364-3.202 1.33-4.4h-76.69c-.903 0-1.81.088-2.7.26-.893.175-1.76.435-2.597.776.39.059.753.185 1.073.375 1.174.699 1.566 2.01 1.88 3.066.081.269.157.523.24.753.6 1.663 1.373 2.775 2.434 3.497 1.135.773 2.07.836 2.53.805 1.06-.074 1.8-.444 2.2-1.102.526-.866.22-1.87.152-2.061l-.365-1.048 1.11.009a7.19 7.19 0 0 1 1.278.126c2.946.557 4.741 2.805 5.705 4.013 3.381 4.237 8 10.023 11.35 10.704 2.174.442 4.166.11 5.76-.96.606-.407 2.083-1.575 2.701-3.614a6.598 6.598 0 0 0 .114-3.362 6.23 6.23 0 0 0-.615-1.567l-.643-1.151 1.318-.012c1.682-.016 3.207.32 4.522.995 1.654.849 3.282 2.383 3.977 3.038.083.078.15.14.195.18.911.827 1.621 1.47 2.698 1.689 1.442.293 2.76.076 3.81-.628.05-.034.128-.087.228-.161.956-.71 1.338-1.688 1.567-2.272.39-.993.532-2.11.414-3.231l-.09-.872.875.009c.76.007 1.507.11 2.224.305 1.982.54 3.057 1.6 4.006 2.538.775.766 1.445 1.427 2.523 1.685 1.348.324 3.3.076 4.402-1.232 1.498-1.781.53-4.438.52-4.464l-.64-1.717z"/></g></g></svg>