<svg xmlns="http://www.w3.org/2000/svg" viewBox="0 0 35 35"><defs><style>.cls-1{fill:#fff;}</style></defs><title>Ресурс 89</title><g id="Слой_2" data-name="Слой 2"><g id="Главная"><path id="_Составной_контур_" data-name="&lt;Составной контур&gt;" class="cls-1" d="M9.13,4.43a4.7,4.7,0,1,0,4.7,4.7A4.71,4.71,0,0,0,9.13,4.43Zm0,7.42a2.72,2.72,0,1,1,2.72-2.72A2.72,2.72,0,0,1,9.13,11.85ZM13.65,0h-9A4.62,4.62,0,0,0,0,4.61v9a4.62,4.62,0,0,0,4.61,4.61h9a4.62,4.62,0,0,0,4.61-4.61v-9A4.62,4.62,0,0,0,13.65,0Zm2.62,13.65a2.62,2.62,0,0,1-2.62,2.62h-9A2.62,2.62,0,0,1,2,13.65v-9A2.62,2.62,0,0,1,4.61,2h9a2.62,2.62,0,0,1,2.62,2.62ZM14,5.4h0A1.12,1.12,0,1,1,15.1,4.29,1.11,1.11,0,0,1,14,5.4"/></g></g></svg>