<svg xmlns="http://www.w3.org/2000/svg" viewBox="0 0 200 200"><defs><style>.cls-1{fill:#def3e7;}.cls-2{fill:#4dc288;}</style></defs><title>man</title><g id="Слой_2" data-name="Слой 2"><g id="Слой_1-2" data-name="Слой 1"><rect class="cls-1" width="200" height="200" rx="70.05"/><path class="cls-2" d="M155.67,140.93a4.37,4.37,0,1,0-8.56,1.8,4.55,4.55,0,0,1-.91,3.81,4.47,4.47,0,0,1-3.52,1.67H130l7-8.11a4.41,4.41,0,0,0-.12-5.92l-9.43-10,5.46-6.88a48.27,48.27,0,0,1,7,8.27,4.36,4.36,0,0,0,6.07,1.2,4.41,4.41,0,0,0,1.19-6.1,56.84,56.84,0,0,0-11.69-12.82l-.35-.32c-.14-.11-.29-.21-.43-.3a56.41,56.41,0,0,0-16.86-9,30,30,0,0,0,11.93-24c0-.76,0-1.51-.09-2.26a4.71,4.71,0,0,0,1.85-3.73V58.46A22.45,22.45,0,0,0,109.05,36H88.52A22.45,22.45,0,0,0,66.09,58.46v9.83A4.72,4.72,0,0,0,70.31,73c0,.43,0,.86,0,1.3a29.94,29.94,0,0,0,11.94,24A56.57,56.57,0,0,0,63.9,108.38a57.48,57.48,0,0,0-19.56,32.51,13.4,13.4,0,0,0,2.7,11.2A13.14,13.14,0,0,0,57.32,157H79.68l.41,0,.15,0,.26,0,.17,0a1,1,0,0,0,.23-.06l.17-.05.22-.08.16-.07.21-.1.16-.09.19-.12.16-.1.17-.13.16-.13,0,0,.1-.09.17-.17.14-.15.14-.16.13-.19.11-.16.12-.2c0-.06.07-.11.1-.18l.09-.19.09-.2.07-.19a1.87,1.87,0,0,1,.07-.22c0-.06,0-.13,0-.19a1.89,1.89,0,0,0,0-.23l0-.2,0-.22c0-.08,0-.16,0-.23s0-.09,0-.14,0,0,0-.06a2.18,2.18,0,0,0,0-.25c0-.06,0-.12,0-.19a2.23,2.23,0,0,0,0-.23l0-.2-.06-.21c0-.07,0-.14,0-.2a1.19,1.19,0,0,0-.08-.2,1.18,1.18,0,0,0-.07-.2l-.09-.19-.1-.2-.1-.17a1.37,1.37,0,0,0-.13-.2l-.11-.15-.16-.2,0,0L72.22,137.33l9.31-9.85a4.42,4.42,0,0,0,.25-5.78L74,111.9a47.72,47.72,0,0,1,21.1-7.48l-8.32,36.87a4.45,4.45,0,0,0,1,3.87l8.74,10.12a4.36,4.36,0,0,0,6.6,0l8.74-10.12a4.42,4.42,0,0,0,1-3.87l-8.34-36.92A47.82,47.82,0,0,1,126,111.88l-7.79,9.82a4.42,4.42,0,0,0,.25,5.78l9.31,9.85-10.75,12.38a4.43,4.43,0,0,0-.69,4.72,4.38,4.38,0,0,0,4,2.58h22.35A13.16,13.16,0,0,0,153,152.09,13.4,13.4,0,0,0,155.67,140.93Zm-92.53-6.75A4.41,4.41,0,0,0,63,140.1l7,8.11H57.32a4.44,4.44,0,0,1-3.5-1.67,4.65,4.65,0,0,1-.93-3.86A48.3,48.3,0,0,1,67.1,117.31l5.47,6.88ZM74,59.89V58.46A14.58,14.58,0,0,1,88.52,43.89h16V57.61a7.58,7.58,0,0,1-7.57,7.57H74Zm38.42-12.82v-2.8a14.64,14.64,0,0,1,11.25,14.19v6.71h-3.69a7.71,7.71,0,0,1-1.07-.08,7.57,7.57,0,0,1-6.49-7.48V47.07ZM99.78,145.68l-4-4.61,4-17.67,4,17.67ZM101,95.37h-1l-1,0a21.09,21.09,0,0,1-20-21.1c0-.42,0-.83.06-1.24H96.93a15.35,15.35,0,0,0,11.5-5.15,15.47,15.47,0,0,0,8.26,4.8l4.22.22c0,.46.07.91.07,1.37A21.08,21.08,0,0,1,101,95.37Z"/></g></g></svg>