<svg xmlns="http://www.w3.org/2000/svg" viewBox="0 0 20.85 19.4"><defs><style>.cls-1{fill:#505fa0;}</style></defs><title>Ресурс 76</title><g id="Слой_2" data-name="Слой 2"><g id="Карта"><path class="cls-1" d="M20.85,2.45V11.9a.82.82,0,0,1-.82.82h0a.82.82,0,0,1-.81-.82V2.45a.82.82,0,0,0-.82-.82H2.45a.82.82,0,0,0-.82.82V8.61l1.9-2.77a1.93,1.93,0,0,1,3.1-.12L7.71,7.07h0A1.56,1.56,0,0,1,10.24,7l3.92,5.09v.62H12.58l-2-2.56c-1.77-2.3-1.4-2.4-3.12.07L4.88,14a.8.8,0,0,1-1.13.2h0a.8.8,0,0,1-.2-1.13L6.74,8.46h0c-1.8-2.24-1.39-2.39-3.11.12l-2,2.92v4a.82.82,0,0,0,.82.81H10a.82.82,0,0,1,.81.82h0a.81.81,0,0,1-.81.81H2.45A2.44,2.44,0,0,1,0,15.49v-13A2.44,2.44,0,0,1,2.45,0h16a2.45,2.45,0,0,1,2.45,2.45ZM15.39,7.83a2.45,2.45,0,1,1,2.44-2.45,2.45,2.45,0,0,1-2.44,2.45Zm.81-2.45a.82.82,0,0,0-.81-.82.82.82,0,0,0-.82.82.82.82,0,0,0,.82.81.81.81,0,0,0,.81-.81Zm.41,5.54h0a.82.82,0,0,0-.82.82v2.61h-2.6a.82.82,0,0,0-.82.81h0a.82.82,0,0,0,.82.82h2.6v2.6a.82.82,0,0,0,.82.82h0a.82.82,0,0,0,.81-.82V16H20a.82.82,0,0,0,.82-.82h0a.82.82,0,0,0-.82-.81H17.42V11.74A.82.82,0,0,0,16.61,10.92Z"/></g></g></svg>