<svg xmlns="http://www.w3.org/2000/svg" width="232" height="589" viewBox="0 0 232 589"><g><g><path fill="#e8fafa" d="M224.675 176.54c-11.53 34.213-43.182 68.601-93.22 86.498-11.486 4.108-23.181 6.747-35.418 9.006-12.108 2.236-24.567 4.624-35.22 9.751-23.623 11.37-23.094 30.92-22.972 46.565.6 76.546 55.889 152.046 11.333 231.337C31.44 591.264-5.723 621.291-54.06 635.231c-50.726 14.63-98.964 3.367-137.3-13.726-20.072-8.949-38.367-19.35-56.706-29.652-20.206-11.35-40.244-22.837-59.185-35.073-18.628-12.033-36.247-24.772-51.697-38.67-14.873-13.38-26.25-27.877-37.116-42.967-8.541-11.86-18.66-24.659-36.78-31.059-22.392-7.909-47.153-2.053-72 3.36-12.22 2.661-25.043 5.067-37.083 3.466-10.077-1.34-18.478-5.102-24.96-9.898-15.112-11.183-20.241-26.3-22.23-41.658-2.181-16.85-2.114-34.019-9.003-49.909.765-1.236.854-2.64-.127-4.088-24.05-35.459-43.561-72.578-57.704-111.008-7.034-19.113-12.824-38.528-17.331-58.18-3.538-15.429-7.741-31.442-3.46-47.716 4.1-15.579 18.526-29.758 43.707-33.83 27.274-4.409 53.969 1.952 76.806 8.41 49.529 14.003 93.232 34.167 139.179 51.83 22.543 8.666 45.735 17.224 70.524 23.44 25.305 6.345 51.319 6.8 79.042-1.289 46.898-13.683 88.58-39.02 125.658-62.499 37.12-23.508 72.457-48.4 112.34-69.924C9.18 23.726 56.609 3.92 104.879.6c28.909-1.988 50.963 4.926 67.574 18.383 16.986 13.762 29.668 30.18 39.254 47.053 19.065 33.558 25.75 72.573 12.969 110.504z"/></g></g></svg>