<svg xmlns="http://www.w3.org/2000/svg" viewBox="0 0 909.8 641.72"><defs><style>.cls-1{fill:#e8fafa;}</style></defs><title>Ресурс 78</title><g id="Слой_2" data-name="Слой 2"><g id="Главная"><path class="cls-1" d="M903.23,176.28C891.7,210.49,860,244.88,810,262.78c-11.49,4.1-23.18,6.74-35.42,9s-24.57,4.62-35.22,9.75c-23.63,11.37-23.1,30.92-23,46.57.6,76.54,55.89,152,11.33,231.33C710,591,672.83,621,624.49,635c-50.72,14.63-99,3.36-137.3-13.73-20.07-9-38.37-19.35-56.71-29.65-20.2-11.35-40.24-22.84-59.18-35.07-18.63-12-36.25-24.78-51.7-38.67-14.87-13.38-26.25-27.88-37.11-43C274,463,263.83,450.22,245.71,443.82c-22.4-7.91-47.16-2.05-72,3.36-12.22,2.66-25.05,5.07-37.09,3.47a53.69,53.69,0,0,1-25-9.9c-15.12-11.18-20.25-26.3-22.24-41.66-2.18-16.85-2.11-34-9-49.91a3.52,3.52,0,0,0-.13-4.09c-24-35.46-43.56-72.57-57.7-111A479.12,479.12,0,0,1,5.27,175.91c-3.54-15.43-7.74-31.45-3.46-47.72,4.1-15.58,18.53-29.76,43.71-33.83,27.27-4.41,54,2,76.8,8.41,49.53,14,93.23,34.17,139.18,51.83C284,163.27,307.24,171.82,332,178c25.31,6.35,51.32,6.8,79.05-1.29,46.89-13.68,88.58-39,125.65-62.5s72.46-48.4,112.35-69.92c38.66-20.87,86.09-40.67,134.36-44,28.91-2,51,4.92,67.57,18.38,17,13.76,29.67,30.18,39.26,47.05C909.32,99.33,916,138.34,903.23,176.28Z"/></g></g></svg>