<svg xmlns="http://www.w3.org/2000/svg" width="14" height="14" viewBox="0 0 14 14"><g><g><path fill="#ffde00" d="M13.813 6.08a.999.999 0 0 0 .253-1.03.992.992 0 0 0-.811-.683l-3.389-.493a.446.446 0 0 1-.334-.243L8.017.561A.999.999 0 0 0 7.116 0c-.385 0-.729.214-.901.56L4.7 3.63a.442.442 0 0 1-.334.243l-3.389.493A1.002 1.002 0 1 0 .419 6.08l2.454 2.39A.445.445 0 0 1 3 8.862l-.579 3.376a.988.988 0 0 0 .219.814c.3.356.821.464 1.239.244l3.031-1.593a.45.45 0 0 1 .413 0l3.032 1.593a.984.984 0 0 0 .467.118c.296 0 .577-.132.77-.362a.988.988 0 0 0 .22-.814l-.58-3.376a.449.449 0 0 1 .128-.393z"/></g></g></svg>