<svg xmlns="http://www.w3.org/2000/svg" viewBox="0 0 35 35"><defs><style>.cls-1{fill:#d3eff2;}.cls-2{fill:#36a9e1;}</style></defs><title>Ресурс 81</title><g id="Слой_2" data-name="Слой 2"><g id="Главная"><rect class="cls-1" width="35" height="35" rx="12.26" ry="12.26"/><path class="cls-2" d="M27.2,19.32h0L25,17.25,27,12.87a.78.78,0,0,0,0-.6.77.77,0,0,0-.41-.44L20.84,9.28a3,3,0,0,0,.12-.7,2,2,0,0,0-2-2,.79.79,0,0,0,0,1.57.44.44,0,0,1,.43.45,3.67,3.67,0,0,1-.2.7.33.33,0,0,0-.06.1L16,16.5a4.31,4.31,0,0,0,.93,4.82h0l4.34,4.14a4.14,4.14,0,0,0,1.23.84,4.25,4.25,0,0,0,1.74.37,4.31,4.31,0,0,0,1.41-.24.79.79,0,0,0,.48-1,.78.78,0,0,0-1-.48,2.64,2.64,0,0,1-2-.09,2.67,2.67,0,0,1-.79-.53h0L18,20.19a2.73,2.73,0,0,1-.58-3.05l.79-1.78h0l1.49-.55.54,1.49a.77.77,0,0,0,.41.44h0a.78.78,0,0,0,.6,0l1.49-.56.55,1.51a.81.81,0,0,0,.31.39l2.49,2.34a2.74,2.74,0,0,1,.66,2.83.78.78,0,1,0,1.48.51,4.31,4.31,0,0,0-1.06-4.47ZM23,14.47l-1.5.56-.56-1.51a.81.81,0,0,0-.4-.45.83.83,0,0,0-.6,0l-.81.3.66-1.49a.75.75,0,0,0,.07-.12c.12-.23.29-.59.47-1L25.2,13l-1.07,2.42L24,14.94a.8.8,0,0,0-.41-.44h0a.76.76,0,0,0-.59,0ZM19.32,25.22A.79.79,0,0,1,19,26.27a4.36,4.36,0,0,1-1.83.41,4.27,4.27,0,0,1-3-1.21L9.81,21.33h0a4.3,4.3,0,0,1-.92-4.82l.94-2.13a.77.77,0,0,1,.07-.16L12,9.38l.05-.1a3,3,0,0,0,.2-.7.44.44,0,0,0-.43-.45.79.79,0,0,1,0-1.57,2,2,0,0,1,2,2,2.56,2.56,0,0,1-.12.7l2.55,1.16a.78.78,0,0,1-.64,1.43l-2.46-1.11c-.17.39-.34.75-.46,1l-.08.12L12,13.23l.47-.18a.83.83,0,0,1,.6,0,.77.77,0,0,1,.4.45L14.07,15l.07,0a.79.79,0,0,1,1,.48.8.8,0,0,1-.48,1l-.78.27a.75.75,0,0,1-.26.05.8.8,0,0,1-.33-.08h0a.77.77,0,0,1-.41-.44l-.54-1.49-1.17.43-.85,1.91a2.73,2.73,0,0,0,.59,3.05l4.33,4.14h0a3,3,0,0,0,.79.53,2.65,2.65,0,0,0,2.27,0,.79.79,0,0,1,1,.38Z"/></g></g></svg>