<svg width="30" height="30" fill="none" xmlns="http://www.w3.org/2000/svg"><path d="M29.887 14.834l-3.297-3.848 3.297-3.846a.468.468 0 00-.128-.715L19.083.495a.469.469 0 00-.558.076l-3.242 3.215L12.07.572a.468.468 0 00-.567-.074L.234 7.022a.47.47 0 00-.07.762l3.819 3.272L.687 15.45a.467.467 0 00.148.691l3.283 1.824a.458.458 0 00-.028.139v4.336c0 .573.308 1.107.804 1.395l9.54 5.507c.256.148.544.222.832.222h.015l.014-.002c.278-.005.555-.077.803-.22l9.51-5.49c.514-.298.833-.852.833-1.445v-4.83l3.335-2.039a.468.468 0 00.111-.704zm-15.075 1.279l-9.26-5.146 9.26-5.66v10.806zm.938-10.824l9.292 5.678-9.292 5.163V5.289zm3.186-3.804l9.866 5.48-2.925 3.414-9.845-6.016 2.904-2.878zm-7.275.005l2.883 2.883-9.877 6.036-3.391-2.906L11.66 1.49zm-6.91 10.105l9.828 5.46-2.972 3.998-9.847-5.47 2.99-3.988zm.613 11.428a.677.677 0 01-.337-.583v-3.97l6.484 3.602a.467.467 0 00.603-.13l2.698-3.629v10.165l-9.448-5.455zm20.14-.616c0 .26-.14.502-.365.633l-9.39 5.42V18.304l2.731 3.64a.468.468 0 00.62.12l6.404-3.914v4.258zm-6.53-1.367l-2.98-3.973 9.872-5.485 2.951 3.443-9.842 6.015z" fill="#B40970"/></svg>