<svg width="56" height="56" fill="none" xmlns="http://www.w3.org/2000/svg"><path d="M2.8 56h4.667a2.786 2.786 0 002.072-.934h23.409c1.37 0 2.712-.376 3.882-1.089l17.492-10.649a3.496 3.496 0 001.612-2.32 3.436 3.436 0 00-.584-2.682.895.895 0 00-.054-.079 3.484 3.484 0 00-3.897-1.213l-14.458 4.819 17.854-17.861a.933.933 0 000-1.32l-7.467-7.467a3.625 3.625 0 00-5.103.055l-.088.088a2.216 2.216 0 00-.6 1.854 4.595 4.595 0 01-2.194 4.496 4.38 4.38 0 01-4.532.047 4.232 4.232 0 01-2.05-3.16 4.56 4.56 0 015.127-5.04 2.153 2.153 0 001.809-.592l.104-.104a3.628 3.628 0 00.056-5.109L32.39.273a.933.933 0 00-1.32 0l-7.7 7.692a1.817 1.817 0 01-1.26.542 1.534 1.534 0 01-1.244-.519l-.052-.052a.298.298 0 01-.04-.223 6.086 6.086 0 00-6.73-7.1A6.534 6.534 0 009.24 3.664a6.272 6.272 0 00-.121 6.485 6.113 6.113 0 006.292 2.922.314.314 0 01.25.047l.075.075c.319.32.493.756.483 1.208-.008.475-.2.928-.539 1.261l-7.7 7.69a.933.933 0 000 1.321l10.535 10.532a7.85 7.85 0 01-.665-.466 9.487 9.487 0 00-5.903-2.073h-1.852a2.8 2.8 0 00-2.628-1.867H2.8a2.8 2.8 0 00-2.8 2.8v19.6A2.8 2.8 0 002.8 56zm7.164-31.987l7.039-7.028a3.669 3.669 0 001.085-2.556 3.504 3.504 0 00-1.026-2.553l-.074-.074a2.117 2.117 0 00-1.867-.571 4.27 4.27 0 01-4.386-2.039 4.387 4.387 0 01.092-4.527 4.672 4.672 0 013.428-2.193 4.22 4.22 0 014.674 4.949 2.147 2.147 0 00.588 1.856l.068.061a3.509 3.509 0 002.502 1.033h.057a3.674 3.674 0 002.55-1.088l7.04-7.032 6.804 6.8c.664.7.64 1.801-.05 2.472l-.106.104a.322.322 0 01-.247.062 6.427 6.427 0 00-7.224 7.112 6.145 6.145 0 002.92 4.531 6.27 6.27 0 006.491-.051 6.44 6.44 0 003.063-6.315.383.383 0 01.066-.3l.087-.087a1.757 1.757 0 012.47-.056l6.807 6.809-19.587 19.6h-.52a4.293 4.293 0 00-.347-3.675l-.084-.14A5.631 5.631 0 0027.47 36.4h-4.884c-.084 0-.167-.008-.25-.011L9.963 24.013zm6.72 12.182a9.49 9.49 0 005.25 2.043c.217.015.435.028.653.028h4.883c1.31.003 2.523.69 3.2 1.811l.084.14c.51.85.454 1.923-.14 2.715h-5.67a9.302 9.302 0 00-5.177 1.569l-.684.455a.933.933 0 101.036 1.553l.683-.455a7.442 7.442 0 014.142-1.255h8.296c.115 0 .228-.02.343-.028.016 0 .031.01.046.01a.896.896 0 00.111-.022c.332-.031.659-.098.976-.199l17.278-5.76a1.61 1.61 0 011.762.492c.016.027.035.054.053.08a1.623 1.623 0 01-.453 2.361L35.86 52.383a5.6 5.6 0 01-2.912.816H10.267V34.532h1.68a7.609 7.609 0 014.737 1.663zM1.867 33.599c0-.515.418-.933.933-.933h4.667c.515 0 .933.418.933.933v19.6a.933.933 0 01-.933.934H2.8a.933.933 0 01-.933-.934V33.6z" fill="#B9B792"/></svg>