<svg width="56" height="56" fill="none" xmlns="http://www.w3.org/2000/svg"><path d="M37.492 34.495c-.665 0-1.204.539-1.204 1.204v7.278a5.13 5.13 0 01-5.124 5.123H19.777c-.665 0-1.204.539-1.205 1.204l-.001 1.735-2.242-2.242a1.205 1.205 0 00-1.093-.697H8.383a5.13 5.13 0 01-5.124-5.123V26.734a5.13 5.13 0 015.124-5.123h10.652a1.205 1.205 0 000-2.41H8.383c-4.154 0-7.533 3.38-7.533 7.533v16.243c0 4.153 3.38 7.532 7.533 7.532h6.25l4.289 4.288a1.204 1.204 0 002.056-.85l.003-3.438h10.183c4.154 0 7.533-3.379 7.533-7.532v-7.278c0-.665-.54-1.204-1.205-1.204z" fill="#B9B792" stroke="#B9B792" stroke-width=".3"/><path d="M47.398 35.207h0a1.205 1.205 0 002.057-.852v-6.03a15.625 15.625 0 004.013-4.972 15.314 15.314 0 001.682-7.024C55.15 7.794 48.206.85 39.67.85h-2.669c-8.535 0-15.48 6.944-15.48 15.48 0 8.535 6.945 15.479 15.48 15.479h2.67a15.51 15.51 0 003.845-.482l3.882 3.88zm.127-8.43h0c-.302.227-.48.583-.48.962v3.709l-2.325-2.324h0a1.205 1.205 0 00-1.205-.3 13.073 13.073 0 01-3.844.575H37c-7.206 0-13.07-5.863-13.07-13.07 0-7.206 5.864-13.07 13.07-13.07h2.67c7.206 0 13.07 5.864 13.07 13.07 0 4.144-1.9 7.95-5.216 10.447z" fill="#B9B792" stroke="#B9B792" stroke-width=".3"/><path d="M38.956 8.251h0a4.581 4.581 0 00-3.474 1.23 4.631 4.631 0 00-1.466 3.374 1.205 1.205 0 002.41 0c0-.618.248-1.19.7-1.613a2.19 2.19 0 011.664-.587h0a2.207 2.207 0 012.042 2.041 2.195 2.195 0 01-1.716 2.312 2.146 2.146 0 00-1.69 2.102v2.534a1.205 1.205 0 102.41 0s0 0 0 0v-2.333a4.592 4.592 0 003.4-4.78 4.626 4.626 0 00-4.28-4.28zm.527 14.713h0a1.213 1.213 0 00-.852-.353c-.317 0-.628.129-.852.353a1.213 1.213 0 00-.353.852c0 .318.129.628.353.853h0c.225.224.535.352.852.352.317 0 .627-.128.852-.352h0c.224-.226.353-.535.353-.853 0-.317-.13-.628-.353-.852zm-9.479 10.581H7.75a1.205 1.205 0 000 2.41h22.254a1.205 1.205 0 100-2.41zm0 5.907c.317 0 .627.128.852.352.224.225.353.535.353.852 0 .319-.13.628-.353.852a1.213 1.213 0 01-.852.353c-.317 0-.628-.129-.852-.353a1.213 1.213 0 01-.353-.852c0-.317.129-.627.353-.852l.852-.352zm0 0c-.317 0-.628.128-.852.352l.852-.352zm-4.149 0H7.75a1.205 1.205 0 000 2.409h18.105a1.205 1.205 0 100-2.41zM23.148 27.64H7.75a1.205 1.205 0 000 2.408h15.398a1.205 1.205 0 100-2.409z" fill="#B9B792" stroke="#B9B792" stroke-width=".3"/></svg>