<svg width="44" height="44" fill="none" xmlns="http://www.w3.org/2000/svg"><g clip-path="url(#clip0)" fill="#B40970"><path d="M38.662 8.909L22.125.097a.821.821 0 00-.783.005L5.262 8.913a.823.823 0 00-.427.723v11.51A23.833 23.833 0 0019.12 42.96l2.232.972a.82.82 0 00.655.001l2.515-1.086a23.786 23.786 0 0014.576-21.928V9.636a.823.823 0 00-.436-.727zm-1.21 12.009a22.144 22.144 0 01-13.575 20.414l-.005.002-2.19.946-1.903-.83A22.184 22.184 0 016.48 21.146V10.123L21.743 1.76l15.708 8.37v10.789z"/><path d="M15.668 20.612a.823.823 0 00-1.252 1.07l4.349 5.092c.29.34.799.387 1.145.104l10.129-8.24a.823.823 0 10-1.04-1.277l-9.504 7.732-3.827-4.48z"/></g><defs><clipPath id="clip0"><path fill="#fff" d="M0 0h44v44H0z"/></clipPath></defs></svg>