<svg width="44" height="44" fill="none" xmlns="http://www.w3.org/2000/svg"><path d="M32.585 4.12h-6.629a4.698 4.698 0 00-8.595 0h-6.63a4.536 4.536 0 00-4.53 4.531V38.04a4.536 4.536 0 004.53 4.53h21.854a4.536 4.536 0 004.53-4.53V8.65a4.536 4.536 0 00-4.53-4.53zM18.107 6.184a1.03 1.03 0 001.007-.81c.253-1.153 1.324-1.99 2.545-1.99 1.22 0 2.29.837 2.544 1.99.104.474.523.81 1.007.81h2.045v.905a2.47 2.47 0 01-2.467 2.468h-6.259a2.47 2.47 0 01-2.468-2.468v-.905h2.046zM35.053 38.04a2.47 2.47 0 01-2.468 2.468H10.731a2.47 2.47 0 01-2.467-2.468V8.65a2.47 2.47 0 012.467-2.468H14v.905a4.536 4.536 0 004.53 4.53h6.259a4.535 4.535 0 004.53-4.53v-.905h3.267a2.47 2.47 0 012.468 2.468v29.39z" fill="#B40970"/><path d="M26.763 20.374l-6.77 6.61-3.438-3.355A1.03 1.03 0 0015.1 25.09l.014.014 4.157 4.06a1.033 1.033 0 001.442 0l7.49-7.314a1.031 1.031 0 00-1.44-1.475z" fill="#B40970"/></svg>