<svg width="64" height="64" fill="none" xmlns="http://www.w3.org/2000/svg"><g clip-path="url(#clip0)" fill="#B9B792"><path d="M7.296 15.308a3.127 3.127 0 00-3.127 3.127v8.339h2.085v-8.339c0-.575.466-1.042 1.042-1.042H32.31v-2.085H7.296zm0 31.269a1.042 1.042 0 01-1.043-1.042V35.112H4.17v10.423c0 1.727 1.4 3.127 3.127 3.127H17.72v-2.085H7.296z"/><path d="M33.048 49.265L7.735 23.952a1.042 1.042 0 00-1.474 0L.305 29.908a1.042 1.042 0 000 1.473l25.313 25.314a1.042 1.042 0 001.474 0l5.956-5.956a1.042 1.042 0 000-1.474zm-6.693 5.219l-23.84-23.84 4.483-4.481 23.84 23.84-4.483 4.48z"/><path d="M45.86 46.577H30.226v2.085H41.69v5.211c0 .576.466 1.043 1.042 1.043h3.127a4.17 4.17 0 100-8.339zm0 6.254h-2.084v-4.17h2.084a2.085 2.085 0 110 4.17z"/><path d="M45.86 15.308h-5.21v2.085h5.21c1.152 0 2.085.933 2.085 2.084v31.27h2.085v-31.27a4.17 4.17 0 00-4.17-4.169zM19.067 36.46l-3.127 3.126 1.473 1.474 3.128-3.127-1.474-1.474zm-4.169-4.17l-3.127 3.127 1.473 1.474 3.128-3.127-1.474-1.474zm8.336 8.339l-3.128 3.127 1.474 1.474 3.128-3.127-1.474-1.474zm4.17 4.171l-3.127 3.127 1.474 1.474 3.127-3.127-1.474-1.474zM10.726 28.121l-3.127 3.127 1.474 1.474 3.127-3.127-1.474-1.474z"/><path d="M44.957 9.313l-1.44-1.44a3.154 3.154 0 00-4.356 0L23.312 23.722a1.042 1.042 0 000 1.474l4.322 4.322a1.043 1.043 0 001.474 0l15.85-15.85a3.079 3.079 0 000-4.355zm-1.472 2.881L28.37 27.307l-2.848-2.848L40.636 9.346a1.018 1.018 0 011.407 0l1.442 1.44a.996.996 0 010 1.408z"/><path d="M28.038 27.793l-4.499 1.502 1.502-4.506-1.98-.66-2.162 6.484a1.044 1.044 0 001.314 1.322l6.485-2.162-.66-1.98zm9.715-17.04l-1.474 1.474 4.323 4.323 1.474-1.474-4.323-4.323z"/><path d="M37.522 29.9H21.888v2.085h15.634V29.9zm4.169 0h-2.085v2.085h2.085V29.9zm4.169 0h-2.084v2.085h2.085V29.9z"/></g><defs><clipPath id="clip0"><path fill="#fff" d="M0 0h64v64H0z"/></clipPath></defs></svg>