<svg width="64" height="64" fill="none" xmlns="http://www.w3.org/2000/svg"><path d="M44 19v3.293a.701.701 0 01-.207.5A2.689 2.689 0 0043 24.707V26a1 1 0 001 1h12a1 1 0 001-1v-1.293a2.688 2.688 0 00-.793-1.914.704.704 0 01-.207-.5V19a6.002 6.002 0 00-2.93-5.153l.9-3.604A1 1 0 0053 9h-6a1 1 0 00-.97 1.243l.901 3.604A6 6 0 0044 19zm4.28-8h3.44l-.53 2.119a6.01 6.01 0 00-2.38 0L48.28 11zM46 19a4 4 0 118 0v3h-2v2h2.606c.059.072.121.141.187.207a.704.704 0 01.207.5V25H45v-.293a.705.705 0 01.207-.5A2.69 2.69 0 0046 22.293V19z" fill="#B9B792"/><path d="M50 21a2 2 0 100-4 2 2 0 000 4zM27 6a3.003 3.003 0 00-3 3v16a3.003 3.003 0 003 3h10a3.003 3.003 0 003-3V9a3.003 3.003 0 00-3-3H27zm11 3v16a1.002 1.002 0 01-1 1H27a1.002 1.002 0 01-1-1V9a1.001 1.001 0 011-1h10a1.001 1.001 0 011 1z" fill="#B9B792"/><path d="M36 11h-8v2h8v-2zm-6 4h-2v2h2v-2zm3 0h-2v2h2v-2zm3 0h-2v2h2v-2zm-6 3h-2v2h2v-2zm3 0h-2v2h2v-2zm3 0h-2v2h2v-2zm-6 3h-2v2h2v-2zm3 0h-2v2h2v-2zm3 0h-2v2h2v-2zm-22 0a2 2 0 100-4 2 2 0 000 4z" fill="#B9B792"/><path d="M22 20v-2h-2.085a5.966 5.966 0 00-1.027-2.473l1.476-1.477-1.414-1.414-1.476 1.476A5.967 5.967 0 0015 13.085V11h-2v2.085a5.967 5.967 0 00-2.473 1.027L9.05 12.636 7.636 14.05l1.476 1.477A5.966 5.966 0 008.085 18H6v2h2.085c.15.892.502 1.738 1.027 2.473L7.636 23.95l1.414 1.414 1.476-1.476A5.967 5.967 0 0013 24.915V27h2v-2.085a5.967 5.967 0 002.474-1.027l1.476 1.476 1.414-1.414-1.476-1.477A5.966 5.966 0 0019.915 20H22zm-8 3a4 4 0 110-8 4 4 0 010 8zM7.537 44.716a8.03 8.03 0 0010.285 2.193L20 45.7V57a1 1 0 001 1h22a1 1 0 001-1V45.7l2.178 1.21a8.031 8.031 0 0010.285-2.194l4.682-7.014A6 6 0 0062 34.615V31a3.003 3.003 0 00-3-3h-.93a2.994 2.994 0 00-2.496 1.336l-1.113 1.67A2.306 2.306 0 0052 33.303v4.283l-1.293 1.293a1.001 1.001 0 01-1.414 0l-4.668-4.668a8.985 8.985 0 00-2.339-1.686l-.367-.183a22.179 22.179 0 00-19.838 0l-.367.183a8.984 8.984 0 00-2.34 1.686l-4.667 4.668a1.001 1.001 0 01-1.414 0L12 37.586v-4.283a2.305 2.305 0 00-2.461-2.297l-1.113-1.67A2.994 2.994 0 005.93 28H5a3.004 3.004 0 00-3 3v3.615a6 6 0 00.855 3.087l4.682 7.014zM54.303 33a.302.302 0 01.252.135L56 35.303V37h2v-2a1 1 0 00-.168-.555l-1.613-2.42-.018-.024 1.037-1.556A.998.998 0 0158.07 30H59a1.002 1.002 0 011 1v3.615a4 4 0 01-.57 2.058l-1.773 2.955L54 37.434v-4.131a.303.303 0 01.303-.303zM31 37v4.301l-4.907-8.413A20.311 20.311 0 0131 32.027V35h2v-2.973c1.665.085 3.313.374 4.907.861L33 41.301V37h-2zm-14.879 3.293l4.668-4.668a6.989 6.989 0 011.82-1.311l.366-.184a19.2 19.2 0 011.205-.55l6.956 11.924a1 1 0 001.728 0l6.956-11.925c.407.171.81.355 1.205.551l.367.184a6.986 6.986 0 011.819 1.311l4.668 4.668a3.004 3.004 0 004.242 0l1.034-1.034 3.38 2.028-1.672 2.23a6.023 6.023 0 01-7.714 1.644l-3.663-2.035A1 1 0 0042 44v12H22V44a1 1 0 00-1.486-.874l-3.663 2.035a6.023 6.023 0 01-7.714-1.645l-1.672-2.229 3.38-2.028 1.034 1.034a3.004 3.004 0 004.242 0zM4 31a1.001 1.001 0 011-1h.93a.998.998 0 01.832.445l1.037 1.556-.018.024-1.613 2.42A1 1 0 006 35v2h2v-1.697l1.445-2.168a.302.302 0 01.555.168v4.13l-3.657 2.195-1.773-2.955A4 4 0 014 34.615V31z" fill="#B9B792"/></svg>