<svg xmlns="http://www.w3.org/2000/svg" width="240" height="271" viewBox="0 0 240 271"><g><g><g><path fill="#ff7977" d="M192.064 152.189c-1.976 6.818-6.723 12.773-12.935 16.21-5.506 3.08-12.078 4.135-18.286 3.098-7.906-1.23-15-5.425-21.145-10.377-4.518-3.63-8.585-7.779-12.483-12.054 6.154-7.782 11.949-15.923 16.376-24.822 3.864-7.794 6.8-16.237 7.08-25 .156-5.56-.89-11.223-3.486-16.173-3.402-6.614-9.493-11.695-16.478-14.152-6.524-2.331-13.776-2.54-20.432-.642-6.277 1.776-12.01 5.548-15.938 10.777-3.457 4.56-5.428 10.165-5.885 15.85-.703 8.187 1.349 16.355 4.453 23.881 4.614 10.998 11.387 20.951 18.867 30.186-3.363 3.901-7.043 7.527-10.95 10.88-6.072 5.14-13.02 9.614-20.892 11.316-6.363 1.428-13.229.718-19.065-2.234-6.836-3.408-12.084-9.823-14.064-17.198-1.514-5.418-1.178-11.266.622-16.575 1.497-4.39 3.528-8.575 5.428-12.8A2110.689 2110.689 0 0 1 94.35 37.042c2.159-4.186 4.284-8.391 6.568-12.508 1.864-3.317 4.033-6.573 7.098-8.902 3.277-2.565 7.45-3.966 11.613-3.872 4.318-.05 8.607 1.54 11.909 4.314 3.261 2.708 5.464 6.413 7.443 10.106 4.472 8.4 8.767 16.898 13.064 25.386a2068.262 2068.262 0 0 1 35.343 73.519c1.705 3.842 3.534 7.655 4.683 11.71 1.405 5.002 1.453 10.403-.006 15.394zm-72.527-12.372c-2.24-2.64-4.215-5.491-6.197-8.324-3.337-4.893-6.37-10.008-8.81-15.413-2-4.484-3.604-9.191-4.23-14.08-.458-3.879-.348-7.925 1.075-11.608 1.274-3.453 3.723-6.444 6.826-8.421 7.391-4.77 17.929-4.255 24.626 1.532 3.39 2.888 5.415 7.158 5.925 11.546.665 5.833-.661 11.691-2.696 17.132-3.848 10.095-9.935 19.144-16.52 27.636zm84.953 3.464c-.058-5.25-1.289-10.436-3.203-15.307-1.477-3.77-3.193-7.443-4.869-11.128A2108.195 2108.195 0 0 0 154.45 30.61c-2.059-3.972-4.073-7.967-6.25-11.878-2.135-3.814-4.624-7.486-7.845-10.471-5.14-4.9-12.035-7.82-19.112-8.261h-3.258C110.7.36 103.587 3.417 98.36 8.513c-3.102 2.939-5.503 6.522-7.584 10.23-2.146 3.846-4.133 7.778-6.153 11.687A2125.476 2125.476 0 0 0 56.02 88.077c-5.51 11.585-10.972 23.19-16.227 34.888-2.179 4.874-4.15 9.914-4.891 15.235-1.375 8.983.596 18.412 5.395 26.124 4.137 6.7 10.346 12.102 17.583 15.221a39.617 39.617 0 0 0 17.96 3.179c8.217-.436 16.14-3.389 23.093-7.698 7.756-4.76 14.39-11.09 20.565-17.717 5.743 6.19 11.891 12.094 18.985 16.725 6.852 4.508 14.665 7.773 22.884 8.549 8.924.932 18.17-1.28 25.66-6.248 6.59-4.34 11.793-10.743 14.71-18.072a38.702 38.702 0 0 0 2.752-14.982z"/></g><g><path fill="#ff7977" d="M55.542 205.383c3.692-.836 7.727 1.6 8.686 5.265 1.192 3.753-1.176 8.113-4.947 9.196-3.684 1.298-8.059-.954-9.279-4.632-1.157-3.101.081-6.842 2.83-8.675.81-.564 1.749-.941 2.71-1.154z"/></g><g><path fill="#ff7977" d="M80.483 229.598c2.224-2.418 5.358-3.934 8.586-4.415a20.16 20.16 0 0 1 6.437.407c-.027 3.404-.006 6.803-.012 10.208-3.31-.854-6.895-1.034-10.144.163a12.083 12.083 0 0 0-4.646 3.053c-.28.239-.212.624-.237.955.02 9.51-.015 19.022.013 28.528-.033.366.056.778-.106 1.121-3.672.086-7.348.017-11.022.03.002-14.497-.012-28.997.01-43.496 3.093.015 6.187-.01 9.282.006.68-.037 1.406.31 1.655.976.244.794.166 1.641.184 2.464z"/></g><g><path fill="#ff7977" d="M159.658 229.637c2.939-3.043 7.198-4.538 11.378-4.547 4.417-.111 8.941 1.194 12.355 4.06a13.442 13.442 0 0 1 4.669 7.026c.97 3.39.884 6.95.872 10.438.003 7.68 0 15.36.003 23.042-3.703-.006-7.405.024-11.109-.017.003-7.675 0-15.35.003-23.028 0-2.852.135-5.929-1.381-8.469-1.057-1.823-3.148-2.73-5.163-2.942-3.84-.615-7.852.913-10.497 3.712-.282.282-.523.639-.492 1.064-.036 1.187.144 2.379.042 3.567-.145 1.615.08 3.229.028 4.847a315.94 315.94 0 0 0-.012 9.156c-.21 4.036.156 8.086-.085 12.117-3.688-.012-7.374-.003-11.062-.005-.002-14.504-.026-29.007.013-43.509 2.853.021 5.71 0 8.561.01.738-.047 1.544.365 1.734 1.114.174.77.122 1.572.143 2.364z"/></g><g><path fill="#ff7977" d="M51.48 269.657c-.002-14.503-.023-29.006.007-43.508 3.675.01 7.349.006 11.022.003.029 14.502.008 29.005.01 43.504-3.679 0-7.358-.003-11.039.001z"/></g><g><path fill="#ff7977" d="M33.188 256.104c-2.248 2.693-5.76 4.282-9.266 4.173-3.76.027-7.66-1.412-10.096-4.36-2.375-2.815-3.093-6.73-2.554-10.307.404-2.895 1.88-5.673 4.212-7.471 2.114-1.668 4.78-2.528 7.45-2.714 3.976-.348 8.168 1.406 10.56 4.616.135 4.725.003 9.464.063 14.202-.04.623.133 1.373-.369 1.861zm11.447-29.949c-2.912-.006-5.824.01-8.739-.016-.77-.005-1.753.033-2.13.842-.337.832-.208 1.755-.238 2.63-2.423-2.58-5.839-4.11-9.343-4.445-5.41-.484-11.017 1.016-15.362 4.3-3.578 2.645-6.224 6.468-7.609 10.678-.666 1.976-1 4.047-1.214 6.115v2.98c.31 6.233 3.083 12.397 7.92 16.416 3.648 3.09 8.336 4.819 13.085 5.119h2.476c3.765-.254 7.482-1.81 10.05-4.616.024.88-.1 1.811.23 2.652.343.682 1.152.87 1.855.844 3.005-.007 6.014.003 9.022-.013 0-14.492.01-28.99-.003-43.486z"/></g><g><path fill="#ff7977" d="M129.902 256.904c-2.482 2.304-5.917 3.409-9.27 3.376-3.5.08-6.997-1.528-9.214-4.236-.274-.283-.364-.664-.341-1.038.003-4.978.007-9.955 0-14.932 2.128-2.774 5.534-4.504 9.019-4.684 3.534-.102 7.239.934 9.831 3.426 2.469 2.292 3.675 5.729 3.597 9.057.072 3.324-1.166 6.738-3.622 9.031zm12.956-18.305c-1.711-4.186-4.748-7.825-8.596-10.199-3.964-2.467-8.718-3.582-13.366-3.265-3.67.24-7.257 1.807-9.804 4.484-.015-8.125 0-16.245-.008-24.37-3.705.002-7.413-.017-11.117.011.019 21.457-.032 42.93.027 64.385 3.067.008 6.138.015 9.208.008.763.06 1.585-.359 1.795-1.132.151-.785.096-1.596.1-2.392 2.575 2.863 6.358 4.417 10.162 4.648h2.267c6.16-.31 12.198-3.196 16.064-8.035 5.415-6.638 6.471-16.287 3.268-24.143z"/></g><g><path fill="#ff7977" d="M225.613 255.654c-2.933 3.776-8.11 5.18-12.698 4.447-2.796-.557-5.507-2.067-7.16-4.421-.184-1.828-.018-3.678-.073-5.512.039-3.377-.084-6.766.055-10.135 1.682-2.318 4.373-3.805 7.143-4.42 5.124-.946 11.085 1.084 13.676 5.817 2.359 4.382 2.124 10.235-.943 14.224zm8.657-22.438c-4.712-6.001-12.768-9.029-20.278-7.906-3.137.495-6.109 2-8.301 4.307-.024-8.12 0-16.24-.012-24.363-3.7-.004-7.395-.007-11.092.003-.003 21.46 0 42.926 0 64.39 2.916.022 5.839-.005 8.754.022.766.01 1.723-.05 2.114-.832.342-.847.215-1.79.239-2.676 2.555 2.8 6.254 4.344 9.998 4.619h2.497c6.092-.332 12.046-3.175 15.904-7.94 3.149-3.801 4.85-8.67 5.132-13.572v-2.909c-.35-4.732-1.947-9.432-4.955-13.143z"/></g></g></g></svg>