<svg xmlns="http://www.w3.org/2000/svg" width="131" height="27" viewBox="0 0 131 27"><g><g><g><g><g><path fill="#ccc" fill-opacity=".5" d="M6.151 23.595c0-3.167-.257-3.435-3.333-3.435C1.258 20.16 0 18.865 0 17.262c0-1.605 1.258-2.9 2.818-2.9s2.816 1.295 2.816 2.9c0 3.166.26 3.434 3.332 3.434 1.562 0 2.819 1.295 2.819 2.9 0 1.604-1.257 2.897-2.819 2.897zM7.8 16.017zm2.815-2.9c1.559 0 2.817 1.297 2.817 2.9 0 1.606-1.258 2.9-2.817 2.9-1.556 0-2.815-1.294-2.815-2.9 0-1.603 1.26-2.9 2.815-2.9z"/></g></g><g><path fill="#ccc" fill-opacity=".5" d="M19.275 17.099c0-3.17-.258-3.437-3.334-3.437-1.559 0-2.813-1.294-2.813-2.9 0-1.604 1.254-2.897 2.813-2.897 1.56 0 2.816 1.293 2.816 2.897 0 3.168.26 3.436 3.333 3.436 1.562 0 2.817 1.294 2.817 2.9 0 1.604-1.255 2.898-2.817 2.898-1.558 0-2.815-1.294-2.815-2.897"/></g><g><path fill="#ccc" d="M4.02 12.43c1.559 0 2.815-1.292 2.815-2.9 0-1.603-1.256-2.9-2.815-2.9-1.558 0-2.813 1.297-2.813 2.9zm12.303 13.463c1.558 0 2.814-1.292 2.814-2.9 0-1.607-1.256-2.897-2.814-2.897-1.56 0-2.816 1.29-2.816 2.897zm4.438-16.66c0 1.608 1.256 2.898 2.816 2.898 1.56 0 2.812-1.29 2.812-2.898 0-1.604-1.252-2.9-2.812-2.9-3.076 0-3.339-.266-3.339-3.43 0-1.61-1.254-2.903-2.811-2.903-1.56 0-2.817 1.293-2.817 2.903 0 1.604 1.257 2.896 2.817 2.896 3.074 0 3.334.268 3.334 3.434z"/></g><g><path fill="#ccc" fill-opacity=".5" d="M6.54 3.618c0-1.607 1.258-2.9 2.814-2.9 1.56 0 2.816 1.293 2.816 2.9s-1.256 2.9-2.816 2.9c-1.556 0-2.814-1.293-2.814-2.9"/></g><g><path fill="#ccc" d="M130.01 11.164c-.792-.542-1.432-.905-1.921-1.09a4.158 4.158 0 0 0-1.469-.277c-.527 0-.979.122-1.356.364-.376.243-.564.606-.564 1.09 0 .66.71 1.436 2.132 2.327 1.421.892 2.447 1.61 3.079 2.152.63.544.945 1.436.945 2.677 0 1.416-.473 2.467-1.416 3.155-.944.689-2.182 1.033-3.713 1.033-.774 0-1.425-.054-1.953-.16a13.076 13.076 0 0 1-1.644-.45v-2.706c.548.388 1.14.727 1.774 1.018a4.67 4.67 0 0 0 1.97.436c.795 0 1.381-.164 1.76-.495.379-.33.568-.746.568-1.25 0-.698-1.013-1.662-3.037-2.893-2.024-1.232-3.035-2.565-3.035-4 0-1.144.385-2.093 1.158-2.85.771-.756 1.957-1.134 3.559-1.134.677 0 1.209.044 1.595.13.385.088.908.228 1.568.422v2.5zM107.077 8.43h2.852v3.287c.49-.97 1.083-1.813 1.78-2.53.695-.72 1.694-1.077 2.993-1.077 1.111 0 1.953.398 2.528 1.192.574.796.862 1.745.862 2.85v10.122h-2.853v-8.667c0-1.047-.113-1.862-.34-2.444-.225-.581-.677-.872-1.355-.872-1.224 0-2.132.722-2.725 2.166-.594 1.445-.89 2.808-.89 4.088v5.73h-2.852zM99.31 2.206h3.078v2.909H99.31zm.113 6.225h2.854v13.844h-2.854zm-9.63 1.512h-2.344V8.43h2.344V7.12c0-1.588.34-2.858 1.017-3.81.678-.95 2.042-1.425 4.094-1.425.622 0 1.112.025 1.47.073.357.049.818.132 1.383.247v2.007c-.396-.174-.79-.324-1.186-.45a4.39 4.39 0 0 0-1.327-.19c-1.036 0-1.728.296-2.076.888-.349.59-.523 1.362-.523 2.312V8.43h3.813v1.512h-3.813v12.332h-2.852zm-16.549 5.41c0-4.828 1.976-7.242 5.93-7.242 1.958 0 3.44.615 4.449 1.846 1.005 1.232 1.51 3.03 1.51 5.396 0 2.346-.5 4.14-1.496 5.38-.998 1.242-2.486 1.862-4.463 1.862-1.959 0-3.437-.62-4.434-1.862-.999-1.24-1.497-3.034-1.497-5.38zm5.93 6.02c1.13 0 1.888-.586 2.273-1.76.386-1.172.58-2.593.58-4.26 0-2.25-.25-3.815-.749-4.697-.499-.882-1.2-1.324-2.104-1.324-1.111 0-1.86.587-2.245 1.76-.386 1.173-.58 2.593-.58 4.26 0 2.25.25 3.815.749 4.698.499.883 1.19 1.323 2.076 1.323zM66.663 8.43v3.519c.659-1.28 1.285-2.24 1.878-2.88.593-.64 1.435-.96 2.528-.96v3.054c-1.45 0-2.547.354-3.29 1.062-.745.708-1.116 1.944-1.116 3.709v6.34H63.81V8.43zM56.326 18.988c-.623 1.24-1.327 2.152-2.112 2.734a4.333 4.333 0 0 1-2.649.873c-1.114 0-1.96-.397-2.536-1.193-.577-.794-.864-1.744-.864-2.85V8.432h2.852V17.1c0 1.047.112 1.86.339 2.443.225.582.678.872 1.355.872 1.224 0 2.133-.721 2.726-2.166.593-1.445.89-2.807.89-4.087V8.43h2.852v13.845h-2.853zm-12.03 2.82a10.31 10.31 0 0 1-1.836.598c-.585.126-1.281.19-2.09.19-1.996 0-3.616-.65-4.858-1.95-1.242-1.3-1.864-3.267-1.864-5.904 0-2.055.452-3.675 1.356-4.857.904-1.182 2.363-1.774 4.378-1.774 1.957 0 3.308.538 4.052 1.614.744 1.075 1.116 2.428 1.116 4.057H36.5c0 1.784.415 3.442 1.243 4.974.829 1.532 2.156 2.297 3.982 2.297a5.88 5.88 0 0 0 2.571-.581zm-2.543-9.364c0-.775-.178-1.488-.536-2.138-.358-.65-1.008-.974-1.949-.974-.96 0-1.648.354-2.062 1.062-.413.708-.62 1.392-.62 2.05z"/></g></g></g></g></svg>