<svg xmlns="http://www.w3.org/2000/svg" width="128" height="22" viewBox="0 0 128 22"><g><g><g><g><path fill="#ccc" d="M92.915 10.061c3.131.214 4.852 2.388 4.852 5.634 0 4.187-3.548 5.877-8.738 5.877h-8.086V.001h8.424c4.747 0 7.017 1.529 7.017 5.124 0 2.308-.938 3.917-3.468 4.936zm-4.07 6.789c1.907 0 2.637-.992 2.637-2.12 0-1.503-1.122-1.985-2.532-1.985h-2.034v4.105zM86.917 4.723v4.05h1.59c1.305 0 2.426-.59 2.426-2.12 0-1.394-.94-1.93-2.322-1.93zM112.558 0v4.722h-7.2v3.757h6.73v4.615h-6.73v3.755h7.2v4.723H99.384V0zm8.424 0v16.849H128v4.723h-13.069V0z"/></g><g><path fill="#ccc" d="M0 0h6.025v21.572H0zm26.371 0v21.572h-6.468l-5.139-10.947-.131.053v10.894H8.607V0h6.47l5.113 10.732.156-.027V0zm2.585 0H42.1v4.722h-7.12v4.106h6.651v4.614H34.98v8.13h-6.025zm32.762 21.572h-6.913l-3.913-8.13h-.6v8.13h-6.025V.001h8.894c4.905 0 7.565 2.173 7.565 6.251 0 3.192-1.461 5.365-4.252 6.251zm-9.626-11.94c1.67 0 2.791-.886 2.791-2.576 0-1.555-.886-2.334-2.556-2.334h-2.035v4.91zm23.059 11.94l-.913-3.488h-5.32l1.303-4.265h2.894l-1.33-5.045L74.577 0l6.678 21.572z"/></g><g><path fill="#ccc" fill-opacity=".5" d="M68.708 0l-6.73 21.572h-2.817L65.89 0zm5.869 0l-6.755 21.572H65.03L71.786 0z"/></g></g></g></g></svg>