<svg xmlns="http://www.w3.org/2000/svg" width="84" height="54" viewBox="0 0 84 54"><g><g><g><g><path fill="#ccc" d="M31.635 6.112c4.313 0 6.855 1.98 6.745 6.44v8.643c0 .605-.055.991-.553 1.321-.94.66-3.372 1.872-6.856 1.872-4.59 0-6.855-2.533-6.855-5.78 0-2.863 2.156-5.34 6.855-5.34h1.936v2.972h-1.714c-2.046 0-3.594.716-3.594 2.312 0 1.817 1.327 2.808 3.705 2.808 2.266 0 3.482-.77 3.87-1.046v-7.707c0-2.257-1.106-3.248-3.704-3.248-1.383 0-2.71.385-3.65.715-1.438.496-2.433-.275-2.433-1.32 0-.606.277-1.267 1.162-1.653.995-.44 3.04-.99 5.086-.99zm43.679 7.155v.936c0 1.211-.498 1.926-1.99 1.926h-7.022v-2.862h5.474c.276 0 .332-.22.386-.495.167-2.478-1.382-3.414-3.98-3.414-2.71 0-4.091 1.818-4.147 4.24v3.633c.056 2.477 1.88 3.964 4.424 3.964 1.215 0 2.487-.386 3.815-.826 1.492-.55 2.432.386 2.432 1.376 0 .496-.165 1.046-.885 1.486-1.161.716-3.428 1.156-5.418 1.156-4.59 0-7.52-2.972-7.796-7.155-.11-1.267-.055-3.084 0-4.13.332-4.294 3.372-6.99 7.574-6.99zM80.953.331c.996 0 1.77.771 1.77 1.762v20.313c0 .991-.72 1.816-1.77 1.816-.94 0-1.77-.826-1.77-1.816V2.148c0-.99.774-1.817 1.77-1.817zM57.4 17.507c-.332 4.128-3.096 6.88-7.63 6.88-3.207 0-5.916-1.486-6.8-2.092-.554-.33-.72-.715-.72-1.32V2.036c0-.99.83-1.816 1.825-1.816.94 0 1.825.826 1.825 1.816v5.01c1.216-.55 2.764-.99 4.368-.99 4.312 0 6.8 2.586 7.132 6.715zm-3.484-4.349c-.165-2.422-1.381-3.689-3.87-3.689-1.77 0-3.317.606-4.146 1.046v9.303c.774.496 2.377 1.156 3.815 1.156 2.543 0 3.926-1.32 4.146-3.908zm-32.29 5.725c0 3.358-2.874 5.505-6.744 5.505-2.82 0-4.755-.716-6.138-1.872-.663-.55-.773-1.597-.331-2.257.498-.715 1.438-.88 2.322-.33 1.05.771 2.212 1.321 4.313 1.321 2.046 0 3.096-.936 3.096-2.202 0-.992-.608-1.597-2.322-1.982-1.161-.275-1.161-.22-2.433-.55-2.985-.77-4.865-2.313-4.865-5.01 0-3.303 2.82-5.34 6.58-5.34 1.935 0 3.87.606 5.03 1.542.72.605.609 1.706.167 2.257-.553.605-1.493.66-2.322.22-.996-.55-1.935-.826-3.097-.826-1.99 0-2.985.715-2.985 2.037 0 .881.608 1.431 2.322 1.871l2.598.606zM4.766 8.148v14.258c0 .991-.775 1.816-1.77 1.816-.94 0-1.77-.826-1.77-1.816V8.148c0-.99.775-1.817 1.77-1.817zm.22-6.166c0 1.101-.884 2.037-1.99 2.037-1.161 0-1.99-.936-1.99-2.037C1.005.882 1.834 0 2.995 0a1.978 1.978 0 0 1 1.99 1.982zm9.953 30.553v13.432c0 5.12-3.483 7.541-7.906 7.541-2.156 0-3.981-.66-5.142-1.376-.774-.495-1.438-1.156-1.438-1.982 0-.77.553-1.54 1.715-1.54 1.658 0 2.653 1.65 5.03 1.65 2.323 0 4.589-1.376 4.589-4.019v-.33c-1.216.551-2.82 1.046-4.644 1.046-4.202 0-6.801-2.698-7.078-6.605-.055-.937-.11-2.918 0-4.24.333-4.018 2.93-6.88 7.52-6.88 3.206 0 5.86 1.376 6.856 2.036.608.386.664.771.498 1.267zm-3.096 10.018v-8.862c-.387-.166-1.88-1.046-3.982-1.046-2.874 0-4.036 1.651-4.201 3.853-.111.826-.056 2.422 0 3.413.165 2.367 1.27 3.854 4.035 3.854 1.935 0 3.318-.77 4.147-1.212zm17.306-11.285c0 .716-.498 1.652-1.66 1.652-.608 0-1.382-.33-2.488-.275-1.603 0-2.322.825-2.322 2.641v10.24c0 .992-.83 1.762-1.824 1.762-.884 0-1.714-.77-1.714-1.762V34.681c0-3.358 1.99-5.505 5.64-5.505 1.16 0 2.32.166 3.04.386zm16.64 9.36c-.275 3.907-3.482 6.825-7.74 6.825-4.201 0-7.463-2.918-7.74-6.826a67.655 67.655 0 0 1 0-4.734c.332-3.964 3.539-6.716 7.74-6.716 4.313 0 7.465 2.752 7.74 6.716zm-3.537-4.24c-.111-2.202-1.714-3.743-4.202-3.743-2.49 0-4.037 1.541-4.202 3.743-.056 1.046-.11 2.863 0 3.853.22 2.312 1.769 3.854 4.202 3.854 2.377 0 3.98-1.54 4.202-3.854zm7.132 4.018h.055v-9.138c0-1.046.663-1.87 1.714-1.87.995 0 1.825.824 1.825 1.87v9.083c0 2.313 1.437 3.743 3.87 3.743 1.824 0 3.096-.55 3.98-1.1v-11.67c0-.992.775-1.817 1.769-1.817.94 0 1.77.77 1.77 1.816v12.882c0 .605-.165.991-.663 1.321-1.051.661-3.373 1.981-6.911 1.981-4.534 0-7.41-2.586-7.41-7.1zm34.169.276c-.386 4.184-2.985 6.771-7.408 6.771-1.548 0-2.986-.55-4.202-.99v5.45c0 .99-.83 1.816-1.825 1.816a1.838 1.838 0 0 1-1.825-1.817V32.37c0-.44.166-.715.609-.99.939-.66 3.814-2.147 7.13-2.147 4.48 0 7.134 2.752 7.52 6.826zm-3.538-4.129c-.167-2.532-1.55-3.908-4.037-3.908-1.492 0-3.151.66-3.981 1.21v9.14c.83.44 2.267 1.1 3.926 1.1 2.709 0 3.926-1.32 4.092-3.743z"/></g></g></g></g></svg>