<svg xmlns="http://www.w3.org/2000/svg" width="152" height="16" viewBox="0 0 152 16"><g><g><g><g><path fill="#ccc" d="M12.09 9.11c0-3.489-2.556-5.806-5.926-5.806C2.461 3.304 0 5.836 0 9.348c0 3.537 2.532 6.07 6.332 6.07 2.867 0 5.089-1.505 5.638-3.895H8.148c-.335.526-.956.836-1.768.836-1.482 0-2.295-.813-2.605-1.863H12l.018-.072c.072-.43.072-.884.072-1.314zM6.164 6.29c1.243 0 2.079.669 2.294 1.936H3.727C4.014 7.055 4.85 6.29 6.164 6.29zm138.032 4.898l-3.44-.023c.239 3.082 2.701 4.348 5.735 4.348 3.01 0 5.423-1.242 5.423-3.918 0-2.055-1.433-3.107-3.607-3.512l-2.175-.359c-.908-.168-1.194-.525-1.194-.908 0-.454.454-.836 1.457-.836 1.075 0 1.888.406 1.96 1.29h3.44c-.167-3.058-2.963-4.014-5.424-4.014-3.081 0-5.161 1.434-5.161 3.87 0 2.032 1.386 3.155 3.393 3.489l2.342.406c.764.12 1.123.43 1.123.813 0 .502-.622.812-1.649.812-1.219 0-2.055-.454-2.222-1.458zm-4.683-1.817c0-3.44-2.628-6.02-5.758-6.02-1.267 0-2.318.334-3.179.884V0h-3.87v15.155h3.871v-.597c.86.549 1.911.884 3.178.884 3.13 0 5.758-2.605 5.758-6.07zm-6.523 2.893c-.86 0-1.696-.239-2.413-1.076V7.605c.717-.837 1.553-1.1 2.413-1.1 1.577 0 2.724 1.29 2.724 2.867 0 1.625-1.147 2.892-2.724 2.892zm-8.913-8.697h-3.87v.621c-.861-.55-1.912-.884-3.178-.884-3.13 0-5.758 2.58-5.758 6.045 0 3.44 2.628 6.045 5.758 6.045 1.266 0 2.318-.334 3.178-.884v.645h3.87zm-3.87 7.574c-.717.836-1.554 1.075-2.414 1.075-1.577 0-2.724-1.267-2.724-2.867 0-1.602 1.147-2.892 2.724-2.892.86 0 1.697.263 2.414 1.1zm-14.862 4.014h3.87V0h-3.87zM97.937 3.208c-1.242 0-2.27.407-3.202 1.147v-.788h-3.87v11.588h3.87V7.89c.67-.764 1.434-1.171 2.15-1.171 1.267 0 2.103.789 2.103 2.438v5.997h3.895V8.536zm-15.269.096c-3.656 0-6.284 2.556-6.284 6.045 0 3.536 2.628 6.164 6.284 6.164 3.656 0 6.284-2.628 6.284-6.164 0-3.489-2.628-6.045-6.284-6.045zm.024 8.864c-1.577 0-2.628-1.242-2.628-2.796 0-1.505 1.051-2.723 2.628-2.723 1.554 0 2.604 1.218 2.604 2.723 0 1.554-1.051 2.796-2.604 2.796zM70.41 15.155h3.872V3.567H70.41zm-2.389-.105v-3.398c-.861.167-1.577.301-2.127.301-1.146 0-1.816-.574-1.816-1.744V6.887h3.943v-3.32H57.937v3.321h2.27v3.44c0 3.13 1.864 5.185 4.66 5.185 1.053 0 1.863-.08 3.153-.463zM50.674 3.304c-3.656 0-6.284 2.556-6.284 6.045 0 3.536 2.628 6.164 6.284 6.164 3.655 0 6.283-2.628 6.283-6.164 0-3.489-2.628-6.045-6.283-6.045zm.023 8.864c-1.576 0-2.628-1.242-2.628-2.796 0-1.505 1.052-2.723 2.628-2.723 1.554 0 2.605 1.218 2.605 2.723 0 1.554-1.051 2.796-2.605 2.796zm-8.196-3.632c0-3.297-2.055-5.328-4.826-5.328-1.721 0-2.892.478-4.11 1.553-.86-1.003-2.103-1.552-3.56-1.552-1.29 0-2.102.38-2.892 1.05v-.692h-3.87v11.588h3.871V7.748c.573-.741 1.146-1.028 1.743-1.028 1.267 0 2.08.789 2.08 2.438v5.997h3.87V8.536c0-.286-.024-.573-.048-.86.574-.692 1.171-.956 1.768-.956 1.291 0 2.079.789 2.079 2.438v5.997H42.5V8.536z"/></g><g><path fill="#ccc" fill-opacity=".6" d="M15.223 8.534l.401.401a.667.667 0 0 1 0 .944l-.403.404a.667.667 0 0 0 0 .944l1.3 1.3c.26.26.683.26.944 0l2.647-2.648a.667.667 0 0 0 0-.944L17.467 6.29a.668.668 0 0 0-.944 0l-1.3 1.3a.668.668 0 0 0 0 .944"/></g></g></g></g></svg>