<svg xmlns="http://www.w3.org/2000/svg" width="122" height="26" viewBox="0 0 122 26"><g><g><g><g><path fill="#ccc" d="M116.051 3.928v1.865h3.454c.941 0 1.76.718 1.76 1.754 0 .954-.819 1.686-1.76 1.686h-3.454v5.996c0 1.34.56 2.03 1.802 2.03.546 0 1.092-.137 1.597-.303.273-.07.518-.11.75-.083.928.069 1.501.843 1.501 1.658 0 .718-.368 1.285-1.05 1.616-.737.373-1.938.608-3.112.608-3.657 0-5.213-2.376-5.213-5.236V3.928c0-1.078.805-1.976 1.842-1.976s1.883.898 1.883 1.976zm-7.349 3.675v11.204c0 1.077-.805 1.947-1.883 1.947-1.01 0-1.843-.842-1.843-1.947V7.603c0-1.064.778-1.935 1.856-1.935zm.021-5.689c0 1.043-.848 1.953-1.89 1.953-1.083 0-1.878-.91-1.878-1.953 0-1.07.795-1.914 1.877-1.914zm-6.661 5.951c0 .484-.163 1.036-.559 1.52l-6.496 7.709h5.159c1.064 0 1.91.69 1.91 1.768 0 1.022-.846 1.755-1.91 1.755h-7.684c-1.351 0-2.21-.871-2.21-2.059 0-.484.163-1.05.559-1.52l6.496-7.75h-4.832c-1.036 0-1.91-.65-1.91-1.713 0-1.036.846-1.782 1.91-1.782h7.356zm-13.919 0c0 .484-.164 1.036-.56 1.52l-6.496 7.709h5.16c1.064 0 1.91.69 1.91 1.768 0 1.022-.846 1.755-1.91 1.755h-7.684c-1.352 0-2.211-.871-2.211-2.059 0-.484.163-1.05.56-1.52l6.495-7.75h-4.83c-1.038 0-1.911-.65-1.911-1.713 0-1.036.846-1.782 1.91-1.782h7.356zM73.709 1.914c0 1.043-.847 1.953-1.89 1.953-1.082 0-1.877-.91-1.877-1.953 0-1.07.795-1.914 1.877-1.914zm-.02 5.689v11.204c0 1.077-.806 1.947-1.884 1.947-1.01 0-1.842-.842-1.842-1.947V7.603c0-1.064.778-1.935 1.856-1.935zm-6.773.87l-2.43 9.643c-.436 1.783-1.624 2.639-3.056 2.639-1.46 0-2.648-.856-3.057-2.68l-1.679-7.585c-.028-.083-.082-.11-.137-.11-.054 0-.122.027-.136.11l-1.733 7.57c-.383 1.839-1.556 2.695-3.016 2.695s-2.62-.856-3.058-2.639l-2.442-9.643c-.055-.207-.15-.622-.15-.926 0-1.036.832-1.879 1.856-1.879.818 0 1.624.553 1.815 1.492.723 3.261 1.406 6.425 1.979 9.796.027.083.082.124.136.124.055 0 .11-.041.137-.124.614-3.123 1.228-6.23 1.897-8.994.327-1.41 1.378-2.294 2.715-2.294 1.324 0 2.403.954 2.703 2.294.682 2.887 1.31 5.954 1.897 8.994.01.069.067.12.136.124.055 0 .11-.041.137-.124.56-3.247 1.228-6.494 1.951-9.796a1.87 1.87 0 0 1 1.815-1.492c1.024 0 1.87.843 1.87 1.88 0 .303-.11.718-.15.925zm.15-.925zM38.39 3.928v1.865h3.453c.942 0 1.761.718 1.761 1.754 0 .954-.819 1.686-1.76 1.686H38.39v5.996c0 1.34.56 2.03 1.802 2.03.546 0 1.092-.137 1.597-.303.273-.07.518-.11.75-.083.928.069 1.502.843 1.502 1.658 0 .718-.369 1.285-1.051 1.616-.737.373-1.938.608-3.112.608-3.657 0-5.213-2.376-5.213-5.236V3.928c0-1.078.805-1.976 1.842-1.976z"/></g><g><path fill="#ccc" fill-opacity=".5" d="M23.584 17.58a.944.944 0 0 0-1.372.09l-.016.02c-.992 1.173-2.087 2.175-3.308 2.95-.307.187-.628.35-.932.538-.32.16-.65.299-.97.452l-.998.366-1.026.261c-1.38.283-2.805.297-4.181.04-1.38-.246-2.706-.77-3.936-1.506h-.002c-3.896-2.608-5.034-8.033-2.537-12.097 1.21-1.969 3.083-3.328 5.274-3.828s4.438-.08 6.326 1.184c1.35.902 2.283 2.299 2.625 3.933a6.44 6.44 0 0 1-.81 4.715c-.865 1.408-2.204 2.38-3.77 2.736a5.762 5.762 0 0 1-4.523-.845c-1.675-1.12-2.164-3.453-1.09-5.2 1.073-1.746 3.31-2.256 4.985-1.136.233.242.384.504.457.813a1.507 1.507 0 0 1-.812 1.689c-.39.182-.832.218-1.247.103l-.155-.04a.934.934 0 0 0-.935.298 1.031 1.031 0 0 0 .062 1.415c.717.682 1.791 1.02 2.83.866a3.773 3.773 0 0 0 1.494-.555c.468-.304.87-.698 1.183-1.16.31-.47.539-1.011.65-1.582a4.44 4.44 0 0 0-.01-1.733c-.224-1.138-.944-2.18-1.908-2.732-3.06-2.046-7.144-1.115-9.105 2.076-1.96 3.19-1.068 7.448 1.99 9.494l.002.002a8.662 8.662 0 0 0 4.832 1.485 8.7 8.7 0 0 0 1.937-.22c2.344-.534 4.348-1.989 5.644-4.095a9.642 9.642 0 0 0 1.212-7.06c-.513-2.444-1.908-4.535-3.928-5.886-2.56-1.71-5.603-2.28-8.573-1.603-2.97.677-5.507 2.52-7.147 5.188-3.386 5.507-1.843 12.862 3.44 16.394 1.48 1.07 3.2 1.8 4.986 2.142 1.788.337 3.639.285 5.4-.146.435-.13.87-.258 1.3-.396.42-.174.842-.342 1.256-.527.399-.22.8-.431 1.19-.665.376-.258.753-.513 1.11-.793 1.42-1.139 2.593-2.603 3.341-4.25a1.045 1.045 0 0 0-.235-1.194"/></g></g></g></g></svg>