<svg width="45" height="87" viewBox="0 0 45 87" fill="none" xmlns="http://www.w3.org/2000/svg">
<path d="M5.78685 81.0942V82.581C5.78685 83.4731 5.57092 84.1528 5.09587 84.6626C4.66401 85.1299 3.97303 85.3848 3.1093 85.3848C2.24558 85.3848 1.59779 85.1299 1.12274 84.6626C0.690882 84.1953 0.431763 83.4731 0.431763 82.581V76.8037C0.431763 75.9116 0.647696 75.2319 1.12274 74.7222C1.55461 74.2549 2.24558 74 3.1093 74C3.97303 74 4.62082 74.2549 5.09587 74.7222C5.52773 75.1894 5.78685 75.9116 5.78685 76.8037V77.8657H4.10259V76.6763C4.10259 76.2939 4.01622 75.9966 3.84348 75.8267C3.67073 75.6567 3.4548 75.5718 3.15249 75.5718C2.89338 75.5718 2.63426 75.6567 2.46151 75.8267C2.28877 75.9966 2.2024 76.2939 2.2024 76.6763V82.666C2.2024 83.0483 2.28877 83.3457 2.46151 83.5156C2.63426 83.6855 2.85019 83.7705 3.15249 83.7705C3.41161 83.7705 3.67073 83.6855 3.84348 83.5156C4.01622 83.3457 4.10259 83.0908 4.10259 82.666V81.0942H5.78685Z" fill="#014C32"/>
<path d="M8.6803 85.2573H6.90967V74.1274H12.5239V85.2573H10.7101V75.7417H8.6803V85.2573Z" fill="#014C32"/>
<path d="M13.7332 78.8853H16.9722V80.457H13.7332V78.8853Z" fill="#014C32"/>
<path d="M20.5133 80.8393L19.9519 81.8589V85.2573H18.1812V74.1274H19.9519V78.9702L22.3271 74.1274H24.0546L21.593 79.0977L24.0546 85.2573H22.2408L20.5133 80.8393Z" fill="#014C32"/>
<path d="M30.619 85.2573H28.8052L28.5029 83.2183H26.3436L26.0413 85.2573H24.4002L26.214 74.1274H28.8052L30.619 85.2573ZM26.5595 81.7314H28.287L27.4232 76.124L26.5595 81.7314Z" fill="#014C32"/>
<path d="M34.0307 74.1274C34.9376 74.1274 35.5854 74.3399 36.0173 74.8071C36.4492 75.2744 36.6651 75.9541 36.6651 76.8462V78.2905C36.6651 79.1826 36.4492 79.8623 36.0173 80.3296C35.5854 80.7969 34.8945 81.0093 34.0307 81.0093H33.2102V85.1724H31.4396V74.0425H34.0307V74.1274ZM33.2102 75.7417V79.5225H34.0307C34.2898 79.5225 34.5058 79.4375 34.6785 79.3101C34.8081 79.1826 34.8945 78.8853 34.8945 78.5029V76.8462C34.8945 76.4639 34.8081 76.1665 34.6785 76.0391C34.549 75.9116 34.333 75.8267 34.0307 75.8267H33.2102V75.7417Z" fill="#014C32"/>
<path d="M36.8378 83.6855C36.9242 83.6855 37.0537 83.6855 37.1401 83.6855C37.2265 83.6855 37.356 83.6855 37.4424 83.6855C37.7015 83.6855 37.9606 83.6006 38.1766 83.4731C38.3925 83.3457 38.4789 83.0483 38.4789 82.6235V74.1274H44.0931V83.6855H45V86.5317H43.1862V85.2573H38.6516V86.5317H36.8378V83.6855ZM40.2495 82.4961C40.2495 82.9634 40.2063 83.3457 40.1199 83.6855H42.3224V75.7417H40.2495V82.4961Z" fill="#014C32"/>
<path d="M12.7831 69.9998H0V42.1184L43.4021 2.79639L12.7831 69.9998Z" fill="#014C32"/>
<path d="M44.5682 1.7373V70H19.6066L44.4819 1.82206L44.5682 1.7373Z" fill="#014C32"/>
<path d="M0 0V34.9152L44.0499 1.31356L44.5681 0.932208V0.169489V0H0Z" fill="#014C32"/>
<path d="M44.5682 1.48291V1.7378L44.4818 1.82276L44.5682 1.48291Z" fill="#652082"/>
<path d="M44.5681 1.48297L44.4817 1.82196L43.4021 2.79653L44.0498 1.31348L44.5681 0.932129V1.48297Z" fill="#014C32"/>
</svg>
