<svg width="129" height="21" fill="none" xmlns="http://www.w3.org/2000/svg"><path d="M0 0h13.539v2.054H0V0zm0 9.515h11.61v2.054H0V9.515zm0 9.431h13.539V21H0v-2.054zM37.347.838c1.258.545 2.348 1.3 3.312 2.222a9.699 9.699 0 012.263 3.311c.587 1.258.839 2.641.839 4.108 0 1.383-.252 2.725-.797 3.982a11.206 11.206 0 01-2.221 3.312c-.923.963-2.054 1.718-3.312 2.305-1.257.587-2.599.88-4.066.922h-6.748v-2.054h7a7.116 7.116 0 003.06-.713c.964-.46 1.844-1.047 2.598-1.802.755-.754 1.342-1.635 1.803-2.64.46-1.007.67-2.096.67-3.27 0-1.09-.21-2.138-.628-3.144a9.464 9.464 0 00-1.719-2.682 8.107 8.107 0 00-2.557-1.887 6.988 6.988 0 00-3.185-.754h-7.042V0h6.79a9.93 9.93 0 013.94.838zM69.371 0H55.832v2.054h13.54V0zm-1.928 9.515h-11.61v2.054h11.61V9.515zm1.928 9.431H55.832V21h13.54v-2.054zM98.922 5.701a8.25 8.25 0 01-.21 1.844c-.167.545-.335 1.006-.586 1.383-.252.42-.503.755-.839 1.048-.335.293-.628.545-.964.713a6.409 6.409 0 01-2.556.88L98.837 21H96.49l-5.072-9.431h-9.012V9.515h10.94c.294 0 .63-.084 1.048-.21.42-.125.797-.377 1.132-.67.377-.294.67-.67.922-1.174.252-.503.377-1.048.377-1.718 0-.671-.125-1.258-.335-1.72a3.327 3.327 0 00-.838-1.13 3.018 3.018 0 00-1.132-.63c-.42-.125-.796-.21-1.216-.21h-10.94V0h11.318c.964.042 1.844.251 2.556.67.336.168.63.378.965.671.335.294.586.63.838 1.006.251.42.42.88.587 1.425.21.545.293 1.216.293 1.929zM111.371 0v3.102l2.054 2.012L128.725 21V0h-2.054v15.886L111.371 0z" fill="#fff"/></svg>