<svg xmlns="http://www.w3.org/2000/svg" width="131" height="38" viewBox="0 0 131 38"><g><g><g><path fill="#000001" d="M49.13 8.162h-1.02c-4.347 0-8.695.008-13.042-.004-1.697-.004-2.984-.77-3.737-2.289-.725-1.46-.548-2.905.385-4.23C32.458.584 33.529.031 34.8.026A2242.47 2242.47 0 0 1 53.5.024c1.972.008 3.769 1.822 3.772 3.8.019 10.084.019 20.167.002 30.25-.004 2.182-1.785 3.892-3.987 3.936-2.208.044-4.006-1.635-4.147-3.879-.018-.287-.01-.576-.01-.864V9.224z"/></g><g><path fill="#000001" d="M96.999 15.006c-.057-.089-.105-.129-.105-.17 0-3.745-.031-7.49.02-11.236.022-1.495 1.255-2.946 2.759-3.388 1.68-.493 3.18-.139 4.344 1.211 2.034 2.362 4.032 4.753 6.045 7.133 3.855 4.56 7.712 9.118 11.564 13.682 2.25 2.665 5.418 3.055 8.233 1.002.1-.073.2-.144.363-.26.03.214.064.334.064.454 0 3.536.042 7.073-.02 10.608-.046 2.653-2.463 4.444-5.047 3.84-.961-.224-1.67-.819-2.296-1.557-5.147-6.074-10.304-12.14-15.458-18.209-.73-.859-1.46-1.715-2.183-2.579-2.077-2.482-5.563-2.79-8.054-.71-.072.06-.148.116-.23.18z"/></g><g><path fill="#000001" d="M73.664 8.152H58.592c-.316-2.77.75-5.806-1.94-8.1.424-.02.669-.04.915-.04a33186.8 33186.8 0 0 1 19.956 0c2.605 0 4.289 1.662 4.29 4.243.002 9.848-.007 19.695.008 29.542.002 1.721-.73 3-2.225 3.767-1.54.79-3.06.55-4.427-.479-1.142-.858-1.506-2.086-1.506-3.462.003-8.144 0-16.289 0-24.434z"/></g><g><path fill="#000001" d="M13.576 8.616l2.673-4.825c.329-.595.637-1.203.992-1.783 1.658-2.702 5.528-2.68 7.077.08a12400.77 12400.77 0 0 1 16.768 30.014c.98 1.761.426 3.958-1.248 5.161-1.666 1.198-3.988.93-5.404-.658-.344-.385-.62-.844-.874-1.298-4.445-7.916-8.883-15.837-13.322-23.757-1.467-2.618-3.377-3.495-6.35-2.917-.072.015-.152-.007-.312-.017z"/></g><g><path fill="#000001" d="M16.038 21.077c1.463 0 2.87-.004 4.28.001 2.268.007 3.836 1.665 3.836 4.053 0 2.383-1.58 4.088-3.82 4.096-2.748.01-5.498.015-8.247-.01-.51-.005-.795.14-1.044.6-1.07 1.977-2.176 3.935-3.28 5.895-1.195 2.124-3.644 2.902-5.64 1.801-2.068-1.14-2.73-3.606-1.52-5.767 3.733-6.663 7.47-13.322 11.217-19.977 1.184-2.102 3.497-2.78 5.488-1.643 2.108 1.205 2.763 3.536 1.584 5.667-.924 1.671-1.86 3.335-2.79 5.003-.023.042-.023.098-.064.281z"/></g><g><path fill="#000001" d="M96.88 26.197c0-2.54-.005-5.08.002-7.62.005-1.797 1.04-3.26 2.647-3.769 1.758-.557 3.964.05 4.86 1.457.349.545.588 1.264.594 1.906.045 5.291.062 10.582.005 15.872-.024 2.187-1.59 3.74-3.725 3.951-1.934.192-3.772-1.125-4.264-3.087-.1-.4-.112-.829-.114-1.245-.01-2.488-.005-4.976-.005-7.465z"/></g><g><path fill="#000001" d="M122.176 11.798c0-2.645-.061-5.292.017-7.934.078-2.64 2.603-4.409 5.132-3.698 1.688.474 2.919 1.904 2.932 3.66.043 5.367.049 10.736.006 16.104-.016 1.987-1.815 3.473-4.011 3.481-2.182.008-4.014-1.477-4.062-3.443-.067-2.722-.017-5.446-.017-8.17z"/></g><g><path fill="#000001" d="M97.54.086c-1.521 1.411-1.94 3.053-1.86 4.891.047 1.04.009 2.083.009 3.17H83.117c-.293-2.742.76-5.768-1.912-8.06z"/></g></g></g></svg>