<svg width="34" height="43" fill="none" xmlns="http://www.w3.org/2000/svg"><path d="M25.89 30.79h-4.25v-1.423c1.84-.81 3.43-2.12 4.572-3.772a11.064 11.064 0 002.006-5.643 2.916 2.916 0 002.327-3.408 2.962 2.962 0 00-.769-1.497 3.032 3.032 0 00-1.475-.8V9.696h1.6a.845.845 0 00.831-.852c0-4.333-3.522-7.877-7.855-7.877h-7.233a4.282 4.282 0 00-3.657 2.006c-2.66.125-4.157 1.61-4.957 2.868a7.81 7.81 0 00-1.08 2.878c0 .042.01.073.01.115v5.413a2.702 2.702 0 00-1.528.8 2.891 2.891 0 00-.01 4.095c.415.415.956.696 1.538.81a11.015 11.015 0 003.23 7.108 11.568 11.568 0 003.741 2.473v1.257H8.724a7.845 7.845 0 00-7.846 7.877v3.242c0 .457.374.831.832.831a.834.834 0 00.831-.831v-3.242a6.17 6.17 0 015.82-6.214v1.06a3.97 3.97 0 00-3.118 3.896v4.427a.756.756 0 00.727.79H7.3a.834.834 0 00.831-.832.834.834 0 00-.83-.83h-.416v-3.565a2.297 2.297 0 01.665-1.663 2.269 2.269 0 011.6-.696h.031c1.289 0 2.286 1.08 2.286 2.359v3.575h-.696a.834.834 0 00-.831.83c0 .458.374.832.83.832h1.58a.756.756 0 00.78-.738V37.41c0-1.932-1.351-3.543-3.118-3.917v-1.04h3.409l2.93 3.014v5.393c0 .457.374.831.831.831a.834.834 0 00.832-.83v-5.383l3.127-3.035h4.032v4.126a3.217 3.217 0 00-2.442 3.169A3.257 3.257 0 0026.004 43a3.257 3.257 0 003.263-3.273c0-.863-.343-1.694-.956-2.307a3.465 3.465 0 00-1.475-.852v-4.074a6.225 6.225 0 015.3 6.152v3.242c0 .457.373.831.83.831a.834.834 0 00.832-.831v-3.242c0-4.333-3.554-7.856-7.908-7.856zM5.96 18.206h-.01a1.241 1.241 0 01-.707-1.111 1.2 1.2 0 01.374-.873c.093-.094.135-.177.343-.24v2.224zm22.632-1.984c.239.228.374.55.374.883 0 .488-.364.904-.676 1.112v-2.234c.115.062.208.145.302.239zM13.212 4.157s0-.01.011-.01a2.666 2.666 0 012.41-1.517h7.233c3.138 0 5.736 2.39 6.141 5.403H15.634c-.031 0-.052-.01-.083-.02-.031 0-.052-.01-.083-.021a2.67 2.67 0 01-2.515-2.681 2.5 2.5 0 01.26-1.154zm-5.6 4.739c0-.457.696-3.595 3.74-4.177a4.24 4.24 0 002.609 4.603c-2.421 2.556-5.102 2.889-6.35 2.889V8.896zm12.365 22.351l-2.816 2.702-2.587-2.68v-1.217c.82.187 1.652.28 2.494.28.977 0 1.953-.124 2.91-.373v1.288zm.458-3.18a9.475 9.475 0 01-10.059-2.181 9.368 9.368 0 01-2.764-6.724v-5.289c1.663 0 5.248-.54 8.22-4.177h10.796v9.466c0 3.939-2.504 7.524-6.193 8.906zm6.702 10.537c.634.624.634 1.642.01 2.266v.01a1.6 1.6 0 01-2.275 0 1.6 1.6 0 010-2.276 1.596 1.596 0 011.132-.467c.416-.01.832.166 1.133.467z" fill="url(#paint0_linear)"/><defs><linearGradient id="paint0_linear" x1=".878" y1="21.983" x2="33.798" y2="21.983" gradientUnits="userSpaceOnUse"><stop offset="0" stop-color="#E2A6FF"/><stop offset=".078" stop-color="#DB90FF"/><stop offset=".276" stop-color="#D580FF"/><stop offset=".547" stop-color="#D16FFF"/><stop offset=".792" stop-color="#C448FF"/><stop offset="1" stop-color="#A815EE"/></linearGradient></defs></svg>