<svg width="23" height="24" fill="none" xmlns="http://www.w3.org/2000/svg"><g opacity=".75" fill="#fff"><path d="M7.188 0h8.625C19.78 0 23 3.358 23 7.5v9c0 4.142-3.219 7.5-7.188 7.5H7.188C3.217 24 0 20.642 0 16.5v-9C0 3.358 3.219 0 7.188 0zM2.155 16.5c0 2.895 2.257 5.25 5.031 5.25h8.625c2.775 0 5.032-2.355 5.032-5.25v-9c0-2.895-2.257-5.25-5.032-5.25H7.188c-2.775 0-5.032 2.355-5.032 5.25v9z"/><path d="M11.5 6c3.175 0 5.75 2.687 5.75 6s-2.575 6-5.75 6-5.75-2.687-5.75-6 2.575-6 5.75-6zm0 9.75c1.98 0 3.594-1.683 3.594-3.75 0-2.069-1.613-3.75-3.594-3.75-1.98 0-3.594 1.681-3.594 3.75 0 2.067 1.613 3.75 3.594 3.75zM5.319 6.349c-.423 0-.766-.358-.766-.8 0-.441.343-.799.766-.799s.766.358.766.8c0 .441-.343.799-.766.799z"/></g></svg>