<svg width="28" height="20" fill="none" xmlns="http://www.w3.org/2000/svg"><path d="M25.5 20c.629 0 1.174-.19 1.638-.562l-7.933-7.212-.55.358c-.593.398-1.075.708-1.445.93-.37.224-.862.45-1.476.683-.615.232-1.188.348-1.719.348h-.031c-.531 0-1.104-.116-1.719-.348-.615-.232-1.107-.46-1.476-.682-.37-.223-.852-.533-1.446-.93-.165-.11-.349-.232-.547-.361L.86 19.438c.464.373 1.01.562 1.639.562h23zM1.578 7.685A8.118 8.118 0 010 6.45v10.973l6.992-6.357a545.214 545.214 0 00-5.414-3.38zm24.859 0a465.667 465.667 0 00-5.427 3.383L28 17.422V6.449a8.442 8.442 0 01-1.563 1.236z" fill="#fff"/><path d="M25.5 0h-23C1.698 0 1.081.246.65.738.216 1.231 0 1.847 0 2.585c0 .597.287 1.243.86 1.94.573.695 1.182 1.242 1.828 1.64.354.227 1.422.902 3.203 2.024a1044.023 1044.023 0 014.094 2.592 38.821 38.821 0 01.664.434c.338.222.62.402.844.54.223.137.494.29.812.461.318.17.617.298.899.384a2.7 2.7 0 00.78.127h.032c.24 0 .5-.042.781-.127.281-.086.58-.213.899-.384.317-.17.588-.324.812-.461.224-.138.506-.318.844-.54a98.104 98.104 0 01.664-.434l1.581-.999 5.732-3.617a7.125 7.125 0 001.906-1.747c.51-.682.765-1.397.765-2.145 0-.625-.248-1.16-.742-1.606A2.543 2.543 0 0025.5 0z" fill="#fff"/></svg>