<svg width="41" height="69" viewBox="0 0 41 69" fill="none" xmlns="http://www.w3.org/2000/svg">
<path d="M40 34.9509V34.9502L38.6323 34.0312L39.3543 33.3393L39.3541 33.339C39.3539 33.3388 39.3537 33.3386 39.3535 33.3384L11.8414 4.62841L11.8354 4.62215L11.8293 4.61599C10.9535 3.73319 9.54772 3.73319 8.67188 4.61599L8.67184 4.61604C7.79702 5.49792 7.77417 6.93426 8.61722 7.84498L8.6231 7.85133L8.62909 7.85758L34.596 34.9528L8.63149 62.0504L8.62551 62.0567L8.61964 62.063C7.79675 62.9521 7.79686 64.3456 8.61956 65.2347L8.61969 65.2348C9.48492 66.1695 10.9332 66.1977 11.8318 65.2918L11.8379 65.2857L11.8439 65.2794L39.3568 36.5684L39.3575 36.5677C39.7746 36.1315 40.001 35.549 40 34.9509Z" fill="#FE5757" stroke="#FE5757" stroke-width="2"/>
<path d="M37.6303 33.1009C38.3914 33.8784 38.3914 35.1216 37.6303 35.8991L13.1791 60.8751C11.9255 62.1557 9.75 61.2681 9.75 59.476L9.75 9.524C9.75 7.73193 11.9255 6.84432 13.1791 8.12488L37.6303 33.1009Z" fill="white"/>
</svg>
