<svg version="1.1" xmlns="http://www.w3.org/2000/svg" xmlns:xlink="http://www.w3.org/1999/xlink">
    <symbol id="phone" viewBox="0 0 40 40">
<path d="M39.9996 19.9836C40.0652 30.9634 31.1109 39.9506 20.0655 39.9998C9.01192 40.049 0.0411406 31.1274 0.000140749 20.041C-0.0408591 9.012 8.88072 0.0494027 19.9507 0.000202702C30.9961 -0.0489973 39.934 8.8644 39.9996 19.9836ZM19.9917 1.7878C9.95492 1.796 1.79594 9.9468 1.78774 19.9918C1.77954 30.045 9.96312 38.2286 20.0081 38.2122C30.0695 38.1958 38.2284 30.0204 38.212 19.9754C38.1956 9.9304 30.0285 1.7796 19.9917 1.7878Z" fill="inherit"/>
<path fill-rule="evenodd" clip-rule="evenodd" d="M10.0858 13.2369C10.0858 13.2369 10.1648 12.3675 10.8762 11.498C11.6666 10.5496 12.2198 10.1544 12.2198 10.1544C12.2198 10.1544 12.615 9.75918 13.2473 10.2334C13.8797 10.7076 16.7251 13.1579 16.7251 13.1579C16.7251 13.1579 17.5155 14.1063 17.1203 14.8177C16.646 15.529 15.3024 16.8727 15.3024 16.8727C15.3024 16.8727 15.0652 17.1889 15.6185 18.2164C16.4089 19.7181 20.3609 23.6701 21.7836 24.3814C22.8111 24.9347 23.1272 24.6976 23.1272 24.6976C23.1272 24.6976 24.5499 23.3539 25.2613 22.9587C25.9726 22.4845 26.8421 23.3539 26.8421 23.3539C26.8421 23.3539 29.2923 26.1203 29.7665 26.8317C30.2407 27.464 29.8456 27.7801 29.8456 27.7801C29.8456 27.7801 29.4504 28.4124 28.5809 29.1238C27.6325 29.8352 26.8421 29.9142 26.8421 29.9142C20.2818 31.0998 8.9002 19.7181 10.0858 13.2369Z" fill="inherit"/>


    </symbol>

        <symbol id="login" viewBox="0 0 35 55">
<g >
<path d="M43.9997 19.9836C44.0653 30.9634 35.1109 39.9506 24.0655 39.9998C13.0119 40.049 4.04114 31.1274 4.00014 20.041C3.95914 9.012 12.8807 0.0494027 23.9507 0.000202702C34.9961 -0.0489973 43.9341 8.8644 43.9997 19.9836ZM23.9917 1.7878C13.9549 1.796 5.79594 9.9468 5.78774 19.9918C5.77954 30.045 13.9631 38.2286 24.0081 38.2122C34.0695 38.1958 42.2285 30.0204 42.2121 19.9754C42.1957 9.9304 34.0285 1.7796 23.9917 1.7878Z" fill="inherit"/>
<path d="M31.2892 29.6517C26.4102 29.6517 21.5804 29.6517 16.7014 29.6517C17.1278 26.7407 18.202 24.2233 20.7112 22.5177C22.1462 21.5419 23.737 21.2385 25.4344 21.6649C26.8448 22.0257 27.9846 22.8211 28.9194 23.9199C30.3134 25.5599 31.0268 27.4951 31.2892 29.6517Z" fill="inherit"/>
<path d="M28.7476 15.1865C28.7394 17.7777 26.591 19.9179 24.0244 19.9097C21.384 19.9015 19.2356 17.7613 19.2602 15.1373C19.2766 12.5051 21.4168 10.4059 24.0736 10.4141C26.632 10.4223 28.7558 12.5871 28.7476 15.1865Z" fill="inherit"/>
</g>
    </symbol>

<symbol id="arrow" viewBox="0 0 72 27">
<path d="M0 13.4339H71.2251M56.4455 1L71.6371 13.6848M56.4455 26L71.6371 13.3152" stroke="inherit"/>
</svg>
 

</symbol>

    </svg>