<svg width="41" height="69" viewBox="0 0 41 69" fill="none" xmlns="http://www.w3.org/2000/svg">
<path d="M1 34.0491V34.0498L2.36767 34.9688L1.64566 35.6607L1.64594 35.661C1.64614 35.6612 1.64633 35.6614 1.64653 35.6616L29.1586 64.3716L29.1646 64.3779L29.1707 64.384C30.0465 65.2668 31.4523 65.2668 32.3281 64.384L32.3282 64.384C33.203 63.5021 33.2258 62.0657 32.3828 61.155L32.3769 61.1487L32.3709 61.1424L6.40401 34.0472L32.3685 6.94957L32.3745 6.94333L32.3804 6.93699C33.2032 6.04793 33.2031 4.6544 32.3804 3.76534L32.3803 3.7652C31.5151 2.83052 30.0668 2.80227 29.1682 3.70821L29.1621 3.71435L29.1561 3.72059L1.6432 32.4316L1.64252 32.4323C1.22536 32.8685 0.998991 33.451 1 34.0491Z" fill="#FE5757" stroke="#FE5757" stroke-width="2"/>
<path d="M3.36971 35.8991C2.60858 35.1216 2.60858 33.8784 3.36972 33.1009L27.8209 8.12488C29.0745 6.84431 31.25 7.73193 31.25 9.524L31.25 59.476C31.25 61.2681 29.0745 62.1557 27.8209 60.8751L3.36971 35.8991Z" fill="white"/>
</svg>
