<svg
   xmlns:svg="http://www.w3.org/2000/svg"
   xmlns="http://www.w3.org/2000/svg"
   viewBox="0 0 375.10129 82.671272">
  <g transform="translate(25.101221,-157.21417)" >

    <path
       d="m 80.976472,205.88879 c -0.270269,-0.27354 -0.486484,-0.82063 -0.486484,-1.23095 0,-0.6565 -0.08108,-0.73857 -0.729726,-0.73857 -0.991294,0 -1.702692,-0.77144 -1.702692,-1.84642 0,-1.07497 0.711398,-1.84642 1.702692,-1.84642 0.648647,0 0.729726,-0.0821 0.729726,-0.73857 0,-1.64626 2.133562,-2.37542 3.144489,-1.07465 0.277276,0.35677 0.504138,0.9107 0.504138,1.23095 0,0.47486 0.12679,0.58227 0.687326,0.58227 0.905353,0 1.745092,0.91715 1.745092,1.90596 0,0.88751 -0.934737,1.78688 -1.857117,1.78688 -0.454232,0 -0.575301,0.13188 -0.575301,0.62667 0,1.49252 -2.123348,2.39424 -3.162143,1.34285 z m 2.189176,-1.72332 0.121621,-1.10786 1.094588,-0.1231 c 1.027021,-0.1155 1.094588,-0.16868 1.094588,-0.86166 0,-0.69297 -0.06757,-0.74617 -1.094588,-0.86166 l -1.094588,-0.12309 -0.121621,-1.10786 c -0.10862,-0.98943 -0.193115,-1.11618 -0.790417,-1.18574 -0.533643,-0.0622 -0.717979,0.053 -0.912157,0.56995 -0.133848,0.35632 -0.243361,0.91759 -0.243361,1.24729 0,0.53434 -0.104742,0.59945 -0.964409,0.59945 -0.67488,0 -1.033809,0.13125 -1.195583,0.43719 -0.393251,0.7437 0.112481,1.28613 1.199112,1.28613 0.855927,0 0.96088,0.0655 0.96088,0.59946 0,0.32969 0.109513,0.89097 0.243361,1.24728 0.194178,0.51693 0.378514,0.6321 0.912157,0.56995 0.597302,-0.0696 0.681797,-0.19631 0.790417,-1.18573 z"
       style="fill:#fd6601;stroke-width:0.24471125" />
    <path
       d="m 83.520301,213.58815 c -0.06127,-0.0621 -0.111412,-0.48204 -0.111412,-0.93339 v -0.82064 H 80.14379 c -3.157795,0 -3.2897,-0.0209 -4.01349,-0.63735 l -0.74839,-0.63736 v -6.97264 -6.97263 l 0.74839,-0.63736 0.748387,-0.63736 h 5.69752 c 5.373197,0 5.725212,0.028 6.184002,0.49238 0.454843,0.46036 0.486484,0.82063 0.486484,5.53927 0,4.86516 -0.01735,5.04688 -0.481446,5.04688 -0.461751,0 -0.484142,-0.20396 -0.547295,-4.98533 l -0.06585,-4.98534 h -5.708995 -5.708996 l -0.307652,0.61547 c -0.222601,0.44532 -0.307651,2.24887 -0.307651,6.52402 0,4.27516 0.08505,6.0787 0.307651,6.52403 l 0.307652,0.61547 h 5.708996 5.709 l 0.121621,-1.23095 c 0.08649,-0.87534 0.227024,-1.23094 0.486483,-1.23094 0.268169,0 0.384235,0.33924 0.437959,1.28005 0.08359,1.46387 -0.469154,2.28969 -1.532547,2.28969 -0.543504,0 -0.608105,0.10085 -0.608105,0.94928 v 0.94927 l -1.712901,-0.0159 c -0.942095,-0.008 -1.763036,-0.0666 -1.824314,-0.12863 z m 2.68587,-1.28757 c 0,-0.21906 -0.330208,-0.37102 -0.912157,-0.41977 -0.745906,-0.0624 -0.912184,0.005 -0.912303,0.36928 -1.17e-4,0.35555 0.184389,0.44046 0.912156,0.41978 0.605918,-0.0172 0.912304,-0.14125 0.912304,-0.36929 z m -6.932392,-4.0362 c 0,-0.30856 0.499999,-0.36929 3.040522,-0.36929 2.540525,0 3.040523,0.0608 3.040523,0.36929 0,0.30856 -0.499998,0.36928 -3.040523,0.36928 -2.540523,0 -3.040522,-0.0608 -3.040522,-0.36928 z"
       style="fill:#119f34;stroke-width:0.24471125" />
    <path
       style="fill:#ced4da;stroke-width:0.24471125"
       d="m 142.20363,206.63502 -0.83825,-0.9232 0.91215,0.84841 c 0.84902,0.78968 1.024,0.99801 0.83826,0.99801 -0.0406,0 -0.45112,-0.41544 -0.91216,-0.92322 z m 4.36042,0.24619 c -0.30256,-0.39048 -0.29396,-0.39919 0.0918,-0.093 0.40518,0.32162 0.53403,0.52379 0.33384,0.52379 -0.0505,0 -0.24207,-0.19387 -0.42568,-0.43083 z m -3.38452,-1.23099 -1.08443,-1.1694 1.1554,1.09757 c 0.63547,0.60366 1.1554,1.12989 1.1554,1.1694 0,0.18486 -0.21839,-0.0106 -1.22637,-1.09757 z m 17.76681,-0.18464 c 0.16655,-0.20311 0.35754,-0.36928 0.42443,-0.36928 0.0669,0 -0.0146,0.16617 -0.18119,0.36928 -0.16655,0.2031 -0.35754,0.36929 -0.42443,0.36929 -0.0669,0 0.0146,-0.16619 0.18119,-0.36929 z m -18.36475,-5.78546 c 0.24214,-0.27081 0.49499,-0.49237 0.56188,-0.49237 0.0669,0 -0.0765,0.22156 -0.31864,0.49237 -0.24215,0.27082 -0.49499,0.49238 -0.56189,0.49238 -0.0669,0 0.0765,-0.22156 0.31865,-0.49238 z m -0.36487,-1.60023 c 0.59085,-0.60932 1.12899,-1.10785 1.19588,-1.10785 0.0669,0 -0.36179,0.49853 -0.95263,1.10785 -0.59085,0.60932 -1.12899,1.10786 -1.19588,1.10786 -0.0669,0 0.36179,-0.49854 0.95263,-1.10786 z m 1.58108,0.36929 c 0.24214,-0.27081 0.49499,-0.49238 0.56188,-0.49238 0.0669,0 -0.0765,0.22157 -0.31864,0.49238 -0.24215,0.2708 -0.495,0.49237 -0.56189,0.49237 -0.0669,0 0.0765,-0.22157 0.31865,-0.49237 z" />
    <path
       style="fill:#cce0a7;stroke-width:0.24471125"
       d="m 150.66475,208.87388 c 0.16468,-0.0675 0.49306,-0.0716 0.72972,-0.009 0.23667,0.0624 0.10193,0.1176 -0.29942,0.12261 -0.40135,0.005 -0.59498,-0.0461 -0.4303,-0.11349 z m 0.37456,-2.20295 c 0.0808,-0.0818 0.29062,-0.0905 0.46621,-0.0195 0.19404,0.0786 0.1364,0.13693 -0.14696,0.14874 -0.25642,0.0107 -0.40008,-0.0474 -0.31925,-0.1293 z m -2.88627,-1.38994 -0.46338,-0.55394 0.5473,0.46899 c 0.51432,0.44074 0.65803,0.63887 0.46337,0.63887 -0.0462,0 -0.29244,-0.24926 -0.54729,-0.55392 z m 5.98253,0.18463 c 0.16655,-0.2031 0.35754,-0.36928 0.42443,-0.36928 0.0669,0 -0.0146,0.16618 -0.18119,0.36928 -0.16654,0.20311 -0.35754,0.36929 -0.42443,0.36929 -0.0669,0 0.0147,-0.16618 0.18119,-0.36929 z m -3.22758,-0.0383 c 0.16468,-0.0675 0.49306,-0.0716 0.72972,-0.009 0.23667,0.0624 0.10193,0.1176 -0.29942,0.12261 -0.40135,0.005 -0.59498,-0.0461 -0.4303,-0.11349 z m -1.91152,-1.00793 c -0.30256,-0.39046 -0.29396,-0.39917 0.0918,-0.093 0.40518,0.32161 0.53403,0.52378 0.33383,0.52378 -0.0505,0 -0.24206,-0.19387 -0.42567,-0.43084 z m 5.80345,-0.28831 c -0.10581,-0.40949 -0.0741,-0.50561 0.10635,-0.32292 0.14135,0.14306 0.20914,0.40543 0.15064,0.58304 -0.0607,0.18438 -0.17098,0.0728 -0.25699,-0.26012 z m 2.517,-0.86088 c -0.0106,-0.25952 0.0469,-0.40492 0.12775,-0.32312 0.0808,0.0818 0.0895,0.29415 0.0192,0.47186 -0.0777,0.1964 -0.13528,0.13807 -0.14696,-0.14874 z m 1.27238,-1.00527 c -0.001,-0.81243 0.0429,-1.17446 0.0984,-0.80453 0.0555,0.36994 0.0566,1.03466 0.002,1.47715 -0.0541,0.44248 -0.0995,0.1398 -0.10091,-0.67262 z m -11.48854,0.75909 c -0.0105,-0.25953 0.0469,-0.40494 0.12776,-0.32313 0.0808,0.0818 0.0895,0.29414 0.0192,0.47186 -0.0776,0.1964 -0.13528,0.13806 -0.14695,-0.14873 z m -2.39519,-0.6357 c 0,-0.47391 0.0501,-0.66778 0.11125,-0.43083 0.0612,0.23696 0.0612,0.62471 0,0.86166 -0.0612,0.23696 -0.11125,0.0431 -0.11125,-0.43083 z m 2.39519,-0.59496 c -0.0105,-0.25952 0.0469,-0.40492 0.12776,-0.32312 0.0808,0.0818 0.0895,0.29415 0.0192,0.47186 -0.0776,0.1964 -0.13528,0.13807 -0.14695,-0.14874 z m 10.21616,-0.24618 c -0.0106,-0.25953 0.0469,-0.40494 0.12775,-0.32313 0.0808,0.0818 0.0895,0.29414 0.0192,0.47186 -0.0777,0.1964 -0.13528,0.13806 -0.14696,-0.14873 z m -3.28895,-0.36684 c -0.075,-0.12278 0.0828,-0.16525 0.35051,-0.0944 0.56797,0.15032 0.63976,0.31761 0.13631,0.31761 -0.19278,0 -0.41185,-0.10046 -0.48682,-0.22323 z m -5.00048,-0.88458 c 0.16655,-0.20311 0.35754,-0.36928 0.42443,-0.36928 0.0669,0 -0.0146,0.16617 -0.18118,0.36928 -0.16655,0.2031 -0.35754,0.36928 -0.42443,0.36928 -0.0669,0 0.0146,-0.16618 0.18118,-0.36928 z m 4.34733,-0.0615 c -0.30256,-0.39048 -0.29396,-0.39918 0.0918,-0.093 0.40518,0.32161 0.53403,0.52378 0.33384,0.52378 -0.0505,0 -0.24207,-0.19387 -0.42568,-0.43083 z m -5.19867,-0.80012 c 0.24214,-0.27081 0.49499,-0.49238 0.56188,-0.49238 0.0669,0 -0.0765,0.22157 -0.31864,0.49238 -0.24215,0.27081 -0.49499,0.49238 -0.56188,0.49238 -0.0669,0 0.0765,-0.22157 0.31864,-0.49238 z m 2.73184,-0.16148 c 0.16468,-0.0675 0.49306,-0.0716 0.72972,-0.009 0.23667,0.0624 0.10193,0.1176 -0.29942,0.12262 -0.40135,0.005 -0.59498,-0.0461 -0.4303,-0.11349 z m 0.005,-1.23259 c 0.16722,-0.0683 0.44087,-0.0683 0.6081,0 0.16723,0.0683 0.0304,0.12417 -0.30405,0.12417 -0.33446,0 -0.47128,-0.0559 -0.30405,-0.12417 z m -0.12163,-2.22237 c 0.23413,-0.062 0.61723,-0.062 0.85135,0 0.23412,0.0619 0.0426,0.11259 -0.42567,0.11259 -0.46824,0 -0.6598,-0.0507 -0.42568,-0.11259 z" />
    <path
       style="fill:#abd1a4;stroke-width:0.24471125"
       d="m 152.01227,210.60995 c 0.0808,-0.0818 0.29063,-0.0905 0.46622,-0.0195 0.19404,0.0786 0.1364,0.13693 -0.14696,0.14874 -0.25642,0.0107 -0.40008,-0.0476 -0.31926,-0.12931 z m 7.23137,-3.32893 c 0,-0.0677 0.32838,-0.44151 0.72973,-0.83069 0.40136,-0.38918 0.72973,-0.6522 0.72973,-0.5845 0,0.0677 -0.32837,0.44152 -0.72973,0.83069 -0.40135,0.38917 -0.72973,0.6522 -0.72973,0.5845 z m -0.24323,-1.56921 c 0.31421,-0.33852 0.62601,-0.61548 0.6929,-0.61548 0.0669,0 -0.13545,0.27696 -0.44967,0.61548 -0.3142,0.33851 -0.62601,0.61547 -0.6929,0.61547 -0.0669,0 0.13546,-0.27696 0.44967,-0.61547 z m -0.0184,-6.70867 -0.5897,-0.67702 0.66892,0.59684 c 0.6252,0.55783 0.78046,0.7572 0.58969,0.7572 -0.0436,0 -0.34458,-0.30466 -0.66891,-0.67702 z m 1.33312,-0.36928 -0.46337,-0.55393 0.5473,0.46899 c 0.51432,0.44073 0.65803,0.63886 0.46337,0.63886 -0.0462,0 -0.29244,-0.24926 -0.5473,-0.55392 z m -1.1025,-1.10786 c -0.30256,-0.39047 -0.29396,-0.39917 0.0918,-0.093 0.40518,0.32162 0.53403,0.52378 0.33384,0.52378 -0.0506,0 -0.24206,-0.19387 -0.42568,-0.43083 z" />
    <path
       style="fill:#abd363;stroke-width:0.24471125"
       d="m 150.54492,210.58956 c 0.23256,-0.0616 0.67039,-0.0638 0.97297,-0.005 0.30257,0.0589 0.11229,0.10931 -0.42284,0.11204 -0.53513,0.003 -0.78269,-0.0455 -0.55013,-0.10707 z" />
    <path
       style="fill:#fd6601;stroke-width:0.24471125"
       d="m 148.71193,209.66504 c -3.84088,-1.38668 -5.87836,-5.58499 -4.6747,-9.63245 1.18795,-3.99468 5.62252,-6.24804 9.63888,-4.89785 0.9457,0.31792 1.68072,0.81869 2.66426,1.81521 1.60875,1.62996 2.17355,3.04313 2.17355,5.4383 0,0.89958 -0.18344,2.18157 -0.40764,2.84887 -0.5544,1.65002 -2.68783,3.8093 -4.31809,4.37042 -1.43126,0.49262 -3.79683,0.51942 -5.07626,0.0575 z m 4.93716,-1.28059 c 1.09133,-0.45877 2.57162,-1.90572 3.23793,-3.16502 0.39976,-0.75554 0.52104,-1.41454 0.52104,-2.83118 0,-2.20996 -0.48936,-3.32221 -2.13869,-4.86094 -2.5598,-2.38812 -6.4279,-2.19093 -8.78325,0.44776 -1.20577,1.35082 -1.65798,2.54541 -1.6706,4.41318 -0.0315,4.66461 4.57032,7.78831 8.83357,5.9962 z m -3.89175,-2.08756 c -2.71066,-1.09399 -3.36821,-5.00857 -1.17863,-7.01679 0.89973,-0.82522 1.54776,-1.07708 2.77128,-1.07708 1.35674,0 2.77402,0.7279 3.35478,1.72297 0.85492,1.4648 0.1222,1.70131 -1.18182,0.38148 -1.0646,-1.0775 -2.18463,-1.31804 -3.40594,-0.73147 -2.35169,1.12948 -2.3815,4.38594 -0.0512,5.59152 1.24381,0.64348 2.36169,0.40968 3.44647,-0.72083 0.84252,-0.87803 1.353,-0.92347 1.353,-0.12046 0,0.54182 -1.11836,1.63961 -2.02258,1.98539 -0.83992,0.32119 -2.26996,0.31436 -3.08538,-0.0147 z" />
    <path
       style="fill:#96cb03;stroke-width:0.24471125"
       d="m 150.54492,210.09716 c 0.23256,-0.0616 0.67039,-0.0638 0.97297,-0.005 0.30257,0.0589 0.11229,0.10931 -0.42284,0.11204 -0.53513,0.003 -0.78269,-0.0454 -0.55013,-0.10707 z m 0.12446,-15.51454 c 0.30101,-0.0587 0.79357,-0.0587 1.09458,0 0.30102,0.0587 0.0547,0.1067 -0.54729,0.1067 -0.60202,0 -0.84831,-0.048 -0.54729,-0.1067 z" />
    <path
       style="fill:#119f34;stroke-width:0.24471125"
       d="m 147.72759,211.09807 c -2.73342,-0.90962 -6.39547,-4.00397 -7.71268,-6.51703 l -0.59463,-1.13447 0.60769,-1.16373 c 0.33422,-0.64006 1.43193,-2.009 2.43935,-3.04209 1.39432,-1.42987 2.29453,-2.10722 3.77024,-2.83685 1.92466,-0.9516 1.95955,-0.95849 4.85749,-0.95849 2.84821,0 2.96308,0.0214 4.74321,0.88315 2.94572,1.42601 6.81077,5.46543 6.81077,7.11801 0,1.64002 -3.76554,5.57148 -6.78861,7.08773 -1.6679,0.83655 -1.98503,0.90885 -4.25673,0.97036 -1.90026,0.0515 -2.7756,-0.0404 -3.8761,-0.40659 z m 6.38981,-0.52756 c 1.66707,-0.72584 5.07151,-3.57487 6.40327,-5.35862 0.63547,-0.85114 1.1554,-1.64554 1.1554,-1.76532 0,-0.60177 -2.55042,-3.50622 -4.36414,-4.96995 -2.707,-2.18463 -4.0242,-2.77047 -6.21688,-2.76504 -2.58593,0.007 -4.57058,1.12196 -7.98164,4.48635 -1.79302,1.76849 -2.45244,2.82677 -2.25572,3.62008 0.30006,1.21 4.90833,5.56815 7.1215,6.73496 1.63727,0.86319 4.17931,0.87045 6.13821,0.0176 z" />
    <path
       d="m 222.81037,207.21442 c 0,-0.24372 0.13134,-0.57608 0.29189,-0.73857 0.22702,-0.22978 0.22702,-0.36108 0,-0.59086 -0.39767,-0.40249 -0.36919,-1.18171 0.0432,-1.18171 0.18429,0 0.47363,0.16898 0.64297,0.3755 0.27596,0.33653 0.35044,0.33653 0.71786,0 0.22548,-0.20652 0.53815,-0.3755 0.69484,-0.3755 0.37204,0 0.36727,0.80292 -0.007,1.18171 -0.22702,0.22978 -0.22702,0.36108 0,0.59086 0.39767,0.4025 0.36919,1.18171 -0.0432,1.18171 -0.18428,0 -0.47362,-0.16897 -0.64297,-0.3755 -0.27596,-0.33652 -0.35043,-0.33652 -0.71784,0 -0.55008,0.50391 -0.97969,0.47425 -0.97969,-0.0676 z"
       style="fill:#fd6601;stroke-width:0.24471125" />
    <path
       d="m 211.09742,211.53505 c 0.006,-2.01476 0.53207,-3.49244 1.59981,-4.49399 0.89725,-0.84161 1.49828,-0.77239 2.58051,0.29718 l 0.92242,0.91163 0.92241,-0.91163 c 0.50733,-0.50139 1.10935,-0.91162 1.33783,-0.91162 0.27132,0 0.41541,-0.19642 0.41541,-0.56624 0,-0.70549 0.42722,-1.1571 1.0946,-1.1571 0.89038,0 1.09458,-0.48241 1.09458,-2.58589 0,-2.48281 -0.74478,-4.23086 -2.22505,-5.22233 -2.61091,-1.74876 -6.39949,-0.40732 -7.26576,2.57261 -0.14826,0.51002 -0.23528,1.86898 -0.1934,3.01991 0.0751,2.0636 0.0852,2.09367 0.72727,2.16877 0.73101,0.0855 1.29632,0.63091 1.05817,1.02091 -0.2714,0.44446 -1.7949,0.29341 -2.3112,-0.22914 -0.67895,-0.68719 -0.80691,-1.42925 -0.69461,-4.0281 0.084,-1.94353 0.1984,-2.45281 0.77461,-3.44795 2.45963,-4.24791 8.62396,-3.98534 10.64408,0.45338 0.2465,0.54162 0.45058,1.4556 0.45352,2.03106 l 0.006,1.04631 h 1.34564 c 1.6475,0 2.67424,0.42195 3.67277,1.50933 1.98289,2.15937 1.59533,5.43735 -0.84295,7.12951 -0.69025,0.47904 -1.16284,0.59328 -2.45436,0.59328 -0.8797,0 -1.84576,-0.0905 -2.14677,-0.20124 -0.52929,-0.19461 -0.5473,-0.15206 -0.5473,1.29249 v 1.49373 h -4.98645 -4.98646 l 0.006,-1.78487 z m 8.99461,-0.44064 c 0,-1.23709 -0.59391,-2.81196 -1.27673,-3.38552 -0.27002,-0.22682 -0.53205,-0.0852 -1.28335,0.6935 -0.51922,0.53817 -1.11853,0.9785 -1.33179,0.9785 -0.21327,0 -0.81488,-0.44272 -1.33693,-0.98382 l -0.94917,-0.98383 -0.6828,0.66209 c -0.74922,0.7265 -1.16277,1.91105 -1.16485,3.33662 l -9.2e-4,0.92322 h 4.01349 4.01349 z m 5.3538,-1.77507 c 1.30867,-0.90147 1.79376,-1.75035 1.79376,-3.13892 0,-1.38857 -0.48509,-2.23744 -1.79376,-3.13891 -0.79132,-0.54509 -2.27539,-0.73724 -2.82296,-0.36552 -0.14655,0.0995 -0.33376,0.61221 -0.41604,1.13939 -0.16827,1.07811 -0.94346,2.05526 -1.71936,2.16728 -0.61739,0.0891 -0.59257,0.88712 0.0635,2.04335 1.01012,1.78004 3.30713,2.38697 4.89479,1.29333 z m -11.28769,-4.35058 c -1.16747,-0.77899 -1.68114,-1.84813 -1.70606,-3.55107 l -0.0222,-1.5151 h 2.43242 c 2.27025,0 2.43241,0.0328 2.43241,0.49238 0,0.44731 -0.18583,0.49896 -2.03054,0.56427 l -2.03055,0.0719 0.1538,0.66668 c 0.5618,2.43524 2.14835,3.37427 4.03379,2.38745 0.9347,-0.48921 1.29025,-1.18422 1.44707,-2.82863 0.0936,-0.98139 0.22954,-1.35404 0.49399,-1.35404 0.61346,0 0.61867,2.75347 0.007,3.75663 -1.04294,1.71078 -3.63408,2.3619 -5.21127,1.30953 z"
       style="fill:#119f34;stroke-width:0.24471125" />
    <path
       style="fill:#ced4da;stroke-width:0.24471125"
       d="m 286.23096,213.09603 c -0.005,-0.40622 0.0455,-0.6022 0.11213,-0.43553 0.0666,0.16668 0.0707,0.49904 0.009,0.73857 -0.0617,0.23955 -0.1162,0.10317 -0.12116,-0.30304 z m 1.45945,0 c -0.005,-0.40622 0.0455,-0.6022 0.11213,-0.43553 0.0667,0.16668 0.0707,0.49904 0.009,0.73857 -0.0617,0.23955 -0.1162,0.10317 -0.12116,-0.30304 z m 1.2162,-1.72329 c -0.005,-0.40622 0.0455,-0.6022 0.11214,-0.43552 0.0666,0.16667 0.0707,0.49903 0.009,0.73857 -0.0617,0.23953 -0.1162,0.10316 -0.12115,-0.30305 z m -2.21739,-6.13428 c -0.0105,-0.25952 0.047,-0.40492 0.12778,-0.32313 0.0808,0.0818 0.0894,0.29416 0.0192,0.47187 -0.0777,0.1964 -0.13529,0.13806 -0.14697,-0.14874 z m 1.45945,0 c -0.0105,-0.25952 0.047,-0.40492 0.12778,-0.32313 0.0808,0.0818 0.0895,0.29416 0.0192,0.47187 -0.0777,0.1964 -0.13529,0.13806 -0.14697,-0.14874 z m -5.85699,-2.23622 c 0.16654,-0.20311 0.35754,-0.36928 0.42444,-0.36928 0.0669,0 -0.0146,0.16617 -0.1812,0.36928 -0.16654,0.2031 -0.35754,0.36929 -0.42443,0.36929 -0.0669,0 0.0146,-0.16619 0.18119,-0.36929 z m 10.18511,-3.50816 c -0.30254,-0.39047 -0.29395,-0.39918 0.0919,-0.093 0.23412,0.18584 0.42567,0.37971 0.42567,0.43083 0,0.20263 -0.19975,0.0722 -0.51753,-0.33787 z m 3.64863,-3.44666 c -0.30254,-0.39047 -0.29396,-0.39918 0.0918,-0.093 0.23412,0.18584 0.42568,0.37971 0.42568,0.43084 0,0.20262 -0.19975,0.0722 -0.51753,-0.33789 z" />
    <path
       style="fill:#cce0a7;stroke-width:0.24471125"
       d="m 294.5894,200.68652 c -0.0749,-0.12277 0.0827,-0.16525 0.35052,-0.0944 0.56796,0.15033 0.63976,0.31761 0.13631,0.31761 -0.19277,0 -0.41184,-0.10045 -0.48683,-0.22323 z m 2.18917,0 c -0.0749,-0.12277 0.0827,-0.16525 0.35052,-0.0944 0.56797,0.15033 0.63977,0.31761 0.13631,0.31761 -0.19277,0 -0.41183,-0.10045 -0.48683,-0.22323 z m -4.93459,-5.09558 c 0.0808,-0.0818 0.29063,-0.0905 0.46622,-0.0194 0.19404,0.0786 0.13641,0.13692 -0.14696,0.14873 -0.25641,0.0107 -0.40009,-0.0475 -0.31926,-0.1293 z" />
    <path
       style="fill:#abd1a4;stroke-width:0.24471125"
       d="m 281.25791,213.79467 c 0.16722,-0.0683 0.44087,-0.0683 0.60809,0 0.16723,0.0683 0.0304,0.12418 -0.30405,0.12418 -0.33446,0 -0.47128,-0.0559 -0.30404,-0.12418 z m 6.56752,0 c 0.16723,-0.0683 0.44087,-0.0683 0.6081,0 0.16723,0.0683 0.0304,0.12418 -0.30405,0.12418 -0.33446,0 -0.47128,-0.0559 -0.30405,-0.12418 z m -4.51337,-0.69862 c -0.005,-0.40621 0.0455,-0.60219 0.11213,-0.43552 0.0666,0.16668 0.0707,0.49904 0.009,0.73857 -0.0617,0.23954 -0.11619,0.10316 -0.12116,-0.30305 z m -4.61255,-2.02233 c 0.3655,-0.0562 1.02224,-0.0573 1.45945,-0.003 0.43718,0.0548 0.13814,0.10075 -0.66456,0.10214 -0.8027,0.002 -1.16041,-0.0435 -0.79489,-0.0996 z m 12.1715,0.0272 c 0.0808,-0.0818 0.29062,-0.0905 0.46623,-0.0195 0.19403,0.0786 0.13641,0.13692 -0.14697,0.14874 -0.2564,0.0107 -0.40009,-0.0476 -0.31926,-0.12931 z m 1.01006,-5.39052 c 1.9e-4,-2.8435 0.0356,-3.97303 0.0787,-2.51007 0.0431,1.46296 0.0429,3.78945 0,5.16998 -0.0433,1.38054 -0.0785,0.18358 -0.0783,-2.65991 z m -14.10877,0 c -2.2e-4,-2.70809 0.0353,-3.84953 0.079,-2.53654 0.0437,1.31298 0.0439,3.52869 0,4.92378 -0.0434,1.3951 -0.0792,0.32084 -0.0793,-2.38724 z m 8.86669,3.38505 c -0.30254,-0.39046 -0.29396,-0.39917 0.0918,-0.093 0.23412,0.18584 0.42568,0.37971 0.42568,0.43084 0,0.20262 -0.19975,0.0722 -0.51753,-0.33789 z m -2.22357,-1.94631 c 0.16467,-0.0675 0.49305,-0.0716 0.72973,-0.009 0.23664,0.0624 0.10192,0.1176 -0.29943,0.12262 -0.40135,0.005 -0.595,-0.0461 -0.4303,-0.1135 z m -1.59885,-1.80803 c 0,-0.33851 0.0553,-0.477 0.12269,-0.30773 0.0675,0.16925 0.0675,0.44621 0,0.61546 -0.0675,0.16926 -0.12269,0.0308 -0.12269,-0.30773 z m -1.19381,-5.10784 c 1.83952,-0.0418 4.84964,-0.0418 6.68915,0 1.83952,0.0419 0.33446,0.076 -3.34457,0.076 -3.67903,0 -5.18409,-0.0342 -3.34458,-0.076 z" />
    <path
       style="fill:#abd363;stroke-width:0.24471125"
       d="m 284.17681,213.77962 c 0.43479,-0.0546 1.14627,-0.0546 1.58107,0 0.43479,0.0546 0.0791,0.0993 -0.79054,0.0993 -0.86959,0 -1.22533,-0.0447 -0.79053,-0.0993 z m -5.35133,-1.47714 c 0.4348,-0.0546 1.14628,-0.0546 1.58107,0 0.4348,0.0546 0.0791,0.0993 -0.79053,0.0993 -0.86959,0 -1.22533,-0.0447 -0.79054,-0.0993 z m 8.88339,0.0294 c 0.0808,-0.0818 0.29062,-0.0905 0.46622,-0.0194 0.19403,0.0786 0.13641,0.13693 -0.14697,0.14874 -0.25639,0.0107 -0.40008,-0.0475 -0.31925,-0.1293 z m 3.16214,0 c 0.0808,-0.0818 0.29062,-0.0905 0.46623,-0.0194 0.19403,0.0786 0.13641,0.13693 -0.14697,0.14874 -0.2564,0.0107 -0.40009,-0.0475 -0.31926,-0.1293 z m -14.31493,-6.62148 c -2.2e-4,-2.70809 0.0353,-3.84953 0.079,-2.53653 0.0437,1.31298 0.0438,3.52868 0,4.92378 -0.0435,1.3951 -0.0792,0.32084 -0.0793,-2.38725 z m 6.22208,3.44666 c 0.16655,-0.20311 0.35754,-0.36929 0.42443,-0.36929 0.0669,0 -0.0146,0.16618 -0.18119,0.36929 -0.16655,0.2031 -0.35754,0.36928 -0.42443,0.36928 -0.0669,0 0.0146,-0.16618 0.18119,-0.36928 z m 1.76856,-5.93425 c 0.0808,-0.0818 0.29063,-0.0905 0.46623,-0.0195 0.19403,0.0786 0.13641,0.13692 -0.14697,0.14874 -0.2564,0.0107 -0.40009,-0.0475 -0.31926,-0.1293 z m 0,-1.23094 c 0.0808,-0.0818 0.29063,-0.0905 0.46623,-0.0195 0.19403,0.0786 0.13641,0.13693 -0.14697,0.14874 -0.2564,0.0107 -0.40009,-0.0475 -0.31926,-0.1293 z m -3.06012,-2.98944 c 1.76462,-0.042 4.72001,-0.0422 6.56753,-2.3e-4 1.84751,0.0419 0.40373,0.0762 -3.20841,0.0764 -3.61214,1.3e-4 -5.12374,-0.0341 -3.35912,-0.0761 z" />
    <path
       style="fill:#fd6601;stroke-width:0.24471125"
       d="m 294.61594,200.49935 c -0.0892,-0.0903 -0.16217,-0.35873 -0.16217,-0.59659 0,-0.65007 -1.18644,-1.94684 -1.78513,-1.95114 -0.75718,-0.006 -1.22808,-0.37717 -1.05522,-0.83305 0.34078,-0.89881 2.60506,-0.13122 3.44636,1.16831 0.21406,0.33066 0.45323,1.00066 0.53151,1.48889 0.123,0.76708 0.0774,0.88771 -0.33543,0.88771 -0.26277,0 -0.55075,-0.0739 -0.63992,-0.16413 z m 2.15994,-0.14361 c -0.0523,-0.16926 -0.16771,-0.74731 -0.25655,-1.28456 -0.24764,-1.49753 -1.79444,-2.93527 -3.59577,-3.34227 -1.05514,-0.23841 -1.39035,-0.41598 -1.33583,-0.70768 0.11312,-0.60558 1.46803,-0.60533 2.85949,4.9e-4 1.98783,0.86551 3.41194,2.94965 3.41194,4.99329 0,0.48767 -0.12252,0.64846 -0.49413,0.64846 -0.27175,0 -0.53688,-0.13849 -0.58915,-0.30774 z" />
    <path
       style="fill:#119f34;stroke-width:0.24471125"
       d="m 280.8576,214.96692 c -0.51151,-0.33289 -0.12613,-1.0092 0.5751,-1.0092 0.51603,0 0.61574,-0.1146 0.61574,-0.7078 0,-0.82349 -0.55776,-1.01553 -2.94931,-1.01553 -2.41836,0 -2.40201,0.0444 -2.40201,-6.52402 0,-5.21102 0.0289,-5.56845 0.48648,-6.03165 0.46474,-0.47038 0.8108,-0.49238 7.74604,-0.49238 7.07133,0 7.27156,0.0135 7.72292,0.51823 0.4265,0.47698 0.46338,0.95494 0.46338,6.0058 0,5.05085 -0.0369,5.52881 -0.46338,6.00579 -0.61102,0.68335 -2.41451,0.75446 -2.28812,0.0903 0.0448,-0.2354 0.29909,-0.46889 0.56512,-0.51887 1.05891,-0.19892 1.09179,-0.36639 1.09179,-5.55805 0,-3.53536 -0.0841,-5.05268 -0.29189,-5.26294 -0.21267,-0.21524 -2.08108,-0.29543 -6.88374,-0.29543 -4.80267,0 -6.67107,0.0802 -6.88375,0.29543 -0.45761,0.46316 -0.40869,10.13233 0.0532,10.52034 0.19849,0.16672 0.89326,0.25798 1.63527,0.21478 l 1.29014,-0.0751 0.1956,-1.0066 c 0.11779,-0.60605 0.47725,-1.27969 0.90336,-1.69287 l 0.70774,-0.68628 -0.51159,-0.70034 c -0.64729,-0.88611 -0.68077,-2.56107 -0.0701,-3.50441 0.97248,-1.50216 3.39028,-1.89816 4.71274,-0.77189 1.25447,1.06835 1.61196,3.48636 0.63656,4.30567 -0.44997,0.37797 -0.46187,0.88649 -0.0247,1.05626 0.545,0.21169 1.40909,2.28226 1.32444,3.17371 -0.0593,0.62478 -0.20298,0.82961 -0.62435,0.89018 -0.4437,0.0637 -0.54729,0.23544 -0.54729,0.90686 0,0.72046 0.087,0.83832 0.66891,0.90608 0.48111,0.056 0.66892,0.21616 0.66892,0.57029 0,0.46931 -0.18231,0.49524 -3.89187,0.55352 -2.14053,0.0336 -4.04466,-0.0382 -4.23136,-0.15979 z m 5.56919,-1.74777 v -0.73857 h -1.58107 c -1.49421,0 -1.58107,0.0315 -1.58107,0.57444 0,0.8208 0.15813,0.9027 1.74324,0.9027 1.4144,0 1.4189,-0.003 1.4189,-0.73857 z m 1.2164,-2.41258 c 0,-0.5525 -0.71472,-1.74709 -1.20292,-2.01154 -0.61426,-0.33272 -2.58905,-0.32503 -3.21221,0.0125 -0.49619,0.26878 -1.28541,1.82419 -1.08845,2.14518 0.0587,0.0956 1.321,0.17381 2.8052,0.17381 2.05182,0 2.69855,-0.0767 2.69838,-0.31997 z m -1.15559,-4.25432 c 1.0293,-1.27467 0.0257,-3.27917 -1.64188,-3.27917 -0.69633,0 -1.0519,0.1618 -1.49098,0.67844 -0.31711,0.37315 -0.57658,0.88863 -0.57658,1.14552 0,0.74142 0.49658,1.64772 1.06154,1.93735 0.7522,0.38563 2.15314,0.13054 2.6479,-0.48214 z" />
    <path
       style="fill:#119f34;stroke-width:0.24441621"
       d="m 5.61608,211.693 c -0.25649,-0.26022 -0.18511,-5.27998 0.0893,-6.28252 0.28585,-1.04417 1.34917,-2.05488 2.4107,-2.29143 0.62198,-0.1386 0.6959,-0.23195 0.49112,-0.62014 -0.35528,-0.67352 -0.31227,-6.96576 0.0501,-7.33344 0.19041,-0.19318 1.1952,-0.29542 2.90333,-0.29542 2.3342,0 2.63886,0.0507 2.86333,0.47619 0.3115,0.59052 0.33212,5.76482 0.0273,6.84325 -0.21681,0.767 -0.19561,0.80014 0.66731,1.04331 0.49017,0.13813 0.9661,0.25176 1.05761,0.25251 0.0915,7.4e-4 0.22244,-1.18956 0.29097,-2.64516 0.0685,-1.4556 0.13656,-2.86811 0.15121,-3.13892 0.0146,-0.27081 -0.0486,-0.86471 -0.14047,-1.31978 -0.11804,-0.58453 -0.0688,-0.89053 0.16772,-1.04252 0.18415,-0.11833 1.54988,-0.21685 3.03498,-0.21892 3.20573,-0.005 3.49188,0.15856 3.02903,1.7259 -0.203,0.68745 -0.21367,1.11653 -0.0361,1.45314 0.13858,0.26272 0.25197,1.51809 0.25197,2.78973 0,2.1479 0.0431,2.35313 0.60663,2.89028 0.59418,0.56634 0.60664,0.6532 0.60664,4.22814 v 3.64993 h -9.18045 c -5.04926,0 -9.25327,-0.0739 -9.34224,-0.16413 z m 11.00039,-3.42456 c 0,-2.82187 -0.007,-2.85724 -0.7093,-3.56975 -0.41697,-0.42303 -0.96702,-0.71963 -1.33461,-0.71963 -0.58875,0 -0.6253,0.0721 -0.6253,1.23329 0,1.15632 -0.0595,1.2754 -0.95283,1.90797 -0.97532,0.69062 -1.34828,1.43238 -1.07865,2.14527 0.23912,0.63222 1.16692,0.36616 1.26497,-0.36273 0.1858,-1.38128 1.33771,-1.88238 2.23485,-0.97217 0.80185,0.81353 0.011,2.39266 -1.05738,2.11122 -0.24108,-0.0635 -0.75372,0.0682 -1.13919,0.29264 -0.66656,0.38812 -0.7342,0.38295 -1.38159,-0.10557 -0.50488,-0.38099 -0.7009,-0.76171 -0.75883,-1.47383 -0.0649,-0.79737 -0.23971,-1.07454 -1.03129,-1.63483 -0.89378,-0.63264 -0.95318,-0.75153 -0.95318,-1.90797 0,-1.08225 -0.0614,-1.23329 -0.50126,-1.23329 -0.61387,0 -1.46009,0.43905 -1.85691,0.96343 -0.1926,0.25451 -0.29829,1.39858 -0.30332,3.28335 l -0.008,2.89272 h 5.09577 5.09576 z m 6.79435,-0.22725 c 0,-2.74912 -0.0518,-3.12989 -0.48531,-3.56975 -0.86849,-0.88114 -1.49968,-0.64184 -2.27431,0.86225 -0.38338,0.7444 -0.83703,1.35346 -1.00812,1.35346 -0.17109,0 -0.65002,-0.60932 -1.06428,-1.35405 -0.54035,-0.97139 -0.89776,-1.35404 -1.26474,-1.35404 -0.42613,0 -0.47919,0.0925 -0.31777,0.55393 0.10657,0.30466 0.23474,1.91105 0.28482,3.56975 l 0.0911,3.01582 h 3.01933 3.01933 z m -8.49294,0.73857 c 0,-0.2031 -0.15735,-0.36929 -0.34966,-0.36929 -0.4054,0 -0.67905,0.35139 -0.4526,0.58114 0.29002,0.29424 0.80226,0.15897 0.80226,-0.21185 z m -2.33796,-2.35667 c 0.48364,-0.38597 0.63937,-0.73076 0.63937,-1.41559 v -0.90534 H 11.5207 9.82211 v 0.90534 c 0,0.68483 0.15573,1.02962 0.63936,1.41559 0.35165,0.28064 0.8283,0.51025 1.05923,0.51025 0.23093,0 0.70758,-0.22961 1.05922,-0.51025 z m 7.81986,-2.84351 c -0.17006,-0.44962 -1.33529,-0.43612 -1.50684,0.0175 -0.0742,0.1961 0.0591,0.68957 0.29605,1.09662 l 0.4309,0.74007 0.45407,-0.75753 c 0.24974,-0.41665 0.39636,-0.91012 0.32582,-1.09662 z m -7.68316,-0.45307 c 0.82288,-0.43173 0.98798,-0.80898 0.98798,-2.25752 0,-1.02281 -0.0592,-1.12538 -0.8415,-1.457 -0.46283,-0.19619 -1.1215,-0.35672 -1.46373,-0.35672 -0.34222,0 -1.0009,0.16053 -1.46373,0.35672 -0.75219,0.31887 -0.84112,0.45603 -0.83792,1.2925 0.009,2.23695 1.75007,3.4025 3.6189,2.42202 z m 5.59844,-0.36387 c 0,-0.12741 -0.1092,-0.30012 -0.24266,-0.38381 -0.13346,-0.0837 -0.24266,-0.68538 -0.24266,-1.3371 v -1.18496 l 1.01925,-0.16535 c 0.56059,-0.0909 1.16495,-0.28805 1.34304,-0.438 0.55936,-0.47099 1.27755,0.58003 1.27755,1.86964 0,0.60699 -0.1092,1.17209 -0.24266,1.25577 -0.44701,0.2803 -0.24879,0.61547 0.36399,0.61547 0.59521,0 0.60657,-0.0359 0.60292,-1.90796 -0.002,-1.04939 -0.0931,-2.05086 -0.20227,-2.22549 -0.14463,-0.23129 -0.81909,-0.29814 -2.4835,-0.2462 l -2.28495,0.0714 -0.0701,2.15417 -0.0701,2.15415 H 17.699 c 0.33884,0 0.61608,-0.10424 0.61608,-0.23166 z m 2.04524,-0.64758 c 0.42456,-0.43075 0.51183,-1.47175 0.14278,-1.70315 -0.13118,-0.0823 -0.62256,-0.0765 -1.09195,0.0128 -0.68454,0.13029 -0.85342,0.27532 -0.85342,0.73293 0,0.63037 0.57988,1.34422 1.09195,1.34422 0.18113,0 0.50091,-0.17409 0.71064,-0.38686 z m -6.6557,-4.91545 v -1.60947 l -2.24456,0.0708 -2.24457,0.0708 -0.0724,1.40226 -0.0724,1.40226 1.64964,-0.13293 c 0.91131,-0.0734 1.92116,-0.0194 2.25629,0.12081 0.33365,0.13957 0.63393,0.26078 0.6673,0.26936 0.0334,0.008 0.0607,-0.70865 0.0607,-1.59387 z m 8.12571,-0.26701 c 0.20198,-0.49046 0.36724,-0.9336 0.36724,-0.98476 0,-0.0512 -1.14655,-0.093 -2.54789,-0.093 -1.40133,0 -2.54788,0.059 -2.54788,0.13101 0,0.072 0.15822,0.51519 0.3516,0.98476 l 0.3516,0.85375 h 1.82904 1.82905 z"  />
    <path
       style="fill:#97cc04;fill-opacity:1;stroke-width:0.24537361"
       d="m 22.56739,212.11747 c 0.0808,-0.0823 0.29062,-0.0911 0.46621,-0.0195 0.19404,0.079 0.13641,0.13766 -0.14696,0.14954 -0.25641,0.0108 -0.40008,-0.0478 -0.31925,-0.13 z m 141.80997,0 c 0.0808,-0.0823 0.29062,-0.0911 0.46621,-0.0195 0.19404,0.079 0.13641,0.13766 -0.14696,0.14954 -0.25641,0.0108 -0.40008,-0.0478 -0.31925,-0.13 z m 127.45869,0 c 0.0808,-0.0823 0.29063,-0.0911 0.46622,-0.0195 0.19404,0.079 0.13641,0.13766 -0.14696,0.14954 -0.25641,0.0108 -0.40009,-0.0478 -0.31926,-0.13 z" />
    <path
       style="fill:#b3b3b3;fill-opacity:1;stroke-width:0.24537361"
       d="m 78.337599,161.86036 c -12.6352,1.61538 -23.52418,9.22543 -29.15321,20.37449 -0.79435,1.57333 -1.72485,3.66197 -2.06778,4.64142 -0.90403,2.58209 -1.884405,7.24723 -2.122595,10.10034 -0.74892,8.9709 -1.49601,12.23648 -3.86926,16.91265 -4.14257,8.16239 -11.57741,13.82652 -20.7537,15.81093 -2.79174,0.60372 -8.78006,0.58968 -11.6006004,-0.0272 -5.77572,-1.26323 -10.630889,-3.86305 -14.783279,-7.91609 -5.3021616,-5.1753 -8.3298226,-11.55329 -9.0901746,-19.14911 l -0.278746,-2.78465 h -3.770518 -3.770519 l 0.163881,2.37243 c 1.08029,15.63895 11.242766,28.98613 25.7878656,33.86922 4.07941,1.36954 6.44608,1.72287 11.5792904,1.72871 4.03355,0.005 5.12535,-0.0787 7.29726,-0.55678 5.15419,-1.13451 9.38315,-2.92732 13.64943,-5.7865 3.08289,-2.06609 8.10482,-7.16733 10.163635,-10.32415 3.73053,-5.72006 5.89669,-12.19732 6.27578,-18.76581 0.0805,-1.39541 0.2394,-2.53712 0.35302,-2.53712 0.11363,0 0.20659,-0.64868 0.20659,-1.44153 0,-3.24238 1.1346,-7.94255 2.80583,-11.62339 1.98392,-4.36953 5.94845,-9.12847 9.90206,-11.88626 12.28242,-8.56741 28.63199,-6.88706 38.781481,3.98582 3.90741,4.1859 6.44653,9.20372 7.63622,15.0907 0.43597,2.15737 0.48795,3.01036 0.35043,5.7509 -0.43361,8.64073 3.06093,18.28216 9.13862,25.21345 5.70421,6.50536 12.39833,10.45293 20.89835,12.32389 3.64597,0.80252 10.87309,0.80747 14.50882,0.01 15.21598,-3.33782 26.63425,-15.05921 29.54629,-30.33066 0.27147,-1.42363 0.57868,-4.55304 0.70846,-7.2166 0.23212,-4.76428 0.53941,-6.76917 1.46868,-9.58233 4.22547,-12.79177 16.48666,-21.33259 29.65918,-20.65978 4.5989,0.23489 7.91285,1.10691 12.04857,3.1704 6.66359,3.32475 11.96252,9.31054 14.6327,16.5295 1.13961,3.08099 1.5504,5.41246 1.79199,10.17091 0.28043,5.52377 0.72671,8.39824 1.86381,12.00493 4.18817,13.2839 14.7561,22.93613 28.36987,25.91167 3.33648,0.72924 10.59384,0.79654 13.90074,0.1289 11.72248,-2.36666 21.36004,-9.59875 26.60175,-19.96216 2.281,-4.50977 3.6893,-9.21425 4.04246,-13.50414 0.0785,-0.95296 0.19737,-2.26175 0.26426,-2.90841 l 0.12162,-1.17573 h -3.90026 -3.90023 v 1.44152 c 0,3.24238 -1.13461,7.94256 -2.80583,11.6234 -1.98473,4.3713 -5.94842,9.12843 -9.90623,11.88918 -17.42383,12.15395 -41.15832,2.96308 -46.17454,-17.88047 -0.31343,-1.30235 -0.56248,-3.59582 -0.71439,-6.57858 -0.36537,-7.17508 -1.20003,-11.14808 -3.39237,-16.1477 -2.50267,-5.70731 -7.38679,-11.78886 -12.33977,-15.36503 -4.08958,-2.95278 -9.31741,-5.26243 -14.50877,-6.40999 -3.3204,-0.73399 -10.79039,-0.79204 -14.13515,-0.10986 -11.44713,2.33469 -21.18419,9.70164 -26.36735,19.94924 -1.68854,3.33842 -2.70991,6.17285 -3.39949,9.43401 -0.58395,2.7616 -0.73174,4.19243 -0.88699,8.58738 -0.25559,7.23574 -2.35436,13.26198 -6.41909,18.43127 -4.89499,6.22515 -11.48642,10.07019 -19.24638,11.22718 -17.02417,2.53823 -32.75052,-10.36246 -33.97158,-27.86767 -0.11869,-1.70164 -0.0835,-2.22388 0.14986,-2.22388 0.61418,0 -0.23965,-6.79227 -1.35313,-10.76434 -2.14734,-7.66011 -7.68798,-15.60104 -14.1314,-20.25334 -4.06275,-2.93341 -9.350711,-5.27693 -14.384531,-6.37498 -2.29695,-0.50103 -9.29197,-0.84869 -11.47094,-0.57012 z" />
    <path
       d="m 78.3376,237.78608 c -12.6352,-1.61538 -23.52418,-9.22543 -29.15321,-20.37449 -0.79435,-1.57333 -1.72485,-3.66197 -2.06778,-4.64142 -0.90403,-2.58209 -1.884407,-7.24723 -2.122597,-10.10034 -0.74892,-8.9709 -1.49601,-12.23648 -3.86926,-16.91265 -4.142568,-8.16239 -11.577408,-13.82652 -20.753698,-15.81093 -2.79174,-0.60372 -8.78006,-0.58968 -11.6006,0.0272 -5.77572,1.26323 -10.630889,3.86305 -14.783279,7.91609 -5.302162,5.1753 -8.329823,11.55329 -9.090175,19.14911 l -0.278746,2.78465 h -3.770518 -3.770519 l 0.163881,-2.37243 c 1.08029,-15.63895 11.242766,-28.98613 25.787866,-33.86922 4.07941,-1.36954 6.44608,-1.72287 11.57929,-1.72871 4.03355,-0.005 5.12535,0.0787 7.29726,0.55678 5.15419,1.13451 9.38315,2.92732 13.64943,5.7865 3.082888,2.06609 8.104818,7.16733 10.163635,10.32415 3.73053,5.72006 5.89669,12.19732 6.27578,18.76581 0.0805,1.39541 0.2394,2.53712 0.35302,2.53712 0.11363,0 0.20659,0.64868 0.20659,1.44153 0,3.24238 1.1346,7.94255 2.80583,11.62339 1.98392,4.36953 5.94845,9.12847 9.90206,11.88626 12.28242,8.56741 28.63199,6.88706 38.78148,-3.98582 3.90741,-4.1859 6.44653,-9.20372 7.63622,-15.0907 0.43597,-2.15737 0.48795,-3.01036 0.35043,-5.7509 -0.43361,-8.64073 3.06093,-18.28216 9.13862,-25.21345 5.70421,-6.50536 12.39833,-10.45293 20.89835,-12.32389 3.64597,-0.80252 10.87309,-0.80747 14.50882,-0.01 15.21598,3.33782 26.63425,15.05921 29.54629,30.33066 0.27147,1.42363 0.57868,4.55304 0.70846,7.2166 0.23212,4.76428 0.53941,6.76917 1.46868,9.58233 4.22547,12.79177 16.48666,21.33259 29.65918,20.65978 4.5989,-0.23489 7.91285,-1.10691 12.04857,-3.1704 6.66359,-3.32475 11.96252,-9.31054 14.6327,-16.5295 1.13961,-3.08099 1.5504,-5.41246 1.79199,-10.17091 0.28043,-5.52377 0.72671,-8.39824 1.86381,-12.00493 4.18817,-13.2839 14.7561,-22.93613 28.36987,-25.91167 3.33648,-0.72924 10.59384,-0.79654 13.90074,-0.1289 11.72248,2.36666 21.36004,9.59875 26.60175,19.96216 2.281,4.50977 3.6893,9.21425 4.04246,13.50414 0.0785,0.95296 0.19737,2.26175 0.26426,2.90841 l 0.12162,1.17573 h -3.90026 -3.90023 v -1.44152 c 0,-3.24238 -1.13461,-7.94256 -2.80583,-11.6234 -1.98473,-4.3713 -5.94842,-9.12843 -9.90623,-11.88918 -17.42383,-12.15395 -41.15832,-2.96308 -46.17454,17.88047 -0.31343,1.30235 -0.56248,3.59582 -0.71439,6.57858 -0.36537,7.17508 -1.20003,11.14808 -3.39237,16.1477 -2.50267,5.70731 -7.38679,11.78886 -12.33977,15.36503 -4.08958,2.95278 -9.31741,5.26243 -14.50877,6.40999 -3.3204,0.73399 -10.79039,0.79204 -14.13515,0.10986 -11.44713,-2.33469 -21.18419,-9.70164 -26.36735,-19.94924 -1.68854,-3.33842 -2.70991,-6.17285 -3.39949,-9.43401 -0.58395,-2.7616 -0.73174,-4.19243 -0.88699,-8.58738 -0.25559,-7.23574 -2.35436,-13.26198 -6.41909,-18.43127 -4.89499,-6.22515 -11.48642,-10.07019 -19.24638,-11.22718 -17.02417,-2.53823 -32.75052,10.36246 -33.97158,27.86767 -0.11869,1.70164 -0.0835,2.22388 0.14986,2.22388 0.61418,0 -0.23965,6.79227 -1.35313,10.76434 -2.14734,7.66011 -7.68798,15.60104 -14.1314,20.25334 -4.06275,2.93341 -9.35071,5.27693 -14.38453,6.37498 -2.29695,0.50103 -9.29197,0.84869 -11.47094,0.57012 z"
       style="fill:#97cc04;fill-opacity:1;stroke-width:0.24537361" />
  </g>
</svg>
