<?xml version="1.0" encoding="UTF-8" standalone="no"?>
<!-- Created with Inkscape (http://www.inkscape.org/) -->

<svg
   xmlns:dc="http://purl.org/dc/elements/1.1/"
   xmlns:cc="http://creativecommons.org/ns#"
   xmlns:rdf="http://www.w3.org/1999/02/22-rdf-syntax-ns#"
   xmlns:svg="http://www.w3.org/2000/svg"
   xmlns="http://www.w3.org/2000/svg"
   version="1.1"
   width="30px"
   height="30px"
   viewBox="0 0 7357 10891"
   id="svg2"
   xml:space="preserve"
   style="fill-rule:evenodd"><metadata
   id="metadata32"><rdf:RDF><cc:Work
       rdf:about=""><dc:format>image/svg+xml</dc:format><dc:type
         rdf:resource="http://purl.org/dc/dcmitype/StillImage" /><dc:title></dc:title></cc:Work></rdf:RDF></metadata>
 <defs
   id="defs4">
  <style
   type="text/css"
   id="style6" />
 </defs>
 <g
   id="__x0023_Layer_x0020_1">
  <metadata
   id="CorelCorpID_0Corel-Layer" />
  <path
   d="m 7351,10719 c 0,91 -74,166 -166,166"
   id="path10"
   style="fill:none;stroke:#373435;stroke-width:13.80480003" />
  <line
   class="fil0 str0"
   x1="7185"
   y1="10884"
   x2="173"
   y2="10884"
   id="line12"
   style="fill:none;stroke:#373435;stroke-width:13.80480003" />
  <path
   d="M 173,10884 C 82,10884 7,10810 7,10718"
   id="path14"
   style="fill:none;stroke:#373435;stroke-width:13.80480003" />
  <line
   class="fil0 str0"
   x1="7"
   y1="10719"
   x2="7"
   y2="173"
   id="line16"
   style="fill:none;stroke:#373435;stroke-width:13.80480003" />
  <path
   d="M 7,173 C 7,82 81,7 173,7"
   id="path18"
   style="fill:none;stroke:#373435;stroke-width:13.80480003" />
  <line
   class="fil0 str0"
   x1="173"
   y1="7"
   x2="7185"
   y2="7"
   id="line20"
   style="fill:none;stroke:#373435;stroke-width:13.80480003" />
  <path
   d="m 7185,7 c 91,0 166,74 166,166"
   id="path22"
   style="fill:none;stroke:#373435;stroke-width:13.80480003" />
  <line
   class="fil0 str0"
   x1="7351"
   y1="173"
   x2="7351"
   y2="10719"
   id="line24"
   style="fill:none;stroke:#373435;stroke-width:13.80480003" />
  <path
   d="m 5477,2477 c -81,-209 -199,-333 -324,-450 -125,-117 -347,-230 -531,-269 -133,-34 -328,-49 -578,-49 l -1944,0 0,2320 -318,0 0,520 318,0 0,211 -318,0 0,520 318,0 0,1437 557,0 0,-1437 1996,0 0,-520 -1996,0 0,-211 35,0 1396,0 c 537,0 922,-150 1162,-442 229,-279 369,-523 369,-951 0,-248 -69,-476 -143,-680 z m -732,1314 0,0 c -140,160 -325,238 -649,238 l -1403,0 0,0 -35,0 0,-1787 1427,0 c 228,0 386,15 467,44 134,85 239,151 317,296 81,151 121,330 121,534 0,291 -113,520 -246,675 z"
   id="path26"
   style="fill:#373435;fill-rule:nonzero" />
  <path
   d="m 4509,7887 c -19,-77 -64,-136 -106,-179 -43,-43 -102,-72 -174,-86 -51,-13 -130,-18 -231,-18 l -731,0 -159,857 -145,0 -36,192 145,0 -16,84 -145,0 -36,192 145,0 -98,525 209,0 98,-525 747,0 36,-192 -747,0 16,-84 540,0 c 218,0 394,-56 496,-163 104,-109 168,-193 197,-351 17,-91 11,-176 -5,-251 z m -224,236 0,0 c -20,108 -64,192 -129,249 -68,59 -166,88 -297,88 l -543,0 123,-660 539,0 c 93,0 156,5 187,16 50,18 87,56 108,109 23,56 27,122 13,197 z"
   id="path28"
   style="fill:#373435;fill-rule:nonzero" />
 </g>
</svg>