<svg width="38" height="38" viewBox="0 0 38 38" fill="none" xmlns="http://www.w3.org/2000/svg">
<path d="M2.23585 7.44046C1.00102 7.77133 0.268224 9.04058 0.599095 10.2754L7.37315 35.5565C7.70403 36.7914 8.97327 37.5242 10.2081 37.1933L13.1746 36.3984C14.4094 36.0675 15.1422 34.7983 14.8114 33.5635L8.0373 8.28234C7.70643 7.04751 6.43718 6.31471 5.20236 6.64558L2.23585 7.44046ZM18.5558 34.9565C20.9927 34.3036 23.0976 33.3751 24.8706 32.1712C26.6359 30.9389 28.042 29.4991 29.0888 27.852C30.1563 26.1689 30.8155 24.3219 31.0663 22.311C31.3096 20.2717 31.1237 18.1045 30.5087 15.8093C29.8937 13.5141 28.9748 11.5584 27.7522 9.9423C26.5219 8.29787 25.0275 7.02791 23.2691 6.13242C21.5313 5.201 19.5938 4.6572 17.4564 4.50103C15.3114 4.31652 13.0204 4.55074 10.5835 5.20371L6.9538 6.17629C5.71897 6.50716 4.98617 7.7764 5.31704 9.01123L5.83858 10.9576C6.16945 12.1925 7.4387 12.9253 8.67353 12.5944L12.0907 11.6788C13.2242 11.3751 14.3531 11.2244 15.4774 11.2269C16.6018 11.2293 17.648 11.4501 18.616 11.8892C19.6124 12.3208 20.4995 13.0245 21.2773 14.0006C22.0475 14.9483 22.6453 16.2155 23.0704 17.8023C23.4956 19.3892 23.6154 20.7997 23.4298 22.0338C23.2366 23.2397 22.8165 24.2786 22.1694 25.1505C21.5506 26.0148 20.7549 26.7291 19.7824 27.2934C18.8099 27.8577 17.757 28.2917 16.6235 28.5954L13.2063 29.511C11.9715 29.8419 11.2387 31.1111 11.5696 32.346L12.0911 34.2924C12.422 35.5272 13.6912 36.26 14.9261 35.9291L18.5558 34.9565Z" fill="white"/>
<path d="M20.3577 19.9948C20.7307 21.3869 22.2715 22.1034 23.5763 21.4914L31.9093 17.5836C32.9247 17.1074 33.4526 15.972 33.1624 14.8888L32.8079 13.5657C32.4348 12.1735 30.894 11.4571 29.5892 12.069L21.2562 15.9769C20.2409 16.453 19.7129 17.5885 20.0031 18.6717L20.3577 19.9948Z" fill="white"/>
</svg>
