<svg width="96" height="95" viewBox="0 0 96 95" fill="none" xmlns="http://www.w3.org/2000/svg">
<path d="M48.0002 95C74.1621 95 95.5 73.6621 95.5 47.5002C95.5 21.3379 74.1621 0 48.0002 0C21.8381 0 0.5 21.3379 0.5 47.5002C0.5 73.6621 21.8381 95 48.0002 95Z" fill="#F7F7F7"/>
<path d="M62.115 75.2084C62.5191 75.4025 73.7466 80.6757 79.2874 71.4834C84.93 62.1218 80.7792 62.4782 80.6894 61.7129C80.5996 60.9473 88.9059 52.247 78.7745 45.7068C78.7745 45.7068 66.4639 17.6219 34.7877 31.3437C34.7877 31.3437 25.0409 29.9328 20.2961 40.5772C20.2961 40.5772 8.49753 44.9377 13.3707 58.9157C18.2439 72.8939 29.9143 66.6107 29.9143 66.6107C31.5159 75.3218 41.6301 77.4539 48.8942 73.6636C48.8942 73.6636 51.331 76.3566 54.2805 75.3305C54.3836 74.9253 55.1895 75.2266 54.6573 73.8528C55.4021 72.7544 57.0924 72.1692 60.1183 73.5617C60.2774 73.6929 60.5592 73.9163 60.5158 73.8896L62.115 75.2084Z" fill="#EC4B53"/>
<path d="M21.2345 40.9026C21.0966 41.1319 13.4792 43.043 12.9422 50.5746C12.1163 62.1614 20.2748 70.3592 30.0873 65.3556C32.1353 73.5904 43.3077 76.6934 49.3771 71.8369C49.3771 71.8369 50.968 75.8058 54.657 73.8525L54.837 74.0494C55.7237 74.0372 58.0685 75.4965 60.118 73.5614C60.26 73.6787 60.4995 73.8689 60.5188 73.8895C60.8086 73.921 61.22 73.7943 61.4278 73.9136C73.9595 81.1069 82.0938 68.7255 80.7193 63.7708C80.5269 63.078 80.1929 62.955 79.6121 62.6073C79.6121 62.6073 79.3899 61.7298 80.2272 60.7411C83.7829 56.5429 85.6055 50.0179 78.1951 46.3884C70.6898 29.7679 52.3772 22.5856 34.2586 32.2416C23.6278 31.6104 21.3541 40.7033 21.2345 40.9026Z" fill="#FF5B61"/>
<path d="M40.4877 34.7601C40.1266 34.8581 39.7537 34.6451 39.6555 34.284C39.5574 33.9229 39.7704 33.55 40.1315 33.452C40.1474 33.4476 45.4405 31.9617 46.6649 36.2749C47.4235 35.8593 48.5794 35.4849 49.9118 35.9332C49.7426 34.4627 50.1671 32.4298 53.4183 31.5941C53.7808 31.5016 54.1499 31.7207 54.2425 32.0834C54.3351 32.446 54.1159 32.815 53.7532 32.9076C50.0319 33.8645 51.5997 37.0006 51.6042 37.0091L51.602 37.0104C51.7124 37.2379 51.6901 37.5187 51.5216 37.7298C51.2888 38.022 50.862 38.0697 50.5701 37.8361C48.8919 36.4937 47.4303 37.3274 46.892 37.7346C46.8722 40.259 43.4656 40.8277 43.4555 40.8292V40.829C43.2535 40.8624 43.0392 40.8049 42.8789 40.6538C38.9705 36.9759 34.6465 41.6486 34.6337 41.6614L34.6333 41.661C34.4216 41.8866 34.0745 41.9441 33.7962 41.7812C29.924 39.5116 33.2625 32.7484 34.0433 31.2882C34.5159 31.3041 34.7879 31.3435 34.7879 31.3435C34.9985 31.252 35.205 31.1696 35.4141 31.082C35.4921 31.2692 35.4857 31.4889 35.3781 31.6782C35.3674 31.6977 31.6852 38.0957 34.0778 40.3117C35.4006 39.1136 39.5459 35.9742 43.5383 39.4213C44.194 39.2518 45.6645 38.7334 45.5207 37.5135L45.5179 37.4821C45.0798 33.4721 40.5007 34.7564 40.4877 34.7601ZM81.1898 62.1695C80.9249 61.9947 80.7091 61.8808 80.6892 61.7127C80.6735 61.5796 80.9108 61.2076 81.2607 60.6497C80.8215 58.5554 79.1368 58.6187 78.2194 58.8215C77.8505 57.9856 77.2451 56.1015 77.9804 53.8651C77.9912 53.8386 78.0003 53.8117 78.0079 53.7844C78.9603 51.0762 83.3737 52.1765 83.3863 52.1798C83.4906 52.2049 83.5951 52.2041 83.6927 52.1826C83.611 51.718 83.4832 51.2487 83.3028 50.778C82.1072 50.5628 78.5684 50.1603 77.0909 52.5632C76.5148 52.2227 75.6616 51.9104 74.7411 52.2333C73.8494 48.7296 70.5773 50.016 70.5671 50.0199C70.2162 50.1499 70.0375 50.5409 70.1684 50.8918C70.2986 51.2426 70.6896 51.4211 71.0402 51.2907C71.046 51.2885 72.9541 50.5359 73.4702 52.7919C72.2821 53.1218 69.8897 54.1023 69.5483 56.6929C69.4995 57.0642 69.7613 57.4048 70.1329 57.4533C70.5042 57.5013 70.8447 57.2395 70.8933 56.8684C71.1978 54.5569 74.0188 54.0357 74.3174 53.9869C74.4634 53.9698 74.5935 53.9076 74.6948 53.8156C75.405 53.2039 76.1639 53.5577 76.5706 53.8407C76.058 55.7115 76.314 57.3631 76.6553 58.4808C73.3507 57.6991 71.4212 59.9947 71.1642 60.325C71.1375 60.3567 71.1128 60.391 71.0916 60.4279C69.1924 63.752 65.3432 62.4638 64.1305 61.9515C64.0121 56.5071 57.841 57.6292 57.8228 57.6323C57.4532 57.6969 57.2051 58.0494 57.2697 58.4192C57.3344 58.789 57.6868 59.0367 58.0566 58.9721C58.07 58.9701 62.4687 58.1715 62.76 61.7704C57.4961 62.448 56.565 67.1629 56.5622 67.1766C56.4874 67.5438 56.7246 67.9023 57.0912 67.9769C57.4584 68.0519 57.8167 67.8151 57.8915 67.4479C57.8939 67.4366 58.6795 63.4533 63.3194 63.0764C64.3435 63.5492 69.6134 65.6936 72.2506 61.1386C72.4645 60.8653 74.3003 58.6884 77.5557 60.2339C77.7285 60.324 77.9366 60.3379 78.1246 60.2613L78.1253 60.2626C78.1304 60.2609 79.9828 59.4855 80.0111 61.7201C80.0157 62.0943 80.3228 62.3944 80.6972 62.3897C80.893 62.3884 81.0679 62.3034 81.1898 62.1695ZM79.0176 45.869C78.9813 45.8974 78.9408 45.9228 78.8974 45.944C77.3577 46.7003 76.5393 48.4795 76.5371 48.4845C76.3756 48.8238 75.9697 48.968 75.6303 48.8062C75.2915 48.6448 75.1473 48.2388 75.3087 47.8998C75.3113 47.8935 76.3157 45.7068 78.2927 44.7309C78.6167 45.3456 78.7746 45.7063 78.7746 45.7063C78.8581 45.7601 78.9369 45.8148 79.0176 45.869ZM20.744 39.6357C20.5902 39.9387 20.4407 40.2521 20.2961 40.5766C20.2961 40.5766 20.0622 40.6635 19.6734 40.8511C19.6883 40.8843 19.7063 40.9173 19.7269 40.949C19.9325 41.2634 20.3537 41.3513 20.6682 41.1461C20.7947 41.063 20.9895 40.9776 21.2346 40.9027C21.9048 40.6976 22.8771 40.5874 23.8596 40.7958C24.809 40.9967 25.7648 41.5062 26.4413 42.5405C26.5682 42.7347 26.6853 42.9465 26.7919 43.1769C25.5269 43.4569 23.3502 44.3273 23.0279 47.0151C22.984 47.3881 23.2504 47.7261 23.6234 47.7701C23.9963 47.8139 24.3346 47.5473 24.3783 47.1745C24.6633 44.7986 27.1124 44.4553 27.6442 44.4084C30.0034 45.153 30.1574 47.2767 30.1583 47.2825C30.1904 47.6554 30.5192 47.9317 30.892 47.8994C31.2649 47.8672 31.5408 47.5386 31.5089 47.1656C31.508 47.1569 31.295 44.2624 28.2578 43.1841C28.0696 42.6553 27.8399 42.1948 27.5796 41.7961C26.6752 40.4134 25.4033 39.7333 24.1416 39.4663C22.9127 39.2056 21.6883 39.3463 20.8416 39.6051L20.744 39.6357ZM15.8669 63.8014C16.2132 64.2647 16.5705 64.682 16.9375 65.0553C17.0845 64.9351 17.1802 64.754 17.1862 64.5491C17.2446 62.5406 17.6857 60.9447 18.5975 59.8581C19.2632 59.0638 20.2035 58.5278 21.4552 58.2856C21.5502 59.9737 22.1438 61.09 22.9463 61.7299C22.9593 61.7416 22.9728 61.7527 22.9869 61.7639C23.4662 62.1322 24.013 62.3318 24.573 62.3845C25.1187 62.4352 25.675 62.3445 26.1908 62.132C27.2566 61.6926 28.1613 60.7296 28.4442 59.4288C28.5237 59.0619 28.2902 58.6998 27.923 58.6207C27.5564 58.5413 27.1942 58.7749 27.115 59.1417C26.9331 59.9789 26.355 60.597 25.675 60.8771C25.358 61.008 25.0207 61.0646 24.6956 61.0339C24.385 61.005 24.0822 60.8942 23.8167 60.6901C23.8058 60.6814 23.7939 60.6732 23.7827 60.6653C23.2532 60.2394 22.863 59.4314 22.8055 58.1435L22.8144 58.1431C24.4271 58.0977 24.9519 57.7013 24.93 56.946C24.9179 56.5225 24.6658 56.1529 24.3477 55.6874C23.6872 54.7203 22.6127 53.1476 24.4646 50.9159C24.7042 50.6266 24.6639 50.198 24.3743 49.959C24.0852 49.7193 23.6564 49.7597 23.4172 50.0494C20.9129 53.0675 22.3451 55.1636 23.2263 56.4535C23.4204 56.7372 23.574 56.9623 23.5746 56.9831C23.5785 57.1284 23.371 56.7704 22.7769 56.7875C20.4032 56.8552 18.6975 57.6254 17.5556 58.9864C16.5535 60.1808 16.0167 61.8099 15.8669 63.8014ZM29.2992 66.898C29.6928 66.7297 29.9143 66.6104 29.9143 66.6104C29.9561 66.836 30.0047 67.0568 30.0576 67.2739L30.0873 67.2668C30.4498 67.1715 30.6663 66.7998 30.571 66.4372C30.2387 65.1822 30.4322 62.6387 31.7512 60.3094C32.6591 58.707 34.1055 57.2226 36.2893 56.3635C36.4953 56.299 36.6489 56.1444 36.7206 55.9561C36.9052 55.5687 38.415 52.558 40.5566 53.0614C41.0763 53.2616 44.9883 54.6671 46.507 52.304C48.0539 52.4702 52.7015 52.5561 53.4224 47.7143C55.378 47.4647 61.702 46.1766 62.2076 39.9309C63.5968 40.1004 66.3958 40.0232 68.109 37.1323C68.2997 36.8093 68.1925 36.3926 67.8696 36.202C67.5466 36.0113 67.1298 36.1185 66.9387 36.4416C65.4727 38.916 62.9667 38.7087 62.0759 38.5434C60.2397 33.7283 55.9851 36.2567 55.9725 36.2642C55.6482 36.4505 55.5365 36.8648 55.7226 37.1891C55.9089 37.5136 56.3236 37.6255 56.6479 37.4391C56.6563 37.434 59.6297 35.665 60.8778 39.2279C60.8066 44.9147 55.1506 46.1182 53.3294 46.3587C51.6851 40.3607 46.7264 43.592 46.7119 43.6011C46.3948 43.8007 46.2996 44.2199 46.4991 44.5368C46.6987 44.8539 47.118 44.9491 47.4351 44.7496C47.4452 44.7431 51.0383 42.4002 52.1219 47.1383C51.6786 51.8124 46.6126 50.9643 46.2745 50.9023C45.9626 50.835 45.6366 50.9958 45.5069 51.3003C44.7117 53.1719 41.3852 51.9277 41.0349 51.7909C40.9974 51.7738 40.9581 51.7599 40.9167 51.7497C40.743 51.7065 40.5736 51.6774 40.4074 51.6605C39.3843 47.7486 41.6962 47.7688 41.7029 47.7688C42.0773 47.7644 42.3773 47.4569 42.3731 47.0825C42.3684 46.7082 42.0613 46.4086 41.6871 46.413C41.675 46.413 37.7162 46.3956 39.0451 51.8043C37.2221 52.3852 36.0201 54.3739 35.6175 55.1339C33.1278 55.7202 32.6949 54.0501 32.6936 54.0453L32.692 54.0457C32.6135 53.7499 32.3405 53.5354 32.021 53.5427C30.3177 53.5887 30.3164 51.7516 30.3164 51.7468C30.3107 51.3725 30.0023 51.0738 29.628 51.0795C29.2536 51.0855 28.9549 51.3938 28.9604 51.7681C28.9604 51.7764 28.9608 54.6444 31.5789 54.8836C31.8299 55.3735 32.3578 56.1025 33.369 56.442C32.1468 57.354 31.2337 58.4693 30.571 59.6394C29.0627 62.3023 28.8613 65.2856 29.2577 66.7825C29.2683 66.8234 29.2825 66.8618 29.2992 66.898ZM48.2851 73.9636C48.1606 73.7103 48.2035 73.396 48.4132 73.185C48.8613 72.7369 49.262 71.1941 49.1654 69.5489C49.1299 68.944 49.0218 68.3348 48.8175 67.7758C48.6217 67.2396 48.3365 66.7484 47.9409 66.353L47.9398 66.3517L47.9384 66.353C47.2576 65.6719 46.2198 65.2525 44.6976 65.3329C44.6701 65.336 44.6423 65.3381 44.6135 65.3381C44.5766 65.3381 44.5402 65.3347 44.5048 65.3292C44.1955 65.295 41.4835 65.0531 41.6617 67.1943C41.6925 67.5685 41.4138 67.8975 41.0393 67.9281C40.6651 67.9587 40.3367 67.6806 40.3061 67.3062C40.0602 64.3565 42.613 63.9565 43.9329 63.9448V61.5312C39.8255 61.7399 41.1008 56.9205 41.1041 56.9059C41.1967 56.5431 41.5656 56.3244 41.9283 56.4166C42.291 56.5092 42.51 56.8781 42.4176 57.2408C42.4152 57.2503 41.5233 60.6257 44.4966 60.098C44.6161 60.0773 44.7341 60.0891 44.8408 60.1272C45.2897 60.2532 49.8346 61.423 51.6306 57.5592C49.9549 56.3374 48.0293 57.5774 48.0215 57.5824C47.7042 57.7819 47.285 57.6867 47.0854 57.3696C46.8861 57.0527 46.9813 56.6335 47.2982 56.4339C47.314 56.4238 52.8108 52.8866 54.7986 60.4682C54.8925 60.8306 54.6746 61.2009 54.3119 61.295C53.9493 61.3889 53.579 61.1711 53.4851 60.8083C53.2444 59.891 52.9427 59.1838 52.6047 58.6428C50.6948 62.0593 46.9813 61.8923 45.2938 61.611V63.9682C46.9043 64.0147 48.0736 64.5638 48.9004 65.3904L48.8987 65.3917C49.4455 65.9387 49.8333 66.6002 50.0935 67.313C50.3453 68.0033 50.4777 68.7421 50.5208 69.4691C50.6381 71.4663 50.0426 73.4533 49.3901 74.1269C49.0722 73.8604 48.8941 73.6634 48.8941 73.6634C48.6935 73.7682 48.4898 73.8675 48.2851 73.9636ZM55.8174 54.2155C55.5343 54.4606 55.1055 54.4298 54.8602 54.1461C54.6152 53.8625 54.6461 53.4341 54.9296 53.189C54.9385 53.1814 56.8973 51.4504 59.1593 51.6508C58.9619 50.5598 59.0944 49.425 59.5263 48.4097C60.0431 47.1955 60.9875 46.1477 62.3065 45.5449C62.5329 45.4413 62.7712 45.3508 63.0209 45.2749C64.6739 44.7719 65.7327 45.2198 66.3992 45.8696C66.7671 44.493 67.5948 42.7704 69.4559 41.8196C73.0039 40.0076 75.5416 43.2931 75.5492 43.3025C75.7797 43.5975 75.727 44.0241 75.4319 44.2544C75.1369 44.4846 74.7109 44.4321 74.4803 44.1371C74.4751 44.1302 72.6176 41.7269 70.073 43.027C68.0648 44.0523 67.5995 46.3006 67.4922 47.3563C69.3352 47.9991 68.6862 51.4747 68.6842 51.4857C68.6196 51.8557 68.267 52.1034 67.8974 52.0386C67.5275 51.9741 67.2798 51.6221 67.3443 51.2517C67.3453 51.2441 67.8325 48.5759 66.8038 48.6114C66.4702 48.622 66.1856 48.3893 66.1188 48.0739L66.1177 48.0746C66.1164 48.0683 65.6803 45.8831 63.4139 46.5724C63.2254 46.6299 63.0434 46.699 62.8699 46.7784C61.8777 47.232 61.1664 48.023 60.7756 48.9415C60.3828 49.8648 60.313 50.9137 60.6064 51.8774C60.6292 51.9535 60.6546 52.0292 60.6832 52.1047C61.6004 52.5917 62.5084 53.5082 63.3042 55.0821C63.4731 55.4167 63.3386 55.8251 63.0036 55.9937C62.6691 56.1628 62.2609 56.0281 62.092 55.6932C59.6371 50.8385 55.8282 54.206 55.8174 54.2155ZM66.1832 70.1051C66.001 70.4323 65.5881 70.5501 65.2604 70.3682C64.9333 70.186 64.8155 69.7732 64.9973 69.4455C65.0049 69.4322 67.507 64.8313 71.0308 66.8076C71.7297 66.0645 73.2759 64.7798 75.5371 64.8844C79.072 65.0486 78.6447 67.9754 78.6436 67.9836C78.5951 68.3549 78.2545 68.6171 77.8832 68.5682C77.5123 68.5198 77.2503 68.1793 77.2985 67.8081C77.2993 67.804 77.5173 66.3348 75.4787 66.2404C73.7618 66.1608 72.5884 67.1269 72.0529 67.6928C74.3098 70.6503 70.9916 73.6966 70.9814 73.7057C70.7085 73.9625 70.2788 73.9493 70.022 73.6765C69.765 73.4032 69.778 72.9733 70.0513 72.7165C70.0587 72.7095 72.6805 70.2988 70.7179 68.2174C68.1901 66.4211 66.1887 70.0946 66.1832 70.1051Z" fill="#EC4B53"/>
<path d="M54.6574 73.8528C55.0992 74.8288 54.3837 74.9251 54.2805 75.3305C54.9442 75.9573 57.8217 77.5062 59.92 79.3021C62.4654 81.481 62.0768 82.3492 63.7698 82.4499C64.6303 82.5009 66.4363 82.122 66.2891 80.9032C66.0251 78.7204 62.103 75.2028 62.103 75.2028C62.103 75.2028 62.1069 75.2045 62.115 75.2086L60.5158 73.8897C58.6188 75.2319 56.6498 74.8273 54.6574 73.8528Z" fill="#F5A209"/>
<path d="M54.6572 73.8528C55.792 75.0904 61.6034 79.8798 62.7827 81.2237C63.9617 82.5676 66.1222 81.2491 65.5616 79.7304C65.0009 78.2111 60.5157 73.8898 60.5157 73.8898C60.5593 73.9165 60.2773 73.6931 60.1182 73.5619C57.579 74.9949 55.9035 73.895 54.6572 73.8528Z" fill="#FBB429"/>
<path d="M20.7386 7.40784C13.3325 7.40784 7.32861 13.4116 7.32861 20.8177C7.32861 28.224 13.3325 34.2281 20.7386 34.2281C22.8878 34.2281 24.9192 33.7219 26.7194 32.8229L33.5367 36.7489L29.3629 31.0864C32.2893 28.6268 34.149 24.9396 34.149 20.8179C34.1489 13.4116 28.1451 7.40784 20.7386 7.40784Z" fill="#20D0C2"/>
<path d="M14.5703 16.8094C14.5703 16.0298 14.8228 15.2375 15.3244 14.433C15.8259 13.6327 16.5588 12.9668 17.5196 12.44C18.4846 11.9134 19.6049 11.6523 20.8902 11.6523C22.0824 11.6523 23.1361 11.8711 24.0503 12.3136C24.9606 12.7517 25.664 13.3501 26.1612 14.1086C26.6583 14.8627 26.9071 15.6882 26.9071 16.573C26.9071 17.2727 26.7641 17.8876 26.4813 18.4142C26.1995 18.9412 25.8621 19.396 25.4706 19.7752C25.0825 20.1589 24.3835 20.8031 23.3719 21.7092C23.0901 21.9617 22.8665 22.1853 22.698 22.3796C22.5292 22.5729 22.4032 22.7501 22.3226 22.9102C22.239 23.0703 22.1757 23.2305 22.1293 23.3902C22.0868 23.5505 22.0154 23.8329 21.9272 24.2371C21.771 25.0924 21.2823 25.5183 20.4564 25.5183C20.0308 25.5183 19.6684 25.3795 19.378 25.1013C19.0828 24.8186 18.9398 24.4059 18.9398 23.8541C18.9398 23.1629 19.0451 22.5647 19.2596 22.0591C19.4751 21.5531 19.7571 21.111 20.1111 20.7276C20.4651 20.3443 20.9455 19.8893 21.5435 19.3626C22.0701 18.9035 22.4538 18.5534 22.6854 18.3218C22.9216 18.086 23.1194 17.8244 23.2791 17.5383C23.4395 17.2516 23.5194 16.9354 23.5194 16.5985C23.5194 15.9413 23.2751 15.385 22.7865 14.9343C22.2933 14.4832 21.6656 14.2559 20.8902 14.2559C19.9846 14.2559 19.3188 14.4834 18.8889 14.9425C18.4633 15.398 18.1009 16.0721 17.8061 16.961C17.5237 17.888 16.9932 18.3511 16.2133 18.3511C15.7498 18.3511 15.3624 18.1912 15.0462 17.8628C14.7304 17.5384 14.5703 17.1883 14.5703 16.8094ZM20.5913 30.3343C20.09 30.3343 19.6519 30.1695 19.2767 29.8454C18.9021 29.5211 18.7162 29.0659 18.7162 28.4801C18.7162 27.9621 18.8975 27.5279 19.2596 27.1739C19.622 26.8201 20.0647 26.643 20.5913 26.643C21.1097 26.643 21.5474 26.8201 21.9018 27.1739C22.2553 27.5277 22.4325 27.9619 22.4325 28.4801C22.4325 29.0578 22.2473 29.5125 21.8766 29.8411C21.5053 30.1695 21.08 30.3343 20.5913 30.3343Z" fill="white"/>
</svg>
