<svg width="90" height="90" viewBox="0 0 90 90" fill="none" xmlns="http://www.w3.org/2000/svg">
<circle cx="45" cy="45" r="45" fill="#F7F7F7"/>
<path d="M68.0533 59.2024C67.1238 57.2193 67.9221 56.7312 67.351 54.6372C66.9791 53.2739 66.1483 52.7228 65.8637 51.5799C65.5932 50.4948 66.0657 48.6048 65.781 47.6964C65.2669 46.0554 64.622 45.6219 64.2937 44.2673C63.9631 42.9039 64.8307 41.8711 64.5416 40.4251C64.1793 38.6133 63.5281 37.871 63.2609 36.9134C62.7651 35.1369 62.917 34.6926 62.9717 33.2364C63.0956 29.9312 61.8351 25.8742 60.8647 23.8168C59.766 21.4876 58.3241 20.1876 56.6117 19.4788H45V68.4361C58.6337 68.5601 69.7885 64.47 69.7885 64.47C69.7473 60.9169 69.132 61.5035 68.0533 59.2024Z" fill="#734A3E"/>
<path d="M33.3883 19.4788C31.6758 20.1876 30.2339 21.4876 29.1353 23.8168C28.1648 25.8742 26.9043 29.9312 27.0283 33.2364C27.0828 34.6925 27.2349 35.1368 26.7391 36.9134C26.4719 37.871 25.8207 38.6134 25.4584 40.4251C25.1693 41.8711 26.0369 42.9039 25.7063 44.2673C25.378 45.6219 24.7331 46.0554 24.219 47.6964C23.9343 48.6049 24.4068 50.4948 24.1363 51.5799C23.8516 52.7228 23.0208 53.2739 22.649 54.6372C22.0779 56.7312 22.8762 57.2193 21.9466 59.2024C20.868 61.5034 20.2527 60.9169 20.2114 64.47C20.2114 64.47 31.3663 68.5601 45 68.4361V19.4788H33.3883Z" fill="#623F33"/>
<path d="M63.3904 69.0348L63.0205 66.2606L62.2097 60.1791C61.9892 58.5252 60.9515 57.0933 59.4486 56.3686L55.6236 54.5245C55.2514 54.345 54.8179 54.5077 54.6333 54.8719L52.3054 54.0153C51.4957 53.7454 50.9495 52.9876 50.9495 52.134V48.936L55.2207 47.1563C57.4375 46.2326 58.8816 44.0664 58.8816 41.6647V40.6731C60.5244 40.6731 61.8562 39.3414 61.8562 37.6985C61.8562 36.0556 60.5244 34.7239 58.8816 34.7239V34.7156C58.8832 34.7172 58.8849 34.7187 58.8865 34.7203C55.3219 31.1631 45.1906 31.7406 45.0043 26.9263C44.818 31.7422 34.6796 31.1626 31.1184 34.7239C29.4755 34.7239 28.1438 36.0556 28.1438 37.6985C28.1438 39.3414 29.4755 40.6731 31.1184 40.6731V41.6647C31.1184 44.0663 32.5625 46.2325 34.7794 47.1563L39.0507 48.936V52.1339C39.0507 52.9875 38.5045 53.7452 37.6948 54.0152L35.3669 54.8718C35.1824 54.5076 34.7488 54.3449 34.3766 54.5243L30.5516 56.3685C29.0487 57.0932 28.011 58.5251 27.7905 60.179L26.9797 66.2605L26.6099 69.0347C26.372 70.818 27.7592 72.4025 29.5582 72.4025H60.4416C62.2408 72.4025 63.6281 70.818 63.3904 69.0348Z" fill="#FDC88E"/>
<path d="M39.0506 48.8533V52.1338C39.0506 52.8394 38.6767 53.4788 38.0898 53.8319C46.3845 55.2651 50.9489 48.8536 50.9492 48.8533H39.0506Z" fill="#F5B97A"/>
<path d="M63.3903 69.0347L62.2097 60.1789C61.9892 58.525 60.9515 57.0931 59.4486 56.3684L55.6236 54.5242C55.2385 54.3386 54.787 54.5185 54.6143 54.9096C52.1062 60.5894 47.8094 63.2306 45 64.4704C42.1905 63.2307 37.8937 60.5894 35.3858 54.9094C35.2132 54.5184 34.7617 54.3386 34.3766 54.5241L30.5516 56.3682C29.0487 57.0929 28.011 58.5248 27.7905 60.1787L26.6098 69.0346C26.3721 70.8177 27.7593 72.4023 29.5584 72.4023H60.4419C62.2408 72.4025 63.6281 70.8179 63.3903 69.0347Z" fill="#00BEA4"/>
<path d="M31.1184 40.6731C32.7613 40.6731 34.0931 39.3413 34.0931 37.6985C34.0931 36.0557 32.7613 34.7239 31.1184 34.7239C29.4756 34.7239 28.1438 36.0557 28.1438 37.6985C28.1438 39.3413 29.4756 40.6731 31.1184 40.6731Z" fill="#FDC88E"/>
<path d="M58.8816 34.7238V32.7407C58.8816 30.0026 56.6619 27.783 53.9239 27.783H36.0761C33.338 27.783 31.1184 30.0026 31.1184 32.7407V34.7238C29.4756 34.7238 28.1438 36.0555 28.1438 37.6984C28.1438 39.3412 29.4756 40.673 31.1184 40.673V41.6645C31.1184 44.0662 32.5625 46.2323 34.7794 47.1562L41.1862 49.8257C42.3946 50.3293 43.6908 50.5884 44.9999 50.5884C46.309 50.5884 47.605 50.3291 48.8135 49.8257L55.2206 47.1561C57.4375 46.2325 58.8816 44.0663 58.8816 41.6645V40.673C60.5245 40.673 61.8562 39.3412 61.8562 37.6984C61.8562 36.0555 60.5245 34.7238 58.8816 34.7238Z" fill="#FFD7A3"/>
<path d="M45.979 27.1633L44.5042 26.2957C44.5042 26.2957 41.9451 29.5846 35.0846 31.2534C31.6452 32.09 31.1184 34.7238 31.1184 34.7238H31.1183C29.4756 34.7239 28.1438 36.0556 28.1438 37.6984C28.1438 39.3412 29.4756 40.673 31.1184 40.673V41.6646C31.1184 44.0663 32.5625 46.2325 34.7794 47.1562L41.186 49.8257C41.4996 49.9563 41.8196 50.0689 42.1438 50.1664C39.3124 48.0952 37.4277 46.2845 36.3234 45.1006C35.52 44.2392 35.0846 43.1025 35.0846 41.9246V34.5998C37.8113 32.5755 44.6282 32.8233 45.979 27.1633Z" fill="#FDC88E"/>
<path d="M38.0592 38.69C37.5138 38.69 37.0676 38.2438 37.0676 37.6984V36.7069C37.0676 36.1615 37.5138 35.7153 38.0592 35.7153C38.6045 35.7153 39.0507 36.1615 39.0507 36.7069V37.6984C39.0507 38.2438 38.6045 38.69 38.0592 38.69Z" fill="#623F33"/>
<path d="M51.9408 38.69C51.3954 38.69 50.9492 38.2438 50.9492 37.6984V36.7069C50.9492 36.1615 51.3954 35.7153 51.9408 35.7153C52.4861 35.7153 52.9323 36.1615 52.9323 36.7069V37.6984C52.9323 38.2438 52.4861 38.69 51.9408 38.69Z" fill="#623F33"/>
<path d="M44.9999 45.6578C43.237 45.6578 41.5881 45.224 40.4759 44.4674C40.0233 44.1595 39.9056 43.5426 40.214 43.09C40.5214 42.6379 41.1388 42.5201 41.5914 42.8281C42.3709 43.3582 43.6452 43.6749 44.9999 43.6749C46.3545 43.6749 47.6288 43.3582 48.4083 42.8281C48.8619 42.5192 49.4778 42.6374 49.7857 43.09C50.094 43.5426 49.9764 44.1595 49.5238 44.4674C48.4119 45.224 46.7627 45.6578 44.9999 45.6578Z" fill="#E4B07B"/>
<path d="M45.6328 65.8165C50.4233 63.5642 54.0889 59.7736 56.3032 54.8519L55.6235 54.5242C55.2384 54.3386 54.7869 54.5185 54.6142 54.9096C52.1062 60.5894 47.8094 63.2306 45 64.4704C42.1906 63.2307 37.8937 60.5894 35.3859 54.9094C35.2132 54.5184 34.7617 54.3386 34.3766 54.5241L33.697 54.8518C35.9113 59.7734 39.5767 63.5641 44.3673 65.8164L45 66.1141L45.6328 65.8165Z" fill="#00AB9A"/>
<path d="M34.0931 68.1542C34.0931 67.0518 33.7256 65.9808 33.0488 65.1105L28.173 58.8416C27.9875 59.2633 27.853 59.7105 27.7905 60.1789L26.6098 69.0347C26.3721 70.8179 27.7593 72.4025 29.5584 72.4025H34.0931V68.1542Z" fill="#00AB9A"/>
<path d="M55.907 68.1542C55.907 67.0518 56.2745 65.9808 56.9513 65.1105L61.8271 58.8416C62.0127 59.2633 62.1471 59.7105 62.2096 60.1789L63.3903 69.0347C63.628 70.8179 62.2408 72.4025 60.4417 72.4025H55.907V68.1542Z" fill="#00AB9A"/>
<path d="M47.9835 14.8929C45.9704 14.8929 45.0502 15.8321 45.0044 15.8799C44.9587 15.8321 44.0385 14.8929 42.0253 14.8929C36.5409 14.8929 24.3635 22.4535 29.1353 33.7322L31.1184 34.7238C34.6796 31.1625 44.818 31.7421 45.0044 26.926C45.1908 31.7421 55.3291 31.1625 58.8905 34.7238L60.8736 33.7322C65.6453 22.4535 53.468 14.8929 47.9835 14.8929Z" fill="#734A3E"/>
<path d="M42.0253 14.8929C36.5409 14.8929 24.3635 22.4535 29.1353 33.7322V34.7238H31.1184C31.9007 33.9415 33.0008 33.3592 34.243 32.8754C34.8986 21.1521 41.2434 14.9756 45 15.8845L45.0028 15.8788C44.9723 15.8462 44.0561 14.8929 42.0253 14.8929Z" fill="#623F33"/>
</svg>
