<svg width="90" height="90" viewBox="0 0 90 90" fill="none" xmlns="http://www.w3.org/2000/svg">
<circle cx="45" cy="45.0002" r="45" fill="#F7F7F7"/>
<path d="M64.148 35.8168C64.0251 35.8168 63.9037 35.8198 63.7839 35.8258C59.073 36.0162 55.3135 39.8954 55.3135 44.6514C55.3135 48.778 58.1439 52.2453 61.9708 53.2147C62.6661 53.3916 63.3958 53.4859 64.148 53.4859C69.0267 53.4859 72.9825 49.5302 72.9825 44.6513C72.9825 39.7724 69.0267 35.8168 64.148 35.8168ZM64.148 49.3653C63.8857 49.3653 63.6281 49.3443 63.3778 49.3023C61.1407 48.9352 59.434 46.9933 59.434 44.6513C59.434 42.1699 61.3505 40.1366 63.7838 39.9508C63.9037 39.9418 64.0251 39.9373 64.1479 39.9373C66.752 39.9373 68.8618 42.047 68.8618 44.6513C68.862 47.2556 66.7521 49.3653 64.148 49.3653Z" fill="#FEE6CC"/>
<path d="M59.434 44.6513C59.434 46.9933 61.1407 48.9352 63.3778 49.3023C63.0707 50.6778 62.5941 51.9904 61.9708 53.2146C58.1439 52.2452 55.3135 48.7778 55.3135 44.6513C55.3135 39.8953 59.073 36.016 63.7839 35.8257V39.9508C61.3505 40.1365 59.434 42.1699 59.434 44.6513Z" fill="#FCCE99"/>
<path d="M61.5029 34.5283V45.4356C61.5029 54.6964 54.0856 62.35 44.8248 62.4161C42.8613 62.4296 40.9747 62.1063 39.2206 61.5004C33.5258 59.5369 29.2167 54.5961 28.1565 48.5377C27.99 47.5902 27.9031 46.6144 27.9031 45.618V34.5283C27.9031 33.8587 28.4466 33.3163 29.1162 33.3163H60.2909C60.9606 33.3163 61.5029 33.8587 61.5029 34.5283Z" fill="#FEE6CC"/>
<path d="M39.9068 60.4384C39.7136 60.8085 39.4827 61.1636 39.2206 61.5008C33.5252 59.5364 29.2173 54.5961 28.1565 48.5381C28.5716 48.6895 28.9671 48.8888 29.3327 49.1331C30.2317 49.7339 30.9255 50.588 31.3721 51.6069C31.919 51.5215 32.4675 51.4766 33.0098 51.4766C36.8173 51.4766 39.8965 53.5893 40.4973 56.6131C40.7519 57.8882 40.5466 59.2112 39.9068 60.4384Z" fill="#FCCE99"/>
<path d="M61.5033 42.155V45.6177C61.5033 54.8958 53.9813 62.4163 44.7032 62.4163C35.4252 62.4163 27.9031 54.8959 27.9031 45.6177V42.155C27.9031 51.433 35.4251 58.955 44.7031 58.955C53.9812 58.955 61.5033 51.433 61.5033 42.155Z" fill="#FCCE99"/>
<path d="M58.1395 65.4565H31.2656V69.876H58.1395V65.4565Z" fill="#FCCE99"/>
<path d="M38.3429 57.9761C38.3001 58.462 38.1532 58.9407 37.9145 59.3986C37.1249 60.9105 35.3401 62.1762 33.0986 62.6218C29.7492 63.2865 26.646 61.8726 26.166 59.4597C26.1624 59.4389 26.1587 59.4193 26.1563 59.3986C25.7266 57.0078 28.0427 54.5484 31.3614 53.8886C34.2824 53.3096 37.0158 54.3097 37.9842 56.1754C38.1274 56.4496 38.2315 56.7422 38.2926 57.0506C38.3539 57.3591 38.3698 57.6688 38.3429 57.9761Z" fill="#E2780E"/>
<path d="M37.9141 59.3986C37.1245 60.9105 35.3398 62.1765 33.0983 62.6216C29.7494 63.2869 26.6462 61.8724 26.1667 59.46C26.1623 59.439 26.1593 59.4195 26.1562 59.3986H37.9141Z" fill="#A85000"/>
<path d="M33.0977 62.6212C29.7499 63.2867 26.6469 61.8717 26.1675 59.46C26.1032 59.1368 26.0889 58.8111 26.1228 58.4896C27.1089 60.3301 29.8251 61.3133 32.7232 60.7372C35.6213 60.1611 37.755 58.2139 37.9623 56.1362C38.1165 56.4203 38.2279 56.7267 38.292 57.05C38.7715 59.4616 36.4457 61.9557 33.0977 62.6212Z" fill="#A85000"/>
<path d="M38.3431 57.976L31.4841 59.3398C31.4241 59.352 31.3641 59.3569 31.3041 59.3569C30.8757 59.3569 30.4924 59.0545 30.4056 58.6175C30.3064 58.1205 30.6296 57.637 31.1266 57.539L37.9844 56.1752C38.1276 56.4494 38.2317 56.742 38.2928 57.0505C38.3541 57.359 38.37 57.6688 38.3431 57.976Z" fill="#A85000"/>
<path d="M28.35 58.6139C28.1639 58.8906 27.9656 59.1525 27.7575 59.3985C25.838 61.6608 23.0579 62.5128 21.2143 61.2788C20.5521 60.8369 20.0917 60.1808 19.8359 59.3985C19.3034 57.7667 19.6645 55.5865 20.9475 53.667C22.6025 51.1916 25.2431 49.9675 27.247 50.6017C27.5421 50.6935 27.8224 50.8269 28.0832 51.002C28.3452 51.177 28.5754 51.3852 28.7725 51.6226C30.1239 53.2312 30.0027 56.1385 28.35 58.6139Z" fill="#E2780E"/>
<path d="M27.7579 59.3986C25.8384 61.6611 23.0574 62.5122 21.2144 61.2791C20.5522 60.837 20.0921 60.1808 19.8359 59.3986H27.7579Z" fill="#A85000"/>
<path d="M28.3497 58.614C26.453 61.4519 23.2583 62.6454 21.2139 61.2791C20.9399 61.0958 20.6995 60.8758 20.4961 60.6245C22.4947 61.2286 25.1106 60.0032 26.7525 57.5466C28.3944 55.09 28.5263 52.2043 27.2036 50.5886C27.5135 50.6804 27.8089 50.8183 28.083 51.0015C30.1273 52.3678 30.2464 55.7762 28.3497 58.614Z" fill="#A85000"/>
<path d="M28.7723 51.6226L24.888 57.4338C24.7118 57.6994 24.4203 57.8427 24.1241 57.8427C23.949 57.8427 23.7715 57.7926 23.6148 57.6873C23.1937 57.4057 23.0798 56.8353 23.3614 56.4141L27.2469 50.6017C27.542 50.6935 27.8223 50.8269 28.0831 51.002C28.3451 51.1771 28.5752 51.3851 28.7723 51.6226Z" fill="#A85000"/>
<path d="M17.0173 62.6982C17.0173 63.275 17.4275 63.7703 17.9941 63.878L31.2177 66.3896H58.1889L71.4124 63.878C71.9791 63.7704 72.3892 63.275 72.3892 62.6982C72.3892 62.035 71.8516 61.4973 71.1883 61.4973H18.2181C17.555 61.4974 17.0173 62.035 17.0173 62.6982Z" fill="#FEE6CC"/>
<path d="M61.5024 36.0894H27.9026V37.9256H61.5024V36.0894Z" fill="#FCCE99"/>
<path d="M51.0294 13.5868C51.0294 11.4109 49.9279 9.4188 48.0828 8.2578C47.6537 7.98772 47.0866 8.11679 46.8167 8.54597C46.5467 8.97515 46.6757 9.54196 47.1048 9.81204C48.4123 10.6348 49.193 12.0459 49.193 13.5868C49.193 15.1277 48.4123 16.5389 47.1048 17.3615C46.5435 17.7136 46.5435 18.5625 47.1048 18.9158C48.4123 19.7386 49.193 21.1496 49.193 22.6906C49.193 24.2314 48.4123 25.6426 47.1048 26.4653C46.6756 26.7354 46.5467 27.3022 46.8167 27.7313C46.9912 28.0087 47.2896 28.1606 47.5946 28.1606C47.7618 28.1606 47.9309 28.115 48.0828 28.0195C49.9279 26.8586 51.0294 24.8664 51.0294 22.6906C51.0294 20.9424 50.3172 19.3138 49.0808 18.1387C50.3172 16.9635 51.0294 15.3351 51.0294 13.5868Z" fill="#FCCE99"/>
<path d="M54.5442 17.3617C54.1151 17.0916 53.5481 17.2205 53.2781 17.6497C53.008 18.0788 53.1371 18.6457 53.5663 18.9158C54.8737 19.7385 55.6544 21.1497 55.6544 22.6906C55.6544 24.2314 54.8737 25.6426 53.5663 26.4654C53.1371 26.7355 53.0082 27.3023 53.2781 27.7315C53.4525 28.0088 53.751 28.1608 54.056 28.1608C54.2232 28.1608 54.3923 28.1152 54.5442 28.0196C56.3891 26.8587 57.4907 24.8665 57.4907 22.6907C57.4907 20.5148 56.3891 18.5225 54.5442 17.3617Z" fill="#FCCE99"/>
<path d="M41.0923 17.3615C40.6633 17.0915 40.0961 17.2205 39.8263 17.6497C39.5562 18.0789 39.6852 18.6457 40.1143 18.9157C41.4219 19.7385 42.2025 21.1496 42.2025 22.6906C42.2025 24.2314 41.4219 25.6426 40.1143 26.4652C39.6851 26.7353 39.5562 27.3021 39.8263 27.7313C40.0007 28.0086 40.2991 28.1606 40.6042 28.1606C40.7713 28.1606 40.9405 28.115 41.0923 28.0195C42.9374 26.8586 44.0389 24.8664 44.0389 22.6906C44.0389 20.5146 42.9374 18.5225 41.0923 17.3615Z" fill="#FCCE99"/>
</svg>
