<svg width="90" height="90" viewBox="0 0 90 90" fill="none" xmlns="http://www.w3.org/2000/svg">
<path d="M45 90C69.8528 90 90 69.8528 90 45C90 20.1472 69.8528 0 45 0C20.1472 0 0 20.1472 0 45C0 69.8528 20.1472 90 45 90Z" fill="#F7F7F7"/>
<path d="M57.2321 59.5357L51.0356 59.9643L47.2856 20.5L56.6606 19.8571L57.2321 59.5357Z" fill="#F9B54C"/>
<path d="M46.2142 61L40.0356 61.4286L36.2856 21.9643L45.6606 21.3214L46.2142 61Z" fill="#F9B54C"/>
<path d="M57.1786 59.0178L51.2322 57.0357L59.6786 18.5357L68.6965 21.5178L57.1786 59.0178Z" fill="#FFD05B"/>
<path d="M32.7678 59.5357L38.9643 59.9643L42.7143 20.5L33.3393 19.8571L32.7678 59.5357Z" fill="#FFD05B"/>
<path d="M32.8213 59.0178L38.7678 57.0357L30.3213 18.5357L21.3035 21.5178L32.8213 59.0178Z" fill="#F9B54C"/>
<path d="M44.643 59.0178L38.6965 57.0357L48.5001 13.3571L57.518 16.3571L44.643 59.0178Z" fill="#FFD05B"/>
<path d="M65.0179 41.1607L62.0536 75.2321C61.9821 76.0178 61.3214 76.625 60.5357 76.625H29.4821C28.6964 76.625 28.0179 76.0178 27.9643 75.2321L25 41.1607H35.8929C35.8929 46.1964 39.9821 50.2857 45.0179 50.2857C47.5357 50.2857 49.8214 49.2678 51.4643 47.6071C53.125 45.9643 54.1429 43.6786 54.1429 41.1607H65.0179Z" fill="#FF7058"/>
<path d="M27.3215 68L27.9465 75.25C28.018 76.0357 28.6787 76.6429 29.4644 76.6429H60.518C61.3037 76.6429 61.9822 76.0357 62.0358 75.25L62.6608 68H27.3215Z" fill="#F1543F"/>
</svg>
