<svg width="91" height="90" viewBox="0 0 91 90" fill="none" xmlns="http://www.w3.org/2000/svg">
<path d="M45.5 90C70.3528 90 90.5 69.8528 90.5 45C90.5 20.1472 70.3528 0 45.5 0C20.6472 0 0.5 20.1472 0.5 45C0.5 69.8528 20.6472 90 45.5 90Z" fill="#F7F7F7"/>
<path d="M65.268 26H56.5715L57.4644 22.8928H64.3572L65.268 26Z" fill="#324A5E"/>
<path d="M34.4286 26H25.7322L26.6429 22.8929H33.5357L34.4286 26Z" fill="#324A5E"/>
<path d="M60.3928 24.6965C57.625 24.6965 55.0357 25.5536 52.9107 27.0179H38.1071C35.9821 25.5536 33.3928 24.6965 30.625 24.6965C23.2678 24.6965 17.1964 30.9108 17.3928 38.2679C17.4464 40.1429 17.875 41.9108 18.625 43.5179C21.0357 48.6786 22.4107 54.25 22.4107 59.9286C22.4107 63.6429 25.2321 66.8572 28.9464 67.0893C32.25 67.3036 35.2142 65.1965 36.125 62.0536L38.5714 53.5715C39.0714 53.8036 39.625 53.9286 40.2142 53.9286C42.4285 53.9286 44.2321 52.125 44.2321 49.9108C44.2321 49.3572 44.125 48.8215 43.9107 48.3393C44.4285 48.2143 44.9642 48.1608 45.5178 48.1608C46.0714 48.1608 46.6071 48.2322 47.125 48.3393C46.9107 48.8215 46.8035 49.3572 46.8035 49.9108C46.8035 52.125 48.6071 53.9286 50.8214 53.9286C51.4107 53.9286 51.9642 53.8036 52.4642 53.5715L54.9107 62.0536C55.8571 65.3215 59.0535 67.4822 62.5178 67.0536C66.0357 66.6072 68.625 63.5 68.625 59.9465V59.9286C68.625 54.2322 70.0178 48.6608 72.4107 43.5179C73.1607 41.9108 73.5892 40.1429 73.6428 38.2679C73.8035 30.9108 67.75 24.6965 60.3928 24.6965Z" fill="#E6E9EE"/>
<path d="M50.8036 52.2499C52.0857 52.2499 53.125 51.2106 53.125 49.9285C53.125 48.6464 52.0857 47.6071 50.8036 47.6071C49.5215 47.6071 48.4822 48.6464 48.4822 49.9285C48.4822 51.2106 49.5215 52.2499 50.8036 52.2499Z" fill="#324A5E"/>
<path d="M40.1964 52.25C41.4785 52.25 42.5179 51.2106 42.5179 49.9285C42.5179 48.6465 41.4785 47.6071 40.1964 47.6071C38.9143 47.6071 37.875 48.6465 37.875 49.9285C37.875 51.2106 38.9143 52.25 40.1964 52.25Z" fill="#324A5E"/>
<path d="M60.3929 48.8393C66.4187 48.8393 71.3036 43.9544 71.3036 37.9285C71.3036 31.9027 66.4187 27.0178 60.3929 27.0178C54.3671 27.0178 49.4822 31.9027 49.4822 37.9285C49.4822 43.9544 54.3671 48.8393 60.3929 48.8393Z" fill="#CED5E0"/>
<path d="M30.6072 48.8393C36.6331 48.8393 41.518 43.9544 41.518 37.9285C41.518 31.9027 36.6331 27.0178 30.6072 27.0178C24.5814 27.0178 19.6965 31.9027 19.6965 37.9285C19.6965 43.9544 24.5814 48.8393 30.6072 48.8393Z" fill="#CED5E0"/>
<path d="M60.3929 35.6785C61.7144 35.6785 62.7857 34.6072 62.7857 33.2857C62.7857 31.9641 61.7144 30.8928 60.3929 30.8928C59.0713 30.8928 58 31.9641 58 33.2857C58 34.6072 59.0713 35.6785 60.3929 35.6785Z" fill="#FF7058"/>
<path d="M60.3929 44.9642C61.7144 44.9642 62.7857 43.8929 62.7857 42.5714C62.7857 41.2498 61.7144 40.1785 60.3929 40.1785C59.0713 40.1785 58 41.2498 58 42.5714C58 43.8929 59.0713 44.9642 60.3929 44.9642Z" fill="#54C0EB"/>
<path d="M65.0179 40.3215C66.3394 40.3215 67.4107 39.2502 67.4107 37.9286C67.4107 36.6071 66.3394 35.5358 65.0179 35.5358C63.6963 35.5358 62.625 36.6071 62.625 37.9286C62.625 39.2502 63.6963 40.3215 65.0179 40.3215Z" fill="#4CDBC4"/>
<path d="M55.75 40.3215C57.0716 40.3215 58.1429 39.2502 58.1429 37.9286C58.1429 36.6071 57.0716 35.5358 55.75 35.5358C54.4285 35.5358 53.3572 36.6071 53.3572 37.9286C53.3572 39.2502 54.4285 40.3215 55.75 40.3215Z" fill="#FFD05B"/>
<path d="M36.9463 35.6965H33.9463C33.3392 35.6965 32.8392 35.1965 32.8392 34.5893V31.5893C32.8392 30.9822 32.3392 30.4822 31.732 30.4822H29.4999C28.8928 30.4822 28.3928 30.9822 28.3928 31.5893V34.5893C28.3928 35.1965 27.8928 35.6965 27.2856 35.6965H24.2856C23.6785 35.6965 23.1785 36.1965 23.1785 36.8036V39.0358C23.1785 39.6429 23.6785 40.1429 24.2856 40.1429H27.2856C27.8928 40.1429 28.3928 40.6429 28.3928 41.25V44.25C28.3928 44.8572 28.8928 45.3572 29.4999 45.3572H31.732C32.3392 45.3572 32.8392 44.8572 32.8392 44.25V41.25C32.8392 40.6429 33.3392 40.1429 33.9463 40.1429H36.9463C37.5535 40.1429 38.0535 39.6429 38.0535 39.0358V36.8036C38.0713 36.1965 37.5713 35.6965 36.9463 35.6965Z" fill="white"/>
<path d="M35.5891 36.8571V38.9999L37.0534 37.9285L35.5891 36.8571Z" fill="#ACB3BA"/>
<path d="M25.6428 38.9999V36.8571L24.1785 37.9285L25.6428 38.9999Z" fill="#ACB3BA"/>
<path d="M31.6785 42.9106H29.5356L30.6071 44.3571L31.6785 42.9106Z" fill="#ACB3BA"/>
<path d="M29.5356 32.9642H31.6785L30.6071 31.4999L29.5356 32.9642Z" fill="#ACB3BA"/>
<path d="M30.6071 39.7678C31.6229 39.7678 32.4464 38.9443 32.4464 37.9285C32.4464 36.9127 31.6229 36.0892 30.6071 36.0892C29.5913 36.0892 28.7678 36.9127 28.7678 37.9285C28.7678 38.9443 29.5913 39.7678 30.6071 39.7678Z" fill="#ACB3BA"/>
</svg>
