<svg width="90" height="90" viewBox="0 0 90 90" fill="none" xmlns="http://www.w3.org/2000/svg">
<path d="M45 90C69.8528 90 90 69.8528 90 45C90 20.1472 69.8528 0 45 0C20.1472 0 0 20.1472 0 45C0 69.8528 20.1472 90 45 90Z" fill="#F7F7F7"/>
<path d="M67.0713 72.8214C67.0713 72.8214 66.9463 72.2143 66.7677 71.1786C66.607 70.125 66.3392 68.625 66.107 66.8215C65.8749 65.0179 65.6249 62.9286 65.4106 60.6786C65.2856 59.5536 65.2142 58.3929 65.107 57.2143C64.9999 56.0357 64.9285 54.8393 64.8392 53.625C64.4999 48.8215 64.2677 44.0357 64.1963 40.4286C64.1606 38.625 64.1606 37.125 64.1427 36.0715C64.1606 35.0179 64.1606 34.4286 64.1606 34.4286V34.4107C64.1606 33.8393 63.6963 33.3929 63.1249 33.3929C62.5535 33.3929 62.107 33.8572 62.107 34.4286C62.107 34.4286 62.107 35.0357 62.1249 36.0715C62.107 37.125 62.107 38.625 62.0713 40.4286C61.9999 44.0357 61.7677 48.8215 61.4285 53.625C61.3392 54.8215 61.2677 56.0179 61.1606 57.2143C61.0535 58.3929 60.982 59.5536 60.857 60.6786C60.6427 62.9286 60.3927 65.0357 60.1606 66.8215C59.9285 68.625 59.6606 70.125 59.4999 71.1786C59.3392 72.2322 59.1963 72.8214 59.1963 72.8214C59.0892 73.3572 59.0713 73.9464 59.1963 74.5179C59.6606 76.6964 61.8035 78.0715 63.982 77.6072C66.1606 77.1429 67.5535 75 67.0713 72.8214Z" fill="#5577A0"/>
<path d="M70.607 28.1429C70.607 34.2143 67.2678 36.4286 63.1428 36.4286C59.0178 36.4286 55.6785 34.2143 55.6785 28.1429C55.6785 22.0714 59.0178 14.4286 63.1428 14.4286C67.2678 14.4286 70.607 22.0536 70.607 28.1429Z" fill="#A9E0D7"/>
<path d="M46.8393 72.8571C46.8393 72.8571 46.7143 72.2678 46.5536 71.2143C46.3928 70.1786 46.125 68.6786 45.8928 66.8929C45.6607 65.1071 45.4107 63.0179 45.1964 60.7857C45.0714 59.6607 45 58.5179 44.8928 57.3393C44.7857 56.1607 44.7143 54.9821 44.625 53.7857C44.2857 49.0179 44.0536 44.25 43.9821 40.6786C43.9464 38.8929 43.9464 37.4107 43.9286 36.3571C43.9464 35.3214 43.9464 34.7143 43.9464 34.7143V34.6964C43.9464 34.1429 43.4821 33.6786 42.9107 33.6964C42.3571 33.6964 41.8928 34.1607 41.9107 34.7321C41.9107 34.7321 41.9107 35.3214 41.9286 36.375C41.9107 37.4107 41.9107 38.9107 41.875 40.6964C41.8036 44.2678 41.5714 49.0357 41.2321 53.8036C41.1428 55 41.0714 56.1786 40.9643 57.3571C40.8571 58.5357 40.7857 59.6786 40.6607 60.8036C40.4464 63.0357 40.1964 65.125 39.9643 66.9107C39.7321 68.6964 39.4643 70.1786 39.3036 71.2321C39.1428 72.2678 39.0178 72.875 39.0178 72.875C38.9107 73.4107 38.8928 74 39.0178 74.5714C39.4821 76.7321 41.625 78.1071 43.7857 77.6428C45.9286 77.1607 47.3036 75.0179 46.8393 72.8571Z" fill="#5577A0"/>
<path d="M48.2856 14.4286C47.982 14.4286 47.7142 14.6786 47.7142 14.9822L47.0713 27.3036C47.0535 27.6964 46.732 27.9822 46.357 27.9822C45.9642 27.9822 45.6606 27.6786 45.6428 27.3036L44.9999 14.7679C44.9999 14.5893 44.8392 14.4286 44.6606 14.4286C44.482 14.4286 44.3213 14.5714 44.3213 14.7679L43.6785 27.2679C43.6606 27.625 43.3928 27.9464 43.0356 27.9822C42.607 28.0357 42.2499 27.7143 42.232 27.3036L41.5892 14.7679C41.5892 14.5893 41.4285 14.4286 41.2499 14.4286H41.232C41.0535 14.4286 40.8928 14.5714 40.8928 14.7679L40.2499 27.3036C40.232 27.6964 39.9106 27.9822 39.5356 27.9822C39.1428 27.9822 38.8392 27.6786 38.8213 27.3036L38.1963 14.9822C38.1785 14.6429 37.8749 14.375 37.5178 14.4464C37.232 14.5 37.0535 14.7679 37.0535 15.0357V31.8929C37.0535 32.2679 37.0892 32.6429 37.1606 33.0179C37.6606 35.7857 40.1606 37.75 42.982 37.75C45.8035 37.75 48.3213 35.7857 48.8035 33.0179C48.8749 32.6429 48.9106 32.2679 48.9106 31.8929V15.0179C48.857 14.6786 48.5892 14.4286 48.2856 14.4286Z" fill="#A9E0D7"/>
<path d="M29.6428 72.5179C29.6428 72.5179 29.5 71.875 29.3214 70.7679C29.1428 69.6429 28.8571 68.0536 28.625 66.1429C28.375 64.2322 28.1071 62 27.875 59.6071C27.75 58.4107 27.6607 57.1786 27.5535 55.9107C27.4464 54.6607 27.3571 53.375 27.2678 52.1071C26.8928 47 26.6607 41.8929 26.5893 38.0714C26.5535 36.1607 26.5535 34.5536 26.5357 33.4464C26.5535 32.3214 26.5535 31.6964 26.5535 31.6964V31.6786C26.5535 31.0714 26.0535 30.5893 25.4464 30.5893C24.8393 30.5893 24.3571 31.0893 24.3571 31.6964C24.3571 31.6964 24.3571 32.3393 24.375 33.4464C24.3571 34.5714 24.3571 36.1607 24.3214 38.0714C24.2321 41.8929 24 47 23.6428 52.1071C23.5535 53.375 23.4821 54.6607 23.3571 55.9107C23.25 57.1607 23.1607 58.4107 23.0357 59.6071C22.8035 62 22.5357 64.2322 22.2857 66.1429C22.0357 68.0536 21.7678 69.6607 21.5893 70.7679C21.4107 71.8929 21.2678 72.5179 21.2678 72.5179C21.1428 73.0893 21.1428 73.7143 21.2678 74.3214C21.7678 76.6429 24.0535 78.1072 26.375 77.6072C28.6785 77.1072 30.1428 74.8214 29.6428 72.5179Z" fill="#5577A0"/>
<path d="M23.3392 47.8572H27.4999V17C27.4999 15.5893 26.5178 14.4286 25.2856 14.4286C24.4106 14.4286 23.607 15.0179 23.2499 15.9643C21.6785 20.1429 17.7856 32.3393 20.1249 45.4464C20.1249 45.4464 23.1249 45.4643 23.3392 47.8572Z" fill="#A9E0D7"/>
<path d="M27.9822 47.8214H22.8929C22.8036 47.8214 22.7322 47.8928 22.7322 47.9821V49.8928C22.7322 49.9821 22.8036 50.0536 22.8929 50.0536H27.9822C28.0715 50.0536 28.1429 49.9821 28.1429 49.8928V47.9821C28.1607 47.9107 28.0715 47.8214 27.9822 47.8214Z" fill="#47F0D4"/>
</svg>
