<svg width="456" height="191" viewBox="0 0 456 191" fill="none" xmlns="http://www.w3.org/2000/svg">
<g opacity="0.11">
<path d="M0.783125 69V125H14.3831V113.16H19.6631C36.0631 113.16 44.7831 103.08 44.7831 91.08C44.7831 79.16 36.0631 69 19.6631 69H0.783125ZM14.3831 100.28V81.8H20.7031C26.4631 81.8 31.9031 84.92 31.9031 91.08C31.9031 97.56 26.4631 100.28 20.7031 100.28H14.3831Z" fill="#E7C76E"/>
<path d="M92.9531 125V85H84.7931L84.0731 88.92C81.0331 86.12 77.0331 84.44 72.2331 84.44C60.8731 84.44 53.0331 93.64 53.0331 105C53.0331 116.36 60.8731 125.48 72.2331 125.48C77.0331 125.48 81.0331 123.8 83.9931 121.08L84.7931 125H92.9531ZM73.5131 113.4C69.5931 113.4 65.5131 110.44 65.5131 105C65.5131 99.56 69.5931 96.52 73.5131 96.52C77.4331 96.52 81.5131 99.56 81.5131 105C81.5131 110.44 77.4331 113.4 73.5131 113.4ZM419.363 84.44C406.723 84.44 399.283 93.64 399.283 105C399.283 116.44 407.443 125.48 419.443 125.48C426.643 125.48 432.803 122.28 437.043 119.16L430.563 112.04C427.043 113.48 422.963 114.12 419.443 114.12C415.683 114.12 412.163 112.2 412.163 108.6H437.283C438.723 104.68 438.643 98.84 436.723 94.76C433.603 88.2 427.763 84.44 419.363 84.44ZM419.363 95.88C422.003 95.88 424.003 97 425.043 98.44C425.683 99.16 426.003 100.04 426.003 100.76H412.643C412.723 98.6 415.283 95.88 419.363 95.88Z" fill="#005C9A"/>
<path d="M132.3 96.52V84.44H130.22C123.18 84.44 118.46 87.96 115.66 92.52L114.22 85H105.98V125H118.46V106.44C118.46 100.12 121.82 96.52 127.26 96.52H132.3Z" fill="#DD9DA4"/>
<path d="M156.254 97.08H161.134V85H156.254V71.56H143.694V85H138.814V97.08H143.694V125H156.254V97.08Z" fill="#DF8453"/>
<path d="M210.18 85H197.7V103.32C197.7 109.64 194.98 111.88 190.5 111.88C186.18 111.88 183.46 109.8 183.46 103.56V85H170.98V104.28C170.98 115.72 176.66 123.96 188.5 123.96C192.18 123.96 195.3 123.08 197.62 121.4V122.68C197.62 127 194.02 128.92 189.86 128.92C185.78 128.92 182.58 127.96 178.9 126.44L171.86 133.96C176.1 137.56 182.26 140.28 189.86 140.28C202.26 140.28 210.18 131.24 210.18 119.8V85Z" fill="#59819B"/>
<path d="M290.109 125V112.12H266.909L289.309 77.16V69H250.029V81.8H270.669L248.189 116.84V125H290.109Z" fill="#ACCFCB"/>
<path d="M318.669 84.44C307.309 84.44 298.189 93.64 298.189 105C298.189 116.36 307.309 125.48 318.669 125.48C330.029 125.48 339.229 116.36 339.229 105C339.229 93.64 330.029 84.44 318.669 84.44ZM318.669 96.52C322.589 96.52 326.669 99.56 326.669 105C326.669 110.44 322.589 113.4 318.669 113.4C314.749 113.4 310.669 110.44 310.669 105C310.669 99.56 314.749 96.52 318.669 96.52Z" fill="#E08453"/>
<path d="M371.488 84.44C365.728 84.44 361.488 86.52 358.928 89.8L358.048 85H349.808V125H362.288V105.08C362.288 98.76 365.088 96.52 369.488 96.52C373.808 96.52 376.528 98.6 376.528 104.84V125H389.008V104.12C389.008 92.68 383.408 84.44 371.488 84.44Z" fill="#DD9DA2"/>
</g>
<path d="M7.08 65V121H20.68V109.16H25.96C42.36 109.16 51.08 99.08 51.08 87.08C51.08 75.16 42.36 65 25.96 65H7.08ZM20.68 96.28V77.8H27C32.76 77.8 38.2 80.92 38.2 87.08C38.2 93.56 32.76 96.28 27 96.28H20.68Z" fill="#E7C76E"/>
<path d="M99.25 121V81H91.09L90.37 84.92C87.33 82.12 83.33 80.44 78.53 80.44C67.17 80.44 59.33 89.64 59.33 101C59.33 112.36 67.17 121.48 78.53 121.48C83.33 121.48 87.33 119.8 90.29 117.08L91.09 121H99.25ZM79.81 109.4C75.89 109.4 71.81 106.44 71.81 101C71.81 95.56 75.89 92.52 79.81 92.52C83.73 92.52 87.81 95.56 87.81 101C87.81 106.44 83.73 109.4 79.81 109.4ZM425.66 80.44C413.02 80.44 405.58 89.64 405.58 101C405.58 112.44 413.74 121.48 425.74 121.48C432.94 121.48 439.1 118.28 443.34 115.16L436.86 108.04C433.34 109.48 429.26 110.12 425.74 110.12C421.98 110.12 418.46 108.2 418.46 104.6H443.58C445.02 100.68 444.94 94.84 443.02 90.76C439.9 84.2 434.06 80.44 425.66 80.44ZM425.66 91.88C428.3 91.88 430.3 93 431.34 94.44C431.98 95.16 432.3 96.04 432.3 96.76H418.94C419.02 94.6 421.58 91.88 425.66 91.88Z" fill="#005C9A"/>
<path d="M138.597 92.52V80.44H136.517C129.477 80.44 124.757 83.96 121.957 88.52L120.517 81H112.277V121H124.757V102.44C124.757 96.12 128.117 92.52 133.557 92.52H138.597Z" fill="#DD9DA4"/>
<path d="M162.551 93.08H167.431V81H162.551V67.56H149.991V81H145.111V93.08H149.991V121H162.551V93.08Z" fill="#DF8453"/>
<path d="M216.477 81H203.997V99.32C203.997 105.64 201.277 107.88 196.797 107.88C192.477 107.88 189.757 105.8 189.757 99.56V81H177.277V100.28C177.277 111.72 182.957 119.96 194.797 119.96C198.477 119.96 201.597 119.08 203.917 117.4V118.68C203.917 123 200.317 124.92 196.157 124.92C192.077 124.92 188.877 123.96 185.197 122.44L178.157 129.96C182.397 133.56 188.557 136.28 196.157 136.28C208.557 136.28 216.477 127.24 216.477 115.8V81Z" fill="#59819B"/>
<path d="M296.406 121V108.12H273.206L295.606 73.16V65H256.326V77.8H276.966L254.486 112.84V121H296.406Z" fill="#ACCFCB"/>
<path d="M324.966 80.44C313.606 80.44 304.486 89.64 304.486 101C304.486 112.36 313.606 121.48 324.966 121.48C336.326 121.48 345.526 112.36 345.526 101C345.526 89.64 336.326 80.44 324.966 80.44ZM324.966 92.52C328.886 92.52 332.966 95.56 332.966 101C332.966 106.44 328.886 109.4 324.966 109.4C321.046 109.4 316.966 106.44 316.966 101C316.966 95.56 321.046 92.52 324.966 92.52Z" fill="#E08453"/>
<path d="M377.785 80.44C372.025 80.44 367.785 82.52 365.225 85.8L364.345 81H356.105V121H368.585V101.08C368.585 94.76 371.385 92.52 375.785 92.52C380.105 92.52 382.825 94.6 382.825 100.84V121H395.305V100.12C395.305 88.68 389.705 80.44 377.785 80.44Z" fill="#DD9DA2"/>
<path d="M252.184 40.296C249.551 40.296 247.408 38.153 247.408 35.5187C247.408 32.8844 249.551 30.7413 252.184 30.7413C254.819 30.7413 256.962 32.8844 256.962 35.5187C256.962 38.153 254.819 40.296 252.184 40.296Z" fill="#30C9B0"/>
<path d="M257.888 35.5187C257.888 32.3735 255.33 29.8147 252.184 29.8147C249.04 29.8147 246.482 32.3734 246.482 35.5187C246.482 38.664 249.04 41.2227 252.184 41.2227C255.33 41.2225 257.888 38.6638 257.888 35.5187ZM252.185 38.5752C250.5 38.5752 249.129 37.204 249.129 35.5187C249.129 33.8334 250.5 32.4622 252.185 32.4622C253.87 32.4622 255.241 33.8334 255.241 35.5187C255.241 37.204 253.87 38.5752 252.185 38.5752Z" fill="black"/>
<path d="M286.88 52.995C288.583 52.995 288.586 50.3475 286.88 50.3475C285.176 50.3475 285.173 52.995 286.88 52.995Z" fill="black"/>
<path d="M290.999 50.5536C292.703 50.5536 292.705 47.9061 290.999 47.9061C289.296 47.9062 289.293 50.5536 290.999 50.5536Z" fill="black"/>
<path d="M291.12 52.789C289.417 52.789 289.414 55.4365 291.12 55.4365C292.824 55.4365 292.827 52.789 291.12 52.789Z" fill="black"/>
<path d="M96.8911 145.707L102.126 140.471L107.361 145.707L102.126 150.941L96.8911 145.707Z" fill="#45CCFF"/>
<path d="M102.125 139.709C101.774 139.709 101.438 139.848 101.189 140.097L96.5164 144.771C95.9996 145.288 95.9998 146.126 96.5166 146.643L101.189 151.316C101.448 151.574 101.787 151.703 102.125 151.703C102.464 151.703 102.803 151.574 103.061 151.316L107.735 146.643C107.984 146.395 108.123 146.058 108.123 145.707C108.123 145.356 107.984 145.019 107.736 144.771L103.061 140.097C102.813 139.848 102.476 139.709 102.125 139.709ZM102.126 148.508L99.3246 145.707L102.126 142.905L104.927 145.707L102.126 148.508Z" fill="black"/>
<path d="M126.88 161.089C128.583 161.089 128.586 158.441 126.88 158.441C125.176 158.441 125.173 161.089 126.88 161.089Z" fill="black"/>
<path d="M130.999 158.648C132.703 158.648 132.705 156 130.999 156C129.296 156 129.293 158.648 130.999 158.648Z" fill="black"/>
<path d="M131.12 160.883C129.417 160.883 129.414 163.53 131.12 163.53C132.824 163.53 132.827 160.883 131.12 160.883Z" fill="black"/>
<path d="M80.5805 178.558C82.284 178.558 82.2868 175.91 80.5805 175.91C78.877 175.91 78.8741 178.558 80.5805 178.558Z" fill="black"/>
<path d="M84.6998 176.116C86.4034 176.116 86.4061 173.469 84.6998 173.469C82.9963 173.469 82.9935 176.116 84.6998 176.116Z" fill="black"/>
<path d="M84.8209 178.352C83.1174 178.352 83.1146 180.999 84.8209 180.999C86.5245 180.999 86.5272 178.352 84.8209 178.352Z" fill="black"/>
<path d="M449.422 77.6759C449.374 78.6892 449.919 79.757 451.063 79.7327C453.069 79.6903 453.86 77.1862 453.047 75.6273C452.851 75.25 452.588 74.9387 452.28 74.6903C452.978 74.1431 453.833 73.8023 454.729 73.7808C455.501 73.7622 455.504 72.5606 454.729 72.5792C453.377 72.6117 452.105 73.1853 451.137 74.0987C450.177 73.8122 449.079 73.9082 448.183 74.3459C445.976 75.4239 445.184 77.9477 445.02 80.224C444.997 80.548 445.313 80.8247 445.621 80.8247C445.965 80.8247 446.198 80.5489 446.222 80.224C446.335 78.6469 446.755 77.0018 447.981 75.9166C448.606 75.3636 449.458 75.0482 450.272 75.1282C450.261 75.1451 450.249 75.1617 450.238 75.1787C449.761 75.9197 449.464 76.7938 449.422 77.6759ZM451.48 75.6023C452.34 76.2632 452.493 77.7896 451.498 78.388C451.306 78.5033 450.996 78.6207 450.801 78.4566C450.619 78.304 450.617 77.9776 450.621 77.7582C450.634 77.1138 450.86 76.4768 451.188 75.9277C451.262 75.803 451.343 75.6822 451.429 75.5654C451.446 75.5777 451.463 75.5894 451.48 75.6023Z" fill="black"/>
<path d="M283.765 135.003L289 129.768L294.235 135.003L289 140.238L283.765 135.003Z" fill="#45CCFF"/>
<path d="M288.999 129.005C288.648 129.005 288.312 129.145 288.063 129.393L283.39 134.067C282.874 134.584 282.874 135.422 283.391 135.94L288.064 140.612C288.322 140.871 288.661 141 288.999 141C289.338 141 289.677 140.871 289.935 140.612L294.609 135.94C294.858 135.691 294.997 135.355 294.997 135.004C294.997 134.653 294.858 134.316 294.61 134.068L289.935 129.393C289.687 129.145 289.35 129.005 288.999 129.005ZM289 137.804L286.199 135.003L289 132.202L291.801 135.003L289 137.804Z" fill="black"/>
<path d="M313.481 181.205C315.184 181.205 315.187 178.558 313.481 178.558C311.777 178.558 311.774 181.205 313.481 181.205Z" fill="black"/>
<path d="M317.6 178.764C319.304 178.764 319.307 176.116 317.6 176.116C315.897 176.116 315.894 178.764 317.6 178.764Z" fill="black"/>
<path d="M317.721 180.999C316.018 180.999 316.015 183.647 317.721 183.647C319.425 183.647 319.428 180.999 317.721 180.999Z" fill="black"/>
<path d="M334.703 156.48C332.069 156.48 329.927 154.337 329.927 151.704C329.927 149.07 332.069 146.927 334.703 146.927C337.337 146.927 339.48 149.07 339.48 151.704C339.48 154.338 337.337 156.48 334.703 156.48Z" fill="#FFABCD"/>
<path d="M334.703 157.407C337.848 157.407 340.407 154.848 340.407 151.704C340.407 148.559 337.848 146 334.703 146C331.558 146 329 148.559 329 151.704C329 154.848 331.558 157.407 334.703 157.407ZM334.703 148.648C336.388 148.648 337.759 150.019 337.759 151.704C337.759 153.389 336.388 154.759 334.703 154.759C333.018 154.759 331.648 153.389 331.648 151.704C331.647 150.019 333.018 148.648 334.703 148.648Z" fill="black"/>
<path d="M372.473 158.182C374.708 158.218 377.021 156.943 376.889 154.425C376.657 150.012 371.087 148.441 367.71 150.34C366.893 150.799 366.226 151.4 365.7 152.094C364.447 150.596 363.637 148.735 363.528 146.764C363.433 145.066 360.787 145.143 360.881 146.848C361.047 149.822 362.398 152.584 364.476 154.653C363.912 156.788 364.199 159.199 365.225 161.142C367.751 165.926 373.364 167.496 378.388 167.7C379.104 167.729 379.691 167.014 379.67 166.335C379.646 165.577 379.023 165.083 378.305 165.054C374.824 164.913 371.172 164.102 368.698 161.477C367.437 160.139 366.683 158.284 366.803 156.487C366.841 156.51 366.879 156.534 366.917 156.557C368.582 157.556 370.527 158.15 372.473 158.182ZM367.764 153.793C369.16 151.854 372.511 151.411 373.897 153.561C374.164 153.975 374.444 154.65 374.097 155.092C373.773 155.503 373.054 155.53 372.571 155.536C371.151 155.553 369.732 155.099 368.501 154.415C368.221 154.26 367.949 154.09 367.686 153.908C367.712 153.869 367.737 153.831 367.764 153.793Z" fill="black"/>
<path d="M266.633 177.254C267.966 175.815 269.662 174.795 271.119 173.498C272.743 172.052 273.928 170.297 274.148 168.095C274.218 167.384 273.527 166.757 272.852 166.743C272.089 166.728 271.571 167.325 271.5 168.039C271.303 170.021 269.574 171.416 268.112 172.559C266.489 173.826 264.797 175.022 263.664 176.784C260.964 180.984 263.383 185.741 265.72 189.447C266.625 190.882 268.935 189.586 268.023 188.139C265.99 184.917 263.503 180.635 266.633 177.254Z" fill="black"/>
<path d="M54.546 45.0733C51.9124 45.0733 49.77 42.9303 49.77 40.296C49.77 37.6617 51.9126 35.5187 54.546 35.5187C57.1803 35.5187 59.3234 37.6617 59.3234 40.296C59.3234 42.9303 57.1803 45.0733 54.546 45.0733Z" fill="#30C9B0"/>
<path d="M60.2499 40.296C60.2499 37.1509 57.6912 34.592 54.5459 34.592C51.4015 34.592 48.8433 37.1507 48.8433 40.296C48.8433 43.4413 51.4013 46 54.5459 46C57.6912 45.9999 60.2499 43.4412 60.2499 40.296ZM54.5461 43.3525C52.8614 43.3525 51.4909 41.9813 51.4909 40.296C51.4909 38.6107 52.8616 37.2395 54.5461 37.2395C56.2313 37.2395 57.6026 38.6107 57.6026 40.296C57.6026 41.9813 56.2314 43.3525 54.5461 43.3525Z" fill="black"/>
<path d="M94.3335 34.5927L99.5679 29.3568L104.804 34.5927L99.5679 39.8268L94.3335 34.5927Z" fill="#45CCFF"/>
<path d="M99.5677 28.5947C99.2167 28.5947 98.88 28.7343 98.6317 28.9826L93.9588 33.6567C93.442 34.1737 93.4422 35.0117 93.9589 35.5288L98.6319 40.2016C98.8904 40.4601 99.2292 40.5893 99.5678 40.5893C99.9066 40.5893 100.245 40.4601 100.504 40.2017L105.178 35.5289C105.426 35.2808 105.566 34.9439 105.566 34.5928C105.566 34.2418 105.426 33.905 105.178 33.6568L100.504 28.9827C100.256 28.7343 99.9188 28.5947 99.5677 28.5947ZM99.568 37.3935L96.767 34.5925L99.568 31.7908L102.37 34.5925L99.568 37.3935Z" fill="black"/>
<path d="M123.481 26.8626C125.184 26.8626 125.187 24.2151 123.481 24.2151C121.777 24.2151 121.774 26.8626 123.481 26.8626Z" fill="black"/>
<path d="M127.6 24.4211C129.304 24.4211 129.307 21.7736 127.6 21.7736C125.897 21.7737 125.894 24.4211 127.6 24.4211Z" fill="black"/>
<path d="M127.721 26.6565C126.018 26.6565 126.015 29.304 127.721 29.304C129.425 29.304 129.428 26.6565 127.721 26.6565Z" fill="black"/>
<path d="M100.847 55.6426C102.551 55.6426 102.554 52.9951 100.847 52.9951C99.1438 52.9951 99.1409 55.6426 100.847 55.6426Z" fill="black"/>
<path d="M104.967 53.2011C106.67 53.2011 106.673 50.5536 104.967 50.5536C103.263 50.5537 103.26 53.2011 104.967 53.2011Z" fill="black"/>
<path d="M105.088 55.4365C103.384 55.4365 103.381 58.084 105.088 58.084C106.791 58.084 106.794 55.4365 105.088 55.4365Z" fill="black"/>
<path d="M74.5241 11.4486C71.8905 11.4486 69.748 9.30611 69.748 6.67263C69.748 4.03836 71.8906 1.89529 74.5241 1.89529C77.1583 1.89529 79.3014 4.03836 79.3014 6.67263C79.3013 9.30624 77.1583 11.4486 74.5241 11.4486Z" fill="#FFABCD"/>
<path d="M74.5242 12.3753C77.6694 12.3753 80.2282 9.81712 80.2282 6.67263C80.2282 3.52748 77.6695 0.968628 74.5242 0.968628C71.3797 0.968628 68.8215 3.52735 68.8215 6.67263C68.8214 9.81712 71.3797 12.3753 74.5242 12.3753ZM74.5242 3.61615C76.2094 3.61615 77.5807 4.98732 77.5807 6.67263C77.5807 8.35728 76.2095 9.72779 74.5242 9.72779C72.8396 9.72779 71.469 8.35715 71.469 6.67263C71.4689 4.98732 72.8396 3.61615 74.5242 3.61615Z" fill="black"/>
<path d="M72.8909 60.2301C72.7843 62.4629 73.9862 64.8154 76.5069 64.762C80.925 64.6685 82.6697 59.1513 80.8784 55.7164C80.4449 54.8851 79.8655 54.1992 79.1876 53.6519C80.7248 52.4462 82.6098 51.6955 84.5831 51.648C86.2839 51.6071 86.2902 48.9595 84.5831 49.0005C81.6051 49.0721 78.8017 50.3358 76.6685 52.3484C74.5528 51.7172 72.1338 51.9287 70.1597 52.8931C65.2984 55.2682 63.5528 60.8291 63.1914 65.8444C63.1399 66.5583 63.8366 67.1681 64.5151 67.1681C65.2743 67.1681 65.7873 66.5604 65.8388 65.8444C66.0892 62.3695 67.014 58.7448 69.7153 56.354C71.0921 55.1353 72.9705 54.4406 74.7628 54.6167C74.7383 54.654 74.713 54.6906 74.6889 54.7281C73.6379 56.3608 72.9837 58.2866 72.8909 60.2301ZM77.4249 55.6613C79.3196 57.1176 79.657 60.4807 77.4647 61.7992C77.0423 62.0532 76.359 62.3119 75.9278 61.9503C75.527 61.6141 75.5224 60.8948 75.5318 60.4115C75.5599 58.9916 76.0579 57.5881 76.7804 56.3782C76.9443 56.1036 77.1227 55.8374 77.3129 55.5801C77.3503 55.6071 77.3881 55.633 77.4249 55.6613Z" fill="black"/>
<path d="M173.427 49.2497C174.76 47.8106 176.455 46.7912 177.913 45.4935C179.537 44.0476 180.722 42.2925 180.941 40.0913C181.012 39.3798 180.321 38.7531 179.646 38.7392C178.883 38.7236 178.365 39.3206 178.294 40.0346C178.096 42.0173 176.368 43.4119 174.906 44.5544C173.283 45.8222 171.591 47.0178 170.458 48.78C167.758 52.9796 170.176 57.7366 172.514 61.4432C173.419 62.8781 175.729 61.5819 174.817 60.135C172.784 56.9125 170.296 52.6308 173.427 49.2497Z" fill="black"/>
<path d="M151.367 20.4697C150.034 19.0307 148.338 18.0112 146.881 16.7135C145.257 15.2676 144.072 13.5126 143.852 11.3113C143.782 10.5998 144.473 9.97314 145.148 9.95924C145.911 9.9436 146.429 10.5406 146.5 11.2547C146.697 13.2373 148.426 14.632 149.888 15.7744C151.511 17.0422 153.203 18.2379 154.336 20C157.036 24.1997 154.617 28.9566 152.28 32.6633C151.375 34.0981 149.065 32.802 149.977 31.3551C152.01 28.1325 154.497 23.8508 151.367 20.4697Z" fill="black"/>
</svg>
