<svg width="90" height="95" viewBox="0 0 90 95" fill="none" xmlns="http://www.w3.org/2000/svg">
<path d="M45 94.793C69.8528 94.793 90 74.6458 90 49.793C90 24.9402 69.8528 4.79297 45 4.79297C20.1472 4.79297 0 24.9402 0 49.793C0 74.6458 20.1472 94.793 45 94.793Z" fill="#F7F7F7"/>
<path d="M41.9975 75.9709C41.5734 84.7091 39.125 88.6867 39.125 88.6867H44.9999H50.8746C50.8746 88.6867 48.4399 84.7276 48.0058 76.0443C47.9563 75.0539 47.1455 74.2728 46.1538 74.2728H43.7717C42.8214 74.2728 42.0435 75.0219 41.9975 75.9709Z" fill="#CECCCA"/>
<path d="M41.9975 75.9709C41.5734 84.7091 39.125 88.6867 39.125 88.6867H44.9999H50.8746C50.8746 88.6867 48.4399 84.7276 48.0058 76.0443C47.9563 75.0539 47.1455 74.2728 46.1538 74.2728H43.7717C42.8214 74.2728 42.0435 75.0219 41.9975 75.9709Z" fill="#DDDDDD"/>
<path d="M46.1538 74.2728H43.7717C42.8216 74.2728 42.0435 75.0219 41.9975 75.9709C41.5734 84.7091 39.125 88.6867 39.125 88.6867H44.9999H45.1326C45.1326 88.6867 47.5729 84.7209 48.0027 76.0117C47.9371 75.0371 47.1344 74.2728 46.1538 74.2728Z" fill="#CECCCA"/>
<path d="M53.9293 88.2581H36.0703C34.4463 88.2581 33.1174 89.5868 33.1174 91.2109V93.2043C36.9031 94.2379 40.8865 94.793 44.9999 94.793C49.1134 94.793 53.0966 94.2379 56.8822 93.2041V91.2108C56.8822 89.5868 55.5535 88.2581 53.9293 88.2581Z" fill="#FAC149"/>
<path d="M43.0953 91.2108C43.0953 89.5868 44.424 88.2579 46.0481 88.2579H36.0703C34.4463 88.2579 33.1174 89.5866 33.1174 91.2108V93.2041C36.3157 94.0775 39.6555 94.6077 43.0953 94.7516V91.2108Z" fill="#F8A748"/>
<path d="M44.9999 75.91C44.0956 75.91 43.3628 75.177 43.3628 74.2729V66.8289C43.3628 65.9248 44.0956 65.1918 44.9999 65.1918C45.9042 65.1918 46.637 65.9248 46.637 66.8289V74.2729C46.637 75.177 45.9042 75.91 44.9999 75.91Z" fill="#CECCCA"/>
<path d="M45 66.829C37.1035 66.829 30.6428 60.3684 30.6428 52.4718V30.4929C30.6428 22.5964 37.1035 16.1357 45 16.1357C52.8963 16.1357 59.3572 22.5964 59.3572 30.4929V52.4718C59.3572 60.3682 52.8963 66.829 45 66.829Z" fill="#FAC149"/>
<path d="M36.6916 52.4718V30.4929C36.6916 23.6335 41.5678 17.8602 48.0244 16.4615C47.0482 16.2499 46.0369 16.1357 45 16.1357C37.1035 16.1357 30.6428 22.5966 30.6428 30.4929V52.4718C30.6428 60.3682 37.1037 66.829 45 66.829C46.0369 66.829 47.0482 66.7148 48.0244 66.5034C41.5678 65.1045 36.6916 59.3312 36.6916 52.4718Z" fill="#F8A748"/>
<path d="M44.9998 75.9099C33.0719 75.9099 23.0811 66.9779 21.76 55.1333C21.5082 52.8709 23.2975 50.8885 25.5797 50.8885H33.1174C34.0216 50.8885 34.7545 51.6215 34.7545 52.5256C34.7545 53.4297 34.0216 54.1627 33.1174 54.1627H25.5797C25.2532 54.1627 24.9771 54.4411 25.0141 54.7706C26.1499 64.9552 34.7417 72.6355 44.9997 72.6355C55.2576 72.6355 63.8498 64.9552 64.9854 54.7704C65.0224 54.4417 64.7471 54.1625 64.4198 54.1625H56.8821C55.9779 54.1625 55.245 53.4295 55.245 52.5254C55.245 51.6213 55.9779 50.8883 56.8821 50.8883H64.4198C66.7055 50.8883 68.4912 52.8739 68.2395 55.1331C66.9189 66.9779 56.928 75.9099 44.9998 75.9099Z" fill="#A8DDF3"/>
<path d="M37.3833 32.13H30.7121C29.8078 32.13 29.075 31.397 29.075 30.4929C29.075 29.5888 29.8078 28.8558 30.7121 28.8558H37.3833C38.2876 28.8558 39.0204 29.5888 39.0204 30.4929C39.0204 31.397 38.2876 32.13 37.3833 32.13Z" fill="#F38D1A"/>
<path d="M37.3833 39.4742H30.7121C29.8078 39.4742 29.075 38.7412 29.075 37.8371C29.075 36.933 29.8078 36.2 30.7121 36.2H37.3833C38.2876 36.2 39.0204 36.933 39.0204 37.8371C39.0204 38.7412 38.2876 39.4742 37.3833 39.4742Z" fill="#F38D1A"/>
<path d="M37.3833 46.8186H30.7121C29.8078 46.8186 29.075 46.0856 29.075 45.1815C29.075 44.2774 29.8078 43.5444 30.7121 43.5444H37.3833C38.2876 43.5444 39.0204 44.2774 39.0204 45.1815C39.0204 46.0856 38.2876 46.8186 37.3833 46.8186Z" fill="#F38D1A"/>
<path d="M37.3833 54.1628H30.7121C29.8078 54.1628 29.075 53.4298 29.075 52.5256C29.075 51.6215 29.8078 50.8885 30.7121 50.8885H37.3833C38.2876 50.8885 39.0204 51.6215 39.0204 52.5256C39.0204 53.4299 38.2876 54.1628 37.3833 54.1628Z" fill="#F38D1A"/>
<path d="M59.3572 32.13H52.6859C51.7816 32.13 51.0488 31.397 51.0488 30.4929C51.0488 29.5888 51.7816 28.8558 52.6859 28.8558H59.3572C60.2615 28.8558 60.9943 29.5888 60.9943 30.4929C60.9943 31.397 60.2615 32.13 59.3572 32.13Z" fill="#F38D1A"/>
<path d="M59.3572 39.4742H52.6859C51.7816 39.4742 51.0488 38.7412 51.0488 37.8371C51.0488 36.933 51.7816 36.2 52.6859 36.2H59.3572C60.2615 36.2 60.9943 36.933 60.9943 37.8371C60.9943 38.7412 60.2615 39.4742 59.3572 39.4742Z" fill="#F38D1A"/>
<path d="M59.3572 46.8186H52.6859C51.7816 46.8186 51.0488 46.0856 51.0488 45.1815C51.0488 44.2774 51.7816 43.5444 52.6859 43.5444H59.3572C60.2615 43.5444 60.9943 44.2774 60.9943 45.1815C60.9943 46.0856 60.2615 46.8186 59.3572 46.8186Z" fill="#F38D1A"/>
<path d="M59.3572 54.1628H52.6859C51.7816 54.1628 51.0488 53.4298 51.0488 52.5256C51.0488 51.6215 51.7816 50.8885 52.6859 50.8885H59.3572C60.2615 50.8885 60.9943 51.6215 60.9943 52.5256C60.9943 53.4299 60.2615 54.1628 59.3572 54.1628Z" fill="#F38D1A"/>
<path d="M44.9999 43.1188C44.1065 43.1188 43.3628 42.3965 43.3628 41.4817C43.3628 40.7456 43.8637 40.0475 44.6789 39.8773C44.8909 39.8359 45.1091 39.8359 45.3208 39.8773C46.1133 40.0427 46.6372 40.7226 46.6372 41.4817C46.637 42.3875 45.9016 43.1188 44.9999 43.1188Z" fill="#F38D1A"/>
<path d="M22.6634 31.7335H16.7291C15.8249 31.7335 15.092 31.0005 15.092 30.0964C15.092 29.1923 15.8249 28.4593 16.7291 28.4593H22.6634C23.5677 28.4593 24.3005 29.1923 24.3005 30.0964C24.3005 31.0007 23.5677 31.7335 22.6634 31.7335Z" fill="#FAC149"/>
<path d="M73.2709 31.7335H67.3363C66.432 31.7335 65.6992 31.0005 65.6992 30.0964C65.6992 29.1923 66.432 28.4593 67.3363 28.4593H73.2709C74.1752 28.4593 74.908 29.1923 74.908 30.0964C74.908 31.0007 74.1752 31.7335 73.2709 31.7335Z" fill="#FAC149"/>
<path d="M19.099 45.0506C18.6469 44.2675 18.9152 43.2662 19.6983 42.8143L24.8378 39.847C25.6203 39.3948 26.622 39.6631 27.0741 40.4462C27.5262 41.2293 27.2578 42.2306 26.4749 42.6825L21.3354 45.6498C20.5591 46.0983 19.5551 45.8401 19.099 45.0506Z" fill="#FAC149"/>
<path d="M62.9264 19.7468C62.4743 18.9639 62.7427 17.9624 63.5256 17.5105L68.6649 14.5434C69.4476 14.0912 70.4489 14.3593 70.9013 15.1426C71.3534 15.9255 71.0851 16.9269 70.302 17.3789L65.1627 20.346C64.3846 20.7954 63.3813 20.5347 62.9264 19.7468Z" fill="#FAC149"/>
<path d="M55.3496 12.1701C54.5667 11.7179 54.2982 10.7166 54.7504 9.93374L57.7177 4.79442C58.1693 4.01134 59.1709 3.74286 59.954 4.19519C60.7369 4.64734 61.0054 5.64863 60.5532 6.43152L57.5859 11.5708C57.1317 12.3578 56.1288 12.6202 55.3496 12.1701Z" fill="#FAC149"/>
<path d="M45.0001 9.39703C44.0959 9.39703 43.363 8.66402 43.363 7.75992V1.82552C43.363 0.921416 44.0959 0.188416 45.0001 0.188416C45.9044 0.188416 46.6372 0.921416 46.6372 1.82552V7.75992C46.6372 8.66421 45.9044 9.39703 45.0001 9.39703Z" fill="#FAC149"/>
<path d="M32.414 11.5709L29.4469 6.43156C28.9948 5.64849 29.2632 4.64719 30.0461 4.19523C30.8288 3.74291 31.8305 4.0112 32.2825 4.79446L35.2496 9.93378C35.7017 10.7169 35.4334 11.7181 34.6503 12.1701C33.8726 12.6195 32.8687 12.3591 32.414 11.5709Z" fill="#FAC149"/>
<path d="M68.6647 45.6497L63.5254 42.6824C62.7425 42.2302 62.474 41.2289 62.9261 40.446C63.3777 39.6628 64.3798 39.3943 65.1625 39.8468L70.3018 42.8141C71.0847 43.2662 71.3532 44.2675 70.901 45.0504C70.4468 45.8374 69.4437 46.0999 68.6647 45.6497Z" fill="#FAC149"/>
<path d="M24.8375 20.3461L19.698 17.379C18.9151 16.927 18.6466 15.9257 19.0988 15.1426C19.5507 14.3596 20.5516 14.0909 21.3351 14.5434L26.4746 17.5105C27.2575 17.9625 27.526 18.9638 27.0738 19.7469C26.622 20.5294 25.6211 20.7984 24.8375 20.3461Z" fill="#FAC149"/>
</svg>
