<svg width="90" height="90" viewBox="0 0 90 90" fill="none" xmlns="http://www.w3.org/2000/svg">
<path d="M45 90C69.8528 90 90 69.8528 90 45C90 20.1472 69.8528 0 45 0C20.1472 0 0 20.1472 0 45C0 69.8528 20.1472 90 45 90Z" fill="#F7F7F7"/>
<path d="M54.496 23.1732C53.6456 23.1732 52.8661 23.4567 52.2992 24.0236V16.2992C52.2992 15.3071 51.4488 14.4567 50.4567 14.4567H42.874C43.3701 15.0236 43.7244 15.8031 43.7244 16.6535C43.7244 18.496 42.2362 20.0551 40.3228 20.0551C38.4803 20.0551 36.9212 18.5669 36.9212 16.6535C36.9212 15.8031 37.2047 15.0236 37.7716 14.4567H30.189C29.1968 14.4567 28.3464 15.3071 28.3464 16.2992V24.0236C28.9134 23.5275 29.6929 23.1732 30.5433 23.1732C32.3858 23.1732 33.9449 24.6614 33.9449 26.5748C33.9449 28.4173 32.4567 29.9763 30.5433 29.9763C29.6929 29.9763 28.9134 29.6929 28.3464 29.126V36.496C28.3464 37.4882 29.1968 38.3386 30.189 38.3386H37.7716C37.2756 38.9055 36.9212 39.685 36.9212 40.5354C36.9212 42.3779 38.4094 43.937 40.3228 43.937C42.1653 43.937 43.7244 42.4488 43.7244 40.5354C43.7244 39.685 43.4409 38.9055 42.874 38.3386H50.4567C51.4488 38.3386 52.2992 37.4882 52.2992 36.496V29.126C52.8661 29.622 53.6456 29.9763 54.496 29.9763C56.3386 29.9763 57.8976 28.4882 57.8976 26.5748C57.8976 24.7323 56.3386 23.1732 54.496 23.1732Z" fill="#F38D1A"/>
<path d="M76.8897 52.937C76.2519 52.3701 75.4723 52.0158 74.6928 52.0158L80.0786 46.4173C80.7873 45.7087 80.7873 44.504 80.0078 43.8662L74.5511 38.6221C74.4802 39.4016 74.1967 40.1811 73.6298 40.7481C72.3542 42.0945 70.2282 42.0945 68.8818 40.8189C67.5353 39.5433 67.5353 37.4173 68.8109 36.0709C69.3778 35.4331 70.1574 35.1496 70.9369 35.0788L65.5511 29.6929C64.8424 28.9843 63.6377 28.9843 62.9999 29.7638L57.6141 35.3622C58.3936 35.4331 59.1731 35.7166 59.8109 36.2835C61.1574 37.5591 61.1574 39.6851 59.8818 41.0315C58.6062 42.378 56.4802 42.378 55.1338 41.1024C54.496 40.5355 54.2125 39.7559 54.1416 38.9764L48.8267 44.2914C48.118 45 48.118 46.2047 48.8975 46.8425L54.3542 52.0866C53.5747 52.1575 52.7952 52.5118 52.2282 53.0788C50.9526 54.4252 50.9527 56.5512 52.2991 57.8268C53.6456 59.1024 55.7715 59.1024 57.0471 57.7559C57.6141 57.1181 57.9684 56.4095 57.9684 55.5591L63.4251 60.8032C64.1338 61.5118 65.3385 61.5118 65.9763 60.7323L71.1495 55.4173C71.2204 56.1969 71.5747 56.9764 72.1416 57.5433C73.4881 58.8189 75.6141 58.8189 76.8897 57.4725C78.2361 56.3386 78.2361 54.2126 76.8897 52.937Z" fill="#A8E5FF"/>
<path d="M43.2285 64.559C42.5907 63.9921 41.8111 63.6378 41.0316 63.6378L46.4174 58.0393C47.1261 57.3307 47.1261 56.126 46.3466 55.4882L40.8899 50.2441C40.819 51.0236 40.5355 51.8031 39.9686 52.3701C38.693 53.7165 36.567 53.7165 35.2206 52.4409C33.8741 51.1653 33.8741 49.0394 35.1497 47.6929C35.7166 47.0551 36.4962 46.7716 37.2757 46.7008L31.819 41.4567C31.1103 40.748 29.9056 40.748 29.2678 41.5275L23.882 47.126C24.6615 47.1968 25.4411 47.4803 26.0789 48.0472C27.4253 49.3228 27.4253 51.4488 26.1497 52.7953C24.8741 54.1417 22.7481 54.1417 21.4017 52.8661C20.7639 52.2992 20.4804 51.5197 20.4096 50.7401L15.2363 56.0551C14.5277 56.7638 14.5277 57.9685 15.3072 58.6063L20.7639 63.8504C19.9844 63.9212 19.2048 64.2756 18.6379 64.8425C17.3623 66.189 17.3623 68.3149 18.7088 69.5905C20.0552 70.8661 22.1812 70.8661 23.4568 69.5197C24.0237 68.8819 24.3781 68.1732 24.3781 67.3228L29.8348 72.5669C30.5434 73.2756 31.7481 73.2756 32.3859 72.496L37.5592 67.1811C37.63 67.9606 37.9844 68.7401 38.5513 69.3071C39.8978 70.5827 42.0237 70.5827 43.2993 69.2362C44.5749 68.0315 44.5749 65.8346 43.2285 64.559Z" fill="#FF7058"/>
</svg>
