<svg width="90" height="90" viewBox="0 0 90 90" fill="none" xmlns="http://www.w3.org/2000/svg">
<circle cx="45" cy="45" r="45" fill="#F7F7F7"/>
<path d="M67.6665 26.8334H49.1614C46.8632 26.8334 45.0002 28.6964 45.0002 30.9946L38.739 34.9604V44.5802L45.0002 50.3023H71.8277V30.9946C71.8277 28.6965 69.9647 26.8334 67.6665 26.8334Z" fill="#EFEDEE"/>
<path d="M48.7795 30.9946C48.7795 29.5723 48.4016 28.2373 47.744 27.0813C46.1438 27.6612 45.0002 29.1942 45.0002 30.9946L38.739 34.9604V44.5802L45.0002 50.3023H48.7795V30.9946Z" fill="#D2D2D2"/>
<path d="M40.8389 26.8334H22.3338C20.0357 26.8334 18.1726 28.6964 18.1726 30.9946V50.3024H45.0001V30.9946C45.0001 28.6965 43.1372 26.8334 40.8389 26.8334Z" fill="#EFEDEE"/>
<path d="M26.1131 26.8334H22.3338C20.0357 26.8334 18.1726 28.6965 18.1726 30.9946V50.3024H21.9519V30.9946C21.9519 28.6965 23.8151 26.8334 26.1131 26.8334Z" fill="#D2D2D2"/>
<path d="M23.7722 52.2927L21.2409 54.5318L19.7318 58.5906C19.2978 59.758 20.1611 61.0001 21.4066 61.0001H22.9267C23.4865 61.0001 24.0139 60.7377 24.3517 60.2912L28.7083 54.5317L23.7722 52.2927Z" fill="#AD4F3D"/>
<path d="M66.228 52.2927L68.7593 54.5317L70.2684 58.5904C70.7024 59.7579 69.8391 61 68.5936 61H67.0735C66.5137 61 65.9861 60.7376 65.6485 60.2911L61.2917 54.5317L66.228 52.2927Z" fill="#AD4F3D"/>
<path d="M39.8245 39.6875H23.1483L19.9141 41.8437V50.3025H43.6318L45.0002 47.1516V44.8631C45.0001 42.0047 42.6828 39.6875 39.8245 39.6875Z" fill="#FD6F71"/>
<path d="M50.1756 39.6875H66.8517L70.086 41.8437V50.3025H46.3684L45 47.1516V44.8631C45 42.0047 47.3172 39.6875 50.1756 39.6875Z" fill="#E34B4C"/>
<path d="M74.0539 36.7021H69.1037C67.86 36.7021 66.8519 37.7104 66.8519 38.9539V47.1516H23.1483V38.9539C23.1483 37.7102 22.14 36.7021 20.8965 36.7021H15.9463C14.7026 36.7021 13.6943 37.7102 13.6943 38.9539V48.8193C13.6943 51.9743 16.2519 54.5318 19.4068 54.5318H70.5934C73.7483 54.5318 76.3059 51.9743 76.3059 48.8193V38.9539C76.3057 37.7102 75.2975 36.7021 74.0539 36.7021Z" fill="#C86D5C"/>
</svg>
