<svg width="90" height="90" viewBox="0 0 90 90" fill="none" xmlns="http://www.w3.org/2000/svg">
<circle cx="45" cy="45" r="45" fill="#F7F7F7"/>
<path d="M65.52 35.9379H72V42.4179H65.52V35.9379Z" fill="#5A6570"/>
<path d="M18 35.9379H24.48V42.4179H18V35.9379Z" fill="#5A6570"/>
<path d="M28.8 75.8978V36.2164C28.8 31.9318 30.4975 27.8217 33.5207 24.7857C39.8339 18.4458 50.091 18.4242 56.4309 24.7372C56.4471 24.7533 56.4632 24.7695 56.4794 24.7857C59.5026 27.8217 61.2001 31.9318 61.2001 36.2164V75.8978H28.8Z" fill="#F4D8C3"/>
<path d="M61.2001 75.8979H28.8V36.2165C28.8 31.9319 30.4975 27.8218 33.5207 24.7858L34.1903 41.3594C34.8416 57.4782 45.7135 71.3806 61.2001 75.8979Z" fill="#CFAD9A"/>
<path d="M41.76 15.4178H48.24V28.3778H41.76V15.4178Z" fill="#5A6570"/>
<path d="M65.0211 49.9778H50.7241C47.4024 47.2311 42.5978 47.2311 39.2761 49.9778H24.9791C21.4334 43.2143 21.4334 35.1413 24.9791 28.3778H65.0211C68.5668 35.1413 68.5668 43.2143 65.0211 49.9778Z" fill="#D1E3EE"/>
<path d="M65.021 46.7379H50.7239C47.4023 43.9912 42.5976 43.9912 39.2759 46.7379H24.9789C23.4828 43.8926 22.5998 40.7653 22.3869 37.5579C22.078 41.8584 22.9758 46.1598 24.9789 49.9779H39.2759C42.5976 47.2312 47.4023 47.2312 50.7239 49.9779H65.021C67.026 46.1603 67.9256 41.859 67.6184 37.5579C67.4039 40.7657 66.5189 43.8931 65.021 46.7379Z" fill="#A9BFD1"/>
<path d="M36.3599 41.3378C38.1493 41.3378 39.5999 39.8872 39.5999 38.0978C39.5999 36.3084 38.1493 34.8578 36.3599 34.8578C34.5705 34.8578 33.1199 36.3084 33.1199 38.0978C33.1199 39.8872 34.5705 41.3378 36.3599 41.3378Z" fill="#A9BFD1"/>
<path d="M34.0693 40.3885C35.3564 41.6316 37.4076 41.5959 38.6507 40.3088C39.8634 39.0532 39.8634 37.0626 38.6507 35.8071L34.0693 40.3885Z" fill="#364E5E"/>
<path d="M53.6399 41.3378C55.4293 41.3378 56.8799 39.8872 56.8799 38.0978C56.8799 36.3084 55.4293 34.8578 53.6399 34.8578C51.8505 34.8578 50.3999 36.3084 50.3999 38.0978C50.3999 39.8872 51.8505 41.3378 53.6399 41.3378Z" fill="#A9BFD1"/>
<path d="M51.3494 40.3885C52.6365 41.6316 54.6876 41.5959 55.9307 40.3088C57.1434 39.0532 57.1434 37.0626 55.9307 35.8071L51.3494 40.3885Z" fill="#364E5E"/>
<path d="M53.6401 39.1778C54.2365 39.1778 54.7201 38.6943 54.7201 38.0978C54.7201 37.5014 54.2365 37.0178 53.6401 37.0178C53.0436 37.0178 52.5601 37.5014 52.5601 38.0978C52.5601 38.6943 53.0436 39.1778 53.6401 39.1778Z" fill="white"/>
<path d="M36.36 39.1778C36.9565 39.1778 37.44 38.6943 37.44 38.0978C37.44 37.5014 36.9565 37.0178 36.36 37.0178C35.7636 37.0178 35.28 37.5014 35.28 38.0978C35.28 38.6943 35.7636 39.1778 36.36 39.1778Z" fill="white"/>
</svg>
