<svg width="90" height="90" viewBox="0 0 90 90" fill="none" xmlns="http://www.w3.org/2000/svg">
<circle cx="45" cy="45" r="45" fill="#F7F7F7"/>
<path d="M68.75 15.8334C68.0595 15.8334 67.5 16.393 67.5 17.0834C67.5 24.6652 61.3317 30.8334 53.75 30.8334H46.25V33.3334H53.75C62.7103 33.3334 70 26.0437 70 17.0834C70 16.393 69.4405 15.8334 68.75 15.8334Z" fill="#FF4128"/>
<path d="M23.75 30.8334C23.0607 30.8334 22.5 30.2727 22.5 29.5834H20C20 31.6512 21.6822 33.3334 23.75 33.3334H26.25L30 32L33.75 33.3334H46.25V30.8334H23.75Z" fill="#FF6337"/>
<path d="M40.0001 48.7501V81.5154L35.8551 82.8971C35.2001 83.1154 34.8463 83.8232 35.0644 84.4782C35.2828 85.1332 35.9909 85.4872 36.6456 85.2689L41.6453 83.6022C42.1556 83.4321 42.4999 82.9544 42.4999 82.4164V48.7501H40.0001Z" fill="#FFA754"/>
<path d="M52.5001 48.7501V81.5154L56.6451 82.8971C57.3001 83.1154 57.6539 83.8232 57.4357 84.4782C57.2174 85.1332 56.5092 85.4872 55.8546 85.2689L50.8549 83.6022C50.3446 83.4321 50.0002 82.9544 50.0002 82.4164V48.7501H52.5001Z" fill="#E18F4E"/>
<path d="M50.4167 28.7501H45.4167V46.2501H53.7501V32.0834C53.7501 30.2424 52.2577 28.7501 50.4167 28.7501Z" fill="#FF4128"/>
<path d="M45.4167 28.7501H42.0833C40.2423 28.7501 38.75 30.2424 38.75 32.0834V46.2501H48.75V32.0834C48.75 30.2424 47.2577 28.7501 45.4167 28.7501Z" fill="#FF6337"/>
<path d="M51.5447 16.25V21.4597C52.114 22.8057 53.4467 23.75 55 23.75C57.071 23.75 58.75 22.071 58.75 20C58.75 17.929 57.071 16.25 55 16.25H51.5447Z" fill="#60312C"/>
<path d="M48.5987 13.6746L46.25 23.7501C50.3922 23.7501 53.75 20.3922 53.75 16.2501L48.5987 13.6746Z" fill="#E18F4E"/>
<path d="M48.75 16.2501C48.75 15.3452 48.6965 14.4777 48.5987 13.6746L41.7495 10.2502C39.9283 11.6187 38.75 13.7967 38.75 16.2501C38.75 20.3922 42.1078 23.7501 46.25 23.7501C47.6307 23.7501 48.75 20.3922 48.75 16.2501Z" fill="#FFA754"/>
<path d="M46.25 8.75L48.7332 15.3887C50.302 15.9455 51.9903 16.25 53.75 16.25C53.75 12.1078 50.3922 8.75 46.25 8.75Z" fill="#40211D"/>
<path d="M46.25 8.75C44.5613 8.75 43.0032 9.30833 41.7495 10.2503C43.5048 12.587 45.9272 14.393 48.733 15.3888C48.5907 11.6525 47.5335 8.75 46.25 8.75Z" fill="#60312C"/>
<path d="M38.75 43.7501C37.1952 45.5126 36.25 47.8257 36.25 50.3609C36.25 50.7229 36.2693 51.0806 36.3068 51.4326L38.75 73.7501H43.75V51.2501H53.75L48.75 43.7501H38.75Z" fill="#49C9FF"/>
<path d="M53.75 43.7501H48.75V73.7501H53.75L56.1932 51.4326C56.2307 51.0804 56.25 50.7229 56.25 50.3609C56.25 47.8257 55.3048 45.5126 53.75 43.7501Z" fill="#2DADE3"/>
<path d="M33.75 27.0834V33.3334H26.25V27.0834L30 24.5834L33.75 27.0834Z" fill="#116F97"/>
<path d="M33.75 16.25H26.25V27.0833H33.75V16.25Z" fill="#B9D171"/>
<path d="M21.25 30.8334C20.5597 30.8334 20 30.2737 20 29.5834C20 27.5155 21.6822 25.8334 23.75 25.8334H26.25C26.9403 25.8334 27.5 26.393 27.5 27.0834C27.5 27.7737 26.9403 28.3334 26.25 28.3334H23.75C23.0607 28.3334 22.5 28.894 22.5 29.5834C22.5 30.2737 21.9403 30.8334 21.25 30.8334Z" fill="#FF6337"/>
<path d="M21.25 17.5001C20.5597 17.5001 20 16.9404 20 16.2501C20 12.8037 22.8037 10.0001 26.25 10.0001C26.9403 10.0001 27.5 10.5597 27.5 11.2501C27.5 11.9404 26.9403 12.5001 26.25 12.5001C24.1822 12.5001 22.5 14.1822 22.5 16.2501C22.5 16.9404 21.9403 17.5001 21.25 17.5001Z" fill="#A8E5FF"/>
<path d="M11.25 17.5C10.5597 17.5 10 16.9403 10 16.25C10 7.28967 17.2897 0 26.25 0C26.9403 0 27.5 0.559667 27.5 1.25C27.5 1.94033 26.9403 2.5 26.25 2.5C18.6682 2.5 12.5 8.66817 12.5 16.25C12.5 16.9403 11.9403 17.5 11.25 17.5Z" fill="#A8E5FF"/>
<path d="M16.25 17.5C15.5597 17.5 15 16.9403 15 16.25C15 10.0467 20.0467 5 26.25 5C26.9403 5 27.5 5.55967 27.5 6.25C27.5 6.94033 26.9403 7.5 26.25 7.5C21.4252 7.5 17.5 11.4252 17.5 16.25C17.5 16.9403 16.9403 17.5 16.25 17.5Z" fill="#A8E5FF"/>
</svg>
