<svg xmlns="http://www.w3.org/2000/svg" width="54" height="71" viewBox="0 0 54 71"><g><g><path fill="#d73cac" d="M30.043 33.208v1.2c0 1.73-1.365 3.137-3.043 3.137-1.678 0-3.044-1.407-3.044-3.137v-1.2c0-.575.452-1.04 1.01-1.04.557 0 1.009.465 1.009 1.04v1.2c0 .583.46 1.057 1.025 1.057s1.025-.474 1.025-1.057v-1.2c0-.575.451-1.04 1.009-1.04.557 0 1.01.465 1.01 1.04zm9.105-3.113a6.174 6.174 0 0 1-8.103 0 1.062 1.062 0 0 1-.127-1.465.988.988 0 0 1 1.422-.13 4.201 4.201 0 0 0 5.513 0 .988.988 0 0 1 1.421.13c.358.44.302 1.097-.126 1.465zm-16.193 0a6.21 6.21 0 0 1-4.052 1.517 6.21 6.21 0 0 1-4.052-1.517 1.062 1.062 0 0 1-.126-1.465.988.988 0 0 1 1.421-.13 4.201 4.201 0 0 0 5.513 0 .988.988 0 0 1 1.422.13c.357.44.301 1.097-.126 1.465zm6.632 11.666v1.094c0 1.432-1.13 2.597-2.52 2.597-1.39 0-2.52-1.165-2.52-2.597V41.76c0-1.432 1.13-2.597 2.52-2.597 1.39 0 2.52 1.165 2.52 2.597zm-2.019 0a.51.51 0 0 0-.501-.517.51.51 0 0 0-.502.517v1.094a.51.51 0 0 0 .502.517.51.51 0 0 0 .501-.517zM53.83 66.685C54.412 68.857 52.828 71 50.643 71H39.806c-.558 0-1.01-.466-1.01-1.04 0-.575.452-1.04 1.01-1.04h3.516v-5.094c0-.575.451-1.04 1.009-1.04.557 0 1.009.465 1.009 1.04v5.094h5.303c.852 0 1.468-.836 1.242-1.681l-1.574-5.872a6.176 6.176 0 0 0-2.98-3.811c-3.696-2.02-8.375-3.602-12.404-4.567.026 1.248-.015 2.192-.746 3.237-1.31 1.875-3.047 3.728-4.943 5.124a3.759 3.759 0 0 1-4.477 0c-2.487-1.83-4.728-4.58-5.266-5.669a4.19 4.19 0 0 1-.423-1.83v-.862c-2.36.567-7.78 2.04-12.404 4.567a6.177 6.177 0 0 0-2.98 3.811l-1.574 5.872c-.227.846.39 1.68 1.242 1.68h5.303v-5.093c0-.575.452-1.04 1.01-1.04.557 0 1.009.465 1.009 1.04v5.094h24.419c.557 0 1.009.465 1.009 1.04 0 .574-.452 1.04-1.01 1.04H3.357c-1.042 0-2-.49-2.63-1.344a3.465 3.465 0 0 1-.557-2.971l1.573-5.872c.583-2.174 2.034-4.03 3.98-5.095a38.54 38.54 0 0 1 2.315-1.162c-3.493-8.254-6.362-19.49-5.709-28.423-1.03-2.268-2.45-3.707-2.32-6.438l.076-1.61a1.024 1.024 0 0 1 1.057-.987c.556.028.986.516.958 1.09l-.076 1.608c-.093 1.967.946 2.916 2.22 5.615l1.758 3.352c.268.511.879.719 1.39.474.568-.274.844-.941.636-1.556-1.8-5.57-2.61-6.525-1.862-8.256l.766-2.33c.441-1.335 2.307-1.847 3.401-.704 1.153 1.18 2.055 2.318 3.995 3.413.531.288 1.052.554 1.652.296.207-.09.392-.243.526-.479-.004.014.288-.414.094-.846-.144-.304-.427-.485-.494-.546-.713-.492-3.123-2.26-4.158-4.35-.54-1.091-.207-1.331-.86-2.465-.846-1.47-.61.68-.61-8.71a.623.623 0 0 0-.605-.624H4.329a.312.312 0 0 0-.307.316v5.687c0 2.377-1.586 2.518-1.686 5.112-.023.574-.494 1.02-1.049.998-.557-.023-.99-.507-.968-1.081a7.073 7.073 0 0 1 1.334-3.885c.602-.832.247-1.392.35-6.83C2.004 1.074 3.048 0 4.33 0h5.543c1.447 0 2.624 1.213 2.624 2.704v2.539C18.577.277 26.346-1.167 33.412.927c.536.159.845.735.691 1.287a1.005 1.005 0 0 1-1.248.712C25.92.871 18.22 2.55 12.495 7.976v1.865c.486.687.885 1.528 1.036 2.377.368 2.08 3.559 4.108 4.113 4.626a19.12 19.12 0 0 0 3.453-4.473 1.282 1.282 0 0 1 2.092-.253c3.434 3.833 8.584 7.24 13.176 9.336-1.34-1.252-1.586-3.474.354-4.916 1.193-.866 2.82-2.16 3.536-3.606.31-.626.184-1.584 1.249-3.091V7.976a22.12 22.12 0 0 0-4.453-3.282 1.056 1.056 0 0 1-.409-1.409.994.994 0 0 1 1.368-.42 23.884 23.884 0 0 1 3.494 2.38v-2.54C41.504 1.212 42.68 0 44.127 0h5.543c1.282 0 2.325 1.075 2.325 2.396v5.687c0 .424.125.83.35 1.144a7.071 7.071 0 0 1 1.334 3.868l.313 6.6c.13 2.73-1.289 4.168-2.321 6.438.654 8.935-2.219 20.176-5.709 28.423.778.36 1.555.747 2.314 1.162 1.948 1.065 3.399 2.922 3.98 5.095zM37.416 19.47c.357.788 1.161.874 1.811.568.083-.039 2.03-.966 3.69-2.862.027-.032-.008.007.75-.785 1.021-1.067 2.752-.743 3.36.598.03.066.802 2.422.807 2.436a3.46 3.46 0 0 1 .098 2.475l-1.96 5.781a1.269 1.269 0 0 0 .636 1.556c.51.245 1.12.037 1.39-.474l3.453-6.586c.383-.73.564-1.552.525-2.38-.227-4.786-.287-6.15-.3-6.475 0 .038 0 .047-.01-.092-.194-2.886-1.69-2.708-1.69-5.147V2.396a.312.312 0 0 0-.306-.316h-5.543a.623.623 0 0 0-.605.624v7.491c0 .755-.78.924-1.091 2.511-.43 2.196-2.734 4.282-4.537 5.523-.054.074-.64.882-.478 1.24zm8.611 1.743c.185-.546-.047-.945-.089-1.071l-.753-2.293c-.09-.087-.219.196-.786.738-1.9 2.163-4.09 3.229-4.334 3.343a3.545 3.545 0 0 1-1.768.35c4.293 1.716 6.19 1.795 6.64 2.146zM8.66 23.245c.06-.313-.298-1.732.926-2.28.252-.112.819-.118 2.035-.491-1.9-1.464-2.647-2.78-2.808-2.625l-.754 2.293c-.274.83-.28.498.601 3.103zm10.411 27.61V49.67a18.391 18.391 0 0 1-5.057-3.56c-6.54-6.488-5.18-14.145-5.355-15.232-1.59 1.076-3.562.454-4.4-1.063.186 7.078 2.3 16.059 5.636 23.932 3.899-1.599 7.574-2.528 9.176-2.894zm13.837-.369a18.736 18.736 0 0 1-11.819 0c0 3.606-.076 3.71.229 4.297.56 1.076 3.265 4.045 4.737 4.957a1.789 1.789 0 0 0 2.009-.082c1.509-1.112 2.894-2.53 4.038-4.044.992-1.311.806-.907.806-5.128zm10.413-17.199l-.001-7.206c-8.68-2.168-16.52-7.127-20.962-11.839a21.504 21.504 0 0 1-3.695 4.458 3.255 3.255 0 0 1-4.848 3.173 15.615 15.615 0 0 1-3.137.978l-.001 10.436c0 8.9 7.26 15.883 15.93 16.07h.037c8.847.281 16.676-6.839 16.677-16.07zm.781 20.46c3.337-7.873 5.45-16.854 5.636-23.932-.851 1.538-2.832 2.127-4.4 1.064-.176 1.093 1.19 8.74-5.355 15.231a18.386 18.386 0 0 1-5.057 3.561v1.183c1.592.362 5.266 1.288 9.176 2.893z"/><path fill="#336051" d="M30.043 33.208v1.2c0 1.73-1.365 3.137-3.043 3.137-1.678 0-3.044-1.407-3.044-3.137v-1.2c0-.575.452-1.04 1.01-1.04.557 0 1.009.465 1.009 1.04v1.2c0 .583.46 1.057 1.025 1.057s1.025-.474 1.025-1.057v-1.2c0-.575.451-1.04 1.009-1.04.557 0 1.01.465 1.01 1.04zm9.105-3.113a6.174 6.174 0 0 1-8.103 0 1.062 1.062 0 0 1-.127-1.465.988.988 0 0 1 1.422-.13 4.201 4.201 0 0 0 5.513 0 .988.988 0 0 1 1.421.13c.358.44.302 1.097-.126 1.465zm-16.193 0a6.21 6.21 0 0 1-4.052 1.517 6.21 6.21 0 0 1-4.052-1.517 1.062 1.062 0 0 1-.126-1.465.988.988 0 0 1 1.421-.13 4.201 4.201 0 0 0 5.513 0 .988.988 0 0 1 1.422.13c.357.44.301 1.097-.126 1.465zm6.632 11.666v1.094c0 1.432-1.13 2.597-2.52 2.597-1.39 0-2.52-1.165-2.52-2.597V41.76c0-1.432 1.13-2.597 2.52-2.597 1.39 0 2.52 1.165 2.52 2.597zm-2.019 0a.51.51 0 0 0-.501-.517.51.51 0 0 0-.502.517v1.094a.51.51 0 0 0 .502.517.51.51 0 0 0 .501-.517zM53.83 66.685C54.412 68.857 52.828 71 50.643 71H39.806c-.558 0-1.01-.466-1.01-1.04 0-.575.452-1.04 1.01-1.04h3.516v-5.094c0-.575.451-1.04 1.009-1.04.557 0 1.009.465 1.009 1.04v5.094h5.303c.852 0 1.468-.836 1.242-1.681l-1.574-5.872a6.176 6.176 0 0 0-2.98-3.811c-3.696-2.02-8.375-3.602-12.404-4.567.026 1.248-.015 2.192-.746 3.237-1.31 1.875-3.047 3.728-4.943 5.124a3.759 3.759 0 0 1-4.477 0c-2.487-1.83-4.728-4.58-5.266-5.669a4.19 4.19 0 0 1-.423-1.83v-.862c-2.36.567-7.78 2.04-12.404 4.567a6.177 6.177 0 0 0-2.98 3.811l-1.574 5.872c-.227.846.39 1.68 1.242 1.68h5.303v-5.093c0-.575.452-1.04 1.01-1.04.557 0 1.009.465 1.009 1.04v5.094h24.419c.557 0 1.009.465 1.009 1.04 0 .574-.452 1.04-1.01 1.04H3.357c-1.042 0-2-.49-2.63-1.344a3.465 3.465 0 0 1-.557-2.971l1.573-5.872c.583-2.174 2.034-4.03 3.98-5.095a38.54 38.54 0 0 1 2.315-1.162c-3.493-8.254-6.362-19.49-5.709-28.423-1.03-2.268-2.45-3.707-2.32-6.438l.076-1.61a1.024 1.024 0 0 1 1.057-.987c.556.028.986.516.958 1.09l-.076 1.608c-.093 1.967.946 2.916 2.22 5.615l1.758 3.352c.268.511.879.719 1.39.474.568-.274.844-.941.636-1.556-1.8-5.57-2.61-6.525-1.862-8.256l.766-2.33c.441-1.335 2.307-1.847 3.401-.704 1.153 1.18 2.055 2.318 3.995 3.413.531.288 1.052.554 1.652.296.207-.09.392-.243.526-.479-.004.014.288-.414.094-.846-.144-.304-.427-.485-.494-.546-.713-.492-3.123-2.26-4.158-4.35-.54-1.091-.207-1.331-.86-2.465-.846-1.47-.61.68-.61-8.71a.623.623 0 0 0-.605-.624H4.329a.312.312 0 0 0-.307.316v5.687c0 2.377-1.586 2.518-1.686 5.112-.023.574-.494 1.02-1.049.998-.557-.023-.99-.507-.968-1.081a7.073 7.073 0 0 1 1.334-3.885c.602-.832.247-1.392.35-6.83C2.004 1.074 3.048 0 4.33 0h5.543c1.447 0 2.624 1.213 2.624 2.704v2.539C18.577.277 26.346-1.167 33.412.927c.536.159.845.735.691 1.287a1.005 1.005 0 0 1-1.248.712C25.92.871 18.22 2.55 12.495 7.976v1.865c.486.687.885 1.528 1.036 2.377.368 2.08 3.559 4.108 4.113 4.626a19.12 19.12 0 0 0 3.453-4.473 1.282 1.282 0 0 1 2.092-.253c3.434 3.833 8.584 7.24 13.176 9.336-1.34-1.252-1.586-3.474.354-4.916 1.193-.866 2.82-2.16 3.536-3.606.31-.626.184-1.584 1.249-3.091V7.976a22.12 22.12 0 0 0-4.453-3.282 1.056 1.056 0 0 1-.409-1.409.994.994 0 0 1 1.368-.42 23.884 23.884 0 0 1 3.494 2.38v-2.54C41.504 1.212 42.68 0 44.127 0h5.543c1.282 0 2.325 1.075 2.325 2.396v5.687c0 .424.125.83.35 1.144a7.071 7.071 0 0 1 1.334 3.868l.313 6.6c.13 2.73-1.289 4.168-2.321 6.438.654 8.935-2.219 20.176-5.709 28.423.778.36 1.555.747 2.314 1.162 1.948 1.065 3.399 2.922 3.98 5.095zM37.416 19.47c.357.788 1.161.874 1.811.568.083-.039 2.03-.966 3.69-2.862.027-.032-.008.007.75-.785 1.021-1.067 2.752-.743 3.36.598.03.066.802 2.422.807 2.436a3.46 3.46 0 0 1 .098 2.475l-1.96 5.781a1.269 1.269 0 0 0 .636 1.556c.51.245 1.12.037 1.39-.474l3.453-6.586c.383-.73.564-1.552.525-2.38-.227-4.786-.287-6.15-.3-6.475 0 .038 0 .047-.01-.092-.194-2.886-1.69-2.708-1.69-5.147V2.396a.312.312 0 0 0-.306-.316h-5.543a.623.623 0 0 0-.605.624v7.491c0 .755-.78.924-1.091 2.511-.43 2.196-2.734 4.282-4.537 5.523-.054.074-.64.882-.478 1.24zm8.611 1.743c.185-.546-.047-.945-.089-1.071l-.753-2.293c-.09-.087-.219.196-.786.738-1.9 2.163-4.09 3.229-4.334 3.343a3.545 3.545 0 0 1-1.768.35c4.293 1.716 6.19 1.795 6.64 2.146zM8.66 23.245c.06-.313-.298-1.732.926-2.28.252-.112.819-.118 2.035-.491-1.9-1.464-2.647-2.78-2.808-2.625l-.754 2.293c-.274.83-.28.498.601 3.103zm10.411 27.61V49.67a18.391 18.391 0 0 1-5.057-3.56c-6.54-6.488-5.18-14.145-5.355-15.232-1.59 1.076-3.562.454-4.4-1.063.186 7.078 2.3 16.059 5.636 23.932 3.899-1.599 7.574-2.528 9.176-2.894zm13.837-.369a18.736 18.736 0 0 1-11.819 0c0 3.606-.076 3.71.229 4.297.56 1.076 3.265 4.045 4.737 4.957a1.789 1.789 0 0 0 2.009-.082c1.509-1.112 2.894-2.53 4.038-4.044.992-1.311.806-.907.806-5.128zm10.413-17.199l-.001-7.206c-8.68-2.168-16.52-7.127-20.962-11.839a21.504 21.504 0 0 1-3.695 4.458 3.255 3.255 0 0 1-4.848 3.173 15.615 15.615 0 0 1-3.137.978l-.001 10.436c0 8.9 7.26 15.883 15.93 16.07h.037c8.847.281 16.676-6.839 16.677-16.07zm.781 20.46c3.337-7.873 5.45-16.854 5.636-23.932-.851 1.538-2.832 2.127-4.4 1.064-.176 1.093 1.19 8.74-5.355 15.231a18.386 18.386 0 0 1-5.057 3.561v1.183c1.592.362 5.266 1.288 9.176 2.893z"/></g></g></svg>