<svg xmlns="http://www.w3.org/2000/svg" width="73" height="73" viewBox="0 0 73 73"><g><g><path fill="#d73cac" d="M73 66.524A6.484 6.484 0 0 1 66.524 73H0V48.034l8.98 7.858c2.477 2.17 6.348 2.357 9.025.446l.406-.29a22.636 22.636 0 0 1 13.234-4.242c3.351 0 6.721.759 9.748 2.191l12.662 5.998c.44.21.89.403 1.342.585l-7.304-13.795a6.037 6.037 0 0 0-5.35-3.22 3.892 3.892 0 0 1-3.235-6.048 10.107 10.107 0 0 0 1.702-5.62v-5.716a2.636 2.636 0 0 1 2.632-2.633c1.003 0 1.905.558 2.354 1.454l3.25 6.59a27.862 27.862 0 0 0 2.737-5.831l1.727-5.181a2.543 2.543 0 0 1 2.415-1.741 2.549 2.549 0 0 1 2.546 2.545v8.094a31.793 31.793 0 0 0 2.82 13.099l7.619 16.868 2.394 3.194A6.51 6.51 0 0 1 73 66.524zm-55.339-7.32a9.57 9.57 0 0 1-3.888.844 9.63 9.63 0 0 1-6.342-2.384l-5.076-4.44v17.42H17.66zm31.79-22.717c0 .955.573 1.8 1.458 2.153a15.336 15.336 0 0 1 6.578 5.042l5.328 7.103-3.27-7.24a34.099 34.099 0 0 1-2.695-9.301 34.329 34.329 0 0 1-.334-4.766v-8.094a.19.19 0 1 0-.372-.059l-1.727 5.18a30.194 30.194 0 0 1-4.502 8.59c-.299.4-.464.894-.464 1.392zm21.194 30.037c0-.886-.293-1.764-.824-2.472L55.604 45.095a12.993 12.993 0 0 0-5.57-4.267 4.654 4.654 0 0 1-2.085-7.013l-.164-.372-3.694-7.385c-.115-.231-.527-.135-.527.124V31.9c0 2.472-.725 4.868-2.097 6.925a1.535 1.535 0 0 0 1.275 2.386 8.384 8.384 0 0 1 7.431 4.474l8.439 15.938c2.01.51 4.08.781 6.146.781v2.355c-4.023 0-8.072-.91-11.71-2.634l-12.664-5.998c-.114-.054-.236-.092-.352-.143v7.598h-2.355V55.1c-1.953-.603-3.993-.94-6.032-.94a20.3 20.3 0 0 0-11.629 3.647v12.837h17.661v-4.71h2.355v4.71h26.492a4.125 4.125 0 0 0 4.121-4.121zM35.322 5.887c0 2.189-1.505 4.016-3.532 4.542v1.345h-2.355v-1.177h-2.354v1.177h-2.355V10.43a4.7 4.7 0 0 1-3.365-3.365H0V4.71h21.36a4.7 4.7 0 0 1 3.366-3.366V0h2.355v1.177h2.354V0h2.355v1.344c2.027.527 3.532 2.354 3.532 4.543zM24.726 3.859a2.347 2.347 0 0 0-1.178 2.028c0 .868.477 1.619 1.178 2.026zm4.71-.327H27.08v4.71h2.354zm3.532 2.355c0-.868-.477-1.619-1.178-2.028v4.055a2.347 2.347 0 0 0 1.178-2.027zm4.71 23.548v3.533c0 8.44-6.867 15.306-15.307 15.306-8.44 0-15.307-6.867-15.307-15.306v-3.533h14.788a10.797 10.797 0 0 0 2.874-7.35V14.13h2.355v7.957c0 2.656-.779 5.192-2.225 7.35h6.804a13.144 13.144 0 0 1-2.225-7.35v-7.957h2.355v7.957c0 2.75 1.025 5.337 2.874 7.35zM33.27 39.933c-3.34-.281-6.6-1.169-9.536-1.977-2.722-.747-5.293-1.456-7.251-1.456-3.277 0-5.218 1.217-5.924 1.758 2.029 4.508 6.555 7.661 11.811 7.661 4.576 0 8.596-2.392 10.9-5.986zm2.051-8.143H9.42v1.178c0 1.025.132 2.018.36 2.975 1.253-.785 3.492-1.798 6.705-1.798 2.276 0 4.995.749 7.875 1.542 3.123.859 6.627 1.814 10.074 1.96a12.86 12.86 0 0 0 .89-4.68z"/><path fill="#336051" d="M73 66.524A6.484 6.484 0 0 1 66.524 73H0V48.034l8.98 7.858c2.477 2.17 6.348 2.357 9.025.446l.406-.29a22.636 22.636 0 0 1 13.234-4.242c3.351 0 6.721.759 9.748 2.191l12.662 5.998c.44.21.89.403 1.342.585l-7.304-13.795a6.037 6.037 0 0 0-5.35-3.22 3.892 3.892 0 0 1-3.235-6.048 10.107 10.107 0 0 0 1.702-5.62v-5.716a2.636 2.636 0 0 1 2.632-2.633c1.003 0 1.905.558 2.354 1.454l3.25 6.59a27.862 27.862 0 0 0 2.737-5.831l1.727-5.181a2.543 2.543 0 0 1 2.415-1.741 2.549 2.549 0 0 1 2.546 2.545v8.094a31.793 31.793 0 0 0 2.82 13.099l7.619 16.868 2.394 3.194A6.51 6.51 0 0 1 73 66.524zm-55.339-7.32a9.57 9.57 0 0 1-3.888.844 9.63 9.63 0 0 1-6.342-2.384l-5.076-4.44v17.42H17.66zm31.79-22.717c0 .955.573 1.8 1.458 2.153a15.336 15.336 0 0 1 6.578 5.042l5.328 7.103-3.27-7.24a34.099 34.099 0 0 1-2.695-9.301 34.329 34.329 0 0 1-.334-4.766v-8.094a.19.19 0 1 0-.372-.059l-1.727 5.18a30.194 30.194 0 0 1-4.502 8.59c-.299.4-.464.894-.464 1.392zm21.194 30.037c0-.886-.293-1.764-.824-2.472L55.604 45.095a12.993 12.993 0 0 0-5.57-4.267 4.654 4.654 0 0 1-2.085-7.013l-.164-.372-3.694-7.385c-.115-.231-.527-.135-.527.124V31.9c0 2.472-.725 4.868-2.097 6.925a1.535 1.535 0 0 0 1.275 2.386 8.384 8.384 0 0 1 7.431 4.474l8.439 15.938c2.01.51 4.08.781 6.146.781v2.355c-4.023 0-8.072-.91-11.71-2.634l-12.664-5.998c-.114-.054-.236-.092-.352-.143v7.598h-2.355V55.1c-1.953-.603-3.993-.94-6.032-.94a20.3 20.3 0 0 0-11.629 3.647v12.837h17.661v-4.71h2.355v4.71h26.492a4.125 4.125 0 0 0 4.121-4.121zM35.322 5.887c0 2.189-1.505 4.016-3.532 4.542v1.345h-2.355v-1.177h-2.354v1.177h-2.355V10.43a4.7 4.7 0 0 1-3.365-3.365H0V4.71h21.36a4.7 4.7 0 0 1 3.366-3.366V0h2.355v1.177h2.354V0h2.355v1.344c2.027.527 3.532 2.354 3.532 4.543zM24.726 3.859a2.347 2.347 0 0 0-1.178 2.028c0 .868.477 1.619 1.178 2.026zm4.71-.327H27.08v4.71h2.354zm3.532 2.355c0-.868-.477-1.619-1.178-2.028v4.055a2.347 2.347 0 0 0 1.178-2.027zm4.71 23.548v3.533c0 8.44-6.867 15.306-15.307 15.306-8.44 0-15.307-6.867-15.307-15.306v-3.533h14.788a10.797 10.797 0 0 0 2.874-7.35V14.13h2.355v7.957c0 2.656-.779 5.192-2.225 7.35h6.804a13.144 13.144 0 0 1-2.225-7.35v-7.957h2.355v7.957c0 2.75 1.025 5.337 2.874 7.35zM33.27 39.933c-3.34-.281-6.6-1.169-9.536-1.977-2.722-.747-5.293-1.456-7.251-1.456-3.277 0-5.218 1.217-5.924 1.758 2.029 4.508 6.555 7.661 11.811 7.661 4.576 0 8.596-2.392 10.9-5.986zm2.051-8.143H9.42v1.178c0 1.025.132 2.018.36 2.975 1.253-.785 3.492-1.798 6.705-1.798 2.276 0 4.995.749 7.875 1.542 3.123.859 6.627 1.814 10.074 1.96a12.86 12.86 0 0 0 .89-4.68z"/></g></g></svg>