<?xml version="1.0" encoding="iso-8859-1"?>
<!-- Generator: Adobe Illustrator 19.0.0, SVG Export Plug-In . SVG Version: 6.00 Build 0)  -->
<svg fill="#336051" version="1.1" id="Layer_1" xmlns="http://www.w3.org/2000/svg" xmlns:xlink="http://www.w3.org/1999/xlink" x="0px" y="0px"
	 viewBox="0 0 286.407 286.407" style="enable-background:new 0 0 286.407 286.407;" xml:space="preserve">
<g>
	<g>
		<path d="M253.594,180.605v-35.058h9.375v-9.375h-9.375h-4.688h-46.875h-4.688h-9.375v9.375h9.375v35.058
			c-7.538,3.933-14.044,9.342-19.233,15.764c-0.989-13.214-3.567-26.241-7.777-38.864c-0.741-2.217-1.116-4.528-1.116-6.867
			c0-2.78,0.525-5.494,1.556-8.077l0.52-1.298c4.842-12.112,7.298-24.867,7.298-37.903v-4.688h-28.125v-24.3
			c3.342-1.191,6.075-3.595,7.711-6.703c1.359,0.422,2.761,0.694,4.172,0.694c3.6-0.005,7.205-1.373,9.947-4.111
			c3.82-3.82,4.917-9.291,3.417-14.119c4.472-2.358,7.566-6.998,7.566-12.398c0-5.4-3.094-10.045-7.57-12.398
			c1.5-4.833,0.403-10.303-3.417-14.123c-3.816-3.816-9.286-4.908-14.114-3.412c-2.358-4.477-6.998-7.566-12.398-7.566
			c-5.4,0-10.039,3.092-12.397,7.564c-4.828-1.495-10.298-0.398-14.119,3.412c-3.82,3.82-4.917,9.291-3.417,14.119
			c-4.472,2.362-7.566,7.003-7.566,12.403c0,5.4,3.094,10.041,7.57,12.398c-1.5,4.833-0.403,10.303,3.417,14.123
			c2.737,2.737,6.342,4.106,9.942,4.106c1.416,0,2.813-0.272,4.177-0.694c1.636,3.108,4.369,5.513,7.711,6.703v24.3h-28.125v4.688
			c0,13.036,2.456,25.791,7.298,37.903l0.52,1.303c1.031,2.578,1.556,5.292,1.556,8.072c0,2.339-0.375,4.65-1.116,6.867
			c-3.384,10.148-5.611,20.573-6.914,31.134c-5.241-6.197-16.181-10.28-29.475-10.28c-18.708,0-32.813,8.063-32.813,18.75
			c0,4.688,2.719,8.873,7.345,12.089c-12.263,2.892-21.408,8.142-21.408,16.036c0,6.07,5.428,10.561,13.491,13.636
			c-13.383,3.853-22.866,10.28-22.866,19.177c0,4.894,2.878,9.038,7.683,12.422c-8.616-0.558-17.217-1.209-25.781-2.067
			l-9.558-0.956L0,276.773l9.563,0.956c0.094,0.009,0.188,0.014,0.281,0.023v8.419h9.375v-7.598
			c21.792,1.894,43.809,2.911,65.625,2.911c21.816,0,43.833-1.017,65.625-2.911v7.598h9.375v-8.419
			c0.094-0.009,0.188-0.014,0.281-0.023l9.563-0.956l-0.933-9.328l-9.563,0.956c-8.564,0.858-17.166,1.509-25.781,2.067
			c4.805-3.384,7.683-7.528,7.683-12.422c0-8.897-9.483-15.323-22.866-19.177c8.062-3.075,13.491-7.566,13.491-13.636
			c0-4.969-3.637-8.883-9.375-11.831v-4.997c0-16.322,2.62-32.456,7.781-47.939c1.055-3.173,1.594-6.483,1.594-9.83
			c0-3.98-0.75-7.866-2.227-11.555l-0.52-1.298c-3.816-9.544-6-19.528-6.516-29.737h46.641c-0.511,10.209-2.695,20.194-6.516,29.737
			l-0.516,1.294c-1.472,3.694-2.222,7.58-2.222,11.559c0,3.347,0.539,6.656,1.594,9.834c5.161,15.478,7.781,31.613,7.781,47.934
			v2.766h0.07c-3.07,7.313-4.758,15.253-4.758,23.438c0,20.452,10.195,39.436,27.277,50.78l1.177,0.783h64.969l1.177-0.783
			c17.081-11.344,27.277-30.328,27.277-50.78C286.406,211.927,273.623,191.053,253.594,180.605z M165.67,57.619
			c-1.598,1.594-4.012,1.711-5.827,0.534v-6.356h6.361C167.381,53.616,167.259,56.03,165.67,57.619z M159.843,17.311
			c1.82-1.172,4.234-1.055,5.827,0.534c1.589,1.594,1.711,4.008,0.534,5.827h-6.361V17.311z M158.981,33.047h0.862h9.375
			c2.583,0,4.688,2.1,4.688,4.688s-2.105,4.688-4.688,4.688h-9.375h-0.862c0.525-1.472,0.862-3.037,0.862-4.688
			S159.506,34.519,158.981,33.047z M125.892,17.85c1.594-1.598,4.008-1.716,5.827-0.534v6.356h-6.361
			C124.181,21.853,124.303,19.439,125.892,17.85z M131.719,58.152c-1.819,1.178-4.233,1.06-5.827-0.529
			c-1.589-1.594-1.711-4.008-0.534-5.827h6.361V58.152z M132.582,42.422h-0.863h-9.375c-2.583,0-4.688-2.1-4.688-4.688
			s2.105-4.688,4.688-4.688h9.375h0.863c-0.525,1.472-0.863,3.037-0.863,4.688S132.057,40.95,132.582,42.422z M113.025,206.948
			c0,0.487-0.056,0.97-0.056,1.458v1.462c-0.863-0.234-1.758-0.454-2.658-0.67C111.319,208.495,112.209,207.736,113.025,206.948z
			 M84.844,187.734c14.307,0,23.438,5.555,23.438,9.375s-9.131,9.375-23.438,9.375s-23.438-5.554-23.438-9.375
			C61.406,193.289,70.537,187.734,84.844,187.734z M131.719,258.066c0,5.452-17.747,14.044-44.686,14.044c-1.463,0-2.92,0-4.383,0
			c-26.934,0-44.681-8.592-44.681-14.044c0-5.597,18.694-14.063,46.875-14.063C113.025,244.003,131.719,252.469,131.719,258.066z
			 M84.844,234.609c-24.609,0-37.5-6.966-37.5-9.375s12.891-9.375,37.5-9.375s37.5,6.966,37.5,9.375S109.453,234.609,84.844,234.609
			z M141.094,23.672v-9.375c0-2.588,2.105-4.688,4.688-4.688s4.688,2.1,4.688,4.688v9.375v0.862
			c-1.472-0.525-3.037-0.862-4.688-0.862s-3.216,0.337-4.688,0.862V23.672z M145.781,33.046c2.583,0,4.688,2.1,4.688,4.688
			s-2.105,4.688-4.688,4.688s-4.688-2.1-4.688-4.688S143.198,33.046,145.781,33.046z M145.781,65.86c-2.583,0-4.688-2.1-4.688-4.688
			v-9.375v-0.862c1.472,0.525,3.037,0.862,4.688,0.862s3.216-0.337,4.688-0.862v0.862v9.375
			C150.469,63.76,148.364,65.86,145.781,65.86z M255.089,276.797h-59.241c-13.767-9.675-21.942-25.341-21.942-42.188
			c0-3.183,0.328-6.309,0.905-9.375h78.783v-9.375h-76.102c4.805-12.197,14.17-22.411,26.494-28.078l2.733-1.256v-40.978h37.5
			v40.978l2.733,1.256c12.328,5.667,21.689,15.881,26.494,28.078h-10.477v9.375h13.158c0.577,3.066,0.905,6.192,0.905,9.375
			C277.031,251.456,268.856,267.122,255.089,276.797z"/>
	</g>
</g>
<g>
</g>
<g>
</g>
<g>
</g>
<g>
</g>
<g>
</g>
<g>
</g>
<g>
</g>
<g>
</g>
<g>
</g>
<g>
</g>
<g>
</g>
<g>
</g>
<g>
</g>
<g>
</g>
<g>
</g>
</svg>
