<svg fill="#336051" height="512" viewBox="0 0 60 60" width="512" xmlns="http://www.w3.org/2000/svg"><path id="Shape" d="m59.028 41.111c-.368-.046-9.064-1.06-13.98 3.867-1.4537202 1.5162059-2.5160359 3.3638459-3.095 5.383-.1940297-.5099539-.4204924-1.0069694-.678-1.488 2.5-7.94-1.742-18-7.925-23.652 1.3888842-1.0122188 1.9738134-2.7998848 1.4519034-4.4373206-.52191-1.6374359-2.0334415-2.7568841-3.7519034-2.7786794 1.2271302-2.4937866 1.8927481-5.2262337 1.95-8.005 0-6.355-4.374-10-12-10s-12 3.645-12 10c.05766804 2.776997.7229249 5.5076562 1.949 8-1.7184619.0217953-3.22999339 1.1412435-3.75190339 2.7786794-.52190999 1.6374358.06301916 3.4251018 1.45190339 4.4373206-5.221 4.784-8.649 12.127-8.649 18.784 0 10.019 7.851 16 21 16 3.7440349.0720268 7.4691757-.5480389 10.988-1.829 3.1277056 1.5069105 6.6163242 2.1033059 10.067 1.721.7475961.0801612 1.4991344.1178883 2.251.113 3 0 8.267-.545 11.7-3.983 4.912-4.922 3.936-13.667 3.894-14.037-.0546621-.4574056-.4147208-.8182901-.872-.874zm-28.055 13.848c.191 0-3.309-2.469-2.948-10.14 1.987-.082 7.087.008 10.055 3 2.41 2.433 2.911 6.3 2.963 8.727l-2.777-2.8.432-2.151c.0714531-.3502989-.0494037-.7121083-.3170449-.9491379-.2676412-.2370297-.6414057-.3132693-.9805-.2-.3390943.1132692-.592002.398839-.6634551.7491379l-.167.834-.959-.969.432-2.151c.1088001-.5415152-.2419848-1.0686999-.7835-1.1775s-1.0686999.2419848-1.1775.7835l-.167.833-2.395-2.414c-.2500196-.2607976-.62127-.366459-.9711474-.2763979-.3498773.0900612-.6239719.3618394-.7169989.7109399-.0930271.3491004.0094799.7212342.2681463.973458l2.408 2.431-.836.167c-.531749.1171217-.8720642.638147-.7655943 1.1721307.10647.5339837.6205892.884645 1.1565943.7888693l2.132-.425.968.978-.837.167c-.531749.1171217-.8720642.638147-.7655943 1.1721307.10647.5339837.6205892.884645 1.1565943.7888693l2.133-.425 2.789 2.816c-2.411-.06-6.258-.581-8.666-3.014zm8.784-8.253c-1.321642-1.4151849-2.9942652-2.4553992-4.848-3.015-.2175429-4.67983-1.5583024-9.2385496-3.909-13.291v-4.4c.059 0 .114-.015.172-.017 6.01 4.956 9.855 13.717 8.585 20.723zm-14.757-20.706h4v6c0 1.1045695-.8954305 2-2 2s-2-.8954305-2-2zm-4-24c4.562 0 10 1.388 10 8-.069725 2.8053-.8224678 5.5512838-2.193 8h-3c.956-1.923 1.978-5.451.33-10.32-.1767311-.5232898-.7442102-.80423112-1.2675-.6275s-.8042311.7442102-.6275 1.2675c1.8 5.305-.028 8.653-.735 9.68h-5c-.7-1.023-2.526-4.395-.736-9.68.1767311-.5232898-.1042102-1.09076888-.6275-1.2675s-1.0907689.1042102-1.2675.6275c-1.648 4.869-.626 8.4.33 10.32h-3c-1.3750701-2.4475486-2.1322939-5.1936003-2.206-8 0-6.612 5.438-8 10-8zm-10 18h20c1.0278305.0060373 1.8837418.7901751 1.9795459 1.8135487s-.5996951 1.9527482-1.6085459 2.1494513c-.383.072-20.2.05-20.777-.005-1.00337101-.2089332-1.68642509-1.1425404-1.58184331-2.162084s.9629503-1.7950362 1.98784331-1.795916zm10 38c-5.713 0-19-1.364-19-14 0-6.469 3.537-13.654 8.828-18.017.546.024-1.1.017 3.507.017-2.787 2.831-7.335 9.107-7.335 20 0 .5522847.44771525 1 1 1s1-.4477153 1-1c0-12.98 7.025-18.994 8.332-20h1.279c-1.59 2.109-3.611 6.3-3.611 14 0 .5522847.4477153 1 1 1s1-.4477153 1-1c0-9.837 3.475-13.3 4.331-14h1.669v6c-.0061061 1.8448875 1.2543112 3.4530138 3.0472289 3.8878624 1.7929177.4348485 3.6500099-.4171669 4.4897711-2.0598624 1.3104461 2.9536398 2.0991152 6.1120376 2.331 9.335-1.9441531-.3671995-3.9303715-.4584309-5.9-.271-.4566908.0549924-.8169603.4144365-.873.871-.041.332-.945 8.166 3.451 12.6.135.137.278.262.419.389-2.9093849.8607041-5.9311544 1.2813586-8.965 1.248zm33.588-3.39c-2.851 2.856-7.427 3.357-10.127 3.382l3.4-3.406c.877629.2179946 1.7657759.3912182 2.661.519.5137531.0005163.9443106-.3883485.9959422-.8995008.0516315-.5111523-.2924636-.9782648-.7959422-1.0804992l-1.165-.236 1.3-1.3c.8773215.2178622 1.7651287.3910848 2.66.519.5137531.0005163.9443106-.3883485.9959422-.8995008.0516315-.5111523-.2924636-.9782648-.7959422-1.0804992l-1.164-.236 2.876-2.882c.3893607-.3926745.3866744-1.0266392-.006-1.416-.3926745-.3893607-1.0266392-.3866744-1.416.006l-2.863 2.868-.229-1.168c-.1068671-.5420675-.6329325-.894867-1.175-.7879999-.5420674.1068671-.8948671.6329324-.788 1.1749999l.489 2.483-1.289 1.292-.229-1.162c-.1068671-.5420675-.6329325-.8948671-1.175-.788s-.8948671.6329325-.788 1.175l.489 2.483-3.39 3.4c.035-2.718.554-7.319 3.405-10.176 3.426-3.432 9.354-3.463 11.507-3.357.104 2.163.048 8.135-3.383 11.573z"/></svg>