<svg xmlns="http://www.w3.org/2000/svg" xmlns:xlink="http://www.w3.org/1999/xlink" id="Capa_1" x="0px" y="0px" viewBox="0 0 511.999 511.999" style="enable-background:new 0 0 511.999 511.999;" xml:space="preserve" width="512px" height="512px"><g><g>
	<g>
		<path d="M447.234,427.117l59.998-119.995c11.117-22.23,2.139-49.245-20.113-60.371c-22.234-11.139-49.233-2.165-60.387,20.12    l-17.562,35.125h-123.18c-24.812,0-44.998,20.186-44.998,44.998v14.999h-29.999V218.772c11.025,2.403,21.277,7.447,29.999,14.823    v23.402c0,8.284,6.716,14.999,14.999,14.999s14.999-6.716,14.999-14.999V233.58c26.189-22.138,64.811-22.134,90.996,0.009v23.408    c0,8.284,6.716,14.999,14.999,14.999c8.284,0,14.999-6.716,14.999-14.999v-29.999c0-103.314-80.789-187.787-180.993-195.418    V15.007c0-8.284-6.716-14.999-14.999-14.999c-8.284,0-14.999,6.716-14.999,14.999V31.58C80.809,39.21,0,123.661,0,226.998v29.999    c0,8.284,6.716,14.999,14.999,14.999c8.284,0,14.999-6.716,14.999-14.999v-23.406c12.612-10.64,28.547-16.451,45.498-16.451    c16.948,0,32.88,5.809,45.498,16.452v23.405c0,8.284,6.716,14.999,14.999,14.999s14.999-6.716,14.999-14.999v-23.411    c8.722-7.375,18.974-12.417,29.999-14.816v143.223h-74.997c-24.812,0-44.998,20.186-44.998,44.998    c0,17.02,9.5,31.862,23.475,39.506L62.581,490.28c-3.705,7.41-0.701,16.418,6.708,20.124c7.409,3.704,16.419,0.701,20.124-6.708    l25.853-51.706h65.727v44.998c0,8.284,6.716,14.999,14.999,14.999c8.284,0,14.999-6.716,14.999-14.999v-44.998h186.722    l25.853,51.706c3.706,7.413,12.715,10.413,20.123,6.708c7.41-3.705,10.413-12.714,6.708-20.124l-21.875-43.749    C436.435,442.228,443.012,435.559,447.234,427.117z M359.174,196.479c-13.151-6.117-27.649-9.343-42.686-9.343    c-0.001,0-0.002,0-0.004,0c-16.199,0-31.764,3.758-45.703,10.827c-1.197-40.596-7.57-78.597-18.252-108.22    c-3.043-8.44-6.252-15.695-9.558-21.964C302.169,85.276,347.693,134.962,359.174,196.479z M139.458,89.743    c-10.683,29.625-17.055,67.627-18.252,108.227c-13.94-7.071-29.507-10.829-45.708-10.829c-15.038,0-29.534,3.223-42.686,9.341    C44.29,134.965,89.815,85.277,149.015,67.779C145.709,74.047,142.5,81.303,139.458,89.743z M270.989,346.994    c0-8.271,6.729-14.999,14.999-14.999H394.17l-14.999,29.999H270.989V346.994z M151.224,197.711    c1.177-37.029,6.912-71.332,16.453-97.791c9.694-26.882,21.206-38.914,28.315-38.914s18.621,12.033,28.315,38.914    c9.542,26.46,15.277,60.766,16.453,97.796c-13.723-6.9-28.961-10.569-44.768-10.57c0,0,0,0-0.001,0c0,0,0,0-0.001,0    c-0.001,0-0.003,0-0.004,0C180.183,187.146,164.947,190.813,151.224,197.711z M420.404,413.701    c-2.558,5.113-7.699,8.29-13.419,8.29H105.996c-8.271,0-14.999-6.729-14.999-14.999c0-8.271,6.729-14.999,14.999-14.999H397.71    l55.851-111.701c3.692-7.379,12.643-10.466,20.131-6.715c7.417,3.71,10.419,12.709,6.709,20.129L420.404,413.701z" data-original="#000000" class="active-path" data-old_color="#000000" fill="#2C2C2C"></path>
	</g>
</g></g> </svg>