<svg xmlns="http://www.w3.org/2000/svg" viewBox="0 0 512 512"><path d="M113.2 501.2c-.4-10.1.6-19.9 3-29.2C95 471 78 453.5 78 432V120c0-22.1 17.9-40 40-40h20c-.1-7.9.7-15.5 2.3-22.9-.8-5.7-1.5-11.4-2.3-17.1h-20c-44.1 0-80 35.9-80 80v312c0 43 34.1 78.1 76.6 79.9-.4-3.6-.9-7.1-1.4-10.7z" fill="#bd242b"/><circle cx="386" cy="210" r="20"/><path d="M432 40h-26V20c0-11-9-20-20-20s-20 9-20 20v20h-91V20c0-11-9-20-20-20s-20 9-20 20v20h-90V20c0-11-9-20-20-20s-20 9-20 20v20H80C35.9 40 0 75.9 0 120v312c0 44.1 35.9 80 80 80h153c11 0 20-9 20-20s-9-20-20-20H80c-22.1 0-40-17.9-40-40V120c0-22.1 17.9-40 40-40h25v20c0 11 9 20 20 20s20-9 20-20V80h90v20c0 11 9 20 20 20s20-9 20-20V80h91v20c0 11 9 20 20 20s20-9 20-20V80h26c22.1 0 40 17.9 40 40v114c0 11 9 20 20 20s20-9 20-20V120c0-44.1-35.9-80-80-80z"/><path d="M391 270c-66.7 0-121 54.3-121 121s54.3 121 121 121 121-54.3 121-121-54.3-121-121-121zm0 202c-44.7 0-81-36.3-81-81s36.3-81 81-81 81 36.3 81 81-36.3 81-81 81z"/><path d="M420 371h-9v-21c0-11-9-20-20-20s-20 9-20 20v41c0 11 9 20 20 20h29c11 0 20-9 20-20s-9-20-20-20z"/><circle cx="299" cy="210" r="20"/><circle cx="212" cy="297" r="20"/><circle cx="125" cy="210" r="20"/><circle cx="125" cy="297" r="20"/><circle cx="125" cy="384" r="20"/><circle cx="212" cy="384" r="20"/><circle cx="212" cy="210" r="20"/></svg>