<svg xmlns="http://www.w3.org/2000/svg" height="512px" viewBox="0 0 512 512.001" width="512px" class=""><g><path d="m511.28125 246.316406c-2.042969 7.414063-7.914062 54.632813-9.839844 70.148438-1.261718 10.125-9.878906 17.535156-19.824218 17.535156-.824219 0-1.652344-.050781-2.492188-.152344-10.960938-1.363281-18.742188-11.355468-17.378906-22.3125 2.769531-22.289062 4.894531-38.65625 6.582031-50.535156h-418.050781l48.304687 113.242188c.0625.148437.125.300781.1875.453124.210938.523438 23.664063 57.304688 65.65625 57.304688h224.152344c24.527344 0 46.835937-13.515625 58.21875-35.273438 5.121094-9.785156 17.207031-13.566406 26.992187-8.449218 9.789063 5.121094 13.570313 17.207031 8.449219 26.996094-10.394531 19.859374-26.453125 35.445312-45.613281 45.214843l14.476562 19.648438c6.554688 8.890625 4.65625 21.414062-4.234374 27.964843-3.574219 2.632813-7.730469 3.898438-11.851563 3.898438-6.136719 0-12.195313-2.8125-16.117187-8.136719l-23.640626-32.082031c-2.210937.140625-4.4375.21875-6.679687.21875h-224.152344c-1.273437 0-2.53125-.035156-3.777343-.089844l-23.546876 31.953125c-3.917968 5.320313-9.976562 8.136719-16.117187 8.136719-4.117187 0-8.273437-1.265625-11.847656-3.898438-8.890625-6.550781-10.789063-19.074218-4.238281-27.964843l14.941406-20.277344c-37.679688-21.753906-56.273438-65.542969-58.125-70.101563l-60.09375-140.875c-.53125-1.230468-.941406-2.527343-1.214844-3.875-.4140625-2.003906-.5039062-4.019531-.304688-5.992187.023438-.234375.066407-.457031.097657-.6875.054687-.40625.105469-.8125.1875-1.214844.074219-.375.175781-.742187.269531-1.113281.066406-.246094.121094-.5.191406-.746094.125-.410156.273438-.804687.417969-1.203125.078125-.203125.144531-.410156.226563-.613281.15625-.382812.332031-.75.511718-1.117188.105469-.21875.199219-.4375.3125-.648437.167969-.320313.359375-.628906.542969-.9375.152344-.253906.296875-.507813.457031-.753906.167969-.25.347656-.488281.523438-.730469.210937-.289062.414062-.578125.640625-.855469.152343-.191406.324219-.371093.484375-.554687.265625-.304688.53125-.609375.816406-.898438.15625-.15625.324219-.304687.488281-.457031.304688-.289063.605469-.578125.933594-.847656.199219-.167969.410156-.316407.617187-.476563.300782-.230468.59375-.464844.910157-.679687.335937-.230469.691406-.433594 1.042969-.644531.199218-.121094.386718-.25.59375-.363282 1.734374-.957031 3.625-1.664062 5.628906-2.070312 1.34375-.277344 2.699218-.40625 4.042968-.402344h19.960938v-161c0-33.085938 26.914062-60 60-60 33.082031 0 60 26.914062 60 60 0 11.046875-8.953125 20-20 20s-20-8.953125-20-20c0-11.027344-8.972656-20-20-20s-20 8.972656-20 20v161h40v-20c0-11.046875 8.953125-20 20-20s20 8.953125 20 20v20h332c6.242188 0 12.125 2.914062 15.910156 7.882812 3.785156 4.964844 5.03125 11.414063 3.371094 17.433594zm-278.09375-65.316406c11.046875 0 20-8.953125 20-20 0-6.183594 5.023438-11.914062 13.894531-21.511719 12.601563-13.628906 29.855469-32.296875 29.855469-63.488281 0-11.046875-8.953125-20-20-20-11.042969 0-20 8.953125-20 20 0 14.785156-7.304688 23.4375-19.226562 36.332031-10.925782 11.820313-24.523438 26.523438-24.523438 48.667969 0 11.046875 8.957031 20 20 20zm107.875 0c11.046875 0 20-8.953125 20-20 0-6.183594 5.019531-11.914062 13.894531-21.511719 12.601563-13.628906 29.855469-32.296875 29.855469-63.488281 0-11.046875-8.953125-20-20-20-11.042969 0-20 8.953125-20 20 0 14.785156-7.304688 23.4375-19.226562 36.332031-10.925782 11.820313-24.523438 26.523438-24.523438 48.667969 0 11.046875 8.957031 20 20 20zm106.9375 0c11.046875 0 20-8.953125 20-20 0-6.183594 5.019531-11.914062 13.894531-21.511719 12.601563-13.628906 29.855469-32.296875 29.855469-63.488281 0-11.046875-8.953125-20-20-20s-20 8.953125-20 20c0 14.785156-7.304688 23.4375-19.226562 36.332031-10.925782 11.820313-24.523438 26.523438-24.523438 48.667969 0 11.046875 8.953125 20 20 20zm0 0" data-original="#000000" class="active-path" data-old_color="#000000" fill="#2C2C2C"></path></g></svg>