<svg xmlns="http://www.w3.org/2000/svg" height="512px" viewBox="0 0 511.99919 511" width="512px" class=""><g><path d="m509.835938 319.570312c-7.515626 59.703126-33.089844 114.605469-73.960938 158.769532-.03125.027344-.058594.058594-.085938.089844l-25.984374 27.734374c-3.9375 4.199219-9.261719 6.324219-14.601563 6.324219-4.898437 0-9.8125-1.789062-13.671875-5.40625-8.058594-7.550781-8.472656-20.210937-.917969-28.269531l25.9375-27.691406c35.144531-37.988282 57.132813-85.203125 63.59375-136.542969 1.378907-10.964844 11.390625-18.726563 22.34375-17.351563 10.957031 1.382813 18.726563 11.386719 17.347657 22.34375zm-93.433594 23.496094-43.414063 48.714844c-3.953125 4.433594-9.433593 6.691406-14.941406 6.691406-4.734375 0-9.488281-1.671875-13.300781-5.070312-8.246094-7.351563-8.976563-19.992188-1.625-28.238282l43.527344-48.839843c.082031-.09375.167968-.1875.253906-.277344 2.988281-3.230469 4.6875-7.191406 5.15625-11.265625v-4.6875c-.539063-4.558594-2.625-8.957031-6.253906-12.316406-8.09375-7.488282-20.773438-6.996094-28.265626 1.097656l-73.449218 79.964844 2.203125 2.359375c15.6875 16.949219 23.804687 38.910156 22.917969 61.898437-.890626 22.992188-10.679688 44.257813-27.566407 59.886719l-15.328125 14.183594c-3.847656 3.5625-8.71875 5.324219-13.578125 5.324219-5.382812 0-10.746093-2.15625-14.6875-6.417969-7.503906-8.105469-7.015625-20.765625 1.09375-28.265625l15.3125-14.171875c9.058594-8.382813 14.300781-19.773438 14.777344-32.082031.476563-12.3125-3.871094-24.074219-12.242187-33.117188l-102.226563-109.5c-3.691406-3.984375-8.628906-6.257812-13.96875-6.464844-5.347656-.203125-10.4375 1.679688-14.359375 5.308594-3.816406 3.527344-5.917969 8.214844-6.316406 13.027344l.003906 3.371094c.363281 4.261718 2.066406 8.441406 5.175781 11.824218l68.3125 72.78125c7.5625 8.058594 7.160157 20.714844-.894531 28.277344-8.054688 7.558594-20.714844 7.15625-28.277344-.898438l-68.363281-72.839843c-.035156-.035157-.0625-.070313-.097656-.105469-9.515625-10.28125-14.722657-23.027344-15.738281-36.015625-.015626-.164063-.023438-.328125-.039063-.496094-.164063-2.328125-.195313-4.667969-.089844-7l-.0625-120.375c-.03125-1.746093-.023437-3.496093-.003906-5.246093l-.03125-62.976563c0-.199219.003906-.398437.007813-.597656.148437-5.070313-1.828126-9.9375-5.566407-13.710938-3.855469-3.890625-9.242187-6.21875-14.777343-6.378906-10.714844-.316406-19.128907 7.695313-19.570313 18.671875l-.03125 168.714844c0 .148437 0 .296875-.003906.445312-1.464844 64.957032 21.425781 126.347656 64.453125 172.863282l25.941406 27.695312c7.554688 8.058594 7.140625 20.71875-.921875 28.269531-3.855469 3.617188-8.769531 5.40625-13.671875 5.40625-5.335938 0-10.660156-2.121093-14.597656-6.324219l-25.984375-27.734374c-.027344-.03125-.058594-.0625-.085938-.089844-50.097656-54.132813-76.773437-125.421875-75.1367185-200.753906l.0312495-168.835938c0-.195312.003907-.386719.007813-.582031.960937-32.726563 26.679687-57.761719 58.90625-57.761719.609375 0 1.222656.007812 1.835937.027344 15.925782.464844 30.847657 6.933594 42.023438 18.210937 2.808594 2.832031 5.289062 5.882813 7.433594 9.109375 6.460937-9.546875 13.863281-18.492187 22.144531-26.65625 69.117187-68.148437 180.789063-67.355468 248.933594 1.757813 7.601562 7.710937 14.363281 15.988281 20.285156 24.695312 1.984375-3.050781 4.253906-5.941406 6.816406-8.632812 10.914063-11.453125 25.742188-18.019531 41.742188-18.484375 33.070312-.941406 60.777343 24.929687 61.738281 57.734375.007812.191406.007812.386719.007812.582031l.023438 108.695312c0 11.046876-8.953125 20.003907-20 20.007813h-.003906c-11.046875 0-20-8.953125-20.003906-20l-.019532-108.355469c-.210937-5.148437-2.382812-9.886718-6.132812-13.359375-3.871094-3.585937-8.960938-5.460937-14.4375-5.316406-5.402344.160156-10.359375 2.324219-13.957032 6.101563-3.566406 3.738281-5.441406 8.707031-5.289062 13.988281.007812.199219.011719.398437.011719.597656l-.101563 187.609375c.984375 15.746094-4.175781 31.851562-15.664062 44.347656zm-41.453125-100.507812c29.296875-52.574219 20.5-118.457032-22.050781-161.613282-52.65625-53.410156-138.949219-54.019531-192.355469-1.359374-43.398438 42.785156-52.730469 110.21875-23.421875 162.941406 1.730468-.078125 3.472656-.097656 5.222656-.03125 16.019531.621094 30.835938 7.441406 41.722656 19.207031l44.847656 48.035156c18.199219 3.675781 37.195313 3.59375 55.355469-.234375l43.859375-47.746094c12.496094-13.503906 29.769532-19.957031 46.820313-19.199218zm-112.308594-88.234375h-13.308594c-3.371093 0-6.324219-3.21875-6.324219-6.886719v-.84375c0-3.511719 2.71875-6.15625 6.324219-6.15625h24.710938c11.046875 0 20.003906-8.957031 20.003906-20.003906s-8.957031-20.003906-20.003906-20.003906v-3c0-11.046876-8.957031-20-20.003907-20-11.046874 0-20.003906 8.953124-20.003906 20v5.597656c-18.050781 6.3125-31.03125 23.453125-31.03125 43.566406v.84375c0 25.855469 20.78125 46.890625 46.328125 46.890625h13.308594c3.648437 0 6.402344 2.578125 6.402344 6v8.019531c0 3.476563-2.753907 6.101563-6.402344 6.101563h-40.605469c-11.046875 0-20.003906 8.953125-20.003906 20.003906 0 11.046875 8.957031 20 20.003906 20h12v2c0 11.046875 8.957032 20.003906 20.003906 20.003906 11.046876 0 20.003907-8.957031 20.003907-20.003906v-3.410156c20.09375-5.0625 35.003906-23.179688 35.003906-44.695313v-8.015625c0-25.371093-20.820313-46.007812-46.40625-46.007812zm0 0" data-original="#000000" class="active-path" data-old_color="#000000" fill="#2C2C2C"></path></g></svg>