<?xml version="1.0" encoding="utf-8"?>
<!-- Generator: Adobe Illustrator 22.0.0, SVG Export Plug-In . SVG Version: 6.00 Build 0)  -->
<svg version="1.0" xmlns="http://www.w3.org/2000/svg" xmlns:xlink="http://www.w3.org/1999/xlink" x="0px" y="0px"
	 viewBox="0 0 344.8919067 71.0500717" enable-background="new 0 0 344.8919067 71.0500717" xml:space="preserve">
<g id="Слой_1">
	<g>
		<g>
			<g>
				<g>
					<path fill="#AC262B" d="M161.194458,71.0500717c-9.2789917,0-15.1392822-1.7649765-15.1527863-3.1766129
						c-0.002182-0.2351151,0.1583405-0.4610901,0.4929352-0.6669769c0.0218048-0.0135269,0.0440521-0.026619,0.0671844-0.0401459
						h0.0004272c0.5422363-0.3110199,1.463974-0.5893402,2.6557465-0.8279572
						c0.0894318-0.0178757,0.1801758-0.0353317,0.272644-0.0527802c0.6408234-0.1208344,1.3531799-0.2307663,2.1205139-0.3289185
						c2.4589996-0.312767,5.4877167-0.5012207,8.5788269-0.5295715c0.0497284,0.0741577,0.09729,0.1456909,0.1430817,0.2137451
						c0.174057,0.2591171,0.3197632,0.4750595,0.4349213,0.6447449c0.1980591,0.2922668,0.3040466,0.4466934,0.3040466,0.4466934
						s0.1060028-0.1544266,0.3040619-0.4466934c0.1147308-0.1692581,0.2599792-0.3851929,0.4340363-0.6438675
						c0.0458069-0.0680542,0.0933533-0.1391602,0.1426544-0.2133255c3.1067963,0.033165,6.1564789,0.2277222,8.6320648,0.5470276
						c0.7215118,0.092926,1.3937378,0.1967392,2.0048981,0.3101654c0.1387177,0.0257416,0.2743835,0.0519104,0.4065704,0.0789566
						c1.1983032,0.2421112,2.1235504,0.5247879,2.6644592,0.8397446c0.0013123,0.0008621,0.002182,0.0013046,0.0034943,0.002182
						c0.3127747,0.1832123,0.4868317,0.3816986,0.5295715,0.5889053
						C176.530014,69.219223,170.6453094,71.0500717,161.194458,71.0500717z"/>
					<path fill="#AC262B" d="M176.2338104,66.2855988v1.5878601h-30.1943207v-1.5878601h14.7684631
						c0.1980591,0.2922668,0.3040466,0.4466934,0.3040466,0.4466934s0.1060028-0.1544266,0.3040619-0.4466934H176.2338104z"/>
					<g>
						<g>
							<path fill="#BD242B" d="M176.2338104,66.4286804c-0.0484161,0.2639084-0.2290192,0.5243454-0.5330658,0.7756195
								c-0.2817993,0.2320633-0.6691742,0.4567261-1.1555634,0.6691589
								c-2.3543243,1.029068-7.0337219,1.7780685-13.2970734,1.7780685s-10.9876862-0.7490005-13.4039459-1.7780685
								c-0.52565-0.2237778-0.942688-0.4610901-1.2419434-0.7071228h-0.0004272
								c-0.346817-0.2848511-0.5361328-0.5810547-0.5553284-0.8807373c-0.0196381-0.307106,0.1387177-0.6181412,0.4885712-0.9252319
								c1.5294189-1.341835,6.5137482-2.2705688,12.0014801-2.4913025c0.2957611,0.4519386,0.5710297,0.8694077,0.8227386,1.2502365
								c0.160965,0.2429657,0.3118896,0.4702454,0.4527893,0.682251c0.1509399,0.2268372,0.2909698,0.435791,0.4179077,0.6255569
								c0.0497284,0.0741577,0.09729,0.1456909,0.1430817,0.2137451c0.174057,0.2591171,0.3197632,0.4750595,0.4349213,0.6447449
								c0.1980591,0.2922668,0.3040466,0.4466934,0.3040466,0.4466934s0.1060028-0.1544266,0.3040619-0.4466934
								c0.1147308-0.1692581,0.2599792-0.3851929,0.4340363-0.6438675c0.0458069-0.0680542,0.0933533-0.1391602,0.1426544-0.2133255
								c0.1264954-0.1893158,0.2656555-0.3969574,0.416153-0.6233597v-0.0004349
								c0.1404724-0.210701,0.2913971-0.4375381,0.4510651-0.6792068c0.2521362-0.3808289,0.5273895-0.7987366,0.8231506-1.2506638
								c5.4502258,0.2294579,10.4236603,1.1538162,12.0206757,2.4856262
								C176.1291199,65.7150116,176.2996826,66.0753326,176.2338104,66.4286804z"/>
							<path fill="#FFFFFF" d="M173.0362854,66.3645554c-0.0654449,0.5788651-1.3645325,1.1206665-3.5495911,1.5089035
								c-2.0480804,0.3642578-4.8748474,0.5941467-8.1927795,0.5941467c-3.3183746,0-6.1765442-0.2298889-8.2747955-0.5941467
								c-2.2714386-0.3943405-3.6520996-0.9461746-3.7611542-1.53508c-0.0034943-0.0174408-0.0056763-0.0348969-0.006546-0.0527802
								c-0.0069733-0.1186523,0.0379639-0.2390518,0.1382904-0.3594513c0.8070221-0.9710388,5.0606689-1.676857,9.9695435-1.8068466
								c0.160965,0.2429657,0.3118896,0.4702454,0.4527893,0.682251c0.1509399,0.2268372,0.2909698,0.435791,0.4179077,0.6255569
								c0.0497284,0.0741577,0.09729,0.1456909,0.1430817,0.2137451c0.174057,0.2591171,0.3197632,0.4750595,0.4349213,0.6447449
								c0.1980591,0.2922668,0.3040466,0.4466934,0.3040466,0.4466934s0.1060028-0.1544266,0.3040619-0.4466934
								c0.1147308-0.1692581,0.2599792-0.3851929,0.4340363-0.6438675c0.0458069-0.0680542,0.0933533-0.1391602,0.1426544-0.2133255
								c0.1264954-0.1893158,0.2656555-0.3969574,0.416153-0.6233597v-0.0004349
								c0.1404724-0.210701,0.2913971-0.4375381,0.4510651-0.6792068c4.8325195,0.1456985,9.0639343,0.8445358,9.9896088,1.8007431
								c0.1164551,0.1203995,0.1784058,0.240799,0.1875763,0.3594513
								C173.0397644,66.3117676,173.0393219,66.3383789,173.0362854,66.3645554z"/>
							<path fill="#BD242B" d="M161.2581482,67.8363876c-5.6984406,0.0004349-9.9006195-0.7232666-9.8526306-1.5507889
								c0.0026093-0.0484238,0.0200653-0.0968399,0.0523376-0.1457062c0.0410004-0.0623779,0.1060181-0.1234512,0.1932678-0.1832123
								c0.9116974-0.6216202,4.2540741-1.0757294,8.1609192-1.1551285c0.1509399,0.2268372,0.2909698,0.435791,0.4179077,0.6255569
								c0.0497284,0.0741577,0.09729,0.1456909,0.1430817,0.2137451c0.174057,0.2591171,0.3197632,0.4750595,0.4349213,0.6447449
								c0.1980591,0.2922668,0.3040466,0.4466934,0.3040466,0.4466934s0.1060028-0.1544266,0.3040619-0.4466934
								c0.1147308-0.1692581,0.2599792-0.3851929,0.4340363-0.6438675c0.0458069-0.0680542,0.0933533-0.1391602,0.1426544-0.2133255
								c0.1264954-0.1893158,0.2656555-0.3969574,0.416153-0.6233597c3.8976898,0.0876846,7.2644958,0.5465927,8.2159119,1.1703873
								c0.0820007,0.0536575,0.1461334,0.1086273,0.1910553,0.1644592c0.0392761,0.0488663,0.0632477,0.0977173,0.0728607,0.1457062
								C171.0536194,67.113121,166.9557037,67.8368225,161.2581482,67.8363876z"/>
							<path fill="#BD242B" d="M161.2319641,66.9648056c-4.1938934,0-7.473877-0.3106003-7.4189148-0.6792068
								c0.0008698-0.0056763,0.0026245-0.0113449,0.0048065-0.0170059c0.1413269-0.3345947,3.0112762-0.5972061,6.5551758-0.627739
								c0.174057,0.2591171,0.3197632,0.4750595,0.4349213,0.6447449c0.1980591,0.2922668,0.3040466,0.4466934,0.3040466,0.4466934
								s0.1060028-0.1544266,0.3040619-0.4466934c0.1147308-0.1692581,0.2599792-0.3851929,0.4340363-0.6438675
								c3.5124969,0.0340195,6.4011993,0.2953262,6.6236725,0.6268616c0.0039368,0.005661,0.0069733,0.0113297,0.0091705,0.0170059
								C168.6277618,66.6542053,165.425415,66.9648056,161.2319641,66.9648056z"/>
						</g>
					</g>
				</g>
			</g>
		</g>
	</g>
	<g>
		<g>
			<g>
				<path fill="#BD242B" d="M182.7807159,21.6735249c0,0.0392551-0.0004425,0.0789585-0.0008698,0.1186409
					c0,0.0235577-0.0004425,0.0471153-0.000885,0.0706749c-0.0004272,0.0314178-0.001297,0.063261-0.0021667,0.0946579
					c-0.0008698,0.0366573-0.0021973,0.073719-0.0034943,0.1108017c-0.0013123,0.0292244-0.0026245,0.0584698-0.0039215,0.0876942
					c-0.0056763,0.1282482-0.0135345,0.2586689-0.0240021,0.3908577c-0.0030518,0.0444965-0.0069733,0.0894184-0.01091,0.1343613
					c-0.001297,0.0174446-0.0030365,0.0353146-0.0047913,0.0532074c-0.0034943,0.0370846-0.0069885,0.0745926-0.0108948,0.1125507
					c-0.005249,0.0541019-0.01091,0.1090565-0.0170288,0.164011c-0.0039215,0.0340366-0.007843,0.0680542-0.0117798,0.1025181
					c-0.007843,0.0658798-0.0161285,0.1321888-0.0248566,0.1989212c-0.0039215,0.0305443-0.0078583,0.0610676-0.012207,0.0916119
					c-0.0078583,0.0588951-0.0165863,0.1182156-0.0253143,0.1779842c-0.0056763,0.0396824-0.0117798,0.0793858-0.0178833,0.1190891
					c-0.0017395,0.0113316-0.003479,0.0222378-0.0052338,0.033144c-0.0061035,0.040575-0.0126495,0.081152-0.0196228,0.1221561
					c-0.0222473,0.1382809-0.0466766,0.2778606-0.073288,0.4192085c-0.0052338,0.0305443-0.0113373,0.0606403-0.0170135,0.0911636
					c-0.012207,0.0641346-0.0248566,0.1286964-0.0379486,0.1937046c-0.0095978,0.0479679-0.0192108,0.0959568-0.0292358,0.1439457
					c-0.0100403,0.0484142-0.0200653,0.096405-0.0305328,0.1452675c-0.0366516,0.1718712-0.0759125,0.3459148-0.1177826,0.5221519
					c-0.0095978,0.0410023-0.0191956,0.0820045-0.0292206,0.1230297c-0.0157166,0.0658588-0.0322876,0.1321678-0.0488586,0.1989117
					c-0.0126648,0.0501614-0.0253143,0.100771-0.0379486,0.1513691c-0.0510559,0.1989212-0.1047058,0.4000168-0.1609802,0.6037426
					c-0.0148315,0.0523453-0.0296631,0.1055622-0.0444946,0.1583443c-0.0174408,0.0619526-0.0353241,0.1243286-0.0532074,0.1867065
					c-0.0178986,0.0623779-0.0362091,0.1247654-0.0549774,0.1875801c-0.0183105,0.0628147-0.0370789,0.1260643-0.0562744,0.1893272
					c-0.0187531,0.0628128-0.0383759,0.1260643-0.0575714,0.1897526c-0.0196381,0.0636864-0.0392609,0.1273842-0.0593414,0.1914978
					c-0.0645599,0.2067814-0.1317291,0.4161625-0.2015228,0.6273003c-0.0165863,0.0497246-0.0331573,0.0994606-0.0497437,0.1496239
					c-0.0218048,0.0654335-0.0440369,0.130867-0.0662994,0.1967373c-0.0924835,0.2726421-0.1888733,0.5483418-0.2887726,0.8270969
					c-0.0209503,0.0575733-0.0418854,0.1151581-0.0628204,0.1731701c-0.1225891,0.3372135-0.2503967,0.678772-0.3834381,1.024271
					c-0.0266266,0.0693531-0.0536652,0.1382809-0.080719,0.2076435c-0.081131,0.2080822-0.1640167,0.4174633-0.2481995,0.6281643
					c-0.0440674,0.10993-0.0890045,0.2207336-0.1343689,0.3315372c-0.2425385,0.5950089-0.4985962,1.1991882-0.7660065,1.8112144
					c-0.0475464,0.1081848-0.095108,0.2172394-0.1435242,0.3262978c-0.0601959,0.1356621-0.1208344,0.2713318-0.1819,0.4078674
					c-0.0536652,0.1203957-0.1081848,0.2407951-0.1627197,0.3616333c-0.2002258,0.4410286-0.4057007,0.8855438-0.6163788,1.3326759
					c-0.0349121,0.0741539-0.0702362,0.1487503-0.1055756,0.2233429c-0.0514832,0.1090546-0.1033783,0.2181129-0.1557312,0.3276062
					c-0.0549622,0.1151695-0.1103668,0.2303276-0.1657715,0.3459358c-0.0052185,0.0109062-0.0104675,0.0218124-0.0157013,0.03228
					c-0.0610657,0.126503-0.1221313,0.2530136-0.1836548,0.3795166c-0.0619354,0.1269379-0.1238861,0.2534485-0.1858368,0.3803864
					c-0.0549622,0.112114-0.1103668,0.2242165-0.1657562,0.3367691c-0.0750275,0.1509323-0.1500702,0.3018646-0.2255402,0.4532433
					c-0.0588837,0.1182175-0.1182098,0.2368698-0.1779785,0.3555222c-0.1312866,0.2604256-0.2634735,0.5212898-0.3965149,0.7821541
					c-0.0628204,0.1225815-0.1256409,0.2455978-0.1889038,0.3681831c-0.2896423,0.5631638-0.5840912,1.1272049-0.8824768,1.6903801
					c-0.079834,0.1504936-0.1596527,0.3009911-0.2399292,0.4514885c-0.0405579,0.0763397-0.081131,0.1522408-0.1221466,0.2281456
					c-0.0405579,0.075901-0.081131,0.1518059-0.1221466,0.2281456c-0.0410004,0.0759048-0.0820007,0.1522446-0.1230011,0.2281456
					c-0.5326385,0.9876251-1.0753021,1.9717445-1.6219025,2.9449692c-0.0601959,0.1073112-0.1203918,0.2137604-0.1801605,0.3206329
					c-0.2896576,0.5130043-0.5801849,1.0229492-0.8707123,1.5285416c-0.0710907,0.1243172-0.1426392,0.2482109-0.2137451,0.371666
					c-0.2137604,0.3707924-0.4279327,0.7394028-0.6412506,1.1045189c-0.071106,0.1221466-0.1422119,0.2438545-0.2133179,0.3646927
					c-0.0122223,0.0209351-0.0239868,0.0414391-0.0362091,0.0619392c-0.0588837,0.1007729-0.1182098,0.201107-0.1770935,0.3010025
					c-0.0671844,0.1147232-0.1348114,0.2290192-0.2019806,0.3433075c-0.2163696,0.3659897-0.431427,0.7284966-0.6460571,1.0875092
					c-0.0702362,0.1173553-0.1404724,0.2346954-0.2102661,0.3520393c-0.0078583,0.0126534-0.0152588,0.0253029-0.0226898,0.0379562
					c-0.1247559,0.2080688-0.2490845,0.4148521-0.3729553,0.6203156c-0.0078735,0.0126495-0.015274,0.0253029-0.0231323,0.0383797
					c-0.1391602,0.2307663-0.2774353,0.4593506-0.4152832,0.6861877c-0.0998993,0.1648941-0.1997986,0.3284798-0.2988281,0.4911919
					c-0.081131,0.133049-0.162262,0.2656631-0.2425232,0.3974075c-0.0405884,0.0658684-0.0807037,0.1317406-0.1208344,0.1971741
					c-0.1116791,0.1823387-0.2224884,0.3629341-0.3332825,0.5422287c-0.0746002,0.1212692-0.1487579,0.2416687-0.2229156,0.3611946
					c-0.0662994,0.1073112-0.1326141,0.2141838-0.1984863,0.3206329c-0.1644592,0.2656555-0.3271637,0.5278282-0.4885712,0.7860832
					c-0.0671844,0.1077347-0.1343536,0.2150574-0.2010956,0.3214912c-0.0606384,0.0977173-0.1217194,0.1949921-0.1823425,0.2913971
					c-0.2211761,0.3529129-0.438858,0.6984024-0.6521759,1.0351677c-0.0305176,0.0484238-0.0606232,0.096405-0.091156,0.1439552
					c-0.0606537,0.0959702-0.1204071,0.1906395-0.1801605,0.2848587c-0.0898743,0.1413383-0.1788635,0.2813644-0.266983,0.4192085
					c-0.0584564,0.0924835-0.1168976,0.1836624-0.1744843,0.2739639c-0.0292206,0.0453568-0.0580292,0.0907249-0.0868073,0.1356583
					c-0.2944641,0.4610977-0.5784454,0.9029884-0.8497772,1.3226433c-0.0462341,0.0711021-0.0916138,0.1413383-0.1369629,0.2111282
					c-0.4179077,0.6460571-0.8048553,1.238018-1.1538391,1.7689018c-0.0418701,0.0636902-0.083313,0.126503-0.1238708,0.1884537
					c-0.0209351,0.0318451-0.0423279,0.0636902-0.0628357,0.0955315c-0.0375061,0.0567131-0.0741425,0.1125526-0.1107788,0.1675148
					c-0.0244446,0.037075-0.0488739,0.0737228-0.0728607,0.1103668c-0.0091705,0.014389-0.0187531,0.0287895-0.0279236,0.0427513
					h-0.0004272c-0.0301056,0.0458069-0.0597687,0.0907288-0.0889893,0.1347847
					c-0.0069885,0.0104713-0.0139618,0.0209503-0.0205078,0.0314102c-0.0122223,0.0187645-0.0248718,0.0370827-0.0366516,0.0554008
					c-0.2634735,0.3978424-0.4964142,0.7463875-0.6935883,1.040844h-0.0004425
					c-0.186264,0.2787399-0.341568,0.5090714-0.4619598,0.6870575c-0.1518097,0.2242126-0.2486572,0.3655624-0.2831116,0.4161606
					c-0.0017548,0.0026093-0.0034943,0.0052261-0.005249,0.0074158c-0.005661,0.0087204-0.0087128,0.0130844-0.0087128,0.0130844
					s-0.0353394-0.0514679-0.102951-0.1504974c-0.007843-0.0117798-0.0161438-0.0244293-0.0248718-0.0375137
					c-0.005661-0.0074158-0.0108948-0.015274-0.016571-0.0235596c-0.010025-0.0148239-0.0205078-0.030098-0.0314178-0.0462418
					c-0.0204926-0.0305405-0.0431671-0.0641174-0.0675964-0.0998917c-0.0074158-0.0113373-0.015274-0.0226822-0.0235596-0.034462
					c-0.0100403-0.0148392-0.0200653-0.030098-0.0305328-0.045372c-0.1121216-0.1657639-0.2543335-0.3764648-0.423584-0.6290359
					c-0.013092-0.0196228-0.0266113-0.0397034-0.0401306-0.0597687c-0.0039215-0.005661-0.0074158-0.0113373-0.0113525-0.0170059
					c-0.016571-0.0248642-0.0335846-0.049736-0.0505981-0.0754623c-0.0174408-0.0261803-0.0353394-0.052784-0.0532074-0.0798378
					c-0.0178833-0.0266037-0.0362244-0.0540886-0.0549774-0.0820045c-0.0763397-0.114296-0.156601-0.2346954-0.2412262-0.3616333
					c-0.0261841-0.0397034-0.0532227-0.0802689-0.0807037-0.121273c-0.0968475-0.1461411-0.1989136-0.2996941-0.3053589-0.460659
					c-0.014389-0.0218124-0.0287933-0.0431862-0.0431976-0.0654335c-0.0091553-0.0135269-0.017868-0.0270386-0.0270386-0.0410042
					c-0.0204926-0.0309677-0.0410156-0.0619507-0.0614929-0.0929222c-0.0274963-0.0414391-0.0549774-0.0837517-0.0833282-0.1260643
					c-0.0667419-0.1016426-0.1352386-0.2054596-0.2054596-0.3119087c-0.0296783-0.0453568-0.0597687-0.0911636-0.0903015-0.1378441
					c-0.159668-0.2434044-0.327179-0.4990387-0.5016632-0.7664528c-0.0287933-0.0440483-0.0575867-0.0881195-0.08638-0.1321678
					c-0.077652-0.1195374-0.1570282-0.2416725-0.2377319-0.3655624c-0.0580292-0.0889931-0.1164703-0.1792946-0.1758118-0.2708969
					c-0.416153-0.6421242-0.8646088-1.3392143-1.3387756-2.0838585c-0.0431824-0.0676155-0.0863647-0.1352348-0.1295624-0.2037125
					c-0.0728455-0.114296-0.1461334-0.2303314-0.2207336-0.3472481c-0.0410004-0.0649872-0.0824432-0.1304207-0.1238861-0.1958542
					c-0.1395874-0.220295-0.2809296-0.4445229-0.4240112-0.6717949
					c-6.4169006-10.1937523-16.3654938-27.3069477-16.3654938-35.4168396C139.4337006,9.703455,149.1371307,0,161.1072083,0
					c11.8911133,0,21.5452576,9.5760803,21.6721954,21.4370918v0.0056667
					C182.7802734,21.5195236,182.7807159,21.5963116,182.7807159,21.6735249z"/>
				<path fill="#AC262B" d="M182.7807159,21.6735249c0,0.0392551-0.0004425,0.0789585-0.0008698,0.1186409
					c0,0.0235577-0.0004425,0.0471153-0.000885,0.0706749c-0.0004272,0.0314178-0.001297,0.063261-0.0021667,0.0946579
					c-0.0008698,0.0366573-0.0021973,0.073719-0.0034943,0.1108017c-0.0013123,0.0292244-0.0026245,0.0584698-0.0039215,0.0876942
					c-0.0056763,0.1282482-0.0135345,0.2586689-0.0240021,0.3908577c-0.0030518,0.0444965-0.0069733,0.0894184-0.01091,0.1343613
					c-0.001297,0.0174446-0.0030365,0.0353146-0.0047913,0.0532074c-0.0034943,0.0370846-0.0069885,0.0745926-0.0108948,0.1125507
					c-0.005249,0.0541019-0.01091,0.1090565-0.0170288,0.164011c-0.0039215,0.0340366-0.007843,0.0680542-0.0117798,0.1025181
					c-0.007843,0.0658798-0.0161285,0.1321888-0.0248566,0.1989212c-0.0039215,0.0305443-0.0078583,0.0610676-0.012207,0.0916119
					c-0.0078583,0.0588951-0.0165863,0.1182156-0.0253143,0.1779842c-0.0056763,0.0396824-0.0117798,0.0793858-0.0178833,0.1190891
					c-0.0017395,0.0113316-0.003479,0.0222378-0.0052338,0.033144c-0.0061035,0.040575-0.0126495,0.081152-0.0196228,0.1221561
					c-0.0222473,0.1382809-0.0466766,0.2778606-0.073288,0.4192085c-0.0052338,0.0305443-0.0113373,0.0606403-0.0170135,0.0911636
					c-0.012207,0.0641346-0.0248566,0.1286964-0.0379486,0.1937046c-0.0095978,0.0479679-0.0192108,0.0959568-0.0292358,0.1439457
					c-0.0100403,0.0484142-0.0200653,0.096405-0.0305328,0.1452675c-0.0366516,0.1718712-0.0759125,0.3459148-0.1177826,0.5221519
					c-0.0095978,0.0410023-0.0191956,0.0820045-0.0292206,0.1230297c-0.0157166,0.0658588-0.0322876,0.1321678-0.0488586,0.1989117
					c-0.0126648,0.0501614-0.0253143,0.100771-0.0379486,0.1513691c-0.0510559,0.1989212-0.1047058,0.4000168-0.1609802,0.6037426
					c-0.0148315,0.0523453-0.0296631,0.1055622-0.0444946,0.1583443c-0.0174408,0.0619526-0.0353241,0.1243286-0.0532074,0.1867065
					c-0.0178986,0.0623779-0.0362091,0.1247654-0.0549774,0.1875801c-0.0183105,0.0628147-0.0370789,0.1260643-0.0562744,0.1893272
					c-0.0187531,0.0628128-0.0383759,0.1260643-0.0575714,0.1897526c-0.0196381,0.0636864-0.0392609,0.1273842-0.0593414,0.1914978
					c-0.0645599,0.2067814-0.1317291,0.4161625-0.2015228,0.6273003c-0.0165863,0.0497246-0.0331573,0.0994606-0.0497437,0.1496239
					c-0.0218048,0.0654335-0.0440369,0.130867-0.0662994,0.1967373c-0.0924835,0.2726421-0.1888733,0.5483418-0.2887726,0.8270969
					c-0.0209503,0.0575733-0.0418854,0.1151581-0.0628204,0.1731701c-0.1225891,0.3372135-0.2503967,0.678772-0.3834381,1.024271
					c-0.0266266,0.0693531-0.0536652,0.1382809-0.080719,0.2076435c-0.081131,0.2080822-0.1640167,0.4174633-0.2481995,0.6281643
					c-0.0440674,0.10993-0.0890045,0.2207336-0.1343689,0.3315372c-0.2425385,0.5950089-0.4985962,1.1991882-0.7660065,1.8112144
					c-0.0475464,0.1081848-0.095108,0.2172394-0.1435242,0.3262978c-0.0601959,0.1356621-0.1208344,0.2713318-0.1819,0.4078674
					c-0.0536652,0.1203957-0.1081848,0.2407951-0.1627197,0.3616333c-0.2002258,0.4410286-0.4057007,0.8855438-0.6163788,1.3326759
					c-0.0349121,0.0741539-0.0702362,0.1487503-0.1055756,0.2233429c-0.0514832,0.1090546-0.1033783,0.2181129-0.1557312,0.3276062
					c-0.0549622,0.1151695-0.1103668,0.2303276-0.1657715,0.3459358c-0.0052185,0.0109062-0.0104675,0.0218124-0.0157013,0.03228
					c-0.0610657,0.126503-0.1221313,0.2530136-0.1836548,0.3795166c-0.0619354,0.1269379-0.1238861,0.2534485-0.1858368,0.3803864
					c-0.0549622,0.112114-0.1103668,0.2242165-0.1657562,0.3367691c-0.0750275,0.1509323-0.1500702,0.3018646-0.2255402,0.4532433
					c-0.0588837,0.1182175-0.1182098,0.2368698-0.1779785,0.3555222c-0.1312866,0.2604256-0.2634735,0.5212898-0.3965149,0.7821541
					c-0.0628204,0.1225815-0.1256409,0.2455978-0.1889038,0.3681831c-0.2896423,0.5631638-0.5840912,1.1272049-0.8824768,1.6903801
					c-0.079834,0.1504936-0.1596527,0.3009911-0.2399292,0.4514885c-0.0405579,0.0763397-0.081131,0.1522408-0.1221466,0.2281456
					c-0.0405579,0.075901-0.081131,0.1518059-0.1221466,0.2281456c-0.0410004,0.0759048-0.0820007,0.1522446-0.1230011,0.2281456
					c-0.5326385,0.9876251-1.0753021,1.9717445-1.6219025,2.9449692c-0.0601959,0.1073112-0.1203918,0.2137604-0.1801605,0.3206329
					c-0.2896576,0.5130043-0.5801849,1.0229492-0.8707123,1.5285416c-0.0710907,0.1243172-0.1426392,0.2482109-0.2137451,0.371666
					c-0.2137604,0.3707924-0.4279327,0.7394028-0.6412506,1.1045189c-0.071106,0.1221466-0.1422119,0.2438545-0.2133179,0.3646927
					c-0.0122223,0.0209351-0.0239868,0.0414391-0.0362091,0.0619392c-0.0588837,0.1007729-0.1182098,0.201107-0.1770935,0.3010025
					c-0.0671844,0.1147232-0.1348114,0.2290192-0.2019806,0.3433075c-0.2163696,0.3659897-0.431427,0.7284966-0.6460571,1.0875092
					c-0.0702362,0.1173553-0.1404724,0.2346954-0.2102661,0.3520393c-0.0078583,0.0126534-0.0152588,0.0253029-0.0226898,0.0379562
					c-0.1247559,0.2080688-0.2490845,0.4148521-0.3729553,0.6203156c-0.0078735,0.0126495-0.015274,0.0253029-0.0231323,0.0383797
					c-0.1391602,0.2303314-0.2774353,0.4589119-0.4152832,0.6861877c-0.0998993,0.1648941-0.1997986,0.3284798-0.2988281,0.4911919
					c-0.081131,0.133049-0.162262,0.2656631-0.2425232,0.3974075c-0.0405884,0.0658684-0.0807037,0.1317406-0.1208344,0.1971741
					c-0.1116791,0.1823387-0.2229156,0.3629341-0.3332825,0.5422287c-0.0746002,0.1212692-0.1487579,0.2416687-0.2229156,0.3611946
					c-0.0662994,0.1073112-0.1326141,0.2141838-0.1984863,0.3206329c-0.1644592,0.2656555-0.3276062,0.5278282-0.4885712,0.7860832
					c-0.0671844,0.1077347-0.1343536,0.2150574-0.2010956,0.3214912c-0.0610809,0.0977173-0.1217194,0.1949921-0.1823425,0.2913971
					c-0.2211761,0.3529129-0.438858,0.6984024-0.6521759,1.0351677c-0.0305176,0.0484238-0.0606232,0.096405-0.091156,0.1439552
					c-0.0606537,0.0959702-0.1204071,0.1906395-0.1801605,0.2848587c-0.0898743,0.1413383-0.1788635,0.2813644-0.266983,0.4192085
					c-0.0584564,0.0924835-0.1168976,0.1836624-0.1744843,0.2739639c-0.0292206,0.0453568-0.0580292,0.0907249-0.0868073,0.1356583
					c-0.2944641,0.4610977-0.5784454,0.9029884-0.8497772,1.3226433c-0.0462341,0.0711021-0.0916138,0.1413383-0.1369629,0.2111282
					c-0.4179077,0.6460571-0.8048553,1.238018-1.1538391,1.7689018c-0.0418701,0.0636902-0.083313,0.126503-0.1238708,0.1884537
					c-0.0209351,0.0318451-0.0423279,0.0636902-0.0628357,0.0955315c-0.0375061,0.0567131-0.074585,0.1125526-0.1107788,0.1675148
					c-0.0244446,0.037075-0.0488739,0.0737228-0.0728607,0.1103668c-0.0095978,0.014389-0.0187531,0.0287895-0.0283508,0.0427513
					c-0.0301056,0.0458069-0.0597687,0.0907288-0.0889893,0.1347847c-0.0069885,0.0104713-0.0139618,0.0209503-0.0205078,0.0314102
					c-0.0126495,0.0187645-0.0248718,0.0370827-0.0370789,0.0554008c0,0,0,0,0.0004272,0
					c-0.2634735,0.3978424-0.4964142,0.7463875-0.6935883,1.040844h-0.0004425
					c-0.186264,0.2787399-0.341568,0.5090714-0.4619598,0.6870575c-0.1518097,0.2242126-0.2486572,0.3655624-0.2831116,0.4161606
					c-0.0017548,0.0026093-0.0034943,0.0052261-0.005249,0.0074158c-0.005661,0.0087204-0.0087128,0.0130844-0.0087128,0.0130844
					s-0.0353394-0.0514679-0.102951-0.1504974c-0.007843-0.0117798-0.0161438-0.0244293-0.0248718-0.0375137
					c-0.005661-0.0074158-0.0108948-0.015274-0.016571-0.0235596c-0.010025-0.014389-0.0200653-0.030098-0.0314178-0.0462418
					c-0.0204926-0.0305405-0.0431671-0.0641174-0.0675964-0.0998917c-0.0074158-0.0113373-0.015274-0.0226822-0.0235596-0.034462
					c-0.0100403-0.0148392-0.0200653-0.030098-0.0305328-0.045372c-0.1121216-0.1657639-0.2543335-0.3764648-0.423584-0.6290359
					c-0.013092-0.0196228-0.0266113-0.0397034-0.0401306-0.0597687c-0.0039215-0.005661-0.0074158-0.0113373-0.0113525-0.0170059
					c-0.016571-0.0248642-0.0335846-0.049736-0.0505981-0.0754623c-0.0174408-0.0261803-0.0353394-0.052784-0.0532074-0.0798378
					c-0.0178833-0.0266037-0.0362244-0.0540886-0.0549774-0.0820045c-0.0763397-0.114296-0.156601-0.2346954-0.2412262-0.3616333
					c-0.0266113-0.0397034-0.0532227-0.0802689-0.0807037-0.121273c-0.0968475-0.1461411-0.1989136-0.2996941-0.3053589-0.460659
					c-0.014389-0.0218124-0.0287933-0.0436211-0.0436249-0.0654335c-0.008728-0.0135269-0.0178833-0.0274887-0.0266113-0.0410042
					c-0.0204926-0.0309677-0.0410156-0.0619507-0.0614929-0.0929222c-0.0274963-0.0414391-0.0549774-0.0837517-0.0833282-0.1260643
					c-0.0667419-0.1016426-0.1352386-0.2054596-0.2054596-0.3119087c-0.0296783-0.0453568-0.0597687-0.0911636-0.0903015-0.1378441
					c-0.159668-0.2434044-0.327179-0.4990387-0.5016632-0.7664528c-0.0287933-0.0440483-0.0575867-0.0881195-0.08638-0.1321678
					c-0.077652-0.1195374-0.1570282-0.2416725-0.2377319-0.3655624c-0.0580292-0.0889931-0.1164703-0.1792946-0.1758118-0.2708969
					c-0.416153-0.6421242-0.8646088-1.3392143-1.3387756-2.0838585c-0.0431824-0.0676155-0.0863647-0.1352348-0.1295624-0.2037125
					c-0.0728455-0.114296-0.1461334-0.2303314-0.2207336-0.3472481c-0.0410004-0.0649872-0.0824432-0.1304207-0.1238861-0.1958542
					c-0.1395874-0.220295-0.2809296-0.4445229-0.4240112-0.6717949c0.0863647-0.0680542,0.1753693-0.1483154,0.2604218-0.2181129
					c2.2465668-2.0777588,4.3910675-4.2567101,6.4561615-6.4701271c6.4614105-6.9281502,12.5284424-12.3997536,16.630722-20.9393387
					c1.4844818-3.0897884,2.6937103-6.3279018,3.5491486-9.6532612c0.0458069,0.5378723,0.0763397,1.0796623,0.0837555,1.6275654
					v0.0056667C182.7802734,21.5195236,182.7807159,21.5963116,182.7807159,21.6735249z"/>
				<path fill="#FFFFFF" d="M173.3564606,16.4422913c-0.7005768-1.6227732-1.6489258-3.0326519-2.8459473-4.2296782
					c-1.1970062-1.1969833-2.6068878-2.1457767-4.22966-2.8463821c-1.6223145-0.7001352-3.347168-1.0504169-5.173645-1.0504169
					c-1.2236328,0-2.4027405,0.1596451-3.537796,0.4785299c-1.1350708,0.3193312-2.1946716,0.7673378-3.1788025,1.3435917
					c-0.9841309,0.5762548-1.8796997,1.2681046-2.6867065,2.0746775c-0.8065948,0.8070211-1.4984436,1.7026072-2.074707,2.686738
					c-0.5762482,0.9841309-1.0242615,2.0437279-1.3435822,3.178793c-0.3188782,1.1350632-0.4785309,2.3141766-0.4785309,3.5378056
					c0,1.223608,0.1596527,2.4027214,0.4785309,3.5377846c0.3193207,1.1350651,0.767334,2.1942253,1.3435822,3.178793
					c0.5762634,0.9841309,1.2681122,1.8797073,2.074707,2.6867275c0.8070068,0.8065834,1.7025757,1.4984341,2.6867065,2.0746861
					c0.9841309,0.5762558,2.0437317,1.0238342,3.1788025,1.3431473c1.1350555,0.3193207,2.3141632,0.4789772,3.537796,0.4789772
					c1.2236176,0,2.4027405-0.1596565,3.537796-0.4789772c1.1350708-0.319313,2.1942291-0.7668915,3.1787872-1.3431473
					c0.9841309-0.576252,1.8796997-1.2681026,2.6867218-2.0746861c0.8065796-0.8070202,1.4984436-1.7025967,2.074707-2.6867275
					c0.5762482-0.9845676,1.023819-2.0437279,1.3431396-3.178793c0.3193207-1.1350632,0.4789734-2.3141766,0.4789734-3.5377846
					C174.4073334,19.7894611,174.0570526,18.0646172,173.3564606,16.4422913z M167.7387238,26.8860016
					c0,0.1417732-0.0444794,0.2569332-0.1330414,0.3459263c-0.0889893,0.0885544-0.2041626,0.1330509-0.345932,0.1330509h-3.5159912
					c-0.1413422,0-0.2565002-0.0444965-0.3450623-0.1330509c-0.0885315-0.0885563-0.1326141-0.2037163-0.1326141-0.3454895
					v-5.2355995h-4.0342255v5.2355995c0,0.1417732-0.0444946,0.2569332-0.1330414,0.3454895
					c-0.0885468,0.0885544-0.2032776,0.1330509-0.3450623,0.1330509h-3.5238342
					c-0.1243286,0-0.2307587-0.0444965-0.3193207-0.1330509c-0.0889893-0.0885563-0.1330414-0.2037163-0.1330414-0.3459263
					v-8.5387096c0-0.1596661,0.0532074-0.2835484,0.1596527-0.3721142l5.9082642-4.7347889
					c0.2128754-0.1422215,0.4083099-0.1422215,0.5854187,0l6.121582,4.7347889
					c0.1243134,0.0885658,0.1862488,0.2124481,0.1862488,0.3721142V26.8860016z"/>
			</g>
		</g>
	</g>
</g>
<g id="Слой_2">
	<g>
		<path fill="#2C2C2C" d="M220.732605,22.0195999v34.4052734h-6.4780273V42.2212601h-16.3149414v14.2036133h-6.4779053V22.0195999
			h6.4779053v14.1555176h16.3149414V22.0195999H220.732605z"/>
		<path fill="#2C2C2C" d="M228.385437,37.5427933c1.1037598-1.9350586,2.6309814-3.4509277,4.5826416-4.5466309
			c1.9512939-1.095459,4.1585693-1.6435547,6.6219482-1.6435547c2.4628906,0,4.6702881,0.5480957,6.6218262,1.6435547
			c1.9512939,1.0957031,3.4790039,2.6115723,4.5826416,4.5466309c1.1036377,1.9355469,1.6555176,4.126709,1.6555176,6.5739746
			s-0.5518799,4.6386719-1.6555176,6.5739746c-1.1036377,1.9355469-2.6313477,3.4511719-4.5826416,4.5463867
			c-1.9515381,1.0959473-4.1589355,1.6435547-6.6218262,1.6435547c-2.4633789,0-4.6706543-0.5476074-6.6219482-1.6435547
			c-1.9516602-1.0952148-3.4788818-2.6108398-4.5826416-4.5463867c-1.1036377-1.9353027-1.6553955-4.126709-1.6553955-6.5739746
			S227.2817993,39.4783401,228.385437,37.5427933z M233.711853,47.5716019
			c0.5758057,1.0239258,1.3795166,1.8234863,2.4112549,2.3991699c1.0316162,0.5759277,2.1870117,0.8637695,3.4669189,0.8637695
			c1.2955322,0,2.4550781-0.2878418,3.4788818-0.8637695c1.0234375-0.5756836,1.8233643-1.3752441,2.399292-2.3991699
			c0.5758057-1.0234375,0.8636475-2.1750488,0.8636475-3.454834c0-1.279541-0.2878418-2.4311523-0.8636475-3.4550781
			c-0.5759277-1.0234375-1.3796387-1.8232422-2.4112549-2.3991699c-1.0317383-0.5756836-2.1875-0.8637695-3.4669189-0.8637695
			c-1.2956543,0-2.4555664,0.2880859-3.4790039,0.8637695c-1.0238037,0.5759277-1.8233643,1.3757324-2.3991699,2.3991699
			c-0.5758057,1.0239258-0.8637695,2.1755371-0.8637695,3.4550781
			C232.8480835,45.396553,233.1360474,46.5481644,233.711853,47.5716019z"/>
		<path fill="#2C2C2C" d="M289.2062378,32.528389c1.199585,0.8000488,2.1113281,1.923584,2.7351074,3.3708496
			c0.6237793,1.4477539,0.9356689,3.1394043,0.9356689,5.0744629v15.4511719h-6.1420898V41.309639
			c0-1.4396973-0.2961426-2.4711914-0.8876953-3.0949707c-0.5919189-0.6240234-1.4316406-0.935791-2.519165-0.935791
			c-0.9117432,0-1.8077393,0.2158203-2.6872559,0.6477051c-0.8797607,0.4318848-1.647583,1.0959473-2.3032227,1.9914551
			c0.0157471,0.2241211,0.0240479,0.5759277,0.0240479,1.0556641v15.4511719h-6.1181641V41.309639
			c0-2.6872559-1.1437988-4.0307617-3.4309082-4.0307617c-0.8959961,0-1.7874756,0.2199707-2.6751709,0.659668
			c-0.8876953,0.4401855-1.6756592,1.1157227-2.3632812,2.0275879v16.4587402h-6.118042V31.7605667h3.8867188
			c0.8157959,0,1.3874512,0.2241211,1.7154541,0.671875c0.3277588,0.447998,0.4997559,1.0397949,0.5158691,1.7753906
			c0.9436035-0.8793945,1.9831543-1.5793457,3.1190186-2.0993652c1.135498-0.5195312,2.2792969-0.7797852,3.4309082-0.7797852
			c1.5836182,0,2.9589844,0.3520508,4.126709,1.0556641c1.1674805,0.7041016,2.0791016,1.6955566,2.7352295,2.9750977
			c0.9915771-1.1835938,2.1671143-2.151123,3.5268555-2.9030762c1.359375-0.751709,2.7351074-1.1276855,4.126709-1.1276855
			C286.5508423,31.3286819,288.0065308,31.7288284,289.2062378,32.528389z"/>
		<path fill="#2C2C2C" d="M322.2313843,45.4243851c-0.4719238,0.5517578-1.0837402,0.8276367-1.8354492,0.8276367h-16.0509033
			c0.3995361,1.4558105,1.1793213,2.6115723,2.3392334,3.467041c1.1595459,0.8557129,2.546875,1.2834473,4.1627197,1.2834473
			c0.9434814,0,1.991333-0.279541,3.1429443-0.8395996c0.607666-0.2880859,1.199707-0.4318848,1.7755127-0.4318848
			s1.1235352,0.1359863,1.6434326,0.4077148c0.5196533,0.2722168,0.9555664,0.6801758,1.3076172,1.2236328l1.2236328,1.8474121
			c-1.0556641,1.119873-2.3955078,2.0117188-4.0187988,2.675293c-1.6235352,0.6635742-3.3150635,0.9956055-5.0743408,0.9956055
			c-2.4633789,0-4.6706543-0.5476074-6.6219482-1.6435547c-1.9516602-1.0952148-3.4788818-2.6108398-4.5826416-4.5463867
			c-1.1036377-1.9353027-1.6553955-4.126709-1.6553955-6.5739746c0-2.4150391,0.5476074-4.5947266,1.6434326-6.5380859
			c1.095459-1.9433594,2.611084-3.4667969,4.5466309-4.5705566c1.9350586-1.1035156,4.1105957-1.6555176,6.5258789-1.6555176
			c2.3190918,0,4.3944092,0.5080566,6.2260742,1.5236816c1.8312988,1.0158691,3.2750244,2.439209,4.3306885,4.2705078
			c1.0556641,1.8317871,1.6074219,3.9150391,1.6555176,6.2502441
			C322.9309692,44.196846,322.7029419,44.8723831,322.2313843,45.4243851z M316.5571899,41.5974808
			c-0.4000244-1.3435059-1.1239014-2.4069824-2.1713867-3.190918c-1.0477295-0.7834473-2.2755127-1.1757812-3.6828613-1.1757812
			c-1.6794434,0-3.1032715,0.4799805-4.2706299,1.4396973c-1.1677246,0.9597168-1.911499,2.2473145-2.2313232,3.862793h0.0720215
			c0.4798584-0.6237793,1.1914062-0.935791,2.135376-0.935791H316.5571899z"/>
		<path fill="#2C2C2C" d="M329.0209351,55.93293c-1.52771-0.6315918-2.8911133-1.4912109-4.0906982-2.5791016l0.9836426-1.9672852
			c0.2717285-0.4799805,0.6395264-0.8596191,1.1036377-1.1396484c0.4637451-0.2797852,0.9836426-0.4199219,1.5595703-0.4199219
			c0.3995361,0,0.7995605,0.0720215,1.199585,0.2158203l0.7197266,0.2880859
			c0.7835693,0.3200684,1.463623,0.5720215,2.0394287,0.7556152c0.5758057,0.184082,1.1834717,0.2758789,1.8233643,0.2758789
			c0.9117432,0,1.6274414-0.1955566,2.1473389-0.5876465c0.5196533-0.3918457,0.7797852-0.9555664,0.7797852-1.6916504
			c0-0.527832-0.2481689-0.9992676-0.7437744-1.4155273c-0.4959717-0.4157715-1.3195801-0.8395996-2.4711914-1.2714844
			c-1.9674072-0.7036133-3.4909668-1.423584-4.5705566-2.1594238c-1.0797119-0.7355957-1.831665-1.543457-2.2553711-2.4230957
			c-0.4239502-0.8796387-0.6357422-1.9353027-0.6357422-3.1669922c0-1.4553223,0.3238525-2.7353516,0.9716797-3.8388672
			c0.6478271-1.1037598,1.5793457-1.9553223,2.795166-2.5551758c1.215332-0.5998535,2.6469727-0.8999023,4.2945557-0.8999023
			c1.3436279,0,2.7030029,0.2321777,4.0787354,0.6958008c1.3754883,0.4641113,2.5432129,1.1359863,3.5029297,2.0153809
			l-1.0076904,2.0634766c-0.2398682,0.4958496-0.5919189,0.8840332-1.0556641,1.1635742
			c-0.4641113,0.2800293-0.9758301,0.4199219-1.5355225,0.4199219c-0.2878418,0-0.6320801-0.0559082-1.0316162-0.1679688
			c-0.2399902-0.0637207-0.512085-0.1518555-0.8157959-0.263916c-0.4641113-0.144043-0.8157959-0.2478027-1.0556641-0.3120117
			c-0.2398682-0.0637207-0.5039062-0.0959473-0.791748-0.0959473c-0.7359619,0-1.2996826,0.1523438-1.6915283,0.4558105
			c-0.3920898,0.3041992-0.5877686,0.7521973-0.5877686,1.34375c0,0.4797363,0.2159424,0.8918457,0.6478271,1.2355957
			c0.4318848,0.3439941,1.2236328,0.7077637,2.3752441,1.0915527c2.6069336,0.8637695,4.5465088,1.9074707,5.8181152,3.1311035
			s1.9074707,2.8273926,1.9074707,4.8105469c0,1.5515137-0.3880615,2.927002-1.1636963,4.126709
			c-0.776001,1.1994629-1.8713379,2.1352539-3.2869873,2.8071289c-1.4155273,0.6716309-3.0511475,1.0075684-4.9063721,1.0075684
			C332.2317505,56.8806839,330.5481567,56.5647659,329.0209351,55.93293z"/>
	</g>
	<g>
		<path fill="#2C2C2C" d="M35.8203125,56.4248734h-4.6305542c-0.7677612,0-1.4597778-0.2038574-2.0753784-0.6118164
			c-0.6159058-0.407959-1.0758667-0.9794922-1.3795166-1.7155762l-2.0393677-4.7263184H10.1483154l-2.0393066,4.7263184
			c-0.3201904,0.736084-0.7880249,1.3076172-1.4035645,1.7155762c-0.6159668,0.407959-1.3076172,0.6118164-2.0753784,0.6118164
			h-4.6305542l15.0432739-34.4291992h5.7342529L35.8203125,56.4248734z M23.3201904,43.9487991l-4.3186035-9.980957
			c-0.3520508-0.831543-0.5998535-1.5595703-0.7437744-2.1833496c-0.1439819-0.6237793-0.2159424-1.3112793-0.2159424-2.0632324
			h-0.2399292c-0.0161133,0.7678223-0.0959473,1.463623-0.2399292,2.0874023
			c-0.1439209,0.6237793-0.3920898,1.3435059-0.7437744,2.1591797l-4.3186035,9.980957H23.3201904z"/>
		<path fill="#2C2C2C" d="M57.9291992,32.9602737c1.6393433,1.0878906,2.9151001,2.5993652,3.8267822,4.5344238
			c0.9117432,1.9355469,1.3676147,4.1188965,1.3676147,6.5500488c0,2.4472656-0.5001221,4.638916-1.4995728,6.5739746
			c-0.9997559,1.9355469-2.387207,3.4511719-4.1626587,4.5466309c-1.7754517,1.0957031-3.7908325,1.6433105-6.0461426,1.6433105
			c-1.199585,0-2.3234863-0.236084-3.3709106-0.7077637c-1.0477905-0.4714355-1.9793701-1.0993652-2.795166-1.8833008v10.8444824
			h-6.118042V31.7605667h3.8867798c0.8475952,0,1.4312744,0.2519531,1.7514648,0.7558594
			c0.3197632,0.5036621,0.4797974,1.1557617,0.4797974,1.9553223v0.0239258
			c0.9274902-0.9753418,1.9831543-1.7473145,3.1670532-2.3151855c1.1834717-0.567627,2.4869385-0.8518066,3.9107666-0.8518066
			C54.4221802,31.3286819,56.2894897,31.8726273,57.9291992,32.9602737z M53.9584351,49.9707718
			c0.9597168-0.5756836,1.7072144-1.3793945,2.2432861-2.4111328c0.5357056-1.0317383,0.803772-2.1870117,0.803772-3.4667969
			c0-1.279541-0.263916-2.4191895-0.791748-3.4189453c-0.527832-0.9995117-1.2595825-1.7792969-2.1953125-2.3393555
			c-0.93573-0.5598145-1.9876099-0.8398438-3.1550293-0.8398438c-2.1113281,0-3.9827271,1.0400391-5.6142578,3.1191406v7.7016602
			c0.5117188,0.6237793,1.2716064,1.1994629,2.2792969,1.7272949s2.071228,0.791748,3.19104,0.791748
			C51.9190674,50.8345413,52.9987793,50.5466995,53.9584351,49.9707718z"/>
		<path fill="#2C2C2C" d="M86.5877686,34.0159378c1.6951904,1.7753906,2.5431519,4.3828125,2.5431519,7.8215332v14.6113281
			h-3.4309082c-0.8479614,0-1.5036621-0.2915039-1.9674072-0.8757324c-0.4640503-0.5837402-0.711853-1.3232422-0.7437134-2.2192383
			c-1.0879517,1.0878906-2.2913208,1.9475098-3.6109009,2.5791016c-1.3195801,0.6318359-2.7471313,0.9477539-4.2826538,0.9477539
			c-1.4556885,0-2.8033447-0.3320312-4.0427246-0.9956055c-1.2397461-0.6635742-2.2275391-1.5715332-2.9630737-2.7231445
			c-0.7359009-1.1516113-1.1036377-2.4072266-1.1036377-3.7668457c0-2.4150391,0.819458-4.3024902,2.4592285-5.6623535
			c1.6393433-1.3591309,4.0505981-2.0393066,7.2337036-2.0393066c0.7516479,0,1.7634277,0.064209,3.0350342,0.1918945
			c1.2716064,0.128418,2.3632812,0.3120117,3.2750244,0.552002c0-1.871582-0.3718872-3.2348633-1.1156616-4.0908203
			c-0.7437744-0.8554688-1.9074097-1.2836914-3.4909058-1.2836914c-0.8480225,0-1.6157837,0.0683594-2.3032837,0.2041016
			c-0.6879272,0.1359863-1.463562,0.380127-2.3272705,0.7316895c-0.4798584,0.1762695-0.93573,0.263916-1.3676147,0.263916
			c-0.5919189,0-1.1358643-0.1437988-1.6314697-0.4318848c-0.4959717-0.2878418-0.8798218-0.6958008-1.1516113-1.2236328
			l-0.93573-1.9672852c0.687561-0.6557617,1.62323-1.2314453,2.8071289-1.7275391
			c1.1834717-0.4956055,2.4509888-0.8793945,3.8027954-1.1516113c1.3514404-0.2717285,2.6271973-0.407959,3.8268433-0.407959
			C82.3969116,31.3526077,84.8921509,32.2405472,86.5877686,34.0159378z M79.9298096,50.8945999
			c1.1115723-0.487793,2.1312256-1.0996094,3.059082-1.8354492v-2.5910645
			c-1.5516357-0.3996582-3.3349609-0.5998535-5.3503418-0.5998535c-1.6157227,0-2.8191528,0.2319336-3.6109009,0.6958008
			c-0.791748,0.4641113-1.1876221,1.2558594-1.1876221,2.3752441c0,0.8479004,0.3359375,1.5078125,1.0076904,1.979248
			c0.671814,0.472168,1.5512695,0.7077637,2.6391602,0.7077637C77.6704102,51.6262894,78.8179321,51.382637,79.9298096,50.8945999z"
			/>
		<path fill="#2C2C2C" d="M110.9160156,31.5686722c0.6395264,0.1601562,1.3195801,0.3837891,2.0393677,0.671875
			l-0.5758057,2.7109375c-0.1600952,0.7521973-0.5038452,1.3557129-1.0316772,1.8115234s-1.1437988,0.6838379-1.8474121,0.6838379
			c-0.1121216,0-0.2800903-0.0158691-0.5038452-0.0480957c-0.512085-0.079834-1.0556641-0.119873-1.6315308-0.119873
			c-1.1036377,0-2.0873413,0.3081055-2.9510498,0.923584c-0.8637085,0.6159668-1.5834961,1.4599609-2.1593628,2.53125v15.6911621
			h-6.118042V31.7605667h3.4309082c0.9915771,0,1.6873779,0.2722168,2.0873413,0.8156738
			c0.3996582,0.5439453,0.5997925,1.2319336,0.5997925,2.0634766v0.0478516
			c0.8157959-1.0395508,1.7634888-1.859375,2.8431396-2.4592285c1.0796509-0.5996094,2.2590332-0.8996582,3.5388794-0.8996582
			C109.5162354,31.3286819,110.276123,31.4090042,110.9160156,31.5686722z"/>
		<path fill="#2C2C2C" d="M134.6680298,54.1216507c-2.8154297,1.8395996-5.6464844,2.7590332-8.4934082,2.7590332
			c-1.567749,0-2.9390869-0.3278809-4.1147461-0.9836426c-1.1755371-0.6557617-2.0835571-1.5993652-2.7230835-2.8310547
			c-0.6399536-1.2314453-0.9597168-2.6872559-0.9597168-4.3666992V37.4707718h-4.1746826V33.728096
			c0-0.6240234,0.2039185-1.1074219,0.6118164-1.4516602c0.4078369-0.34375,0.8596191-0.5158691,1.3555908-0.5158691h2.2072754
			l0.2399292-5.9501953c0.0479736-0.7036133,0.2519531-1.2873535,0.6118164-1.7514648
			c0.3598633-0.463623,0.9237061-0.6958008,1.6914062-0.6958008h3.6229248v8.3974609h6.7178955v5.7102051h-6.7178955v9.980957
			c0,1.1516113,0.2879639,2.0314941,0.8637695,2.6391602c0.5758057,0.6079102,1.3353271,0.9116211,2.2792969,0.9116211
			c0.4156494,0,0.819458-0.0637207,1.2115479-0.1918945c0.3917236-0.1279297,0.8116455-0.3037109,1.2596436-0.527832
			c0.4318848-0.2077637,0.8876953-0.3120117,1.3675537-0.3120117c0.5117188,0,0.963501,0.128418,1.3555908,0.3840332
			c0.3917236,0.2561035,0.6676025,0.6079102,0.8277588,1.0556641L134.6680298,54.1216507z"/>
	</g>
	<g>
	</g>
	<g>
	</g>
	<g>
	</g>
	<g>
	</g>
	<g>
	</g>
	<g>
	</g>
	<g>
	</g>
	<g>
	</g>
	<g>
	</g>
	<g>
	</g>
	<g>
	</g>
</g>
</svg>
