<?xml version="1.0" encoding="utf-8"?>
<!-- Generator: Adobe Illustrator 22.0.0, SVG Export Plug-In . SVG Version: 6.00 Build 0)  -->
<svg version="1.1" xmlns="http://www.w3.org/2000/svg" xmlns:xlink="http://www.w3.org/1999/xlink" x="0px" y="0px"
	 viewBox="0 0 521 518.9" style="enable-background:new 0 0 521 518.9;" xml:space="preserve">
<style type="text/css">
	.st0{fill:#BD242B;}
	.st1{stroke:#000000;stroke-width:9;stroke-miterlimit:10;}
</style>
<g id="Capa_1">
	<path class="st0" d="M365.8,355.6c-4.3-0.9-8,1.2-11.1,4c-2.2-1.2-4.9-1.1-6.1,1.8c-1.8,4.2-3.7,8.3-5.8,12.3
		c-0.1,0.1-0.1,0.2-0.2,0.3c-2,2.7-4.5,5.3-4,8.9c0.2,2.1,1.7,3.8,3.4,4.6c-0.1,0.4-0.1,0.8-0.2,1.2c-0.5,2.6-0.2,2.1-2.3,2.6
		c-1.9,0.5-4.3,0.2-6.3,0.3c-3.4,0.1-6.8,4.3-4.3,7.5c0.3,0.4,0.7,0.9,1,1.3c-2.8,3.7-4,8.5-5.8,13.3c-3.6,9.4-10.8,16.9-17.6,24.1
		c-4.4,4.7,2.6,11.8,7.1,7.1c4-4.3,8.1-8.7,11.7-13.4c1,0.2,2.2,0,3.5-0.8c4.3-2.9,8.7-5.7,12.9-8.7c2.6-1.9,5.3-4,5.9-7.4
		c0.8-4.3-1.6-9-4.5-13.2c0-0.1,0-0.2-0.1-0.3c2.6-0.5,4.9-1.4,6.4-3.4c1.6-2.1,1.8-4.8,2.2-7.3c0.7-3.5,1.3-7.1,2-10.6
		c0-0.2,0.1-0.3,0.1-0.5c0.1,0.1,0.2,0.1,0.4,0.1c0,0,0,0,0,0c0.5,0.5,0.9,1,1.4,1.5c3.6,3.9,9-0.2,8.4-4.4
		C370.9,370.5,374.9,357.5,365.8,355.6z"/>
	<path class="st0" d="M496.8,471.6c-0.4-0.4-0.8-0.8-1.2-1c0-2.6-0.1-5.1,0-7.5c0.1-7.7,0-15.4-0.9-23.1
		c-2.6-23.8-12.8-48.5-35-60.1c-6.1-3.2-12.8-5.2-19.7-6.8c-7.3-2.2-14.9-3.5-22.5-4.8c-10.4-2.5-20.3-5.9-28.5-13
		c-4.3-3.7-10.5,0.9-7.9,6.1c4.2,8.1,9.6,17.9,8,27.4c-0.7,4.2-3.4,8.6-7.1,10.9c-4.1-1.2-8.2-0.8-12,1.8c-3.4,2.4-3.2,7.9,1.2,9.1
		c0.2,0.1,0.4,0.1,0.6,0.2c0,1.8,0.1,3.7-0.6,5.5c-1.7,4.5-7.8,8-11.3,10.9c-4.9,4-9.8,8-14.6,12c-15.9,13.1-31.8,26.2-47.7,39.3
		c-2.3,0.2-4.5,0.6-6.5,1.4c-4.8,1.9-8.9,6.4-6.8,11.8c0.8,2,2.5,3.7,4.8,3.7l70.8-1.5c1.2,0,2.1-0.4,2.9-0.9
		c5.2,0.6,10.3,1.2,15.5,1.8c28.5,3.2,57.4,6,86.1,2.5c5-0.6,11.4-1,17.1-2.6c0.9,0.7,2,1.2,3.2,1.3c5.8,0.7,12-2.5,14.6-7.8
		C502.2,482.7,500.8,476.3,496.8,471.6z"/>
	<path class="st0" d="M214,427.2c-1-0.7-2-1.1-3-1.5c-7.2-9.1-13.6-18.6-19.4-28.7c-3.5-6.1-6.4-12.6-10.3-18.4
		c-3.2-4.8-9.5-9.7-9.8-15.7c-0.2-3.7-3.2-5.3-6-4.7c-1.1-0.3-2.4-0.2-3.6,0.5c-1.8,1-3,2.2-3.9,3.9c-0.5,0.9-0.7,1.9-0.6,2.7
		c-1.4,2.5-2.6,5.1-2.8,7.7c-3,3.7,0.1,9.3,5,8.1c0,0,0.1,0,0.1,0c2.8,1.8,6.4,3,8.9,2.9c1.4,0,2.6-0.5,3.5-1.1
		c2.7,3.9,4.8,8,7,12.2c-0.1,0.1-0.3,0.1-0.4,0.2c-4.9,2.7-5.1,7.5-3.5,12.1c-0.5,1.7-1.2,3.4-2.2,5.1c-1.6,2.9-0.1,6.4,3,7.3
		c5.9,1.7,10.2,6.3,15.2,9.6c0.7,0.4,1.4,0.8,2,1.2c3.9,5.3,8.8,9.8,14.5,13.3c2.8,1.7,5.4,0.4,6.6-1.8c2.3-0.4,4.4-2.6,4.6-5
		C219.3,433.1,217.3,429.5,214,427.2z"/>
	<path class="st0" d="M233.5,485.5c-9.3-2-17.7-4.4-24.9-10.8c-7.6-6.7-14.3-14.4-21.3-21.7c-7.3-7.6-14.7-15.2-22-22.9
		c-0.2-0.3-0.5-0.5-0.7-0.8c0.2-1.4-0.1-2.9-1.3-4.2c-2.6-2.8-5.2-5.7-7.9-8.5c-1.4-3.5-1.9-7.3-0.4-11.3c1.3-3.9-2.7-6.8-6.2-6.2
		c-3.6,0.7-7.7,1.7-11.3,0.7c-0.1,0-0.3-0.1-0.5-0.1c-0.5-0.4-1-0.8-1.6-1.2c-0.1-0.1-0.3-0.2-0.4-0.3c-0.6-0.5-1.3-0.9-1.9-1.4
		c-0.5-0.8-0.7-1.8-0.3-2.7c1.6-3.7-1.1-7-4.1-7.6c0.1-0.2,0.2-0.4,0.3-0.7c1.7-0.6,3.1-2.1,3.1-4.5c0-1,0-1.9,0-2.9
		c2-5,3.8-10.1,5.4-15.3c0,0,0,0,0,0c2.5-0.6,4.8-1.5,7.1-2.7c4.9-2.6,1.6-11-3.9-9.1c-2,0.7-3.9,1.4-5.9,2.2
		c-1.6-0.4-3.3-0.1-4.7,1.2c0,0-0.1,0.1-0.1,0.1c-4.9,0.9-10.1,1.1-14.6,1.8c-8.7,1.3-17.4,2.8-26,5c-14.9,3.9-29.1,10.2-40.9,20.3
		c-2,1.7-1.9,4-0.8,5.8c-3.1,3.6-5.8,7.4-8.2,11.4c-1.2,1-2.3,2-3.5,3.1c-1.6,1.5-1.8,3.6-1,5.3c-4,8.2-6.9,16.9-9.2,25.8
		c-0.9,3.3-1.6,6.6-2.3,10c-1.5,2.2-2.9,4.5-4.3,6.8c-1.8,2.9-0.2,5.7,2.1,6.8c-0.1,1.1-0.3,2.1-0.4,3.2c-0.7,1.6-1.3,3.1-1.9,4.7
		c-2.8,7.2-3.9,15.3,0.9,21.8c0,1.6,0.1,3.3,0.2,4.9c0.3,5.6,7.9,6.3,9.6,2.2c2.2,0.8,4.4,1.4,6.7,1.7c17.7,2.8,36.3-1.4,54.1-1.6
		c19.7-0.2,39.3,1.3,58.9,2.9c1,0.1,1.9-0.1,2.6-0.5l80.1-0.6C237.6,495.3,239.1,486.7,233.5,485.5z"/>
	<g>
		<g>
			<path class="st1" d="M245.7,382.3c-3.9-2.8-9.3-2-12.1,1.9l-1.1,1.5c-2.8,3.9-2,9.3,1.8,12.1c1.5,1.1,3.3,1.7,5.1,1.7
				c2.7,0,5.3-1.2,7-3.5l1.1-1.5C250.4,390.6,249.6,385.2,245.7,382.3z"/>
		</g>
	</g>
	<g>
		<g>
			<path class="st1" d="M248,464.7l-22.3-40.5l20.8-28.3c2.8-3.9,2-9.3-1.9-12.1c-3.9-2.8-9.3-2-12.1,1.9l-24.1,32.8
				c-2,2.7-2.2,6.3-0.6,9.3l24.9,45.3v0c1.6,2.9,4.5,4.5,7.6,4.5c1.4,0,2.8-0.3,4.2-1.1C248.8,474.2,250.3,468.9,248,464.7z"/>
		</g>
	</g>
	<g>
		<g>
			<path class="st1" d="M312.5,418.4l-24-32.6c-2-2.7-5.4-4-8.6-3.4c-3.3,0.6-5.9,3.1-6.7,6.4c-0.6,2.5-0.1,5.1,1.4,7.2l20.7,28.2
				l-22.1,40.2c-0.7,1.3-1.1,2.7-1.1,4.2c0,4,2.7,7.4,6.5,8.4c0.7,0.2,1.4,0.3,2.2,0.3c3.1,0,6-1.7,7.6-4.5l24.8-45
				C314.7,424.8,314.5,421.1,312.5,418.4z"/>
		</g>
	</g>
	<g>
		<g>
			<path class="st1" d="M326.2,282.4c-2.8-1.5-6.3-1.3-8.9,0.5c-5.1,3.5-9.9,7.3-14.2,11.2c-23.3,21.1-45.4,18.2-46.3,18.1
				c-0.5-0.1-1.1-0.1-1.6-0.1c-9.2,0.2-25.8-8.2-43.4-22c-2.7-2.1-5.4-4.1-8.2-6c-2.7-1.8-6.1-2-8.9-0.5c-2.8,1.5-4.6,4.4-4.6,7.6
				V321c0,2.6,1.2,5.1,3.2,6.8c0.2,0.2,0.5,0.4,0.8,0.5l61.4,41c0,0,0,0,0,0l0.2,0.1c1.4,1,3.1,1.4,4.8,1.4c1.4,0,2.8-0.3,4.1-1
				c0.3-0.1,0.5-0.3,0.8-0.5c0,0,0.1,0,0.1-0.1c0,0,0.1,0,0.1-0.1l61.2-40.9c0.2-0.2,0.5-0.3,0.7-0.5c2.1-1.6,3.3-4.2,3.3-6.8v-31
				C330.9,286.8,329.1,283.9,326.2,282.4z M313.5,316.4l-53,35.4l-53-35.4v-7.9c12.9,9.4,31.9,20.9,47.4,20.9c0,0,0.1,0,0.1,0
				c5.2,0.6,31.7,2.1,58.6-21.4L313.5,316.4L313.5,316.4z"/>
		</g>
	</g>
	<g>
		<g>
			<path class="st1" d="M269,360.8c-0.6-3.4-3.1-6.2-6.5-7c-3.4-0.8-6.9,0.5-9,3.3l-19.9,27.1c-2.8,3.9-2,9.3,1.9,12.1
				c1.5,1.1,3.3,1.7,5.1,1.7c2.7,0,5.3-1.2,7-3.5l19.8-27c1.1-1.5,1.8-3.3,1.8-5.3C269.2,361.8,269.1,361.3,269,360.8z"/>
		</g>
	</g>
	<g>
		<g>
			<path class="st1" d="M392.4,81.7c-0.2-1.4-4.2-30.6-31.8-42.2c0.8-5.1,0.7-11.7-2.5-18.2c-4.4-8.6-13-14.3-25.7-16.7
				c-0.5-0.1-1.1-0.2-1.7-0.2H214.5c-47.2,0-85.6,38.4-85.6,85.6v45.6c0,11.9,4,23.5,11.4,32.6c3.6,4.5,8.1,12.5,8.8,24.4
				c0.3,4.7,4.2,8.3,8.9,8.2c4.7-0.1,8.4-4,8.4-8.7v-59.4c5.9-24.3,25.9-29,29.4-29.7h37.6c4.4,0,8.8-0.7,12.9-2
				c7.1-2.3,18.5-6.5,26.7-9.6c5.5-2.1,11.6-2.2,17.2-0.2l40.2,14.1c20.1,7.4,23.7,25.1,24.1,27.9v71.3c0,4.5,3.5,8.3,8,8.6
				c0.2,0,0.4,0,0.7,0c4.2,0,7.9-3.1,8.6-7.4c0-0.2,3.5-22.6,14.6-40.4c3.9-6.2,5.9-13.3,5.9-20.5V82.8
				C392.5,82.5,392.4,82.1,392.4,81.7z M375.1,144.9c0,3.9-1.1,7.7-3.2,11.1v-23.4c0-0.3,0-0.6-0.1-0.9c-0.1-1.3-3.7-30.9-35.5-42.6
				c0,0-0.1,0-0.1,0L296,74.9c-4.5-1.6-9.3-2.4-14-2.4c-5.1,0-10.2,0.9-15,2.8c-11.6,4.4-20.5,7.6-25.9,9.3c-2.4,0.8-5,1.2-7.6,1.2
				h-38.3c-0.4,0-0.7,0-1.1,0.1c-1.5,0.2-36,5.1-44.7,44c-0.1,0.6-0.2,1.3-0.2,1.9v17.8c-1.9-4.4-2.9-9.1-2.9-14V90.1
				c0-37.6,30.6-68.2,68.2-68.2h115.3c4.8,1,10.6,3.1,12.8,7.4c2.7,5.2-0.4,12.4-0.4,12.4c-1.1,2.4-1.1,5.1,0,7.4
				c1.1,2.3,3.2,4.1,5.8,4.7c22,5.3,26.5,26.4,27.1,29.9L375.1,144.9L375.1,144.9z"/>
		</g>
	</g>
	<g>
		<g>
			<path class="st1" d="M371.9,131.7c-0.1-1.3-3.7-30.9-35.5-42.6c0,0-0.1,0-0.1,0L296,74.9c-9.4-3.3-19.8-3.2-29.1,0.4
				c-11.6,4.4-20.5,7.6-25.9,9.3c-2.4,0.8-5,1.2-7.6,1.2h-38.3c-0.4,0-0.7,0-1.1,0.1c-1.5,0.2-36,5.1-44.7,44
				c-0.1,0.6-0.2,1.3-0.2,1.9v74.4c0,0.1,0,0.1,0,0.2c0.1,2.6,1.9,63.6,44.1,91.6l0.2,0.2c0.2,0.1,0.4,0.3,0.6,0.4
				c2.4,1.6,4.8,3.4,7.2,5.2c12.3,9.6,35.4,25.7,53.7,25.7c0,0,0.1,0,0.1,0c1,0.1,2.8,0.3,5.2,0.3c10.4,0,32.4-2.7,54.6-22.7
				c3.7-3.4,7.9-6.6,12.4-9.8l0.6-0.5c0.2-0.1,0.4-0.3,0.6-0.4c14.1-9.5,38.4-33.8,43.6-91c0-0.3,0-0.5,0-0.8v-71.9
				C372,132.3,372,132,371.9,131.7z M354.7,204.2c-4.7,51.6-26.7,71.6-35.9,77.8c-0.3,0.2-0.7,0.4-1,0.7l-0.5,0.3
				c-5.1,3.5-9.9,7.3-14.2,11.2c-23.2,21-45.3,18.2-46.4,18.1c-0.5-0.1-1-0.1-1.5-0.1c-9.2,0.2-25.8-8.2-43.4-22
				c-2.7-2.1-5.4-4.1-8.2-6l-0.2-0.1c-0.2-0.1-0.4-0.3-0.7-0.5c-34-22.5-36.3-75.2-36.3-77.4v-73.3c5.9-24.4,26.1-29.1,29.4-29.7
				h37.6c4.4,0,8.8-0.7,12.9-2c7.1-2.3,18.5-6.5,26.7-9.6c5.5-2.1,11.6-2.2,17.2-0.2l40.2,14.1c20.1,7.4,23.7,25.1,24.1,27.9
				L354.7,204.2L354.7,204.2z"/>
		</g>
	</g>
	<g>
		<g>
			<path class="st1" d="M268.2,358.4c-1.3-2.7-4-4.5-7-4.8c-3-0.2-5.9,1.1-7.7,3.5l-20.7,28.2c-2.8,3.9-2,9.3,1.8,12.1
				c1.5,1.1,3.3,1.7,5.1,1.7c2.7,0,5.3-1.2,7-3.5l20.7-28.1c1.1-1.5,1.7-3.4,1.7-5.2C269.2,360.9,268.8,359.6,268.2,358.4z"/>
		</g>
	</g>
	<g>
		<g>
			<path class="st1" d="M268.8,497.7c-3.3-3.4-8.6-3.6-12.1-0.4l-2,1.8c-3,2.7-3.7,7.1-1.7,10.6l0.1,0.1c1.3,2.4,3.7,4,6.4,4.4
				c0.4,0.1,0.8,0.1,1.2,0.1c2.3,0,4.5-0.9,6.1-2.5l1.9-1.9C272,506.5,272.1,501.1,268.8,497.7z"/>
		</g>
	</g>
	<g>
		<g>
			<path class="st1" d="M266.3,499.1l-2-1.8c-3.5-3.2-8.8-3-12.1,0.4c-3.3,3.4-3.2,8.8,0.1,12.1l1.9,1.9c1.6,1.6,3.8,2.5,6.1,2.5
				c0.4,0,0.8,0,1.2-0.1c2.7-0.4,5.1-2,6.4-4.4l0.1-0.1C269.9,506.2,269.2,501.8,266.3,499.1z"/>
		</g>
	</g>
	<g>
		<g>
			<path class="st1" d="M266.4,499.3L266.4,499.3c-1.3-1.3-3.1-2.1-5-2.3c-2.6-0.3-5,0.6-6.8,2.3l0,0c-1.8,1.6-2.8,3.8-2.8,6.2
				c-0.1,2.4,0.9,4.7,2.6,6.3l0.1,0.1c1.7,1.7,3.9,2.5,6.1,2.5c2.2,0,4.4-0.8,6.1-2.5l0.1-0.1c1.7-1.7,2.6-4,2.5-6.3
				C269.2,503.1,268.2,500.9,266.4,499.3z"/>
		</g>
	</g>
	<g>
		<g>
			<path class="st1" d="M263.3,353.8c-3.6-1.1-7.5,0.2-9.7,3.3c-2.4,3.4-2,8.1,0.9,11.1c1.7,1.7,3.9,2.5,6.1,2.5
				c1.7,0,3.5-0.5,5-1.6c2.3-1.6,3.7-4.3,3.7-7.1v0C269.3,358.3,266.9,355,263.3,353.8z"/>
		</g>
	</g>
	<g>
		<g>
			<path class="st1" d="M267.5,357l-0.1-0.1c-2.2-3-6.1-4.2-9.7-3.1c-3.5,1.2-5.9,4.5-5.9,8.2v0.1c0,3.2,1.8,6.1,4.6,7.6
				c1.3,0.7,2.7,1,4.1,1c1.7,0,3.4-0.5,4.8-1.5c2-1.3,3.3-3.4,3.7-5.7C269.5,361.3,268.9,358.9,267.5,357z"/>
		</g>
	</g>
	<g>
		<g>
			<path class="st1" d="M363.5,329.8c-0.9-2.4-2.8-4.2-5.2-5.1l-33.2-11.9c-0.3-0.1-0.5-0.2-0.8-0.2c-2.4-0.6-4.9-0.2-6.9,1.2
				l-61.5,41.1c0,0,0,0-0.1,0l4.8,7.2l-4.9-7.1c-1.8,1.2-3.1,3-3.6,5.1c-0.3,1.2-0.3,2.4-0.1,3.5c0.2,1.3,0.8,2.6,1.6,3.7l45,61.3
				c1.6,2.2,4.2,3.5,7,3.5c0.2,0,0.4,0,0.6,0c2.9-0.2,5.6-1.9,7-4.5l49.9-90.6C364.2,334.9,364.4,332.2,363.5,329.8z M304.5,407.5
				l-31.6-43.1l50.5-33.8l19.5,7L304.5,407.5z"/>
		</g>
	</g>
	<g>
		<g>
			<path class="st1" d="M269,360.7c-0.4-2.3-1.7-4.4-3.7-5.7l-61.7-41.2c-2-1.3-4.4-1.8-6.7-1.3c-0.4,0.1-0.7,0.2-1,0.3l-33.2,11.9
				c-2.4,0.9-4.3,2.7-5.2,5.1c-0.9,2.4-0.7,5,0.5,7.2l49.9,90.6c1.4,2.6,4.1,4.3,7,4.5c0.2,0,0.4,0,0.6,0c2.7,0,5.3-1.3,7-3.5
				l24.1-32.8c0,0,0-0.1,0.1-0.1l20.9-28.5C268.9,365.4,269.4,363.1,269,360.7z M232.6,385.7C232.5,385.7,232.5,385.7,232.6,385.7
				l-16,21.8l-38.4-69.9l19.5-7l50.5,33.8L232.6,385.7z"/>
		</g>
	</g>
	<g>
		<g>
			<path class="st1" d="M516.1,477.6l-11.2-67.4c-3.5-21.3-18.3-39-38.5-46.3l-108-39.1c-3.3-1.2-7.1-0.3-9.4,2.4
				c-2.4,2.6-2.9,6.5-1.3,9.6l22.6,45.2l-22.1,0.3c-3,0-5.8,1.6-7.3,4.2c-1.5,2.6-1.6,5.8-0.2,8.4l9.1,17.3l-92.9,85
				c-0.1,0.1-0.2,0.2-0.3,0.3l-1.9,1.9c-2.7,2.7-3.3,6.9-1.5,10.3l0.1,0.1c1.5,2.8,4.4,4.5,7.6,4.5h224.2c9.3,0,18.1-4.1,24.1-11.2
				C515,496.1,517.6,486.8,516.1,477.6z M495.8,492c-2.7,3.2-6.7,5.1-10.9,5.1H282.6l83.6-76.5c2.9-2.7,3.6-6.9,1.8-10.4l-5.6-10.8
				l21.8-0.3c3,0,5.7-1.6,7.3-4.2c1.5-2.5,1.7-5.7,0.4-8.4l-19-38.2l87.7,31.7c14.4,5.2,24.9,17.8,27.4,32.9l11.2,67.4c0,0,0,0,0,0
				C499.7,484.6,498.5,488.8,495.8,492z"/>
		</g>
	</g>
	<g>
		<g>
			<path class="st1" d="M266.5,499.3l-0.1-0.1c-3.4-3.1-8.7-3-11.9,0.3l-0.1,0.1c-2.5,2.5-3.2,6.2-1.9,9.4c1.3,3.2,4.5,5.3,8,5.3
				h0.2c3.6,0,6.8-2.2,8.1-5.5C270.1,505.5,269.2,501.7,266.5,499.3z"/>
		</g>
	</g>
	<g>
		<g>
			<path class="st1" d="M266.2,499.1c-2-1.8-4.6-2.5-7.2-2.1c-2.6,0.4-4.9,2.1-6.1,4.4l-0.1,0.1c-1.8,3.3-1.3,7.5,1.4,10.2l0,0
				c1.7,1.8,4,2.6,6.2,2.6c2.1,0,4.2-0.8,5.8-2.3l0.1-0.1c0.8-0.7,1.4-1.6,1.9-2.5C270,506,269.1,501.7,266.2,499.1z"/>
		</g>
	</g>
	<g>
		<g>
			<path class="st1" d="M266.6,499.6L266.6,499.6c-0.1-0.1-0.1-0.1-0.1-0.1l-1.9-1.9c-0.1-0.1-0.2-0.2-0.3-0.3l-92.9-85l9.1-17.3
				c1.4-2.7,1.3-5.9-0.2-8.4c-1.5-2.6-4.3-4.2-7.3-4.2l-22.1-0.3l22.6-45.2c1.6-3.2,1.1-7-1.3-9.6s-6.1-3.6-9.4-2.4l-108,39.1
				c-20.3,7.3-35,25.1-38.5,46.3L4.9,477.6c-1.5,9.2,1.1,18.5,7.1,25.6c6,7.1,14.8,11.2,24.1,11.2h224.4c3.5,0,6.7-2.1,8-5.4
				C269.8,505.8,269.1,502.1,266.6,499.6z M36.1,497.1c-4.2,0-8.2-1.8-10.9-5.1c-2.7-3.2-3.9-7.4-3.2-11.6L33.2,413
				c2.5-15.1,13-27.7,27.4-32.9l87.7-31.7l-19,38.2c-1.3,2.7-1.2,5.8,0.4,8.4c1.5,2.5,4.3,4.1,7.3,4.2l21.8,0.3l-5.6,10.8
				c-1.8,3.5-1.1,7.8,1.8,10.4l83.6,76.5H36.1z"/>
		</g>
	</g>
</g>
<g id="Слой_2">
</g>
</svg>
