<svg xmlns="http://www.w3.org/2000/svg" viewBox="0 0 521 518.9"><style>.st0{fill:#bd242b}.st1{stroke:#000;stroke-width:9;stroke-miterlimit:10}</style><g id="Capa_1"><path class="st0" d="M365.8 355.6c-4.3-.9-8 1.2-11.1 4-2.2-1.2-4.9-1.1-6.1 1.8-1.8 4.2-3.7 8.3-5.8 12.3-.1.1-.1.2-.2.3-2 2.7-4.5 5.3-4 8.9.2 2.1 1.7 3.8 3.4 4.6-.1.4-.1.8-.2 1.2-.5 2.6-.2 2.1-2.3 2.6-1.9.5-4.3.2-6.3.3-3.4.1-6.8 4.3-4.3 7.5.3.4.7.9 1 1.3-2.8 3.7-4 8.5-5.8 13.3-3.6 9.4-10.8 16.9-17.6 24.1-4.4 4.7 2.6 11.8 7.1 7.1 4-4.3 8.1-8.7 11.7-13.4 1 .2 2.2 0 3.5-.8 4.3-2.9 8.7-5.7 12.9-8.7 2.6-1.9 5.3-4 5.9-7.4.8-4.3-1.6-9-4.5-13.2 0-.1 0-.2-.1-.3 2.6-.5 4.9-1.4 6.4-3.4 1.6-2.1 1.8-4.8 2.2-7.3.7-3.5 1.3-7.1 2-10.6 0-.2.1-.3.1-.5.1.1.2.1.4.1.5.5.9 1 1.4 1.5 3.6 3.9 9-.2 8.4-4.4 7-6 11-19 1.9-20.9z"/><path class="st0" d="M496.8 471.6c-.4-.4-.8-.8-1.2-1 0-2.6-.1-5.1 0-7.5.1-7.7 0-15.4-.9-23.1-2.6-23.8-12.8-48.5-35-60.1-6.1-3.2-12.8-5.2-19.7-6.8-7.3-2.2-14.9-3.5-22.5-4.8-10.4-2.5-20.3-5.9-28.5-13-4.3-3.7-10.5.9-7.9 6.1 4.2 8.1 9.6 17.9 8 27.4-.7 4.2-3.4 8.6-7.1 10.9-4.1-1.2-8.2-.8-12 1.8-3.4 2.4-3.2 7.9 1.2 9.1.2.1.4.1.6.2 0 1.8.1 3.7-.6 5.5-1.7 4.5-7.8 8-11.3 10.9-4.9 4-9.8 8-14.6 12l-47.7 39.3c-2.3.2-4.5.6-6.5 1.4-4.8 1.9-8.9 6.4-6.8 11.8.8 2 2.5 3.7 4.8 3.7l70.8-1.5c1.2 0 2.1-.4 2.9-.9 5.2.6 10.3 1.2 15.5 1.8 28.5 3.2 57.4 6 86.1 2.5 5-.6 11.4-1 17.1-2.6.9.7 2 1.2 3.2 1.3 5.8.7 12-2.5 14.6-7.8 2.9-5.5 1.5-11.9-2.5-16.6zM214 427.2c-1-.7-2-1.1-3-1.5-7.2-9.1-13.6-18.6-19.4-28.7-3.5-6.1-6.4-12.6-10.3-18.4-3.2-4.8-9.5-9.7-9.8-15.7-.2-3.7-3.2-5.3-6-4.7-1.1-.3-2.4-.2-3.6.5-1.8 1-3 2.2-3.9 3.9-.5.9-.7 1.9-.6 2.7-1.4 2.5-2.6 5.1-2.8 7.7-3 3.7.1 9.3 5 8.1h.1c2.8 1.8 6.4 3 8.9 2.9 1.4 0 2.6-.5 3.5-1.1 2.7 3.9 4.8 8 7 12.2-.1.1-.3.1-.4.2-4.9 2.7-5.1 7.5-3.5 12.1-.5 1.7-1.2 3.4-2.2 5.1-1.6 2.9-.1 6.4 3 7.3 5.9 1.7 10.2 6.3 15.2 9.6.7.4 1.4.8 2 1.2 3.9 5.3 8.8 9.8 14.5 13.3 2.8 1.7 5.4.4 6.6-1.8 2.3-.4 4.4-2.6 4.6-5 .4-4-1.6-7.6-4.9-9.9z"/><path class="st0" d="M233.5 485.5c-9.3-2-17.7-4.4-24.9-10.8-7.6-6.7-14.3-14.4-21.3-21.7-7.3-7.6-14.7-15.2-22-22.9-.2-.3-.5-.5-.7-.8.2-1.4-.1-2.9-1.3-4.2-2.6-2.8-5.2-5.7-7.9-8.5-1.4-3.5-1.9-7.3-.4-11.3 1.3-3.9-2.7-6.8-6.2-6.2-3.6.7-7.7 1.7-11.3.7-.1 0-.3-.1-.5-.1-.5-.4-1-.8-1.6-1.2-.1-.1-.3-.2-.4-.3-.6-.5-1.3-.9-1.9-1.4-.5-.8-.7-1.8-.3-2.7 1.6-3.7-1.1-7-4.1-7.6.1-.2.2-.4.3-.7 1.7-.6 3.1-2.1 3.1-4.5v-2.9c2-5 3.8-10.1 5.4-15.3 2.5-.6 4.8-1.5 7.1-2.7 4.9-2.6 1.6-11-3.9-9.1-2 .7-3.9 1.4-5.9 2.2-1.6-.4-3.3-.1-4.7 1.2l-.1.1c-4.9.9-10.1 1.1-14.6 1.8-8.7 1.3-17.4 2.8-26 5-14.9 3.9-29.1 10.2-40.9 20.3-2 1.7-1.9 4-.8 5.8-3.1 3.6-5.8 7.4-8.2 11.4-1.2 1-2.3 2-3.5 3.1-1.6 1.5-1.8 3.6-1 5.3-4 8.2-6.9 16.9-9.2 25.8-.9 3.3-1.6 6.6-2.3 10-1.5 2.2-2.9 4.5-4.3 6.8-1.8 2.9-.2 5.7 2.1 6.8-.1 1.1-.3 2.1-.4 3.2-.7 1.6-1.3 3.1-1.9 4.7-2.8 7.2-3.9 15.3.9 21.8 0 1.6.1 3.3.2 4.9.3 5.6 7.9 6.3 9.6 2.2 2.2.8 4.4 1.4 6.7 1.7 17.7 2.8 36.3-1.4 54.1-1.6 19.7-.2 39.3 1.3 58.9 2.9 1 .1 1.9-.1 2.6-.5l80.1-.6c5.5-.3 7-8.9 1.4-10.1z"/><path class="st1" d="M245.7 382.3c-3.9-2.8-9.3-2-12.1 1.9l-1.1 1.5c-2.8 3.9-2 9.3 1.8 12.1 1.5 1.1 3.3 1.7 5.1 1.7 2.7 0 5.3-1.2 7-3.5l1.1-1.5c2.9-3.9 2.1-9.3-1.8-12.2z"/><path class="st1" d="M248 464.7l-22.3-40.5 20.8-28.3c2.8-3.9 2-9.3-1.9-12.1-3.9-2.8-9.3-2-12.1 1.9l-24.1 32.8c-2 2.7-2.2 6.3-.6 9.3l24.9 45.3c1.6 2.9 4.5 4.5 7.6 4.5 1.4 0 2.8-.3 4.2-1.1 4.3-2.3 5.8-7.6 3.5-11.8zm64.5-46.3l-24-32.6c-2-2.7-5.4-4-8.6-3.4-3.3.6-5.9 3.1-6.7 6.4-.6 2.5-.1 5.1 1.4 7.2l20.7 28.2-22.1 40.2c-.7 1.3-1.1 2.7-1.1 4.2 0 4 2.7 7.4 6.5 8.4.7.2 1.4.3 2.2.3 3.1 0 6-1.7 7.6-4.5l24.8-45c1.5-3 1.3-6.7-.7-9.4zm13.7-136c-2.8-1.5-6.3-1.3-8.9.5-5.1 3.5-9.9 7.3-14.2 11.2-23.3 21.1-45.4 18.2-46.3 18.1-.5-.1-1.1-.1-1.6-.1-9.2.2-25.8-8.2-43.4-22-2.7-2.1-5.4-4.1-8.2-6-2.7-1.8-6.1-2-8.9-.5-2.8 1.5-4.6 4.4-4.6 7.6V321c0 2.6 1.2 5.1 3.2 6.8.2.2.5.4.8.5l61.4 41 .2.1c1.4 1 3.1 1.4 4.8 1.4 1.4 0 2.8-.3 4.1-1 .3-.1.5-.3.8-.5 0 0 .1 0 .1-.1 0 0 .1 0 .1-.1l61.2-40.9c.2-.2.5-.3.7-.5 2.1-1.6 3.3-4.2 3.3-6.8v-31c.1-3.1-1.7-6-4.6-7.5zm-12.7 34l-53 35.4-53-35.4v-7.9c12.9 9.4 31.9 20.9 47.4 20.9h.1c5.2.6 31.7 2.1 58.6-21.4l-.1 8.4z"/><path class="st1" d="M269 360.8c-.6-3.4-3.1-6.2-6.5-7-3.4-.8-6.9.5-9 3.3l-19.9 27.1c-2.8 3.9-2 9.3 1.9 12.1 1.5 1.1 3.3 1.7 5.1 1.7 2.7 0 5.3-1.2 7-3.5l19.8-27c1.1-1.5 1.8-3.3 1.8-5.3 0-.4-.1-.9-.2-1.4zM392.4 81.7c-.2-1.4-4.2-30.6-31.8-42.2.8-5.1.7-11.7-2.5-18.2-4.4-8.6-13-14.3-25.7-16.7-.5-.1-1.1-.2-1.7-.2H214.5c-47.2 0-85.6 38.4-85.6 85.6v45.6c0 11.9 4 23.5 11.4 32.6 3.6 4.5 8.1 12.5 8.8 24.4.3 4.7 4.2 8.3 8.9 8.2 4.7-.1 8.4-4 8.4-8.7v-59.4c5.9-24.3 25.9-29 29.4-29.7h37.6c4.4 0 8.8-.7 12.9-2 7.1-2.3 18.5-6.5 26.7-9.6 5.5-2.1 11.6-2.2 17.2-.2l40.2 14.1c20.1 7.4 23.7 25.1 24.1 27.9v71.3c0 4.5 3.5 8.3 8 8.6h.7c4.2 0 7.9-3.1 8.6-7.4 0-.2 3.5-22.6 14.6-40.4 3.9-6.2 5.9-13.3 5.9-20.5v-62c.2-.3.1-.7.1-1.1zm-17.3 63.2c0 3.9-1.1 7.7-3.2 11.1v-23.4c0-.3 0-.6-.1-.9-.1-1.3-3.7-30.9-35.5-42.6h-.1L296 74.9c-4.5-1.6-9.3-2.4-14-2.4-5.1 0-10.2.9-15 2.8-11.6 4.4-20.5 7.6-25.9 9.3-2.4.8-5 1.2-7.6 1.2h-38.3c-.4 0-.7 0-1.1.1-1.5.2-36 5.1-44.7 44-.1.6-.2 1.3-.2 1.9v17.8c-1.9-4.4-2.9-9.1-2.9-14V90.1c0-37.6 30.6-68.2 68.2-68.2h115.3c4.8 1 10.6 3.1 12.8 7.4 2.7 5.2-.4 12.4-.4 12.4-1.1 2.4-1.1 5.1 0 7.4 1.1 2.3 3.2 4.1 5.8 4.7 22 5.3 26.5 26.4 27.1 29.9v61.2z"/><path class="st1" d="M371.9 131.7c-.1-1.3-3.7-30.9-35.5-42.6h-.1L296 74.9c-9.4-3.3-19.8-3.2-29.1.4-11.6 4.4-20.5 7.6-25.9 9.3-2.4.8-5 1.2-7.6 1.2h-38.3c-.4 0-.7 0-1.1.1-1.5.2-36 5.1-44.7 44-.1.6-.2 1.3-.2 1.9v74.6c.1 2.6 1.9 63.6 44.1 91.6l.2.2c.2.1.4.3.6.4 2.4 1.6 4.8 3.4 7.2 5.2 12.3 9.6 35.4 25.7 53.7 25.7h.1c1 .1 2.8.3 5.2.3 10.4 0 32.4-2.7 54.6-22.7 3.7-3.4 7.9-6.6 12.4-9.8l.6-.5c.2-.1.4-.3.6-.4 14.1-9.5 38.4-33.8 43.6-91v-72.7c0-.4 0-.7-.1-1zm-17.2 72.5c-4.7 51.6-26.7 71.6-35.9 77.8-.3.2-.7.4-1 .7l-.5.3c-5.1 3.5-9.9 7.3-14.2 11.2-23.2 21-45.3 18.2-46.4 18.1-.5-.1-1-.1-1.5-.1-9.2.2-25.8-8.2-43.4-22-2.7-2.1-5.4-4.1-8.2-6l-.2-.1c-.2-.1-.4-.3-.7-.5-34-22.5-36.3-75.2-36.3-77.4v-73.3c5.9-24.4 26.1-29.1 29.4-29.7h37.6c4.4 0 8.8-.7 12.9-2 7.1-2.3 18.5-6.5 26.7-9.6 5.5-2.1 11.6-2.2 17.2-.2l40.2 14.1c20.1 7.4 23.7 25.1 24.1 27.9l.2 70.8zm-86.5 154.2c-1.3-2.7-4-4.5-7-4.8-3-.2-5.9 1.1-7.7 3.5l-20.7 28.2c-2.8 3.9-2 9.3 1.8 12.1 1.5 1.1 3.3 1.7 5.1 1.7 2.7 0 5.3-1.2 7-3.5l20.7-28.1c1.1-1.5 1.7-3.4 1.7-5.2.1-1.4-.3-2.7-.9-3.9zm.6 139.3c-3.3-3.4-8.6-3.6-12.1-.4l-2 1.8c-3 2.7-3.7 7.1-1.7 10.6l.1.1c1.3 2.4 3.7 4 6.4 4.4.4.1.8.1 1.2.1 2.3 0 4.5-.9 6.1-2.5l1.9-1.9c3.3-3.4 3.4-8.8.1-12.2z"/><path class="st1" d="M266.3 499.1l-2-1.8c-3.5-3.2-8.8-3-12.1.4-3.3 3.4-3.2 8.8.1 12.1l1.9 1.9c1.6 1.6 3.8 2.5 6.1 2.5.4 0 .8 0 1.2-.1 2.7-.4 5.1-2 6.4-4.4l.1-.1c1.9-3.4 1.2-7.8-1.7-10.5z"/><path class="st1" d="M266.4 499.3c-1.3-1.3-3.1-2.1-5-2.3-2.6-.3-5 .6-6.8 2.3-1.8 1.6-2.8 3.8-2.8 6.2-.1 2.4.9 4.7 2.6 6.3l.1.1c1.7 1.7 3.9 2.5 6.1 2.5 2.2 0 4.4-.8 6.1-2.5l.1-.1c1.7-1.7 2.6-4 2.5-6.3-.1-2.4-1.1-4.6-2.9-6.2zm-3.1-145.5c-3.6-1.1-7.5.2-9.7 3.3-2.4 3.4-2 8.1.9 11.1 1.7 1.7 3.9 2.5 6.1 2.5 1.7 0 3.5-.5 5-1.6 2.3-1.6 3.7-4.3 3.7-7.1 0-3.7-2.4-7-6-8.2z"/><path class="st1" d="M267.5 357l-.1-.1c-2.2-3-6.1-4.2-9.7-3.1-3.5 1.2-5.9 4.5-5.9 8.2v.1c0 3.2 1.8 6.1 4.6 7.6 1.3.7 2.7 1 4.1 1 1.7 0 3.4-.5 4.8-1.5 2-1.3 3.3-3.4 3.7-5.7.5-2.2-.1-4.6-1.5-6.5z"/><path class="st1" d="M363.5 329.8c-.9-2.4-2.8-4.2-5.2-5.1l-33.2-11.9c-.3-.1-.5-.2-.8-.2-2.4-.6-4.9-.2-6.9 1.2l-61.5 41.1h-.1l4.8 7.2-4.9-7.1c-1.8 1.2-3.1 3-3.6 5.1-.3 1.2-.3 2.4-.1 3.5.2 1.3.8 2.6 1.6 3.7l45 61.3c1.6 2.2 4.2 3.5 7 3.5h.6c2.9-.2 5.6-1.9 7-4.5l49.9-90.6c1.1-2.1 1.3-4.8.4-7.2zm-59 77.7l-31.6-43.1 50.5-33.8 19.5 7-38.4 69.9z"/><path class="st1" d="M269 360.7c-.4-2.3-1.7-4.4-3.7-5.7l-61.7-41.2c-2-1.3-4.4-1.8-6.7-1.3-.4.1-.7.2-1 .3l-33.2 11.9c-2.4.9-4.3 2.7-5.2 5.1-.9 2.4-.7 5 .5 7.2l49.9 90.6c1.4 2.6 4.1 4.3 7 4.5h.6c2.7 0 5.3-1.3 7-3.5l24.1-32.8s0-.1.1-.1l20.9-28.5c1.3-1.8 1.8-4.1 1.4-6.5zm-36.4 25c-.1 0-.1 0 0 0l-16 21.8-38.4-69.9 19.5-7 50.5 33.8-15.6 21.3zm283.5 91.9l-11.2-67.4c-3.5-21.3-18.3-39-38.5-46.3l-108-39.1c-3.3-1.2-7.1-.3-9.4 2.4-2.4 2.6-2.9 6.5-1.3 9.6l22.6 45.2-22.1.3c-3 0-5.8 1.6-7.3 4.2s-1.6 5.8-.2 8.4l9.1 17.3-92.9 85-.3.3-1.9 1.9c-2.7 2.7-3.3 6.9-1.5 10.3l.1.1c1.5 2.8 4.4 4.5 7.6 4.5h224.2c9.3 0 18.1-4.1 24.1-11.2 5.8-7 8.4-16.3 6.9-25.5zM495.8 492c-2.7 3.2-6.7 5.1-10.9 5.1H282.6l83.6-76.5c2.9-2.7 3.6-6.9 1.8-10.4l-5.6-10.8 21.8-.3c3 0 5.7-1.6 7.3-4.2 1.5-2.5 1.7-5.7.4-8.4l-19-38.2 87.7 31.7c14.4 5.2 24.9 17.8 27.4 32.9l11.2 67.4c.5 4.3-.7 8.5-3.4 11.7z"/><path class="st1" d="M266.5 499.3l-.1-.1c-3.4-3.1-8.7-3-11.9.3l-.1.1a8.66 8.66 0 00-1.9 9.4c1.3 3.2 4.5 5.3 8 5.3h.2c3.6 0 6.8-2.2 8.1-5.5 1.3-3.3.4-7.1-2.3-9.5z"/><path class="st1" d="M266.2 499.1c-2-1.8-4.6-2.5-7.2-2.1-2.6.4-4.9 2.1-6.1 4.4l-.1.1c-1.8 3.3-1.3 7.5 1.4 10.2 1.7 1.8 4 2.6 6.2 2.6 2.1 0 4.2-.8 5.8-2.3l.1-.1c.8-.7 1.4-1.6 1.9-2.5 1.8-3.4.9-7.7-2-10.3z"/><path class="st1" d="M266.6 499.6l-.1-.1-1.9-1.9-.3-.3-92.9-85 9.1-17.3c1.4-2.7 1.3-5.9-.2-8.4a8.44 8.44 0 00-7.3-4.2l-22.1-.3 22.6-45.2c1.6-3.2 1.1-7-1.3-9.6s-6.1-3.6-9.4-2.4L54.8 364c-20.3 7.3-35 25.1-38.5 46.3L4.9 477.6c-1.5 9.2 1.1 18.5 7.1 25.6 6 7.1 14.8 11.2 24.1 11.2h224.4c3.5 0 6.7-2.1 8-5.4 1.3-3.2.6-6.9-1.9-9.4zm-230.5-2.5c-4.2 0-8.2-1.8-10.9-5.1-2.7-3.2-3.9-7.4-3.2-11.6L33.2 413c2.5-15.1 13-27.7 27.4-32.9l87.7-31.7-19 38.2c-1.3 2.7-1.2 5.8.4 8.4 1.5 2.5 4.3 4.1 7.3 4.2l21.8.3-5.6 10.8c-1.8 3.5-1.1 7.8 1.8 10.4l83.6 76.5H36.1z"/></g></svg>