<svg xmlns="http://www.w3.org/2000/svg" height="512px" viewBox="0 -8 512 511" width="512px" class=""><g><path d="m454.382812.5h-.011718c-6.023438 0-10.902344 4.882812-10.902344 10.90625v297.011719c25.128906 2.4375 48.441406 13.398437 66.527344 31.484375.679687.679687 1.347656 1.367187 2.003906 2.058594v-283.84375c0-31.820313-25.796875-57.617188-57.617188-57.617188zm0 0" data-original="#000000" class="active-path" data-old_color="#000000" fill="#FFFFFF"></path><path d="m158.53125 223.300781h67.664062v66.398438h-67.664062zm0 0" data-original="#000000" class="active-path" data-old_color="#000000" fill="#FFFFFF"></path><path d="m432.730469 337.894531c-10.640625 0-19.261719-8.617187-19.261719-19.257812v-189.601563h-314.9375v189.601563c0 10.640625-8.621094 19.257812-19.261719 19.257812-43.78125 0-79.269531 35.492188-79.269531 79.269531 0 43.710938 35.558594 79.273438 79.269531 79.273438h353.460938c43.710937 0 79.269531-35.5625 79.269531-79.273438 0-43.777343-35.488281-79.269531-79.269531-79.269531zm-49.261719 63.207031c0 8.28125-6.71875 15-15 15h-96.402344c-8.285156 0-15-6.71875-15-15 0-8.285156 6.714844-15 15-15h81.402344v-66.402343h-17.132812c-8.285157 0-15-6.714844-15-15 0-8.285157 6.714843-15 15-15h17.132812v-66.398438h-97.273438v66.398438h15.871094c8.285156 0 15 6.714843 15 15 0 8.285156-6.714844 15-15 15h-113.535156v66.402343h33.203125c3.976563 0 7.792969 1.578126 10.605469 4.390626l32.132812 32.136718c5.855469 5.855469 5.855469 15.351563 0 21.210938-2.929687 2.929687-6.769531 4.394531-10.609375 4.394531-3.835937 0-7.675781-1.464844-10.605469-4.394531l-27.738281-27.738282h-41.988281c-8.285156 0-15-6.714843-15-15v-192.800781c0-8.285156 6.714844-15 15-15h224.933594c8.285156 0 15 6.714844 15 15v192.800781zm0 0" data-original="#000000" class="active-path" data-old_color="#000000" fill="#FFFFFF"></path><path d="m68.53125 308.417969v-297.011719c0-6.023438-4.878906-10.90625-10.902344-10.90625h-.011718c-31.820313 0-57.617188 25.796875-57.617188 57.617188v283.84375c.65625-.691407 1.324219-1.378907 2.003906-2.058594 18.085938-18.085938 41.398438-29.050782 66.527344-31.484375zm0 0" data-original="#000000" class="active-path" data-old_color="#000000" fill="#FFFFFF"></path></g></svg>