<?xml version="1.0" encoding="utf-8"?>
<!-- Generator: Adobe Illustrator 22.0.0, SVG Export Plug-In . SVG Version: 6.00 Build 0)  -->
<svg version="1.1" xmlns="http://www.w3.org/2000/svg" xmlns:xlink="http://www.w3.org/1999/xlink" x="0px" y="0px"
	 viewBox="0 0 518 518" style="enable-background:new 0 0 518 518;" xml:space="preserve">
<style type="text/css">
	.st0{fill:#BD242B;}
	.st1{stroke:#000000;stroke-width:6;stroke-miterlimit:10;}
</style>
<g id="Layer_1__x28_копия_x29_">
	<path class="st0" d="M422.4,216.6c-0.7-16.5-13.9-32.2-31.5-31.5c-9.6,0.4-19.1,0.7-28.7,1c-1.1-6.3-3.8-12.4-8.6-16.8
		c-5.7-5.2-14.2-10.3-22.3-9.2c-3,0.4-6,0.5-9,0.4c-5.2-1.3-10.1-3.3-15.3-5.1c-2.9-1-5.9-1.8-9-2.3c-8.8-1.4-14.4-1.1-23.4,0.1
		c-5.5,0.7-11.4,5.2-15.5,10c-0.5-0.4-1-0.7-1.5-1.1c-10.1-6.7-22.3-7.8-34.1-8.4c-18.7-0.9-37.9,1.5-55.9,6.4
		c-10.5,2.9-19.1,11.9-22.1,22.3c-6.7-0.4-13.4-0.9-20-1.4c-16.5-1.2-32.2,15.3-31.5,31.5c0.8,18.1,13.9,30.2,31.5,31.5
		c32.3,2.3,64.7,4,97.1,5c0,0.7-0.1,1.4-0.1,2.1l-2.2,41.7c-0.3,6.3,1.8,12.5,5.5,17.7c-0.3,1.8-0.5,3.7-0.5,5.7v37.7
		c0,16.5,14.5,32.3,31.5,31.5c17.1-0.8,31.5-13.8,31.5-31.5v-37.7c0-6.3-2.1-12.5-5.7-17.7c0.4-1.8,0.6-3.7,0.7-5.7
		c0.3-6.4,0.7-12.9,1-19.3c0.1,0,0.3-0.1,0.4-0.1c7.3-2,15.2-7.7,18.8-14.5c1.5-2.8,2.6-5.8,3.2-8.9c8.6,0,17.2-0.1,25.7-0.3
		c19.5-0.3,39-0.9,58.4-1.7C407.3,247.4,423.2,234.1,422.4,216.6z M259.2,238.6c-12.3,0-21.4-10-21.9-21.9
		c-0.5-11.8,10.5-21.9,21.9-21.9c12.3,0,21.4,10,21.9,21.9C281.7,228.5,270.7,238.6,259.2,238.6z"/>
</g>
<g id="Layer_1__x28_копия2_x29_">
	<g id="XMLID_6_">
		<g id="XMLID_7_">
			<path class="st1" d="M259,184.7c-17.8,0-32.3,14.5-32.3,32.3s14.5,32.3,32.3,32.3s32.3-14.5,32.3-32.3
				C291.3,199.2,276.8,184.7,259,184.7z M259.2,238.6c-12.3,0-21.4-10-21.9-21.9c-0.5-11.8,10.5-21.9,21.9-21.9
				c12.3,0,21.4,10,21.9,21.9C281.7,228.5,270.7,238.6,259.2,238.6z"/>
			<path id="XMLID_9_" class="st1" d="M514.2,363.4l-16.4-39.3l8.9-13.6c7.4-11.3,9.6-25.2,6-38.2l-8.3-30.1
				c-3.6-13.2-12-24.6-23.5-32c-1.9-1.2-4-1.7-6.2-1.6C470,110.2,398.5,26.3,301.1,7.1c-5.4-1.1-10.7,2.5-11.7,7.9
				s2.5,10.7,7.9,11.7C388.6,44.8,455,125.6,455,219c0,2.8-0.1,5.5-0.2,8.3l-20.9,11.2c0.7-6.5,1.1-13,1.1-19.5
				c0-10.9-1-21.5-2.9-31.8c0-0.3-0.1-0.6-0.2-0.8C416.6,104.9,344.9,43,259,43c-85.9,0-157.7,61.9-173,143.5
				c-0.1,0.2-0.1,0.5-0.1,0.7C84,197.5,83,208.1,83,219c0,6.5,0.4,13,1.1,19.5l-20.9-11.2c-0.1-2.8-0.2-5.5-0.2-8.3
				c0-93.5,66.5-174.4,158-192.3c5.4-1.1,9-6.3,7.9-11.7c-1.1-5.4-6.3-9-11.7-7.9C119.7,26.2,48,110.1,43.3,208.7
				c-2.2-0.2-4.4,0.4-6.2,1.6c-11.5,7.5-19.8,18.8-23.5,32l-8.3,30.1c-3.6,13-1.4,26.9,6,38.2l8.9,13.6L3.8,363.4
				c-2.1,5.1,0.3,11,5.4,13.1c1.3,0.5,2.6,0.8,3.9,0.8c3.9,0,7.6-2.3,9.2-6.1l15.3-36.5l43.5,9.2L43.3,502.7c-1.3,5.4,2,10.8,7.4,12
				c0.8,0.2,1.6,0.3,2.3,0.3c4.5,0,8.6-3.1,9.7-7.7l34.5-145.2C138,408.1,196.9,435,259,435c34.4,0,68.6-8.3,99-24
				c23.7-12.2,45.1-29,62.8-48.9l34.5,145.2c1.1,4.6,5.2,7.7,9.7,7.7c0.8,0,1.5-0.1,2.3-0.3c5.4-1.3,8.7-6.7,7.4-12L437,343.8
				l43.5-9.2l15.3,36.5c1.6,3.8,5.3,6.1,9.2,6.1c1.3,0,2.6-0.3,3.9-0.8C514,374.4,516.4,368.5,514.2,363.4z M471.7,241
				c1.5-0.8,2.8-2,3.8-3.5l2.3-3.7c3.4,4,5.9,8.7,7.3,13.8l8.3,30.1c2.1,7.4,0.8,15.4-3.4,21.9l-9.6,14.6l-52.2,11l-9.2-9.5
				c-7-7.2-10.8-16.7-10.8-26.7v-24.1c0-3,2-5.5,4.9-6.3l2.4-0.6c7.1,4.1,16.1,4.5,23.5,0.5L471.7,241z M128.7,257.1h59.4
				c18.2,0,32.9,14.8,32.9,32.9v80.3c-37.9-9.4-71.1-32.9-93-66.7c1.2-4.7,1.9-9.7,1.9-14.7v-24.1
				C129.9,262.2,129.4,259.6,128.7,257.1z M188.1,237.1h-84c-0.7-6-1-12.1-1-18.1c0-7.5,0.5-15,1.6-22.2l101.5-24.5
				c34.6-8.3,71.2-8.3,105.7,0l101.5,24.5c1,7.3,1.6,14.7,1.6,22.2c0,6.1-0.4,12.1-1.1,18.1h-84c-29.2,0-52.9,23.7-52.9,52.9V374
				c-5.9,0.7-11.9,1-18,1s-12.1-0.4-18-1v-83.9C241,260.9,217.3,237.1,188.1,237.1z M297,290.1c0-18.2,14.8-32.9,32.9-32.9h59.4
				c-0.8,2.5-1.2,5.1-1.2,7.8V289c0,5,0.6,9.9,1.9,14.7c-21.9,33.8-55.1,57.2-93,66.7V290.1z M259,63c70.8,0,130.7,47.4,149.7,112.1
				l-92.1-22.2c-37.7-9.1-77.5-9.1-115.1,0l-92.1,22.2C128.3,110.4,188.2,63,259,63z M24.6,277.7l8.3-30.1c1.4-5.1,3.9-9.8,7.3-13.8
				l2.3,3.7c0.9,1.5,2.2,2.7,3.8,3.5l32.8,17.5c7.5,4,16.4,3.6,23.5-0.5l2.4,0.6c2.9,0.7,4.9,3.3,4.9,6.3V289
				c0,10-3.8,19.5-10.8,26.7l-9.2,9.5l-52.2-11L28,299.6C23.8,293.1,22.5,285.2,24.6,277.7z M259,415c-60.6,0-117.8-28.2-154.8-75.9
				l9.2-9.5c1.7-1.7,3.2-3.5,4.6-5.4c14.6,19.5,33.2,35.9,54.4,47.9c26.3,14.9,56.3,22.8,86.7,22.8c30.4,0,60.4-7.9,86.7-22.8
				c21.2-12,39.8-28.4,54.3-47.9c1.4,1.9,3,3.7,4.6,5.4l9.2,9.5C376.9,386.7,319.3,415,259,415z"/>
			<path id="XMLID_8_" class="st1" d="M259,23h0.2c5.5,0,10-4.5,10-10s-4.5-10-10-10H259c-5.5,0-10,4.5-10,10S253.5,23,259,23z"/>
		</g>
	</g>
</g>
</svg>
