<svg xmlns="http://www.w3.org/2000/svg" height="512" viewBox="0 0 512 512.001" width="512"><path d="M497.355 401.645c19.497 19.496 19.497 51.214 0 70.71-.027.032-.058.06-.09.09l-34.21 33.785a19.943 19.943 0 01-14.051 5.77 19.945 19.945 0 01-14.234-5.945c-7.758-7.86-7.68-20.524.18-28.285L454.964 458H134c-44.113 0-80-35.887-80-80V56.55L34.047 76.239c-7.863 7.758-20.527 7.672-28.285-.191-7.758-7.863-7.672-20.527.191-28.285l33.79-33.332c19.44-19.18 51.073-19.18 70.515 0l33.789 33.332c7.863 7.758 7.95 20.422.191 28.285A19.946 19.946 0 01130 82a19.942 19.942 0 01-14.047-5.762L94 54.578V378c0 22.055 17.945 40 40 40h322.992l-22.043-21.77c-7.86-7.761-7.941-20.425-.18-28.285 7.762-7.855 20.426-7.937 28.286-.175l34.21 33.785c.032.03.063.058.09.09zM452 0H193c-11.074 0-20.04 9-20 20.074C173.043 31.09 181.984 40 193 40h259c11.047 0 20 8.953 20 20v260c0 11.016 8.91 19.96 19.926 20C503 340.04 512 331.074 512 320V60c0-33.137-26.863-60-60-60zM294 342.89c11.047 0 20-8.952 20-20v-89.015c0-30.328-24.672-55-55-55-13.285 0-25.484 4.734-35 12.605-9.516-7.87-21.715-12.605-35-12.605a54.693 54.693 0 00-21.512 4.387C163.93 180.004 159.203 178 154 178c-11.047 0-20 8.953-20 20v125c0 11.047 8.953 20 20 20s20-8.953 20-20v-89.125c0-8.27 6.73-15 15-15s15 6.73 15 15V323c0 11.047 8.953 20 20 20s20-8.953 20-20v-89.125c0-8.27 6.73-15 15-15s15 6.73 15 15v89.016c0 11.046 8.953 20 20 20zM384.75 108c-.105 0-.207.016-.313.016-.101 0-.203-.016-.308-.016C358.695 108 338 128.719 338 154.184c0 11.043 8.953 20 20 20s20-8.957 20-20c0-3.352 2.809-6.184 6.129-6.184.105 0 .207-.016.312-.016.102 0 .204.016.309.016 3.184 0 5.895 2.602 6.113 5.77-.394 1.464-3.46 10.523-22.625 31.605-11.886 13.07-23.566 23.715-23.68 23.816a19.998 19.998 0 00-5.214 22.012A19.999 19.999 0 00358 244h54c11.047 0 20-8.953 20-20s-8.953-20-20-20h-6.879c17.758-20.906 25.758-36.465 25.758-49.816 0-25.465-20.695-46.184-46.129-46.184zm0 0" data-original="#000000" class="active-path" data-old_color="#000000" fill="#2C2C2C"/></svg>