<svg xmlns="http://www.w3.org/2000/svg" xmlns:xlink="http://www.w3.org/1999/xlink" width="512px" height="512px" viewBox="0 0 56 56"><g><title class="active-path" style="">001 - Insurance Document</title><desc class="active-path">Created with Sketch.</desc><defs class="active-path"></defs><g id="Page-1" stroke="none" stroke-width="1" fill="none" fill-rule="evenodd"><g fill="#000000" fill-rule="nonzero"><path d="M1,56 L39,56 C39.1569731,55.995964 39.310655,55.9541131 39.448,55.878 L34,52 L4,52 C3.44771525,52 3,51.5522847 3,51 C3,50.4477153 3.44771525,50 4,50 L31.322,50 C30.6785144,49.4078957 30.1135779,48.7357522 29.641,48 L22,48 C21.4477153,48 21,47.5522847 21,47 C21,46.4477153 21.4477153,46 22,46 L28.631,46 C28.3939971,45.3525102 28.2244326,44.682295 28.125,44 L4,44 C3.44771525,44 3,43.5522847 3,43 C3,42.4477153 3.44771525,42 4,42 L28,42 L28,40 L22,40 C21.4477153,40 21,39.5522847 21,39 C21,38.4477153 21.4477153,38 22,38 L28,38 L28,36 L4,36 C3.44771525,36 3,35.5522847 3,35 C3,34.4477153 3.44771525,34 4,34 L28,34 L28,32 L22,32 C21.4477153,32 21,31.5522847 21,31 C21,30.4477153 21.4477153,30 22,30 L28,30 L28,28.048 C28,28.031 28.006,28.016 28.007,28 L4,28 C3.44771525,28 3,27.5522847 3,27 C3,26.4477153 3.44771525,26 4,26 L31.219,26 L35.849,24 L22,24 C21.4477153,24 21,23.5522847 21,23 C21,22.4477153 21.4477153,22 22,22 L36,22 C36.5522847,22 37,22.4477153 37,23 C36.9962835,23.2188875 36.9191601,23.4301844 36.781,23.6 L40,22.207 L40,16 L31,16 C29.3431458,16 28,14.6568542 28,13 L28,4 L1,4 C0.44771525,4 0,4.44771525 0,5 L0,55 C0,55.5522847 0.44771525,56 1,56 Z M15,7 L24,7 C24.5522847,7 25,7.44771525 25,8 C25,8.55228475 24.5522847,9 24,9 L15,9 C14.4477153,9 14,8.55228475 14,8 C14,7.44771525 14.4477153,7 15,7 Z M4,7 L10,7 C10.5522847,7 11,7.44771525 11,8 C11,8.55228475 10.5522847,9 10,9 L4,9 C3.44771525,9 3,8.55228475 3,8 C3,7.44771525 3.44771525,7 4,7 Z M4,18 L36,18 C36.5522847,18 37,18.4477153 37,19 C37,19.5522847 36.5522847,20 36,20 L4,20 C3.44771525,20 3,19.5522847 3,19 C3,18.4477153 3.44771525,18 4,18 Z M4,22 L18,22 C18.5522847,22 19,22.4477153 19,23 C19,23.5522847 18.5522847,24 18,24 L4,24 C3.44771525,24 3,23.5522847 3,23 C3,22.4477153 3.44771525,22 4,22 Z M4,30 L18,30 C18.5522847,30 19,30.4477153 19,31 C19,31.5522847 18.5522847,32 18,32 L4,32 C3.44771525,32 3,31.5522847 3,31 C3,30.4477153 3.44771525,30 4,30 Z M4,38 L18,38 C18.5522847,38 19,38.4477153 19,39 C19,39.5522847 18.5522847,40 18,40 L4,40 C3.44771525,40 3,39.5522847 3,39 C3,38.4477153 3.44771525,38 4,38 Z M4,46 L18,46 C18.5522847,46 19,46.4477153 19,47 C19,47.5522847 18.5522847,48 18,48 L4,48 C3.44771525,48 3,47.5522847 3,47 C3,46.4477153 3.44771525,46 4,46 Z" id="Shape" data-original="#000000" class="active-path" fill="#FFFFFF"></path><path d="M31,14 L38.586,14 L30,5.414 L30,13 C30,13.5522847 30.4477153,14 31,14 Z" id="Shape" data-original="#000000" class="active-path" fill="#FFFFFF"></path><path d="M29.063,2.012 C29.1477441,2.01769264 29.2314177,2.03415853 29.312,2.061 C29.334,2.068 29.358,2.067 29.38,2.076 C29.402,2.085 29.401,2.091 29.414,2.097 C29.5228057,2.14567171 29.6220334,2.21340395 29.707,2.297 L41.707,14.297 C41.7905961,14.3819666 41.8583283,14.4811943 41.907,14.59 C41.912,14.602 41.923,14.612 41.928,14.624 C41.933,14.636 41.936,14.67 41.943,14.693 C41.9698978,14.7724928 41.986041,14.8552265 41.991,14.939 C41.991,14.961 42.004,14.982 42.004,15.004 L42.004,21.347 L42.604,21.086 C42.8567492,20.9770007 43.1432508,20.9770007 43.396,21.086 L43.996,21.347 L43.996,1 C43.996,0.44771525 43.5482847,0 42.996,0 L5,0 C4.44771525,0 4,0.44771525 4,1 L4,2 L29,2 C29.022,2 29.042,2.011 29.063,2.012 Z" id="Shape" data-original="#000000" class="active-path" fill="#FFFFFF"></path><path d="M31.829,27.915 L31.81,27.923 L30,28.705 L30,42.505 C30.0097361,45.1465786 31.2942178,47.620947 33.449,49.149 L43,55.952 L52.551,49.152 C54.7054958,47.624152 55.9899416,45.1502252 56,42.509 L56,28.709 L43,23.089 L31.829,27.915 Z M53.4,29.759 C53.7649212,29.9182641 54.000591,30.278839 54,30.677 L54,42.509 C53.9905824,44.5032302 53.0194082,46.3703573 51.392,47.523 L43.58,53.084 C43.2328357,53.331178 42.7671643,53.331178 42.42,53.084 L34.608,47.523 C32.9803344,46.3705817 32.009086,44.503312 32,42.509 L32,30.677 C31.999409,30.278839 32.2350788,29.9182641 32.6,29.759 L42.6,25.439 C42.8527492,25.3300007 43.1392508,25.3300007 43.392,25.439 L53.4,29.759 Z" id="Shape" data-original="#000000" class="active-path" fill="#FFFFFF"></path><path d="M34,31.334 L34,42.509 C34.0087381,43.8567225 34.6675346,45.1173365 35.769,45.894 L43,51.042 L50.231,45.9 C51.3337961,45.1217704 51.9926973,43.8587211 52,42.509 L52,31.334 L43,27.447 L34,31.334 Z M49.625,33.219 C49.8322013,33.3847145 49.9650545,33.6259781 49.9943128,33.889678 C50.0235711,34.1533778 49.9468359,34.4178959 49.781,34.625 L41.781,44.625 C41.4434866,45.0467489 40.8320438,45.1242308 40.4,44.8 L36.4,41.8 C35.9581722,41.4686292 35.8686292,40.8418278 36.2,40.4 C36.5313708,39.9581722 37.1581722,39.8686292 37.6,40.2 L40.825,42.619 L48.219,33.375 C48.3847145,33.1677987 48.6259781,33.0349455 48.889678,33.0056872 C49.1533778,32.9764289 49.4178959,33.0531641 49.625,33.219 Z" id="Shape" data-original="#000000" class="active-path" fill="#FFFFFF"></path></g></g></g></svg>