<svg xmlns="http://www.w3.org/2000/svg" height="512px" viewBox="-30 0 512 512" width="512px"><g><path d="m451 286.5c0 44.464844-13.097656 87.554688-37.875 124.617188-3.855469 5.765624-10.1875 8.886718-16.644531 8.886718-3.820313 0-7.683594-1.09375-11.097657-3.375-9.183593-6.140625-11.648437-18.5625-5.511718-27.742187 20.363281-30.460938 31.128906-65.863281 31.128906-102.386719 0-102.285156-83.214844-185.5-185.5-185.5s-185.5 83.214844-185.5 185.5 83.214844 185.5 185.5 185.5c34.863281 0 67.039062-8.78125 95.636719-26.105469 9.449219-5.722656 21.746093-2.703125 27.46875 6.742188 5.722656 9.449219 2.703125 21.746093-6.742188 27.46875-34.445312 20.867187-74.683593 31.894531-116.363281 31.894531-60.234375 0-116.859375-23.457031-159.453125-66.046875-42.589844-42.59375-66.046875-99.21875-66.046875-159.453125s23.457031-116.859375 66.046875-159.453125c37.960937-37.960937 87.078125-60.703125 139.953125-65.203125v-21.84375h-19c-11.046875 0-20-8.953125-20-20s8.953125-20 20-20h80c11.046875 0 20 8.953125 20 20s-8.953125 20-20 20h-21v21.929688c35.285156 3.160156 68.867188 14.453124 98.550781 32.972656l16.730469-21.265625c6.828125-8.683594 19.402344-10.1875 28.082031-3.355469 8.683594 6.828125 10.1875 19.402344 3.355469 28.082031l-16.234375 20.640625c2.878906 2.601563 5.703125 5.28125 8.46875 8.042969 42.589844 42.59375 66.046875 99.21875 66.046875 159.453125zm-225.019531 133.5c11.046875 0 20-8.953125 20-20v-11.582031c27.511719-3.84375 48.019531-26.472657 48.019531-54.667969v-4.910156c0-15.113282-5.914062-29.230469-16.65625-39.75-10.59375-10.375-24.695312-16.089844-39.707031-16.089844h-18.328125c-8.8125 0-16.253906-7.785156-16.253906-17v-7.292969c0-8.953125 6.984374-15.707031 16.253906-15.707031h17.328125c5.09375 0 10.363281 3.410156 10.363281 9.117188 0 11.042968 8.953125 20 20 20s20-8.957032 20-20c0-23.96875-17.699219-43.972657-41.019531-48.257813v-12.859375c0-11.046875-8.953125-20-20-20s-20 8.953125-20 20v13.546875c-9.898438 2.339844-18.964844 7.273437-26.320313 14.46875-10.710937 10.476563-16.605468 24.574219-16.605468 39.691406v7.292969c0 31.429688 25.234374 57 56.253906 57h18.328125c9.175781 0 16.363281 6.957031 16.363281 15.839844v4.910156c0 8.691406-7.035156 15.25-16.363281 15.25h-29.785157c-4.914062 0-9.890624-3.089844-9.890624-9 0-11.046875-8.953126-20-20-20-11.046876 0-20 8.953125-20 20 0 26.859375 20.945312 48.019531 48.019531 48.953125v11.046875c0 11.046875 8.953125 20 20 20zm0 0" data-original="#000000" class="active-path" data-old_color="#000000" fill="#2C2C2C"></path></g></svg>