<svg width="1440" height="501" viewBox="0 0 1440 501" fill="none" xmlns="http://www.w3.org/2000/svg">
<path d="M1445.27 424.934C1444.68 423.57 1443.12 422.985 1441.76 423.18L1421.68 347.36C1421.68 347.36 1421.88 347.36 1421.88 347.165C1423.63 346.385 1424.22 344.241 1423.44 342.487C1422.85 341.317 1421.68 340.733 1420.51 340.538L1414.47 256.531C1414.86 256.531 1415.06 256.336 1415.25 256.141C1417.01 255.362 1417.59 253.218 1416.81 251.463C1416.03 249.709 1413.89 249.124 1412.13 249.904C1411.74 250.099 1411.35 250.489 1410.96 250.879L1359.51 220.083C1359.9 219.108 1359.9 218.134 1359.51 217.159C1358.73 215.405 1356.58 214.82 1354.83 215.6C1354.44 215.795 1354.24 215.99 1353.86 216.184L1320.72 191.821C1321.31 190.846 1321.31 189.676 1320.72 188.507C1320.33 187.727 1319.75 187.143 1318.97 186.948L1333 131.008C1333.58 131.008 1334.36 131.008 1334.95 130.618C1336.7 129.839 1337.29 127.695 1336.51 125.94C1335.73 124.576 1334.17 123.796 1332.8 124.186L1318.58 83.2549C1320.33 82.4753 1320.92 80.3312 1320.14 78.577C1319.36 76.8228 1317.21 76.2381 1315.46 77.0178C1314.48 77.4076 1313.9 78.3821 1313.7 79.1618L1260.69 72.9246C1260.69 72.3399 1260.49 71.9501 1260.3 71.3653C1259.52 69.6111 1257.37 69.0264 1255.62 69.806C1253.87 70.5857 1253.28 72.7297 1254.06 74.4839C1254.06 74.4839 1254.06 74.6788 1254.26 74.6788L1168.3 141.728L1168.1 141.533L1167.91 142.118L1166.55 143.288L1167.71 143.093L1151.73 205.269C1151.15 205.269 1150.37 205.269 1149.78 205.659C1148.42 206.244 1147.83 207.608 1147.83 208.973L1098.33 220.472C1098.33 220.278 1098.33 220.278 1098.13 220.083C1097.35 218.328 1095.21 217.744 1093.45 218.523C1091.89 219.303 1091.31 221.057 1091.7 222.617L953.702 210.922C953.702 210.532 953.507 209.947 953.312 209.557C952.533 207.803 950.389 207.219 948.635 207.998C946.88 208.778 946.296 210.922 947.075 212.676C947.465 213.261 947.855 213.846 948.44 214.04L907.898 320.852C907.119 320.657 906.339 320.657 905.559 321.047C904.78 321.437 904.39 322.021 904 322.606L858.001 307.403C858.196 306.623 858.001 305.844 857.611 305.259C856.831 303.505 854.687 302.92 852.933 303.7C851.764 304.284 850.984 305.454 850.984 306.818L807.129 312.081C807.129 311.886 806.934 311.691 806.934 311.301C806.154 309.547 804.01 308.962 802.256 309.742C800.502 310.521 799.917 312.666 800.697 314.42C800.697 314.615 800.892 314.615 800.892 314.81L741.444 367.436C740.469 366.461 738.91 366.266 737.546 367.046C735.792 367.825 735.207 369.969 735.986 371.724C736.571 372.893 737.546 373.478 738.715 373.673L740.859 419.087C740.469 419.087 740.08 419.282 739.69 419.477C738.13 420.257 737.351 422.011 737.935 423.765L712.012 434.29C711.038 434.095 709.868 434.485 709.089 435.265L664.259 399.401C664.454 399.011 664.649 398.816 664.649 398.426C665.039 396.672 663.869 394.723 662.115 394.333C660.751 393.944 659.386 394.528 658.607 395.698L649.641 391.605L600.133 369.385C600.523 367.631 599.354 365.876 597.599 365.292C595.845 364.902 593.896 366.071 593.506 367.825C593.311 368.41 593.311 368.8 593.506 369.385L542.439 388.096C542.05 387.317 541.27 386.537 540.101 386.342L543.024 354.961L467.594 347.75C467.594 346.19 466.424 344.826 464.865 344.631C464.085 344.436 463.305 344.631 462.526 344.826L438.162 309.157C438.747 308.767 439.136 308.183 439.136 307.403C439.526 305.649 438.357 303.7 436.603 303.31C435.823 303.115 434.848 303.31 434.264 303.7L392.163 246.98C392.553 246.591 392.942 246.006 393.137 245.226C393.527 243.472 392.358 241.523 390.604 241.133C388.849 240.743 386.9 241.913 386.51 243.667C386.315 244.447 386.51 245.031 386.705 245.811L346.359 269.395C345.969 268.81 345.189 268.421 344.41 268.226C342.85 267.836 341.291 268.616 340.511 270.175L233.505 237.43L233.31 237.82C233.505 236.65 233.31 235.481 232.53 234.701L260.403 200.592C260.793 200.786 260.988 200.981 261.377 200.981C263.132 201.371 265.081 200.202 265.47 198.448C265.86 196.693 264.691 194.744 262.937 194.354C261.767 194.159 260.793 194.354 260.013 195.134L190.04 130.813C190.235 130.423 190.43 130.034 190.43 129.644C190.819 128.279 190.235 126.915 189.065 126.135L209.531 91.4412C209.726 91.4412 209.726 91.4412 209.921 91.6361C211.675 92.0259 213.624 90.8565 214.014 89.1022C214.404 87.348 213.234 85.3989 211.48 85.0091C210.505 84.8142 209.531 85.0091 208.751 85.5939L126.499 5.68021C126.694 5.29039 126.889 4.90057 127.083 4.31584C127.473 2.56164 126.304 0.612522 124.55 0.222699C122.795 -0.167123 120.846 1.00234 120.456 2.75654C120.067 4.12092 120.846 5.68021 122.016 6.45986L89.0757 77.4076H88.8808C87.1266 77.0178 85.1775 78.1872 84.7877 79.9414C84.5927 81.1109 84.9826 82.4753 85.7622 83.2549L36.8395 151.474C36.6446 151.279 36.2547 151.279 36.0598 151.084C34.3056 150.694 32.3565 151.864 31.9667 153.618C31.5769 155.372 32.7463 157.321 34.5005 157.711C35.0853 157.906 35.4751 157.906 36.0598 157.711L55.9408 214.04C54.9662 214.43 54.3815 215.21 54.1866 216.379C53.7968 218.134 54.9662 220.083 56.7204 220.472C57.1102 220.472 57.5001 220.667 57.8899 220.472L67.6355 260.234C66.6609 260.624 65.8813 261.599 65.4914 262.573C65.2965 263.353 65.4914 264.328 65.8813 264.912L19.1025 299.022C18.7127 298.632 18.128 298.242 17.3483 298.047C15.5941 297.657 13.645 298.827 13.2552 300.581C12.8654 302.14 13.645 303.7 15.0094 304.284L-0.193685 344.631C-1.94789 344.241 -3.897 345.411 -4.28682 347.165C-4.67664 348.919 -3.50718 350.868 -1.75297 351.258C-0.778419 351.453 0.196138 351.258 0.975784 350.673L37.4242 389.85C37.0344 390.24 36.8395 390.825 36.6446 391.215C36.2547 392.969 37.4242 394.918 39.1784 395.308C40.9326 395.698 42.8817 394.528 43.2715 392.774V392.579L151.837 396.088V396.477L152.227 396.088H153.981L153.007 395.503L204.853 358.08C205.243 358.47 205.828 358.859 206.607 359.054C207.972 359.444 209.336 358.86 210.116 357.69L255.53 380.495C255.53 380.69 255.53 380.69 255.335 380.884C254.945 382.639 256.115 384.588 257.869 384.978C259.623 385.367 261.182 384.393 261.767 382.834L359.808 479.705C359.613 480.094 359.223 480.484 359.223 481.069C358.833 482.823 360.002 484.772 361.757 485.162C363.511 485.552 365.46 484.382 365.85 482.628C366.045 481.849 365.85 481.264 365.655 480.679L465.255 424.934C465.644 425.519 466.424 426.104 467.204 426.299C467.983 426.494 468.763 426.299 469.348 426.104L494.881 467.035C494.296 467.425 493.907 468.205 493.712 468.984C493.322 470.739 494.491 472.688 496.245 473.078C497.61 473.272 498.779 472.883 499.559 471.908L536.397 495.882C536.202 496.077 536.202 496.272 536.202 496.662C535.812 498.416 536.982 500.365 538.736 500.755C540.49 501.145 542.439 499.975 542.829 498.221C542.829 498.026 542.829 498.026 542.829 497.831L621.963 495.492C622.158 496.857 623.133 498.026 624.497 498.221C626.251 498.611 628.2 497.441 628.59 495.687C628.785 494.518 628.395 493.348 627.616 492.569L654.903 456.315C655.293 456.51 655.488 456.705 656.073 456.705C657.827 457.095 659.386 456.12 659.971 454.561L705.19 469.179V469.374C704.801 471.128 705.97 473.078 707.724 473.467C708.894 473.662 710.063 473.272 710.843 472.493C711.428 471.908 711.817 471.128 712.012 470.349L770.096 468.595C770.096 468.984 770.291 469.374 770.486 469.569C771.265 471.323 773.409 471.908 775.164 471.128C776.333 470.544 777.113 469.179 777.113 467.815L786.663 465.281L839.095 450.663C840.069 452.222 842.018 453.002 843.577 452.027C845.332 451.247 845.916 449.103 845.137 447.349C844.942 446.765 844.552 446.375 844.162 446.18L871.645 399.011C872.619 399.401 873.594 399.401 874.568 398.816L892.5 424.934L955.262 382.054C956.236 383.223 957.99 383.613 959.355 382.834C960.134 382.444 960.719 381.859 960.914 381.079L1002.62 392.969C1002.43 393.749 1002.62 394.333 1003.01 395.113C1003.79 396.867 1005.94 397.452 1007.69 396.672C1008.47 396.282 1009.06 395.698 1009.25 394.918L1078.25 411.68C1078.25 412.265 1078.25 413.045 1078.64 413.63C1079.42 415.384 1081.56 415.969 1083.32 415.189C1085.07 414.409 1085.66 412.265 1084.88 410.511C1084.49 409.926 1084.1 409.342 1083.32 408.952L1099.5 364.902C1100.28 365.097 1101.06 364.902 1101.83 364.707C1103.39 363.927 1103.98 362.368 1103.59 360.809L1207.09 317.343L1206.89 316.954C1207.48 317.928 1208.45 318.708 1209.62 318.708L1210.01 362.953C1209.62 362.953 1209.23 363.148 1208.84 363.342C1207.09 364.122 1206.5 366.266 1207.28 368.02C1208.06 369.775 1210.21 370.359 1211.96 369.58C1212.93 368.995 1213.52 368.215 1213.71 367.046L1309.03 371.724C1309.03 372.113 1309.22 372.503 1309.42 372.893C1310 374.063 1311.36 374.842 1312.73 374.842L1319.16 414.799C1318.97 414.799 1318.97 414.994 1318.77 414.994C1317.02 415.774 1316.43 417.918 1317.21 419.672C1317.99 421.426 1320.14 422.011 1321.89 421.231C1322.86 420.841 1323.45 420.062 1323.64 419.087L1438.06 427.858C1438.06 428.248 1438.25 428.833 1438.45 429.223C1439.23 430.977 1441.37 431.561 1443.12 430.782C1445.46 428.638 1446.24 426.494 1445.27 424.934ZM1412.72 256.336C1413.11 256.531 1413.5 256.531 1413.69 256.531L1419.74 340.538C1419.35 340.538 1419.15 340.733 1418.96 340.928C1418.57 341.123 1418.18 341.512 1417.79 341.902L1378.02 318.903L1412.72 256.336ZM1315.07 192.015C1315.26 192.405 1315.65 192.99 1316.04 193.185L1299.28 222.811L1312.73 186.363L1315.26 188.507C1314.48 189.482 1314.48 190.846 1315.07 192.015ZM1326.76 260.039C1326.57 260.039 1326.37 260.234 1326.37 260.429L1299.67 230.218C1300.25 229.633 1300.45 228.659 1300.45 227.879L1322.28 224.566L1327.15 259.845C1327.15 259.845 1326.96 259.845 1326.76 260.039ZM1329.69 266.277L1349.76 296.293L1326.76 266.082C1327.54 266.472 1328.71 266.666 1329.69 266.277ZM1324.81 263.743L1304.74 237.43L1325.4 261.014C1325.01 261.599 1324.62 262.768 1324.81 263.743ZM1300.25 226.905C1300.25 226.71 1300.06 226.515 1300.06 226.32C1299.86 225.93 1299.47 225.345 1299.09 225.15L1316.82 193.77C1317.21 193.965 1317.6 193.965 1318.19 193.965L1322.28 223.591L1300.25 226.905ZM1297.72 224.371C1297.14 224.176 1296.36 224.176 1295.77 224.566L1245.68 129.059V128.669L1245.87 128.474L1311.75 185.778L1297.72 224.371ZM1294.99 224.955C1294.8 225.15 1294.6 225.345 1294.41 225.54L1233.21 186.948L1243.73 129.449C1244.12 129.449 1244.7 129.449 1245.09 129.254L1294.99 224.955ZM1227.55 232.362C1227.94 231.777 1228.14 231.193 1228.14 230.608L1293.63 228.269C1293.63 228.659 1293.82 228.854 1294.02 229.243C1294.02 229.243 1294.02 229.438 1294.21 229.438L1256.4 259.26L1227.55 232.362ZM1279.98 282.649C1279.79 283.039 1279.59 283.429 1279.4 283.819L1236.91 277.776C1236.91 277.192 1236.71 276.607 1236.52 276.217C1236.52 276.217 1236.52 276.022 1236.32 276.022L1256.01 260.429L1279.98 282.649ZM1154.66 207.219L1212.15 177.982C1212.54 178.567 1213.13 178.956 1213.71 179.151L1202.02 223.201L1154.85 208.973C1154.85 208.388 1154.85 207.803 1154.66 207.219ZM1214.49 179.541C1214.69 179.541 1214.88 179.541 1215.08 179.541L1223.65 227.099C1223.46 227.099 1223.26 227.294 1223.07 227.294C1222.29 227.684 1221.71 228.269 1221.51 229.049L1202.8 223.396L1214.49 179.541ZM1216.05 179.346C1216.25 179.346 1216.44 179.151 1216.64 179.151C1217.03 178.956 1217.42 178.567 1217.81 178.372L1232.23 187.532L1225.02 227.099C1224.82 227.099 1224.82 227.099 1224.63 227.099L1216.05 179.346ZM1232.82 187.922L1293.82 226.32C1293.63 226.71 1293.63 227.099 1293.43 227.489L1227.94 229.828C1227.94 229.438 1227.75 229.243 1227.55 228.854C1227.16 228.074 1226.38 227.489 1225.6 227.099L1232.82 187.922ZM1232.23 186.558L1218 177.592C1218.39 176.617 1218.39 175.643 1218 174.668C1217.81 174.279 1217.42 173.889 1217.03 173.499L1224.04 161.219L1242.37 129.449H1242.56L1232.23 186.558ZM1216.25 172.914C1215.27 172.524 1214.3 172.524 1213.32 173.109C1211.96 173.889 1211.18 175.448 1211.57 177.007L1198.9 166.677L1241.39 128.669C1241.39 128.669 1241.39 128.669 1241.59 128.864L1216.25 172.914ZM1210.99 177.592L1154.27 206.439L1198.32 167.067L1210.99 177.592ZM1154.46 209.752L1201.63 224.176L1187.99 276.217C1187.4 276.217 1187.01 276.217 1186.43 276.412L1153.29 211.312C1153.88 210.922 1154.27 210.337 1154.46 209.752ZM1202.6 224.371L1221.32 230.023C1221.32 230.608 1221.32 231.388 1221.71 231.972C1221.9 232.362 1222.1 232.557 1222.29 232.947L1189.35 276.607C1189.16 276.607 1189.16 276.412 1188.96 276.412L1202.6 224.371ZM1223.26 233.532C1223.46 233.532 1223.65 233.726 1223.85 233.726L1216.44 278.166L1191.1 278.946C1191.1 278.556 1190.91 278.361 1190.71 277.971C1190.52 277.582 1190.32 277.387 1190.13 276.997L1223.26 233.532ZM1217.03 279.141L1230.09 278.751C1230.09 278.946 1230.28 279.141 1230.28 279.336C1230.48 279.726 1230.87 280.115 1231.26 280.505L1211.96 311.496C1211.76 311.496 1211.76 311.301 1211.57 311.301L1217.03 279.141ZM1230.09 277.776L1217.22 278.166L1224.63 233.726C1224.82 233.726 1225.02 233.726 1225.41 233.726L1232.43 274.463C1232.23 274.463 1232.23 274.463 1232.04 274.658C1230.67 275.243 1230.09 276.607 1230.09 277.776ZM1226.19 233.532C1226.58 233.337 1226.77 233.142 1226.97 233.142L1255.62 259.845L1235.93 275.243C1235.15 274.463 1234.18 274.268 1233.21 274.268L1226.19 233.532ZM1236.71 278.751L1279.2 284.793C1279.2 285.378 1279.4 285.963 1279.59 286.352C1279.79 286.547 1279.79 286.742 1279.98 287.132L1260.69 308.962L1235.93 280.115C1236.32 279.726 1236.71 279.141 1236.71 278.751ZM1256.79 259.845L1294.41 230.218C1294.8 230.608 1295.19 230.803 1295.58 230.998L1282.91 281.285C1282.32 281.285 1281.54 281.285 1280.96 281.675C1280.76 281.87 1280.57 281.87 1280.37 282.064L1256.79 259.845ZM1296.55 231.193C1297.14 231.193 1297.92 231.193 1298.5 230.803H1298.7L1355.41 305.259C1355.02 305.649 1354.83 305.844 1354.63 306.233L1286.22 285.378C1286.42 284.598 1286.22 284.014 1285.83 283.234C1285.44 282.454 1284.86 281.87 1284.08 281.675L1296.55 231.193ZM1285.83 286.158L1354.25 307.013C1354.05 307.793 1354.25 308.572 1354.63 309.157C1354.83 309.547 1355.02 309.937 1355.41 310.132L1340.21 331.767L1285.64 286.547C1285.83 286.353 1285.83 286.353 1285.83 286.158ZM1363.99 348.724C1363.99 348.529 1363.8 348.139 1363.8 347.944C1363.6 347.36 1363.21 346.97 1362.82 346.775L1377.63 319.877L1417.4 342.877C1417.2 343.267 1417.2 343.656 1417.2 344.046L1363.99 348.724ZM1414.67 345.021L1317.99 368.995L1357.75 351.258C1358.73 352.817 1360.68 353.402 1362.24 352.622C1363.41 352.038 1363.99 350.868 1364.19 349.699L1414.67 345.021ZM1362.04 346.19C1361.65 345.995 1361.26 345.995 1361.07 345.995L1358.73 311.106C1358.92 311.106 1359.31 310.911 1359.51 310.911C1359.9 310.716 1360.29 310.327 1360.68 309.937L1377.05 319.487L1362.04 346.19ZM1360.09 345.995C1359.7 345.995 1359.51 346.19 1359.12 346.385C1358.73 346.58 1358.53 346.775 1358.34 346.97L1340.8 332.352L1356 310.716C1356.39 310.911 1356.97 311.106 1357.56 311.106L1360.09 345.995ZM1340.41 333.131L1357.95 347.555C1357.36 348.334 1357.36 349.309 1357.56 350.283L1316.43 368.605C1316.24 368.41 1316.04 368.02 1315.85 367.825L1340.41 333.131ZM1316.63 370.164L1417.2 345.216C1417.2 345.411 1417.2 345.411 1417.4 345.606C1417.4 345.606 1417.4 345.606 1417.4 345.8L1357.95 389.461L1316.43 371.529C1316.63 370.944 1316.63 370.554 1316.63 370.164ZM1411.74 255.751C1411.94 255.946 1411.94 255.946 1411.74 255.751L1377.24 318.513L1360.87 308.962C1361.26 307.988 1361.26 307.013 1360.68 306.039C1360.68 305.844 1360.48 305.649 1360.29 305.454L1411.74 255.751ZM1411.16 255.167L1359.9 305.064C1359.31 304.674 1358.73 304.479 1358.14 304.284L1357.56 260.039L1410.57 253.997C1410.57 254.192 1410.77 254.582 1410.77 254.777C1410.96 254.972 1411.16 254.972 1411.16 255.167ZM1358.14 222.032C1358.53 221.837 1358.92 221.447 1359.31 221.057L1410.77 251.853C1410.57 252.243 1410.57 252.633 1410.57 253.218L1357.56 259.26L1357.17 222.422C1357.36 222.227 1357.75 222.227 1358.14 222.032ZM1357.17 304.284C1356.78 304.284 1356.58 304.479 1356.19 304.479L1330.27 265.692C1331.05 265.107 1331.64 264.133 1331.64 262.963L1356.58 260.039L1357.17 304.284ZM1355.22 222.032C1355.61 222.227 1356 222.227 1356.19 222.422L1356.58 259.455L1331.44 262.378C1331.44 262.184 1331.25 261.794 1331.25 261.599C1331.05 261.209 1330.66 260.819 1330.47 260.624L1355.22 222.032ZM1354.44 221.642L1329.69 260.039C1329.1 259.845 1328.71 259.65 1328.13 259.65L1323.25 224.371L1353.27 219.888C1353.27 220.083 1353.47 220.278 1353.47 220.472C1353.86 220.862 1354.05 221.252 1354.44 221.642ZM1319.55 193.575C1319.94 193.38 1320.14 193.185 1320.53 192.795L1353.66 217.159C1353.47 217.744 1353.27 218.328 1353.27 218.913L1323.25 223.396L1319.16 193.77C1319.16 193.77 1319.36 193.575 1319.55 193.575ZM1318.38 187.143C1317.8 187.143 1317.02 187.143 1316.43 187.532C1316.24 187.727 1315.85 187.922 1315.65 188.117L1312.92 185.778L1331.25 136.076L1318.38 187.143ZM1312.34 184.999L1246.65 128.085C1246.85 127.695 1247.04 127.11 1247.24 126.72L1330.47 128.474C1330.47 128.864 1330.66 129.254 1330.86 129.644C1331.25 130.229 1331.64 130.813 1332.41 131.203L1312.34 184.999ZM1246.85 124.576L1290.9 97.4834L1330.86 126.33C1330.66 126.72 1330.47 127.11 1330.47 127.5L1247.24 125.746C1247.04 125.356 1247.04 124.966 1246.85 124.576ZM1318.19 84.0346L1332.41 124.966C1332.03 125.161 1331.83 125.356 1331.44 125.746L1291.68 97.2885L1314.68 83.06C1315.65 83.8396 1316.82 84.2295 1318.19 84.0346ZM1260.69 73.7043L1314.09 80.5262C1314.09 80.916 1314.29 81.5007 1314.48 81.8905L1291.09 96.314L1260.49 74.289C1260.49 74.289 1260.69 73.8992 1260.69 73.7043ZM1258.93 75.8483C1259.32 75.6534 1259.52 75.4585 1259.91 75.0686L1290.12 96.8987L1247.04 123.602L1257.18 76.2381C1257.76 76.2381 1258.35 76.2381 1258.93 75.8483ZM1255.04 75.2635C1255.42 75.6534 1255.81 75.8483 1256.2 76.0432L1246.07 123.407C1245.09 122.432 1243.54 122.237 1242.17 122.822C1240.81 123.407 1240.22 124.771 1240.22 126.135L1170.05 141.144L1255.04 75.2635ZM1240.61 127.11C1240.61 127.305 1240.81 127.305 1240.81 127.5C1240.81 127.695 1241 127.695 1241 127.89L1198.32 166.092L1169.47 142.508L1240.61 127.11ZM1168.69 143.093L1197.73 166.677L1153.88 205.854C1153.49 205.659 1153.29 205.464 1152.9 205.269L1168.69 143.093ZM1150.37 211.701C1151.15 211.896 1151.93 211.896 1152.71 211.701L1185.84 276.802C1185.65 276.997 1185.26 277.192 1185.06 277.387L1133.41 244.836L1150.37 211.701ZM1184.28 279.92L1142.18 290.641L1129.71 293.759L1107.49 299.412C1107.1 298.827 1106.71 298.242 1106.12 298.047L1133.02 245.421L1184.67 277.776C1184.28 278.751 1184.09 279.336 1184.28 279.92ZM1098.72 221.252L1148.22 209.752C1148.22 209.947 1148.22 209.947 1148.42 210.142C1148.61 210.727 1149 211.117 1149.59 211.507L1132.63 244.641L1098.33 223.201C1098.52 222.422 1098.72 221.837 1098.72 221.252ZM1096.77 224.566C1097.16 224.371 1097.55 223.981 1097.94 223.786L1132.24 245.226L1105.34 297.852C1104.95 297.852 1104.76 297.657 1104.37 297.657L1102.81 284.403L1096.18 224.761C1096.38 224.761 1096.57 224.761 1096.77 224.566ZM1095.21 224.955L1101.83 284.014L1103.39 298.047C1103.2 298.047 1103 298.242 1102.81 298.242C1102.22 298.632 1101.83 299.022 1101.45 299.606L1073.18 288.886L1094.62 224.955C1094.82 224.955 1095.01 224.955 1095.21 224.955ZM976.117 272.514C976.312 272.514 976.507 272.514 976.702 272.514L984.888 305.844L990.541 328.843C990.346 328.843 990.346 328.843 990.151 329.038C989.176 329.428 988.591 330.402 988.397 331.377L966.956 329.428L976.117 272.514ZM965.982 329.233L910.432 324.165C910.432 323.775 910.237 323.191 910.042 322.801C910.042 322.801 910.042 322.606 909.847 322.606L973.778 271.539C974.168 271.929 974.753 272.124 975.143 272.319L965.982 329.233ZM985.668 305.064L977.482 272.319C977.676 272.319 977.676 272.319 977.871 272.124C978.261 271.929 978.651 271.539 979.041 271.149L1024.07 298.827L993.854 329.038C993.074 328.453 992.295 328.258 991.32 328.258L985.668 305.064ZM1041.41 278.556C1041.41 279.141 1041.61 279.531 1041.8 280.115C1042 280.31 1042 280.505 1042.19 280.7L1024.65 298.242L979.431 270.37C979.431 270.175 979.626 269.98 979.626 269.785L1041.41 278.556ZM979.626 268.226L1011.79 255.362L1041.8 276.802C1041.61 276.997 1041.61 277.387 1041.41 277.581L979.626 269.005C979.82 268.81 979.626 268.421 979.626 268.226ZM1042.78 281.285C1043.56 281.87 1044.73 282.064 1045.7 281.87L1060.32 318.903C1060.12 319.098 1059.93 319.487 1059.93 319.877L1025.62 298.827L1042.78 281.285ZM1024.84 299.412L1059.73 320.852C1059.73 321.047 1059.73 321.242 1059.73 321.437L995.218 330.987C995.218 330.792 995.023 330.597 995.023 330.402C994.829 330.208 994.829 330.013 994.634 329.818L1024.84 299.412ZM995.218 331.767L1038.1 325.53L1059.93 322.411C1059.93 322.411 1059.93 322.411 1059.93 322.606C1060.12 322.996 1060.32 323.191 1060.51 323.386L1028.94 364.122L994.634 334.106C995.023 333.326 995.218 332.546 995.218 331.767ZM1046.48 281.48C1047.06 281.09 1047.45 280.7 1047.84 280.115L1072.01 289.276L1062.66 317.343C1062.27 317.343 1061.88 317.538 1061.49 317.733C1061.29 317.928 1061.1 317.928 1060.9 318.123L1046.48 281.48ZM1072.99 289.666L1101.06 300.191C1100.86 300.776 1100.86 301.361 1101.06 301.945L1065.97 318.903C1065.39 318.123 1064.61 317.538 1063.63 317.343L1072.99 289.666ZM1066.36 319.877L1101.25 302.92C1101.64 303.7 1102.42 304.284 1103.2 304.479L1093.65 352.622L1065.78 322.996C1066.36 322.216 1066.75 321.047 1066.36 319.877ZM1093.26 224.371C1093.45 224.371 1093.45 224.566 1093.65 224.566L1072.21 288.497L1048.04 279.336C1048.23 278.556 1048.23 277.776 1047.84 276.997C1047.65 276.802 1047.65 276.607 1047.45 276.412L1093.26 224.371ZM1092.48 223.396C1092.48 223.591 1092.67 223.591 1092.67 223.786L1046.87 275.827C1045.9 275.048 1044.53 275.048 1043.36 275.632C1042.97 275.827 1042.58 276.022 1042.39 276.412L1012.96 255.167L1092.48 223.396ZM953.897 211.701L1090.14 223.396L1011.98 254.387L953.702 212.481C953.702 212.286 953.897 212.091 953.897 211.701ZM953.118 213.261L1011.01 254.777L979.236 267.251C978.456 265.887 976.702 265.107 975.338 265.692L952.338 213.845C952.728 213.845 952.923 213.651 953.118 213.261ZM949.804 214.43C950.389 214.625 950.974 214.625 951.558 214.43L974.558 266.277C972.999 267.251 972.414 269.2 973.193 270.76C973.193 270.76 973.193 270.954 973.388 270.954L909.457 322.021C909.263 321.826 909.068 321.631 908.678 321.437L949.804 214.43ZM904 325.919C904.195 326.504 904.78 326.894 905.169 327.284L896.593 345.8L858.391 325.14C858.391 324.945 858.586 324.555 858.586 324.36L903.61 324.75C903.61 325.14 903.805 325.53 904 325.919ZM856.052 309.937C856.831 309.547 857.221 308.962 857.611 308.377L903.61 323.581V323.775L858.586 323.386C858.586 322.996 858.391 322.606 858.196 322.216C857.611 321.047 856.637 320.462 855.467 320.267L855.077 310.327C855.467 310.327 855.857 310.132 856.052 309.937ZM852.543 309.742C853.128 310.132 853.713 310.327 854.298 310.522L854.687 320.462C854.298 320.462 854.103 320.657 853.713 320.852C852.933 321.242 852.348 322.021 851.959 322.801L841.823 320.657L852.543 309.742ZM852.154 325.335C852.154 325.335 852.154 325.53 852.154 325.335L785.494 377.181L841.044 321.242L851.764 323.581C851.764 324.165 851.764 324.75 852.154 325.335ZM807.519 361.393L852.738 326.309C853.128 326.699 853.713 327.089 854.298 327.284L847.866 391.41L783.74 382.054C783.74 381.469 783.545 380.884 783.35 380.495C783.35 380.495 783.35 380.3 783.155 380.3L807.519 361.393ZM807.324 313.055L851.179 307.793C851.179 307.988 851.374 308.183 851.374 308.572C851.569 308.767 851.569 308.962 851.764 309.157L840.654 320.462L807.324 313.445C807.324 313.25 807.324 313.25 807.324 313.055ZM803.231 316.369C804.01 316.564 804.79 316.369 805.57 315.979C806.349 315.589 806.934 314.81 807.324 314.03L840.069 320.852L782.375 379.13C782.18 378.935 781.985 378.935 781.791 378.74L803.231 316.369ZM781.011 378.351C780.231 378.156 779.452 378.351 778.672 378.74C777.892 379.13 777.308 379.715 777.113 380.495L767.757 377.961L801.866 317.538L781.011 378.351ZM744.757 421.036C744.757 420.841 744.562 420.841 744.562 420.646L778.282 384.588C778.672 384.783 779.062 384.978 779.647 385.173L776.333 431.367L744.952 423.18C745.147 422.401 745.147 421.621 744.757 421.036ZM777.308 383.223C777.503 383.418 777.503 383.613 777.697 383.808L743.978 419.672L767.367 378.351L776.918 381.079C776.918 381.859 776.918 382.639 777.308 383.223ZM801.672 315.589L801.866 315.784L766.977 377.571L742.808 370.749C743.003 370.164 742.808 369.385 742.418 368.605C742.418 368.41 742.224 368.41 742.224 368.215L801.672 315.589ZM739.885 373.478C740.274 373.478 740.469 373.283 740.859 373.088C741.639 372.698 742.224 372.113 742.418 371.334L766.393 378.156L743.198 419.282C742.808 419.087 742.418 418.892 742.029 418.892L739.885 373.478ZM738.52 424.155C738.715 424.545 738.91 424.934 739.3 425.129L721.368 451.442L711.622 448.519L712.402 440.917C713.961 440.917 715.326 439.748 715.521 438.188C715.911 436.629 715.131 435.265 713.961 434.485L738.91 424.35L738.52 424.155ZM710.648 448.324L694.275 443.451C694.275 443.256 694.275 443.061 694.275 443.061L708.894 438.968C709.284 439.943 710.258 440.722 711.233 440.917L710.648 448.324ZM708.894 436.629C708.894 437.019 708.699 437.409 708.894 437.799L697.199 441.112L708.894 436.629ZM693.496 445.205C693.691 445.01 693.886 444.62 694.08 444.426L710.453 449.298L708.894 466.256C708.504 466.256 708.309 466.451 707.919 466.645L698.174 452.417L693.496 445.205ZM709.868 466.061L711.428 449.493L720.783 452.222L711.038 466.451C710.648 466.256 710.258 466.061 709.868 466.061ZM663.674 399.986L709.089 435.46L694.275 441.502V441.307C693.496 439.748 691.742 439.163 690.182 439.553L663.674 399.986C663.479 400.181 663.674 400.181 663.674 399.986ZM599.938 370.164L613.582 376.402L658.022 396.477C658.022 396.672 657.827 396.867 657.827 397.062C657.632 398.232 657.827 399.206 658.607 400.181L636.777 422.985L599.354 370.944C599.549 370.554 599.743 370.359 599.938 370.164ZM598.769 371.334L636.192 423.375L604.031 456.9C603.642 456.705 603.252 456.51 602.667 456.315C602.472 456.315 602.277 456.315 602.082 456.315L597.599 371.919C598.184 371.724 598.574 371.529 598.769 371.334ZM568.363 457.874L511.254 455.925C511.254 455.341 510.864 454.756 510.669 454.171L556.473 409.147L599.548 457.29C599.159 457.68 598.964 458.264 598.769 458.849V459.044L568.363 457.874ZM595.26 459.824L517.101 467.23L510.279 458.654C510.669 458.264 511.059 457.68 511.254 457.095V456.9L595.26 459.824ZM601.303 462.942C602.082 463.137 602.862 462.942 603.642 462.552L609.099 470.544L544.583 494.908L599.548 461.578C599.938 462.162 600.523 462.747 601.303 462.942ZM604.421 462.163C605.006 461.773 605.396 461.188 605.396 460.408C605.396 460.213 605.396 459.824 605.396 459.629L654.124 453.586L609.879 470.349L604.421 462.163ZM594.871 371.529C595.26 371.724 595.65 371.919 596.04 371.919C596.43 371.919 596.82 372.113 597.015 371.919L601.498 456.12C601.108 456.12 600.523 456.315 600.133 456.705L557.058 408.562L594.871 371.529ZM542.634 390.435C542.829 389.85 542.829 389.461 542.634 388.876L593.701 370.164C593.896 370.359 593.896 370.554 594.091 370.749L556.278 407.782L541.855 391.605C542.245 391.41 542.634 391.02 542.634 390.435ZM541.27 392.384L555.693 408.562L509.889 453.586L509.694 453.392L519.635 432.536L538.346 392.969C538.541 392.969 538.541 392.969 538.736 392.969C539.516 393.164 540.49 392.969 541.27 392.384ZM471.687 421.816L490.008 413.24L506.186 453.392C505.991 453.586 505.796 453.586 505.601 453.781L471.297 424.74C471.492 424.35 471.687 423.96 471.687 423.57C471.882 422.985 471.882 422.401 471.687 421.816ZM490.788 412.85L536.397 391.41C536.592 391.8 536.982 392.189 537.372 392.579L518.66 432.341L508.915 453.002H508.72C508.135 452.807 507.55 452.807 507.16 453.002L490.788 412.85ZM467.399 348.724L542.05 355.936L539.321 386.342C538.346 386.342 537.372 386.927 536.787 387.706L467.399 349.114C467.399 348.919 467.399 348.919 467.399 348.724ZM466.814 349.894L536.202 388.291C536.202 388.486 536.007 388.681 536.007 388.876C535.812 389.461 535.812 390.045 536.007 390.63L490.398 411.875L465.839 350.673C466.229 350.478 466.619 350.283 466.814 349.894ZM434.848 309.742C435.043 309.742 435.043 309.742 435.238 309.742C436.018 309.937 436.798 309.742 437.577 309.547L461.941 345.216C461.356 345.606 460.967 346.19 460.967 346.97C460.772 347.36 460.772 347.944 460.967 348.334L411.849 361.588C411.654 361.004 411.069 360.419 410.484 360.029L434.848 309.742ZM344.41 328.258L319.461 343.656L304.648 317.733C305.232 317.343 305.622 316.954 305.817 316.369L343.435 325.725C343.435 326.504 343.63 327.479 344.41 328.258ZM344.994 328.843C345.384 329.038 345.774 329.233 346.164 329.233C346.359 329.233 346.554 329.233 346.943 329.233L334.664 366.461C334.079 366.266 333.3 366.461 332.715 366.656L320.046 344.241L344.994 328.843ZM350.257 325.725L400.349 314.81L407.366 359.639C406.781 359.834 406.196 360.224 405.612 360.809L368.773 338.394L350.062 327.089C350.062 327.089 350.062 327.089 350.062 326.894C350.257 326.504 350.257 326.114 350.257 325.725ZM405.417 361.588C405.417 361.783 405.222 361.978 405.222 362.173C405.222 362.368 405.222 362.563 405.222 362.758L362.731 366.851L349.672 328.258C349.867 328.064 349.867 327.869 350.062 327.674L405.417 361.588ZM361.562 366.851L337.198 369.19C337.003 368.215 336.223 367.436 335.444 366.851L347.918 329.233C348.308 329.233 348.503 329.038 348.893 328.843L361.562 366.851ZM335.833 372.893L377.544 418.892C377.35 419.087 377.155 419.282 377.155 419.672L344.41 408.952L335.249 373.478C335.444 373.088 335.639 373.088 335.833 372.893ZM336.613 372.308C337.003 371.919 337.198 371.529 337.393 370.944C337.393 370.749 337.393 370.554 337.393 370.164L361.952 367.825L378.909 417.918C378.714 417.918 378.519 418.113 378.519 418.113L336.613 372.308ZM362.731 367.631L405.027 363.732C405.222 364.512 405.807 365.292 406.391 365.876L395.866 387.511L381.248 417.723C381.053 417.723 381.053 417.723 380.858 417.723C380.468 417.528 379.883 417.528 379.494 417.723L362.731 367.631ZM397.036 387.511L407.366 366.266C407.561 366.266 407.561 366.266 407.756 366.266C408.73 366.461 409.9 366.266 410.679 365.681L425.882 380.884L382.612 418.502C382.417 418.307 382.417 418.307 382.222 418.113L397.036 387.511ZM411.264 365.097C411.459 364.707 411.849 364.317 411.849 363.732C411.849 363.342 412.044 362.953 411.849 362.563L460.967 349.309C461.161 349.504 461.161 349.699 461.356 349.894L426.467 380.3L411.264 365.097ZM434.069 309.352L409.51 359.639C409.315 359.639 409.315 359.639 409.12 359.639C408.925 359.639 408.535 359.639 408.34 359.639L401.324 314.615L432.704 307.793C432.899 308.377 433.484 308.962 434.069 309.352ZM391.383 247.37L433.484 304.089C433.094 304.479 432.704 305.064 432.509 305.844C432.509 306.233 432.315 306.623 432.509 306.818L401.129 313.64L390.798 247.565C390.993 247.565 391.188 247.565 391.383 247.37ZM389.044 247.76C389.239 247.76 389.629 247.76 389.824 247.76L400.154 313.835L350.062 324.75C349.867 324.165 349.477 323.581 348.893 323.191L388.654 247.565C388.654 247.76 388.849 247.76 389.044 247.76ZM387.485 246.98C387.68 247.175 387.68 247.175 387.875 247.37L348.113 322.996C347.918 322.996 347.918 322.801 347.723 322.801C347.528 322.801 347.333 322.801 347.138 322.801L344.604 281.675L387.485 246.98ZM346.749 272.124C346.943 271.344 346.748 270.76 346.554 269.98L384.951 247.565L344.604 280.505L344.215 274.658C345.384 274.463 346.554 273.488 346.749 272.124ZM346.164 322.801C344.994 322.996 344.02 323.775 343.63 324.75L306.012 315.589C306.207 314.615 306.012 313.835 305.622 313.055L343.63 282.259L346.164 322.801ZM341.486 274.073C341.876 274.268 342.266 274.463 342.655 274.658C342.85 274.658 343.045 274.658 343.24 274.658L343.63 281.09L307.376 310.327L341.486 274.073ZM233.115 238.209L340.121 270.76C339.927 271.734 340.316 272.709 340.901 273.488L304.843 312.081C304.453 311.886 304.063 311.691 303.673 311.496C302.504 311.301 301.529 311.496 300.749 312.276L232.53 239.379C232.725 238.989 233.115 238.599 233.115 238.209ZM299.97 312.86C299.97 313.055 299.775 313.055 299.775 313.25L247.344 288.302L228.437 279.336C228.437 279.141 228.437 279.141 228.437 278.946C228.827 277.192 227.658 275.243 225.903 274.853L229.607 240.353C230.386 240.353 231.166 240.159 231.751 239.769L299.97 312.86ZM299.58 315.979L245.589 339.173L226.683 281.48C227.268 281.285 227.658 280.7 228.047 280.31L267.225 298.827L278.724 304.284L299.385 314.03C299.385 314.81 299.385 315.394 299.58 315.979ZM144.625 357.495L87.9062 359.444V359.249L135.465 341.512C135.854 342.292 136.634 343.072 137.804 343.267C139.363 343.656 140.922 342.877 141.507 341.512L144.625 357.495ZM142.286 341.512L204.268 355.546L145.6 357.495L142.286 341.512ZM191.599 252.633L201.734 260.429L167.82 289.666C167.625 289.471 167.43 289.276 167.235 289.276L187.896 253.607C188.091 253.607 188.091 253.607 188.286 253.802C189.455 254.192 190.819 253.607 191.599 252.633ZM188.675 209.168L258.649 198.642C258.649 198.837 258.843 199.032 258.843 199.422L191.209 248.345C190.819 247.955 190.235 247.565 189.455 247.37C189.26 247.37 189.26 247.37 189.065 247.37L188.675 209.168ZM192.379 249.709L226.878 238.209C226.878 238.404 227.073 238.404 227.073 238.599L202.319 259.845L191.989 251.853C191.989 251.658 192.184 251.463 192.184 251.268C192.379 250.684 192.379 250.294 192.379 249.709ZM107.202 198.058C106.228 198.058 105.253 198.447 104.474 199.227L83.4233 185.583L111.101 151.474C111.296 151.669 111.685 151.669 111.88 151.864L107.202 198.058ZM111.88 162.389L110.321 200.007C109.931 199.032 109.152 198.447 108.177 198.058L111.88 162.389ZM106.228 204.685C106.423 204.685 106.618 204.685 106.813 204.685L107.982 244.836C107.202 245.031 106.423 245.421 105.838 246.006L86.9317 234.506L105.643 204.295C105.838 204.685 106.033 204.685 106.228 204.685ZM107.787 204.685C108.762 204.49 109.541 203.905 110.126 202.93L108.762 235.87L107.787 204.685ZM113.05 151.864C113.44 151.864 113.829 151.669 114.219 151.669L153.396 211.312C152.812 211.701 152.422 212.481 152.227 213.066C152.032 213.846 152.227 214.82 152.617 215.405L110.906 246.006C110.516 245.616 109.931 245.226 109.152 245.031H108.957L113.05 151.864ZM183.608 129.059L142.481 140.169L138.193 117.949C139.168 117.559 139.948 116.975 140.337 116L183.608 128.085C183.608 128.474 183.608 128.864 183.608 129.059ZM141.507 140.364L116.168 147.186C115.973 146.796 115.584 146.211 115.194 146.016L135.465 117.754C135.66 117.949 136.049 117.949 136.244 118.144C136.634 118.144 136.829 118.144 137.219 118.144L141.507 140.364ZM116.363 149.135C116.363 148.745 116.558 148.355 116.363 147.965L141.702 141.144L154.566 210.532C154.371 210.532 154.176 210.727 154.176 210.727L114.999 151.084C115.584 150.694 116.168 150.109 116.363 149.135ZM159.634 249.319L111.88 247.955C111.88 247.565 111.685 246.98 111.491 246.591L153.202 215.99C153.591 216.379 154.176 216.769 154.956 216.964C155.151 216.964 155.54 216.964 155.735 216.964L159.634 249.319ZM156.515 217.159C156.905 216.964 157.295 216.964 157.684 216.574L186.336 248.345C185.947 248.735 185.752 249.319 185.557 249.709V249.904L160.608 249.124L156.515 217.159ZM110.906 250.684L162.557 290.641C162.362 291.03 162.167 291.225 162.167 291.615C161.973 292.59 162.167 293.369 162.557 294.149L132.151 319.682L109.931 251.463C110.321 251.268 110.711 251.074 110.906 250.684ZM163.142 294.734L163.337 294.929L139.558 336.835C139.363 336.835 139.168 336.64 138.973 336.64C138.583 336.445 137.998 336.445 137.609 336.64L132.346 320.462L163.142 294.734ZM163.142 289.861L111.491 249.904C111.685 249.514 111.88 249.319 111.88 248.93V248.735L159.829 250.099L164.701 288.886C164.117 289.081 163.532 289.471 163.142 289.861ZM160.803 250.099L185.752 250.684C185.947 251.658 186.336 252.633 187.311 253.218L166.65 288.886C166.65 288.886 166.65 288.886 166.455 288.886C166.261 288.886 165.871 288.886 165.676 288.886L160.803 250.099ZM186.921 247.76L158.269 215.99C158.659 215.6 158.854 215.015 159.049 214.625C159.049 214.43 159.049 214.04 159.049 213.845L187.701 209.557L188.286 247.37C187.896 247.175 187.506 247.37 186.921 247.76ZM159.049 212.871C158.854 211.896 158.269 211.312 157.295 210.727L186.142 132.178C186.336 132.178 186.336 132.178 186.531 132.178L187.701 208.388L159.049 212.871ZM156.515 210.532C156.125 210.532 155.93 210.532 155.54 210.532L142.676 141.144L183.803 130.034C183.998 130.813 184.582 131.398 185.362 131.788L156.515 210.532ZM184.192 126.72L91.2197 81.6956C91.2197 81.5007 91.2197 81.5007 91.2197 81.3058C91.2197 81.3058 91.2197 81.3058 91.2197 81.1109L164.701 85.5939L184.972 125.746C184.777 126.135 184.387 126.525 184.192 126.72ZM182.243 126.915L140.532 115.22C140.727 113.466 139.753 111.712 137.998 111.322C136.829 111.127 135.465 111.517 134.685 112.297L92.9739 83.6447L182.243 126.915ZM134.88 117.169L114.414 145.432C114.219 145.237 114.024 145.237 113.635 145.237C113.05 145.042 112.66 145.042 112.075 145.237L105.643 127.5L134.1 116.39C134.49 116.585 134.685 116.975 134.88 117.169ZM111.296 145.432C110.516 145.821 109.736 146.601 109.541 147.771C109.541 147.965 109.541 148.16 109.541 148.355L38.5937 153.618C38.5937 153.618 38.5937 153.618 38.5937 153.423L104.864 127.695L111.296 145.432ZM38.3988 155.177C38.3988 154.982 38.3988 154.787 38.3988 154.592L109.541 149.135C109.736 149.72 109.931 150.304 110.321 150.889L82.6436 184.999L38.2038 155.957C38.3988 155.567 38.3988 155.372 38.3988 155.177ZM83.0335 186.168L104.084 200.007C103.889 200.202 103.889 200.397 103.889 200.786C103.694 201.176 103.694 201.761 103.889 202.151L60.6187 215.795C60.4237 215.405 60.2288 215.21 60.0339 214.82L83.0335 186.168ZM60.6187 217.744C60.8136 217.354 60.8136 216.769 60.6187 216.379L103.889 202.736C104.084 203.32 104.474 203.71 104.864 204.1L86.152 234.116L60.2288 218.328C60.4237 218.328 60.6187 218.134 60.6187 217.744ZM86.5419 235.481L105.448 246.98C105.448 247.175 105.253 247.37 105.253 247.565C105.058 248.15 105.058 248.54 105.253 249.124L71.7286 261.794C71.5337 261.404 71.1439 261.014 70.949 260.819L86.5419 235.481ZM71.9235 264.133C72.1184 263.548 72.1184 263.158 71.9235 262.573L103.499 250.489L70.1693 269.98L69.5846 266.666C70.754 266.472 71.7286 265.497 71.9235 264.133ZM105.838 250.294C106.228 250.879 106.813 251.268 107.397 251.463L84.7877 356.521L84.5927 356.715H84.3978L70.3642 270.954L105.838 250.294ZM108.177 251.658C108.567 251.658 108.762 251.658 109.152 251.658L131.566 320.267L86.7368 357.69C86.3469 357.3 85.9571 357.105 85.5673 356.91L108.177 251.658ZM131.761 321.047L137.024 337.029C136.049 337.419 135.465 338.199 135.075 339.368C134.88 339.953 134.88 340.343 135.075 340.928L121.821 345.8L87.5164 358.47C87.5164 358.47 87.5164 358.275 87.3215 358.275L131.761 321.047ZM140.532 337.419L164.311 295.513C164.506 295.513 164.701 295.708 164.896 295.708C165.676 295.903 166.65 295.708 167.235 295.318L177.955 311.496L140.922 337.809C140.727 337.614 140.727 337.614 140.532 337.419ZM168.015 294.734C168.405 294.344 168.794 293.759 168.989 292.979C168.989 292.59 169.184 292.2 168.989 291.81L222.005 279.336C222.005 279.531 222.2 279.531 222.2 279.726L178.54 310.911L168.015 294.734ZM221.81 277.581C221.81 277.971 221.615 278.361 221.81 278.751L168.6 291.03C168.6 290.835 168.405 290.641 168.405 290.446L202.514 261.014L222.395 276.412C222.2 276.802 222.005 277.192 221.81 277.581ZM203.099 260.429L227.463 239.379C227.853 239.769 228.242 239.964 228.827 240.159L225.124 274.853C224.149 274.853 223.37 275.243 222.785 275.827L203.099 260.429ZM259.623 200.007L231.751 234.116C231.361 233.921 231.166 233.726 230.776 233.726C229.022 233.337 227.073 234.506 226.683 236.26C226.683 236.65 226.488 237.04 226.683 237.43L191.989 248.93L259.623 200.007ZM189.26 131.398L259.233 195.719C259.038 196.109 258.843 196.498 258.649 196.888C258.649 197.083 258.649 197.473 258.649 197.668L188.675 208.388L187.506 132.178C188.091 131.983 188.675 131.788 189.26 131.398ZM208.751 91.0514L188.286 125.551C188.091 125.551 187.896 125.356 187.701 125.356C187.116 125.161 186.531 125.356 185.947 125.356L165.871 85.7888L207.192 88.3226C207.192 89.4921 207.777 90.4666 208.751 91.0514ZM125.914 6.45986L207.972 85.9837C207.582 86.3735 207.387 86.9582 207.192 87.3481L165.286 84.8142L125.719 6.45986C125.914 6.45986 125.914 6.45986 125.914 6.45986ZM122.795 7.0446H122.99C123.575 7.23951 124.355 7.04459 124.939 6.84968L164.311 84.8142L91.4146 80.3312C91.4146 79.1618 90.8299 78.1872 89.8553 77.6025L122.795 7.0446ZM90.635 83.06L134.1 113.076C133.905 113.271 133.905 113.661 133.71 113.856C133.515 114.441 133.515 115.025 133.71 115.415L105.253 126.525L89.4655 83.6447C90.0503 83.4498 90.2452 83.2549 90.635 83.06ZM86.3469 83.6447C86.5419 83.8397 86.9317 83.8396 87.1266 84.0346C87.7113 84.2295 88.1012 84.2295 88.6859 84.0346L104.474 126.915L38.0089 152.838C37.814 152.448 37.6191 152.254 37.4242 152.059L86.3469 83.6447ZM56.5255 213.651L36.6446 157.516C37.0344 157.321 37.4242 157.126 37.6191 156.736L82.0589 185.778L58.8645 214.235C58.4746 214.04 58.2797 213.845 57.8899 213.845C57.5001 213.651 57.1102 213.651 56.5255 213.651ZM58.4746 220.278C59.0594 220.083 59.4492 219.693 59.839 219.303L85.7622 235.091L69.9744 260.429C69.7795 260.429 69.5846 260.234 69.3897 260.234C68.9998 260.234 68.61 260.039 68.2202 260.234L58.4746 220.278ZM66.0762 265.887C66.466 266.277 67.0507 266.666 67.8304 266.861C68.0253 266.861 68.4151 266.861 68.61 266.861L69.1947 270.37L23.5855 296.683L66.0762 265.887ZM19.8822 299.996L69.5846 271.344L83.6182 356.91C83.2284 357.105 82.6436 357.3 82.2538 357.69L19.4924 303.115C19.6873 302.725 19.8822 302.335 19.8822 301.945C20.272 301.361 20.0771 300.581 19.8822 299.996ZM18.9076 303.895L81.4742 358.275C81.2793 358.665 81.0843 358.86 81.0843 359.249L30.2125 352.038L17.9331 304.479C18.3229 304.284 18.7127 304.089 18.9076 303.895ZM0.780872 345.021L15.984 304.674C16.3738 304.674 16.7636 304.869 17.1534 304.674L29.4328 351.843L2.72999 347.944C2.53507 346.775 1.95034 345.606 0.780872 345.021ZM38.2038 389.461L1.75543 350.089C2.14525 349.699 2.34016 349.309 2.34016 348.724L29.4328 352.622L38.7886 388.876C38.5937 389.071 38.3988 389.266 38.2038 389.461ZM40.9326 388.876C40.5428 388.876 40.153 388.681 39.7631 388.876L30.4074 353.012L80.3047 360.029L42.4919 389.655C42.1021 389.266 41.5173 388.876 40.9326 388.876ZM43.6614 391.8C43.6614 391.215 43.4664 390.825 43.2715 390.435L81.2793 360.614C81.4742 361.978 82.4487 363.148 83.8131 363.537C85.1775 363.927 86.5419 363.342 87.3215 362.173L150.668 395.308L43.6614 391.8ZM87.7113 361.198C87.7113 361.004 87.7113 361.004 87.9062 360.809C87.9062 360.614 87.9062 360.614 87.9062 360.419L144.82 358.47L152.032 394.918L87.7113 361.198ZM152.812 394.918L145.6 358.47L204.268 356.521C204.268 356.91 204.463 357.3 204.658 357.495L152.812 394.918ZM204.463 354.766L141.897 340.538C141.897 339.953 141.897 339.173 141.507 338.589L178.345 312.276L205.438 353.402C205.048 353.597 204.658 354.182 204.463 354.766ZM206.217 352.817L179.125 311.691L222.785 280.505C223.175 280.895 223.564 281.285 224.149 281.48L207.972 352.427C207.387 352.427 206.607 352.427 206.217 352.817ZM208.751 352.622L224.929 281.675C225.319 281.675 225.514 281.675 225.903 281.675L244.81 339.563L210.505 354.182C210.116 353.402 209.531 353.012 208.751 352.622ZM256.115 379.715L210.7 356.91C210.7 356.716 210.7 356.715 210.895 356.521C211.09 355.936 211.09 355.351 210.895 354.766L245.005 340.148L257.479 378.351C257.089 378.74 256.505 379.13 256.115 379.715ZM259.818 378.351C259.428 378.156 258.843 378.156 258.454 378.351L245.979 339.953L300.165 316.759C300.36 316.954 300.555 317.343 300.749 317.538L293.343 328.648L260.598 378.546C260.208 378.351 260.013 378.351 259.818 378.351ZM261.182 378.935L293.733 329.623L301.334 317.928C301.529 317.928 301.724 318.123 301.919 318.123C302.504 318.318 303.283 318.123 303.868 317.928L318.681 344.046L261.572 379.325C261.572 379.325 261.377 379.13 261.182 378.935ZM262.157 380.3L319.266 345.021L331.935 367.436C331.35 367.825 330.766 368.605 330.571 369.385C330.571 369.58 330.571 369.969 330.571 370.164L262.352 380.69C262.157 380.495 262.157 380.3 262.157 380.3ZM262.352 381.469L330.571 370.944C330.961 372.113 331.74 373.088 333.105 373.478C333.495 373.478 333.884 373.673 334.274 373.478L343.435 408.562L262.352 382.054C262.352 381.859 262.352 381.664 262.352 381.469ZM360.977 479.12L264.106 383.418L343.825 409.536L361.757 478.73C361.367 478.73 361.172 478.925 360.977 479.12ZM362.536 478.34L344.604 409.731L376.765 420.257C376.375 421.816 377.35 423.375 378.714 423.96L363.316 478.34C363.121 478.34 362.926 478.34 362.536 478.34ZM365.655 479.705C365.265 479.315 364.875 478.925 364.291 478.535L379.689 424.155C381.443 424.35 383.197 423.375 383.587 421.621V421.426L465.06 423.18C465.06 423.57 465.255 423.765 465.255 424.155L365.655 479.705ZM465.06 422.011V422.206L383.587 420.451C383.587 419.867 383.392 419.477 383.002 418.892L426.272 381.274L465.644 420.451C465.449 421.036 465.255 421.621 465.06 422.011ZM466.424 420.062L427.052 380.884L461.941 350.478C462.331 350.868 462.721 351.063 463.305 351.063C463.5 351.063 463.89 351.063 464.085 351.063L467.788 419.282C467.399 419.477 466.814 419.867 466.424 420.062ZM469.153 419.477C468.958 419.477 468.763 419.477 468.568 419.477L464.865 351.258H465.06L489.618 412.46L471.297 421.036C470.907 420.257 470.127 419.672 469.153 419.477ZM499.364 466.645C498.974 466.451 498.779 466.256 498.389 466.256C497.61 466.061 496.83 466.256 496.245 466.451L470.712 425.519C470.712 425.519 470.712 425.519 470.907 425.324L505.211 454.366C505.016 454.756 504.822 455.146 504.822 455.536C504.627 456.705 505.017 457.874 505.796 458.654L499.364 466.645ZM500.144 467.035L506.186 459.044C506.576 459.239 506.771 459.434 507.16 459.434C508.135 459.629 508.915 459.434 509.694 459.044L516.126 467.23L500.923 468.595C500.923 468.205 500.534 467.62 500.144 467.035ZM537.567 494.908L500.728 470.934C500.923 470.739 500.923 470.544 500.923 470.154C500.923 469.959 500.923 469.764 500.923 469.569L516.516 468.01L537.567 494.908C537.762 494.713 537.762 494.908 537.567 494.908ZM541.075 493.738C540.101 493.543 539.321 493.738 538.541 494.128L517.881 468.01L598.964 460.213C598.964 460.408 599.159 460.603 599.159 460.798L543.024 494.908C542.439 494.323 541.855 493.933 541.075 493.738ZM622.743 493.738C622.743 493.933 622.743 493.933 622.743 494.128L543.609 496.467V496.272L609.684 471.323L623.912 491.984C623.328 492.374 622.938 492.958 622.743 493.738ZM627.811 491.594C627.616 491.399 627.226 491.399 626.836 491.204C626.056 491.009 625.277 491.204 624.497 491.594L610.464 471.128L654.513 454.366C654.708 454.756 654.903 455.146 655.098 455.341L627.811 491.594ZM654.319 452.222C654.319 452.417 654.319 452.417 654.319 452.612L605.396 458.654C605.201 458.264 605.006 457.68 604.811 457.29L636.777 423.96L655.683 450.078C654.903 450.663 654.513 451.442 654.319 452.222ZM657.437 449.493C657.047 449.493 656.657 449.688 656.268 449.688L637.361 423.375L659.386 400.376C659.776 400.571 660.166 400.765 660.556 400.765C660.751 400.765 660.945 400.765 660.945 400.765L657.437 449.493ZM660.751 451.637C660.361 450.663 659.386 449.883 658.412 449.688L661.92 401.155C662.31 401.155 662.505 400.96 662.895 400.765L689.208 440.138C687.843 440.917 687.453 442.671 687.843 444.036L660.751 451.637ZM661.14 453.392L660.945 453.781C660.945 453.391 661.14 453.002 660.945 452.612L688.038 444.815C689.013 446.18 690.962 446.765 692.521 445.985C692.716 445.985 692.716 445.79 692.716 445.79L697.589 453.002L706.945 467.035C706.75 467.23 706.75 467.23 706.555 467.425C706.36 467.62 706.36 467.62 706.165 467.815L661.14 453.392ZM771.07 467.23L712.987 468.984C712.987 468.595 712.792 468.205 712.597 468.01C712.402 467.62 712.207 467.23 711.817 467.035L721.758 452.612L771.07 467.23C771.07 467.035 771.07 467.035 771.07 467.23ZM771.265 466.061L722.148 451.637L740.08 425.519C741.054 425.909 742.224 426.104 743.198 425.519L771.85 465.281C771.655 465.476 771.46 465.866 771.265 466.061ZM773.994 464.112C773.604 464.112 773.214 464.307 772.825 464.501C772.63 464.501 772.63 464.696 772.435 464.696L743.978 425.129C744.368 424.934 744.562 424.545 744.757 424.155L776.333 432.341L773.994 464.112ZM825.061 453.392L777.892 466.451C777.892 466.256 777.697 466.061 777.697 465.866C777.113 464.891 776.138 464.112 775.164 464.112L777.308 432.536L839.484 448.714C839.484 448.909 839.484 449.103 839.484 449.493L825.061 453.392ZM839.484 447.739L777.308 431.561L780.621 385.173C781.011 385.173 781.596 384.978 781.985 384.783C782.18 384.783 782.375 384.588 782.375 384.588L839.874 446.764C839.679 447.154 839.484 447.349 839.484 447.739ZM842.408 445.205C842.018 445.205 841.628 445.4 841.238 445.595C840.849 445.79 840.654 445.985 840.459 446.18L782.96 384.003C783.35 383.613 783.545 383.223 783.545 382.639L847.671 391.994L842.408 445.205ZM844.162 445.4C843.967 445.4 843.577 445.205 843.383 445.205L848.645 392.189L870.085 395.308C870.085 395.893 870.28 396.283 870.475 396.867C870.67 397.257 871.06 397.842 871.45 398.037L844.162 445.4ZM872.035 392.384C871.06 392.774 870.475 393.749 870.28 394.528L848.645 391.41L855.077 327.284C855.272 327.284 855.272 327.284 855.467 327.284L861.314 349.699L872.229 392.189C872.229 392.189 872.229 392.189 872.035 392.384ZM874.763 392.189C874.373 391.994 873.789 391.994 873.204 391.994L862.094 349.309L856.442 327.089C856.442 327.089 856.637 327.089 856.637 326.894C857.221 326.699 857.611 326.309 857.806 325.919L896.009 346.58L874.763 392.189ZM896.983 346.775L955.262 378.156C955.067 378.546 955.067 378.935 955.067 379.52L876.907 394.333C876.907 394.138 876.712 393.944 876.712 393.749C876.517 393.164 875.933 392.774 875.543 392.384L896.983 346.775ZM893.28 423.18L875.933 397.842C876.712 397.062 877.102 396.088 877.102 395.113L955.262 380.3C955.262 380.495 955.457 380.495 955.457 380.69L893.28 423.18ZM955.651 377.376L897.373 345.995L905.949 327.479C906.729 327.674 907.703 327.674 908.483 327.284C908.678 327.284 908.873 327.089 908.873 327.089L955.651 377.376ZM957.016 376.207C956.821 376.402 956.626 376.402 956.431 376.596L909.652 326.504C910.042 326.114 910.237 325.53 910.432 325.14L965.982 330.208L958.575 376.012C957.99 375.817 957.406 376.012 957.016 376.207ZM959.94 376.207C959.745 376.012 959.55 376.012 959.16 376.012L966.567 330.208L988.202 332.157C988.202 332.546 988.397 333.131 988.591 333.521C988.786 333.911 988.981 334.301 989.371 334.496L959.94 376.207ZM1005.35 390.045C1004.57 390.435 1003.99 391.02 1003.79 391.8L962.083 379.91C962.278 379.13 962.084 378.546 961.694 377.766C961.499 377.376 961.304 376.986 960.914 376.791L990.346 335.08C990.93 335.47 991.71 335.47 992.295 335.47L1005.74 390.045C1005.55 389.85 1005.35 390.045 1005.35 390.045ZM1006.52 389.655L993.074 335.08C993.269 335.08 993.269 335.08 993.464 334.885C993.659 334.691 994.049 334.496 994.244 334.496L1028.55 364.707L1008.67 390.24C1007.89 389.85 1007.11 389.655 1006.52 389.655ZM1079.23 410.121L1010.23 393.359C1010.23 392.774 1010.23 391.994 1009.84 391.41C1009.64 391.02 1009.45 390.825 1009.25 390.63L1029.13 365.097L1079.61 409.342C1079.42 409.731 1079.23 409.926 1079.23 410.121ZM1080.78 408.367C1080.59 408.562 1080.2 408.757 1080 408.757L1029.52 364.512L1061.1 323.775C1061.68 324.165 1062.46 324.36 1063.05 324.165L1080.98 407.977C1081.17 408.172 1080.98 408.367 1080.78 408.367ZM1082.54 407.977C1082.34 407.977 1082.15 407.977 1081.95 407.977L1064.02 324.165C1064.22 324.165 1064.22 323.97 1064.41 323.97C1064.61 323.97 1064.8 323.775 1064.8 323.775L1093.06 353.792L1082.54 407.977ZM1083.9 405.833L1094.04 354.377L1098.13 358.665C1097.35 359.639 1097.16 361.198 1097.74 362.368C1098.13 362.953 1098.52 363.537 1099.3 363.927L1083.9 405.833ZM1100.67 357.495C1100.28 357.495 1099.69 357.69 1099.3 357.885C1099.11 357.885 1098.91 358.08 1098.91 358.08L1094.43 353.402L1103.59 307.598L1100.67 357.495ZM1103.78 359.249C1103.2 358.275 1102.42 357.69 1101.45 357.69L1104.56 304.869C1104.95 304.869 1105.54 304.674 1105.93 304.479C1106.9 303.895 1107.49 303.115 1107.68 302.14L1207.09 314.615C1207.09 315.004 1207.09 315.394 1207.28 315.979L1103.78 359.249ZM1207.28 313.445L1107.68 300.971C1107.68 300.776 1107.68 300.581 1107.68 300.581L1164.01 286.158L1184.48 280.895C1184.48 280.895 1184.48 281.09 1184.67 281.09C1185.45 282.844 1187.6 283.429 1189.16 282.649L1208.45 311.691C1207.87 312.276 1207.48 312.86 1207.28 313.445ZM1209.23 311.301L1189.93 282.259C1190.52 281.675 1191.1 280.895 1191.1 279.92L1216.25 279.141L1210.99 311.106C1210.4 311.106 1209.82 311.106 1209.23 311.301ZM1211.38 362.173L1210.99 317.928C1211.38 317.928 1211.76 317.733 1212.15 317.538C1213.91 316.759 1214.49 314.615 1213.71 312.86C1213.52 312.471 1213.32 312.081 1212.93 311.886L1232.23 280.895L1211.38 362.173ZM1212.93 362.563C1212.74 362.368 1212.54 362.368 1212.35 362.173L1233.21 281.09C1233.79 281.09 1234.57 281.09 1235.15 280.7C1235.35 280.7 1235.35 280.505 1235.54 280.505L1260.3 309.352L1212.93 362.563ZM1309.81 369.969L1214.49 365.292C1214.49 364.902 1214.3 364.512 1214.1 363.927C1213.91 363.732 1213.91 363.537 1213.71 363.148L1260.88 310.132L1310.78 368.215C1310.2 368.605 1310 369.19 1309.81 369.969ZM1311.56 367.436C1311.36 367.436 1311.36 367.631 1311.17 367.631L1261.27 309.547L1280.76 287.717C1281.54 288.302 1282.52 288.497 1283.49 288.302L1311.56 367.436C1311.75 367.436 1311.75 367.436 1311.56 367.436ZM1312.53 367.046L1284.27 287.717C1284.66 287.522 1284.86 287.327 1285.05 287.132L1339.63 332.352L1314.87 367.436C1314.29 367.046 1313.31 366.851 1312.53 367.046ZM1320.72 413.63L1314.29 373.868C1314.48 373.868 1314.68 373.673 1314.87 373.673C1315.46 373.283 1315.85 372.893 1316.24 372.503L1357.17 390.24L1323.64 414.799C1322.86 413.825 1321.69 413.435 1320.72 413.63ZM1438.84 425.714L1324.42 416.943C1324.42 416.358 1324.23 415.969 1324.03 415.384L1357.95 390.435L1438.84 425.519C1439.03 425.519 1438.84 425.714 1438.84 425.714ZM1440.79 423.375C1440.2 423.765 1439.81 424.155 1439.42 424.74L1358.92 389.85L1417.98 346.385C1418.76 347.165 1419.74 347.555 1420.9 347.36L1440.98 423.18C1440.79 423.375 1440.79 423.375 1440.79 423.375Z" fill="url(#paint0_linear)"/>
<defs>
<linearGradient id="paint0_linear" x1="-3.4276" y1="250.163" x2="1443.49" y2="250.163" gradientUnits="userSpaceOnUse">
<stop stop-color="#71E8FF"/>
<stop offset="0.4436" stop-color="#007DFF"/>
<stop offset="1" stop-color="#36DEFF"/>
</linearGradient>
</defs>
</svg>
