<svg width="36" height="36" viewBox="0 0 36 36" fill="none" xmlns="http://www.w3.org/2000/svg">
<path d="M34.5961 6.37533H25.2628V4.62533C25.2602 2.37125 23.4335 0.544544 21.1794 0.541992H14.1794C11.9254 0.544544 10.0987 2.37125 10.0961 4.62533V6.37533H0.762777C0.440631 6.37533 0.179443 6.63651 0.179443 6.95866V18.6253C0.179443 19.5918 0.962933 20.3753 1.92944 20.3753V33.8737C1.93039 34.7947 2.67677 35.541 3.59778 35.542H31.7611C32.6821 35.541 33.4285 34.7947 33.4294 33.8737V20.3753C34.396 20.3753 35.1794 19.5918 35.1794 18.6253V6.95866C35.1794 6.63651 34.9183 6.37533 34.5961 6.37533ZM11.2628 4.62533C11.2647 3.01533 12.5694 1.71055 14.1794 1.70866H21.1794C22.7894 1.71055 24.0942 3.01533 24.0961 4.62533V6.37533H22.9294V4.62533C22.9294 3.65881 22.146 2.87533 21.1794 2.87533H14.1794C13.2129 2.87533 12.4294 3.65881 12.4294 4.62533V6.37533H11.2628V4.62533ZM21.7628 4.62533V6.37533H13.5961V4.62533C13.5961 4.30318 13.8573 4.04199 14.1794 4.04199H21.1794C21.5016 4.04199 21.7628 4.30318 21.7628 4.62533ZM34.0128 18.6253C34.0128 18.9475 33.7516 19.2087 33.4294 19.2087H28.7628C28.4406 19.2087 28.1794 19.4698 28.1794 19.792C28.1794 20.1141 28.4406 20.3753 28.7628 20.3753H32.2628V21.542H28.1794C27.8573 21.542 27.5961 21.8032 27.5961 22.1253C27.5961 22.4475 27.8573 22.7087 28.1794 22.7087H32.2628V32.042H8.34611C8.02396 32.042 7.76278 32.3032 7.76278 32.6253C7.76278 32.9475 8.02396 33.2087 8.34611 33.2087H32.2628V33.8737C32.2625 34.1506 32.038 34.375 31.7611 34.3753H3.59778C3.32084 34.375 3.0964 34.1506 3.09611 33.8737V33.2087H6.01278C6.33492 33.2087 6.59611 32.9475 6.59611 32.6253C6.59611 32.3032 6.33492 32.042 6.01278 32.042H3.09611V20.3753H6.59611C6.91826 20.3753 7.17944 20.1141 7.17944 19.792C7.17944 19.4698 6.91826 19.2087 6.59611 19.2087H1.92944C1.6073 19.2087 1.34611 18.9475 1.34611 18.6253V7.54199H34.0128V18.6253Z" fill="white"/>
<path d="M17.6795 12.2086C13.4913 12.2086 10.0962 15.6038 10.0962 19.792C10.0962 23.9801 13.4913 27.3753 17.6795 27.3753C21.8677 27.3753 25.2629 23.9801 25.2629 19.792C25.258 15.6058 21.8657 12.2134 17.6795 12.2086ZM17.6795 26.2086C14.1357 26.2086 11.2629 23.3358 11.2629 19.792C11.2629 16.2481 14.1357 13.3753 17.6795 13.3753C21.2233 13.3753 24.0962 16.2481 24.0962 19.792C24.092 23.334 21.2216 26.2045 17.6795 26.2086Z" fill="white"/>
<path d="M17.6795 10.4587C12.5249 10.4587 8.34619 14.6374 8.34619 19.7921C8.34619 24.9467 12.5249 29.1254 17.6795 29.1254C22.8342 29.1254 27.0129 24.9467 27.0129 19.7921C27.0067 14.6399 22.8317 10.4649 17.6795 10.4587ZM17.6795 27.9587C13.1692 27.9587 9.51286 24.3024 9.51286 19.7921C9.51286 15.2817 13.1692 11.6254 17.6795 11.6254C22.1899 11.6254 25.8462 15.2817 25.8462 19.7921C25.8414 24.3004 22.1878 27.9539 17.6795 27.9587Z" fill="white"/>
</svg>
