<svg width="59" height="99" viewBox="0 0 59 99" fill="none" xmlns="http://www.w3.org/2000/svg">
<path d="M32.3141 45.9673C32.3141 46.6052 32.2064 47.2141 31.991 47.794C31.7673 48.3656 31.4815 48.813 31.1336 49.136L30.6614 48.8502C30.9845 48.5437 31.2496 48.1337 31.4567 47.62C31.6555 47.0981 31.7549 46.5514 31.7549 45.9798C31.7549 45.1514 31.5975 44.5259 31.2827 44.1034C30.9679 43.6809 30.5578 43.4697 30.0525 43.4697C29.6632 43.4697 29.3525 43.5815 29.1205 43.8052C28.8886 44.0289 28.7105 44.3064 28.5862 44.6377C28.462 44.9691 28.3335 45.4165 28.201 45.9798C28.0436 46.6177 27.8903 47.1313 27.7412 47.5206C27.5921 47.9017 27.3643 48.2289 27.0578 48.5023C26.743 48.7674 26.3246 48.8999 25.8027 48.8999C25.3802 48.8999 24.995 48.7881 24.6471 48.5644C24.2909 48.3408 24.0092 48.0011 23.8021 47.5455C23.595 47.0816 23.4915 46.5058 23.4915 45.8182C23.4915 45.3378 23.5619 44.8656 23.7027 44.4016C23.8435 43.9377 24.0341 43.5359 24.2743 43.1963L24.7838 43.4324C24.5435 43.7803 24.3613 44.1655 24.237 44.588C24.1128 45.0022 24.0506 45.4123 24.0506 45.8182C24.0506 46.6218 24.2122 47.2307 24.5353 47.6449C24.8583 48.0591 25.2767 48.2662 25.7903 48.2662C26.1797 48.2662 26.4903 48.1544 26.7223 47.9307C26.9542 47.707 27.1323 47.4295 27.2566 47.0981C27.3809 46.7668 27.5134 46.3153 27.6542 45.7437C27.8116 45.1058 27.9649 44.5963 28.114 44.2152C28.2631 43.8342 28.4909 43.5111 28.7975 43.246C29.0957 42.9726 29.5016 42.8359 30.0152 42.8359C30.4377 42.8359 30.8229 42.9519 31.1709 43.1839C31.5188 43.4075 31.7963 43.7555 32.0034 44.2277C32.2105 44.6999 32.3141 45.2798 32.3141 45.9673ZM32.3017 38.3081C32.3017 38.9377 32.1608 39.501 31.8792 39.9981C31.5975 40.4951 31.2081 40.8845 30.7111 41.1662C30.2058 41.4478 29.6383 41.5887 29.0087 41.5887C28.3708 41.5887 27.8034 41.4478 27.3063 41.1662C26.801 40.8845 26.4116 40.4951 26.1382 39.9981C25.8566 39.501 25.7158 38.9377 25.7158 38.3081C25.7158 37.7862 25.8193 37.314 26.0264 36.8915C26.2252 36.4608 26.5193 36.1128 26.9087 35.8477L27.2442 36.3075C26.9211 36.5395 26.6809 36.8294 26.5235 37.1773C26.3578 37.517 26.2749 37.8939 26.2749 38.3081C26.2749 38.8135 26.3909 39.2691 26.6229 39.675C26.8465 40.0727 27.1655 40.3874 27.5797 40.6194C27.9939 40.8431 28.4702 40.9549 29.0087 40.9549C29.5472 40.9549 30.0235 40.8431 30.4377 40.6194C30.8519 40.3874 31.175 40.0727 31.407 39.675C31.6306 39.2691 31.7425 38.8135 31.7425 38.3081C31.7425 37.8939 31.6638 37.517 31.5064 37.1773C31.3407 36.8294 31.0963 36.5395 30.7732 36.3075L31.1087 35.8477C31.4981 36.1128 31.7963 36.4608 32.0034 36.8915C32.2022 37.314 32.3017 37.7862 32.3017 38.3081ZM27.182 33.3912C26.7099 33.1924 26.3495 32.8817 26.101 32.4593C25.8442 32.0368 25.7158 31.5231 25.7158 30.9184L26.3246 30.9184L26.3122 31.0675C26.3122 31.7882 26.54 32.3516 26.9957 32.7575C27.443 33.1634 28.0685 33.3664 28.872 33.3664L32.252 33.3664L32.252 33.9877L25.7655 33.9877L25.7655 33.3912L27.182 33.3912ZM32.3017 26.7322C32.3017 27.3452 32.1608 27.9003 31.8792 28.3973C31.5975 28.8861 31.2081 29.2713 30.7111 29.553C30.2058 29.8346 29.6383 29.9755 29.0087 29.9755C28.3791 29.9755 27.8158 29.8346 27.3187 29.553C26.8134 29.2713 26.4199 28.8861 26.1382 28.3973C25.8566 27.9003 25.7158 27.3452 25.7158 26.7322C25.7158 26.1192 25.8566 25.5683 26.1382 25.0795C26.4199 24.5825 26.8134 24.1931 27.3187 23.9115C27.8158 23.6298 28.3791 23.489 29.0087 23.489C29.6383 23.489 30.2058 23.6298 30.7111 23.9115C31.2081 24.1931 31.5975 24.5825 31.8792 25.0795C32.1608 25.5683 32.3017 26.1192 32.3017 26.7322ZM31.7425 26.7322C31.7425 26.2352 31.6265 25.792 31.3945 25.4026C31.1626 25.005 30.8395 24.6943 30.4253 24.4706C30.0111 24.2387 29.5389 24.1227 29.0087 24.1227C28.4785 24.1227 28.0063 24.2387 27.5921 24.4706C27.1779 24.6943 26.8548 25.005 26.6229 25.4026C26.3909 25.792 26.2749 26.2352 26.2749 26.7322C26.2749 27.2293 26.3909 27.6766 26.6229 28.0742C26.8548 28.4636 27.1779 28.7743 27.5921 29.0062C28.0063 29.2299 28.4785 29.3417 29.0087 29.3417C29.5389 29.3417 30.0111 29.2299 30.4253 29.0062C30.8395 28.7743 31.1626 28.4636 31.3945 28.0742C31.6265 27.6766 31.7425 27.2293 31.7425 26.7322ZM23.0317 21.5614L23.0317 20.9401L32.252 20.9401L32.252 21.5614L23.0317 21.5614ZM23.0317 18.3214L23.0317 17.7001L32.252 17.7001L32.252 18.3214L23.0317 18.3214Z" fill="white"/>
<path d="M54.0118 32.3463C56.6319 36.7218 58.0266 41.7217 58.0497 46.8216C58.0729 51.9216 56.7235 56.9339 54.1433 61.333C51.563 65.7321 47.8467 69.3561 43.3841 71.825C38.9215 74.2938 33.8769 75.5167 28.7791 75.3654C23.6813 75.214 18.7181 73.6941 14.4098 70.9648C10.1016 68.2355 6.60684 64.3975 4.29206 59.853C1.97728 55.3086 0.927693 50.2251 1.25333 45.1355C1.57896 40.0459 3.26782 35.1376 6.14286 30.9252" stroke="#45BEFF" stroke-width="1.03552"/>
<path d="M29.6226 58.6703V98.2689" stroke="#45BEFF" stroke-width="1.03552"/>
</svg>
