<svg width="45" height="36" viewBox="0 0 45 36" fill="none" xmlns="http://www.w3.org/2000/svg">
<path d="M43.3611 30.1106H42.631V4.55604C42.6286 2.54089 40.9955 0.907768 38.9803 0.905396H5.39435C3.3792 0.907768 1.74608 2.54089 1.74371 4.55604V30.1106H1.01358C0.610363 30.1106 0.283447 30.4375 0.283447 30.8407V32.301C0.28582 34.3161 1.91894 35.9492 3.9341 35.9516H40.4406C42.4557 35.9492 44.0889 34.3161 44.0912 32.301V30.8407C44.0912 30.4375 43.7643 30.1106 43.3611 30.1106ZM5.39435 2.36565H38.9803C39.9052 2.36949 40.7281 2.95387 41.0364 3.82591H3.33831C3.64661 2.95387 4.46946 2.36949 5.39435 2.36565ZM3.20397 5.28617H41.1707V27.1901H3.20397V5.28617ZM3.20397 28.6503H41.1707V30.1106H3.20397V28.6503ZM42.631 32.301C42.631 33.5107 41.6503 34.4914 40.4406 34.4914H3.9341C2.72436 34.4914 1.74371 33.5107 1.74371 32.301V31.5708H42.631V32.301Z" fill="white"/>
<path d="M36.799 21.4744C36.1751 21.6949 35.6845 22.1856 35.464 22.8094H19.5691L17.6153 20.8555C18.0367 20.3398 18.3857 19.7689 18.6528 19.1587H28.8928C29.296 20.2993 30.5476 20.897 31.688 20.4937C32.8285 20.0904 33.4263 18.8389 33.023 17.6984C32.6198 16.5579 31.3682 15.9602 30.2278 16.3635C29.604 16.584 29.1133 17.0747 28.8928 17.6984H19.1208C19.3683 16.4852 19.3032 15.229 18.9317 14.0478H24.5135C24.9167 15.1884 26.1683 15.7861 27.3087 15.3827C28.4493 14.9795 29.047 13.728 28.6437 12.5875C28.2405 11.447 26.9889 10.8493 25.8485 11.2526C25.2247 11.4731 24.734 11.9638 24.5135 12.5875H18.2789C18.1694 12.3992 18.0533 12.2159 17.9277 12.0385L20.2992 9.66702H35.464C35.8672 10.8076 37.1187 11.4053 38.2592 11.002C39.3998 10.5988 39.9975 9.34722 39.5942 8.20676C39.1909 7.06621 37.9394 6.46851 36.799 6.87181C36.1751 7.09231 35.6845 7.58305 35.464 8.20676H19.9969C19.8033 8.20676 19.6176 8.28379 19.4807 8.42069L16.9676 10.9338C14.0369 8.16414 9.4158 8.29465 6.64615 11.2254C3.87649 14.1561 4.007 18.7772 6.93774 21.5469C9.6092 24.0715 13.7408 24.2167 16.5828 21.8857L18.7506 24.0535C18.8871 24.1912 19.0729 24.269 19.2668 24.2696H35.464C35.8672 25.4102 37.1187 26.0079 38.2592 25.6046C39.3997 25.2013 39.9975 23.9498 39.5942 22.8094C39.191 21.6688 37.9395 21.0711 36.799 21.4744ZM30.9489 17.6984C31.3521 17.6984 31.679 18.0254 31.679 18.4286C31.679 18.8318 31.3521 19.1587 30.9489 19.1587C30.5457 19.1587 30.2187 18.8318 30.2187 18.4286C30.2187 18.0254 30.5457 17.6984 30.9489 17.6984ZM26.5681 12.5875C26.9713 12.5875 27.2982 12.9145 27.2982 13.3177C27.2982 13.7209 26.9713 14.0478 26.5681 14.0478C26.1649 14.0478 25.838 13.7209 25.838 13.3177C25.838 12.9145 26.1649 12.5875 26.5681 12.5875ZM37.52 8.20676C37.9233 8.20676 38.2502 8.53368 38.2502 8.93689C38.2502 9.34011 37.9233 9.66702 37.52 9.66702C37.1168 9.66702 36.7899 9.34011 36.7899 8.93689C36.7899 8.53368 37.1168 8.20676 37.52 8.20676ZM16.1207 20.3371C16.1105 20.3459 16.0966 20.3495 16.0871 20.3598C16.0776 20.37 16.0732 20.3831 16.0645 20.3934C13.772 22.6596 10.0765 22.6383 7.81034 20.3459C6.7292 19.2522 6.12328 17.776 6.12447 16.2382C6.121 13.0123 8.73341 10.3944 11.9593 10.3909C15.1852 10.3875 17.8031 12.9999 17.8065 16.2258C17.8082 17.7648 17.2024 19.2423 16.1207 20.3371ZM37.52 24.2696C37.1168 24.2696 36.7899 23.9427 36.7899 23.5395C36.7899 23.1363 37.1168 22.8094 37.52 22.8094C37.9233 22.8094 38.2502 23.1363 38.2502 23.5395C38.2502 23.9427 37.9233 24.2696 37.52 24.2696Z" fill="white"/>
</svg>
