<svg width="35" height="36" viewBox="0 0 35 36" fill="none" xmlns="http://www.w3.org/2000/svg">
<path d="M25.101 19.7469C25.4216 19.7469 25.6816 19.4896 25.6816 19.1722V15.7241C25.6816 15.4067 25.4216 15.1494 25.101 15.1494H19.295C18.9743 15.1494 18.7144 15.4067 18.7144 15.7241V23.7697C18.7144 24.087 18.9743 24.3444 19.295 24.3444C19.6156 24.3444 19.8756 24.087 19.8756 23.7697V16.2988H24.5204V19.1722C24.5204 19.4896 24.7804 19.7469 25.101 19.7469Z" fill="white"/>
<path d="M34.3907 7.10388H28.5846C28.264 7.10388 28.004 7.3612 28.004 7.67857V19.1723C28.004 19.4896 28.264 19.7469 28.5846 19.7469C28.9053 19.7469 29.1652 19.4896 29.1652 19.1723V8.25325H33.8101V21.471C33.8101 21.7884 34.07 22.0457 34.3907 22.0457C34.7113 22.0457 34.9713 21.7884 34.9713 21.471V7.67857C34.9713 7.3612 34.7113 7.10388 34.3907 7.10388Z" fill="white"/>
<path d="M26.2686 3.05518L27.3055 5.87113L28.3965 5.47862L26.6105 0.620239L21.6992 2.39142L22.0958 3.47125L25.3146 2.31154C21.7811 11.7772 12.6524 18.0519 2.4574 18.0228V19.1722C13.0015 19.2017 22.4717 12.7916 26.2686 3.05518Z" fill="white"/>
<path d="M19.2949 31.2407C18.9743 31.2407 18.7143 31.498 18.7143 31.8154V34.1141H16.3919V19.747C16.3919 19.4296 16.132 19.1723 15.8113 19.1723H10.0053C9.68464 19.1723 9.42468 19.4296 9.42468 19.747V34.1141H7.10226V23.1951C7.10226 22.8777 6.84229 22.6204 6.52166 22.6204H0.715614C0.394975 22.6204 0.13501 22.8777 0.13501 23.1951V34.6888C0.13501 35.0062 0.394975 35.2635 0.715614 35.2635H19.2949C19.6156 35.2635 19.8756 35.0062 19.8756 34.6888V31.8154C19.8756 31.498 19.6156 31.2407 19.2949 31.2407ZM5.94105 34.1141H1.29622V23.7698H5.94105V34.1141ZM15.2307 34.1141H10.5859V20.3217H15.2307V34.1141Z" fill="white"/>
<path d="M27.4235 20.3216C23.2549 20.3216 19.8756 23.6664 19.8756 27.7925C19.8756 31.9186 23.2549 35.2634 27.4235 35.2634C31.5921 35.2634 34.9713 31.9186 34.9713 27.7925C34.9665 23.6684 31.59 20.3263 27.4235 20.3216ZM27.4235 34.114C23.8962 34.114 21.0368 31.2838 21.0368 27.7925C21.0368 24.3012 23.8962 21.471 27.4235 21.471C30.9507 21.471 33.8101 24.3012 33.8101 27.7925C33.806 31.2821 30.949 34.1099 27.4235 34.114Z" fill="white"/>
</svg>
