<?xml version="1.0" encoding="UTF-8" standalone="no"?>
<svg
   xmlns:dc="http://purl.org/dc/elements/1.1/"
   xmlns:cc="http://creativecommons.org/ns#"
   xmlns:rdf="http://www.w3.org/1999/02/22-rdf-syntax-ns#"
   xmlns:svg="http://www.w3.org/2000/svg"
   xmlns="http://www.w3.org/2000/svg"
   xmlns:sodipodi="http://sodipodi.sourceforge.net/DTD/sodipodi-0.dtd"
   xmlns:inkscape="http://www.inkscape.org/namespaces/inkscape"
   sodipodi:docname="wine.svg"
   inkscape:version="1.0 (6e3e5246a0, 2020-05-07)"
   id="svg8"
   version="1.1"
   viewBox="0 0 100 32"
   height="32mm"
   width="100mm">
  <defs
     id="defs2" />
  <sodipodi:namedview
     inkscape:window-maximized="0"
     inkscape:window-y="123"
     inkscape:window-x="199"
     inkscape:window-height="801"
     inkscape:window-width="1522"
     showgrid="false"
     inkscape:document-rotation="0"
     inkscape:current-layer="layer1"
     inkscape:document-units="mm"
     inkscape:cy="212.64827"
     inkscape:cx="151.32526"
     inkscape:zoom="1.4"
     inkscape:pageshadow="2"
     inkscape:pageopacity="0.0"
     borderopacity="1.0"
     bordercolor="#666666"
     pagecolor="#ffffff"
     id="base" />
  <metadata
     id="metadata5">
    <rdf:RDF>
      <cc:Work
         rdf:about="">
        <dc:format>image/svg+xml</dc:format>
        <dc:type
           rdf:resource="http://purl.org/dc/dcmitype/StillImage" />
        <dc:title></dc:title>
      </cc:Work>
    </rdf:RDF>
  </metadata>
  <g
     id="layer1"
     inkscape:groupmode="layer"
     inkscape:label="Слой 1">
    <path
       sodipodi:nodetypes="sssssssssssss"
       id="path28"
       d="m -1.0212495,10.251099 c 0.57164719,-0.3859893 4.9181509,-4.2113573 7.7648263,-5.6938723 2.9887391,-1.5565 6.2173652,-2.931137 9.5717642,-3.252475 3.144538,-0.301234 6.262944,0.832627 9.388587,1.290029 4.286317,0.627254 8.678965,0.796271 12.841976,1.99431 4.445185,1.279243 8.359136,4.02047 12.746769,5.4849863 3.834624,1.279931 7.861094,1.890551 11.786044,2.85871 3.856831,0.951356 7.591257,2.712658 11.559317,2.898996 2.212246,0.103886 4.370046,-0.73005 6.567572,-1.005189 2.115959,-0.264927 4.306155,-0.07383 6.367217,-0.621089 3.101852,-0.823612 6.087585,-5.6824323 8.784018,-3.942009 3.812829,2.46101 3.455745,10.631391 0.03567,13.614234 C 71.682682,45.428565 -3.6812324,12.047179 -1.0212495,10.251099 Z"
       style="fill:#ffffff;fill-opacity:1;stroke:none;stroke-width:0.144472px;stroke-linecap:butt;stroke-linejoin:miter;stroke-opacity:1" />
  </g>
</svg>
