<svg width="20" height="19" viewBox="0 0 20 19" fill="none" xmlns="http://www.w3.org/2000/svg">
<path d="M17.0454 2.5914C15.1601 0.920258 12.6579 0 10 0C7.34207 0 4.83994 0.920258 2.95456 2.5914C1.04935 4.28024 0 6.53137 0 8.93021C0 11.329 1.04935 13.5802 2.95456 15.269C4.83994 16.9402 7.34207 17.8604 10 17.8604C11.1215 17.8604 12.2209 17.6962 13.2704 17.3721L17.1623 18.1718L17.6379 14.6954C19.1628 13.0856 20 11.0458 20 8.93021C20 6.53137 18.9507 4.28024 17.0454 2.5914ZM5.22842 13.8911V8.37006L4.30756 9.26971L3.48862 8.43155L10 2.0694L16.5114 8.43155L15.6923 9.26971L14.7716 8.37006V13.8911H5.22842Z" fill="#BDBDBD"/>
<path d="M9.33594 10.1411H10.6641V12.7192H9.33594V10.1411Z" fill="#BDBDBD"/>
<path d="M13.5997 12.7192V7.22495L9.99997 3.70764L6.40027 7.22495V12.7192H8.16403V8.96918H11.8359V12.7192H13.5997Z" fill="#BDBDBD"/>
</svg>
