<svg viewBox="0 0 13 7" fill="none" xmlns="http://www.w3.org/2000/svg">
<path d="M6.87423 4.64774L2.41655 0.190257C2.29411 0.0675196 2.13039 -5.31675e-08 1.95583 -4.5537e-08C1.78117 -3.79023e-08 1.61755 0.0675196 1.49491 0.190257L1.10451 0.580846C0.981679 0.70339 0.914062 0.867201 0.914062 1.04177C0.914062 1.21633 0.981679 1.37995 1.10451 1.50259L6.41176 6.80993C6.53479 6.93306 6.69918 7.00048 6.87394 7C7.04947 7.00048 7.21367 6.93316 7.3368 6.80993L12.6389 1.50753C12.7617 1.38489 12.8294 1.22127 12.8294 1.04661C12.8294 0.872045 12.7617 0.708427 12.6389 0.58569L12.2485 0.195197C11.9944 -0.0588989 11.5808 -0.0588989 11.3268 0.195197L6.87423 4.64774Z" fill="#2D57B3"/>
</svg>
