<svg width="20" height="20" viewBox="0 0 20 20" fill="none" xmlns="http://www.w3.org/2000/svg">
<path d="M0.781738 13.5034V15.1151C0.781738 16.9777 2.15061 18.5264 3.93514 18.8084V19.9999H5.10705V18.8544H14.8922V19.9999H16.0641V18.8084C17.8487 18.5264 19.2175 16.9777 19.2175 15.1151V13.5034H0.781738Z" fill="#BDBDBD"/>
<path d="M1.95375 9.9859V3.22484C1.95375 2.09285 2.87473 1.17191 4.00672 1.17191C5.05508 1.17191 5.9218 1.96191 6.04426 2.97777C4.82395 3.25262 3.90945 4.34445 3.90945 5.64656V6.42797H9.3818V5.64656C9.3818 4.33508 8.45414 3.23672 7.22074 2.97172C7.09102 1.31152 5.69961 0 4.00672 0C2.22852 0 0.781836 1.44664 0.781836 3.22484V9.9859H0V12.3316H19.9995V9.9859H1.95375Z" fill="#BDBDBD"/>
</svg>
