<svg width="20" height="19" viewBox="0 0 20 19" fill="none" xmlns="http://www.w3.org/2000/svg">
<path d="M1.08396 10.8516C1.09228 10.8508 1.24146 10.8341 1.24978 10.8333L18.8148 10.84C18.8223 10.8408 18.9073 10.8508 18.9156 10.8517C18.9264 10.8525 18.9373 10.8525 18.9481 10.8525C18.9539 10.8525 18.9606 10.8533 18.9648 10.8525C19.1948 10.8525 19.3815 10.6658 19.3815 10.4358C19.3815 10.3516 19.3573 10.2741 19.3148 10.2091L18.3331 7.02164V2.08332C18.3331 0.935 17.3989 0 16.2498 0H3.74978C2.6006 0 1.66646 0.935 1.66646 2.08332V7.02164L0.653135 10.3141C0.612315 10.4458 0.638956 10.59 0.725635 10.6966C0.812276 10.8033 0.946456 10.8608 1.08396 10.8516ZM2.91646 6.66664H3.63228L4.0206 5.11332C4.1606 4.55582 4.65978 4.16664 5.23396 4.16664H7.91646C8.60564 4.16664 9.16646 4.72746 9.16646 5.41664V6.66664H10.8331V5.41664C10.8331 4.72746 11.394 4.16664 12.0831 4.16664H14.7656C15.3398 4.16664 15.839 4.55582 15.979 5.11332L16.3673 6.66664H17.0831C17.3131 6.66664 17.4998 6.85332 17.4998 7.08332C17.4998 7.31332 17.3131 7.5 17.0831 7.5H16.3539C16.3097 7.625 16.2522 7.745 16.1681 7.85332C15.9289 8.15832 15.5698 8.33332 15.1823 8.33332H12.0831C11.5406 8.33332 11.0823 7.98414 10.9098 7.5H9.08978C8.91728 7.98418 8.45896 8.33332 7.91646 8.33332H4.81728C4.42978 8.33332 4.0706 8.15832 3.83146 7.85332C3.74728 7.74582 3.68978 7.625 3.64564 7.5H2.91646C2.68646 7.5 2.49978 7.31332 2.49978 7.08332C2.49978 6.85332 2.68646 6.66664 2.91646 6.66664Z" fill="#BDBDBD"/>
<path d="M18.75 11.6666H1.25C0.56082 11.6666 0 12.2274 0 12.9166V17.9166C0 18.1466 0.18668 18.3333 0.41668 18.3333H2.08336C2.31332 18.3333 2.5 18.1466 2.5 17.9166V16.6666H17.5V17.9166C17.5 18.1466 17.6867 18.3333 17.9167 18.3333H19.5834C19.8134 18.3333 20 18.1466 20 17.9166V12.9166C20 12.2274 19.4392 11.6666 18.75 11.6666Z" fill="#BDBDBD"/>
</svg>
