<?xml version="1.0" encoding="UTF-8" standalone="no"?>
<svg
   xmlns:dc="http://purl.org/dc/elements/1.1/"
   xmlns:cc="http://creativecommons.org/ns#"
   xmlns:rdf="http://www.w3.org/1999/02/22-rdf-syntax-ns#"
   xmlns:svg="http://www.w3.org/2000/svg"
   xmlns="http://www.w3.org/2000/svg"
   xmlns:sodipodi="http://sodipodi.sourceforge.net/DTD/sodipodi-0.dtd"
   xmlns:inkscape="http://www.inkscape.org/namespaces/inkscape"
   width="43"
   height="37"
   viewBox="0 0 43 37"
   version="1.1"
   id="svg8"
   sodipodi:docname="Group 661.svg"
   style="fill:none"
   inkscape:version="0.92.4 (fd57863, 2020-04-02)">
  <metadata
     id="metadata14">
    <rdf:RDF>
      <cc:Work
         rdf:about="">
        <dc:format>image/svg+xml</dc:format>
        <dc:type
           rdf:resource="http://purl.org/dc/dcmitype/StillImage" />
        <dc:title></dc:title>
      </cc:Work>
    </rdf:RDF>
  </metadata>
  <defs
     id="defs12" />
  <sodipodi:namedview
     pagecolor="#ffffff"
     bordercolor="#666666"
     borderopacity="1"
     objecttolerance="10"
     gridtolerance="10"
     guidetolerance="10"
     inkscape:pageopacity="0"
     inkscape:pageshadow="2"
     inkscape:window-width="1920"
     inkscape:window-height="1017"
     id="namedview10"
     showgrid="false"
     inkscape:zoom="3.4202899"
     inkscape:cx="-25.75"
     inkscape:cy="34.5"
     inkscape:window-x="0"
     inkscape:window-y="30"
     inkscape:window-maximized="1"
     inkscape:current-layer="svg8" />
  <path
     d="m 36.977126,28.588644 c -1.1688,0 -2.262,-0.575 -2.9241,-1.5382 l -1.7365,-2.5258 c -2.0456,3.6677 -5.9341,6.0355 -10.3221,6.0355 -6.123,0 -11.1744,-4.6769 -11.7699,-10.6457 h 1.1242 c 0.4392,0 0.8424,-0.2434 1.0468,-0.6322 0.2045,-0.3888 0.1767,-0.8589 -0.0721,-1.2208 l -1.7244,-2.5081 -2.6128005,-3.8005 c -0.2205,-0.3209 -0.5851,-0.5127 -0.9747,-0.5127 -0.0487,0 -0.097,0.0029 -0.1447,0.0088 -0.0477,0.0058 -0.0947,0.0146 -0.1409,0.0261 -0.1155,0.0287 -0.2257,0.0746 -0.32688,0.1359 -0.1416,0.0857 -0.2657401,0.2014 -0.3622501,0.3418 l -4.33714,6.3086 c -0.24883,0.3619 -0.27662,0.8321 -0.07216,1.2208 0.20447,0.3887 0.60764,0.6323 1.04693,0.6323 h 1.22055 c 0.28144,4.3994 2.12933,8.4967 5.2745501,11.6421 3.4257005,3.4256 7.9803005,5.3122 12.8249005,5.3122 4.8445,0 9.3991,-1.8866 12.8248,-5.3122 0.9107,-0.9107 1.7171,-1.9097 2.4094,-2.9776 -0.0834,0.0059 -0.1672,0.0097 -0.2515,0.0097 z"
     id="path2"
     inkscape:connector-curvature="0"
     style="fill:#2d57b3" />
  <path
     d="m 22.896626,17.548644 h -1.8024 c -0.3417,0 -0.6196,-0.2779 -0.6196,-0.6195 v -0.9013 c 0,-0.3416 0.2779,-0.6195 0.6196,-0.6195 h 1.8024 c 0.3416,0 0.6196,0.2779 0.6196,0.6195 0,0.6533 0.5296,1.1829 1.1828,1.1829 0.6532,0 1.1828,-0.5297 1.1828,-1.1829 0,-1.551 -1.1891,-2.8291 -2.7037,-2.9715 v -0.6333 c 0,-0.6533 -0.5296,-1.1828 -1.1828,-1.1828 -0.6533,0 -1.1829,0.5296 -1.1829,1.1828 v 0.6333 c -1.5145,0.1424 -2.7037,1.4205 -2.7037,2.9715 v 0.9013 c 0,1.6461 1.3392,2.9853 2.9853,2.9853 h 1.8024 c 0.3417,0 0.6196,0.2779 0.6196,0.6196 v 0.9012 c 0,0.3416 -0.278,0.6196 -0.6196,0.6196 h -1.8024 c -0.3416,0 -0.6196,-0.2779 -0.6196,-0.6195 0,-0.6533 -0.5296,-1.1829 -1.1828,-1.1829 -0.6532,0 -1.1828,0.5297 -1.1828,1.1829 0,1.551 1.1891,2.8291 2.7037,2.9715 v 0.6332 c 0,0.6533 0.5296,1.1828 1.1828,1.1828 0.6533,0 1.1829,-0.5296 1.1829,-1.1828 v -0.6333 c 1.5144,-0.1424 2.7037,-1.4205 2.7037,-2.9715 v -0.9012 c -10e-5,-1.6462 -1.3392,-2.9854 -2.9853,-2.9854 z"
     id="path4"
     inkscape:connector-curvature="0"
     style="fill:#2d57b3" />
  <path
     d="m 42.358226,18.180944 c -0.2045,-0.3888 -0.6076,-0.6323 -1.0469,-0.6323 h -1.2206 c -0.2814,-4.3993 -2.1293,-8.4966899 -5.2746,-11.6420299 -3.4255,-3.42556 -7.9802,-5.31214003 -12.8247,-5.31214003 -4.8445,0 -9.3992,1.88658003 -12.8248005,5.31222003 -0.9107,0.9107 -1.7171,1.90973 -2.4095,2.97755 0.0834,-0.0059 0.1672,-0.0098 0.2515,-0.0098 1.1689,0 2.262,0.57504 2.9241,1.5381699 l 1.7365005,2.5259 c 2.0456,-3.6677099 5.9341,-6.0354599 10.3221,-6.0354599 6.123,0 11.1744,4.6768599 11.7699,10.6456599 h -1.1242 c -0.4392,0 -0.8424,0.2434 -1.0468,0.6322 -0.2045,0.3888 -0.1767,0.8589 0.0721,1.2208 l 1.7243,2.5081 2.6129,3.8005 c 0.0551,0.0803 0.1193,0.1525 0.1906,0.2156 0.2138,0.1893 0.492,0.2972 0.7841,0.2972 0.3895,0 0.7541,-0.1918 0.9748,-0.5128 l 1.5661,-2.2779 2.771,-4.0306 c 0.2489,-0.3621 0.2766,-0.8323 0.0721,-1.2209 z"
     id="path6"
     inkscape:connector-curvature="0"
     style="fill:#2d57b3" />
</svg>
