<svg width="14" height="12" viewBox="0 0 14 12" fill="none" xmlns="http://www.w3.org/2000/svg">
<path d="M7.0004 8.16667C6.88081 8.16667 6.76648 8.11767 6.68423 8.03133L3.62173 4.823C3.35631 4.54533 3.55348 4.08333 3.9379 4.08333H5.54206V0.729167C5.54206 0.32725 5.86931 0 6.27123 0H7.72956C8.13148 0 8.45873 0.32725 8.45873 0.729167V4.08333H10.0629C10.4473 4.08333 10.6445 4.54533 10.3791 4.823L7.31656 8.03133C7.23431 8.11767 7.11998 8.16667 7.0004 8.16667Z" fill="#BDBDBD"/>
<path d="M12.9792 11.6667H1.02083C0.457917 11.6667 0 11.2088 0 10.6459V10.3542C0 9.79129 0.457917 9.33337 1.02083 9.33337H12.9792C13.5421 9.33337 14 9.79129 14 10.3542V10.6459C14 11.2088 13.5421 11.6667 12.9792 11.6667Z" fill="#BDBDBD"/>
</svg>
