<svg width="30" height="30" viewBox="0 0 30 30" fill="none" xmlns="http://www.w3.org/2000/svg">
<circle cx="15" cy="15.0002" r="15" fill="black"/>
<path d="M17.8125 7.49915H12.1875C9.59906 7.49915 7.5 9.59821 7.5 12.1866V17.8116C7.5 20.4001 9.59906 22.4991 12.1875 22.4991H17.8125C20.4009 22.4991 22.5 20.4001 22.5 17.8116V12.1866C22.5 9.59821 20.4009 7.49915 17.8125 7.49915ZM21.0938 17.8116C21.0938 19.621 19.6219 21.0929 17.8125 21.0929H12.1875C10.3781 21.0929 8.90625 19.621 8.90625 17.8116V12.1866C8.90625 10.3773 10.3781 8.9054 12.1875 8.9054H17.8125C19.6219 8.9054 21.0938 10.3773 21.0938 12.1866V17.8116Z" fill="white"/>
<path d="M15 11.249C12.9291 11.249 11.25 12.9281 11.25 14.999C11.25 17.07 12.9291 18.749 15 18.749C17.0709 18.749 18.75 17.07 18.75 14.999C18.75 12.9281 17.0709 11.249 15 11.249ZM15 17.3428C13.7081 17.3428 12.6562 16.2909 12.6562 14.999C12.6562 13.7062 13.7081 12.6553 15 12.6553C16.2919 12.6553 17.3438 13.7062 17.3438 14.999C17.3438 16.2909 16.2919 17.3428 15 17.3428Z" fill="white"/>
<path d="M19.0314 11.4673C19.3074 11.4673 19.5311 11.2436 19.5311 10.9676C19.5311 10.6916 19.3074 10.4679 19.0314 10.4679C18.7555 10.4679 18.5317 10.6916 18.5317 10.9676C18.5317 11.2436 18.7555 11.4673 19.0314 11.4673Z" fill="white"/>
</svg>
