<svg width="30" height="30" viewBox="0 0 30 30" fill="none" xmlns="http://www.w3.org/2000/svg">
<circle cx="15" cy="15.0002" r="15" fill="black"/>
<g clip-path="url(#clip0)">
<path d="M21.8625 10.8365C21.4556 10.1128 21.0141 9.97965 20.115 9.92902C19.2169 9.86809 16.9584 9.84277 15.0019 9.84277C13.0416 9.84277 10.7822 9.86809 9.885 9.92809C8.98781 9.97965 8.54531 10.1118 8.13469 10.8365C7.71562 11.5593 7.5 12.8043 7.5 14.9962C7.5 14.9981 7.5 14.999 7.5 14.999C7.5 15.0009 7.5 15.0018 7.5 15.0018V15.0037C7.5 17.1862 7.71562 18.4406 8.13469 19.1559C8.54531 19.8796 8.98687 20.0109 9.88406 20.0718C10.7822 20.1243 13.0416 20.1553 15.0019 20.1553C16.9584 20.1553 19.2169 20.1243 20.1159 20.0728C21.015 20.0118 21.4566 19.8806 21.8634 19.1568C22.2863 18.4415 22.5 17.1871 22.5 15.0046C22.5 15.0046 22.5 15.0018 22.5 15C22.5 15 22.5 14.9981 22.5 14.9971C22.5 12.8043 22.2863 11.5593 21.8625 10.8365Z" fill="white"/>
<path d="M13.125 17.8114V12.1864L17.8125 14.9989L13.125 17.8114Z" fill="black"/>
</g>
<defs>
<clipPath id="clip0">
<rect x="7.5" y="7.49915" width="15" height="15" fill="white"/>
</clipPath>
</defs>
</svg>
