<svg width="30" height="30" viewBox="0 0 30 30" fill="none" xmlns="http://www.w3.org/2000/svg">
<circle cx="15" cy="15.0002" r="15"/>
<g clip-path="url(#clip0)">
<path d="M19.6866 6.00179L17.2552 5.99805C14.5236 5.99805 12.7583 7.73676 12.7583 10.4279V12.4703H10.3136C10.1023 12.4703 9.93127 12.6347 9.93127 12.8375V15.7968C9.93127 15.9996 10.1025 16.1638 10.3136 16.1638H12.7583V23.631C12.7583 23.8338 12.9294 23.998 13.1406 23.998H16.3302C16.5415 23.998 16.7126 23.8336 16.7126 23.631V16.1638H19.571C19.7822 16.1638 19.9533 15.9996 19.9533 15.7968L19.9545 12.8375C19.9545 12.7402 19.9141 12.6469 19.8425 12.578C19.7709 12.5091 19.6734 12.4703 19.5719 12.4703H16.7126V10.7389C16.7126 9.90673 16.9191 9.48427 18.0483 9.48427L19.6863 9.48371C19.8973 9.48371 20.0684 9.31929 20.0684 9.11668V6.36882C20.0684 6.16639 19.8975 6.00217 19.6866 6.00179Z" fill="white"/>
</g>
<defs>
<clipPath id="clip0">
<rect x="5.625" y="5.99805" width="18.75" height="18" fill="white"/>
</clipPath>
</defs>
</svg>
