<svg width="30" height="30" viewBox="0 0 30 30" fill="none" xmlns="http://www.w3.org/2000/svg">
<circle cx="15" cy="15.0002" r="15" fill="black"/>
<path d="M14.8395 19.2443H15.7358C15.7358 19.2443 16.0068 19.2143 16.1446 19.0652C16.2721 18.9283 16.2674 18.6714 16.2674 18.6714C16.2674 18.6714 16.2496 17.4685 16.8084 17.2913C17.3587 17.1169 18.0657 18.4539 18.8148 18.9686C19.3811 19.3577 19.8114 19.2724 19.8114 19.2724L21.815 19.2443C21.815 19.2443 22.8632 19.1796 22.3663 18.3554C22.326 18.2879 22.0766 17.746 20.8765 16.6322C19.6202 15.4659 19.7889 15.6552 21.3022 13.6385C22.2238 12.4103 22.5923 11.6603 22.4769 11.3396C22.3672 11.034 21.6894 11.1146 21.6894 11.1146L19.4355 11.1277C19.4355 11.1277 19.2686 11.1052 19.1439 11.1793C19.0229 11.2524 18.9451 11.4212 18.9451 11.4212C18.9451 11.4212 18.5879 12.3719 18.1116 13.1801C17.1075 14.8855 16.7053 14.9755 16.5412 14.8696C16.1596 14.623 16.2552 13.8776 16.2552 13.3488C16.2552 11.6959 16.5056 11.0068 15.7668 10.8286C15.5211 10.7696 15.3411 10.7302 14.7139 10.7236C13.9094 10.7152 13.2278 10.7264 12.8425 10.9149C12.5856 11.0405 12.3878 11.3209 12.5087 11.3368C12.6578 11.3565 12.9953 11.4277 13.1744 11.6715C13.406 11.9856 13.3975 12.6925 13.3975 12.6925C13.3975 12.6925 13.5307 14.638 13.0872 14.8799C12.7825 15.0458 12.3653 14.7074 11.4699 13.1594C11.0114 12.3672 10.6645 11.4906 10.6645 11.4906C10.6645 11.4906 10.5979 11.3274 10.4789 11.2402C10.3345 11.1343 10.132 11.1005 10.132 11.1005L7.98868 11.1137C7.98868 11.1137 7.6671 11.123 7.54896 11.2627C7.44396 11.3874 7.54052 11.6443 7.54052 11.6443C7.54052 11.6443 9.21877 15.5699 11.1183 17.5491C12.8612 19.3633 14.8395 19.2443 14.8395 19.2443Z" fill="white"/>
</svg>
