<svg width="26" height="22" viewBox="0 0 26 22" fill="none" xmlns="http://www.w3.org/2000/svg">
<path d="M0 21.8619H7.7465V6.35388H0V21.8619ZM4.27863 7.98868H5.86829V9.57746H4.27863V7.98868ZM4.27863 10.3909H5.86829V11.9797H4.27863V10.3909ZM1.87732 7.98868H3.4661V9.57746H1.87732V7.98868ZM1.87732 10.3909H3.4661V11.9797H1.87732V10.3909Z" fill="#FF4019"/>
<path d="M8.62793 21.8619H16.3735V0.189941H8.62793V21.8619ZM12.9066 1.82651H14.4971V3.41618H12.9066V1.82651ZM12.9066 4.22694H14.4971V5.81571H12.9066V4.22694ZM10.5053 1.82651H12.094V3.41618H10.5053V1.82651ZM10.5053 4.22694H12.094V5.81571H10.5053V4.22694Z" fill="#FF4019"/>
<path d="M17.2578 8.81787V21.8609H25.0043V8.81787H17.2578ZM20.7248 14.4436H19.1351V12.8549H20.7248V14.4436ZM20.7248 12.0423H19.1351V10.4544H20.7248V12.0423ZM23.127 14.4436H21.5364V12.8549H23.127V14.4436ZM23.127 12.0423H21.5364V10.4544H23.127V12.0423Z" fill="#FF4019"/>
</svg>
