<svg width="20" height="20" viewBox="0 0 20 20" fill="none" xmlns="http://www.w3.org/2000/svg">
<path d="M19.9345 16.2405L18.4037 13.0769L19.4919 11.0114C19.7157 10.4525 19.4914 9.85607 19.0391 9.55291C18.4616 9.16603 17.5907 9.32435 17.2475 10.1009L17.2454 10.1058L15.1736 14.568H9.36188L9.36137 14.5659H8.01789L8.0184 14.568H2.56348C1.96934 14.568 1.35254 15.0073 1.35254 15.8708C1.35254 16.7096 1.94125 17.1723 2.56348 17.1723H3.5859L2.7159 18.847C2.54945 19.1666 2.67344 19.5603 2.99273 19.7267C3.31207 19.8928 3.70543 19.7699 3.87246 19.4495L5.05625 17.1723H8.65961L9.18242 19.3039C9.26871 19.6533 9.62074 19.8678 9.97172 19.7816C10.3214 19.6955 10.5353 19.3422 10.4493 18.9924L10.003 17.1723H15.0309L16.2146 19.4495C16.3804 19.7676 16.7735 19.8936 17.0944 19.7267C17.4137 19.5603 17.5376 19.1665 17.3712 18.847L16.5012 17.1723H19.3473C19.8273 17.1724 20.1437 16.6733 19.9345 16.2405ZM16.9307 15.8724L17.6481 14.5107L18.307 15.8724H16.9307Z" fill="#FF4019"/>
<path d="M14.1041 6.54493C13.1371 2.93689 9.56985 0.710598 5.95656 1.33529L5.77918 0.673449C5.68578 0.325051 5.32996 0.119152 4.98008 0.212355C4.63235 0.305559 4.42598 0.663059 4.51899 1.01099L4.69629 1.67279C1.25559 2.93751 -0.721638 6.65032 0.24508 10.2584C0.337737 10.604 0.694299 10.8135 1.04418 10.7195L6.69992 9.20403L7.69719 13.2616H9.04067L7.96035 8.8663L13.6431 7.34361C13.9922 7.24986 14.1966 6.89138 14.1041 6.54493Z" fill="#FF4019"/>
</svg>
