<svg width="25" height="24" viewBox="0 0 25 24" fill="none" xmlns="http://www.w3.org/2000/svg">
<path d="M24.6305 4.38717L24.6328 4.37955L11.0911 0.212842L11.0888 0.220459C11.0401 0.205371 10.9912 0.189941 10.9375 0.189941H5.72916C5.71525 0.189941 5.70362 0.196728 5.68995 0.197803C5.6673 0.199512 5.64781 0.206201 5.62555 0.21084C5.55777 0.224951 5.49689 0.250244 5.44156 0.28794C5.42984 0.295752 5.41481 0.294922 5.40367 0.303858L0.195313 4.47057L0.200342 4.47686C0.0811037 4.57227 0 4.71275 0 4.87745V6.9608C0 7.2487 0.232959 7.48166 0.520851 7.48166H5.20836V18.2035L4.3193 19.0926C4.22164 19.1902 4.16671 19.3224 4.16671 19.4608V22.5858C4.16671 22.8737 4.39967 23.1067 4.68756 23.1067H11.9792C12.2671 23.1067 12.5001 22.8737 12.5001 22.5858V19.4608C12.5001 19.3225 12.4451 19.1902 12.3475 19.0926L11.4584 18.2035V7.48166H18.75V9.56501C18.5527 9.56501 18.3726 9.67639 18.2841 9.8529C18.1956 10.0294 18.2149 10.2405 18.3329 10.3982L19.8125 12.3709C19.8054 12.4054 19.7917 12.4377 19.7917 12.4744C19.7917 12.8101 19.6604 13.126 19.4234 13.3635C18.9891 13.7978 18.75 14.3751 18.75 14.989V15.2942C18.75 16.1558 19.4509 16.8567 20.3125 16.8567C21.1742 16.8567 21.875 16.1558 21.875 15.2942C21.875 15.0063 21.6421 14.7733 21.3542 14.7733C21.0663 14.7733 20.8333 15.0063 20.8333 15.2942C20.8333 15.5815 20.5994 15.815 20.3125 15.815C20.0256 15.815 19.7916 15.5816 19.7916 15.2942V14.989C19.7916 14.6533 19.9229 14.3374 20.1599 14.0999C20.5943 13.6656 20.8333 13.0883 20.8333 12.4743C20.8333 12.4377 20.8197 12.4054 20.8125 12.3709L22.2921 10.3981C22.4101 10.2404 22.4294 10.0294 22.3409 9.85285C22.2524 9.67634 22.0724 9.56496 21.875 9.56496V7.48161H24.4792C24.767 7.48161 25 7.24865 25 6.96075V4.8774C25 4.64322 24.843 4.45274 24.6305 4.38717ZM5.20836 4.35665H2.00601L5.20836 1.79478V4.35665ZM6.25001 4.87745V1.51856L9.87756 3.1629L6.25001 5.62926V4.87745ZM6.25001 7.4213L9.87756 9.0655L6.25001 11.5323V7.4213ZM6.25001 13.3244L9.87756 14.9686L6.25001 17.435V13.3244ZM10.4167 17.8983H7.4216L10.4167 15.8618V17.8983ZM10.4167 14.0697L6.78956 12.4255L10.4167 9.95876V14.0697ZM10.4167 4.87745V6.9608V8.16652L6.78966 6.52233L10.4167 4.05606V4.87745ZM10.4167 2.26387L8.13957 1.23159H10.4167V2.26387ZM20.8334 9.56496H19.7917V7.48161H20.8334V9.56496ZM11.4584 4.35665V1.41626L21.0146 4.35665H11.4584Z" fill="#FF4019"/>
</svg>
