<svg width="20" height="21" viewBox="0 0 20 21" fill="none" xmlns="http://www.w3.org/2000/svg">
<path d="M18.9583 1.43994C19.0734 1.43994 19.1666 1.34666 19.1666 1.23162V0.398262C19.1666 0.283223 19.0734 0.189941 18.9583 0.189941H15.4166C15.4033 0.189941 15.3925 0.196191 15.3796 0.197441C15.3544 0.200098 15.3296 0.205098 15.3054 0.212441C15.262 0.224707 15.2211 0.244121 15.1841 0.269941L15.1791 0.273691C15.1575 0.286934 15.1371 0.302129 15.1183 0.319121L11.83 2.78412C11.8141 2.79447 11.7989 2.80588 11.7846 2.8183L8.48332 5.2933C8.47375 5.30162 8.46164 5.30705 8.45289 5.31623L5.13621 7.80248C5.13164 7.80666 5.12539 7.80955 5.12078 7.81416L1.78746 10.3121L0.166641 11.5279C0.0323828 11.6308 -0.0233594 11.8065 0.0270703 11.9679C0.0100391 11.9975 0.000703125 12.0309 0 12.065V12.4817C0 12.5967 0.0932813 12.69 0.20832 12.69C0.241797 12.6893 0.274609 12.6803 0.30375 12.6637C0.339961 12.6777 0.378008 12.6865 0.41668 12.69C0.506836 12.69 0.59457 12.6607 0.66668 12.6067L1.66668 11.8567V16.8567H0.41668C0.186563 16.8567 0 17.0432 0 17.2733V19.7733C0 20.0035 0.186563 20.19 0.41668 20.19H18.75C18.9801 20.19 19.1667 20.0035 19.1667 19.7733V7.27334C19.1667 7.04322 18.9801 6.85666 18.75 6.85666H16.25V1.43994H18.9583ZM5 14.3566H4.16668C3.93656 14.3566 3.75 14.5432 3.75 14.7733V16.8566H2.91664V10.9191L4.99996 9.35662V14.3566H5ZM8.33332 11.4399H7.5C7.26988 11.4399 7.08332 11.6265 7.08332 11.8566V14.3566H6.25V8.41912L8.33332 6.85662V11.4399ZM11.6666 9.35662H11.25C11.0198 9.35662 10.8333 9.54318 10.8333 9.7733V11.4399H9.58328V5.91912L11.6666 4.35662V9.35662H11.6666ZM15 6.85662H14.5833C14.3532 6.85662 14.1666 7.04318 14.1666 7.2733V9.35662H12.9166V3.41912L15 1.85662V6.85662H15Z" fill="#FF4019"/>
</svg>
