<svg width="20" height="19" viewBox="0 0 20 19" fill="none" xmlns="http://www.w3.org/2000/svg">
<path d="M2.31763 18.2422H14.8698V14.9089H20V2.34192H2.31763V18.2422ZM12.5641 7.80534C12.4066 7.80534 12.2899 7.87644 12.2238 7.99836L11.6348 7.71897C11.7821 7.42951 12.1121 7.21635 12.6352 7.21635C13.1938 7.21635 13.5696 7.47529 13.5696 7.88667C13.5696 8.08976 13.4935 8.26753 13.1633 8.55699L12.884 8.79563H13.6355V9.37455H11.7769V8.91236L12.5844 8.22175C12.7368 8.0948 12.7673 8.01347 12.7673 7.94755C12.7672 7.86637 12.7063 7.80534 12.5641 7.80534ZM11.3099 11.0352H10.218L10.208 9.41514L9.43602 10.7152H8.90791L8.13596 9.47099V11.0352H7.04404V7.48032H8.02931L9.18714 9.37455L10.3146 7.48032H11.2997L11.3099 11.0352Z" fill="#BDBDBD"/>
<path d="M2.31763 0H20V1.17188H2.31763V0Z" fill="#BDBDBD"/>
<path d="M0 2.34192H1.17188V18.2422H0V2.34192Z" fill="#BDBDBD"/>
</svg>
