<svg width="20" height="20" viewBox="0 0 20 20" fill="none" xmlns="http://www.w3.org/2000/svg">
<path d="M19.4279 15.6892C20.1895 16.4508 20.1895 17.6898 19.4279 18.4514C19.4269 18.4526 19.4257 18.4537 19.4244 18.4549L18.0881 19.7746C17.9358 19.9249 17.7374 20 17.5392 20C17.3375 20 17.1361 19.9225 16.9832 19.7678C16.6802 19.4608 16.6832 18.9661 16.9902 18.6629L17.7721 17.8906H5.2344C3.51123 17.8906 2.10941 16.4888 2.10941 14.7656V2.20901L1.32999 2.97806C1.02283 3.2811 0.528143 3.27774 0.225104 2.97058C-0.0779352 2.66342 -0.0745782 2.16873 0.232581 1.86569L1.55246 0.56366C2.31189 -0.185547 3.54755 -0.185547 4.30697 0.56366L5.62686 1.86569C5.93402 2.16873 5.93737 2.66342 5.63433 2.97058C5.48144 3.12546 5.27987 3.20312 5.07815 3.20312C4.87994 3.20312 4.68173 3.1282 4.52945 2.97806L3.67191 2.13196V14.7656C3.67191 15.6271 4.37289 16.3281 5.2344 16.3281H17.8513L16.9902 15.4778C16.6832 15.1746 16.68 14.6799 16.9832 14.3729C17.2864 14.066 17.7811 14.0628 18.0881 14.366L19.4244 15.6857C19.4257 15.687 19.4269 15.688 19.4279 15.6892ZM17.6563 0H7.53908C7.1065 0 6.75631 0.351562 6.75784 0.784149C6.75951 1.21445 7.10879 1.5625 7.53908 1.5625H17.6563C18.0878 1.5625 18.4375 1.91223 18.4375 2.34375V12.5C18.4375 12.9303 18.7856 13.2797 19.2159 13.2812C19.6484 13.2828 20 12.9326 20 12.5V2.34375C20 1.04935 18.9507 0 17.6563 0ZM11.4844 13.3942C11.9159 13.3942 12.2656 13.0444 12.2656 12.6129V9.13574C12.2656 7.95105 11.3019 6.9873 10.1172 6.9873C9.59826 6.9873 9.12172 7.17224 8.75002 7.47971C8.37832 7.17224 7.90179 6.9873 7.38284 6.9873C7.08483 6.9873 6.80071 7.04849 6.54254 7.15866C6.40353 7.0314 6.2189 6.95312 6.01565 6.95312C5.58413 6.95312 5.2344 7.30286 5.2344 7.73438V12.6172C5.2344 13.0487 5.58413 13.3984 6.01565 13.3984C6.44717 13.3984 6.7969 13.0487 6.7969 12.6172V9.13574C6.7969 8.81271 7.05981 8.5498 7.38284 8.5498C7.70586 8.5498 7.96877 8.81271 7.96877 9.13574V12.6172C7.96877 13.0487 8.3185 13.3984 8.75002 13.3984C9.18154 13.3984 9.53127 13.0487 9.53127 12.6172V9.13574C9.53127 8.81271 9.79418 8.5498 10.1172 8.5498C10.4402 8.5498 10.7031 8.81271 10.7031 9.13574V12.6129C10.7031 13.0444 11.0529 13.3942 11.4844 13.3942ZM15.0293 4.21875C15.0252 4.21875 15.0212 4.21936 15.0171 4.21936C15.0131 4.21936 15.0092 4.21875 15.005 4.21875C14.0115 4.21875 13.2031 5.02808 13.2031 6.0228C13.2031 6.45416 13.5529 6.80405 13.9844 6.80405C14.4159 6.80405 14.7656 6.45416 14.7656 6.0228C14.7656 5.89188 14.8753 5.78125 15.005 5.78125C15.0092 5.78125 15.0131 5.78064 15.0173 5.78064C15.0212 5.78064 15.0252 5.78125 15.0293 5.78125C15.1537 5.78125 15.2596 5.88287 15.2681 6.00662C15.2527 6.06384 15.1329 6.41769 14.3843 7.24121C13.92 7.75177 13.4638 8.16757 13.4593 8.17154C13.2202 8.38852 13.1394 8.73032 13.2556 9.03137C13.3719 9.33258 13.6615 9.53125 13.9844 9.53125H16.0938C16.5253 9.53125 16.875 9.18152 16.875 8.75C16.875 8.31848 16.5253 7.96875 16.0938 7.96875H15.825C16.5187 7.1521 16.8312 6.54434 16.8312 6.0228C16.8312 5.02808 16.0228 4.21875 15.0293 4.21875Z" fill="#BDBDBD"/>
</svg>
