<svg width="32" height="36" viewBox="0 0 32 36" fill="none" xmlns="http://www.w3.org/2000/svg">
<path d="M9.4482 6.36718H10.4977V8.53613C10.4977 9.11622 10.9671 9.58563 11.5472 9.58563H15.7452C16.3252 9.58563 16.7946 9.11622 16.7946 8.53613V6.36718H17.8441C18.2684 6.36718 18.6518 6.11202 18.8137 5.71944C18.9766 5.32693 18.8864 4.87592 18.5861 4.57563L14.3882 0.307693C13.9782 -0.102239 13.314 -0.102239 12.9041 0.307693L8.70614 4.57563C8.40584 4.87592 8.31566 5.32686 8.47861 5.71944C8.64058 6.11202 9.02392 6.36718 9.4482 6.36718Z" fill="#2D57B3"/>
<path d="M23.0903 19.0307C18.4533 19.0307 14.6943 22.7896 14.6943 27.4266C14.6943 32.0635 18.4533 35.8226 23.0903 35.8226C27.7273 35.8226 31.4862 32.0635 31.4862 27.4266C31.4862 22.7896 27.7273 19.0307 23.0903 19.0307ZM24.8489 31.2036C24.6216 31.3172 24.3833 31.4067 24.1394 31.4745V31.7645C24.1394 32.3441 23.6695 32.814 23.0899 32.814C22.5103 32.814 22.0404 32.3441 22.0404 31.7645V31.5073C21.6036 31.3973 21.1962 31.2124 20.851 30.9536C20.3873 30.6058 20.2933 29.948 20.6411 29.4843C20.9889 29.0207 21.6467 28.9266 22.1104 29.2744C22.5302 29.5892 23.3376 29.6126 23.9101 29.3263C24.1403 29.2112 24.2644 29.0727 24.2644 29.0008C24.2644 28.8752 24.2644 28.8558 24.1248 28.7813C23.8509 28.6352 23.3668 28.5453 22.8985 28.4585C22.2734 28.3425 21.6269 28.2226 21.0668 27.9236C20.2488 27.487 19.8164 26.7708 19.8164 25.8523C19.8164 24.9328 20.3678 24.1298 21.3292 23.6491C21.5571 23.5351 21.796 23.4449 22.0404 23.3771V23.0887C22.0404 22.5091 22.5103 22.0392 23.0899 22.0392C23.6695 22.0392 24.1394 22.5091 24.1394 23.0887V23.3457C24.5764 23.4557 24.9837 23.6408 25.3288 23.8996C25.7926 24.2474 25.8865 24.9052 25.5387 25.3689C25.1909 25.8325 24.5333 25.9266 24.0695 25.5788C23.649 25.2634 22.8409 25.2401 22.2679 25.5264C22.0364 25.6422 21.9154 25.778 21.9154 25.8523C21.9154 25.9779 21.9154 25.9972 22.0551 26.0718C22.3289 26.218 22.8131 26.3078 23.2814 26.3946C23.9065 26.5106 24.5529 26.6306 25.1131 26.9295C25.931 27.3661 26.3634 28.0824 26.3634 29.0008C26.3635 29.9195 25.8114 30.7223 24.8489 31.2036Z" fill="#2D57B3"/>
<path d="M5.2448 14.8329H24.1357C24.7153 14.8329 25.1852 14.363 25.1852 13.7834V12.7339C25.1852 12.1543 24.7153 11.6844 24.1357 11.6844H5.2448C4.66521 11.6844 4.19531 12.1543 4.19531 12.7339V13.7834C4.19531 14.363 4.66521 14.8329 5.2448 14.8329Z" fill="#2D57B3"/>
<path d="M2.10254 33.7232V34.7727C2.10254 35.3523 2.57243 35.8222 3.15203 35.8222H16.8604C15.7218 34.9745 14.7756 33.905 14.0574 32.6737H3.15203C2.57243 32.6737 2.10254 33.1436 2.10254 33.7232Z" fill="#2D57B3"/>
<path d="M2.10254 23.2284V24.2779C2.10254 24.8575 2.57243 25.3274 3.15203 25.3274H12.8096C13.0407 24.1934 13.4918 23.1486 14.0574 22.179H3.15203C2.57243 22.179 2.10254 22.6488 2.10254 23.2284Z" fill="#2D57B3"/>
<path d="M1.04949 30.575H13.1298C12.8122 29.5747 12.5939 28.5306 12.5939 27.4265H1.04949C0.469893 27.4265 0 27.8964 0 28.476V29.5255C0 30.1051 0.469893 30.575 1.04949 30.575Z" fill="#2D57B3"/>
<path d="M1.04949 20.0802H15.6129C17.5181 18.1415 20.1625 16.9317 23.0888 16.9317H1.04949C0.469893 16.9317 0 17.4016 0 17.9812V19.0307C0 19.6103 0.469893 20.0802 1.04949 20.0802Z" fill="#2D57B3"/>
</svg>
