<svg width="16" height="13" viewBox="0 0 16 13" fill="none" xmlns="http://www.w3.org/2000/svg">
<path d="M1.14122 1.78777C3.1999 3.53126 6.81226 6.59858 7.87398 7.55498C8.01651 7.68406 8.16938 7.74969 8.32808 7.74969C8.48646 7.74969 8.63907 7.68468 8.78128 7.55621C9.8439 6.59888 13.4563 3.53126 15.515 1.78777C15.6432 1.67943 15.6627 1.489 15.5589 1.35655C15.319 1.05049 14.9614 0.875 14.5781 0.875H2.0781C1.69481 0.875 1.33712 1.05049 1.09727 1.35658C0.993501 1.489 1.01304 1.67943 1.14122 1.78777Z" fill="#2D57B3"/>
<path d="M15.6469 2.73263C15.5361 2.68106 15.4058 2.69905 15.3136 2.7778C13.0306 4.71321 10.1168 7.19401 9.2 8.0201C8.68546 8.48457 7.97135 8.48457 7.45561 8.01948C6.47844 7.13905 3.20633 4.35737 1.34264 2.77777C1.24985 2.69902 1.11925 2.68165 1.00938 2.7326C0.898936 2.78389 0.828125 2.89437 0.828125 3.01613V10.875C0.828125 11.5644 1.38872 12.125 2.07813 12.125H14.5781C15.2675 12.125 15.8281 11.5644 15.8281 10.875V3.01613C15.8281 2.89437 15.7573 2.7836 15.6469 2.73263Z" fill="#2D57B3"/>
</svg>
