<svg width="15" height="12" viewBox="0 0 15 12" fill="none" xmlns="http://www.w3.org/2000/svg">
<path d="M0.31309 0.913017C2.37178 2.6565 5.98414 5.72383 7.04586 6.68022C7.18839 6.80931 7.34126 6.87493 7.49996 6.87493C7.65834 6.87493 7.81094 6.80992 7.95315 6.68145C9.01578 5.72412 12.6281 2.6565 14.6869 0.913017C14.815 0.804678 14.8346 0.614248 14.7308 0.481797C14.4909 0.175732 14.1333 0.000244141 13.7499 0.000244141H1.24997C0.866684 0.000244141 0.508998 0.175733 0.269145 0.481826C0.165376 0.614248 0.184917 0.804678 0.31309 0.913017Z" fill="black"/>
<path d="M14.8187 1.85787C14.708 1.80631 14.5777 1.8243 14.4855 1.90305C12.2024 3.83846 9.28863 6.31926 8.37188 7.14534C7.85733 7.60981 7.14322 7.60981 6.62748 7.14473C5.65031 6.2643 2.3782 3.48262 0.514512 1.90302C0.421729 1.82427 0.291123 1.80689 0.18126 1.85784C0.0708105 1.90914 0 2.01962 0 2.14138V10.0003C0 10.6897 0.560596 11.2503 1.25001 11.2503H13.75C14.4394 11.2503 15 10.6897 15 10.0003V2.14138C15 2.01962 14.9292 1.90885 14.8187 1.85787Z" fill="black"/>
</svg>
