<svg width="20" height="19" viewBox="0 0 20 19" fill="none" xmlns="http://www.w3.org/2000/svg">
<path d="M11.0345 15.8322V14.4573H0V15.8378C0 17.0879 1.01024 18.1211 2.26057 18.1211H12.1466C12.0518 18.0349 11.9604 17.9593 11.874 17.8727C11.334 17.3311 11.032 16.597 11.0345 15.8322Z" fill="#FF4019"/>
<path d="M7.81432 7.49715L9.41554 8.59646L11.023 7.49715C11.4626 7.19728 11.8118 6.52059 11.8118 5.98853V3.71685L9.41958 2.53369L7.02734 3.71382V5.98853C7.02734 6.52042 7.37453 7.19728 7.81432 7.49715ZM8.1748 5.35006C8.29317 5.23288 8.48427 5.23372 8.60146 5.35225L9.08233 5.83784L10.2397 4.68061C10.3576 4.56275 10.5487 4.56275 10.6666 4.68078C10.7844 4.79864 10.7842 4.98975 10.6664 5.10761L9.29465 6.48001C9.23808 6.53676 9.16147 6.56908 9.08132 6.56942H9.08065C9.00017 6.56891 8.92322 6.53642 8.86699 6.47884L8.17262 5.77739C8.05543 5.65869 8.05644 5.46759 8.1748 5.35006Z" fill="#FF4019"/>
<path d="M18.399 0.189941H18.3894C17.5029 0.189941 16.7656 0.930612 16.7656 1.8176V4.58649H19.9984V1.81221C20.0024 0.923541 19.2877 0.198528 18.399 0.189941Z" fill="#FF4019"/>
<path d="M4.63211 0.189941C3.79378 0.189941 3.11153 0.863096 3.11153 1.6888L3.02246 13.8537H11.336C11.5053 13.8605 11.6388 14.0001 11.6378 14.1696V15.8321C11.6347 17.089 12.648 18.1119 13.9047 18.121H13.9123C15.1645 18.1119 16.1722 17.0895 16.1636 15.8373V1.81811C16.1636 1.18385 16.449 0.620976 16.8779 0.189941L4.63211 0.189941ZM6.42225 3.52541C6.41837 3.41192 6.4805 3.30635 6.58169 3.2545L9.28374 1.92654C9.36675 1.88546 9.46407 1.88546 9.54708 1.92654L12.254 3.2582C12.3552 3.31006 12.4173 3.41546 12.4136 3.52911V5.98837C12.4136 6.72028 11.9669 7.58319 11.362 7.99554L9.58934 9.21102C9.53967 9.2452 9.48074 9.26355 9.42046 9.26355C9.36035 9.26355 9.30176 9.24537 9.25242 9.21102L7.47458 7.99554C6.86995 7.58303 6.42225 6.72011 6.42225 5.98837V3.52541ZM13.7067 12.4744H5.43087C5.26418 12.4744 5.12914 12.3394 5.12914 12.1727C5.12914 12.006 5.26418 11.871 5.43087 11.871H13.7067C13.8734 11.871 14.0085 12.006 14.0085 12.1727C14.0085 12.3394 13.8734 12.4744 13.7067 12.4744ZM13.7067 10.8796H5.43087C5.26418 10.8796 5.12914 10.7446 5.12914 10.5779C5.12914 10.4112 5.26418 10.2761 5.43087 10.2761H13.7067C13.8734 10.2761 14.0085 10.4112 14.0085 10.5779C14.0085 10.7446 13.8734 10.8796 13.7067 10.8796Z" fill="#FF4019"/>
</svg>
