<svg width="35" height="35" viewBox="0 0 35 35" fill="none" xmlns="http://www.w3.org/2000/svg">
<path d="M17.8005 0.000244141V15.9652L32.7646 10.402C30.4398 4.14874 24.4719 0.000346795 17.8005 0.000244141V0.000244141Z" fill="#2D57B3"/>
<path d="M10.9531 34.3433C14.0851 35.2922 17.4392 35.2083 20.5198 34.1038C16.8809 31.0941 16.1077 25.8198 18.7298 21.8923C21.3518 17.9648 26.5194 16.6566 30.6944 18.8634C30.6334 17.5085 30.3896 16.168 29.9698 14.8784L15.847 20.1222L10.9531 34.3433Z" fill="#2D57B3"/>
<path d="M23.3262 24.5616C23.6653 24.5616 23.9402 24.2867 23.9402 23.9476C23.9402 23.6085 23.6653 23.3336 23.3262 23.3336C22.9871 23.3336 22.7122 23.6085 22.7122 23.9476C22.7122 24.2867 22.9871 24.5616 23.3262 24.5616Z" fill="#2D57B3"/>
<path d="M9.81757 33.9441L14.5456 20.0915L0.275463 16.7388C-1.11994 24.0263 2.89676 31.2688 9.81757 33.9441Z" fill="#2D57B3"/>
<path d="M0.564209 15.5415L14.73 18.8757V4.29852C8.05731 4.54461 2.31896 9.09898 0.564209 15.5415Z" fill="#2D57B3"/>
<path d="M26.3968 19.0353C21.9882 19.0353 18.4143 22.6091 18.4143 27.0177C18.4143 31.4263 21.9882 35.0002 26.3968 35.0002C30.8054 35.0002 34.3792 31.4263 34.3792 27.0177C34.3792 24.9007 33.5382 22.8703 32.0412 21.3733C30.5442 19.8763 28.5138 19.0353 26.3968 19.0353ZM21.4845 23.9476C21.4845 22.9302 22.3092 22.1055 23.3266 22.1055C24.344 22.1055 25.1687 22.9302 25.1687 23.9476C25.1687 24.9649 24.344 25.7897 23.3266 25.7897C22.3092 25.7897 21.4845 24.9649 21.4845 23.9476ZM23.1485 31.1379C22.9928 31.2937 22.7657 31.3545 22.553 31.2975C22.3402 31.2405 22.174 31.0743 22.117 30.8615C22.06 30.6488 22.1208 30.4217 22.2766 30.266L29.645 22.8976C29.8008 22.7418 30.0278 22.681 30.2405 22.738C30.4533 22.795 30.6195 22.9612 30.6765 23.174C30.7335 23.3867 30.6727 23.6137 30.5169 23.7695L23.1485 31.1379ZM29.4669 31.93C28.4496 31.93 27.6248 31.1053 27.6248 30.0879C27.6248 29.0706 28.4496 28.2458 29.4669 28.2458C30.4843 28.2458 31.309 29.0706 31.309 30.0879C31.309 31.1053 30.4843 31.93 29.4669 31.93Z" fill="#2D57B3"/>
<path d="M29.4666 30.702C29.8057 30.702 30.0806 30.4271 30.0806 30.088C30.0806 29.7489 29.8057 29.4739 29.4666 29.4739C29.1275 29.4739 28.8525 29.7489 28.8525 30.088C28.8525 30.4271 29.1275 30.702 29.4666 30.702Z" fill="#2D57B3"/>
</svg>
