<svg width="35" height="35" viewBox="0 0 35 35" fill="none" xmlns="http://www.w3.org/2000/svg">
<path d="M12.8476 15.9906C13.6556 15.9906 14.3106 15.3356 14.3106 14.5276C14.3106 13.7196 13.6556 13.0645 12.8476 13.0645C12.0395 13.0645 11.3845 13.7196 11.3845 14.5276C11.3845 15.3356 12.0395 15.9906 12.8476 15.9906Z" fill="#2D57B3"/>
<path d="M22.1427 21.9288C22.9507 21.9288 23.6058 21.2738 23.6058 20.4657C23.6058 19.6577 22.9507 19.0027 22.1427 19.0027C21.3347 19.0027 20.6797 19.6577 20.6797 20.4657C20.6797 21.2738 21.3347 21.9288 22.1427 21.9288Z" fill="#2D57B3"/>
<path d="M34.2053 19.433L33.6746 18.7087C33.1008 17.9198 33.0865 16.8512 33.653 16.048L34.1694 15.3164C34.9583 14.1976 34.5925 12.6414 33.3805 11.9888L32.5916 11.5656C31.731 11.1066 31.2577 10.1456 31.4226 9.17743L31.5732 8.29531C31.8027 6.94702 30.7915 5.69914 29.4217 5.64177L28.5253 5.60591C27.5499 5.56288 26.7036 4.90308 26.4311 3.96358L26.1801 3.10297C25.8 1.78338 24.3513 1.10206 23.0891 1.64711L22.2643 1.99853C21.3679 2.3858 20.3208 2.15631 19.6682 1.42479L19.0729 0.757817C18.1621 -0.260569 16.5628 -0.253397 15.6592 0.786504L15.0711 1.46065C14.4256 2.19934 13.3857 2.44317 12.4821 2.07024L11.6502 1.726C10.3808 1.20246 8.94642 1.91247 8.58067 3.23207L8.344 4.09985C8.08582 5.04651 7.25389 5.72066 6.27854 5.77086L5.38207 5.82106C4.01227 5.89995 3.02257 7.16218 3.27358 8.51046L3.43853 9.39259C3.61783 10.3536 3.15883 11.3218 2.3054 11.7951L1.52368 12.2326C0.325999 12.8996 -0.0182443 14.463 0.792162 15.5674L1.32287 16.2918C1.89661 17.0807 1.91095 18.1493 1.34439 18.9525L0.82802 19.684C0.0391296 20.8028 0.404888 22.3591 1.61691 23.0117L2.4058 23.4348C3.26641 23.8938 3.73974 24.8548 3.57479 25.823L3.42419 26.7052C3.19469 28.0534 4.20591 29.3013 5.57571 29.3587L6.47218 29.3946C7.44753 29.4376 8.2938 30.0974 8.56632 31.0369L8.81733 31.8975C9.19743 33.2171 10.6461 33.8984 11.9083 33.3533L12.7331 33.0019C13.6296 32.6147 14.6766 32.8442 15.3293 33.5757L15.9245 34.2426C16.8425 35.261 18.4418 35.2539 19.3383 34.214L19.9264 33.5398C20.5718 32.8011 21.6117 32.5573 22.5153 32.9302L23.3473 33.2745C24.6167 33.798 26.051 33.088 26.4168 31.7684L26.6534 30.9006C26.9116 29.9539 27.7435 29.2798 28.7189 29.2296L29.6154 29.1794C30.9852 29.1005 31.9749 27.8383 31.7239 26.49L31.5589 25.6079C31.3796 24.6469 31.8386 23.6787 32.692 23.2053L33.4738 22.7679C34.6714 22.1081 35.0157 20.5446 34.2053 19.433ZM9.31218 14.5275C9.31218 12.5768 10.89 10.9991 12.8407 10.9991C14.7914 10.9991 16.3692 12.5768 16.3692 14.5275C16.3692 16.4783 14.7914 18.056 12.8407 18.056C10.89 18.056 9.31218 16.4711 9.31218 14.5275ZM13.522 23.6285C13.2208 23.9942 12.6757 24.0444 12.31 23.7432C11.9442 23.442 11.894 22.897 12.1952 22.5312L21.4539 11.3792C21.7551 11.0134 22.3002 10.9632 22.666 11.2644C23.0317 11.5656 23.0819 12.1107 22.7807 12.4764L13.522 23.6285ZM22.1424 23.9942C20.1917 23.9942 18.6139 22.4165 18.6139 20.4657C18.6139 18.515 20.1917 16.9373 22.1424 16.9373C24.0931 16.9373 25.6709 18.515 25.6709 20.4657C25.6709 22.4165 24.0931 23.9942 22.1424 23.9942Z" fill="#2D57B3"/>
</svg>
