<svg width="16" height="15" viewBox="0 0 16 15" fill="none" xmlns="http://www.w3.org/2000/svg">
<path d="M15.5364 11.9274L13.8735 10.8187L12.3953 9.83338C12.11 9.64357 11.7266 9.7058 11.516 9.97614L10.6012 11.1521C10.4047 11.4072 10.0513 11.4806 9.7695 11.3246C9.14883 10.9793 8.41486 10.6542 6.79541 9.03271C5.17595 7.41117 4.8488 6.67929 4.50354 6.05861C4.34753 5.77684 4.42086 5.42337 4.67603 5.22691L5.85197 4.31219C6.12229 4.1016 6.18454 3.7182 5.99473 3.43288L5.03966 2.00013L3.9007 0.291677C3.70685 0.000879503 3.31879 -0.0864242 3.01908 0.09331L1.70554 0.881328C1.35056 1.09048 1.08961 1.42821 0.976761 1.8245C0.617556 3.13414 0.545136 6.02316 5.17516 10.6532C9.80518 15.2832 12.6939 15.2106 14.0036 14.8513C14.3999 14.7385 14.7376 14.4776 14.9468 14.1225L15.7348 12.809C15.9145 12.5093 15.8272 12.1213 15.5364 11.9274Z" fill="#2D57B3"/>
<path d="M9.36016 2.32753C11.7871 2.33023 13.754 4.29702 13.7567 6.72404C13.7567 6.86686 13.8724 6.98267 14.0153 6.98267C14.1581 6.98267 14.2739 6.86689 14.2739 6.72404C14.2709 4.0115 12.0727 1.81329 9.36019 1.8103C9.21737 1.8103 9.10156 1.92608 9.10156 2.06893C9.10153 2.21172 9.21731 2.32753 9.36016 2.32753Z" fill="#2D57B3"/>
<path d="M9.36019 3.8792C10.9306 3.88104 12.2031 5.15363 12.205 6.72398C12.205 6.8668 12.3208 6.98261 12.4636 6.98261C12.6064 6.98261 12.7222 6.86683 12.7222 6.72398C12.7201 4.86807 11.2161 3.36408 9.36019 3.36194C9.21737 3.36194 9.10156 3.47772 9.10156 3.62057C9.10156 3.76342 9.21734 3.8792 9.36019 3.8792Z" fill="#2D57B3"/>
<path d="M9.36016 5.43093C10.074 5.43178 10.6524 6.01021 10.6533 6.72402C10.6533 6.86684 10.769 6.98265 10.9119 6.98265C11.0547 6.98265 11.1705 6.86687 11.1705 6.72402C11.1694 5.72468 10.3595 4.91484 9.36019 4.9137C9.21737 4.9137 9.10156 5.02948 9.10156 5.17233C9.10153 5.31515 9.21731 5.43093 9.36016 5.43093Z" fill="#2D57B3"/>
</svg>
