<svg width="15" height="15" viewBox="0 0 15 15" fill="none" xmlns="http://www.w3.org/2000/svg">
<path d="M14.7083 11.9277L13.0454 10.819L11.5671 9.83363C11.2818 9.64381 10.8984 9.70604 10.6878 9.97639L9.77311 11.1523C9.57661 11.4075 9.22315 11.4808 8.94138 11.3248C8.3207 10.9796 7.58673 10.6545 5.96728 9.03295C4.34783 7.41142 4.02067 6.67953 3.67541 6.05886C3.51941 5.77708 3.59274 5.42362 3.84791 5.22716L5.02384 4.31243C5.29416 4.10185 5.35642 3.71844 5.16661 3.43312L4.21154 2.00038L3.07258 0.291921C2.87872 0.00112364 2.49066 -0.0861801 2.19096 0.0935542L0.877417 0.881572C0.522431 1.09072 0.261487 1.42845 0.148636 1.82474C-0.210569 3.13439 -0.282989 6.02341 4.34704 10.6534C8.97706 15.2835 11.8658 15.2108 13.1755 14.8516C13.5718 14.7387 13.9095 14.4778 14.1186 14.1228L14.9067 12.8093C15.0864 12.5095 14.9991 12.1215 14.7083 11.9277Z" fill="black"/>
</svg>
