<svg width="20" height="20" viewBox="0 0 20 20" fill="none" xmlns="http://www.w3.org/2000/svg">
<path d="M19.1808 15.1258L20.0004 14.287L14.2753 8.69312L13.7131 9.98783L18.0935 14.2678L16.7882 15.6037L16.7878 19.7506H19.1811L19.1808 15.1258Z" fill="#BDBDBD"/>
<path d="M12.2144 10.1631L11.7159 10.2112L10.9814 10.6436L14.6906 14.2677L12.4638 16.5465V19.7505H15.6146L15.6152 15.1257L16.4348 14.2869L12.2144 10.1631Z" fill="#BDBDBD"/>
<path d="M5.85181 15.9978H7.18085V19.7506H5.85181V15.9978Z" fill="#BDBDBD"/>
<path d="M12.2125 15.1257L13.0323 14.2869L9.73528 11.0656L8.28417 10.2111L6.30128 10.0201L5.72511 8.69299L0 14.2869L0.819551 15.1257L1.74103 14.2254V19.7505H4.67881V14.8249H8.35344V19.7505H11.2912V14.2254L12.2125 15.1257Z" fill="#BDBDBD"/>
<path d="M6.47992 7.4872L7.10157 8.91924L8.65507 9.06877L9.99983 9.86055L11.3446 9.06877L12.8981 8.91924L13.5197 7.48735L14.6901 6.45418L14.3501 4.93028L14.6901 3.40638L13.5197 2.37336L12.8981 0.941469L11.3446 0.79178L9.99983 0L8.65507 0.79178L7.10157 0.941469L6.47992 2.37336L5.30957 3.40638L5.64954 4.93028L5.30957 6.45418L6.47992 7.4872ZM8.45228 4.27079C8.45228 3.6966 8.869 3.21381 9.70243 3.09693V2.54288H10.419V3.08671C10.7951 3.12226 11.161 3.21885 11.4506 3.38151L11.0899 4.2505C10.7393 4.07258 10.4089 3.98621 10.0989 3.98621C9.74821 3.98621 9.63651 4.08784 9.63651 4.20991C9.63651 4.6367 11.6032 4.28101 11.6032 5.5922C11.6032 6.14091 11.2068 6.61867 10.4191 6.75584V7.31767H9.70258V6.78132C9.19431 6.75081 8.70145 6.61363 8.39643 6.42549L8.78263 5.55146C9.11817 5.74968 9.56526 5.87678 9.95664 5.87678C10.2971 5.87678 10.4191 5.80552 10.4191 5.68361C10.4191 5.23637 8.45228 5.59724 8.45228 4.27079Z" fill="#BDBDBD"/>
</svg>
