<svg width="36" height="36" viewBox="0 0 36 36" fill="none" xmlns="http://www.w3.org/2000/svg">
<path d="M30.8301 7.0647C30.8301 6.43379 30.1894 6.24986 29.6904 6.13831V7.973C30.2467 7.93531 30.8301 7.6745 30.8301 7.0647Z" fill="#2D57B3"/>
<path d="M29.1325 3.15491C28.5023 3.173 28.0938 3.54461 28.0938 3.9426C28.0938 4.40617 28.439 4.67452 29.1332 4.81321L29.1325 3.15491Z" fill="#2D57B3"/>
<path d="M29.3985 11.2066C32.489 11.2066 35.0021 8.69278 35.0021 5.60381C35.0021 2.51484 32.4883 0.000244141 29.3985 0.000244141C26.3073 0.000244141 23.7935 2.51409 23.7935 5.60381C23.7935 8.69278 26.3073 11.2066 29.3985 11.2066ZM26.9344 4.15505C26.9344 2.89625 27.9814 2.24574 29.1392 2.20956V1.71659C29.1392 1.55754 29.2591 1.40076 29.4159 1.40076C29.5742 1.40076 29.6948 1.55754 29.6948 1.71659V2.20956C30.4161 2.2284 31.9003 2.68142 31.9003 3.59123C31.9003 3.95229 31.6305 4.16485 31.3161 4.16485C30.7124 4.16485 30.7222 3.17364 29.6955 3.15479V4.91561C30.9196 5.17491 32.0021 5.53673 32.0021 6.96362C32.0021 8.20434 31.0757 8.83525 29.6955 8.91892V9.49179C29.6955 9.65008 29.5749 9.80762 29.4166 9.80762C29.2598 9.80762 29.14 9.65008 29.14 9.49179V8.91892C27.5744 8.88047 26.7965 7.94504 26.7965 7.21237C26.7965 6.84302 27.0196 6.62895 27.3701 6.62895C28.4081 6.62895 27.6015 7.90735 29.1407 7.97293V6.03572C27.7666 5.78547 26.9344 5.18396 26.9344 4.15505Z" fill="#2D57B3"/>
<path d="M6.83554 24.96H2.0046C1.11514 24.96 0.394531 25.6813 0.394531 26.5708V33.8168C0.395285 34.7078 1.11665 35.4276 2.0046 35.4276H6.83554C7.725 35.4276 8.44561 34.7078 8.44561 33.8168V26.5708C8.44636 25.6813 7.72575 24.96 6.83554 24.96Z" fill="#2D57B3"/>
<path d="M19.3243 19.3248H14.4934C13.6039 19.3248 12.8833 20.0461 12.8833 20.9356V33.8184C12.8833 34.7093 13.6047 35.4292 14.4934 35.4292H19.3243C20.2138 35.4292 20.9351 34.7093 20.9351 33.8184V20.9333C20.9351 20.0461 20.2145 19.3248 19.3243 19.3248Z" fill="#2D57B3"/>
<path d="M31.8111 12.883H26.9809C26.0907 12.883 25.3701 13.6044 25.3701 14.4931V33.8168C25.3701 34.7078 26.0915 35.4277 26.9809 35.4277H31.8111C32.7013 35.4277 33.4219 34.7078 33.4219 33.8168V14.4938C33.4227 13.6044 32.7013 12.883 31.8111 12.883Z" fill="#2D57B3"/>
<path d="M22.1538 8.27061L18.155 7.43468C17.849 7.37136 17.5339 7.4897 17.3462 7.7392C17.1585 7.98945 17.1329 8.32489 17.2799 8.60152L18.1663 10.2681L0.435987 19.4137C0.0410087 19.6179 -0.114269 20.1041 0.0900041 20.4976C0.233221 20.7742 0.51438 20.9333 0.806091 20.9333C0.930464 20.9333 1.05634 20.9054 1.17469 20.8436L18.9216 11.689L19.7349 13.2176C19.8751 13.4815 20.1487 13.645 20.4457 13.645C20.4593 13.645 20.4721 13.6443 20.4864 13.6435C20.7985 13.6277 21.0736 13.4332 21.1912 13.1438L22.7357 9.36133C22.8261 9.13972 22.8141 8.89022 22.701 8.67916C22.5872 8.47036 22.3874 8.32036 22.1538 8.27061Z" fill="#2D57B3"/>
</svg>
