<svg width="19" height="15" viewBox="0 0 19 15" fill="none" xmlns="http://www.w3.org/2000/svg">
<path d="M11.6767 6.10178L13.2382 3.88441C11.9641 2.00953 9.81147 0.77533 7.37564 0.77533C3.47244 0.77533 0.296875 3.94433 0.296875 7.83943C0.296875 11.7345 3.47244 14.9035 7.3756 14.9035C9.78657 14.9035 11.9197 13.6945 13.1984 11.8522L13.5025 6.93921H12.1127C11.6811 6.93921 11.4291 6.45319 11.6767 6.10178ZM8.15297 11.157C8.15297 11.157 8.16108 11.1566 7.90851 11.1566V11.9764C7.90851 12.27 7.67011 12.5082 7.37557 12.5082C7.08138 12.5082 6.84265 12.2699 6.84265 11.9764V11.1566H6.51151C5.8521 11.152 5.22609 10.8521 4.79335 10.3337C4.60503 10.1082 4.63559 9.77281 4.86194 9.58492C5.079 9.40444 5.3977 9.42538 5.58922 9.62709C5.59704 9.63525 5.60487 9.64409 5.61231 9.65297C5.84324 9.92986 6.17332 10.0901 6.51795 10.093H8.14233C8.14589 10.0933 8.14945 10.0933 8.153 10.0933C8.62936 10.0933 9.01564 9.70835 9.01564 9.23213C9.01564 8.7574 8.62836 8.37127 8.15265 8.37127C7.80286 8.37127 6.97086 8.37127 6.59863 8.37127C5.53525 8.37127 4.67013 7.50794 4.67013 6.44676C4.67013 5.37796 5.53878 4.51636 6.61072 4.52225H6.84272V3.70255C6.84272 3.40897 7.08149 3.1707 7.37564 3.1707C7.67018 3.1707 7.90859 3.40897 7.90859 3.70255V4.52225H8.10434C8.86677 4.52758 9.57167 4.92006 9.98951 5.5721L9.99769 5.58485C10.1561 5.83235 10.0833 6.161 9.83534 6.31914C9.59657 6.47115 9.26315 6.41755 9.09137 6.1447C8.87253 5.80363 8.49201 5.58911 8.09801 5.58591H6.60901C6.60546 5.58591 6.6019 5.58556 6.5987 5.58556C6.12188 5.58556 5.73606 5.97054 5.73606 6.44676C5.73606 6.92149 6.12295 7.30762 6.5987 7.30762H8.15272C9.21609 7.30762 10.0816 8.17095 10.0816 9.23213C10.0815 10.2922 9.22196 11.157 8.15297 11.157Z" fill="#BDBDBD"/>
<path d="M17.5086 5.87571C17.2028 5.87571 16.9582 6.13361 16.9768 6.44054L17.4073 13.3953C17.4262 13.7013 17.1826 13.9599 16.8753 13.9599H14.704C14.3966 13.9599 14.153 13.7011 14.1719 13.3949C14.3676 10.2289 14.1063 14.459 14.6024 6.4405C14.621 6.13336 14.3766 5.87568 14.0705 5.87568H13.1396C13.3439 5.58561 15.1196 3.06405 15.6444 2.31896C15.7152 2.21835 15.8644 2.21853 15.9353 2.31913L18.4399 5.87571H17.5086Z" fill="#BDBDBD"/>
</svg>
