<svg width="12" height="14" viewBox="0 0 12 14" fill="none" xmlns="http://www.w3.org/2000/svg">
<path d="M11.5909 2.18173C11.5909 3.1608 10.7973 3.9545 9.8182 3.9545C8.83913 3.9545 8.04553 3.1608 8.04553 2.18173C8.04553 1.20276 8.83913 0.409058 9.8182 0.409058C10.7973 0.409058 11.5909 1.20276 11.5909 2.18173Z" fill="#BDBDBD"/>
<path d="M9.81823 4.36362C8.61494 4.36362 7.63647 3.38505 7.63647 2.18176C7.63647 0.97857 8.61494 0 9.81823 0C11.0215 0 12 0.97857 12 2.18176C12 3.38505 11.0215 4.36362 9.81823 4.36362ZM9.81823 0.818172C9.06608 0.818172 8.45465 1.4302 8.45465 2.18176C8.45465 2.93341 9.06608 3.54544 9.81823 3.54544C10.5704 3.54544 11.1818 2.93341 11.1818 2.18176C11.1818 1.4302 10.5704 0.818172 9.81823 0.818172Z" fill="#BDBDBD"/>
<path d="M11.5909 10.909C11.5909 11.888 10.7973 12.6817 9.8182 12.6817C8.83913 12.6817 8.04553 11.888 8.04553 10.909C8.04553 9.92993 8.83913 9.13623 9.8182 9.13623C10.7973 9.13623 11.5909 9.92993 11.5909 10.909Z" fill="#BDBDBD"/>
<path d="M9.81823 13.0908C8.61494 13.0908 7.63647 12.1122 7.63647 10.909C7.63647 9.70574 8.61494 8.72717 9.81823 8.72717C11.0215 8.72717 12 9.70574 12 10.909C12 12.1122 11.0215 13.0908 9.81823 13.0908ZM9.81823 9.54534C9.06608 9.54534 8.45465 10.1574 8.45465 10.909C8.45465 11.6606 9.06608 12.2726 9.81823 12.2726C10.5704 12.2726 11.1818 11.6606 11.1818 10.909C11.1818 10.1574 10.5704 9.54534 9.81823 9.54534Z" fill="#BDBDBD"/>
<path d="M3.9545 6.54538C3.9545 7.52445 3.1608 8.31805 2.18173 8.31805C1.20276 8.31805 0.409058 7.52445 0.409058 6.54538C0.409058 5.56631 1.20276 4.77271 2.18173 4.77271C3.1608 4.77271 3.9545 5.56631 3.9545 6.54538Z" fill="#BDBDBD"/>
<path d="M2.18176 8.72716C0.97857 8.72716 0 7.74869 0 6.54541C0 5.34212 0.97857 4.36365 2.18176 4.36365C3.38505 4.36365 4.36362 5.34212 4.36362 6.54541C4.36362 7.74869 3.38505 8.72716 2.18176 8.72716ZM2.18176 5.18182C1.4296 5.18182 0.818172 5.79375 0.818172 6.54541C0.818172 7.29706 1.4296 7.90899 2.18176 7.90899C2.93401 7.90899 3.54544 7.29706 3.54544 6.54541C3.54544 5.79375 2.93401 5.18182 2.18176 5.18182Z" fill="#BDBDBD"/>
<path d="M3.4697 6.28365C3.27984 6.28365 3.09547 6.18487 2.99509 6.00819C2.84618 5.74692 2.93787 5.41364 3.19914 5.26413L8.26028 2.37876C8.52155 2.22874 8.85483 2.32043 9.00434 2.5827C9.15326 2.84397 9.06157 3.17725 8.8003 3.32676L3.73906 6.21214C3.65397 6.26068 3.56128 6.28365 3.4697 6.28365Z" fill="#BDBDBD"/>
<path d="M8.53037 10.7835C8.43868 10.7835 8.346 10.7606 8.26091 10.712L3.19967 7.82666C2.9384 7.67775 2.84682 7.34446 2.99573 7.08259C3.14404 6.82082 3.47782 6.72864 3.73969 6.87865L8.80093 9.76403C9.0622 9.91294 9.15378 10.2462 9.00487 10.5081C8.904 10.6848 8.71963 10.7835 8.53037 10.7835Z" fill="#BDBDBD"/>
</svg>
