<svg width="12" height="20" viewBox="0 0 12 20" fill="none" xmlns="http://www.w3.org/2000/svg">
<path d="M7.836 10.2638L0.70402 17.3961C0.507641 17.592 0.399608 17.8539 0.399608 18.1332C0.399608 18.4127 0.507641 18.6745 0.70402 18.8707L1.32896 19.4953C1.52503 19.6919 1.78713 19.8 2.06643 19.8C2.34574 19.8 2.60752 19.6919 2.80375 19.4953L11.2955 11.0037C11.4925 10.8069 11.6004 10.5439 11.5996 10.2642C11.6004 9.98339 11.4927 9.72067 11.2955 9.52367L2.81165 1.04029C2.61543 0.843757 2.35364 0.735568 2.07418 0.735568C1.79488 0.735568 1.53309 0.843757 1.33671 1.04029L0.711924 1.66492C0.30537 2.07148 0.30537 2.73331 0.711924 3.13971L7.836 10.2638Z" fill="#2D57B3"/>
</svg>
