<svg width="20" height="20" viewBox="0 0 20 20" fill="none" xmlns="http://www.w3.org/2000/svg">
<path d="M19.9345 16.0505L18.4037 12.8869L19.4919 10.8214C19.7157 10.2625 19.4914 9.66607 19.0391 9.3629C18.4616 8.97603 17.5907 9.13435 17.2475 9.91087L17.2454 9.91576L15.1736 14.378H9.36188L9.36137 14.3759H8.01789L8.0184 14.378H2.56348C1.96934 14.378 1.35254 14.8173 1.35254 15.6808C1.35254 16.5196 1.94125 16.9823 2.56348 16.9823H3.5859L2.7159 18.657C2.54945 18.9766 2.67344 19.3703 2.99273 19.5367C3.31207 19.7028 3.70543 19.5799 3.87246 19.2595L5.05625 16.9823H8.65961L9.18242 19.1139C9.26871 19.4633 9.62074 19.6778 9.97172 19.5916C10.3214 19.5055 10.5353 19.1522 10.4493 18.8024L10.003 16.9823H15.0309L16.2146 19.2595C16.3804 19.5776 16.7735 19.7036 17.0944 19.5367C17.4137 19.3703 17.5376 18.9765 17.3712 18.657L16.5012 16.9823H19.3473C19.8273 16.9824 20.1437 16.4833 19.9345 16.0505ZM16.9307 15.6824L17.6481 14.3207L18.307 15.6824H16.9307Z" fill="#BDBDBD"/>
<path d="M14.1041 6.35499C13.1371 2.74695 9.56985 0.520656 5.95656 1.14534L5.77918 0.483508C5.68578 0.135109 5.32996 -0.070789 4.98008 0.0224141C4.63235 0.115617 4.42598 0.473117 4.51899 0.821047L4.69629 1.48284C1.25559 2.74757 -0.721638 6.46038 0.24508 10.0685C0.337737 10.4141 0.694299 10.6235 1.04418 10.5296L6.69992 9.01409L7.69719 13.0717H9.04067L7.96035 8.67636L13.6431 7.15366C13.9922 7.05991 14.1966 6.70144 14.1041 6.35499Z" fill="#BDBDBD"/>
</svg>
