<svg xmlns="http://www.w3.org/2000/svg" viewBox="0 0 35 35"><defs><style>.cls-1{fill:#fbe9d1;}.cls-2{fill:#e94e1b;}</style></defs><title>Ресурс 82</title><g id="Слой_2" data-name="Слой 2"><g id="Главная"><rect class="cls-1" width="35" height="35" rx="12.26" ry="12.26"/><path class="cls-2" d="M27.31,11.3a3.33,3.33,0,0,0,.1-2.52.59.59,0,0,0-.76-.36l-7.37,2.71V9.52l1-.28a.59.59,0,0,0,.41-.73A.6.6,0,0,0,20,8.09l-.68.2a1.06,1.06,0,0,0-.34-.62,1,1,0,0,0-.8-.22l-.59.1a2.18,2.18,0,0,0-1.82,2.16v1.42L8.35,8.43a.58.58,0,0,0-.76.35,3.33,3.33,0,0,0,.1,2.52A3.29,3.29,0,0,0,9.46,13a3.4,3.4,0,0,0,.26,2,3.25,3.25,0,0,0,1.85,1.7l3.1,1.14a5.33,5.33,0,0,0-.07.82V21a3.28,3.28,0,0,1-.46-.76,6.38,6.38,0,0,1-.45-1.34.58.58,0,0,0-.37-.43.56.56,0,0,0-.57.08,3.9,3.9,0,0,0-1.31,2.77,3.92,3.92,0,0,1-.22-1.42,3.14,3.14,0,0,0-1-2.64.59.59,0,0,0-.93.6,2.81,2.81,0,0,1-.43,1.8,5.51,5.51,0,0,0-.67,2.63,5.29,5.29,0,0,0,2.15,4,7.28,7.28,0,0,0,4.38,1.47h5.64a7.28,7.28,0,0,0,4.38-1.47,5.29,5.29,0,0,0,2.15-4,5.51,5.51,0,0,0-.67-2.63,2.81,2.81,0,0,1-.43-1.8.59.59,0,0,0-.93-.6,3.14,3.14,0,0,0-1,2.64,2.72,2.72,0,0,1-.57,1.95h0a5.46,5.46,0,0,0-1-3.22,2.68,2.68,0,0,1-.55-1.36l1.78-.66a3.25,3.25,0,0,0,1.85-1.7,3.4,3.4,0,0,0,.26-2,3.29,3.29,0,0,0,1.77-1.67ZM17.73,8.73l.36-.06v5a4.77,4.77,0,0,0-1.18.62V9.71a1,1,0,0,1,.82-1ZM12,15.51a2.05,2.05,0,0,1-1.17-1.09,2,2,0,0,1-.19-1l2.28.85a.64.64,0,0,0,.2,0,.59.59,0,0,0,.56-.39.6.6,0,0,0-.35-.76L9.94,11.88A2.07,2.07,0,0,1,8.77,10.8a2,2,0,0,1-.19-1l6.93,2.54.21.09v3A5.78,5.78,0,0,0,15,16.62ZM9.33,22.28A4.32,4.32,0,0,1,9.9,20.2c0-.1.08-.19.13-.29V20a3.66,3.66,0,0,0,1.09,2.88,4.91,4.91,0,0,0,.51.39,6.17,6.17,0,0,0,1.56,2.8c.17.17.34.32.52.47A6,6,0,0,1,11,25.38a4.13,4.13,0,0,1-1.69-3.1Zm14.55.59A3.66,3.66,0,0,0,25,20v-.08c.05.1.09.19.13.29a4.32,4.32,0,0,1,.57,2.08A4.13,4.13,0,0,1,24,25.38a6,6,0,0,1-3.09,1.2A5.91,5.91,0,0,0,23,23.5a4.83,4.83,0,0,0,.9-.63ZM21.2,19.28A4.36,4.36,0,0,1,22,21.87a4.73,4.73,0,0,1-4.7,4.74A4.53,4.53,0,0,1,14,25.22a5.05,5.05,0,0,1-1.43-3.37,3.39,3.39,0,0,1,.27-1.49c.38,1,1.1,2.2,2.32,2.2a.6.6,0,0,0,.59-.6V18.59a3.93,3.93,0,0,1,1-2.59A4.37,4.37,0,0,1,18.09,15v2.84c0,1.36.57,3.11,1.48,3.74a.6.6,0,0,0,.67-1,3.74,3.74,0,0,1-.94-2.39l1.2-.44a4.25,4.25,0,0,0,.7,1.57Zm5-8.48a2.06,2.06,0,0,1-1.18,1.08L21.7,13.13a.6.6,0,0,0-.35.76.59.59,0,0,0,.56.39.64.64,0,0,0,.2,0l2.28-.85a2,2,0,0,1-.19,1A2.05,2.05,0,0,1,23,15.51l-3.75,1.38V12.41l.21-.09,6.93-2.54a2,2,0,0,1-.19,1Z"/></g></g></svg>