<svg xmlns="http://www.w3.org/2000/svg" viewBox="0 0 200 200"><defs><style>.cls-1{fill:#ffea82;}.cls-2{fill:#d6ad00;}</style></defs><title>house</title><g id="Слой_2" data-name="Слой 2"><g id="Слой_1-2" data-name="Слой 1"><rect class="cls-1" width="200" height="200" rx="69.57"/><path class="cls-2" d="M89.45,135.76h23.48a3.65,3.65,0,0,0,3.66-3.65V108.62a3.66,3.66,0,0,0-3.66-3.65H89.45a3.66,3.66,0,0,0-3.66,3.65v23.49a3.65,3.65,0,0,0,3.66,3.65Zm3.65-23.48h16.18v16.17H93.1Z"/><path class="cls-2" d="M159.7,151.94h-5.46A13.4,13.4,0,0,0,151.49,136a13.41,13.41,0,0,0,0-19.57,13.38,13.38,0,0,0,2.75-15.91h5.57a3.73,3.73,0,0,0,2.81-1.2,3.67,3.67,0,0,0-.13-5L103.77,35.58a3.66,3.66,0,0,0-5.16,0L77.44,56.74V46a3.65,3.65,0,0,0-3.65-3.66H54.22A3.66,3.66,0,0,0,50.56,46V83.63L39.89,94.3a3.66,3.66,0,0,0-.12,5,3.71,3.71,0,0,0,2.81,1.2h5.56a13.38,13.38,0,0,0,2.75,15.91,13.41,13.41,0,0,0,0,19.57,13.4,13.4,0,0,0-2.75,15.92H42.68a3.78,3.78,0,0,0-3.85,3.46,3.65,3.65,0,0,0,3.65,3.85h30a3.66,3.66,0,0,0,3.66-3.65h0a3.66,3.66,0,0,0-3.66-3.66H72A13.4,13.4,0,0,0,69.29,136a13.41,13.41,0,0,0,0-19.57,13.4,13.4,0,0,0,.9-18.63l31-31,31,31a13.4,13.4,0,0,0,.9,18.63,13.41,13.41,0,0,0,0,19.57,13.4,13.4,0,0,0-2.75,15.92h-28.8a3.65,3.65,0,0,0-3.65,3.66h0a3.65,3.65,0,0,0,3.65,3.65H159.9a3.65,3.65,0,0,0,3.65-3.85A3.78,3.78,0,0,0,159.7,151.94ZM57.87,49.65H70.14v14.4L57.87,76.32Zm2.22,102.29a6.13,6.13,0,1,1,6.13-6.13A6.14,6.14,0,0,1,60.09,151.94Zm0-19.57a6.13,6.13,0,1,1,6.13-6.13A6.14,6.14,0,0,1,60.09,132.37Zm0-19.57a6.13,6.13,0,1,1,6.13-6.13A6.14,6.14,0,0,1,60.09,112.8Zm82.2,39.14a6.13,6.13,0,1,1,6.13-6.13A6.14,6.14,0,0,1,142.29,151.94Zm0-19.57a6.13,6.13,0,1,1,6.13-6.13A6.14,6.14,0,0,1,142.29,132.37Zm0-19.57a6.13,6.13,0,1,1,6.13-6.13A6.14,6.14,0,0,1,142.29,112.8Zm-4.36-19.57L103.78,59.07a3.65,3.65,0,0,0-5.17,0L64.45,93.23H51.3l49.89-49.89,49.89,49.89Z"/></g></g></svg>