<svg xmlns="http://www.w3.org/2000/svg" viewBox="0 0 200 200"><defs><style>.cls-1{fill:#fcead2;}.cls-2{fill:#e94e1b;}</style></defs><title>statue</title><g id="Слой_2" data-name="Слой 2"><g id="Слой_1-2" data-name="Слой 1"><rect class="cls-1" width="200" height="200" rx="69.81"/><path class="cls-2" d="M63,175.26H137v-7.89h-8.51V149.61H113l6.68-31.74a40.65,40.65,0,0,0-2.39-24.2l-4.4-10.36,2.67-18.55.67.47A4.47,4.47,0,0,1,118.08,68l1.17,5.65,7.73-1.6-1.17-5.65A12.54,12.54,0,0,0,117.12,57l-.41-.12v-.07L104.15,54l1.46-.6a14.88,14.88,0,1,0-11.22,0l1.47.61L83.2,56.85l-.31.17a12.52,12.52,0,0,0-8.7,9.39L73,72.06l7.73,1.6L81.92,68a4.48,4.48,0,0,1,1.85-2.78l.67-.47,2.67,18.56-4.4,10.36a40.7,40.7,0,0,0-2.39,24.22L87,149.61H71.47v17.76H63Zm49.28-71.16L111,106.48c-2.71,5.14-8.94,14.52-20.24,19.63l-.57.25L88,116.13l.51-.09a44.56,44.56,0,0,0,21.68-10.17Zm-1.15,16.31-6.15,29.2H95.07l-3.24-15.39.39-.15a48.17,48.17,0,0,0,17.64-12.31ZM93,39.61a7,7,0,1,1,7,7A7,7,0,0,1,93,39.61Zm-5.6,68A32.72,32.72,0,0,1,90,96.76l5.26-12.4L92.15,62.92,100,61.14l7.85,1.78-3.09,21.44,4.63,10.9-.18.23c-2.22,3-8.75,10.07-21.2,12.6l-.64.13Zm-8.06,49.94h41.28v9.86H79.36Z"/></g></g></svg>