<?xml version="1.0" encoding="UTF-8" ?>
<!DOCTYPE svg PUBLIC "-//W3C//DTD SVG 1.1//EN" "http://www.w3.org/Graphics/SVG/1.1/DTD/svg11.dtd">
<svg width="61pt" height="58pt" viewBox="0 0 61 58" version="1.1" xmlns="http://www.w3.org/2000/svg">
<g id="#fefefeff">
</g>
<g id="#0315a7ff">
<path fill="#0315a7" opacity="1.00" d=" M 8.58 13.95 C 15.98 9.78 23.55 5.92 30.84 1.57 C 38.06 5.96 45.66 9.71 52.96 13.96 C 48.79 16.27 44.68 18.72 40.38 20.80 C 40.35 28.64 40.41 36.49 40.36 44.34 C 37.62 48.17 33.99 51.20 30.82 54.64 C 27.58 51.39 23.96 48.42 21.34 44.62 C 20.58 36.59 21.58 28.44 20.77 20.39 C 16.51 18.63 12.65 16.09 8.58 13.95 M 14.98 13.97 C 20.36 16.73 25.61 19.72 30.88 22.69 C 35.63 19.78 40.56 17.17 45.52 14.64 C 45.59 14.34 45.74 13.73 45.81 13.42 C 40.78 10.87 35.77 8.25 30.97 5.28 C 25.60 8.11 20.37 11.18 14.98 13.97 M 24.76 22.87 C 24.74 28.93 24.68 34.98 24.76 41.03 C 24.55 43.37 26.40 45.16 28.42 45.95 C 31.72 47.80 36.81 44.92 36.63 41.04 C 36.67 34.94 36.68 28.85 36.55 22.75 C 34.67 23.98 32.78 25.18 30.87 26.37 C 28.88 25.14 26.88 23.89 24.76 22.87 Z" />
<path fill="#0315a7" opacity="1.00" d=" M 12.77 20.62 C 14.12 21.46 15.49 22.26 16.87 23.03 C 17.00 29.70 16.88 36.38 16.93 43.05 C 16.25 47.98 22.32 48.92 24.79 52.06 C 21.13 51.12 17.93 48.92 14.20 48.20 C 12.19 45.53 12.87 42.10 12.79 39.00 C 12.81 32.87 12.82 26.75 12.77 20.62 Z" />
<path fill="#0315a7" opacity="1.00" d=" M 44.74 22.97 C 46.06 22.23 47.38 21.49 48.69 20.72 C 48.09 29.54 49.30 38.52 48.08 47.25 C 44.64 49.21 40.66 50.66 36.83 51.90 C 39.19 49.53 42.39 48.13 44.54 45.56 C 45.00 38.05 44.58 30.50 44.74 22.97 Z" />
<path fill="#0315a7" opacity="1.00" d=" M 4.32 22.74 C 5.86 23.37 7.31 24.21 8.69 25.15 C 8.60 33.11 8.57 41.08 8.72 49.05 C 13.68 51.67 19.34 52.09 24.60 53.80 C 19.02 53.52 13.55 52.19 7.98 51.80 C 6.34 51.83 4.19 51.01 4.30 49.05 C 4.21 40.28 4.25 31.51 4.32 22.74 Z" />
<path fill="#0315a7" opacity="1.00" d=" M 52.63 25.18 C 54.08 24.27 55.55 23.38 57.03 22.53 C 57.12 30.71 57.04 38.89 57.10 47.06 C 57.09 48.67 57.15 51.38 54.98 51.55 C 48.99 52.24 43.04 53.30 37.03 53.83 C 42.02 51.99 47.58 51.87 52.24 49.17 C 53.26 41.27 52.42 33.16 52.63 25.18 Z" />
</g>
</svg>
