<svg xmlns="http://www.w3.org/2000/svg" viewBox="0 0 200 200"><g data-name="Слой 2"><g data-name="Слой 1"><rect width="200" height="200" rx="69.81" fill="#efd5de"/><path d="M134.74 68.68A15.68 15.68 0 1 0 119.06 53a15.69 15.69 0 0 0 15.68 15.68zM126.88 53a7.86 7.86 0 1 1 7.86 7.86 7.87 7.87 0 0 1-7.86-7.86zM100 68.68A15.68 15.68 0 1 0 84.32 53 15.69 15.69 0 0 0 100 68.68zm0-23.54A7.86 7.86 0 1 1 92.14 53a7.86 7.86 0 0 1 7.86-7.86zm61.17 44.56v18.6a15.57 15.57 0 0 1-7.65 13.4v23.89a12.61 12.61 0 0 1-12.6 12.59h-13.21a3.92 3.92 0 1 1 0-7.84h13.21a4.78 4.78 0 0 0 4.77-4.78v-26.28a4 4 0 0 1 2.55-3.67 7.75 7.75 0 0 0 5.1-7.26v-18.6A7.75 7.75 0 0 0 145.6 82h-12.5a3.92 3.92 0 0 1 0-7.84h12.5a15.58 15.58 0 0 1 15.57 15.54zm-34.32 0a15.59 15.59 0 0 0-15.56-15.57h-22.6A15.59 15.59 0 0 0 73.12 89.7v18.6a15.56 15.56 0 0 0 7.66 13.4v23.82a12.64 12.64 0 0 0 12.61 12.59h13.22a12.61 12.61 0 0 0 12.59-12.59V121.7a15.55 15.55 0 0 0 7.65-13.4zm-15.42 29.54v26.28a4.78 4.78 0 0 1-4.78 4.77H93.44a4.78 4.78 0 0 1-4.77-4.77v-26.28a4 4 0 0 0-2.56-3.68A7.75 7.75 0 0 1 81 108.3V89.7a7.75 7.75 0 0 1 7.71-7.7h22.6a7.75 7.75 0 0 1 7.74 7.74v18.6a7.77 7.77 0 0 1-5.07 7.27 3.93 3.93 0 0 0-2.55 3.63zM65.26 68.68A15.68 15.68 0 1 0 49.58 53a15.69 15.69 0 0 0 15.68 15.68zM57.4 53a7.86 7.86 0 1 1 7.86 7.86A7.86 7.86 0 0 1 57.4 53zm18.81 101.19a3.93 3.93 0 0 1-3.92 3.92H59.08a12.62 12.62 0 0 1-12.6-12.62v-23.82a15.56 15.56 0 0 1-7.65-13.39v-18.6A15.59 15.59 0 0 1 54.4 74.11h12.47a3.93 3.93 0 0 1 0 7.85H54.42a7.75 7.75 0 0 0-7.74 7.74v18.6a7.76 7.76 0 0 0 5.07 7.26 4 4 0 0 1 2.55 3.68v26.25a4.78 4.78 0 0 0 4.78 4.77h13.21a3.93 3.93 0 0 1 3.92 3.93z" fill="#e26d9d"/></g></g></svg>