<svg xmlns="http://www.w3.org/2000/svg" viewBox="0 0 200 200"><g data-name="Слой 2"><g data-name="Слой 1"><rect width="200" height="200" rx="70.05" fill="#f4c6bd"/><path d="M94.94 128.65V98.74l-1.87 1.46a4.81 4.81 0 0 1-6.77-.87 4.87 4.87 0 0 1 .86-6.81L96.8 85a4.82 4.82 0 0 1 7.78 3.84v39.82a4.82 4.82 0 1 1-9.64 0zm29.17 3.88a9.69 9.69 0 0 1 9.65-9.71h11.81l-21.46 22.43v-12.72zm32.8-34a4.84 4.84 0 0 0 4.82-4.85V67a19.37 19.37 0 0 0-19.29-19.42h-6.27v-4.87a4.83 4.83 0 1 0-9.65 0v4.85h-21.94v-4.85a4.82 4.82 0 1 0-9.64 0v4.85H73.23v-4.85a4.82 4.82 0 1 0-9.64 0v4.85h-6A19.37 19.37 0 0 0 38.27 67v75.75a19.37 19.37 0 0 0 19.29 19.42h61.73a4.78 4.78 0 0 0 3.47-1.49l37.62-39.33a4.88 4.88 0 0 0 1-5.27 4.81 4.81 0 0 0-4.43-3h-23.19a19.37 19.37 0 0 0-19.29 19.42v19.91H57.56a9.69 9.69 0 0 1-9.64-9.71V67a9.69 9.69 0 0 1 9.64-9.71h6v4.86a4.82 4.82 0 1 0 9.64 0v-4.88h21.74v4.86a4.82 4.82 0 1 0 9.64 0v-4.86h21.94v4.86a4.83 4.83 0 1 0 9.65 0v-4.86h6.27a9.69 9.69 0 0 1 9.64 9.73v26.69a4.84 4.84 0 0 0 4.83 4.85z" fill="#e6332a"/></g></g></svg>