<svg xmlns="http://www.w3.org/2000/svg" viewBox="0 0 200 200"><defs><style>.cls-2{fill:#d6ad00}</style></defs><g id="Слой_2" data-name="Слой 2"><g id="Слой_1-2" data-name="Слой 1"><rect width="200" height="200" rx="69.57" fill="#ffea82"/><path class="cls-2" d="M89.45 135.76h23.48a3.65 3.65 0 0 0 3.66-3.65v-23.49a3.66 3.66 0 0 0-3.66-3.65H89.45a3.66 3.66 0 0 0-3.66 3.65v23.49a3.65 3.65 0 0 0 3.66 3.65zm3.65-23.48h16.18v16.17H93.1z"/><path class="cls-2" d="M159.7 151.94h-5.46a13.4 13.4 0 0 0-2.75-15.94 13.41 13.41 0 0 0 0-19.57 13.38 13.38 0 0 0 2.75-15.91h5.57a3.73 3.73 0 0 0 2.81-1.2 3.67 3.67 0 0 0-.13-5l-58.72-58.74a3.66 3.66 0 0 0-5.16 0L77.44 56.74V46a3.65 3.65 0 0 0-3.65-3.66H54.22A3.66 3.66 0 0 0 50.56 46v37.63L39.89 94.3a3.66 3.66 0 0 0-.12 5 3.71 3.71 0 0 0 2.81 1.2h5.56a13.38 13.38 0 0 0 2.75 15.91 13.41 13.41 0 0 0 0 19.57 13.4 13.4 0 0 0-2.75 15.92h-5.46a3.78 3.78 0 0 0-3.85 3.46 3.65 3.65 0 0 0 3.65 3.85h30a3.66 3.66 0 0 0 3.66-3.65 3.66 3.66 0 0 0-3.66-3.66H72a13.4 13.4 0 0 0-2.71-15.9 13.41 13.41 0 0 0 0-19.57 13.4 13.4 0 0 0 .9-18.63l31-31 31 31a13.4 13.4 0 0 0 .9 18.63 13.41 13.41 0 0 0 0 19.57 13.4 13.4 0 0 0-2.75 15.92h-28.8a3.65 3.65 0 0 0-3.65 3.66 3.65 3.65 0 0 0 3.65 3.65h58.36a3.65 3.65 0 0 0 3.65-3.85 3.78 3.78 0 0 0-3.85-3.44zM57.87 49.65h12.27v14.4L57.87 76.32zm2.22 102.29a6.13 6.13 0 1 1 6.13-6.13 6.14 6.14 0 0 1-6.13 6.13zm0-19.57a6.13 6.13 0 1 1 6.13-6.13 6.14 6.14 0 0 1-6.13 6.13zm0-19.57a6.13 6.13 0 1 1 6.13-6.13 6.14 6.14 0 0 1-6.13 6.13zm82.2 39.14a6.13 6.13 0 1 1 6.13-6.13 6.14 6.14 0 0 1-6.13 6.13zm0-19.57a6.13 6.13 0 1 1 6.13-6.13 6.14 6.14 0 0 1-6.13 6.13zm0-19.57a6.13 6.13 0 1 1 6.13-6.13 6.14 6.14 0 0 1-6.13 6.13zm-4.36-19.57l-34.15-34.16a3.65 3.65 0 0 0-5.17 0L64.45 93.23H51.3l49.89-49.89 49.89 49.89z"/></g></g></svg>