<svg xmlns="http://www.w3.org/2000/svg" viewBox="0 0 35 35"><g data-name="Слой 2"><path data-name="&lt;Составной контур&gt;" d="M9.13 4.43a4.7 4.7 0 1 0 4.7 4.7 4.71 4.71 0 0 0-4.7-4.7zm0 7.42a2.72 2.72 0 1 1 2.72-2.72 2.72 2.72 0 0 1-2.72 2.72zM13.65 0h-9A4.62 4.62 0 0 0 0 4.61v9a4.62 4.62 0 0 0 4.61 4.61h9a4.62 4.62 0 0 0 4.61-4.61v-9A4.62 4.62 0 0 0 13.65 0zm2.62 13.65a2.62 2.62 0 0 1-2.62 2.62h-9A2.62 2.62 0 0 1 2 13.65v-9A2.62 2.62 0 0 1 4.61 2h9a2.62 2.62 0 0 1 2.62 2.62zM14 5.4a1.12 1.12 0 1 1 1.1-1.11A1.11 1.11 0 0 1 14 5.4" fill="#fff"/></g></svg>