<svg xmlns="http://www.w3.org/2000/svg" viewBox="0 0 200 200"><g data-name="Слой 2"><g data-name="Слой 1"><rect width="200" height="200" rx="70.05" fill="#def3e7"/><path d="M155.67 140.93a4.37 4.37 0 1 0-8.56 1.8 4.55 4.55 0 0 1-.91 3.81 4.47 4.47 0 0 1-3.52 1.67H130l7-8.11a4.41 4.41 0 0 0-.12-5.92l-9.43-10 5.46-6.88a48.27 48.27 0 0 1 7 8.27 4.36 4.36 0 0 0 6.07 1.2 4.41 4.41 0 0 0 1.19-6.1 56.84 56.84 0 0 0-11.69-12.82l-.35-.32c-.14-.11-.29-.21-.43-.3a56.41 56.41 0 0 0-16.86-9 30 30 0 0 0 11.93-24c0-.76 0-1.51-.09-2.26a4.71 4.71 0 0 0 1.85-3.73v-9.78A22.45 22.45 0 0 0 109.05 36H88.52a22.45 22.45 0 0 0-22.43 22.46v9.83A4.72 4.72 0 0 0 70.31 73v1.3a29.94 29.94 0 0 0 11.94 24 56.57 56.57 0 0 0-18.35 10.08 57.48 57.48 0 0 0-19.56 32.51 13.4 13.4 0 0 0 2.7 11.2A13.14 13.14 0 0 0 57.32 157h23.35a1 1 0 0 0 .23-.06l.17-.05.22-.08.16-.07.21-.1.16-.09.19-.12.16-.1.17-.13.16-.13.1-.09.17-.17.14-.15.14-.16.13-.19.11-.16.12-.2c0-.06.07-.11.1-.18l.09-.19.09-.2.07-.19a1.87 1.87 0 0 1 .07-.22v-.19a1.89 1.89 0 0 0 0-.23v-.85a2.18 2.18 0 0 0 0-.25v-.19a2.23 2.23 0 0 0 0-.23v-.2l-.06-.21v-.2a1.19 1.19 0 0 0-.08-.2 1.18 1.18 0 0 0-.07-.2l-.09-.19-.1-.2-.1-.17a1.37 1.37 0 0 0-.13-.2l-.11-.15-.16-.2-10.71-12.58 9.31-9.85a4.42 4.42 0 0 0 .25-5.78L74 111.9a47.72 47.72 0 0 1 21.1-7.48l-8.32 36.87a4.45 4.45 0 0 0 1 3.87l8.74 10.12a4.36 4.36 0 0 0 6.6 0l8.74-10.12a4.42 4.42 0 0 0 1-3.87l-8.34-36.92a47.82 47.82 0 0 1 21.48 7.51l-7.79 9.82a4.42 4.42 0 0 0 .25 5.78l9.31 9.85-10.75 12.38a4.43 4.43 0 0 0-.69 4.72 4.38 4.38 0 0 0 4 2.58h22.35a13.16 13.16 0 0 0 10.32-4.92 13.4 13.4 0 0 0 2.67-11.16zm-92.53-6.75a4.41 4.41 0 0 0-.14 5.92l7 8.11H57.32a4.44 4.44 0 0 1-3.5-1.67 4.65 4.65 0 0 1-.93-3.86 48.3 48.3 0 0 1 14.21-25.37l5.47 6.88zM74 59.89v-1.43a14.58 14.58 0 0 1 14.52-14.57h16v13.72a7.58 7.58 0 0 1-7.57 7.57H74zm38.42-12.82v-2.8a14.64 14.64 0 0 1 11.25 14.19v6.71h-3.69a7.71 7.71 0 0 1-1.07-.08 7.57 7.57 0 0 1-6.49-7.48V47.07zm-12.64 98.61l-4-4.61 4-17.67 4 17.67zM101 95.37h-2a21.09 21.09 0 0 1-20-21.1c0-.42 0-.83.06-1.24h17.87a15.35 15.35 0 0 0 11.5-5.15 15.47 15.47 0 0 0 8.26 4.8l4.22.22c0 .46.07.91.07 1.37A21.08 21.08 0 0 1 101 95.37z" fill="#4dc288"/></g></g></svg>