<svg xmlns="http://www.w3.org/2000/svg" viewBox="0 0 200 200"><g data-name="Слой 2"><g data-name="Слой 1"><rect width="200" height="200" rx="70.05" fill="#d9d9ef"/><path d="M158.84 76.27a9.07 9.07 0 0 0-15.46 6.43v5a4.6 4.6 0 0 1-4.6 4.6h-1.86l1.27-3a4 4 0 0 0-.87-4.39l-2.53-2.53a16.64 16.64 0 0 1-4.91-11.86 4 4 0 0 0-4-4h-4.6V61.9a12.65 12.65 0 0 0-6.07-10.8 12.51 12.51 0 0 0 1.79-6.44V36a4 4 0 0 0-4-4H87.07a4 4 0 0 0-4 4v8.62a12.48 12.48 0 0 0 1.76 6.44 12.65 12.65 0 0 0-6.07 10.8v4.59h-4.6a4 4 0 0 0-4 4 16.64 16.64 0 0 1-4.91 11.86l-2.53 2.53a4 4 0 0 0-.87 4.39l1.27 3h-1.9a4.6 4.6 0 0 1-4.6-4.6v-5a9.07 9.07 0 0 0-15.46-6.43 4 4 0 0 0 5.58 5.79 1 1 0 0 1 1.84.64v5a12.66 12.66 0 0 0 12.64 12.77h5.22l16.1 38.66a12.6 12.6 0 0 0-3.8 9v8.62a4.61 4.61 0 0 1-4.6 4.6 4 4 0 1 0 0 8 12.66 12.66 0 0 0 12-8.62h27.74a12.66 12.66 0 0 0 12 8.62 4 4 0 1 0 0-8 4.61 4.61 0 0 1-4.6-4.6v-8.62a12.6 12.6 0 0 0-3.8-9l3.54-8.5h9.17a4.59 4.59 0 0 1 4.59 4.59 4 4 0 1 0 8.05 0 12.64 12.64 0 0 0-12.64-12.64h-5.82l9.22-22.11h5.21a12.66 12.66 0 0 0 12.64-12.65v-5a1 1 0 0 1 1.84-.64 4 4 0 0 0 5.58-5.79zM91.1 40.07h17.8v4.59a4.59 4.59 0 0 1-4.59 4.6h-8.62a4.61 4.61 0 0 1-4.6-4.6v-4.59zM86.79 61.9a4.6 4.6 0 0 1 4.59-4.6h17.24a4.6 4.6 0 0 1 4.59 4.6v4.59H86.79zm-8.94 12.64h44.3a24.46 24.46 0 0 0 3.48 9.19H74.37a24.63 24.63 0 0 0 3.48-9.19zm35.36 78.14H86.79v-4.6a4.6 4.6 0 0 1 4.59-4.59h17.24a4.6 4.6 0 0 1 4.59 4.59zm-3-17.24H89.76l-18.2-43.66h56.88L114.62 125z" fill="#6d70b5"/></g></g></svg>