<svg xmlns="http://www.w3.org/2000/svg" viewBox="0 0 200 200"><g data-name="Слой 2"><g data-name="Слой 1"><rect width="200" height="200" rx="69.81" fill="#d7f5c6"/><path d="M163.81 96.39a22.09 22.09 0 0 0-19.41-21.9A22.93 22.93 0 0 0 100.15 80a23.73 23.73 0 0 0-19.34 23.28 23.48 23.48 0 0 0 6.1 15.87 23.6 23.6 0 0 0 .09 18.49H69.31a17.92 17.92 0 0 1-15-27.78 5 5 0 0 0-1.12-6.7 18.07 18.07 0 0 1 11-32.4h.6a5 5 0 0 0 5.11-5.53 18.43 18.43 0 0 1-.11-1.93A17.15 17.15 0 0 1 101 53.5a5 5 0 0 0 8.18-5.7A27.11 27.11 0 0 0 60 61.11a28.1 28.1 0 0 0-23.81 27.72 27.79 27.79 0 0 0 7.74 19.33 27.89 27.89 0 0 0 25.38 39.45h13.61v11.21a5 5 0 1 0 10 0v-13a23.46 23.46 0 0 0 15.71 6h10.09v7a5 5 0 1 0 10 0v-22.47c8-1.44 15.58-7.82 15.58-17.41a5 5 0 0 0-10 0c0 3.41-2.53 6-5.61 7.13V99.25a5 5 0 0 0-10 0v15.9a11.7 11.7 0 0 1-4.49-2.29 5.45 5.45 0 0 1-2.24-4.14 5 5 0 0 0-10 0 15.34 15.34 0 0 0 5.77 11.75 21.6 21.6 0 0 0 10.93 4.81v16.59H108.6a13.59 13.59 0 0 1-11.34-21.06 5 5 0 0 0-1.12-6.7 13.71 13.71 0 0 1 8.35-24.58h.45a4.94 4.94 0 0 0 3.82-1.53 5 5 0 0 0 1.29-4c0-.5-.08-1-.08-1.46a13 13 0 0 1 25.71-2.31 5 5 0 0 0 5.24 4.09h.83a12.08 12.08 0 0 1 8.49 20.68 5 5 0 0 0-.41 6.64 18.49 18.49 0 0 1 4 11.56 19.78 19.78 0 0 1-9.83 17.22 5 5 0 0 0 4.69 8.8 28.24 28.24 0 0 0 10.76-10.41 30.25 30.25 0 0 0 4.37-15.63 28.4 28.4 0 0 0-3.82-14.35 21.93 21.93 0 0 0 3.84-12.44z" fill="#61d118"/></g></g></svg>