<svg xmlns="http://www.w3.org/2000/svg" width="36" height="36" viewBox="0 0 36 36"><g><g><g><g><path fill="#1da1f2" d="M18 .107c9.94 0 18 8.06 18 18s-8.06 18-18 18-18-8.06-18-18 8.06-18 18-18z"/></g></g><g><g><path fill="#fff" d="M13.824 27.25c8.489 0 13.136-7.033 13.136-13.135 0-.198 0-.4-.014-.598a9.384 9.384 0 0 0 2.304-2.39 9.17 9.17 0 0 1-2.65.727A4.628 4.628 0 0 0 28.63 9.3a9.237 9.237 0 0 1-2.93 1.12 4.623 4.623 0 0 0-6.53-.202 4.623 4.623 0 0 0-1.336 4.41A13.113 13.113 0 0 1 8.32 9.805a4.62 4.62 0 0 0 1.429 6.164 4.592 4.592 0 0 1-2.095-.576v.057a4.617 4.617 0 0 0 3.704 4.525 4.634 4.634 0 0 1-2.084.08 4.627 4.627 0 0 0 4.312 3.207 9.248 9.248 0 0 1-6.829 1.912 13.005 13.005 0 0 0 7.067 2.073"/></g><g/></g></g></g></svg>