<svg xmlns="http://www.w3.org/2000/svg" width="35" height="34" viewBox="0 0 35 34"><g><g><g><g><g><path fill="#4fb69c" d="M1.036 33.525H7.34a.55.55 0 0 0 .546-.555V11.466a.551.551 0 0 0-.546-.556H1.036a.551.551 0 0 0-.546.556V32.97a.55.55 0 0 0 .546.555zm33.516-12.968c0-6.945-3.649-10.178-8.515-10.178-3.93 0-5.683 2.199-6.666 3.736v.075h-.049c.013-.025.035-.049.05-.075v-2.649a.551.551 0 0 0-.547-.556h-6.29a.548.548 0 0 0-.545.562c.065 3.506 0 18.423-.013 21.498a.549.549 0 0 0 .546.555h6.3a.551.551 0 0 0 .548-.555V20.895c0-.679.05-1.35.245-1.833.535-1.352 1.75-2.749 3.793-2.749 2.679 0 3.746 2.074 3.746 5.113V32.97a.55.55 0 0 0 .547.555h6.304a.55.55 0 0 0 .546-.555V20.557z"/></g></g></g><g><g><path fill="#4fb69c" d="M0 4.55a4.025 4.025 0 1 1 8.049 0 4.025 4.025 0 0 1-8.05 0z"/></g></g></g></g></svg>