<svg xmlns="http://www.w3.org/2000/svg" width="33" height="34" viewBox="0 0 33 34"><g><g><path fill="#4fb69c" d="M29.887 10.605a6.827 6.827 0 0 0-6.827-6.826H9.94a6.827 6.827 0 0 0-6.826 6.826v13.12a6.827 6.827 0 0 0 6.827 6.827H23.06a6.827 6.827 0 0 0 6.827-6.827zm3.114 13.12c0 5.49-4.45 9.94-9.941 9.94H9.94c-5.488 0-9.94-4.45-9.94-9.94v-13.12C0 5.115 4.453.665 9.94.665h13.12c5.49 0 9.94 4.45 9.94 9.94zm-11.224-6.347a5.226 5.226 0 0 0-5.22-5.22 5.226 5.226 0 0 0-5.221 5.22 5.226 5.226 0 0 0 5.22 5.22 5.226 5.226 0 0 0 5.22-5.22zm2.93 0c0 4.494-3.656 8.15-8.15 8.15s-8.15-3.656-8.15-8.15 3.656-8.15 8.15-8.15 8.15 3.656 8.15 8.15zm2.415-8.697a1.94 1.94 0 1 1-3.88-.002 1.94 1.94 0 0 1 3.88.002z"/></g></g></svg>