<svg xmlns="http://www.w3.org/2000/svg" width="28" height="28" viewBox="0 0 28 28"><g><g><g><g><g><path fill="#4fb69c" d="M13.9 22.599a.779.779 0 0 0-.779.778v3.529a.779.779 0 0 0 1.558 0v-3.529a.779.779 0 0 0-.779-.778z"/></g></g></g><g><g><g><path fill="#4fb69c" d="M13.9-.116a.779.779 0 0 0-.779.779V4.19a.779.779 0 0 0 1.558 0V.663a.779.779 0 0 0-.779-.779z"/></g></g></g><g><g><g><path fill="#4fb69c" d="M9.493 21.418a.779.779 0 0 0-1.064.285l-1.764 3.055a.779.779 0 1 0 1.349.779l1.764-3.055a.779.779 0 0 0-.285-1.064z"/></g></g></g><g><g><g><path fill="#4fb69c" d="M20.85 1.746a.779.779 0 0 0-1.064.285l-1.764 3.056a.779.779 0 1 0 1.35.779l1.763-3.056a.779.779 0 0 0-.285-1.064z"/></g></g></g><g><g><g><path fill="#4fb69c" d="M6.266 18.191a.779.779 0 0 0-1.063-.285L2.147 19.67a.779.779 0 1 0 .779 1.35l3.055-1.765a.779.779 0 0 0 .285-1.064z"/></g></g></g><g><g><g><path fill="#4fb69c" d="M25.938 6.834a.779.779 0 0 0-1.064-.285L21.82 8.313a.779.779 0 1 0 .779 1.349l3.055-1.764a.779.779 0 0 0 .285-1.064z"/></g></g></g><g><g><g><path fill="#4fb69c" d="M4.307 13.005H.779a.779.779 0 0 0 0 1.558h3.528a.779.779 0 0 0 0-1.558z"/></g></g></g><g><g><g><path fill="#4fb69c" d="M27.021 13.005h-3.528a.779.779 0 0 0 0 1.558h3.528a.779.779 0 0 0 0-1.558z"/></g></g></g><g><g><g><path fill="#4fb69c" d="M5.981 8.313L2.926 6.55a.779.779 0 1 0-.779 1.349l3.056 1.764a.775.775 0 0 0 1.063-.285.779.779 0 0 0-.285-1.064z"/></g></g></g><g><g><g><path fill="#4fb69c" d="M25.653 19.67l-3.055-1.764a.779.779 0 1 0-.78 1.35l3.056 1.763a.778.778 0 0 0 .779-1.349z"/></g></g></g><g><g><g><path fill="#4fb69c" d="M9.778 5.087L8.014 2.03a.779.779 0 1 0-1.349.78l1.764 3.055a.778.778 0 1 0 1.349-.78z"/></g></g></g><g><g><g><path fill="#4fb69c" d="M21.135 24.758l-1.764-3.055a.779.779 0 0 0-1.349.779l1.764 3.055a.778.778 0 1 0 1.35-.779z"/></g></g></g><g><g><g><path fill="#4fb69c" d="M13.9-.116a.779.779 0 0 0-.779.779V4.19a.779.779 0 0 0 1.558 0V.663a.779.779 0 0 0-.779-.779z"/></g></g></g><g><g><g><path fill="#4fb69c" d="M13.9 22.599a.779.779 0 0 0-.779.778v3.529a.779.779 0 0 0 1.558 0v-3.529a.779.779 0 0 0-.779-.778z"/></g></g></g></g></g></svg>