<svg xmlns="http://www.w3.org/2000/svg" width="33" height="28" viewBox="0 0 33 28"><g><g><path fill="#4fb69c" d="M32.875 3.258c-1.048.475-2.201.762-3.333.952.537-.09 1.329-1.062 1.645-1.455.483-.6.884-1.284 1.11-2.021.03-.058.051-.13-.007-.175-.072-.029-.118-.014-.176.015a17.008 17.008 0 0 1-3.96 1.516c-.115.029-.2 0-.273-.073-.115-.13-.223-.252-.346-.354A7.007 7.007 0 0 0 25.617.488a6.678 6.678 0 0 0-2.942-.474 7.031 7.031 0 0 0-2.79.788 7.19 7.19 0 0 0-2.252 1.84 6.922 6.922 0 0 0-1.345 2.692c-.232.949-.213 1.886-.07 2.844.02.159.006.18-.138.159-5.439-.81-9.946-2.756-13.606-6.926-.159-.18-.245-.18-.375.015-1.601 2.4-.824 6.256 1.176 8.151.267.252.54.505.836.736-.108.023-1.439-.122-2.625-.736-.16-.1-.239-.042-.253.137-.015.26.008.5.043.78.307 2.433 1.993 4.684 4.3 5.561.274.116.577.217.872.267-.526.115-1.067.198-2.574.08-.188-.036-.26.058-.188.239 1.133 3.088 3.579 4.006 5.41 4.53.245.042.491.042.737.1-.015.022-.03.022-.043.044-.608.926-2.715 1.615-3.695 1.958-1.785.624-3.727.904-5.613.718-.301-.044-.365-.041-.447 0-.082.051-.01.124.088.201.382.254.771.478 1.168.693a18.565 18.565 0 0 0 3.75 1.501c6.742 1.861 14.336.494 19.398-4.535 3.974-3.95 5.367-9.396 5.367-14.848 0-.214.253-.332.403-.444 1.034-.777 1.856-1.708 2.628-2.746.173-.234.162-.441.162-.526v-.03c0-.086.01-.06-.124 0z"/></g></g></svg>