<svg version="1.0" xmlns="http://www.w3.org/2000/svg" viewBox="0 0 344.892 71.05"><path fill="#AC262B" d="M161.194 71.05c-9.279 0-15.139-1.765-15.152-3.177-.003-.235.158-.46.493-.667l.067-.04c.542-.31 1.464-.589 2.656-.828l.273-.052c.64-.121 1.353-.231 2.12-.33 2.46-.312 5.488-.5 8.579-.529l.143.214.435.645.304.446.304-.446.434-.644.143-.214c3.107.034 6.156.228 8.632.547a36.9 36.9 0 012.411.39c1.199.242 2.124.524 2.665.84l.003.001c.313.184.487.382.53.59.296 1.423-5.589 3.254-15.04 3.254z"/><path fill="#AC262B" d="M176.234 66.286v1.587h-30.195v-1.587h14.769l.304.446.304-.446h14.818z"/><path fill="#BD242B" d="M176.234 66.429c-.049.264-.23.524-.533.775-.282.232-.67.457-1.156.67-2.354 1.029-7.034 1.778-13.297 1.778s-10.988-.75-13.404-1.779c-.525-.223-.943-.46-1.242-.707-.347-.285-.536-.58-.556-.88-.02-.308.14-.619.489-.926 1.53-1.341 6.514-2.27 12.002-2.49a325.315 325.315 0 001.275 1.932l.418.625.143.214.435.645.304.446.304-.446.434-.644.143-.214.416-.623.451-.68c.252-.38.527-.798.823-1.25 5.45.23 10.424 1.154 12.02 2.485.426.355.597.715.53 1.069z"/><path fill="#FFF" d="M173.036 66.365c-.065.578-1.364 1.12-3.55 1.508-2.047.365-4.874.595-8.192.595-3.318 0-6.177-.23-8.275-.595-2.271-.394-3.652-.946-3.761-1.535a.355.355 0 01-.007-.052.513.513 0 01.139-.36c.807-.97 5.06-1.677 9.97-1.807l.452.683.418.625.143.214.435.645.304.446.304-.446.434-.644.143-.214.416-.623.451-.68c4.832.146 9.064.845 9.99 1.801.116.12.178.24.187.36a.37.37 0 010 .079z"/><path fill="#BD242B" d="M161.258 67.836c-5.698 0-9.9-.723-9.852-1.55a.292.292 0 01.052-.146.702.702 0 01.193-.183c.912-.622 4.254-1.076 8.161-1.155l.418.625.143.214.435.645.304.446.304-.446.434-.644.143-.214.416-.623c3.898.088 7.264.547 8.216 1.17a.82.82 0 01.19.165c.04.049.064.098.074.146.165.827-3.933 1.55-9.63 1.55z"/><path fill="#BD242B" d="M161.232 66.965c-4.194 0-7.474-.31-7.419-.68 0-.005.003-.01.005-.016.141-.335 3.011-.598 6.555-.628l.435.645.304.446.304-.446.434-.644c3.513.034 6.401.295 6.624.627a.081.081 0 01.009.017c.145.368-3.058.679-7.251.679zm21.548-45.291v.118l-.001.07-.002.095-.004.111-.004.088a11.257 11.257 0 01-.04.578l-.01.113-.017.164-.012.103a17.34 17.34 0 01-.037.29l-.025.178a11.527 11.527 0 01-.043.274 16.01 16.01 0 01-.073.42l-.017.09a18.539 18.539 0 01-.098.484 23.125 23.125 0 01-.147.645l-.049.199-.038.151c-.051.2-.105.4-.161.604l-.044.158-.054.187a17.895 17.895 0 01-.11.377c-.02.063-.04.126-.058.19l-.06.191a39.639 39.639 0 01-.251.777l-.066.197a51.304 51.304 0 01-.735 2.024l-.081.208a81.06 81.06 0 01-.383.96 72.71 72.71 0 01-.766 1.81c-.047.11-.095.218-.143.327l-.182.408-.163.362a103.781 103.781 0 01-.878 1.883l-.165.346-.016.033-.184.379-.186.38c-.054.113-.11.225-.165.337a433.034 433.034 0 01-.404.809l-.396.782-.19.368a136.64 136.64 0 01-.882 1.69l-.24.452a36.67 36.67 0 01-.244.456l-.123.229a196.48 196.48 0 01-1.622 2.945l-.18.32c-.29.513-.58 1.023-.87 1.529l-.214.371a220.368 220.368 0 01-.855 1.47l-.036.062-.177.3-.202.344-.646 1.087-.21.352-.023.038-.373.62-.023.04-.416.685-.298.491-.243.398-.12.197a160.735 160.735 0 01-.557.903l-.199.321a217.189 217.189 0 01-.872 1.399c-.22.353-.438.698-.652 1.035l-.09.144-.181.285-.267.42-.174.273c-.03.046-.059.09-.087.136l-.85 1.323-.137.21c-.418.647-.805 1.239-1.154 1.77l-.124.188-.063.096-.11.167-.073.11-.028.043a38.436 38.436 0 01-.11.166c-.012.02-.025.037-.037.056a188.544 188.544 0 01-1.156 1.728l-.283.416-.005.007-.009.013-.103-.15-.025-.038-.016-.023-.032-.047a14.799 14.799 0 00-.09-.134l-.031-.045a172.473 172.473 0 01-.464-.689l-.011-.017-.051-.076-.053-.08-.055-.081-.241-.362-.081-.121-.305-.46-.044-.066-.027-.041-.061-.093-.083-.126-.206-.312-.09-.138-.502-.767-.086-.132-.238-.365-.176-.271a309.228 309.228 0 01-1.468-2.288l-.22-.347-.125-.196c-.14-.22-.28-.444-.424-.672-6.417-10.193-16.365-27.307-16.365-35.416C139.434 9.704 149.137 0 161.107 0c11.891 0 21.545 9.576 21.672 21.437v.006l.002.23z"/><path fill="#AC262B" d="M182.78 21.674v.118l-.001.07-.002.095-.004.111-.004.088a11.257 11.257 0 01-.04.578l-.01.113-.017.164-.012.103a17.34 17.34 0 01-.037.29l-.025.178a11.527 11.527 0 01-.043.274 16.01 16.01 0 01-.073.42l-.017.09a18.539 18.539 0 01-.098.484 23.125 23.125 0 01-.147.645l-.049.199-.038.151c-.051.2-.105.4-.161.604l-.044.158-.054.187a17.895 17.895 0 01-.11.377c-.02.063-.04.126-.058.19l-.06.191a39.639 39.639 0 01-.251.777l-.066.197a51.304 51.304 0 01-.735 2.024l-.081.208a81.06 81.06 0 01-.383.96 72.71 72.71 0 01-.766 1.81c-.047.11-.095.218-.143.327l-.182.408-.163.362a103.781 103.781 0 01-.878 1.883l-.165.346-.016.033-.184.379-.186.38c-.054.113-.11.225-.165.337a433.034 433.034 0 01-.404.809l-.396.782-.19.368a136.64 136.64 0 01-.882 1.69l-.24.452a36.67 36.67 0 01-.244.456l-.123.229a196.48 196.48 0 01-1.622 2.945l-.18.32c-.29.513-.58 1.023-.87 1.529l-.214.371a220.368 220.368 0 01-.855 1.47l-.036.062-.177.3-.202.344-.646 1.087-.21.352-.023.038-.373.62-.023.04-.416.685-.298.491-.243.398-.12.197-.334.542-.223.361-.199.321a304.13 304.13 0 01-.69 1.108c-.06.097-.12.195-.182.291-.22.353-.438.698-.652 1.035l-.09.144-.181.285-.267.42-.174.273c-.03.046-.059.09-.087.136l-.85 1.323-.137.21c-.418.647-.805 1.239-1.154 1.77l-.124.188-.063.096-.11.167-.073.11c-.01.015-.019.03-.029.043a38.436 38.436 0 01-.146.222 188.544 188.544 0 01-1.156 1.728l-.283.416-.005.007-.009.013-.103-.15-.025-.038-.016-.023-.032-.047a14.799 14.799 0 00-.09-.134l-.031-.045a172.473 172.473 0 01-.464-.689l-.011-.017-.051-.076-.053-.08-.055-.081-.241-.362-.081-.121-.305-.46a5.598 5.598 0 00-.044-.066l-.027-.041-.061-.093-.083-.126-.206-.312-.09-.138-.502-.767-.086-.132-.238-.365-.176-.271a309.228 309.228 0 01-1.468-2.288l-.22-.347-.125-.196c-.14-.22-.28-.444-.424-.672.087-.068.176-.148.26-.218 2.247-2.078 4.392-4.256 6.457-6.47 6.461-6.928 12.528-12.4 16.63-20.94a52.621 52.621 0 003.55-9.652c.045.537.076 1.08.083 1.627v.006l.002.23z"/><path fill="#FFF" d="M173.356 16.442a13.457 13.457 0 00-2.845-4.23 13.46 13.46 0 00-4.23-2.846 12.918 12.918 0 00-5.174-1.05c-1.223 0-2.403.16-3.538.478-1.135.32-2.194.768-3.178 1.344a13.274 13.274 0 00-2.687 2.075 13.274 13.274 0 00-2.075 2.686 13.493 13.493 0 00-1.343 3.18 13.018 13.018 0 00-.479 3.537c0 1.224.16 2.403.479 3.538a13.5 13.5 0 001.343 3.179c.576.984 1.268 1.88 2.075 2.686a13.273 13.273 0 002.687 2.075 13.491 13.491 0 003.178 1.343 13 13 0 003.538.48 13 13 0 003.538-.48 13.499 13.499 0 003.179-1.343 13.275 13.275 0 004.761-4.761 13.5 13.5 0 001.343-3.18 13 13 0 00.48-3.537c0-1.827-.35-3.551-1.052-5.174zm-5.617 10.444a.47.47 0 01-.133.346.47.47 0 01-.346.133h-3.516a.467.467 0 01-.345-.133.467.467 0 01-.133-.346v-5.235h-4.034v5.235a.468.468 0 01-.133.346.466.466 0 01-.345.133h-3.524a.436.436 0 01-.32-.133.466.466 0 01-.132-.346v-8.539c0-.16.053-.283.16-.372l5.907-4.735c.213-.142.409-.142.586 0l6.121 4.735a.43.43 0 01.187.372v8.539z"/><path d="M220.733 22.02v34.405h-6.478V42.22H197.94v14.204h-6.478V22.02h6.478v14.155h16.315V22.02h6.478zm7.652 15.523a11.867 11.867 0 014.583-4.547c1.951-1.095 4.159-1.643 6.622-1.643s4.67.548 6.622 1.643a11.869 11.869 0 014.582 4.547c1.104 1.935 1.656 4.127 1.656 6.574s-.552 4.638-1.656 6.574a11.861 11.861 0 01-4.582 4.546c-1.952 1.096-4.16 1.644-6.622 1.644-2.463 0-4.67-.548-6.622-1.644a11.86 11.86 0 01-4.583-4.546c-1.103-1.936-1.655-4.127-1.655-6.574s.552-4.639 1.655-6.574zm5.327 10.029a6.152 6.152 0 002.411 2.399c1.032.576 2.187.864 3.467.864 1.296 0 2.455-.288 3.479-.864a6.177 6.177 0 002.4-2.4c.575-1.023.863-2.174.863-3.454 0-1.28-.288-2.431-.864-3.455a6.159 6.159 0 00-2.411-2.4c-1.032-.575-2.188-.863-3.467-.863-1.296 0-2.456.288-3.479.864a6.179 6.179 0 00-2.4 2.399c-.575 1.024-.863 2.175-.863 3.455 0 1.28.288 2.431.864 3.455zm55.494-15.044c1.2.8 2.112 1.924 2.735 3.371.624 1.448.936 3.14.936 5.075v15.45h-6.142V41.31c0-1.44-.296-2.472-.888-3.095-.592-.624-1.431-.936-2.519-.936-.912 0-1.808.216-2.687.648-.88.431-1.648 1.096-2.303 1.991.015.224.024.576.024 1.056v15.45h-6.119V41.31c0-2.688-1.143-4.031-3.43-4.031-.896 0-1.788.22-2.676.66-.887.44-1.675 1.115-2.363 2.027v16.459h-6.118V31.76h3.887c.816 0 1.387.224 1.715.671.328.448.5 1.04.516 1.776.944-.88 1.983-1.58 3.12-2.1 1.135-.52 2.278-.78 3.43-.78 1.584 0 2.959.353 4.127 1.056 1.167.704 2.079 1.696 2.735 2.975a12.368 12.368 0 013.527-2.903c1.36-.751 2.735-1.127 4.127-1.127 1.71 0 3.167.4 4.366 1.2zm33.025 12.896c-.472.552-1.083.828-1.835.828h-16.051c.4 1.456 1.18 2.612 2.34 3.467 1.159.856 2.546 1.284 4.162 1.284.943 0 1.991-.28 3.143-.84.608-.288 1.2-.432 1.775-.432s1.124.136 1.644.408c.52.272.955.68 1.307 1.223l1.224 1.848c-1.056 1.12-2.395 2.012-4.019 2.675a13.287 13.287 0 01-5.074.996c-2.463 0-4.67-.548-6.622-1.644a11.86 11.86 0 01-4.583-4.546c-1.103-1.936-1.655-4.127-1.655-6.574 0-2.415.548-4.595 1.643-6.538a11.887 11.887 0 014.547-4.57c1.935-1.104 4.11-1.656 6.526-1.656 2.319 0 4.394.508 6.226 1.523a11.17 11.17 0 014.33 4.27c1.056 1.833 1.608 3.916 1.656 6.251.016.8-.212 1.475-.684 2.027zm-5.674-3.827c-.4-1.343-1.124-2.407-2.171-3.19-1.048-.784-2.276-1.176-3.683-1.176-1.68 0-3.103.48-4.27 1.44-1.168.96-1.912 2.247-2.232 3.862h.072c.48-.624 1.191-.936 2.135-.936h10.15zm12.463 14.336a14 14 0 01-4.09-2.58l.984-1.966c.272-.48.64-.86 1.104-1.14a2.96 2.96 0 011.56-.42c.399 0 .799.072 1.199.216l.72.288c.783.32 1.463.572 2.039.755a5.951 5.951 0 001.823.276c.912 0 1.628-.195 2.148-.587.52-.392.78-.956.78-1.692 0-.528-.249-1-.744-1.415-.496-.416-1.32-.84-2.472-1.272-1.967-.704-3.49-1.424-4.57-2.16-1.08-.735-1.832-1.543-2.256-2.422-.424-.88-.635-1.936-.635-3.167 0-1.456.324-2.736.971-3.84.648-1.103 1.58-1.955 2.796-2.554 1.215-.6 2.646-.9 4.294-.9 1.344 0 2.703.232 4.079.695 1.375.465 2.543 1.136 3.503 2.016l-1.008 2.063c-.24.496-.592.884-1.056 1.164-.464.28-.975.42-1.535.42-.288 0-.632-.056-1.032-.168a9.254 9.254 0 01-.816-.264 30.257 30.257 0 00-1.055-.312 3.08 3.08 0 00-.792-.096c-.736 0-1.3.152-1.691.456-.393.304-.588.752-.588 1.343 0 .48.216.892.648 1.236.431.344 1.223.708 2.375 1.092 2.607.863 4.546 1.907 5.818 3.13s1.907 2.828 1.907 4.811c0 1.552-.388 2.927-1.163 4.127-.776 1.2-1.872 2.135-3.287 2.807-1.416.672-3.051 1.008-4.907 1.008-1.84 0-3.523-.316-5.05-.948zm-293.2.492h-4.63c-.768 0-1.46-.204-2.076-.612-.616-.408-1.075-.98-1.38-1.716l-2.039-4.726H10.148L8.11 54.097c-.32.737-.788 1.308-1.404 1.716a3.675 3.675 0 01-2.075.612H0l15.043-34.43h5.734l15.043 34.43zm-12.5-12.476l-4.318-9.981c-.352-.832-.6-1.56-.744-2.184a9.178 9.178 0 01-.216-2.063h-.24a10.262 10.262 0 01-.24 2.088c-.144.623-.392 1.343-.744 2.159l-4.318 9.98h10.82zM57.93 32.96c1.639 1.088 2.914 2.6 3.826 4.535.912 1.935 1.368 4.119 1.368 6.55 0 2.447-.5 4.639-1.5 6.574-1 1.935-2.387 3.45-4.163 4.546-1.775 1.096-3.79 1.644-6.046 1.644-1.2 0-2.323-.236-3.37-.708a9.812 9.812 0 01-2.796-1.883v10.844h-6.118V31.761h3.887c.847 0 1.431.252 1.751.755.32.504.48 1.156.48 1.956v.024a10.771 10.771 0 013.167-2.316c1.184-.567 2.487-.851 3.911-.851 2.095 0 3.962.544 5.602 1.631zm-3.972 17.01c.96-.575 1.708-1.379 2.244-2.41.535-1.032.803-2.187.803-3.467 0-1.28-.263-2.42-.791-3.42a5.847 5.847 0 00-2.196-2.338c-.935-.56-1.987-.84-3.155-.84-2.11 0-3.982 1.04-5.614 3.119v7.701c.512.624 1.272 1.2 2.28 1.728s2.07.792 3.19.792c1.2 0 2.28-.288 3.24-.864zm32.63-15.954c1.695 1.775 2.543 4.383 2.543 7.821V56.45H85.7c-.848 0-1.504-.292-1.967-.876-.464-.584-.712-1.323-.744-2.22a13.066 13.066 0 01-3.611 2.58c-1.32.632-2.747.948-4.283.948-1.455 0-2.803-.332-4.042-.996a7.837 7.837 0 01-2.963-2.723 6.86 6.86 0 01-1.104-3.767c0-2.415.82-4.302 2.46-5.662 1.638-1.36 4.05-2.04 7.233-2.04.751 0 1.763.065 3.035.192 1.271.129 2.363.312 3.275.552 0-1.871-.372-3.235-1.116-4.09-.744-.856-1.907-1.284-3.49-1.284-.849 0-1.616.068-2.304.204-.688.136-1.464.38-2.327.732-.48.176-.936.264-1.368.264a3.189 3.189 0 01-1.631-.432 2.933 2.933 0 01-1.152-1.224l-.936-1.967c.688-.656 1.624-1.232 2.807-1.728a20.083 20.083 0 013.803-1.151c1.352-.272 2.627-.408 3.827-.408 3.295 0 5.79.888 7.486 2.663zM79.93 50.895a13.866 13.866 0 003.059-1.836v-2.59c-1.552-.4-3.335-.6-5.35-.6-1.616 0-2.82.231-3.611.695-.792.464-1.188 1.256-1.188 2.375 0 .848.336 1.508 1.008 1.98.672.472 1.551.707 2.639.707a8.481 8.481 0 003.443-.731zm30.986-19.326c.64.16 1.32.383 2.04.672l-.576 2.71c-.16.753-.504 1.356-1.032 1.812s-1.144.684-1.848.684c-.112 0-.28-.016-.503-.048-.512-.08-1.056-.12-1.632-.12-1.104 0-2.087.308-2.95.923-.865.616-1.584 1.46-2.16 2.532v15.69h-6.118V31.762h3.43c.992 0 1.688.272 2.088.815.4.544.6 1.232.6 2.064v.048c.815-1.04 1.763-1.86 2.843-2.46 1.08-.6 2.259-.9 3.539-.9.88 0 1.64.081 2.279.24zm23.752 22.553c-2.815 1.84-5.646 2.759-8.493 2.759-1.568 0-2.94-.328-4.115-.984-1.176-.656-2.084-1.6-2.723-2.831-.64-1.231-.96-2.687-.96-4.367V37.471h-4.175v-3.743c0-.624.204-1.107.612-1.452.408-.343.86-.515 1.356-.515h2.207l.24-5.95c.048-.704.252-1.288.612-1.752.36-.464.924-.696 1.691-.696h3.623v8.398h6.718v5.71h-6.718v9.98c0 1.152.288 2.032.864 2.64.576.608 1.335.912 2.28.912.415 0 .819-.064 1.21-.192a9.275 9.275 0 001.26-.528 3.116 3.116 0 011.368-.312c.512 0 .963.128 1.356.384.391.256.667.608.827 1.055l.96 2.712z" fill="#2C2C2C"/></svg>