<svg xmlns="http://www.w3.org/2000/svg" id="Layer_1" x="0" y="0" viewBox="0 0 532 532" xml:space="preserve"><style>.st0{fill:#2c2c2c;stroke:#2c2c2c;stroke-width:10;stroke-miterlimit:10}</style><path class="st0" d="M456.3 508L389 362.9c-1.3-2.9-3.7-5.1-6.5-6.3L349 341.4l58-99.1c.1-.2.3-.5.4-.7 11.5-22.9 17.4-47.7 17.4-73.7 0-43.7-16.8-84.6-47.3-115.2C347 22 306.6 5.4 263.7 6c-41.6.6-80.8 17.6-110.4 48-29.5 30.4-46 70.4-46.2 112.9-.2 25.9 5.9 51.7 17.4 74.7.1.2.3.5.4.7l58 99.1-33.7 15.3c-2.8 1.2-5 3.5-6.3 6.2L75.7 508c-2.3 4.9-1.3 10.6 2.4 14.5 3.7 3.8 9.3 4.9 14.1 2.8l84.3-38.3 84.3 38.3c3.3 1.5 7 1.5 10.2 0l84.3-38.3 84.3 38.3c1.6.7 3.4 1.1 5.1 1.1 3.3 0 6.6-1.3 9-3.9 3.9-3.9 4.8-9.7 2.6-14.5zM146.8 229.5c-9.7-19.4-14.6-40.4-14.4-62.4.4-73.6 59.5-134.3 131.7-135.3 36.1-.5 70.1 13.4 95.7 39.2 25.7 25.8 39.8 60.2 39.8 97 0 21.7-4.9 42.4-14.4 61.6l-108.4 185c-3.3 5.6-8.7 6.3-10.8 6.3-2.2 0-7.5-.6-10.8-6.3L146.8 229.5zm213.8 231.6c-3.3-1.5-7-1.5-10.2 0L266 499.4l-84.3-38.3c-3.3-1.5-7-1.5-10.2 0L113 487.6l50.8-109.5 32.2-14.6 37.6 64.2c6.9 11.8 19 18.8 32.5 18.8s25.6-7 32.5-18.8l37.6-64.2 32.2 14.6L419 487.6l-58.4-26.5z"/><path class="st0" d="M266 109.3c-31.7 0-57.5 26.3-57.5 58.6s25.8 58.6 57.5 58.6 57.5-26.3 57.5-58.6-25.8-58.6-57.5-58.6zm0 91.5c-17.8 0-32.3-14.8-32.3-32.9 0-18.1 14.5-32.9 32.3-32.9 17.8 0 32.3 14.8 32.3 32.9s-14.5 32.9-32.3 32.9z"/></svg>