<svg xmlns="http://www.w3.org/2000/svg" viewBox="0 0 518 518"><style>.st1{stroke:#000;stroke-width:6;stroke-miterlimit:10}</style><path d="M422.4 216.6c-.7-16.5-13.9-32.2-31.5-31.5-9.6.4-19.1.7-28.7 1-1.1-6.3-3.8-12.4-8.6-16.8-5.7-5.2-14.2-10.3-22.3-9.2-3 .4-6 .5-9 .4-5.2-1.3-10.1-3.3-15.3-5.1-2.9-1-5.9-1.8-9-2.3-8.8-1.4-14.4-1.1-23.4.1-5.5.7-11.4 5.2-15.5 10-.5-.4-1-.7-1.5-1.1-10.1-6.7-22.3-7.8-34.1-8.4-18.7-.9-37.9 1.5-55.9 6.4-10.5 2.9-19.1 11.9-22.1 22.3-6.7-.4-13.4-.9-20-1.4-16.5-1.2-32.2 15.3-31.5 31.5.8 18.1 13.9 30.2 31.5 31.5 32.3 2.3 64.7 4 97.1 5 0 .7-.1 1.4-.1 2.1l-2.2 41.7c-.3 6.3 1.8 12.5 5.5 17.7-.3 1.8-.5 3.7-.5 5.7v37.7c0 16.5 14.5 32.3 31.5 31.5 17.1-.8 31.5-13.8 31.5-31.5v-37.7c0-6.3-2.1-12.5-5.7-17.7.4-1.8.6-3.7.7-5.7.3-6.4.7-12.9 1-19.3.1 0 .3-.1.4-.1 7.3-2 15.2-7.7 18.8-14.5 1.5-2.8 2.6-5.8 3.2-8.9 8.6 0 17.2-.1 25.7-.3 19.5-.3 39-.9 58.4-1.7 16.5-.6 32.4-13.9 31.6-31.4zm-163.2 22c-12.3 0-21.4-10-21.9-21.9-.5-11.8 10.5-21.9 21.9-21.9 12.3 0 21.4 10 21.9 21.9.6 11.8-10.4 21.9-21.9 21.9z" fill="#bd242b" id="Layer_1__x28_копия_x29_"/><g id="Layer_1__x28_копия2_x29_"><g id="XMLID_6_"><g id="XMLID_7_"><path class="st1" d="M259 184.7c-17.8 0-32.3 14.5-32.3 32.3s14.5 32.3 32.3 32.3 32.3-14.5 32.3-32.3c0-17.8-14.5-32.3-32.3-32.3zm.2 53.9c-12.3 0-21.4-10-21.9-21.9-.5-11.8 10.5-21.9 21.9-21.9 12.3 0 21.4 10 21.9 21.9.6 11.8-10.4 21.9-21.9 21.9z"/><path id="XMLID_9_" class="st1" d="M514.2 363.4l-16.4-39.3 8.9-13.6c7.4-11.3 9.6-25.2 6-38.2l-8.3-30.1c-3.6-13.2-12-24.6-23.5-32-1.9-1.2-4-1.7-6.2-1.6C470 110.2 398.5 26.3 301.1 7.1c-5.4-1.1-10.7 2.5-11.7 7.9s2.5 10.7 7.9 11.7C388.6 44.8 455 125.6 455 219c0 2.8-.1 5.5-.2 8.3l-20.9 11.2c.7-6.5 1.1-13 1.1-19.5 0-10.9-1-21.5-2.9-31.8 0-.3-.1-.6-.2-.8C416.6 104.9 344.9 43 259 43S101.3 104.9 86 186.5c-.1.2-.1.5-.1.7C84 197.5 83 208.1 83 219c0 6.5.4 13 1.1 19.5l-20.9-11.2c-.1-2.8-.2-5.5-.2-8.3 0-93.5 66.5-174.4 158-192.3 5.4-1.1 9-6.3 7.9-11.7-1.1-5.4-6.3-9-11.7-7.9C119.7 26.2 48 110.1 43.3 208.7c-2.2-.2-4.4.4-6.2 1.6-11.5 7.5-19.8 18.8-23.5 32l-8.3 30.1c-3.6 13-1.4 26.9 6 38.2l8.9 13.6-16.4 39.2c-2.1 5.1.3 11 5.4 13.1 1.3.5 2.6.8 3.9.8 3.9 0 7.6-2.3 9.2-6.1l15.3-36.5 43.5 9.2-37.8 158.8c-1.3 5.4 2 10.8 7.4 12 .8.2 1.6.3 2.3.3 4.5 0 8.6-3.1 9.7-7.7l34.5-145.2C138 408.1 196.9 435 259 435c34.4 0 68.6-8.3 99-24 23.7-12.2 45.1-29 62.8-48.9l34.5 145.2c1.1 4.6 5.2 7.7 9.7 7.7.8 0 1.5-.1 2.3-.3 5.4-1.3 8.7-6.7 7.4-12L437 343.8l43.5-9.2 15.3 36.5c1.6 3.8 5.3 6.1 9.2 6.1 1.3 0 2.6-.3 3.9-.8 5.1-2 7.5-7.9 5.3-13zM471.7 241c1.5-.8 2.8-2 3.8-3.5l2.3-3.7c3.4 4 5.9 8.7 7.3 13.8l8.3 30.1c2.1 7.4.8 15.4-3.4 21.9l-9.6 14.6-52.2 11-9.2-9.5c-7-7.2-10.8-16.7-10.8-26.7v-24.1c0-3 2-5.5 4.9-6.3l2.4-.6c7.1 4.1 16.1 4.5 23.5.5l32.7-17.5zm-343 16.1h59.4c18.2 0 32.9 14.8 32.9 32.9v80.3c-37.9-9.4-71.1-32.9-93-66.7 1.2-4.7 1.9-9.7 1.9-14.7v-24.1c0-2.6-.5-5.2-1.2-7.7zm59.4-20h-84c-.7-6-1-12.1-1-18.1 0-7.5.5-15 1.6-22.2l101.5-24.5c34.6-8.3 71.2-8.3 105.7 0l101.5 24.5c1 7.3 1.6 14.7 1.6 22.2 0 6.1-.4 12.1-1.1 18.1h-84c-29.2 0-52.9 23.7-52.9 52.9v84c-5.9.7-11.9 1-18 1s-12.1-.4-18-1v-83.9c0-29.2-23.7-53-52.9-53zm108.9 53c0-18.2 14.8-32.9 32.9-32.9h59.4c-.8 2.5-1.2 5.1-1.2 7.8v24c0 5 .6 9.9 1.9 14.7-21.9 33.8-55.1 57.2-93 66.7v-80.3zM259 63c70.8 0 130.7 47.4 149.7 112.1l-92.1-22.2c-37.7-9.1-77.5-9.1-115.1 0l-92.1 22.2C128.3 110.4 188.2 63 259 63zM24.6 277.7l8.3-30.1c1.4-5.1 3.9-9.8 7.3-13.8l2.3 3.7c.9 1.5 2.2 2.7 3.8 3.5l32.8 17.5c7.5 4 16.4 3.6 23.5-.5l2.4.6c2.9.7 4.9 3.3 4.9 6.3V289c0 10-3.8 19.5-10.8 26.7l-9.2 9.5-52.2-11-9.7-14.6c-4.2-6.5-5.5-14.4-3.4-21.9zM259 415c-60.6 0-117.8-28.2-154.8-75.9l9.2-9.5c1.7-1.7 3.2-3.5 4.6-5.4 14.6 19.5 33.2 35.9 54.4 47.9 26.3 14.9 56.3 22.8 86.7 22.8 30.4 0 60.4-7.9 86.7-22.8 21.2-12 39.8-28.4 54.3-47.9 1.4 1.9 3 3.7 4.6 5.4l9.2 9.5c-37 47.6-94.6 75.9-154.9 75.9z"/><path id="XMLID_8_" class="st1" d="M259 23h.2c5.5 0 10-4.5 10-10s-4.5-10-10-10h-.2c-5.5 0-10 4.5-10 10s4.5 10 10 10z"/></g></g></g></svg>