<svg xmlns="http://www.w3.org/2000/svg" width="512" height="512"><path d="M482 193.535V47.826a15 15 0 00-10.879-14.423l-23.443-6.698C385.656 8.985 321.167 0 256 0 190.834 0 126.344 8.985 64.323 26.705L40.88 33.403A15 15 0 0030 47.826v145.707C-.199 347.306 0 343.695 0 347v60c0 19.555 12.541 36.228 30 42.42V497c0 8.284 6.716 15 15 15h422c8.284 0 15-6.716 15-15v-47.58c17.459-6.192 30-22.865 30-42.42v-60c0-4.159-2.358-12.3-30-153.465zM60 59.141l12.564-3.59c120.005-34.287 246.868-34.287 366.872 0L452 59.141V180h-30v-30c0-33.084-26.916-60-60-60h-61c-17.908 0-33.997 7.896-45 20.377C244.997 97.896 228.908 90 211 90h-61c-33.084 0-60 26.916-60 60v30H60V59.141zM392 150v30H271v-30c0-16.542 13.458-30 30-30h61c16.542 0 30 13.458 30 30zm-151 0v30H120v-30c0-16.542 13.458-30 30-30h61c16.542 0 30 13.458 30 30zM57.329 210h397.342l24.079 122H33.25l24.079-122zM452 482H60v-30h392v30zm30-75c0 8.271-6.729 15-15 15H45c-8.271 0-15-6.729-15-15v-45h452v45z" data-original="#000000" class="active-path" data-old_color="#000000" fill="#2C2C2C"/></svg>