<svg xmlns="http://www.w3.org/2000/svg" height="512" width="512"><path d="M472.004 401.969V49.996c0-5.512-4.488-10-10-10h-43.996c-5.516 0-10 4.488-10 10v421.969H492c11.047 0 20 8.953 20 19.996 0 11.047-8.953 20-20 20H20.04c-11.048 0-20-8.953-20-20V348.973c0-27.567 22.429-49.996 49.995-49.996h43.996c27.57 0 49.996 22.43 49.996 49.996v52.996c0 11.047-8.953 20-19.996 20-11.047 0-20-8.953-20-20v-52.996c0-5.512-4.484-10-10-10H50.035c-5.512 0-10 4.488-10 10v122.992h143.992v-261.98c0-27.57 22.426-49.997 49.996-49.997h43.997c27.566 0 49.996 22.426 49.996 49.996V401.97c0 11.047-8.954 20-20 20-11.043 0-20-8.953-20-20V209.984c0-5.515-4.485-10-9.996-10h-43.997c-5.515 0-10 4.485-10 10v261.98h143.989V49.997C368.012 22.43 390.442 0 418.008 0h43.996C489.57 0 512 22.43 512 49.996V401.97c0 11.047-8.953 20-20 20-11.043 0-19.996-8.953-19.996-20zM79.668 178.984H49.887c-4.914 0-9.89-3.09-9.89-8.996 0-11.047-8.954-20-19.997-20-11.047 0-20 8.953-20 20 0 26.856 20.945 48.016 48.016 48.95v11.042c0 11.047 8.953 20 20 20 11.043 0 19.996-8.953 19.996-20v-11.582c27.511-3.843 48.02-26.468 48.02-54.664v-1.75c0-31.425-25.286-56.992-56.364-56.992H61.344c-9.114 0-16.254-6.957-16.254-15.844V87.7c0-8.953 6.988-15.703 16.254-15.703h17.328c5.094 0 10.36 3.406 10.36 9.113 0 11.047 8.956 20 20 20 11.046 0 20-8.953 20-20 0-23.968-17.7-43.964-41.02-48.25V20c0-11.047-8.953-20-19.996-20-11.047 0-20 8.953-20 20v13.547c-9.899 2.336-18.965 7.27-26.317 14.465C10.99 58.492 5.094 72.586 5.094 87.699v1.45c0 15.105 5.883 29.21 16.566 39.722 10.567 10.395 24.66 16.117 39.684 16.117h18.324c8.871 0 16.363 7.785 16.363 16.996v1.75c0 8.696-7.035 15.25-16.363 15.25zm0 0" data-original="#000000" class="active-path" data-old_color="#000000" fill="#2C2C2C"/></svg>