<svg xmlns="http://www.w3.org/2000/svg" viewBox="0 0 56 56"><g data-name="Слой 2"><rect width="56" height="56" rx="19.26" ry="19.26" fill="#efd5de"/><path d="M39.32 23.79a3.43 3.43 0 0 0 .73-2.49c-.22-2.06-1.29-3.31-2.94-4.65a7.4 7.4 0 0 0-2.62-1.31 7.78 7.78 0 0 1-.63 4 5.84 5.84 0 0 0-.52 2.66 3.59 3.59 0 0 0 1.29 2.35 3.36 3.36 0 0 0 4.69-.55zm1.81 1.47a5.83 5.83 0 0 1-.89.9v7.56a1.17 1.17 0 1 1-2.33 0v-6.46a4.09 4.09 0 0 1-.61.1 4.3 4.3 0 0 1-.62 0 5.78 5.78 0 0 1-1.1-.11v11.86a1.18 1.18 0 0 0 .31.84 1.16 1.16 0 0 0 2-.72 1.17 1.17 0 1 1 2.33.12 3.52 3.52 0 0 1-1.15 2.43 3.42 3.42 0 0 1-2.33.9h-.18a3.52 3.52 0 0 1-3.3-3.68v-6.89a5 5 0 0 0-2.39.61 1.24 1.24 0 0 0-.58 1.17 4.66 4.66 0 0 0 .39 1.62 7.59 7.59 0 0 1 .6 2.78 4.56 4.56 0 0 1-1 2.86 4.35 4.35 0 0 1-3.59 1.53 13.67 13.67 0 0 1-10.19-4.42 15.56 15.56 0 0 1-4-10.58A15 15 0 0 1 17 17.07a14.74 14.74 0 0 1 10.53-4.39h1a1.17 1.17 0 0 1-.15 2.34h-.8a12.63 12.63 0 0 0-12.66 12.66c0 7.22 5.08 12.66 11.82 12.66a2.16 2.16 0 0 0 1.78-.66 2.29 2.29 0 0 0 .48-1.39 5.45 5.45 0 0 0-.45-2 6.65 6.65 0 0 1-.55-2.4 3.58 3.58 0 0 1 1.63-3.13 7.32 7.32 0 0 1 3.67-1v-3.53l-.08-.06A5.92 5.92 0 0 1 31 22.29a7.77 7.77 0 0 1 .64-3.75c.51-1.44.92-2.57 0-4.11a1.18 1.18 0 0 1 0-1.18 1.16 1.16 0 0 1 1-.57 10.58 10.58 0 0 1 5.8 2.15 8.91 8.91 0 0 1 3.79 6.22A5.7 5.7 0 0 1 41 25.26zM21.38 35.65a1.74 1.74 0 0 0 1.24-.51 1.78 1.78 0 0 0 .51-1.25 1.75 1.75 0 0 0-3-1.24 1.74 1.74 0 0 0-.51 1.24 1.78 1.78 0 0 0 .51 1.25 1.72 1.72 0 0 0 1.23.51zm1.06-12.47a1.77 1.77 0 0 0 0-2.49 1.75 1.75 0 0 0-2.47 0 1.77 1.77 0 0 0 1.24 3 1.75 1.75 0 0 0 1.23-.52zm3.19-4.06a1.75 1.75 0 1 0 1.75-1.75 1.75 1.75 0 0 0-1.75 1.75zM19 26.33a1.76 1.76 0 1 1-1.74 1.76A1.75 1.75 0 0 1 19 26.33z" fill="#e26d9d"/></g></svg>