<svg xmlns="http://www.w3.org/2000/svg" viewBox="0 0 200 200"><g data-name="Слой 2"><g data-name="Слой 1"><rect width="200" height="200" rx="69.81" fill="#ededed"/><path d="M104.65 65.85A4.65 4.65 0 1 1 100 61.2a4.65 4.65 0 0 1 4.65 4.65zm-50.56 84.34l4.88-7H141l4.88 7zm-4.28-78.71l50.08-21.27 50.3 21.27v4.82H49.81v-4.82zM83 91.64a5.81 5.81 0 0 1 11.62 0v42.28H83V91.64zm-20.91 0a5.81 5.81 0 1 1 11.61 0v42.28H62.13V91.64zM104 133.92V91.64a5.81 5.81 0 1 1 11.62 0v42.28zm54.69 18.25l-11.43-16.27a4.67 4.67 0 0 0-3.81-2h-18.59V91.64a5.81 5.81 0 0 1 11.62 0v23.93a4.65 4.65 0 0 0 9.29 0v-30h9.06a4.65 4.65 0 0 0 4.65-4.57V68.4a4.65 4.65 0 0 0-2.84-4.28l-54.95-23.23a4.64 4.64 0 0 0-3.62 0L43.35 64.12a4.65 4.65 0 0 0-2.83 4.28V81a4.65 4.65 0 0 0 4.65 4.64h7.66v50.19l-.09.12-11.38 16.22a4.64 4.64 0 0 0 3.81 7.31h109.66a4.64 4.64 0 0 0 3.81-7.31z" fill="#9d9d9c"/></g></g></svg>