<svg xmlns="http://www.w3.org/2000/svg" viewBox="0 0 200 200"><g data-name="Слой 2"><g data-name="Слой 1"><rect width="200" height="200" rx="69.81" fill="#d2eff3"/><path d="M165.28 89.42h-8.85a6.39 6.39 0 0 0-4.65 2 21.74 21.74 0 0 1-5-1 13.81 13.81 0 0 0 1.69-1.42 15 15 0 0 0-10.6-25.6h-4.29a41.24 41.24 0 0 0-18.4-18.51V25.45h3.69V18h-45v7.5h3.74v19.6a41.28 41.28 0 0 0-17.94 18.27h-4.31a15 15 0 1 0 0 30H57a40.55 40.55 0 0 0 1.89 5.13l17 40.6H38.66a8 8 0 0 0-7.76 6.31l-1.23 5.89a7.93 7.93 0 0 0 7.76 9.54h123.46a7.93 7.93 0 0 0 7.76-9.55l-1.23-5.88a8 8 0 0 0-7.76-6.31h-42.78l2.8-6.52a70.92 70.92 0 0 0 19.45-3.08l12.39-1.5a6.36 6.36 0 0 0 4.91 2.31h8.85a6.37 6.37 0 0 0 6.37-6.36V95.79a6.38 6.38 0 0 0-6.37-6.37zM55.56 85.88h-.2a7.51 7.51 0 0 1 0-15h1.45a41.14 41.14 0 0 0-1.45 10.84c0 1.39.07 2.78.2 4.16zm106 60.76l1.23 5.89a1.9 1.9 0 0 1-.4 1.61 1.88 1.88 0 0 1-1.49.71H37.43a1.9 1.9 0 0 1-1.5-.71 1.94 1.94 0 0 1-.39-1.61l1.23-5.89a1.93 1.93 0 0 1 1.89-1.53h121a1.94 1.94 0 0 1 1.89 1.53zm4.1-22.74a.37.37 0 0 1-.37.36h-8.85a.37.37 0 0 1-.37-.36V95.79a.37.37 0 0 1 .37-.37h8.85a.38.38 0 0 1 .37.37zm-27.6-.3a2.57 2.57 0 0 0-.38.08 65 65 0 0 1-15.37 2.81c-1.31.08-2.62.13-3.94.13H95.78a2.63 2.63 0 1 1 0-5.26H110a2.18 2.18 0 1 0 0-4.35H86a2.63 2.63 0 0 1 0-5.25h24a2.18 2.18 0 1 0 0-4.35H82a2.71 2.71 0 0 1-2.74-2.53 2.62 2.62 0 0 1 2.62-2.73H110a2.18 2.18 0 1 0 0-4.35H90.57a2.65 2.65 0 0 1-1.89-.8 2.6 2.6 0 0 1-.68-1.93 2.71 2.71 0 0 1 2.74-2.52h30a2.73 2.73 0 0 0 1.42-5.06l-8.71-5.29a2.63 2.63 0 0 1-.89-3.61 2.65 2.65 0 0 1 3.61-.89l14 8.48 8.26 5a9.63 9.63 0 0 1 2.25 1.92l.16.17c1.63 2 3.69 3.21 9.32 4v24.81zm-.18-52.73a7.5 7.5 0 0 1 2.52 14.56l-2.57-1.56c0-.72.05-1.44.05-2.16a41.14 41.14 0 0 0-1.45-10.84zM65.92 95.8l-.09-.22a33.8 33.8 0 0 1 17-44.71l2.23-1V25.45h22.59v24.26l2.27 1a33.73 33.73 0 0 1 20.33 28.6l-11-6.71a8.63 8.63 0 0 0-10 14H90.69A8.77 8.77 0 0 0 82 94.86a9.16 9.16 0 0 0 0 1.29h-.13a8.61 8.61 0 0 0-4.22 16.13A8.63 8.63 0 0 0 86 123h1.2v1a8.64 8.64 0 0 0 8.63 8.63h15.67l-2.5 5.92H83.86zm71.47 82.08a4.9 4.9 0 0 1-4.67 3.31H65.59a4.95 4.95 0 0 1-3.1-8.8l11.36-9.14a3.17 3.17 0 0 1 4.46.49 3.16 3.16 0 0 1-.48 4.46l-8.25 6.63h59.15l-8.22-6.61a3.17 3.17 0 0 1-.48-4.47 3.18 3.18 0 0 1 4.46-.48l11.33 9.12a4.87 4.87 0 0 1 1.57 5.49z" fill="#36a9e1"/></g></g></svg>