<svg xmlns="http://www.w3.org/2000/svg" viewBox="0 0 29.18 25.39"><path d="M28.68 25.39H.5a.5.5 0 0 1-.43-.25.5.5 0 0 1 0-.5l2-3.38a.48.48 0 0 1 .38-.26h24.28a.48.48 0 0 1 .43.25l1.95 3.38a.5.5 0 0 1 0 .5.5.5 0 0 1-.43.25m-27.31-1h26.44L26.44 22H2.74zm6.41-5.76H4.4a.5.5 0 0 1-.4-.24.5.5 0 0 1 0-.5L14.16.23a.51.51 0 0 1 .86 0l1.69 2.93a.5.5 0 0 1 0 .5L8.22 18.38a.52.52 0 0 1-.44.25m-2.51-1H7.5l8.2-14.22-1.11-1.93zm19.46.93H11.21a.52.52 0 0 1-.44-.25.55.55 0 0 1 0-.5l1.92-3.32a.49.49 0 0 1 .43-.25h5.46l-2.73-4.72a.5.5 0 0 1 0-.5l1.69-2.93a.51.51 0 0 1 .86 0l6.77 11.72a.5.5 0 0 1 0 .5.52.52 0 0 1-.44.25m-12.66-1h11.8L18 7.34l-1.14 1.93 3 5.22a.5.5 0 0 1 0 .5.48.48 0 0 1-.43.25h-6z" fill="#1d1d1b" data-name="Слой 2"/></svg>