<svg xmlns="http://www.w3.org/2000/svg" width="481" height="553"><path fill="#ffe9e5" d="M92.926 105.36c36.012-14.376 86.168-12.412 135.628 16.07 11.352 6.537 21.649 14.267 32.013 22.706 10.254 8.35 20.876 16.88 32.483 22.027 25.739 11.414 41.364-2.622 54.077-13.609C409.329 98.798 432.62 1.034 528.49-17.69c38.165-7.454 88.589 2.053 133.628 31.896 47.265 31.317 71.618 78.615 84.31 121.87 6.645 22.648 10.868 44.851 15.2 67.022 4.776 24.43 9.322 48.814 12.493 72.823 3.118 23.611 4.957 46.89 4.338 69.2-.596 21.476-4.54 40.87-9.322 60.26-3.761 15.24-7.19 32.422.184 51.701 9.112 23.821 31.132 40.003 52.849 56.562 10.68 8.144 21.57 16.96 28.64 27.923 5.916 9.177 8.682 18.667 9.269 27.306 1.369 20.145-7.428 34.86-18.608 47.174-12.267 13.51-26.36 25.401-34.564 42.093-1.544.235-2.754 1.14-3.255 2.95-12.275 44.346-29.063 86.137-50.66 124.45-10.741 19.052-22.594 37.298-35.536 54.66-10.16 13.63-20.334 28.211-36.627 36.032-15.596 7.487-37.234 5.552-58.087-12.215-22.586-19.243-35.957-45.507-46.566-68.682-23.008-50.262-36.923-100.044-54.444-149.923-8.597-24.472-17.734-49.399-29.898-74.003-12.418-25.116-30.148-46.713-56.055-63.764-43.828-28.845-93.56-45.313-138.567-59.306-45.061-14.01-90.012-25.596-135.373-43.247-43.974-17.11-93.18-42.128-129.482-79.305C10.614 303.52.924 280.67.374 257.714c-.562-23.47 4.044-45.27 11.178-64.853 14.186-38.947 41.45-71.564 81.374-87.502z"/></svg>