<svg xmlns="http://www.w3.org/2000/svg" viewBox="0 0 18.26 10.49"><g data-name="Слой 2"><path data-name="&lt;Составной контур&gt;" d="M4 1.08a13.87 13.87 0 0 0 2 3.51 1.6 1.6 0 0 0 .42.41.3.3 0 0 0 .51-.15 4.29 4.29 0 0 0 .19-1.07V1.87a.94.94 0 0 0-.87-1C6 .8 6 .63 6.11.46A1.33 1.33 0 0 1 7.21 0h2.06a4 4 0 0 1 .84.08.76.76 0 0 1 .61.68 3.52 3.52 0 0 1 0 .56c0 .78-.06 1.57-.06 2.36a3.58 3.58 0 0 0 .08.92c.09.42.38.53.67.22a9.29 9.29 0 0 0 1-1.25A12 12 0 0 0 13.78 1c.19-.46.33-.56.83-.56h2.84A1.71 1.71 0 0 1 18 .5a.43.43 0 0 1 .29.56 4.71 4.71 0 0 1-.83 1.66c-.58.81-1.18 1.61-1.78 2.41-.07.11-.14.22-.2.33a.66.66 0 0 0 .12 1c.51.53 1.06 1 1.56 1.57a10.09 10.09 0 0 1 1 1.28.72.72 0 0 1-.54 1.2c-.42.06-2.5 0-2.61 0a2 2 0 0 1-1.44-.57c-.44-.42-.84-.89-1.26-1.33a3.6 3.6 0 0 0-.41-.37.49.49 0 0 0-.84.2 8.21 8.21 0 0 0-.27 1.34.7.7 0 0 1-.74.69 7 7 0 0 1-3.79-.71 8.14 8.14 0 0 1-2.51-2.2A26.3 26.3 0 0 1 .9 2.94c0-.08-.85-1.8-.87-1.88C0 .79 0 .53.25.44s2.82 0 2.86 0a.93.93 0 0 1 .9.64z" fill="#fff"/></g></svg>