<svg xmlns="http://www.w3.org/2000/svg" viewBox="0 0 18.26 22.17"><g data-name="Слой 2"><path data-name="&lt;Составной контур&gt;" d="M11.51 15.38a.84.84 0 0 0-.08-.34.34.34 0 0 0-.33-.22.56.56 0 0 0-.45.17.25.25 0 0 0-.07.11v3.77a.71.71 0 0 0 .38.23.36.36 0 0 0 .49-.29.55.55 0 0 0 0-.18v-3.25zm0 0a.84.84 0 0 0-.08-.34.34.34 0 0 0-.33-.22.56.56 0 0 0-.45.17.25.25 0 0 0-.07.11v3.77a.71.71 0 0 0 .38.23.36.36 0 0 0 .49-.29.55.55 0 0 0 0-.18v-3.25zm4.07-5.47q-6.45-.13-12.9 0A2.74 2.74 0 0 0 0 12.65v6.71a2.75 2.75 0 0 0 2.68 2.75q6.45.13 12.9 0a2.75 2.75 0 0 0 2.68-2.75v-6.71a2.74 2.74 0 0 0-2.68-2.74zM4 20H2.71v-7H1.42v-1.2h3.81V13H4zm4.43-2.9V20H7.28v-.66l-.08.09a1.89 1.89 0 0 1-.85.6 1 1 0 0 1-.51.05.65.65 0 0 1-.5-.39 1.57 1.57 0 0 1-.11-.69v-5.06h1.09v4.57a1 1 0 0 0 0 .24.26.26 0 0 0 .38.21 1.19 1.19 0 0 0 .53-.41.22.22 0 0 0 0-.11v-4.5h1.1zm4.18 2.32a.9.9 0 0 1-.94.66 1.21 1.21 0 0 1-.93-.42l-.11-.12V20H9.48v-8.2h1.1v2.69a.84.84 0 0 1 .12-.19 1.2 1.2 0 0 1 .63-.4.94.94 0 0 1 1.14.52 2.06 2.06 0 0 1 .18.91v3.43a2.18 2.18 0 0 1-.09.63zm4.06-.23a1.38 1.38 0 0 1-1.17 1 1.85 1.85 0 0 1-1-.11 1.49 1.49 0 0 1-.93-1.08 3.94 3.94 0 0 1-.08-.68v-2.74a1.81 1.81 0 0 1 .43-1.26 1.62 1.62 0 0 1 1.37-.53 1.94 1.94 0 0 1 .48.09 1.33 1.33 0 0 1 .91 1.12 3.08 3.08 0 0 1 .06.61v1.53h-2.11v1.51a.49.49 0 0 0 1 0v-.78h1.13a5.49 5.49 0 0 1-.12 1.33zm-1-3.85a.49.49 0 0 0-1 0v.85h1zM11.43 15a.34.34 0 0 0-.33-.22.56.56 0 0 0-.45.17.25.25 0 0 0-.07.11v3.77a.71.71 0 0 0 .38.23.36.36 0 0 0 .49-.29.55.55 0 0 0 0-.18v-3.25a.84.84 0 0 0-.08-.34zm2.81-12.85v6.07h-1.12v-.65l-.35.34a1.57 1.57 0 0 1-.71.37.71.71 0 0 1-.91-.49 1.38 1.38 0 0 1-.08-.45V2.15h1.12v4.63a1.09 1.09 0 0 0 0 .18.26.26 0 0 0 .36.22 1.12 1.12 0 0 0 .54-.42V2.15zM4.94 3.2C4.7 2.17 4.18 0 4.18 0H2.9l1.43 4.72a.88.88 0 0 1 0 .16v3.34h1.2V4.88a.88.88 0 0 1 0-.16L7 0H5.7s-.52 2.17-.76 3.2zM8.52 2a1.61 1.61 0 0 0-1.61 1.61v3.15a1.61 1.61 0 1 0 3.22 0V3.61A1.61 1.61 0 0 0 8.52 2zM9 6.82a.47.47 0 1 1-.93 0V3.54a.47.47 0 0 1 .93 0z" fill="#fff"/></g></svg>