<svg xmlns="http://www.w3.org/2000/svg" viewBox="0 0 50 50"><path class="arrowOne" fill="#fff" d="M47.4 22.4L29.1 4.1c-.4-.4-1-.7-1.6-.7-.6 0-1.2.2-1.6.7l-1.4 1.4c-.9.9-.9 2.3 0 3.2L40 24 24.6 39.4c-.4.4-.7 1-.7 1.6 0 .6.2 1.2.7 1.6l1.4 1.3c.4.4 1 .7 1.6.7s1.2-.2 1.6-.7l18.4-18.4c.4-.4.7-1 .7-1.6-.2-.5-.4-1.1-.9-1.5z"/><path class="arrowTwo" fill="#fff" opacity=".7" d="M35.8 22.8L17.5 4.4c-.4-.4-1-.7-1.6-.7-.6 0-1.2.2-1.6.7l-1.4 1.4c-.9.9-.9 2.3 0 3.2l15.4 15.4-15.4 15.4c-.4.4-.7 1-.7 1.6 0 .6.2 1.2.7 1.6l1.4 1.3c.4.4 1 .7 1.6.7.6 0 1.2-.2 1.6-.7L35.8 26c.4-.4.7-1 .7-1.6 0-.6-.3-1.2-.7-1.6z"/><path class="arrowTree" fill="#fff" opacity=".3" d="M24.4 22.8L6 4.4c-.4-.4-1-.6-1.6-.6s-1.1.2-1.6.6L1.5 5.8c-.9.9-.9 2.3 0 3.2l15.4 15.4L1.5 39.8c-.4.4-.7 1-.7 1.6 0 .6.2 1.2.7 1.6l1.4 1.3c.4.4 1 .7 1.6.7s1.2-.2 1.6-.7L24.4 26c.4-.4.7-1 .7-1.6-.1-.6-.3-1.2-.7-1.6z"/></svg>