<svg height="496pt" viewBox="-72 0 496 496" width="496pt" xmlns="http://www.w3.org/2000/svg"><path d="M296 64H128V48h8c4.426 0 8-3.586 8-8V8c0-4.414-3.574-8-8-8H24c-4.426 0-8 3.586-8 8v32c0 4.414 3.574 8 8 8h8v21.48C13.113 78.488 0 97.72 0 120v320c0 30.871 25.129 56 56 56h240c30.871 0 56-25.129 56-56V120c0-30.879-25.129-56-56-56zm40 56v124.688l-32-32V136c0-13.23-10.77-24-24-24h-76.688l-32-32H296c22.055 0 40 17.945 40 40zm-48 76.688L219.312 128H280c4.414 0 8 3.594 8 8zM32 16h96v16H32zm16 32h64v16H56c-2.719 0-5.375.266-8 .64zm248 432H56c-22.055 0-40-17.945-40-40V120c0-22.055 17.945-40 40-40h92.688L336 267.313V440c0 22.055-17.945 40-40 40zm0 0"/><path d="M141.656 98.344A7.964 7.964 0 00136 96H64c-17.648 0-32 14.352-32 32v304c0 17.648 14.352 32 32 32h224c17.648 0 32-14.352 32-32V280c0-2.129-.84-4.16-2.344-5.656zM304 432c0 8.824-7.176 16-16 16H64c-8.824 0-16-7.176-16-16V128c0-8.824 7.176-16 16-16h68.688L304 283.313zm0 0"/><path d="M112 357.984c0 29.536 21.168 54.313 49.23 57.618 2.22.253 4.442.39 6.641.39 13.723 0 27.04-4.984 37.32-14.129A56.025 56.025 0 00224 360v-2.016a94.455 94.455 0 00-11.504-45.12l-37.473-68.696c-2.8-5.145-11.246-5.145-14.046 0l-37.473 68.687A94.508 94.508 0 00112 357.985zm25.55-37.464L168 264.71l30.45 55.825a78.389 78.389 0 019.55 37.45V360a40.019 40.019 0 01-13.441 29.902c-8.649 7.692-19.84 11.168-31.454 9.809-19.68-2.32-35.105-20.649-35.105-41.727a78.495 78.495 0 019.55-37.464zm0 0"/><path d="M200 360h-16c0 8.824-7.176 16-16 16v16c17.648 0 32-14.352 32-32zm0 0"/></svg>