<svg xmlns="http://www.w3.org/2000/svg" viewBox="0 0 32 43"><path d="M20.8 25.4c0-.2-.1-.4-.1-.5v-.2c-.2-.8-.6-1.6-1.3-2.6-.2-.3-.4-.6-.6-.8-1-1.3-2-2.4-2.1-2.5l-.7-.7-.7.7c-.2.2-1.2 1.2-2.1 2.5-.2.3-.4.6-.6.8-.7.9-1.1 1.8-1.3 2.6v.2c0 .2-.1.5-.1.8v.3c0 2.8 2.2 5 4.8 5 2.7 0 4.8-2.3 4.8-5v-.6z" fill="#101828"/><linearGradient id="a" gradientUnits="userSpaceOnUse" x1="26.984" y1="28.642" x2="14.505" y2="17.133" gradientTransform="matrix(1 0 0 -1 0 43)"><stop offset="0" stop-color="#E40428"/><stop offset=".267" stop-color="#E00728"/><stop offset=".542" stop-color="#D30E28"/><stop offset=".822" stop-color="#BE1528"/><stop offset="1" stop-color="#AD1828"/></linearGradient><path d="M31 26.1v-.9l-.3-2.2c0-.2-.1-.4-.1-.5-.6-2.4-2-5.2-4.2-8.3-.7-.9-1.4-1.9-2.2-2.9-3.5-4.5-7.1-8.3-7.4-8.7l-.8-.9-.8.8c-.3.4-1.6 1.7-3.2 3.6l-.9 1-.2.2 1 1.2 3.2 3.7 1.2 1.4c.5.5 1.1 1.2 1.8 2 .2.2.4.4.6.7l.4.5.8 1 1.4 1.8c1.5 2.2 2.1 3.7 2.3 4.6v.1l.2 1.2v.8c0 3.1-1.8 5.9-4.6 7.2-.5.2-.9.4-1.4.5h-.7l.4.5c.3.4.7.8 1.1 1.2.5.6 1.1 1.2 1.7 1.9.3.3.6.7.9 1.1l.3.4.6.7.4.5.2.2.2-.1 1.2-.7c4.4-2.9 7-7.7 7-13.1-.1-.2-.1-.4-.1-.5z" fill="url(#a)"/><linearGradient id="b" gradientUnits="userSpaceOnUse" x1="5.196" y1="7.833" x2="18.788" y2="22.377" gradientTransform="matrix(1 0 0 -1 0 43)"><stop offset="0" stop-color="#76B82A"/><stop offset=".444" stop-color="#669D2D"/><stop offset="1" stop-color="#537B2D"/></linearGradient><path d="M11.2 32.6c-.1-.1-.3-.3-.6-.7l-.4-.4-.2-.3c-1.2-1.4-1.8-3.2-1.8-5v-.8c0-.4.1-.7.2-1.1v-.1c.2-.9.8-2.4 2.3-4.6.4-.6.9-1.2 1.4-1.8l.3-.4c.3-.4.6-.8.9-1.1l.2-.2-.2-.2-.9-1.1c-1.1-1.3-2.1-2.4-2.7-3.1-.4-.5-.7-.8-.8-.9l-.4-.4L7.3 12c-.5.7-1.1 1.4-1.6 2.2-2.2 3.1-3.6 5.9-4.2 8.3 0 .2-.1.4-.1.5-.1.7-.3 1.5-.3 2.3v1.2C1 35 7.7 41.9 16 42h.7c.6 0 1.1-.1 1.7-.2l.6-.1-7.8-9.1z" fill="url(#b)"/></svg>