<svg xmlns="http://www.w3.org/2000/svg" width="20" height="17" fill="#7cca20"><path d="M19.2 6.5s-.1 0 0 0c0-.2-.1-.3-.2-.3l-2.5-1.7V2.7c0-.2-.2-.4-.4-.4h-2.8L10.9.6c-.2-.1-.3-.1-.5 0L7.9 2.2H5.1c-.2 0-.4.2-.4.4v1.8L2.2 6.2c-.1.1-.2.2-.2.3V16c0 .1 0 .2.1.3.1.1.2.1.3.1h16.2c.2 0 .4-.2.4-.4l.2-9.5zm-2.7-.9l1.4 1-1.4 1v-2zm-5.9-4.1l1.1.8H9.5l1.1-.8zm-5 1.6h10.1v5l-3.4 2.4-1.4-1.1c-.2-.1-.4-.1-.5 0L9 10.5 5.6 8.2V3.1zm-.9 2.5v2l-1.4-1 1.4-1zM2.9 7.4l5.3 3.7-5.3 4.1V7.4zm.9 8.2l6.8-5.3 6.8 5.3H3.8zm9.2-4.5l5.3-3.7v7.8L13 11.1z"/><path d="M13.6 4.9h-6c-.2 0-.4.2-.4.4s.2.4.4.4h5.9c.2 0 .4-.2.4-.4s-.1-.4-.3-.4zm0 2.3h-6c-.2 0-.4.2-.4.4s.2.4.4.4h5.9c.3 0 .5-.2.5-.4s-.2-.4-.4-.4z"/></svg>