<svg height="512" viewBox="0 0 64 64" width="512" xmlns="http://www.w3.org/2000/svg"><path d="M50 44c3.309 0 6-2.691 6-6.049a6 6 0 00-.418-2.203l-3.258-8.252C51.911 26.587 50.999 26 50 26s-1.911.587-2.324 1.496L44 36.81V38c0 3.309 2.691 6 6 6zm-4-6.81l3.505-8.884c.188-.379.842-.325.979-.029l3.237 8.204c.185.471.279.965.279 1.519 0 2.206-1.794 4-4 4s-4-1.794-4-4zM5 53h2v2H5zm0 4h2v2H5zm0-8h2v2H5z"/><path d="M63 35c0-7.168-5.832-13-13-13-1.081 0-2.126.147-3.131.397L38.688 1H21.312l-13 34H1v28h18V35h-8.547l8.412-22H27v6h-6v6h4v22.877L23.22 55H21v8h18v-8h-2.22L35 47.877V25h4v-6h-6v-6h8.135l3.83 10.016C40.29 24.987 37 29.616 37 35c0 3.675 1.54 6.992 4 9.359V63h18V44.359c2.46-2.367 4-5.684 4-9.359zM3 61V41h14v20zm14-22H3v-2h14zm2.63-28l3.059-8H27v8zM33 47h-6.029l.023-18H33zm4 14H23v-4h14zm-11.72-6l1.5-6h6.466l1.478 6zM33 27h-6.004l.003-2H33zm4-4H23v-2h14zm-8-4V3h2v16zm4-8V3h4.312l3.059 8zm6 24c0-6.065 4.935-11 11-11s11 4.935 11 11-4.935 11-11 11-11-4.935-11-11zm18 26H43V45.937a12.905 12.905 0 0014 0z"/><path d="M53 49h2v2h-2zm0 4h2v2h-2zm0 4h2v2h-2z"/></svg>