<svg height="512" viewBox="0 0 64 64" width="512" xmlns="http://www.w3.org/2000/svg"><path d="M56.83 46.463l-1.688 1.074 1.55 2.435c.202.317.308.683.308 1.058 0 1.086-.884 1.97-2.03 1.97l.06 2A3.975 3.975 0 0059 51.03a3.96 3.96 0 00-.621-2.132z"/><path d="M55 36.137L48.246 46.75A7.96 7.96 0 0047 51.03c0 4.395 3.575 7.97 8.03 7.97 4.395 0 7.97-3.575 7.97-7.97a7.955 7.955 0 00-1.246-4.279zM54.97 57A5.977 5.977 0 0149 51.03a5.96 5.96 0 01.934-3.206L55 39.863l5.066 7.962c.611.959.934 2.067.934 3.205 0 3.292-2.678 5.97-6.03 5.97z"/><path d="M38.015 30.257a7.956 7.956 0 00.57-9.789l9.442-1.607L50.423 23H52v12h6V22.892c2.841-.53 5-3.023 5-6.016a6.132 6.132 0 00-1.449-3.955l-8.252-9.753A6.114 6.114 0 0048.624 1H39v2.269l3.643 6.293L4.956 15.52A4.668 4.668 0 001 20.151v1.161a4.693 4.693 0 005.475 4.622L8 25.674V31H5v8h2v14H3v8H1v2h62v-2H42.843zM19 61v-8h-4V39h2v-8h-3v-6.347l10.289-1.751A7.936 7.936 0 0024 25c0 2.013.753 3.849 1.985 5.257L21.133 61zm13-30c-3.309 0-6-2.691-6-6s2.691-6 6-6 6 2.691 6 6-2.691 6-6 6zm-2.449 15h4.898l.316 2h-5.529zm.316-2l1.739-11.02c.132.007.261.02.394.02s.263-.013.394-.02L34.133 44zm-2.098-12.223a7.961 7.961 0 001.865.865L25.159 61h-2.001zM28.92 50h6.161l1.736 11h-9.633zm5.446-17.358a7.961 7.961 0 001.865-.865L40.842 61h-2.001zM54 33V23h2v10zM48.624 3c1.215 0 2.362.532 3.147 1.46l8.253 9.753c.629.744.976 1.69.976 2.664A4.128 4.128 0 0156.877 21h-5.3L41.155 3zM6.14 23.962A2.691 2.691 0 013 21.312v-1.161c0-1.331.954-2.447 2.269-2.655l38.448-6.079 3.241 5.598-10.019 1.705A7.95 7.95 0 0032 17c-2.831 0-5.317 1.482-6.739 3.707zM10 25.334l2-.34V31h-2zM7 33h8v4H7zm2 6h4v14H9zM5 55h12v6H5z"/><path d="M32 21c-2.206 0-4 1.794-4 4s1.794 4 4 4 4-1.794 4-4-1.794-4-4-4zm0 6c-1.103 0-2-.897-2-2s.897-2 2-2 2 .897 2 2-.897 2-2 2zm24.877-8a2.122 2.122 0 001.62-3.495l-8.253-9.754A2.122 2.122 0 0048.624 5h-4l8.105 14zM48.624 7c.037 0 .07.016.094.043L57 16.876a.125.125 0 01-.123.124h-2.994l-5.79-10z"/></svg>