<svg xmlns="http://www.w3.org/2000/svg" viewBox="0 0 25 30"><path d="M19.8 18.6c-.5-.6-1.1-1-1.8-1-.6 0-1.3.3-1.8 1l-1.6 2c-.1-.1-.3-.2-.4-.3-.2-.1-.4-.2-.5-.3-1.5-1.2-2.9-2.7-4.3-4.7-.7-1-1.1-1.8-1.4-2.7.4-.5.8-1 1.2-1.4.1-.2.3-.4.4-.5 1.1-1.3 1.1-3.1 0-4.4L8.3 4.4c-.2-.2-.4-.4-.5-.6-.3-.3-.7-.8-1-1.1-.5-.6-1.1-1-1.7-1s-1.3.4-1.8 1L1.5 4.9C.8 5.7.5 6.7.4 7.8c-.2 1.8.3 3.6.6 4.7.8 2.8 2.1 5.3 4 8.1 2.3 3.3 5 5.9 8.2 7.8 1.2.7 2.8 1.5 4.6 1.6h.3c1.2 0 2.2-.5 3-1.6.3-.4.6-.8.9-1.1.2-.3.5-.5.7-.8.5-.7.8-1.4.8-2.2 0-.8-.3-1.5-.8-2.2l-2.9-3.5zm1.9 6.7c-.2.3-.4.5-.6.8-.3.4-.7.8-1 1.3-.5.7-1.1 1-2 1h-.2c-1.5-.1-3-.9-4.1-1.5-2.9-1.7-5.5-4.2-7.7-7.3-1.8-2.6-3-5-3.8-7.6-.5-1.6-.7-2.8-.6-4 .1-.7.3-1.4.7-1.9l1.8-2.2c.3-.3.5-.4.8-.4.3 0 .6.2.8.4.4.4.7.7 1 1.1.2.2.3.4.5.6l1.4 1.7c.6.7.6 1.3 0 2-.2.2-.3.4-.5.6-.4.5-.9 1.1-1.3 1.5-.4.5-.4 1.1-.3 1.4v.1c.4 1.1.9 2.1 1.7 3.3 1.4 2.2 3 3.8 4.6 5.1.2.2.4.3.6.4.2.1.4.2.5.3h.1c.2.1.3.2.5.2.4 0 .7-.3.8-.4l1.8-2.2c.2-.2.5-.5.8-.5.3 0 .6.2.8.5l2.9 3.5c.5.8.5 1.5 0 2.2zm-8-18.2c1.4.3 2.6 1.1 3.6 2.3 1 1.2 1.6 2.7 1.9 4.4.1.4.4.7.7.7h.1c.4-.1.6-.5.6-1-.3-2-1.1-3.8-2.3-5.3s-2.7-2.4-4.4-2.7c-.4-.1-.7.2-.8.7-.1.4.2.9.6.9zM25 13.2c-.5-3.3-1.7-6.3-3.7-8.7S16.9.5 14.1 0c-.4-.1-.7.2-.8.7-.1.5.2.9.6 1 2.4.5 4.6 1.9 6.4 4 1.8 2.1 2.9 4.8 3.3 7.8.1.4.4.7.7.7h.1c.4-.1.7-.5.6-1z" fill="#6c3"/></svg>