<svg version="1.1" id="Capa_1" xmlns="http://www.w3.org/2000/svg" x="0" y="0" viewBox="0 0 512 512" xml:space="preserve"><style>.st0{fill:#6c3}</style><path class="st0" d="M161.3 353c-1.9-1.9-4.4-2.9-7.1-2.9s-5.2 1.1-7.1 2.9c-1.9 1.9-2.9 4.4-2.9 7.1 0 2.6 1.1 5.2 2.9 7.1 1.9 1.9 4.4 2.9 7.1 2.9s5.2-1.1 7.1-2.9c1.9-1.9 2.9-4.4 2.9-7.1 0-2.7-1-5.2-2.9-7.1z"/><path d="M495.2 364.1l-72.3-72.3C412.1 281 397.8 275 382.5 275c-15.3 0-29.6 5.9-40.4 16.7L316.9 317s0 0 0 0 0 0 0 0l-10 10-122-122 35.3-35.3c22.3-22.3 22.3-58.5 0-80.8L148 16.7c-22.3-22.3-58.5-22.3-80.8 0L48.1 35.8c-64 64-64 168.2 0 232.3l70.3 70.3c3.9 3.9 10.2 3.9 14.1 0 3.9-3.9 3.9-10.2 0-14.1L62.2 254C10.5 202.2 6.3 120.5 49.8 64l75.9 75.9c2 2 4.5 2.9 7.1 2.9s5.1-1 7.1-2.9c3.9-3.9 3.9-10.2 0-14.1L63.1 49l18.1-18.1c14.5-14.5 38-14.5 52.5 0l72.2 72.2c14.5 14.5 14.5 38 0 52.5L163.6 198c-1.9 1.9-2.9 4.4-2.9 7.1s1.1 5.2 2.9 7.1l136.1 136.1c3.9 3.9 10.2 3.9 14.1 0l10.1-10.1 124 124c-25 19.3-55.6 29.8-87.9 29.8-38.5 0-74.8-15-102-42.2l-71.3-71.3c-3.9-3.9-10.2-3.9-14.1 0-3.9 3.9-3.9 10.2 0 14.1l71.3 71.3c31 31 72.3 48.1 116.1 48.1 43.9 0 85.1-17.1 116.1-48.1l19.1-19.1c10.8-10.8 16.7-25.1 16.7-40.4.1-15.2-5.9-29.6-16.7-40.3zm-14.1 66.6L463 448.8 338.1 324l18.1-18.1c7-7 16.3-10.9 26.3-10.9 9.9 0 19.2 3.9 26.3 10.9l72.3 72.3c7 7 10.9 16.3 10.9 26.3 0 9.9-3.9 19.2-10.9 26.2z" fill="#6c3" stroke="#6c3" stroke-miterlimit="10"/><path class="st0" d="M164.2 150.1c-1.9-1.9-4.4-2.9-7.1-2.9s-5.2 1.1-7.1 2.9c-1.9 1.9-2.9 4.4-2.9 7.1 0 2.6 1.1 5.2 2.9 7.1 1.9 1.9 4.4 2.9 7.1 2.9s5.2-1.1 7.1-2.9c1.9-1.9 2.9-4.4 2.9-7.1s-1-5.2-2.9-7.1zm257.3-77.9c-1.2-17.1-15-31-32.1-32.2-9.7-.7-19 2.6-26.1 9.2-7 6.5-11 15.8-11 25.3 0 5.5 4.5 10 10 10s10-4.5 10-10c0-4.1 1.7-7.9 4.7-10.7 3-2.8 6.9-4.2 11.1-3.9 7.2.5 13.1 6.3 13.6 13.6s-4.3 13.8-11.4 15.4c-7.8 1.7-13.2 8.5-13.2 16.5v18c0 5.5 4.5 10 10 10s10-4.5 10-10v-15.6c15.4-4.5 25.6-19.1 24.4-35.6zM394 152c-1.9-1.9-4.4-2.9-7.1-2.9s-5.2 1.1-7.1 2.9c-1.9 1.9-2.9 4.4-2.9 7.1 0 2.6 1.1 5.2 2.9 7.1s4.4 2.9 7.1 2.9 5.2-1.1 7.1-2.9c1.9-1.9 2.9-4.4 2.9-7.1.1-2.7-1-5.2-2.9-7.1z"/><path class="st0" d="M462 0H312c-27.6 0-50 22.4-50 50v114c0 27.6 22.4 50 50 50h37.9l29.3 38.1c1.9 2.5 4.8 3.9 7.9 3.9 3.1 0 6-1.5 7.9-3.9l29-38.1h38c27.6 0 50-22.4 50-50V50c0-27.6-22.5-50-50-50zm30 164c0 16.5-13.5 30-30 30h-42.8c-3.1 0-6.1 1.5-8 3.9l-24.1 31.6-24.3-31.7c-1.9-2.5-4.8-3.9-7.9-3.9H312c-16.5 0-30-13.5-30-30V50c0-16.5 13.5-30 30-30h150c16.5 0 30 13.5 30 30v114z"/></svg>