<svg height="512pt" viewBox="0 -11 512 512" width="512pt" xmlns="http://www.w3.org/2000/svg"><path d="M504.34 441.11H450.7V284.5h53.64a7.66 7.66 0 000-15.32h-54.36c-3.605-19.235-20.515-33.836-40.777-33.836h-37.27c-20.988 0-38.374 15.664-41.109 35.918a119.646 119.646 0 00-17.168-11.996v-32.692c7.965-5.949 13.133-15.445 13.133-26.129 0-12.64-7.242-23.617-17.789-29.02v-22.773c0-15.246-10.887-28-25.293-30.898v-15.48h115.469c18.535 0 33.617-15.079 33.617-33.618 0-18.535-15.082-33.617-33.617-33.617H350.28a7.661 7.661 0 100 15.32h48.895c10.09 0 18.297 8.207 18.297 18.297s-8.207 18.297-18.297 18.297H108.988c-10.09 0-18.297-8.207-18.297-18.297 0-10.086 8.207-18.297 18.297-18.297h210.645c4.234 0 7.66-3.43 7.66-7.66s-3.426-7.66-7.66-7.66h-35.926v-5.418C283.707 13.29 270.418 0 254.086 0c-16.34 0-29.633 13.29-29.633 29.621v5.418H108.984c-18.535 0-33.617 15.082-33.617 33.617s15.082 33.617 33.617 33.617H224.45v15.48c-14.406 2.903-25.289 15.653-25.289 30.903v22.77c-10.55 5.402-17.793 16.379-17.793 29.023 0 10.68 5.168 20.18 13.133 26.125v32.602a118.783 118.783 0 00-13.781 9.316c-3.875-18.894-20.63-33.148-40.653-33.148h-37.27c-20.265 0-37.171 14.605-40.776 33.836H7.66A7.66 7.66 0 000 276.84a7.661 7.661 0 007.66 7.664H61.3v156.61H7.66a7.66 7.66 0 000 15.32h54.36c3.605 19.234 20.515 33.836 40.777 33.836h37.27c20.019 0 36.773-14.25 40.652-33.145 20.863 16.32 46.379 25.16 73.363 25.16 28.238 0 55.371-10.015 76.738-27.926 2.739 20.25 20.125 35.91 41.114 35.91h37.265c20.266 0 37.172-14.601 40.778-33.835h54.359a7.66 7.66 0 007.66-7.66c0-4.231-3.426-7.665-7.656-7.665zM239.773 29.62c0-7.887 6.418-14.3 14.309-14.3 7.887 0 14.3 6.413 14.3 14.3v5.418h-28.609zm28.61 72.652v14.856h-28.61v-14.856zm-37.703 30.18h46.797c8.93 0 16.199 7.266 16.199 16.2v19.202H214.48v-19.203c0-8.933 7.27-16.199 16.2-16.199zm-16.723 50.727h80.242c9.52 0 17.266 7.746 17.266 17.265 0 9.52-7.746 17.266-17.266 17.266h-80.242c-9.52 0-17.266-7.746-17.266-17.266 0-9.52 7.747-17.265 17.266-17.265zm-4.133 49.582c1.356.176 2.73.273 4.133.273h80.242a32.02 32.02 0 004.133-.273v19.086a119.327 119.327 0 00-44.25-8.512c-15.434 0-30.383 2.89-44.258 8.414zM76.621 448.77V276.84c0-13.762 10.676-25.067 24.18-26.09v224.113c-13.504-1.023-24.18-12.332-24.18-26.093zm65.442 26.093v-41.511c0-4.23-3.43-7.66-7.665-7.66a7.66 7.66 0 00-7.66 7.66v41.593h-10.613v-224.28h10.613v152.042a7.66 7.66 0 007.66 7.66 7.661 7.661 0 007.665-7.66v-151.96c13.503 1.023 24.18 12.331 24.18 26.093v171.929c0 13.762-10.677 25.07-24.18 26.094zm112.019-7.902c-27.36 0-52.988-10.418-72.52-29.402v-149.5c7.102-6.907 15.012-12.676 23.524-17.223a7.94 7.94 0 001.285-.684c14.555-7.515 30.8-11.496 47.715-11.496 28.996 0 56.66 12.11 76.352 33.324v141.66c-19.692 21.212-47.356 33.32-76.356 33.32zm91.676-18.191V276.84c0-13.762 10.68-25.07 24.183-26.09v224.113c-13.507-1.023-24.183-12.332-24.183-26.093zm39.504 26.175v-224.28h10.613v224.28zm25.933-.082V250.746c13.504 1.024 24.184 12.332 24.184 26.094v171.93c0 13.761-10.68 25.07-24.184 26.093zm0 0"/></svg>