<svg width="20" height="20" viewBox="0 0 20 20" fill="none" xmlns="http://www.w3.org/2000/svg">
<path d="M0.15625 0H0V0.15625H0.15625V0Z" fill="white"/>
<path d="M17.0704 8.67183H11.4454L13.3204 6.79683C12.7612 6.21792 12.0603 5.79531 11.2873 5.57093C10.5143 5.34656 9.69611 5.32822 8.91385 5.51775C8.13159 5.70727 7.41248 6.09807 6.8279 6.65135C6.24332 7.20463 5.81359 7.90117 5.58135 8.67183H2.92979C3.17371 7.37928 3.76737 6.17835 4.64618 5.19964C5.525 4.22093 6.65534 3.5019 7.91428 3.12076C9.17321 2.73961 10.5126 2.71094 11.7867 3.03785C13.0607 3.36477 14.2208 4.03476 15.1407 4.97496L17.0704 3.04683V8.67183ZM2.92979 11.3281H8.55478L6.67978 13.2031C7.239 13.782 7.93987 14.2046 8.71286 14.429C9.48585 14.6534 10.3041 14.6717 11.0863 14.4822C11.8686 14.2926 12.5877 13.9018 13.1723 13.3486C13.7569 12.7953 14.1866 12.0987 14.4188 11.3281H17.0704C16.8265 12.6206 16.2328 13.8216 15.354 14.8003C14.4752 15.779 13.3449 16.498 12.0859 16.8792C10.827 17.2603 9.48764 17.289 8.21354 16.9621C6.93945 16.6351 5.77937 15.9652 4.85947 15.025L2.92822 16.9531V11.3281H2.92979Z" fill="#0A1938"/>
</svg>
