<svg width="8" height="16" viewBox="0 0 8 16" fill="none" xmlns="http://www.w3.org/2000/svg">
<path fill-rule="evenodd" clip-rule="evenodd" d="M2.77914 8.00006L7.66285 2.29539C8.11238 1.77029 8.11238 0.918929 7.66285 0.393826C7.21331 -0.131277 6.48447 -0.131275 6.03493 0.393826L0.351894 7.03219C0.346943 7.03777 0.342026 7.04342 0.337141 7.04912C-0.0395441 7.48913 -0.100589 8.15822 0.154007 8.67247C0.203262 8.772 0.264338 8.86573 0.337235 8.95088C0.339754 8.95382 0.342282 8.95675 0.344818 8.95966L6.03484 15.6062C6.48438 16.1313 7.21322 16.1313 7.66276 15.6062C8.11229 15.0811 8.11229 14.2297 7.66275 13.7046L2.77914 8.00006Z" fill="#0A1938"/>
</svg>
