<svg width="22" height="14" viewBox="0 0 22 14" fill="none" xmlns="http://www.w3.org/2000/svg">
<path fill-rule="evenodd" clip-rule="evenodd" d="M11 8.61415L18.844 0.556285C19.566 -0.185429 20.7366 -0.185428 21.4586 0.556286C22.1806 1.298 22.1806 2.50056 21.4586 3.24227L12.3287 12.6213C12.3217 12.6286 12.3146 12.636 12.3075 12.6433C11.7864 13.1786 11.0317 13.3276 10.3805 13.0902C10.1293 12.9987 9.89359 12.8497 9.69261 12.6432C9.6877 12.6382 9.68283 12.6331 9.678 12.628L0.541516 3.24236C-0.180505 2.50064 -0.180505 1.29809 0.541516 0.556375C1.26354 -0.185339 2.43416 -0.185339 3.15619 0.556375L11 8.61415Z" fill="#848484"/>
</svg>
