<svg width="8" height="16" viewBox="0 0 8 16" fill="none" xmlns="http://www.w3.org/2000/svg">
<path fill-rule="evenodd" clip-rule="evenodd" d="M5.22086 7.99995L0.337153 13.7046C-0.112383 14.2297 -0.112384 15.0811 0.337152 15.6062C0.786689 16.1313 1.51553 16.1313 1.96507 15.6062L7.64824 8.96765C7.65314 8.96212 7.65802 8.95653 7.66286 8.95088C8.03252 8.51908 8.0982 7.86666 7.8599 7.35646C7.8084 7.24614 7.74269 7.14247 7.66276 7.04912C7.66015 7.04606 7.65752 7.04302 7.65488 7.03999L1.96516 0.393828C1.51562 -0.131275 0.786776 -0.131277 0.33724 0.393827C-0.112296 0.91893 -0.112296 1.77029 0.33724 2.29539L5.22086 7.99995Z" fill="#0A1938"/>
</svg>
