<svg width="9" height="6" viewBox="0 0 9 6" fill="none" xmlns="http://www.w3.org/2000/svg">
<path fill-rule="evenodd" clip-rule="evenodd" d="M3.95675 5.02636L0.221523 1.29113C-0.0738413 0.995769 -0.073841 0.516888 0.221524 0.221524C0.516888 -0.0738411 0.995769 -0.0738412 1.29113 0.221523L4.49994 3.43033L7.70871 0.221565C8.00408 -0.0737998 8.48296 -0.0737995 8.77832 0.221565C9.07369 0.51693 9.07369 0.995811 8.77832 1.29118L5.03975 5.02975C5.0381 5.03143 5.03644 5.0331 5.03477 5.03477C4.97939 5.09015 4.91756 5.13515 4.85169 5.16976C4.83523 5.17842 4.81851 5.18642 4.80158 5.19377C4.52499 5.31396 4.19124 5.26098 3.96507 5.03481C3.96227 5.03201 3.9595 5.02919 3.95675 5.02636Z" fill="#DCDCDC"/>
</svg>
