<svg xmlns="http://www.w3.org/2000/svg" viewBox="0 0 29.18 25.39"><defs><style>.cls-1{fill:#1d1d1b;}</style></defs><title>Ресурс 100</title><g id="Слой_2" data-name="Слой 2"><g id="Главная"><path class="cls-1" d="M28.68,25.39H.5a.5.5,0,0,1-.43-.25.5.5,0,0,1,0-.5l2-3.38A.48.48,0,0,1,2.45,21H26.73a.48.48,0,0,1,.43.25l1.95,3.38a.5.5,0,0,1,0,.5.5.5,0,0,1-.43.25m-27.31-1H27.81L26.44,22H2.74Zm6.41-5.76H4.4A.5.5,0,0,1,4,18.38a.5.5,0,0,1,0-.5L14.16.23a.51.51,0,0,1,.86,0l1.69,2.93a.5.5,0,0,1,0,.5L8.22,18.38a.52.52,0,0,1-.44.25m-2.51-1H7.5L15.7,3.41,14.59,1.48Zm19.46.93H11.21a.52.52,0,0,1-.44-.25.55.55,0,0,1,0-.5l1.92-3.32a.49.49,0,0,1,.43-.25h5.46L15.85,9.52a.5.5,0,0,1,0-.5l1.69-2.93a.51.51,0,0,1,.86,0l6.77,11.72a.5.5,0,0,1,0,.5.52.52,0,0,1-.44.25m-12.66-1h11.8L18,7.34,16.86,9.27l3,5.22a.5.5,0,0,1,0,.5.48.48,0,0,1-.43.25h-6Z"/></g></g></svg>