<svg width="36" height="36" viewBox="0 0 36 36" fill="none" xmlns="http://www.w3.org/2000/svg">
<path d="M33.0809 14.2995H35.5369L29.031 7.07041L22.5251 14.2995H24.9811V18.9112C24.1438 18.0792 23.164 17.4041 22.0883 16.9181V7.3568H24.5443L18.0383 0.127686L11.5324 7.3568H13.9884V16.9181C12.9127 17.4041 11.9329 18.0792 11.0956 18.9112V14.2995H13.5516L7.04571 7.07041L0.539795 14.2995H2.99578V33.9706H0.681542V35.1277H35.3952V33.9706H33.0809V14.2995ZM18.0383 1.86047L21.9465 6.19968H20.9312V16.4709C19.0463 15.89 17.0304 15.89 15.1455 16.4709V6.19968H14.1302L18.0383 1.86047ZM9.93851 33.9706H4.1529V13.1424H3.13753L7.04571 8.8032L10.9539 13.1424H9.93851V20.3038C7.62426 23.6535 7.62426 28.0857 9.93851 31.4353V33.9706ZM11.0956 33.9706V32.8233C11.5167 33.2465 11.9755 33.6305 12.4662 33.9706H11.0956ZM14.924 33.9706C10.4505 32.2499 8.21902 27.2285 9.93973 22.7551C11.2287 19.4042 14.448 17.1929 18.0383 17.1923C22.8313 17.193 26.7162 21.079 26.7155 25.872C26.715 29.4623 24.5038 32.6816 21.1527 33.9706H14.924ZM24.9811 33.9706H23.6105C24.1012 33.6305 24.56 33.2465 24.9811 32.8233V33.9706ZM31.9238 13.1424V33.9706H26.1382V31.4353C28.4524 28.0857 28.4524 23.6535 26.1382 20.3038V13.1424H25.1228L29.031 8.8032L32.9392 13.1424H31.9238Z" fill="white"/>
</svg>
