<svg width="25" height="26" viewBox="0 0 25 26" fill="none" xmlns="http://www.w3.org/2000/svg">
<path d="M12.5001 0.554199C5.59655 0.554199 0 6.15074 0 13.0543C0 19.2459 4.50652 24.3737 10.4153 25.3666V15.6621H7.39993V12.1699H10.4153V9.59483C10.4153 6.60703 12.2402 4.97886 14.9059 4.97886C16.1826 4.97886 17.2798 5.07399 17.5983 5.11589V8.23894L15.7494 8.23983C14.3 8.23983 14.0206 8.92844 14.0206 9.93928V12.1681H17.479L17.0279 15.6603H14.0206V25.4501C20.2052 24.6974 25 19.439 25 13.0507C25 6.15074 19.4035 0.554199 12.5001 0.554199Z" fill="white"/>
</svg>
