<svg width="25" height="26" viewBox="0 0 25 26" fill="none" xmlns="http://www.w3.org/2000/svg">
<path d="M14.8923 13.0544C14.8923 14.3759 13.8212 15.447 12.4998 15.447C11.1783 15.447 10.1072 14.3759 10.1072 13.0544C10.1072 11.733 11.1783 10.6619 12.4998 10.6619C13.8212 10.6619 14.8923 11.733 14.8923 13.0544Z" fill="white"/>
<path d="M18.0957 8.82111C17.9807 8.50945 17.7972 8.22736 17.5588 7.9958C17.3272 7.75739 17.0453 7.5739 16.7334 7.45889C16.4805 7.36066 16.1006 7.24374 15.4008 7.21188C14.6438 7.17736 14.4168 7.16992 12.5003 7.16992C10.5836 7.16992 10.3566 7.17717 9.59977 7.21169C8.89996 7.24374 8.51983 7.36066 8.26711 7.45889C7.95525 7.5739 7.67316 7.75739 7.4418 7.9958C7.20338 8.22736 7.01989 8.50926 6.90469 8.82111C6.80646 9.07403 6.68954 9.45416 6.65768 10.154C6.62316 10.9108 6.61572 11.1378 6.61572 13.0545C6.61572 14.971 6.62316 15.198 6.65768 15.955C6.68954 16.6548 6.80646 17.0347 6.90469 17.2876C7.01989 17.5995 7.20319 17.8814 7.4416 18.113C7.67316 18.3514 7.95506 18.5349 8.26691 18.6499C8.51983 18.7483 8.89996 18.8652 9.59977 18.8971C10.3566 18.9316 10.5834 18.9388 12.5001 18.9388C14.417 18.9388 14.6439 18.9316 15.4006 18.8971C16.1004 18.8652 16.4805 18.7483 16.7334 18.6499C17.3594 18.4084 17.8542 17.9136 18.0957 17.2876C18.1939 17.0347 18.3108 16.6548 18.3429 15.955C18.3774 15.198 18.3846 14.971 18.3846 13.0545C18.3846 11.1378 18.3774 10.9108 18.3429 10.154C18.311 9.45416 18.1941 9.07403 18.0957 8.82111ZM12.5003 16.74C10.4646 16.74 8.81432 15.09 8.81432 13.0543C8.81432 11.0186 10.4646 9.36852 12.5003 9.36852C14.5358 9.36852 16.186 11.0186 16.186 13.0543C16.186 15.09 14.5358 16.74 12.5003 16.74ZM16.3318 10.0842C15.8561 10.0842 15.4704 9.69849 15.4704 9.2228C15.4704 8.74711 15.8561 8.36144 16.3318 8.36144C16.8074 8.36144 17.1931 8.74711 17.1931 9.2228C17.1929 9.69849 16.8074 10.0842 16.3318 10.0842Z" fill="white"/>
<path d="M12.5 0.554199C5.5975 0.554199 0 6.1517 0 13.0542C0 19.9567 5.5975 25.5542 12.5 25.5542C19.4025 25.5542 25 19.9567 25 13.0542C25 6.1517 19.4025 0.554199 12.5 0.554199ZM19.6344 16.0135C19.5997 16.7775 19.4782 17.2992 19.3008 17.7558C18.928 18.72 18.1658 19.4822 17.2016 19.855C16.7452 20.0324 16.2233 20.1537 15.4594 20.1886C14.694 20.2235 14.4495 20.2319 12.5002 20.2319C10.5507 20.2319 10.3064 20.2235 9.54075 20.1886C8.77686 20.1537 8.255 20.0324 7.79858 19.855C7.31945 19.6748 6.88572 19.3923 6.52714 19.0271C6.16207 18.6687 5.87959 18.2347 5.69935 17.7558C5.52197 17.2994 5.40047 16.7775 5.36575 16.0136C5.33047 15.248 5.32227 15.0035 5.32227 13.0542C5.32227 11.1049 5.33047 10.8604 5.36556 10.0949C5.40028 9.33086 5.52158 8.8092 5.69897 8.35258C5.87921 7.87365 6.16188 7.43973 6.52714 7.08134C6.88553 6.71608 7.31945 6.4336 7.79839 6.25336C8.255 6.07597 8.77666 5.95467 9.54075 5.91976C10.3062 5.88486 10.5507 5.87646 12.5 5.87646C14.4493 5.87646 14.6938 5.88486 15.4593 5.91995C16.2233 5.95467 16.745 6.07597 17.2016 6.25317C17.6805 6.43341 18.1145 6.71608 18.4731 7.08134C18.8381 7.43992 19.1208 7.87365 19.3008 8.35258C19.4784 8.8092 19.5997 9.33086 19.6346 10.0949C19.6695 10.8604 19.6777 11.1049 19.6777 13.0542C19.6777 15.0035 19.6695 15.248 19.6344 16.0135Z" fill="white"/>
</svg>
