<svg width="25" height="26" viewBox="0 0 25 26" fill="none" xmlns="http://www.w3.org/2000/svg">
<path d="M17.543 8.59009H7.45654L12.4998 12.9129L17.543 8.59009Z" fill="white"/>
<path d="M12.4996 13.9469C12.393 13.9469 12.2899 13.9087 12.209 13.8392L6.69604 9.11377V17.5183H18.3032V9.11377L12.7902 13.8392C12.7093 13.9087 12.6062 13.9469 12.4996 13.9469Z" fill="white"/>
<path d="M12.5 0.554199C5.59649 0.554199 0 6.15069 0 13.0542C0 19.9577 5.59649 25.5542 12.5 25.5542C19.4035 25.5542 25 19.9577 25 13.0542C24.9922 6.15396 19.4002 0.562047 12.5 0.554199ZM19.1964 17.9649C19.1964 18.2115 18.9965 18.4113 18.75 18.4113H6.25C6.00346 18.4113 5.80357 18.2115 5.80357 17.9649V8.14349C5.80357 7.89695 6.00346 7.69706 6.25 7.69706H18.75C18.9965 7.69706 19.1964 7.89695 19.1964 8.14349V17.9649Z" fill="white"/>
</svg>
