<svg width="25" height="26" viewBox="0 0 25 26" fill="none" xmlns="http://www.w3.org/2000/svg">
<path d="M6.81738 11.6617L11.4776 12.993L16.1383 8.33228L6.81738 11.6617Z" fill="white"/>
<path d="M13.4399 18.2833L16.7693 8.9624L12.1086 13.6231L13.4399 18.2833Z" fill="white"/>
<path d="M12.5 0.101074C5.59649 0.101074 0 5.69756 0 12.6011C0 19.5046 5.59649 25.1011 12.5 25.1011C19.4035 25.1011 25 19.5046 25 12.6011C24.9922 5.70083 19.4002 0.108922 12.5 0.101074ZM18.2772 7.3939L13.8129 19.8939C13.7495 20.0716 13.5814 20.1901 13.3929 20.1904H13.3785C13.1845 20.1843 13.0166 20.0535 12.9634 19.8667L11.8151 15.8466L8.63931 17.0377C8.58895 17.056 8.53577 17.0654 8.48214 17.0654C8.33566 17.0656 8.19833 16.9936 8.11484 16.8733C8.03135 16.7528 8.01217 16.5989 8.06383 16.4618L9.25489 13.286L5.23485 12.1376C5.04935 12.0838 4.91965 11.9166 4.91333 11.7237C4.90723 11.5306 5.02559 11.3555 5.20717 11.2895L17.7072 6.82519C17.8694 6.76764 18.0505 6.8084 18.1721 6.93025C18.294 7.05189 18.335 7.23303 18.2772 7.39521V7.3939Z" fill="white"/>
<path d="M10.1171 13.5322L9.24561 15.8559L11.5693 14.9844L11.2465 13.8551L10.1171 13.5322Z" fill="white"/>
</svg>
