<svg width="25" height="26" viewBox="0 0 25 26" fill="none" xmlns="http://www.w3.org/2000/svg">
<path d="M12.5 25.5542C19.4052 25.5542 25 19.9594 25 13.0542C25 6.14899 19.4052 0.554199 12.5 0.554199C5.59479 0.554199 0 6.14899 0 13.0542C0 19.9594 5.59479 25.5542 12.5 25.5542ZM5.71979 12.7834L17.7719 8.13649C18.3312 7.93441 18.8198 8.27295 18.6385 9.11878L18.6396 9.11774L16.5875 18.7854C16.4354 19.4709 16.0281 19.6375 15.4583 19.3146L12.3333 17.0115L10.826 18.4636C10.6594 18.6302 10.5187 18.7709 10.1958 18.7709L10.4177 15.5907L16.2094 10.3584C16.4615 10.1365 16.1531 10.0115 15.8208 10.2323L8.66354 14.7386L5.57812 13.7761C4.90833 13.5636 4.89375 13.1063 5.71979 12.7834Z" fill="white"/>
</svg>
