<svg width="234" height="248" viewBox="0 0 234 248" fill="none" xmlns="http://www.w3.org/2000/svg">
<g filter="url(#filter0_d)">
<path fill-rule="evenodd" clip-rule="evenodd" d="M116.419 11.8909C140.842 8.76783 164.139 23.6818 182.948 39.5701C200.787 54.6389 217.193 74.6906 218.372 98.0124C219.476 119.821 195.025 133.726 188.768 154.647C182.245 176.457 198.041 205.115 181.624 220.887C165.537 236.341 138.708 225.09 116.419 224.151C95.2763 223.26 72.9474 226.905 55.0876 215.555C36.702 203.87 25.5149 183.565 19.5785 162.605C13.8017 142.208 14.8834 120.403 22.5396 100.636C29.9078 81.6118 46.3759 69.153 61.2013 55.1384C78.6173 38.675 92.6468 14.9308 116.419 11.8909Z" fill="white"/>
</g>
<path d="M125.265 171.399L124.585 171.002L119.153 174.136L74.9199 193.962L75.8276 199.606L81.0606 203.35L129.733 175.242L130.725 168.959L125.265 171.399Z" fill="#DDE4ED"/>
<path d="M74.9199 193.962L124.585 165.286V56.7106L74.9199 85.3862V193.962Z" fill="#7B5BAA"/>
<path d="M81.0607 197.635L130.725 168.959V60.3836L81.0607 89.0592V197.635Z" fill="url(#paint0_linear)"/>
<path d="M122.23 123.252L122.869 122.344L119.649 120.514C119.593 120.486 119.522 120.444 119.465 120.415C116.629 118.869 112.502 119.252 107.907 121.904C99.3693 126.84 92.4486 137.745 92.4486 146.283C92.4486 149.871 93.6682 152.466 95.7104 153.898C96.0082 154.111 96.3344 154.295 96.6748 154.466L99.4686 156.097L100.093 155.203C102.39 155.231 105.056 154.451 107.907 152.806C116.444 147.871 123.365 136.965 123.365 128.428C123.365 126.357 122.968 124.627 122.23 123.252Z" fill="#FF9D4D"/>
<path d="M115.622 119.734C117.011 119.734 118.274 120.032 119.337 120.614L119.351 120.628C119.408 120.656 119.465 120.685 119.522 120.727L122.5 122.429L122.018 123.124L121.933 123.252L122.003 123.379C122.741 124.755 123.11 126.457 123.11 128.442C123.11 136.894 116.231 147.729 107.779 152.608C105.099 154.154 102.475 154.962 100.178 154.962C100.149 154.962 100.121 154.962 100.078 154.962H99.9508L99.8799 155.075L99.3977 155.785L96.8024 154.239H96.7882H96.7741C96.4479 154.083 96.1359 153.898 95.8381 153.7L95.8239 153.686C94.1079 152.466 93.0442 150.438 92.7606 147.814C92.7464 147.715 92.7464 147.616 92.7322 147.517C92.7039 147.119 92.6755 146.708 92.6755 146.283C92.6755 145.559 92.7322 144.794 92.8315 144.028C92.8457 143.943 92.8599 143.858 92.8741 143.773C93.0159 142.751 93.257 141.688 93.5832 140.61C93.6115 140.525 93.6257 140.454 93.6541 140.369C93.9519 139.405 94.3206 138.412 94.7461 137.419C94.7744 137.348 94.817 137.263 94.8453 137.192C95.2566 136.27 95.7246 135.334 96.2493 134.413C96.2919 134.342 96.3344 134.271 96.377 134.2C96.8875 133.306 97.4406 132.427 98.0362 131.576C98.0788 131.505 98.1355 131.449 98.1781 131.378C98.7737 130.527 99.4261 129.69 100.093 128.896C100.149 128.839 100.206 128.768 100.249 128.712C100.944 127.903 101.681 127.123 102.433 126.386C102.489 126.329 102.56 126.272 102.617 126.201C103.425 125.436 104.262 124.712 105.099 124.06C105.17 124.003 105.241 123.946 105.311 123.904C106.205 123.237 107.113 122.628 108.02 122.103C108.077 122.074 108.134 122.032 108.205 122.004C108.29 121.961 108.375 121.904 108.46 121.862C109.651 121.209 110.828 120.699 111.963 120.344L112.005 120.33C112.119 120.302 112.218 120.259 112.331 120.231C113.466 119.905 114.586 119.734 115.622 119.734ZM115.622 119.493C114.572 119.493 113.438 119.664 112.246 120.004C112.133 120.032 112.034 120.061 111.92 120.103C110.771 120.458 109.58 120.968 108.346 121.649C108.261 121.692 108.176 121.748 108.091 121.791C108.034 121.819 107.963 121.862 107.907 121.89C106.971 122.429 106.063 123.039 105.17 123.705C105.099 123.762 105.028 123.819 104.957 123.861C104.092 124.528 103.255 125.251 102.447 126.017C102.39 126.074 102.319 126.13 102.262 126.201C101.497 126.939 100.759 127.719 100.064 128.541C100.008 128.598 99.9508 128.669 99.9082 128.74C99.2275 129.548 98.5893 130.371 97.9795 131.236C97.937 131.307 97.8802 131.378 97.8377 131.434C97.2421 132.3 96.6748 133.179 96.1642 134.072C96.1217 134.143 96.0791 134.214 96.0366 134.285C95.5119 135.207 95.0439 136.143 94.6326 137.079C94.6042 137.15 94.5617 137.235 94.5333 137.306C94.1079 138.298 93.7392 139.291 93.4272 140.27C93.3988 140.355 93.3846 140.426 93.3562 140.511C93.0301 141.589 92.789 142.652 92.6472 143.702C92.633 143.787 92.6188 143.872 92.6046 143.971C92.5053 144.751 92.4486 145.517 92.4486 146.254C92.4486 146.694 92.4628 147.105 92.5053 147.517C92.5195 147.616 92.5195 147.715 92.5337 147.814C92.8457 150.594 93.9802 152.65 95.7104 153.87C96.0082 154.083 96.3344 154.267 96.6748 154.437L99.4686 156.068L100.093 155.175C100.121 155.175 100.164 155.175 100.192 155.175C102.461 155.175 105.099 154.409 107.907 152.778C116.444 147.843 123.365 136.937 123.365 128.4C123.365 126.343 122.968 124.599 122.23 123.223L122.869 122.316L119.649 120.486C119.593 120.458 119.536 120.415 119.465 120.387C118.359 119.805 117.068 119.493 115.622 119.493Z" fill="#FFE840"/>
<path d="M120.334 146.141C127.156 137.07 128.525 126.588 123.392 122.727C118.259 118.867 108.568 123.09 101.746 132.16C94.9242 141.23 93.555 151.713 98.6879 155.574C103.821 159.434 113.512 155.211 120.334 146.141Z" fill="#FFD071"/>
<path d="M120.334 146.141C127.156 137.07 128.525 126.588 123.392 122.727C118.259 118.867 108.568 123.09 101.746 132.16C94.9242 141.23 93.555 151.713 98.6879 155.574C103.821 159.434 113.512 155.211 120.334 146.141Z" fill="#FFE840"/>
<path d="M111.438 152.665C107.836 154.749 104.432 155.302 101.894 154.225C99.341 153.147 97.937 150.566 97.937 146.963C97.937 143.361 99.341 139.149 101.894 135.122C104.446 131.094 107.836 127.733 111.438 125.648C115.04 123.563 118.444 123.01 120.982 124.088C123.535 125.166 124.939 127.747 124.939 131.349C124.939 134.951 123.535 139.163 120.982 143.191C118.444 147.219 115.04 150.58 111.438 152.665ZM111.438 126.386C104.404 130.456 98.6745 139.475 98.6745 146.524C98.6745 153.558 104.404 155.983 111.438 151.913C118.472 147.843 124.202 138.823 124.202 131.775C124.202 124.741 118.472 122.33 111.438 126.386Z" fill="#FF9D4D"/>
<path d="M112.587 124.088L112.459 124.301L108.091 121.777C108.176 121.734 108.261 121.677 108.346 121.635L112.587 124.088Z" fill="#FFE840"/>
<path d="M108.715 125.747L108.587 125.96L104.943 123.861C105.014 123.805 105.085 123.748 105.155 123.705L108.715 125.747Z" fill="#FFE840"/>
<path d="M106.035 128.088L105.907 128.3L102.262 126.201C102.319 126.145 102.39 126.088 102.447 126.017L106.035 128.088Z" fill="#FFE840"/>
<path d="M103.34 130.428L103.213 130.64L99.894 128.726C99.9508 128.655 100.007 128.598 100.05 128.527L103.34 130.428Z" fill="#FFE840"/>
<path d="M101.823 133.448L101.695 133.661L97.8235 131.434C97.866 131.363 97.9228 131.293 97.9653 131.236L101.823 133.448Z" fill="#FFE840"/>
<path d="M100.844 136.795L100.717 137.008L96.0366 134.285C96.0792 134.214 96.1217 134.143 96.1643 134.072L100.844 136.795Z" fill="#FFE840"/>
<path d="M98.9439 139.575L98.8162 139.787L94.5333 137.32C94.5617 137.249 94.6042 137.164 94.6326 137.093L98.9439 139.575Z" fill="#FFE840"/>
<path d="M98.2207 143.049L98.093 143.262L93.3563 140.525C93.3847 140.44 93.3989 140.369 93.4272 140.284L98.2207 143.049Z" fill="#FFE840"/>
<path d="M96.9868 146.226L96.8592 146.439L92.6046 143.985C92.6188 143.9 92.633 143.815 92.6472 143.716L96.9868 146.226Z" fill="#FFE840"/>
<path d="M97.1712 150.225L97.0436 150.438L92.5196 147.829C92.5054 147.729 92.4912 147.63 92.4912 147.531L97.1712 150.225Z" fill="#FFE840"/>
<path d="M116.302 122.33L116.175 122.542L111.92 120.089C112.034 120.061 112.133 120.018 112.246 119.99L116.302 122.33Z" fill="#FFE840"/>
<path d="M130.725 60.3837L124.585 56.7106L74.9199 85.3862L81.0606 89.0592L130.725 60.3837Z" fill="url(#paint1_linear)"/>
<path d="M74.9199 85.3861V193.962L81.0606 197.635V89.0592L74.9199 85.3861Z" fill="url(#paint2_linear)"/>
<path d="M81.0606 197.961C81.0039 197.961 80.9472 197.947 80.8905 197.919L74.7497 194.231C74.6505 194.175 74.5938 194.061 74.5938 193.948V85.3862C74.5938 85.2727 74.6505 85.1593 74.7639 85.1025L124.429 56.4269C124.528 56.3702 124.655 56.3702 124.769 56.4269L130.895 60.1C130.995 60.1568 131.051 60.2702 131.051 60.3837V168.945C131.051 169.059 130.995 169.172 130.881 169.229L81.2166 197.919C81.1741 197.947 81.1174 197.961 81.0606 197.961ZM75.2603 193.763L81.0606 197.238L130.399 168.761V60.5822L124.585 57.0935L75.2603 85.5847V193.763Z" fill="#BF89EF"/>
<path d="M98.3341 91.6545L128.995 73.9556V72.268L98.3341 89.9669V91.6545Z" fill="white"/>
<path d="M109.297 92.0516L128.995 80.6636V78.976L109.297 90.3639V92.0516Z" fill="#FFD071"/>
<path d="M92.4486 108.46L128.995 87.3858V85.6981L92.4486 106.772V108.46Z" fill="#7FC1E2"/>
<path d="M153.984 213.66C165.599 213.66 175.015 208.225 175.015 201.521C175.015 194.816 165.599 189.381 153.984 189.381C142.368 189.381 132.952 194.816 132.952 201.521C132.952 208.225 142.368 213.66 153.984 213.66Z" fill="#DDE4ED"/>
<path d="M122.628 138.398V137.533V135.008L121.138 135.689L119.976 137.547C119.678 138.015 119.706 138.596 120.032 139.036L121.068 140.057L122.628 138.398Z" fill="#FFD0A6"/>
<path d="M139.972 195.267L147.446 197.876C149.275 198.699 151.36 197.394 151.374 195.423C151.374 195.409 151.374 195.409 151.374 195.394C151.374 195.394 151.374 195.224 151.346 195.139C151.261 194.699 150.934 194.345 150.509 194.189L144.723 192.062C143.177 191.494 141.433 191.707 140.071 192.629L139.532 193.054C138.724 193.721 138.979 194.983 139.972 195.267Z" fill="#281A10"/>
<path d="M147.517 156.38L151.729 175.058L156.011 184.687L161.089 193.678L166.421 191.381V191.367L166.237 190.743C165.371 187.736 164.379 184.758 163.273 181.837C162.166 178.915 160.933 176.036 159.571 173.214L156.749 154.48L148.992 156.082L147.517 156.38Z" fill="url(#paint3_linear)"/>
<path d="M148.623 156.65L153.133 174.434L157.401 184.063L162.478 193.054L166.407 191.367L166.222 190.743C165.357 187.736 164.365 184.758 163.258 181.837C162.152 178.915 160.918 176.036 159.557 173.214L156.735 154.48L148.623 156.65Z" fill="url(#paint4_linear)"/>
<path d="M140.057 157.614L141.149 177.766L144.78 194.359L151.062 194.472V194.43L151.005 192.7C150.92 190.048 150.679 187.396 150.254 184.786C149.828 182.163 149.233 179.582 148.467 177.043L150.254 156.635L150.268 156.394L140.057 157.614Z" fill="url(#paint5_linear)"/>
<path d="M142.014 157.614L143.12 177.766L146.751 194.359L151.076 194.43L151.019 192.7C150.934 190.048 150.693 187.396 150.268 184.786C149.842 182.163 149.247 179.582 148.481 177.043L151.374 156.494L142.014 157.614Z" fill="url(#paint6_linear)"/>
<path d="M145.673 129.194C141.83 129.86 138.979 133.647 138.908 137.547C138.795 144.17 138.015 154.31 138.951 160.663C139.078 161.557 139.816 162.251 140.724 162.308L143.971 162.535C148.736 162.861 151.431 160.096 155.926 158.465C157.699 157.827 158.819 156.082 158.692 154.21L156.862 142.865L158.791 130.328C158.834 127.293 155.969 125.038 153.019 125.804L145.673 129.194Z" fill="url(#paint7_linear)"/>
<path d="M138.993 134.597L132.37 145.914L137.221 145.446L122.84 138.057C122.287 137.774 121.592 137.93 121.224 138.426L121.181 138.483C120.713 139.107 120.826 139.986 121.436 140.468L132.739 149.53C133.959 151.105 136.384 150.991 137.448 149.289L137.589 149.062L144.553 137.944C145.517 136.412 145.035 134.384 143.489 133.448C141.915 132.526 139.901 133.037 138.993 134.597Z" fill="#7B5BAA"/>
<path d="M152.551 126.145L151.643 123.932L152.948 120.16C154.125 118.146 153.955 115.608 152.509 113.764C151.161 112.048 148.963 111.254 146.836 111.693L144.269 112.232C143.191 112.459 142.525 113.523 142.766 114.586V114.615C142.879 115.083 142.893 115.551 142.837 116.005L142.553 118.174C142.312 118.926 142.269 119.734 142.425 120.514L142.61 121.422C143.092 122.911 144.68 123.72 146.155 123.252L146.623 128.882L152.551 126.145Z" fill="#FFD0A6"/>
<path d="M142.879 115.749L144.666 117.267C144.666 117.267 144.964 118.373 144.765 119.621C144.581 120.869 146.992 122.514 146.992 122.514L148.382 124.301C148.679 124.684 149.147 124.882 149.63 124.854L151.261 124.726C152.154 124.656 152.92 124.088 153.246 123.252C153.544 122.5 153.856 121.621 153.913 121.167C153.969 120.713 154.381 119.777 154.749 118.997C155.246 117.962 155.387 116.799 155.118 115.678C154.962 115.012 154.721 114.317 154.381 113.863C153.53 112.7 153.345 111.481 151.105 110.942C148.864 110.417 145.29 110.247 144.368 110.772C143.461 111.296 143.588 111.622 142.751 112.927C141.915 114.246 142.879 115.749 142.879 115.749Z" fill="#89603E"/>
<path d="M152.962 126.045L152.069 124.953L146.495 127.222L146.354 129.066L152.962 126.045Z" fill="#7B5BAA"/>
<path d="M144.865 120.784L145.418 119.976C145.645 119.649 146.169 119.578 146.51 119.834C146.708 119.976 146.793 120.202 146.722 120.415L145.985 122.571L144.368 121.876L144.865 120.784Z" fill="#FFD0A6"/>
<path d="M151.062 191.523L149.077 191.849L144.156 191.381L144.964 196.203L150.027 196.515C150.793 196.557 151.431 195.919 151.36 195.153L151.062 191.523Z" fill="#281A10"/>
<path d="M161.074 193.678L160.989 195.153C160.947 195.933 160.294 196.543 159.529 196.543H157.557C156.99 196.543 156.465 196.827 156.153 197.295C155.487 198.273 156.011 199.621 157.16 199.89L158.039 200.103C159.685 200.5 161.401 200.486 163.046 200.074L167.598 198.911C169.073 198.529 169.768 196.841 168.974 195.536L166.435 191.381L161.074 193.678Z" fill="#C97453"/>
<path d="M161.074 193.678L160.989 195.153C160.947 195.933 160.294 196.543 159.529 196.543H157.557C156.99 196.543 156.465 196.827 156.153 197.295C155.487 198.273 156.011 199.621 157.16 199.89L158.039 200.103C159.685 200.5 161.401 200.486 163.046 200.074L167.598 198.911C169.073 198.529 169.768 196.841 168.974 195.536L166.435 191.381L161.074 193.678Z" fill="#281A10"/>
<path d="M123.649 136.1L123.762 136.029C124.06 135.831 124.443 135.831 124.726 136.029C124.84 136.114 124.854 136.285 124.755 136.384L124.131 136.951C124.102 136.98 124.074 136.994 124.031 137.008L122.358 137.476C122.245 137.504 122.131 137.448 122.089 137.348L121.847 136.795C121.791 136.668 121.876 136.512 122.003 136.483L123.549 136.143C123.606 136.129 123.634 136.129 123.649 136.1Z" fill="#FFD0A6"/>
<defs>
<filter id="filter0_d" x="0.907715" y="0.473511" width="232.501" height="247.509" filterUnits="userSpaceOnUse" color-interpolation-filters="sRGB">
<feFlood flood-opacity="0" result="BackgroundImageFix"/>
<feColorMatrix in="SourceAlpha" type="matrix" values="0 0 0 0 0 0 0 0 0 0 0 0 0 0 0 0 0 0 127 0"/>
<feOffset dy="4"/>
<feGaussianBlur stdDeviation="7.5"/>
<feColorMatrix type="matrix" values="0 0 0 0 0 0 0 0 0 0 0 0 0 0 0 0 0 0 0.05 0"/>
<feBlend mode="normal" in2="BackgroundImageFix" result="effect1_dropShadow"/>
<feBlend mode="normal" in="SourceGraphic" in2="effect1_dropShadow" result="shape"/>
</filter>
<linearGradient id="paint0_linear" x1="81.0544" y1="129.01" x2="130.72" y2="129.01" gradientUnits="userSpaceOnUse">
<stop stop-color="#2E256B"/>
<stop offset="1" stop-color="#5A3087"/>
</linearGradient>
<linearGradient id="paint1_linear" x1="74.9236" y1="72.889" x2="130.72" y2="72.889" gradientUnits="userSpaceOnUse">
<stop stop-color="#6A5EBF"/>
<stop offset="1" stop-color="#6E3AA5"/>
</linearGradient>
<linearGradient id="paint2_linear" x1="74.9236" y1="141.509" x2="81.0543" y2="141.509" gradientUnits="userSpaceOnUse">
<stop stop-color="#483CA6"/>
<stop offset="1" stop-color="#59278F"/>
</linearGradient>
<linearGradient id="paint3_linear" x1="147.515" y1="174.069" x2="166.416" y2="174.069" gradientUnits="userSpaceOnUse">
<stop stop-color="#2E256B"/>
<stop offset="1" stop-color="#5A3087"/>
</linearGradient>
<linearGradient id="paint4_linear" x1="148.625" y1="173.757" x2="166.412" y2="173.757" gradientUnits="userSpaceOnUse">
<stop stop-color="#6A5EBF"/>
<stop offset="1" stop-color="#6E3AA5"/>
</linearGradient>
<linearGradient id="paint5_linear" x1="140.051" y1="175.421" x2="151.056" y2="175.421" gradientUnits="userSpaceOnUse">
<stop stop-color="#2E256B"/>
<stop offset="1" stop-color="#5A3087"/>
</linearGradient>
<linearGradient id="paint6_linear" x1="142.009" y1="175.456" x2="151.369" y2="175.456" gradientUnits="userSpaceOnUse">
<stop stop-color="#6A5EBF"/>
<stop offset="1" stop-color="#6E3AA5"/>
</linearGradient>
<linearGradient id="paint7_linear" x1="138.487" y1="144.113" x2="158.763" y2="144.113" gradientUnits="userSpaceOnUse">
<stop stop-color="#2E256B"/>
<stop offset="1" stop-color="#5A3087"/>
</linearGradient>
</defs>
</svg>
