<svg width="234" height="248" viewBox="0 0 234 248" fill="none" xmlns="http://www.w3.org/2000/svg">
<g filter="url(#filter0_d)">
<path fill-rule="evenodd" clip-rule="evenodd" d="M116.173 11.8909C140.596 8.76783 163.893 23.6818 182.702 39.5701C200.541 54.6389 216.947 74.6906 218.127 98.0124C219.23 119.821 194.779 133.726 188.523 154.647C182 176.457 197.796 205.115 181.379 220.887C165.291 236.341 138.462 225.09 116.173 224.151C95.0307 223.26 72.7018 226.905 54.842 215.555C36.4564 203.87 25.2693 183.565 19.3329 162.605C13.5561 142.208 14.6378 120.403 22.294 100.636C29.6622 81.6118 46.1303 69.153 60.9557 55.1384C78.3717 38.675 92.4012 14.9308 116.173 11.8909Z" fill="white"/>
</g>
<path d="M226.855 123.74L217.913 124.667L151.411 86.2687C151.285 86.1936 151.16 86.1435 151.035 86.0683C149.682 85.367 148.054 84.9662 146.351 84.841C146.05 84.8159 145.75 84.8159 145.474 84.8159C143.195 84.7909 140.916 85.2668 139.187 86.2687L41.3757 142.802L28.2006 144.154L29.8036 153.372C29.8036 153.597 29.8287 153.798 29.8537 154.023C30.0791 155.1 30.9057 156.127 32.3334 156.954L103.645 198.107C105.047 198.934 106.851 199.41 108.679 199.535C108.98 199.56 109.28 199.56 109.581 199.56C110.708 199.585 111.86 199.46 112.937 199.209C114.014 198.959 115.016 198.583 115.868 198.107L222.371 136.64C223.974 135.713 224.801 134.536 224.901 133.334L226.855 123.74Z" fill="#E3DFEA"/>
<path d="M151.06 72.9934L150.008 77.3267L215.132 114.923C218.514 116.877 218.514 120.033 215.132 121.987L108.679 183.479L112.937 186.134C111.86 186.385 110.733 186.485 109.581 186.485L108.679 186.46C106.826 186.335 105.047 185.859 103.645 185.032L30.7304 142.927C29.3027 142.1 28.4761 141.073 28.2507 139.996C27.9501 138.518 28.7767 136.991 30.7304 135.863L139.187 73.1938C140.916 72.1919 143.195 71.7159 145.474 71.741L146.376 71.766C148.054 71.8913 149.707 72.3171 151.06 72.9934Z" fill="#FF4C5E"/>
<path d="M151.411 73.1938L224.325 115.299C227.706 117.253 227.706 120.409 224.325 122.363L115.868 185.007C115.016 185.508 114.014 185.884 112.937 186.109C111.86 186.36 110.733 186.46 109.581 186.46C109.28 186.46 108.98 186.435 108.679 186.435C106.826 186.31 105.047 185.834 103.645 185.007L30.7304 142.927C29.3027 142.1 28.4761 141.073 28.2507 139.996C27.9501 138.518 28.7767 136.991 30.7304 135.863L139.187 73.1938C140.916 72.1919 143.195 71.7159 145.474 71.741C145.775 71.741 146.076 71.766 146.376 71.766C148.054 71.8913 149.707 72.292 151.06 72.9934C151.185 73.0685 151.311 73.1437 151.411 73.1938Z" fill="#FFBC00"/>
<path d="M226.855 119.031V123.74C226.805 124.968 225.953 126.195 224.325 127.147L115.868 189.816C115.016 190.317 114.014 190.693 112.937 190.918C111.86 191.169 110.733 191.269 109.581 191.269V186.485C110.708 186.51 111.86 186.385 112.937 186.134C114.014 185.884 115.016 185.508 115.868 185.032L224.325 122.363C225.928 121.436 226.779 120.259 226.855 119.031Z" fill="url(#paint0_linear)"/>
<path d="M226.855 119.031C226.754 120.234 225.928 121.436 224.325 122.338L115.868 185.007C115.016 185.508 114.014 185.884 112.937 186.109C111.86 186.36 110.733 186.46 109.581 186.46V191.244C109.28 191.244 108.98 191.219 108.679 191.194C106.826 191.069 105.047 190.593 103.644 189.766L30.7303 147.711C29.3026 146.884 28.476 145.857 28.2506 144.78C28.1754 144.38 28.1754 144.004 28.2506 143.603V139.996L32.684 139.52L139.187 78.0029C140.916 77.001 143.195 76.5251 145.474 76.5502C145.775 76.5502 146.075 76.5752 146.351 76.6003C148.029 76.7255 149.682 77.1263 151.035 77.8276C151.16 77.9027 151.285 77.9528 151.411 78.028L223.173 119.457L226.855 119.031Z" fill="url(#paint1_linear)"/>
<path d="M109.756 191.745C109.706 191.745 109.631 191.745 109.581 191.745V190.793C110.708 190.793 111.81 190.693 112.812 190.468C113.864 190.242 114.791 189.866 115.617 189.416L224.074 126.746C225.502 125.919 226.304 124.867 226.354 123.74V123.615V121.286C225.903 121.837 225.277 122.338 224.525 122.763L116.068 185.433C115.192 185.934 114.14 186.335 113.012 186.61C111.91 186.861 110.733 186.986 109.556 186.961L109.581 186.009C110.683 186.034 111.785 185.909 112.812 185.683C113.864 185.433 114.816 185.082 115.617 184.631L224.074 121.962C225.477 121.16 226.279 120.108 226.354 119.031L226.379 118.58H227.306V119.056V124.241H227.255C227.03 125.519 226.078 126.696 224.55 127.573L116.093 190.242C115.192 190.768 114.165 191.144 113.012 191.419C112.01 191.62 110.908 191.745 109.756 191.745Z" fill="#BF89EF"/>
<path d="M109.581 191.745C109.28 191.745 108.98 191.72 108.654 191.695C106.65 191.545 104.847 191.044 103.419 190.217L30.5049 148.137C29.002 147.26 28.0753 146.133 27.7998 144.881C27.6996 144.455 27.6996 144.004 27.7998 143.553V139.545L32.5588 139.044L138.962 77.5771C140.715 76.5752 143.02 76.0241 145.499 76.0492C145.8 76.0492 146.101 76.0742 146.401 76.0993H146.426C148.23 76.2245 149.908 76.6754 151.285 77.3767C151.411 77.4519 151.536 77.502 151.686 77.5771L223.323 118.931L227.406 118.505L227.356 119.081C227.255 120.484 226.279 121.812 224.6 122.763L116.143 185.433C115.267 185.934 114.215 186.335 113.088 186.61C111.985 186.861 110.808 186.986 109.631 186.961L109.656 186.009C110.758 186.034 111.86 185.909 112.887 185.683C113.939 185.433 114.891 185.082 115.692 184.631L224.149 121.962C225.302 121.286 226.053 120.484 226.329 119.607L223.148 119.958L223.022 119.883L151.185 78.4037C151.085 78.3285 150.96 78.2784 150.835 78.2283C149.582 77.5771 148.029 77.1763 146.351 77.0511H146.326C146.05 77.0261 145.75 77.0261 145.474 77.0261C143.17 77.001 141.041 77.502 139.438 78.4287L32.8344 139.971L28.7265 140.397V143.678C28.6514 144.004 28.6514 144.355 28.7265 144.655C28.9269 145.632 29.7284 146.559 30.9558 147.26L103.87 189.365C105.172 190.117 106.876 190.593 108.704 190.718C109.005 190.743 109.28 190.743 109.581 190.743V191.745Z" fill="#BF89EF"/>
<path d="M151.411 73.1938L224.325 115.299C227.706 117.253 227.706 120.409 224.325 122.363L115.868 185.007C115.016 185.508 114.014 185.884 112.937 186.109C111.86 186.36 110.733 186.46 109.581 186.46C109.28 186.46 108.98 186.435 108.679 186.435C106.826 186.31 105.047 185.834 103.645 185.007L30.7304 142.927C29.3027 142.1 28.4761 141.073 28.2507 139.996C27.9501 138.518 28.7767 136.991 30.7304 135.863L139.187 73.1938C140.916 72.1919 143.195 71.7159 145.474 71.741C145.775 71.741 146.076 71.766 146.376 71.766C148.054 71.8913 149.707 72.292 151.06 72.9934C151.185 73.0685 151.311 73.1437 151.411 73.1938Z" fill="#925FC4"/>
<path d="M226.855 119.031C226.755 120.234 225.928 121.436 224.325 122.338L115.868 185.007C115.016 185.508 114.014 185.884 112.937 186.109C111.86 186.36 110.733 186.46 109.581 186.46C109.28 186.46 108.98 186.435 108.679 186.435C106.826 186.31 105.047 185.834 103.645 185.007L30.7304 142.927C29.3027 142.1 28.4761 141.073 28.2507 139.996C27.9501 138.518 28.7767 136.991 30.7304 135.863L139.187 73.1938C140.916 72.1919 143.195 71.7159 145.474 71.741C145.775 71.741 146.076 71.766 146.351 71.766C148.029 71.8913 149.682 72.292 151.035 72.9934C151.16 73.0685 151.285 73.1186 151.411 73.1938L224.325 115.299C226.128 116.326 226.955 117.704 226.855 119.031Z" fill="url(#paint2_linear)"/>
<path d="M109.807 186.96C109.731 186.96 109.656 186.96 109.581 186.96C109.281 186.96 108.98 186.96 108.654 186.935C106.651 186.785 104.847 186.284 103.394 185.458L30.5053 143.327C29.0024 142.45 28.0756 141.323 27.8001 140.071C27.4494 138.318 28.4263 136.639 30.5053 135.437L138.962 72.7675C140.716 71.7656 143.045 71.2145 145.5 71.2396C145.8 71.2396 146.101 71.2646 146.401 71.2646H146.502C148.28 71.3898 149.908 71.8407 151.261 72.542C151.361 72.5921 151.486 72.6673 151.586 72.7174L151.636 72.7424L224.551 114.848C226.429 115.925 227.431 117.453 227.306 119.031C227.206 120.433 226.229 121.761 224.551 122.713L116.094 185.382C115.217 185.883 114.165 186.284 113.038 186.56C112.011 186.835 110.909 186.96 109.807 186.96ZM145.299 72.2164C143.095 72.2164 140.966 72.7174 139.438 73.6191L30.9812 136.264C29.2779 137.241 28.4764 138.568 28.7519 139.871C28.9523 140.847 29.7288 141.749 30.9812 142.501L103.895 184.606C105.198 185.357 106.876 185.833 108.73 185.958C109.03 185.984 109.331 185.984 109.581 185.984C110.683 186.009 111.785 185.883 112.837 185.658C113.889 185.407 114.841 185.057 115.643 184.606L224.1 121.936C225.502 121.135 226.304 120.083 226.379 119.006C226.479 117.803 225.628 116.601 224.1 115.699L151.186 73.6191L151.135 73.5941C151.035 73.544 150.935 73.4939 150.835 73.4438C149.583 72.7925 148.03 72.3918 146.351 72.2665H146.251C145.976 72.2415 145.725 72.2415 145.475 72.2415C145.425 72.2164 145.349 72.2164 145.299 72.2164Z" fill="#BF89EF"/>
<path d="M91.0454 140.071L71.4831 151.368C70.3559 152.019 67.3251 151.894 66.0226 151.143L49.9169 141.85C48.2888 140.898 48.1636 139.821 49.5662 139.019L68.6276 128.023C69.6796 127.422 72.51 127.522 73.7374 128.224L90.845 138.093C91.9471 138.744 92.0223 139.52 91.0454 140.071Z" fill="#FF4C5E"/>
<path d="M86.4367 139.996L71.1325 148.838C70.2558 149.339 67.8763 149.239 66.8493 148.663L54.2503 141.399C52.9728 140.673 52.8726 139.821 53.9747 139.17L68.8531 130.578C69.6797 130.102 71.909 130.203 72.8608 130.754L86.2112 138.468C87.113 138.969 87.1881 139.545 86.4367 139.996Z" fill="white"/>
<path d="M107.301 151.092L91.9722 159.934C91.4211 160.26 89.8932 160.185 89.242 159.809L84.9588 157.329C84.6582 157.154 84.6332 156.954 84.8837 156.803L100.188 147.962C100.739 147.636 102.267 147.711 102.918 148.087L107.201 150.566C107.527 150.742 107.552 150.942 107.301 151.092Z" fill="white"/>
<path d="M133.026 136.239L117.721 145.081C117.17 145.407 115.642 145.331 114.991 144.956L110.708 142.476C110.407 142.301 110.382 142.1 110.633 141.95L125.937 133.108C126.488 132.783 128.016 132.858 128.667 133.233L132.95 135.713C133.251 135.888 133.276 136.089 133.026 136.239Z" fill="white"/>
<path d="M158.725 121.386L143.42 130.228C142.869 130.553 141.341 130.478 140.69 130.102L136.407 127.623C136.106 127.447 136.081 127.247 136.332 127.097L151.636 118.255C152.187 117.929 153.715 118.004 154.366 118.38L158.65 120.86C158.975 121.035 159 121.236 158.725 121.386Z" fill="white"/>
<path d="M184.449 106.532L169.144 115.374C168.593 115.7 167.065 115.625 166.414 115.249L162.131 112.769C161.83 112.594 161.805 112.394 162.056 112.243L177.36 103.401C177.911 103.076 179.439 103.151 180.09 103.527L184.374 106.006C184.699 106.182 184.724 106.382 184.449 106.532Z" fill="white"/>
<path d="M138.085 130.829V137.191V138.068H138.06C137.91 139.896 137.309 141.724 136.207 143.478C136.081 143.678 135.956 143.879 135.806 144.079C134.503 145.983 132.625 147.786 130.195 149.414C130.07 149.489 129.945 149.589 129.794 149.665C129.419 149.915 128.993 150.166 128.592 150.391C127.214 151.193 125.737 151.894 124.184 152.52C124.058 152.57 123.908 152.62 123.783 152.67C122.005 153.372 120.126 153.948 118.172 154.424C118.047 154.449 117.897 154.499 117.771 154.524C115.943 154.95 114.064 155.275 112.161 155.501C112.035 155.526 111.885 155.526 111.76 155.551C109.906 155.751 108.028 155.876 106.149 155.876C106.024 155.876 105.874 155.876 105.749 155.876C103.87 155.876 101.991 155.801 100.138 155.601C100.013 155.601 99.8623 155.576 99.737 155.551C97.8334 155.35 95.9548 155.05 94.1263 154.649C94.0011 154.624 93.8508 154.599 93.7256 154.549C91.7969 154.098 89.8932 153.547 88.1148 152.896C87.9896 152.846 87.8393 152.796 87.7141 152.746C85.9607 152.069 84.2825 151.293 82.7296 150.391C82.5292 150.266 82.3038 150.141 82.1034 150.015C81.9781 149.94 81.8278 149.84 81.7026 149.765C79.3481 148.262 77.4695 146.609 76.0919 144.855C75.9416 144.68 75.8164 144.505 75.6911 144.329C74.2384 142.326 73.4368 140.197 73.2615 138.042H73.2365V130.804H75.1651C75.3405 130.528 75.5158 130.278 75.6911 130.002C75.8164 129.827 75.9416 129.651 76.0919 129.476C76.5929 128.825 77.169 128.199 77.8202 127.572C78.5967 126.821 79.4734 126.095 80.4753 125.393C81.1766 124.892 81.928 124.416 82.7296 123.941C95.3787 116.627 115.893 116.627 128.567 123.941C129.369 124.416 130.12 124.892 130.821 125.393C131.798 126.095 132.7 126.821 133.476 127.572C134.378 128.449 135.13 129.351 135.781 130.278C135.906 130.453 136.031 130.628 136.131 130.804H138.085V130.829Z" fill="#FF9D4D"/>
<path d="M105.698 118.881C114.29 118.881 122.355 120.81 128.417 124.316C129.193 124.767 129.945 125.243 130.646 125.744C131.598 126.42 132.474 127.147 133.251 127.898C134.128 128.75 134.879 129.626 135.505 130.528C135.605 130.678 135.731 130.854 135.856 131.054L135.981 131.229H136.207H137.734V137.191V137.667L137.709 138.042C137.559 139.821 136.958 141.599 135.931 143.277C135.806 143.478 135.681 143.653 135.555 143.879C134.253 145.782 132.399 147.536 130.045 149.114C129.92 149.189 129.794 149.289 129.644 149.364C129.268 149.615 128.868 149.84 128.442 150.09C127.089 150.867 125.636 151.568 124.083 152.194C123.958 152.245 123.833 152.295 123.683 152.345C121.929 153.021 120.051 153.622 118.122 154.073C117.997 154.098 117.872 154.123 117.746 154.173C115.968 154.599 114.089 154.925 112.161 155.125C112.035 155.15 111.91 155.15 111.785 155.175C109.956 155.376 108.078 155.476 106.224 155.501C106.099 155.501 105.974 155.501 105.824 155.501H105.723C103.895 155.501 102.041 155.401 100.263 155.225C100.138 155.225 100.013 155.2 99.8873 155.175C98.0087 154.975 96.1301 154.674 94.3267 154.273C94.2014 154.248 94.0762 154.223 93.9259 154.173C91.9972 153.722 90.1186 153.171 88.3653 152.52L88.3152 152.495C88.1899 152.445 88.0898 152.42 87.9645 152.37C86.2112 151.694 84.558 150.917 83.0301 150.04C82.8297 149.915 82.6043 149.79 82.4039 149.665C82.2787 149.59 82.1284 149.514 82.0031 149.414C79.7238 147.961 77.8702 146.358 76.4926 144.58C76.3674 144.43 76.2421 144.254 76.1169 144.054C74.7142 142.125 73.9377 140.071 73.7624 137.967L73.7374 137.592V131.154H75.2653H75.4907L75.6159 130.979C75.7662 130.729 75.9416 130.453 76.142 130.203C76.2672 130.027 76.3924 129.877 76.5177 129.677C77.0186 129.05 77.5697 128.424 78.1959 127.823C78.9724 127.072 79.849 126.345 80.8008 125.669C81.5022 125.168 82.2536 124.692 83.0301 124.241C89.0416 120.81 97.107 118.881 105.698 118.881ZM105.698 118.48C97.4075 118.48 89.1167 120.309 82.7796 123.966C81.9781 124.442 81.2267 124.917 80.5253 125.418C79.5485 126.12 78.6467 126.846 77.8702 127.598C77.219 128.224 76.668 128.85 76.142 129.501C75.9917 129.677 75.8664 129.852 75.7412 130.027C75.5408 130.278 75.3655 130.553 75.2152 130.829H73.2865V138.068H73.3115C73.4869 140.222 74.2884 142.351 75.7412 144.355C75.8664 144.53 75.9917 144.705 76.142 144.881C77.5196 146.634 79.3982 148.312 81.7527 149.79C81.8779 149.865 82.0031 149.965 82.1534 150.04C82.3538 150.166 82.5542 150.291 82.7796 150.416C84.3326 151.318 86.0108 152.094 87.7641 152.771C87.8894 152.821 88.0397 152.871 88.1649 152.921C89.9433 153.597 91.8469 154.148 93.7756 154.574C93.9008 154.599 94.0511 154.624 94.1764 154.674C96.0049 155.075 97.8834 155.376 99.7871 155.576C99.9123 155.601 100.063 155.601 100.188 155.626C102.016 155.801 103.845 155.902 105.698 155.902C105.723 155.902 105.774 155.902 105.799 155.902C105.924 155.902 106.074 155.902 106.199 155.902C108.078 155.877 109.956 155.776 111.81 155.576C111.935 155.551 112.086 155.551 112.211 155.526C114.114 155.3 115.993 154.975 117.821 154.549C117.947 154.524 118.097 154.499 118.222 154.449C120.176 153.973 122.055 153.397 123.833 152.695C123.958 152.645 124.108 152.595 124.234 152.545C125.787 151.919 127.265 151.218 128.642 150.416C129.068 150.166 129.469 149.94 129.844 149.69C129.97 149.615 130.12 149.514 130.245 149.439C132.675 147.811 134.553 146.008 135.856 144.104C136.006 143.904 136.131 143.703 136.257 143.503C137.334 141.75 137.96 139.921 138.11 138.093H138.135V137.216V130.854H136.182C136.081 130.678 135.956 130.503 135.831 130.328C135.205 129.401 134.428 128.499 133.526 127.623C132.75 126.871 131.848 126.145 130.871 125.443C130.17 124.942 129.419 124.467 128.617 123.991C122.28 120.309 113.989 118.48 105.698 118.48Z" fill="#FFE840"/>
<path d="M105.699 149.339C123.6 149.339 138.111 140.962 138.111 130.628C138.111 120.295 123.6 111.918 105.699 111.918C87.7988 111.918 73.2875 120.295 73.2875 130.628C73.2875 140.962 87.7988 149.339 105.699 149.339Z" fill="#FFE840"/>
<path d="M133.527 127.598C132.5 124.391 129.794 121.436 125.712 119.081C120.351 116 113.263 114.297 105.698 114.297C98.134 114.297 91.0204 116 85.6852 119.081C81.6024 121.436 78.9223 124.391 77.8703 127.598C77.5447 128.599 77.3944 129.601 77.3944 130.628C77.3944 133.759 78.9223 136.79 81.7778 139.37C81.903 139.495 82.0283 139.595 82.1785 139.721C83.2055 140.597 84.3827 141.424 85.7103 142.2C86.3866 142.576 87.0879 142.952 87.7892 143.303C87.9145 143.378 88.0648 143.428 88.19 143.478C89.9434 144.279 91.8219 144.956 93.8007 145.482C93.926 145.507 94.0762 145.557 94.2015 145.582C96.0049 146.033 97.8835 146.383 99.8122 146.634C99.9374 146.659 100.088 146.659 100.213 146.684C102.016 146.884 103.87 146.985 105.723 146.985H105.824C105.949 146.985 106.099 146.985 106.224 146.985C108.128 146.959 110.007 146.834 111.835 146.609C111.96 146.584 112.111 146.584 112.236 146.559C114.165 146.308 116.043 145.907 117.847 145.432C117.972 145.407 118.122 145.356 118.247 145.331C120.251 144.755 122.13 144.054 123.858 143.227C123.983 143.177 124.134 143.102 124.259 143.027C124.785 142.777 125.286 142.501 125.762 142.225C127.34 141.324 128.717 140.297 129.87 139.245C129.995 139.12 130.145 138.994 130.27 138.869C132.75 136.414 134.053 133.609 134.053 130.678C134.002 129.601 133.852 128.599 133.527 127.598ZM130.22 136.815C130.095 136.99 129.97 137.141 129.819 137.316C128.542 138.844 126.814 140.297 124.61 141.549C124.484 141.624 124.334 141.699 124.209 141.775C124.084 141.85 123.958 141.925 123.808 142C122.08 142.927 120.201 143.678 118.197 144.279C118.072 144.329 117.922 144.355 117.797 144.405C115.993 144.931 114.114 145.331 112.186 145.607C112.061 145.632 111.935 145.657 111.785 145.657C109.932 145.907 108.053 146.033 106.174 146.058C106.049 146.058 105.899 146.058 105.774 146.058C103.895 146.058 102.016 145.958 100.163 145.732C100.038 145.707 99.8873 145.707 99.7621 145.682C97.8334 145.432 95.9548 145.056 94.1514 144.555C94.0262 144.53 93.8759 144.48 93.7506 144.455C91.7718 143.879 89.8682 143.152 88.1399 142.301C88.0147 142.225 87.8644 142.175 87.7392 142.1C87.4135 141.925 87.0629 141.75 86.7623 141.549C84.8837 140.472 83.3307 139.245 82.1284 137.967C82.0032 137.817 81.8529 137.667 81.7277 137.516C78.4715 133.734 78.0457 129.326 80.4753 125.393C81.7778 123.314 83.8567 121.361 86.7372 119.682C97.1571 113.671 114.14 113.671 124.584 119.682C127.465 121.336 129.544 123.289 130.846 125.393C133.151 129.1 132.925 133.208 130.22 136.815Z" fill="#FF9D4D"/>
<path d="M76.9937 139.145V145.707C76.8434 145.532 76.7181 145.356 76.5929 145.181V138.619C76.7181 138.794 76.8434 138.969 76.9937 139.145Z" fill="#FFE840"/>
<path d="M82.1535 143.478V150.04C82.0282 149.965 81.8779 149.865 81.7527 149.79V143.227C81.8779 143.328 82.0282 143.403 82.1535 143.478Z" fill="#FFE840"/>
<path d="M88.1649 146.358V152.921C88.0397 152.871 87.8894 152.821 87.7642 152.771V146.208C87.8894 146.258 88.0397 146.308 88.1649 146.358Z" fill="#FFE840"/>
<path d="M94.1764 148.112V154.674C94.0512 154.649 93.9009 154.624 93.7756 154.574V148.011C93.9009 148.062 94.0261 148.087 94.1764 148.112Z" fill="#FFE840"/>
<path d="M100.163 149.063V155.626C100.038 155.626 99.8873 155.601 99.7621 155.576V149.013C99.9124 149.038 100.038 149.063 100.163 149.063Z" fill="#FFE840"/>
<path d="M106.174 149.339V155.902C106.049 155.902 105.899 155.902 105.774 155.902V149.339C105.924 149.339 106.049 149.339 106.174 149.339Z" fill="#FFE840"/>
<path d="M112.186 148.963V155.526C112.061 155.551 111.91 155.551 111.785 155.576V149.013C111.935 148.988 112.061 148.963 112.186 148.963Z" fill="#FFE840"/>
<path d="M118.197 147.886V154.449C118.072 154.474 117.922 154.524 117.797 154.549V147.986C117.922 147.961 118.072 147.936 118.197 147.886Z" fill="#FFE840"/>
<path d="M124.209 145.983V152.545C124.084 152.595 123.933 152.645 123.808 152.695V146.133C123.933 146.108 124.084 146.033 124.209 145.983Z" fill="#FFE840"/>
<path d="M130.22 142.852V149.414C130.095 149.489 129.97 149.589 129.819 149.665V143.102C129.945 143.027 130.07 142.952 130.22 142.852Z" fill="#FFE840"/>
<path d="M135.53 137.567V144.129C135.405 144.329 135.28 144.53 135.13 144.73V138.168C135.28 137.992 135.405 137.792 135.53 137.567Z" fill="#FFE840"/>
<path d="M131.022 163.792L116.644 172.108C116.043 172.458 114.415 172.383 113.714 171.982L108.905 169.202C108.579 169.027 108.554 168.801 108.829 168.626L123.207 160.335C123.808 159.984 125.436 160.06 126.137 160.46L130.947 163.241C131.272 163.416 131.297 163.641 131.022 163.792Z" fill="white"/>
<path d="M155.418 149.89L141.041 158.181C140.44 158.532 138.812 158.456 138.11 158.056L133.301 155.275C132.975 155.1 132.95 154.875 133.226 154.699L147.603 146.408C148.205 146.058 149.833 146.133 150.534 146.534L155.343 149.314C155.669 149.514 155.694 149.715 155.418 149.89Z" fill="white"/>
<path d="M156.145 95.4362L119.675 116.501C119.324 116.702 118.348 116.677 117.922 116.426L112.912 113.546C112.712 113.446 112.712 113.295 112.862 113.22L149.332 92.155C149.682 91.9546 150.659 91.9796 151.085 92.2301L156.095 95.1106C156.295 95.2108 156.32 95.336 156.145 95.4362Z" fill="white"/>
<path d="M192.79 107.559V113.921V114.798H192.765C192.614 116.627 192.013 118.455 190.911 120.208C190.786 120.409 190.661 120.609 190.51 120.81C189.208 122.713 187.329 124.517 184.9 126.145C184.774 126.22 184.649 126.32 184.499 126.395C184.123 126.646 183.697 126.896 183.297 127.122C181.919 127.923 180.441 128.624 178.888 129.251C178.763 129.301 178.613 129.351 178.487 129.401C176.709 130.102 174.83 130.678 172.877 131.154C172.751 131.179 172.601 131.229 172.476 131.255C170.647 131.68 168.769 132.006 166.865 132.231C166.74 132.256 166.59 132.256 166.464 132.281C164.611 132.482 162.732 132.607 160.854 132.607C160.728 132.607 160.578 132.607 160.453 132.607C158.574 132.607 156.696 132.532 154.842 132.332C154.717 132.332 154.567 132.307 154.441 132.281C152.538 132.081 150.659 131.781 148.831 131.38C148.706 131.355 148.555 131.33 148.43 131.28C146.501 130.829 144.598 130.278 142.819 129.626C142.694 129.576 142.544 129.526 142.419 129.476C140.665 128.8 138.987 128.023 137.434 127.122C137.234 126.996 137.008 126.871 136.808 126.746C136.683 126.671 136.532 126.571 136.407 126.495C134.053 124.993 132.174 123.339 130.796 121.586C130.646 121.411 130.521 121.235 130.396 121.06C128.943 119.056 128.141 116.927 127.966 114.773H127.941V107.534H129.87C130.045 107.259 130.22 107.008 130.396 106.733C130.521 106.557 130.646 106.382 130.796 106.207C131.297 105.555 131.873 104.929 132.525 104.303C133.301 103.552 134.178 102.825 135.18 102.124C135.881 101.623 136.633 101.147 137.434 100.671C150.083 93.3572 170.597 93.3572 183.272 100.671C184.073 101.147 184.824 101.623 185.526 102.124C186.503 102.825 187.404 103.552 188.181 104.303C189.083 105.18 189.834 106.081 190.485 107.008C190.611 107.184 190.736 107.359 190.836 107.534H192.79V107.559Z" fill="#FF9D4D"/>
<path d="M160.378 95.6115C168.969 95.6115 177.035 97.5402 183.096 101.047C183.873 101.498 184.624 101.974 185.325 102.475C186.277 103.151 187.154 103.877 187.93 104.629C188.807 105.48 189.558 106.357 190.185 107.259C190.285 107.409 190.41 107.584 190.535 107.785L190.661 107.96H190.886H192.414V113.921V114.397L192.389 114.773C192.239 116.551 191.637 118.33 190.61 120.008C190.485 120.208 190.36 120.384 190.235 120.609C188.932 122.513 187.079 124.266 184.724 125.844C184.599 125.919 184.474 126.02 184.323 126.095C183.948 126.345 183.547 126.571 183.121 126.821C181.769 127.598 180.316 128.299 178.763 128.925C178.638 128.975 178.512 129.025 178.362 129.075C176.609 129.752 174.73 130.353 172.802 130.804C172.676 130.829 172.551 130.879 172.426 130.904C170.647 131.33 168.769 131.655 166.84 131.856C166.715 131.881 166.59 131.881 166.464 131.906C164.636 132.106 162.757 132.206 160.904 132.231C160.779 132.231 160.653 132.231 160.503 132.231H160.403C158.574 132.231 156.721 132.131 154.942 131.956C154.817 131.956 154.692 131.931 154.567 131.906C152.688 131.705 150.81 131.405 149.006 131.004C148.881 130.979 148.756 130.954 148.605 130.904C146.652 130.453 144.798 129.902 143.045 129.251L142.995 129.226C142.869 129.176 142.769 129.15 142.644 129.1C140.891 128.424 139.237 127.648 137.71 126.771C137.509 126.646 137.284 126.52 137.083 126.395C136.958 126.32 136.808 126.245 136.683 126.145C134.403 124.692 132.55 123.089 131.172 121.311C131.047 121.16 130.922 120.985 130.796 120.785C129.394 118.856 128.617 116.802 128.442 114.698L128.417 114.322V107.885H129.945H130.17L130.295 107.71C130.446 107.459 130.621 107.184 130.821 106.933C130.947 106.758 131.072 106.607 131.197 106.407C131.698 105.781 132.249 105.155 132.875 104.554C133.652 103.802 134.528 103.076 135.48 102.399C136.182 101.898 136.933 101.423 137.71 100.972C143.721 97.5402 151.786 95.6115 160.378 95.6115ZM160.378 95.2107C152.087 95.2107 143.796 97.0392 137.459 100.696C136.658 101.172 135.906 101.648 135.205 102.149C134.228 102.85 133.326 103.577 132.55 104.328C131.898 104.954 131.347 105.581 130.821 106.232C130.696 106.407 130.546 106.582 130.421 106.758C130.22 107.008 130.045 107.284 129.895 107.559H127.966V114.798H127.991C128.166 116.952 128.968 119.081 130.421 121.085C130.546 121.26 130.671 121.436 130.821 121.611C132.199 123.364 134.078 125.043 136.432 126.52C136.557 126.596 136.683 126.696 136.833 126.771C137.033 126.896 137.234 127.021 137.459 127.147C139.012 128.048 140.69 128.825 142.444 129.501C142.569 129.551 142.719 129.601 142.844 129.651C144.623 130.328 146.526 130.879 148.455 131.305C148.58 131.33 148.731 131.355 148.856 131.405C150.684 131.806 152.563 132.106 154.467 132.307C154.592 132.332 154.742 132.332 154.867 132.357C156.696 132.532 158.524 132.632 160.378 132.632C160.403 132.632 160.453 132.632 160.478 132.632C160.603 132.632 160.754 132.632 160.879 132.632C162.757 132.607 164.636 132.507 166.489 132.307C166.615 132.281 166.765 132.281 166.89 132.256C168.794 132.031 170.672 131.705 172.501 131.28C172.626 131.255 172.776 131.229 172.902 131.179C174.855 130.703 176.734 130.127 178.512 129.426C178.638 129.376 178.788 129.326 178.913 129.276C180.466 128.65 181.944 127.948 183.322 127.147C183.747 126.896 184.148 126.671 184.524 126.42C184.649 126.345 184.799 126.245 184.925 126.17C187.354 124.542 189.233 122.738 190.535 120.835C190.686 120.634 190.811 120.434 190.936 120.233C192.013 118.48 192.639 116.652 192.79 114.823H192.815V113.946V107.584H190.886C190.786 107.409 190.661 107.234 190.535 107.058C189.909 106.132 189.133 105.23 188.231 104.353C187.454 103.602 186.553 102.875 185.576 102.174C184.875 101.673 184.123 101.197 183.322 100.721C176.959 97.0392 168.669 95.2107 160.378 95.2107Z" fill="#FFE840"/>
<path d="M160.378 126.07C178.279 126.07 192.79 117.693 192.79 107.359C192.79 97.0253 178.279 88.6483 160.378 88.6483C142.477 88.6483 127.966 97.0253 127.966 107.359C127.966 117.693 142.477 126.07 160.378 126.07Z" fill="#FFE840"/>
<path d="M188.206 104.328C187.179 101.122 184.474 98.1664 180.391 95.8119C175.031 92.731 167.942 91.0277 160.378 91.0277C152.813 91.0277 145.7 92.731 140.365 95.8119C136.282 98.1664 133.602 101.122 132.55 104.328C132.224 105.33 132.074 106.332 132.074 107.359C132.074 110.49 133.602 113.521 136.457 116.101C136.582 116.226 136.708 116.326 136.858 116.451C137.885 117.328 139.062 118.155 140.39 118.931C141.066 119.307 141.767 119.682 142.469 120.033C142.594 120.108 142.744 120.158 142.869 120.208C144.623 121.01 146.501 121.686 148.48 122.212C148.605 122.237 148.756 122.287 148.881 122.312C150.684 122.763 152.563 123.114 154.492 123.364C154.617 123.39 154.767 123.389 154.892 123.415C156.696 123.615 158.549 123.715 160.403 123.715H160.503C160.628 123.715 160.779 123.715 160.904 123.715C162.808 123.69 164.686 123.565 166.515 123.339C166.64 123.314 166.79 123.314 166.915 123.289C168.844 123.039 170.723 122.638 172.526 122.162C172.651 122.137 172.802 122.087 172.927 122.062C174.931 121.486 176.809 120.785 178.538 119.958C178.663 119.908 178.813 119.833 178.938 119.758C179.464 119.507 179.965 119.232 180.441 118.956C182.019 118.054 183.397 117.027 184.549 115.975C184.674 115.85 184.825 115.725 184.95 115.6C187.429 113.145 188.732 110.34 188.732 107.409C188.682 106.332 188.532 105.33 188.206 104.328ZM184.9 113.546C184.774 113.721 184.649 113.871 184.499 114.047C183.221 115.575 181.493 117.027 179.289 118.28C179.164 118.355 179.013 118.43 178.888 118.505C178.763 118.58 178.638 118.655 178.487 118.731C176.759 119.657 174.881 120.409 172.877 121.01C172.751 121.06 172.601 121.085 172.476 121.135C170.673 121.661 168.794 122.062 166.865 122.337C166.74 122.363 166.615 122.388 166.464 122.388C164.611 122.638 162.732 122.763 160.854 122.788C160.729 122.788 160.578 122.788 160.453 122.788C158.574 122.788 156.696 122.688 154.842 122.463C154.717 122.438 154.567 122.438 154.442 122.413C152.513 122.162 150.634 121.786 148.831 121.285C148.706 121.26 148.555 121.21 148.43 121.185C146.451 120.609 144.548 119.883 142.819 119.031C142.694 118.956 142.544 118.906 142.419 118.831C142.093 118.655 141.742 118.48 141.442 118.28C139.563 117.203 138.01 115.975 136.808 114.698C136.683 114.548 136.532 114.397 136.407 114.247C133.151 110.465 132.725 106.056 135.155 102.124C136.457 100.045 138.536 98.0912 141.417 96.413C151.837 90.4015 168.819 90.4015 179.264 96.413C182.144 98.0662 184.223 100.02 185.526 102.124C187.83 105.831 187.605 109.939 184.9 113.546Z" fill="#FF9D4D"/>
<path d="M131.673 115.875V122.438C131.523 122.262 131.397 122.087 131.272 121.912V115.349C131.397 115.524 131.523 115.7 131.673 115.875Z" fill="#FFE840"/>
<path d="M136.833 120.233V126.796C136.708 126.721 136.557 126.621 136.432 126.546V119.983C136.557 120.058 136.708 120.133 136.833 120.233Z" fill="#FFE840"/>
<path d="M142.844 123.114V129.676C142.719 129.626 142.569 129.576 142.444 129.526V122.964C142.569 123.014 142.719 123.064 142.844 123.114Z" fill="#FFE840"/>
<path d="M148.856 124.867V131.43C148.731 131.405 148.58 131.38 148.455 131.33V124.767C148.58 124.792 148.706 124.842 148.856 124.867Z" fill="#FFE840"/>
<path d="M154.867 125.794V132.357C154.742 132.357 154.592 132.332 154.467 132.307V125.744C154.592 125.769 154.717 125.794 154.867 125.794Z" fill="#FFE840"/>
<path d="M160.854 126.07V132.632C160.728 132.632 160.578 132.632 160.453 132.632V126.07C160.603 126.07 160.728 126.07 160.854 126.07Z" fill="#FFE840"/>
<path d="M166.865 125.694V132.256C166.74 132.281 166.59 132.281 166.464 132.307V125.744C166.615 125.719 166.74 125.719 166.865 125.694Z" fill="#FFE840"/>
<path d="M172.877 124.642V131.204C172.751 131.229 172.601 131.28 172.476 131.305V124.742C172.601 124.692 172.751 124.667 172.877 124.642Z" fill="#FFE840"/>
<path d="M178.888 122.738V129.301C178.763 129.351 178.613 129.401 178.487 129.451V122.889C178.613 122.838 178.763 122.788 178.888 122.738Z" fill="#FFE840"/>
<path d="M184.9 119.607V126.17C184.774 126.245 184.649 126.345 184.499 126.42V119.858C184.624 119.783 184.774 119.682 184.9 119.607Z" fill="#FFE840"/>
<path d="M190.21 114.322V120.885C190.084 121.085 189.959 121.285 189.809 121.486V114.923C189.959 114.723 190.084 114.523 190.21 114.322Z" fill="#FFE840"/>
<path d="M162.031 109.488V115.85V116.727H162.006C161.856 118.555 161.254 120.384 160.152 122.137C160.027 122.338 159.902 122.538 159.752 122.738C158.449 124.642 156.57 126.445 154.141 128.074C154.016 128.149 153.89 128.249 153.74 128.324C153.364 128.574 152.939 128.825 152.538 129.05C151.16 129.852 149.682 130.553 148.129 131.179C148.004 131.23 147.854 131.28 147.729 131.33C145.95 132.031 144.072 132.607 142.118 133.083C141.993 133.108 141.842 133.158 141.717 133.183C139.889 133.609 138.01 133.935 136.106 134.16C135.981 134.185 135.831 134.185 135.706 134.21C133.852 134.411 131.974 134.536 130.095 134.536C129.97 134.536 129.819 134.536 129.694 134.536C127.816 134.536 125.937 134.461 124.083 134.26C123.958 134.26 123.808 134.235 123.683 134.21C121.779 134.01 119.9 133.709 118.072 133.309C117.947 133.283 117.796 133.258 117.671 133.208C115.743 132.757 113.839 132.206 112.061 131.555C111.935 131.505 111.785 131.455 111.66 131.405C109.906 130.729 108.228 129.952 106.675 129.05C106.475 128.925 106.249 128.8 106.049 128.675C105.924 128.6 105.774 128.499 105.648 128.424C103.294 126.921 101.415 125.268 100.038 123.515C99.8873 123.339 99.7621 123.164 99.6368 122.989C98.184 120.985 97.3825 118.856 97.2072 116.702H97.1821V109.463H99.1108C99.2861 109.187 99.4615 108.937 99.6368 108.661C99.7621 108.486 99.8873 108.311 100.038 108.135C100.539 107.484 101.115 106.858 101.766 106.232C102.542 105.48 103.419 104.754 104.421 104.053C105.122 103.552 105.874 103.076 106.675 102.6C119.324 95.286 139.839 95.286 152.513 102.6C153.314 103.076 154.066 103.552 154.767 104.053C155.744 104.754 156.646 105.48 157.422 106.232C158.324 107.109 159.075 108.01 159.726 108.937C159.852 109.112 159.977 109.288 160.077 109.463H162.031V109.488Z" fill="#FF9D4D"/>
<path d="M129.619 97.5152C138.21 97.5152 146.276 99.4439 152.337 102.951C153.114 103.401 153.865 103.877 154.567 104.378C155.518 105.055 156.395 105.781 157.172 106.532C158.048 107.359 158.8 108.261 159.426 109.162C159.526 109.313 159.651 109.488 159.777 109.688L159.902 109.864H160.127H161.655V115.85V116.326L161.63 116.702C161.48 118.48 160.879 120.259 159.852 121.937C159.726 122.112 159.601 122.313 159.476 122.538C158.174 124.442 156.32 126.195 153.965 127.773C153.84 127.848 153.715 127.948 153.565 128.023C153.189 128.274 152.788 128.499 152.362 128.75C151.01 129.526 149.557 130.228 148.004 130.854H147.979C147.854 130.904 147.729 130.954 147.603 131.004C145.85 131.68 143.971 132.282 142.043 132.732C141.917 132.757 141.792 132.808 141.667 132.833C139.889 133.258 138.01 133.584 136.106 133.784C135.981 133.809 135.856 133.809 135.706 133.834C133.877 134.035 131.999 134.16 130.145 134.16C130.02 134.16 129.895 134.16 129.744 134.16H129.644C127.816 134.16 125.987 134.06 124.184 133.885C124.058 133.885 123.933 133.86 123.808 133.834C121.929 133.634 120.051 133.334 118.247 132.933C118.122 132.908 117.997 132.883 117.847 132.833C115.918 132.382 114.039 131.831 112.286 131.179L112.236 131.154C112.111 131.104 112.01 131.079 111.885 131.029C110.132 130.353 108.479 129.576 106.951 128.7C106.75 128.574 106.525 128.449 106.325 128.324C106.199 128.249 106.049 128.174 105.924 128.074C103.644 126.621 101.791 125.018 100.413 123.239C100.288 123.089 100.163 122.914 100.038 122.713C98.6349 120.785 97.8584 118.731 97.6831 116.627L97.658 116.251V109.814H99.1859H99.4114L99.5366 109.638C99.6869 109.388 99.8622 109.112 100.063 108.862C100.188 108.687 100.313 108.536 100.438 108.336C100.939 107.71 101.49 107.083 102.117 106.482C102.893 105.731 103.77 105.004 104.721 104.328C105.423 103.827 106.174 103.351 106.951 102.9C112.962 99.4439 121.053 97.5152 129.619 97.5152ZM129.619 97.1395C121.328 97.1395 113.037 98.968 106.7 102.625C105.899 103.101 105.147 103.577 104.446 104.078C103.469 104.779 102.567 105.505 101.791 106.257C101.14 106.883 100.589 107.509 100.063 108.16C99.9374 108.336 99.7871 108.511 99.6618 108.687C99.4615 108.937 99.2861 109.213 99.1358 109.488H97.2072V116.727H97.2322C97.4075 118.881 98.2091 121.01 99.6618 123.014C99.7871 123.189 99.9123 123.365 100.063 123.54C101.44 125.293 103.319 126.971 105.673 128.449C105.799 128.524 105.924 128.625 106.074 128.7C106.274 128.825 106.475 128.95 106.7 129.075C108.253 129.977 109.931 130.754 111.685 131.43C111.81 131.48 111.96 131.53 112.086 131.58C113.864 132.256 115.768 132.808 117.696 133.233C117.821 133.258 117.972 133.283 118.097 133.334C119.926 133.734 121.804 134.035 123.708 134.235C123.833 134.26 123.983 134.26 124.108 134.285C125.937 134.461 127.765 134.561 129.619 134.561C129.644 134.561 129.694 134.561 129.719 134.561C129.844 134.561 129.995 134.561 130.12 134.561C131.999 134.536 133.877 134.436 135.731 134.235C135.856 134.21 136.006 134.21 136.131 134.185C138.035 133.96 139.914 133.634 141.742 133.208C141.867 133.183 142.018 133.158 142.143 133.108C144.097 132.632 145.975 132.056 147.754 131.355C147.879 131.305 148.029 131.255 148.154 131.204C149.707 130.578 151.185 129.877 152.563 129.075C152.989 128.825 153.389 128.6 153.765 128.349C153.89 128.274 154.041 128.174 154.166 128.099C156.595 126.47 158.474 124.667 159.777 122.763C159.927 122.563 160.052 122.363 160.177 122.162C161.254 120.409 161.881 118.58 162.031 116.752H162.056V115.85V109.488H160.127C160.027 109.313 159.902 109.137 159.777 108.962C159.15 108.035 158.374 107.134 157.472 106.257C156.696 105.505 155.794 104.779 154.817 104.078C154.116 103.577 153.364 103.101 152.563 102.625C146.226 98.9429 137.91 97.1395 129.619 97.1395Z" fill="#FFE840"/>
<path d="M129.619 127.998C147.52 127.998 162.031 119.621 162.031 109.288C162.031 98.954 147.52 90.5769 129.619 90.5769C111.719 90.5769 97.2074 98.954 97.2074 109.288C97.2074 119.621 111.719 127.998 129.619 127.998Z" fill="#FFE840"/>
<path d="M157.447 106.257C156.42 103.051 153.715 100.095 149.632 97.7406C144.272 94.6598 137.184 92.9565 129.619 92.9565C122.055 92.9565 114.941 94.6598 109.606 97.7406C105.523 100.095 102.843 103.051 101.791 106.257C101.465 107.259 101.315 108.261 101.315 109.288C101.315 112.419 102.843 115.449 105.698 118.029C105.824 118.155 105.949 118.255 106.099 118.38C107.126 119.257 108.303 120.083 109.631 120.86C110.307 121.235 111.009 121.611 111.71 121.962C111.835 122.037 111.985 122.087 112.111 122.137C113.864 122.939 115.743 123.615 117.721 124.141C117.847 124.166 117.997 124.216 118.122 124.241C119.926 124.692 121.804 125.043 123.733 125.293C123.858 125.318 124.008 125.318 124.134 125.343C125.937 125.544 127.791 125.644 129.644 125.644H129.744C129.87 125.644 130.02 125.644 130.145 125.644C132.049 125.619 133.927 125.494 135.756 125.268C135.881 125.243 136.031 125.243 136.157 125.218C138.085 124.968 139.964 124.567 141.767 124.091C141.893 124.066 142.043 124.016 142.168 123.991C144.172 123.415 146.05 122.713 147.779 121.887C147.904 121.837 148.054 121.761 148.18 121.686C148.706 121.436 149.206 121.16 149.682 120.885C151.26 119.983 152.638 118.956 153.79 117.904C153.915 117.779 154.066 117.654 154.191 117.528C156.671 115.074 157.973 112.268 157.973 109.338C157.948 108.261 157.773 107.234 157.447 106.257ZM154.141 115.449C154.016 115.625 153.89 115.775 153.74 115.95C152.463 117.478 150.734 118.931 148.53 120.183C148.405 120.259 148.255 120.334 148.129 120.409C148.004 120.484 147.879 120.559 147.729 120.634C146 121.561 144.122 122.313 142.118 122.914C141.993 122.964 141.842 122.989 141.717 123.039C139.914 123.565 138.035 123.966 136.106 124.241C135.981 124.266 135.856 124.291 135.706 124.291C133.852 124.542 131.974 124.667 130.095 124.692C129.97 124.692 129.819 124.692 129.694 124.692C127.816 124.692 125.937 124.592 124.084 124.366C123.958 124.341 123.808 124.341 123.683 124.316C121.754 124.066 119.875 123.69 118.072 123.189C117.947 123.164 117.797 123.114 117.671 123.089C115.693 122.513 113.789 121.787 112.061 120.935C111.935 120.86 111.785 120.81 111.66 120.735C111.334 120.559 110.984 120.384 110.683 120.183C108.804 119.106 107.251 117.879 106.049 116.602C105.924 116.451 105.774 116.301 105.648 116.151C102.392 112.369 101.966 107.96 104.396 104.028C105.698 101.949 107.777 99.9949 110.658 98.3167C121.078 92.3053 138.06 92.3053 148.505 98.3167C151.386 99.9699 153.465 101.924 154.767 104.028C157.097 107.76 156.871 111.843 154.141 115.449Z" fill="#FF9D4D"/>
<path d="M100.939 117.779V124.341C100.789 124.166 100.664 123.991 100.539 123.815V117.253C100.664 117.428 100.789 117.604 100.939 117.779Z" fill="#FFE840"/>
<path d="M106.099 122.137V128.7C105.974 128.625 105.824 128.524 105.698 128.449V121.887C105.824 121.962 105.949 122.062 106.099 122.137Z" fill="#FFE840"/>
<path d="M112.086 125.018V131.58C111.96 131.53 111.81 131.48 111.685 131.43V124.867C111.835 124.918 111.96 124.968 112.086 125.018Z" fill="#FFE840"/>
<path d="M118.097 126.771V133.334C117.972 133.309 117.822 133.284 117.696 133.233V126.671C117.847 126.721 117.972 126.746 118.097 126.771Z" fill="#FFE840"/>
<path d="M124.109 127.723V134.285C123.983 134.285 123.833 134.26 123.708 134.235V127.673C123.858 127.698 123.983 127.698 124.109 127.723Z" fill="#FFE840"/>
<path d="M130.12 127.973V134.536C129.995 134.536 129.844 134.536 129.719 134.536V127.973C129.844 127.998 129.995 127.973 130.12 127.973Z" fill="#FFE840"/>
<path d="M136.131 127.598V134.16C136.006 134.185 135.856 134.185 135.731 134.21V127.648C135.856 127.648 135.981 127.623 136.131 127.598Z" fill="#FFE840"/>
<path d="M142.143 126.546V133.108C142.018 133.133 141.867 133.183 141.742 133.208V126.646C141.867 126.596 141.993 126.571 142.143 126.546Z" fill="#FFE840"/>
<path d="M148.129 124.642V131.205C148.004 131.255 147.854 131.305 147.729 131.355V124.792C147.879 124.742 148.004 124.692 148.129 124.642Z" fill="#FFE840"/>
<path d="M154.141 121.511V128.074C154.016 128.149 153.89 128.249 153.74 128.324V121.762C153.89 121.686 154.016 121.611 154.141 121.511Z" fill="#FFE840"/>
<path d="M159.476 116.226V122.789C159.351 122.989 159.226 123.189 159.075 123.39V116.827C159.226 116.627 159.351 116.426 159.476 116.226Z" fill="#FFE840"/>
<defs>
<filter id="filter0_d" x="0.662109" y="0.473511" width="232.501" height="247.509" filterUnits="userSpaceOnUse" color-interpolation-filters="sRGB">
<feFlood flood-opacity="0" result="BackgroundImageFix"/>
<feColorMatrix in="SourceAlpha" type="matrix" values="0 0 0 0 0 0 0 0 0 0 0 0 0 0 0 0 0 0 127 0"/>
<feOffset dy="4"/>
<feGaussianBlur stdDeviation="7.5"/>
<feColorMatrix type="matrix" values="0 0 0 0 0 0 0 0 0 0 0 0 0 0 0 0 0 0 0.05 0"/>
<feBlend mode="normal" in2="BackgroundImageFix" result="effect1_dropShadow"/>
<feBlend mode="normal" in="SourceGraphic" in2="effect1_dropShadow" result="shape"/>
</filter>
<linearGradient id="paint0_linear" x1="109.588" y1="155.157" x2="226.867" y2="155.157" gradientUnits="userSpaceOnUse">
<stop stop-color="#2E256B"/>
<stop offset="1" stop-color="#5A3087"/>
</linearGradient>
<linearGradient id="paint1_linear" x1="28.204" y1="133.901" x2="226.857" y2="133.901" gradientUnits="userSpaceOnUse">
<stop stop-color="#483CA6"/>
<stop offset="1" stop-color="#59278F"/>
</linearGradient>
<linearGradient id="paint2_linear" x1="28.203" y1="129.109" x2="226.865" y2="129.109" gradientUnits="userSpaceOnUse">
<stop stop-color="#6A5EBF"/>
<stop offset="1" stop-color="#6E3AA5"/>
</linearGradient>
</defs>
</svg>
