<svg width="233" height="249" viewBox="0 0 233 249" fill="none" xmlns="http://www.w3.org/2000/svg">
<g filter="url(#filter0_d)">
<path fill-rule="evenodd" clip-rule="evenodd" d="M115.748 11.9368C140.171 8.81373 163.468 23.7277 182.277 39.616C200.116 54.6848 216.522 74.7365 217.702 98.0583C218.805 119.867 194.354 133.772 188.097 154.693C181.574 176.503 197.37 205.161 180.953 220.932C164.866 236.387 138.037 225.136 115.748 224.197C94.6054 223.306 72.2765 226.951 54.4167 215.6C36.0311 203.916 24.844 183.61 18.9076 162.65C13.1308 142.254 14.2125 120.449 21.8687 100.682C29.2369 81.6577 45.705 69.1989 60.5304 55.1843C77.9464 38.7209 91.9759 14.9767 115.748 11.9368Z" fill="white"/>
</g>
<path d="M119.865 201.54C148.137 201.54 171.056 188.307 171.056 171.982C171.056 155.658 148.137 142.424 119.865 142.424C91.5933 142.424 68.6743 155.658 68.6743 171.982C68.6743 188.307 91.5933 201.54 119.865 201.54Z" fill="#E3DFEA"/>
<path d="M153.018 162.627V167.933V168.669H152.997C152.867 170.206 152.369 171.722 151.459 173.173C151.351 173.346 151.243 173.52 151.134 173.693C150.052 175.274 148.493 176.789 146.457 178.132C146.349 178.197 146.24 178.284 146.132 178.349C145.807 178.565 145.483 178.76 145.136 178.955C143.988 179.626 142.754 180.211 141.455 180.731C141.347 180.774 141.238 180.817 141.13 180.86C139.636 181.445 138.077 181.922 136.453 182.311C136.344 182.333 136.236 182.376 136.128 182.398C134.612 182.744 133.031 183.026 131.45 183.199C131.342 183.221 131.234 183.221 131.126 183.242C129.588 183.416 128.007 183.502 126.448 183.524C126.34 183.524 126.232 183.524 126.123 183.524C124.564 183.524 122.984 183.459 121.446 183.286C121.338 183.286 121.23 183.264 121.121 183.242C119.541 183.069 117.96 182.831 116.444 182.485C116.336 182.463 116.227 182.441 116.119 182.42C114.495 182.051 112.936 181.597 111.442 181.034C111.334 180.99 111.225 180.947 111.117 180.904C109.644 180.341 108.259 179.691 106.959 178.933C106.786 178.825 106.613 178.738 106.44 178.63C106.331 178.565 106.223 178.5 106.115 178.435C104.144 177.179 102.585 175.793 101.437 174.342C101.329 174.191 101.221 174.039 101.113 173.909C99.9 172.242 99.2287 170.466 99.0988 168.669H98.9905V162.627H100.593C100.723 162.411 100.874 162.173 101.048 161.956C101.156 161.805 101.264 161.653 101.372 161.523C101.784 160.982 102.26 160.462 102.802 159.942C103.451 159.314 104.188 158.708 105.01 158.123C105.595 157.712 106.223 157.3 106.894 156.911C117.44 150.826 134.547 150.826 145.093 156.911C145.764 157.3 146.392 157.712 146.977 158.123C147.8 158.708 148.536 159.314 149.185 159.942C149.943 160.657 150.571 161.415 151.091 162.194C151.199 162.346 151.286 162.497 151.394 162.649H153.018V162.627Z" fill="#FF9D4D"/>
<path d="M125.994 152.666C133.161 152.666 139.874 154.269 144.941 157.192C145.591 157.582 146.219 157.972 146.803 158.383C147.605 158.946 148.341 159.553 148.969 160.18C149.683 160.873 150.333 161.61 150.853 162.368C150.939 162.498 151.048 162.649 151.134 162.801L151.221 162.952H151.394H152.672V167.933V168.344L152.65 168.647C152.52 170.142 152.022 171.614 151.156 173.022C151.069 173.173 150.961 173.346 150.831 173.52C149.748 175.1 148.189 176.573 146.24 177.872C146.132 177.937 146.024 178.024 145.916 178.089C145.591 178.284 145.266 178.5 144.92 178.695C143.793 179.345 142.581 179.929 141.282 180.449C141.173 180.492 141.065 180.536 140.957 180.579C139.484 181.142 137.925 181.64 136.323 182.03C136.214 182.051 136.106 182.073 135.998 182.116C134.504 182.463 132.945 182.723 131.364 182.918C131.256 182.939 131.147 182.939 131.039 182.961C129.502 183.134 127.942 183.221 126.405 183.242C126.297 183.242 126.188 183.242 126.08 183.242H125.994C124.456 183.242 122.94 183.156 121.424 183.026C121.316 183.026 121.208 183.004 121.1 182.983C119.519 182.809 117.96 182.571 116.466 182.225C116.357 182.203 116.249 182.181 116.141 182.16C114.517 181.792 112.958 181.337 111.507 180.796L111.463 180.774C111.377 180.731 111.269 180.709 111.182 180.666C109.709 180.103 108.345 179.453 107.068 178.717C106.894 178.608 106.721 178.522 106.548 178.414C106.44 178.349 106.331 178.284 106.223 178.219C104.317 177.006 102.78 175.663 101.632 174.191C101.524 174.061 101.416 173.931 101.308 173.758C100.138 172.134 99.4885 170.445 99.337 168.691L99.3153 168.388V163.017H100.593H100.766L100.853 162.866C100.983 162.649 101.134 162.433 101.286 162.216C101.372 162.086 101.481 161.934 101.611 161.783C102.022 161.263 102.498 160.744 103.018 160.224C103.668 159.596 104.404 158.989 105.184 158.426C105.768 158.015 106.396 157.604 107.046 157.235C112.113 154.269 118.848 152.666 125.994 152.666ZM125.994 152.342C119.086 152.342 112.156 153.857 106.894 156.911C106.223 157.3 105.595 157.712 105.01 158.123C104.188 158.708 103.451 159.314 102.802 159.942C102.26 160.462 101.784 160.982 101.372 161.523C101.264 161.675 101.156 161.826 101.048 161.956C100.896 162.173 100.744 162.389 100.593 162.627H98.9905V168.669H99.0121C99.1637 170.445 99.835 172.22 101.026 173.909C101.134 174.061 101.243 174.213 101.351 174.342C102.498 175.815 104.058 177.201 106.028 178.435C106.136 178.5 106.245 178.565 106.353 178.63C106.526 178.738 106.699 178.847 106.873 178.933C108.172 179.691 109.558 180.341 111.03 180.904C111.139 180.947 111.247 180.99 111.355 181.034C112.849 181.597 114.408 182.051 116.033 182.42C116.141 182.441 116.249 182.463 116.357 182.485C117.873 182.809 119.454 183.069 121.035 183.242C121.143 183.264 121.251 183.264 121.36 183.286C122.875 183.437 124.413 183.524 125.95 183.524C125.972 183.524 126.015 183.524 126.037 183.524C126.145 183.524 126.253 183.524 126.362 183.524C127.921 183.502 129.502 183.416 131.039 183.242C131.147 183.242 131.256 183.221 131.364 183.199C132.945 183.004 134.525 182.744 136.041 182.398C136.149 182.376 136.258 182.355 136.366 182.311C137.99 181.922 139.549 181.445 141.043 180.86C141.152 180.817 141.26 180.774 141.368 180.731C142.667 180.211 143.88 179.626 145.049 178.955C145.396 178.76 145.742 178.543 146.046 178.349C146.154 178.284 146.262 178.197 146.37 178.132C148.406 176.789 149.965 175.274 151.048 173.693C151.156 173.52 151.286 173.346 151.373 173.173C152.282 171.722 152.78 170.185 152.91 168.669H152.932V167.933V162.627H151.329C151.243 162.476 151.134 162.324 151.026 162.173C150.506 161.393 149.857 160.657 149.12 159.921C148.471 159.293 147.735 158.686 146.912 158.102C146.327 157.69 145.699 157.279 145.028 156.889C139.831 153.857 132.923 152.342 125.994 152.342Z" fill="#FFE840"/>
<path d="M125.993 178.067C140.919 178.067 153.018 171.087 153.018 162.476C153.018 153.865 140.919 146.885 125.993 146.885C111.068 146.885 98.9688 153.865 98.9688 162.476C98.9688 171.087 111.068 178.067 125.993 178.067Z" fill="#FFE840"/>
<path d="M149.207 159.942C148.341 157.257 146.11 154.81 142.689 152.84C138.228 150.263 132.295 148.855 125.993 148.855C119.692 148.855 113.759 150.263 109.298 152.84C105.898 154.81 103.646 157.279 102.78 159.942C102.52 160.765 102.368 161.61 102.368 162.476C102.368 165.096 103.646 167.608 106.028 169.773C106.136 169.882 106.245 169.968 106.353 170.055C107.197 170.791 108.193 171.484 109.276 172.112C109.839 172.437 110.424 172.74 111.009 173.022C111.117 173.065 111.225 173.13 111.333 173.173C112.784 173.844 114.365 174.386 116.011 174.841C116.119 174.862 116.227 174.905 116.336 174.927C117.83 175.317 119.389 175.598 121.013 175.793C121.121 175.815 121.229 175.815 121.338 175.837C122.832 176.01 124.369 176.096 125.928 176.096H126.015C126.123 176.096 126.232 176.096 126.34 176.096C127.921 176.075 129.501 175.967 131.017 175.793C131.125 175.772 131.234 175.772 131.342 175.75C132.966 175.533 134.525 175.209 136.019 174.819C136.128 174.797 136.236 174.754 136.344 174.732C138.012 174.256 139.571 173.671 141.022 172.978C141.13 172.935 141.238 172.87 141.346 172.827C141.779 172.61 142.191 172.394 142.602 172.155C143.923 171.397 145.071 170.553 146.024 169.665C146.132 169.557 146.24 169.449 146.349 169.34C148.406 167.283 149.51 164.944 149.51 162.519C149.597 161.61 149.467 160.765 149.207 159.942ZM146.435 167.63C146.327 167.76 146.219 167.911 146.11 168.041C145.049 169.319 143.598 170.51 141.779 171.571C141.671 171.636 141.563 171.701 141.433 171.766C141.325 171.831 141.216 171.896 141.108 171.939C139.679 172.697 138.098 173.346 136.431 173.844C136.323 173.888 136.214 173.909 136.106 173.953C134.612 174.386 133.031 174.732 131.429 174.949C131.32 174.97 131.212 174.97 131.104 174.992C129.566 175.209 128.007 175.317 126.426 175.317C126.318 175.317 126.21 175.317 126.102 175.317C124.543 175.317 122.962 175.23 121.424 175.035C121.316 175.014 121.208 175.014 121.099 174.992C119.497 174.776 117.938 174.472 116.422 174.061C116.314 174.039 116.206 173.996 116.097 173.974C114.452 173.498 112.871 172.892 111.42 172.177C111.312 172.112 111.203 172.069 111.095 172.004C110.814 171.852 110.532 171.701 110.272 171.549C108.713 170.64 107.414 169.643 106.418 168.561C106.31 168.431 106.201 168.323 106.093 168.193C103.365 165.031 103.018 161.371 105.054 158.08C106.136 156.348 107.869 154.724 110.272 153.316C118.977 148.292 133.118 148.292 141.823 153.316C144.226 154.702 145.959 156.326 147.041 158.08C148.882 161.198 148.709 164.62 146.435 167.63Z" fill="#FF9D4D"/>
<path d="M126.86 160.267L129.393 161.74C129.328 161.761 129.285 161.805 129.22 161.826L127.834 162.627L125.452 161.263L126.232 160.808C126.535 160.657 126.73 160.462 126.86 160.267Z" fill="#D1975D"/>
<path d="M134.482 166.46L137.081 167.954L138.64 167.045L136.019 165.529C136.041 165.507 136.063 165.507 136.084 165.486C136.193 165.421 136.301 165.334 136.409 165.269C136.777 165.009 137.102 164.728 137.362 164.446C137.795 163.992 138.077 163.537 138.185 163.082C138.315 162.627 138.25 162.173 138.012 161.74C137.773 161.307 137.34 160.895 136.691 160.527C136.582 160.462 136.496 160.419 136.388 160.375C136.279 160.31 136.171 160.267 136.063 160.224C135.218 159.834 134.33 159.596 133.378 159.531C132.706 159.488 132.057 159.509 131.385 159.596C131.277 159.617 131.169 159.639 131.061 159.639C130.671 159.704 130.259 159.812 129.87 159.921C130.281 159.314 130.346 158.708 130.065 158.123C129.783 157.517 129.263 156.997 128.505 156.564C128.029 156.283 127.466 156.066 126.816 155.893C126.167 155.72 125.517 155.611 124.846 155.568C124.175 155.525 123.503 155.568 122.832 155.698C122.161 155.806 121.554 156.023 121.013 156.348L120.515 156.629L118.003 155.178L116.444 156.088L118.956 157.539L117.072 158.643L114.56 157.192L113.001 158.102L115.513 159.553L112.741 161.155L116.054 163.061L116.379 163.255L121.056 165.962L121.381 166.157L126.058 168.864L126.383 169.059L128.202 170.12L130.996 168.517L133.594 170.012L135.153 169.102L132.555 167.586L134.482 166.46ZM129.242 161.826C129.307 161.805 129.35 161.761 129.415 161.74C129.631 161.631 129.87 161.566 130.129 161.501C130.433 161.436 130.757 161.415 131.104 161.436C131.126 161.436 131.147 161.436 131.147 161.436C131.234 161.436 131.342 161.458 131.429 161.458C131.689 161.48 131.948 161.523 132.187 161.61C132.533 161.696 132.858 161.826 133.118 161.978C133.399 162.129 133.594 162.324 133.746 162.519C133.897 162.714 133.962 162.931 133.984 163.125C133.984 163.32 133.919 163.537 133.789 163.732C133.702 163.862 133.594 163.97 133.464 164.078C133.399 164.122 133.313 164.187 133.248 164.23C133.226 164.252 133.204 164.252 133.183 164.273L131.992 164.966L131.948 164.988L131.45 165.269L131.126 165.464L130.065 166.07L128.722 166.85L124.651 164.49L125.084 164.23L125.972 163.71L126.102 163.645L126.427 163.45L127.856 162.627L129.242 161.826ZM121.078 159.293L121.403 159.098L121.554 159.011L122.464 158.491C122.507 158.47 122.572 158.448 122.637 158.405C122.832 158.318 123.027 158.232 123.243 158.188C123.547 158.123 123.871 158.08 124.218 158.102C124.867 158.123 125.495 158.275 126.08 158.621C126.102 158.621 126.102 158.643 126.123 158.643C126.232 158.708 126.318 158.773 126.405 158.838C126.816 159.141 127.033 159.444 127.011 159.791C127.011 159.964 126.946 160.137 126.86 160.31C126.751 160.462 126.6 160.614 126.405 160.744C126.362 160.787 126.297 160.808 126.253 160.852L126.08 160.96L125.474 161.307L123.568 162.411L123.048 162.714L122.226 163.19L121.771 162.931L121.273 162.649L121.056 162.519L120.103 161.978L118.328 160.96L118.826 160.679L119.67 160.202L121.078 159.293Z" fill="#FF9D4D"/>
<path d="M102.065 169.557V175.014C101.957 174.862 101.849 174.711 101.74 174.581V169.102C101.849 169.275 101.957 169.427 102.065 169.557Z" fill="#FFE840"/>
<path d="M106.375 173.195V178.673C106.266 178.608 106.158 178.543 106.05 178.478V173C106.158 173.043 106.266 173.13 106.375 173.195Z" fill="#FFE840"/>
<path d="M111.377 175.598V181.077C111.268 181.034 111.16 180.99 111.052 180.947V175.469C111.16 175.512 111.268 175.555 111.377 175.598Z" fill="#FFE840"/>
<path d="M116.401 177.049V182.528C116.292 182.506 116.184 182.485 116.076 182.463V176.984C116.162 177.006 116.292 177.028 116.401 177.049Z" fill="#FFE840"/>
<path d="M121.403 177.829V183.307C121.294 183.307 121.186 183.286 121.078 183.264V177.786C121.186 177.807 121.294 177.829 121.403 177.829Z" fill="#FFE840"/>
<path d="M126.405 178.067V183.546C126.297 183.546 126.188 183.546 126.08 183.546V178.067C126.188 178.067 126.297 178.067 126.405 178.067Z" fill="#FFE840"/>
<path d="M131.407 177.742V183.221C131.299 183.243 131.191 183.243 131.082 183.264V177.786C131.191 177.786 131.299 177.764 131.407 177.742Z" fill="#FFE840"/>
<path d="M136.431 176.854V182.333C136.323 182.355 136.214 182.398 136.106 182.42V176.941C136.193 176.919 136.323 176.898 136.431 176.854Z" fill="#FFE840"/>
<path d="M141.433 175.274V180.752C141.325 180.795 141.216 180.839 141.108 180.882V175.404C141.216 175.36 141.325 175.317 141.433 175.274Z" fill="#FFE840"/>
<path d="M146.435 172.675V178.154C146.327 178.219 146.219 178.305 146.11 178.37V172.892C146.219 172.805 146.327 172.74 146.435 172.675Z" fill="#FFE840"/>
<path d="M150.874 168.258V173.736C150.766 173.909 150.658 174.083 150.55 174.256V168.777C150.658 168.604 150.766 168.431 150.874 168.258Z" fill="#FFE840"/>
<path d="M170.428 158.427V163.732V164.468H170.407C170.277 166.006 169.779 167.521 168.869 168.972C168.761 169.145 168.653 169.319 168.545 169.492C167.462 171.073 165.903 172.589 163.867 173.931C163.759 173.996 163.651 174.083 163.542 174.148C163.218 174.364 162.893 174.559 162.546 174.754C161.399 175.425 160.164 176.01 158.865 176.53C158.757 176.573 158.648 176.616 158.54 176.66C157.046 177.244 155.487 177.721 153.863 178.11C153.755 178.132 153.646 178.175 153.538 178.197C152.022 178.543 150.441 178.825 148.861 178.998C148.752 179.02 148.644 179.02 148.536 179.042C146.998 179.215 145.418 179.301 143.859 179.323C143.75 179.323 143.642 179.323 143.534 179.323C141.975 179.323 140.394 179.258 138.856 179.085C138.748 179.085 138.64 179.063 138.532 179.042C136.951 178.868 135.37 178.63 133.854 178.284C133.746 178.262 133.638 178.24 133.529 178.219C131.905 177.851 130.346 177.396 128.852 176.833C128.744 176.789 128.635 176.746 128.527 176.703C127.055 176.14 125.669 175.49 124.37 174.732C124.196 174.624 124.023 174.537 123.85 174.429C123.742 174.364 123.633 174.299 123.525 174.234C121.554 172.978 119.995 171.592 118.848 170.142C118.739 169.99 118.631 169.838 118.523 169.708C117.31 168.041 116.639 166.265 116.509 164.468H116.487V158.427H118.09C118.22 158.21 118.371 157.972 118.544 157.755C118.653 157.604 118.761 157.452 118.869 157.322C119.281 156.781 119.757 156.261 120.298 155.741C120.948 155.113 121.684 154.507 122.507 153.922C123.092 153.511 123.72 153.1 124.391 152.71C134.937 146.625 152.044 146.625 162.59 152.71C163.261 153.1 163.889 153.511 164.474 153.922C165.296 154.507 166.033 155.113 166.682 155.741C167.44 156.456 168.068 157.214 168.588 157.993C168.696 158.145 168.783 158.297 168.891 158.448H170.428V158.427Z" fill="#FF9D4D"/>
<path d="M143.404 148.466C150.571 148.466 157.284 150.068 162.351 152.991C163.001 153.381 163.629 153.771 164.214 154.182C165.015 154.745 165.751 155.352 166.379 155.98C167.094 156.673 167.743 157.409 168.263 158.167C168.35 158.297 168.458 158.448 168.545 158.6L168.631 158.751H168.804H170.082V163.732V164.143L170.06 164.446C169.93 165.941 169.432 167.413 168.566 168.821C168.48 168.972 168.371 169.146 168.241 169.319C167.159 170.9 165.6 172.372 163.651 173.671C163.542 173.736 163.434 173.823 163.326 173.888C163.001 174.083 162.676 174.299 162.33 174.494C161.204 175.144 159.991 175.728 158.692 176.248C158.583 176.291 158.475 176.335 158.367 176.378C156.894 176.941 155.335 177.439 153.733 177.829C153.625 177.851 153.516 177.872 153.408 177.916C151.914 178.262 150.355 178.522 148.774 178.717C148.666 178.738 148.557 178.738 148.449 178.76C146.912 178.933 145.353 179.02 143.815 179.042C143.707 179.042 143.599 179.042 143.49 179.042H143.404C141.866 179.042 140.35 178.955 138.835 178.825C138.726 178.825 138.618 178.803 138.51 178.782C136.929 178.608 135.37 178.37 133.876 178.024C133.767 178.002 133.659 177.981 133.551 177.959C131.927 177.591 130.368 177.136 128.917 176.595L128.874 176.573C128.787 176.53 128.679 176.508 128.592 176.465C127.12 175.902 125.755 175.252 124.478 174.516C124.305 174.408 124.131 174.321 123.958 174.213C123.85 174.148 123.741 174.083 123.633 174.018C121.728 172.805 120.19 171.463 119.042 169.99C118.934 169.86 118.826 169.73 118.718 169.557C117.548 167.933 116.899 166.244 116.747 164.49L116.725 164.187V158.816H118.003H118.176L118.263 158.665C118.393 158.448 118.544 158.232 118.696 158.015C118.783 157.885 118.891 157.734 119.021 157.582C119.432 157.062 119.909 156.543 120.428 156.023C121.078 155.395 121.814 154.789 122.594 154.226C123.178 153.814 123.806 153.403 124.456 153.035C129.523 150.068 136.258 148.466 143.404 148.466ZM143.404 148.119C136.496 148.119 129.567 149.635 124.305 152.688C123.633 153.078 123.005 153.489 122.421 153.901C121.598 154.485 120.861 155.092 120.212 155.72C119.67 156.239 119.194 156.759 118.783 157.301C118.674 157.452 118.566 157.604 118.458 157.734C118.306 157.95 118.155 158.167 118.003 158.405H116.401V164.446H116.422C116.574 166.222 117.245 167.998 118.436 169.687C118.544 169.838 118.653 169.99 118.761 170.12C119.909 171.592 121.468 172.978 123.438 174.213C123.547 174.278 123.655 174.343 123.763 174.408C123.936 174.516 124.11 174.624 124.283 174.711C125.582 175.469 126.968 176.118 128.441 176.681C128.549 176.725 128.657 176.768 128.765 176.811C130.259 177.374 131.819 177.829 133.443 178.197C133.551 178.219 133.659 178.24 133.767 178.262C135.283 178.587 136.864 178.847 138.445 179.02C138.553 179.042 138.661 179.042 138.77 179.063C140.285 179.215 141.823 179.301 143.36 179.301C143.382 179.301 143.425 179.301 143.447 179.301C143.555 179.301 143.664 179.301 143.772 179.301C145.331 179.28 146.912 179.193 148.449 179.02C148.557 179.02 148.666 178.998 148.774 178.977C150.355 178.782 151.936 178.522 153.451 178.175C153.56 178.154 153.668 178.132 153.776 178.089C155.4 177.699 156.959 177.223 158.454 176.638C158.562 176.595 158.67 176.551 158.778 176.508C160.078 175.988 161.29 175.404 162.46 174.732C162.806 174.537 163.153 174.321 163.456 174.126C163.564 174.061 163.672 173.974 163.781 173.909C165.816 172.567 167.375 171.051 168.458 169.47C168.566 169.297 168.696 169.124 168.783 168.951C169.692 167.5 170.19 165.962 170.32 164.446H170.342V163.71V158.405H168.739C168.653 158.253 168.545 158.102 168.436 157.95C167.917 157.171 167.267 156.434 166.531 155.698C165.881 155.07 165.145 154.464 164.322 153.879C163.737 153.468 163.109 153.056 162.438 152.666C157.241 149.657 150.333 148.119 143.404 148.119Z" fill="#FFE840"/>
<path d="M143.404 173.845C158.329 173.845 170.428 166.864 170.428 158.253C170.428 149.643 158.329 142.662 143.404 142.662C128.478 142.662 116.379 149.643 116.379 158.253C116.379 166.864 128.478 173.845 143.404 173.845Z" fill="#FFE840"/>
<path d="M166.617 155.72C165.751 153.035 163.521 150.588 160.099 148.617C155.638 146.04 149.705 144.633 143.404 144.633C137.102 144.633 131.169 146.04 126.708 148.617C123.308 150.588 121.056 153.056 120.19 155.72C119.93 156.543 119.779 157.387 119.779 158.253C119.779 160.873 121.056 163.385 123.417 165.551C123.525 165.659 123.633 165.746 123.741 165.832C124.586 166.569 125.582 167.262 126.665 167.89C127.228 168.214 127.812 168.517 128.397 168.799C128.505 168.842 128.614 168.907 128.722 168.951C130.173 169.622 131.753 170.163 133.399 170.618C133.507 170.64 133.616 170.683 133.724 170.705C135.218 171.094 136.777 171.376 138.401 171.571C138.51 171.592 138.618 171.592 138.726 171.614C140.22 171.787 141.758 171.874 143.317 171.874H143.404C143.512 171.874 143.62 171.874 143.728 171.874C145.309 171.852 146.89 171.744 148.406 171.571C148.514 171.549 148.622 171.549 148.731 171.527C150.355 171.311 151.914 170.986 153.408 170.596C153.516 170.575 153.624 170.531 153.733 170.51C155.4 170.033 156.959 169.449 158.41 168.756C158.518 168.712 158.627 168.647 158.735 168.604C159.168 168.388 159.579 168.171 159.991 167.933C161.312 167.175 162.459 166.33 163.412 165.443C163.521 165.334 163.629 165.226 163.737 165.118C165.794 163.061 166.899 160.722 166.899 158.297C167.007 157.387 166.877 156.543 166.617 155.72ZM163.845 163.407C163.737 163.537 163.629 163.689 163.521 163.818C162.459 165.096 161.009 166.287 159.19 167.348C159.081 167.413 158.973 167.478 158.843 167.543C158.735 167.608 158.627 167.673 158.518 167.716C157.089 168.474 155.508 169.124 153.841 169.622C153.733 169.665 153.624 169.687 153.516 169.73C152.022 170.163 150.441 170.51 148.839 170.726C148.731 170.748 148.622 170.748 148.514 170.77C146.977 170.986 145.417 171.094 143.837 171.094C143.728 171.094 143.62 171.094 143.512 171.094C141.953 171.094 140.372 171.008 138.834 170.813C138.726 170.791 138.618 170.791 138.51 170.77C136.907 170.553 135.348 170.25 133.832 169.838C133.724 169.817 133.616 169.773 133.507 169.752C131.862 169.275 130.281 168.669 128.83 167.954C128.722 167.89 128.614 167.846 128.505 167.781C128.224 167.63 127.942 167.478 127.682 167.327C126.123 166.417 124.824 165.421 123.828 164.338C123.72 164.208 123.611 164.1 123.503 163.97C120.775 160.809 120.428 157.149 122.464 153.857C123.546 152.125 125.279 150.501 127.682 149.093C136.388 144.07 150.528 144.07 159.233 149.093C161.637 150.479 163.369 152.103 164.452 153.857C166.314 156.976 166.119 160.397 163.845 163.407Z" fill="#FF9D4D"/>
<path d="M119.497 165.356V170.813C119.389 170.661 119.281 170.51 119.172 170.38V164.901C119.259 165.053 119.367 165.204 119.497 165.356Z" fill="#FFE840"/>
<path d="M123.785 168.972V174.451C123.677 174.386 123.568 174.321 123.46 174.256V168.777C123.568 168.842 123.677 168.907 123.785 168.972Z" fill="#FFE840"/>
<path d="M128.787 171.376V176.854C128.679 176.811 128.57 176.768 128.462 176.725V171.246C128.57 171.289 128.679 171.333 128.787 171.376Z" fill="#FFE840"/>
<path d="M133.811 172.827V178.305C133.702 178.284 133.594 178.262 133.486 178.24V172.762C133.594 172.783 133.702 172.805 133.811 172.827Z" fill="#FFE840"/>
<path d="M138.813 173.628V179.106C138.705 179.106 138.596 179.085 138.488 179.063V173.585C138.596 173.606 138.705 173.606 138.813 173.628Z" fill="#FFE840"/>
<path d="M143.815 173.844V179.323C143.707 179.323 143.599 179.323 143.49 179.323V173.844C143.599 173.844 143.707 173.844 143.815 173.844Z" fill="#FFE840"/>
<path d="M148.839 173.541V179.02C148.731 179.042 148.622 179.042 148.514 179.063V173.585C148.601 173.563 148.709 173.541 148.839 173.541Z" fill="#FFE840"/>
<path d="M153.841 172.654V178.132C153.733 178.154 153.625 178.197 153.516 178.219V172.74C153.625 172.697 153.733 172.675 153.841 172.654Z" fill="#FFE840"/>
<path d="M158.843 171.051V176.53C158.735 176.573 158.627 176.616 158.519 176.659V171.181C158.627 171.138 158.735 171.094 158.843 171.051Z" fill="#FFE840"/>
<path d="M163.845 168.453V173.931C163.737 173.996 163.629 174.083 163.521 174.148V168.669C163.629 168.604 163.737 168.518 163.845 168.453Z" fill="#FFE840"/>
<path d="M168.285 164.035V169.514C168.176 169.687 168.068 169.86 167.96 170.033V164.555C168.068 164.382 168.198 164.208 168.285 164.035Z" fill="#FFE840"/>
<path d="M151.199 147.534V152.84V153.576H151.178C151.048 155.113 150.55 156.629 149.64 158.08C149.532 158.253 149.424 158.427 149.315 158.6C148.233 160.181 146.673 161.696 144.638 163.039C144.53 163.104 144.421 163.191 144.313 163.255C143.988 163.472 143.664 163.667 143.317 163.862C142.169 164.533 140.935 165.118 139.636 165.637C139.528 165.681 139.419 165.724 139.311 165.767C137.817 166.352 136.258 166.828 134.634 167.218C134.525 167.24 134.417 167.283 134.309 167.305C132.793 167.651 131.212 167.933 129.631 168.106C129.523 168.128 129.415 168.128 129.307 168.149C127.769 168.323 126.188 168.409 124.629 168.431C124.521 168.431 124.413 168.431 124.304 168.431C122.745 168.431 121.165 168.366 119.627 168.193C119.519 168.193 119.411 168.171 119.302 168.149C117.721 167.976 116.141 167.738 114.625 167.391C114.517 167.37 114.408 167.348 114.3 167.326C112.676 166.958 111.117 166.504 109.623 165.941C109.514 165.897 109.406 165.854 109.298 165.811C107.825 165.248 106.44 164.598 105.14 163.84C104.967 163.732 104.794 163.645 104.621 163.537C104.512 163.472 104.404 163.407 104.296 163.342C102.325 162.086 100.766 160.7 99.6184 159.249C99.5101 159.098 99.4018 158.946 99.2936 158.816C98.0809 157.149 97.4096 155.373 97.2797 153.576H97.2581V147.534H98.8605C98.9904 147.318 99.142 147.08 99.3152 146.863C99.4235 146.711 99.5318 146.56 99.64 146.43C100.051 145.889 100.528 145.369 101.069 144.849C101.719 144.221 102.455 143.615 103.278 143.03C103.863 142.619 104.491 142.207 105.162 141.818C115.708 135.733 132.815 135.733 143.36 141.818C144.032 142.207 144.66 142.619 145.244 143.03C146.067 143.615 146.803 144.221 147.453 144.849C148.211 145.564 148.839 146.322 149.359 147.101C149.467 147.253 149.554 147.404 149.662 147.556H151.199V147.534Z" fill="#FF9D4D"/>
<path d="M124.175 137.573C131.342 137.573 138.055 139.176 143.122 142.099C143.772 142.489 144.4 142.879 144.985 143.29C145.786 143.853 146.522 144.459 147.15 145.087C147.865 145.78 148.514 146.517 149.034 147.275C149.121 147.404 149.229 147.556 149.315 147.708L149.402 147.859H149.575H150.853V152.84V153.251L150.831 153.554C150.701 155.048 150.203 156.521 149.337 157.929C149.251 158.08 149.142 158.253 149.012 158.427C147.93 160.007 146.37 161.48 144.422 162.779C144.313 162.844 144.205 162.931 144.097 162.996C143.772 163.191 143.447 163.407 143.101 163.602C141.975 164.252 140.762 164.836 139.463 165.356C139.354 165.399 139.246 165.443 139.138 165.486C137.665 166.049 136.106 166.547 134.504 166.937C134.396 166.958 134.287 166.98 134.179 167.023C132.685 167.37 131.126 167.63 129.545 167.825C129.437 167.846 129.328 167.846 129.22 167.868C127.683 168.041 126.124 168.128 124.586 168.149C124.478 168.149 124.37 168.149 124.261 168.149H124.175C122.637 168.149 121.121 168.063 119.606 167.933C119.497 167.933 119.389 167.911 119.281 167.89C117.7 167.716 116.141 167.478 114.647 167.132C114.538 167.11 114.43 167.088 114.322 167.067C112.698 166.699 111.139 166.244 109.688 165.702L109.645 165.681C109.558 165.637 109.45 165.616 109.363 165.573C107.891 165.01 106.526 164.36 105.249 163.624C105.075 163.515 104.902 163.429 104.729 163.32C104.621 163.255 104.512 163.191 104.404 163.126C102.499 161.913 100.961 160.57 99.8135 159.098C99.7052 158.968 99.5969 158.838 99.4887 158.665C98.3193 157.041 97.6697 155.352 97.5181 153.598L97.4964 153.294V147.924H98.7741H98.9473L99.0339 147.773C99.1638 147.556 99.3154 147.339 99.467 147.123C99.5536 146.993 99.6619 146.841 99.7918 146.69C100.203 146.17 100.68 145.65 101.199 145.131C101.849 144.503 102.585 143.896 103.365 143.333C103.949 142.922 104.577 142.511 105.227 142.142C110.294 139.176 117.029 137.573 124.175 137.573ZM124.175 137.227C117.267 137.227 110.338 138.743 105.075 141.796C104.404 142.186 103.776 142.597 103.192 143.009C102.369 143.593 101.632 144.2 100.983 144.828C100.441 145.347 99.9651 145.867 99.5536 146.408C99.4453 146.56 99.3371 146.712 99.2288 146.841C99.0772 147.058 98.9256 147.275 98.7741 147.513H97.1716V153.554H97.1933C97.3449 155.33 98.0162 157.106 99.2071 158.795C99.3154 158.946 99.4237 159.098 99.532 159.228C100.68 160.7 102.239 162.086 104.209 163.32C104.318 163.385 104.426 163.45 104.534 163.515C104.707 163.624 104.881 163.732 105.054 163.819C106.353 164.576 107.739 165.226 109.211 165.789C109.32 165.832 109.428 165.876 109.536 165.919C111.03 166.482 112.59 166.937 114.214 167.305C114.322 167.327 114.43 167.348 114.538 167.37C116.054 167.695 117.635 167.955 119.216 168.128C119.324 168.149 119.432 168.149 119.541 168.171C121.056 168.323 122.594 168.409 124.131 168.409C124.153 168.409 124.196 168.409 124.218 168.409C124.326 168.409 124.435 168.409 124.543 168.409C126.102 168.388 127.683 168.301 129.22 168.128C129.328 168.128 129.437 168.106 129.545 168.084C131.126 167.89 132.707 167.63 134.222 167.283C134.331 167.262 134.439 167.24 134.547 167.197C136.171 166.807 137.73 166.33 139.225 165.746C139.333 165.702 139.441 165.659 139.549 165.616C140.849 165.096 142.061 164.511 143.231 163.84C143.577 163.645 143.924 163.429 144.227 163.234C144.335 163.169 144.443 163.082 144.552 163.017C146.587 161.675 148.146 160.159 149.229 158.578C149.337 158.405 149.467 158.232 149.554 158.058C150.463 156.608 150.961 155.07 151.091 153.554H151.113V152.818V147.513H149.51C149.424 147.361 149.315 147.21 149.207 147.058C148.688 146.278 148.038 145.542 147.302 144.806C146.652 144.178 145.916 143.572 145.093 142.987C144.508 142.576 143.88 142.164 143.209 141.774C138.012 138.764 131.082 137.227 124.175 137.227Z" fill="#FFE840"/>
<path d="M124.175 162.952C139.1 162.952 151.199 155.972 151.199 147.361C151.199 138.75 139.1 131.77 124.175 131.77C109.249 131.77 97.1499 138.75 97.1499 147.361C97.1499 155.972 109.249 162.952 124.175 162.952Z" fill="#FFE840"/>
<path d="M147.367 144.828C146.5 142.142 144.27 139.695 140.849 137.725C136.388 135.148 130.455 133.74 124.153 133.74C117.852 133.74 111.918 135.148 107.457 137.725C104.058 139.695 101.806 142.164 100.94 144.828C100.68 145.65 100.528 146.495 100.528 147.361C100.528 149.981 101.806 152.493 104.188 154.659C104.296 154.767 104.404 154.854 104.512 154.94C105.357 155.676 106.353 156.369 107.436 156.997C107.999 157.322 108.584 157.625 109.168 157.907C109.276 157.95 109.385 158.015 109.493 158.058C110.944 158.73 112.525 159.271 114.17 159.726C114.279 159.747 114.387 159.791 114.495 159.812C115.989 160.202 117.548 160.484 119.173 160.679C119.281 160.7 119.389 160.7 119.497 160.722C120.992 160.895 122.529 160.982 124.088 160.982H124.175C124.283 160.982 124.391 160.982 124.5 160.982C126.08 160.96 127.661 160.852 129.177 160.679C129.285 160.657 129.393 160.657 129.502 160.635C131.126 160.419 132.685 160.094 134.179 159.704C134.287 159.682 134.396 159.639 134.504 159.617C136.171 159.141 137.73 158.556 139.181 157.863C139.29 157.82 139.398 157.755 139.506 157.712C139.939 157.495 140.351 157.279 140.762 157.041C142.083 156.283 143.231 155.438 144.183 154.55C144.292 154.442 144.4 154.334 144.508 154.226C146.565 152.168 147.67 149.83 147.67 147.404C147.778 146.495 147.648 145.65 147.367 144.828ZM144.617 152.515C144.508 152.645 144.4 152.796 144.292 152.926C143.231 154.204 141.78 155.395 139.961 156.456C139.853 156.521 139.744 156.586 139.614 156.651C139.506 156.716 139.398 156.781 139.29 156.824C137.86 157.582 136.28 158.232 134.612 158.73C134.504 158.773 134.396 158.795 134.287 158.838C132.793 159.271 131.212 159.617 129.61 159.834C129.502 159.856 129.393 159.856 129.285 159.877C127.748 160.094 126.189 160.202 124.608 160.202C124.5 160.202 124.391 160.202 124.283 160.202C122.724 160.202 121.143 160.116 119.606 159.921C119.497 159.899 119.389 159.899 119.281 159.877C117.678 159.661 116.119 159.358 114.603 158.946C114.495 158.925 114.387 158.881 114.279 158.86C112.633 158.383 111.052 157.777 109.601 157.062C109.493 156.997 109.385 156.954 109.276 156.889C108.995 156.737 108.713 156.586 108.454 156.434C106.894 155.525 105.595 154.529 104.599 153.446C104.491 153.316 104.383 153.208 104.274 153.078C101.546 149.916 101.199 146.257 103.235 142.965C104.318 141.233 106.05 139.609 108.454 138.201C117.159 133.177 131.299 133.177 140.004 138.201C142.408 139.587 144.14 141.211 145.223 142.965C147.063 146.083 146.89 149.505 144.617 152.515Z" fill="#FF9D4D"/>
<path d="M125.041 145.152L127.574 146.625C127.509 146.647 127.466 146.69 127.401 146.711L126.015 147.513L123.633 146.148L124.413 145.694C124.716 145.542 124.911 145.369 125.041 145.152Z" fill="#D1975D"/>
<path d="M132.641 151.346L135.24 152.84L136.799 151.93L134.179 150.414C134.201 150.393 134.222 150.393 134.244 150.371C134.352 150.306 134.46 150.22 134.569 150.155C134.937 149.895 135.262 149.613 135.521 149.332C135.955 148.877 136.236 148.422 136.344 147.967C136.474 147.513 136.409 147.058 136.171 146.625C135.933 146.192 135.5 145.78 134.85 145.412C134.742 145.347 134.655 145.304 134.547 145.261C134.439 145.196 134.33 145.152 134.222 145.109C133.378 144.719 132.49 144.481 131.537 144.416C130.866 144.373 130.216 144.394 129.545 144.481C129.437 144.503 129.328 144.524 129.22 144.524C128.83 144.589 128.419 144.698 128.029 144.806C128.44 144.2 128.505 143.593 128.224 143.009C127.942 142.402 127.423 141.883 126.665 141.449C126.188 141.168 125.625 140.951 124.976 140.778C124.326 140.605 123.677 140.497 123.005 140.453C122.334 140.41 121.663 140.453 120.991 140.583C120.32 140.692 119.714 140.908 119.172 141.233L118.674 141.514L116.162 140.064L114.603 140.973L117.115 142.424L115.231 143.528L112.719 142.077L111.16 142.987L113.672 144.438L110.9 146.04L114.214 147.946L114.538 148.141L119.216 150.848L119.541 151.042L124.218 153.749L124.543 153.944L126.362 155.005L129.155 153.403L131.754 154.897L133.313 153.987L130.714 152.472L132.641 151.346ZM127.423 146.712C127.488 146.69 127.531 146.647 127.596 146.625C127.813 146.517 128.051 146.452 128.311 146.387C128.614 146.322 128.939 146.3 129.285 146.322C129.307 146.322 129.328 146.322 129.328 146.322C129.415 146.322 129.523 146.343 129.61 146.343C129.87 146.365 130.13 146.408 130.368 146.495C130.714 146.582 131.039 146.712 131.299 146.863C131.58 147.015 131.775 147.21 131.927 147.404C132.078 147.599 132.143 147.816 132.165 148.011C132.165 148.206 132.1 148.422 131.97 148.617C131.884 148.747 131.775 148.855 131.645 148.964C131.58 149.007 131.494 149.072 131.429 149.115C131.407 149.137 131.385 149.137 131.364 149.158L130.173 149.851L130.13 149.873L129.631 150.155L129.307 150.349L128.246 150.956L126.903 151.735L122.832 149.375L123.265 149.115L124.153 148.595L124.283 148.53L124.608 148.336L126.037 147.513L127.423 146.712ZM119.237 144.178L119.562 143.983L119.714 143.896L120.623 143.377C120.667 143.355 120.732 143.333 120.796 143.29C120.991 143.203 121.186 143.117 121.403 143.074C121.706 143.009 122.031 142.965 122.377 142.987C123.027 143.009 123.655 143.16 124.24 143.507C124.261 143.507 124.261 143.528 124.283 143.528C124.391 143.593 124.478 143.658 124.564 143.723C124.976 144.026 125.192 144.33 125.171 144.676C125.171 144.849 125.106 145.022 125.019 145.196C124.911 145.347 124.759 145.499 124.564 145.629C124.521 145.672 124.456 145.694 124.413 145.737L124.24 145.845L123.633 146.192L121.728 147.296L121.208 147.599L120.385 148.076L119.93 147.816L119.432 147.534L119.216 147.404L118.263 146.863L116.487 145.845L116.985 145.564L117.83 145.087L119.237 144.178Z" fill="#FF9D4D"/>
<path d="M100.246 154.464V159.921C100.138 159.769 100.03 159.617 99.9216 159.488V154.009C100.03 154.161 100.138 154.312 100.246 154.464Z" fill="#FFE840"/>
<path d="M104.556 158.08V163.559C104.448 163.494 104.339 163.429 104.231 163.364V157.885C104.339 157.95 104.448 158.015 104.556 158.08Z" fill="#FFE840"/>
<path d="M109.558 160.484V165.962C109.45 165.919 109.341 165.876 109.233 165.832V160.354C109.341 160.397 109.45 160.44 109.558 160.484Z" fill="#FFE840"/>
<path d="M114.56 161.934V167.413C114.452 167.391 114.343 167.37 114.235 167.348V161.87C114.343 161.891 114.452 161.913 114.56 161.934Z" fill="#FFE840"/>
<path d="M119.584 162.736V168.214C119.476 168.214 119.367 168.193 119.259 168.171V162.692C119.346 162.714 119.476 162.714 119.584 162.736Z" fill="#FFE840"/>
<path d="M124.586 162.952V168.431C124.478 168.431 124.37 168.431 124.261 168.431V162.952C124.37 162.952 124.478 162.952 124.586 162.952Z" fill="#FFE840"/>
<path d="M129.588 162.649V168.128C129.48 168.149 129.372 168.149 129.263 168.171V162.693C129.372 162.671 129.48 162.649 129.588 162.649Z" fill="#FFE840"/>
<path d="M134.59 161.761V167.24C134.482 167.262 134.374 167.305 134.266 167.327V161.848C134.374 161.805 134.482 161.783 134.59 161.761Z" fill="#FFE840"/>
<path d="M139.614 160.159V165.637C139.506 165.681 139.398 165.724 139.289 165.767V160.289C139.398 160.246 139.506 160.202 139.614 160.159Z" fill="#FFE840"/>
<path d="M144.616 157.56V163.039C144.508 163.104 144.4 163.191 144.292 163.256V157.777C144.4 157.712 144.508 157.625 144.616 157.56Z" fill="#FFE840"/>
<path d="M149.056 153.143V158.622C148.947 158.795 148.839 158.968 148.731 159.141V153.663C148.839 153.489 148.947 153.316 149.056 153.143Z" fill="#FFE840"/>
<path d="M159.168 138.375V143.68V144.416H159.147C159.017 145.954 158.519 147.47 157.609 148.92C157.501 149.094 157.393 149.267 157.284 149.44C156.202 151.021 154.642 152.537 152.607 153.879C152.499 153.944 152.39 154.031 152.282 154.096C151.957 154.312 151.632 154.507 151.286 154.702C150.138 155.373 148.904 155.958 147.605 156.478C147.496 156.521 147.388 156.564 147.28 156.608C145.786 157.192 144.227 157.669 142.603 158.059C142.494 158.08 142.386 158.124 142.278 158.145C140.762 158.492 139.181 158.773 137.6 158.946C137.492 158.968 137.384 158.968 137.276 158.99C135.738 159.163 134.157 159.25 132.598 159.271C132.49 159.271 132.382 159.271 132.273 159.271C130.714 159.271 129.134 159.206 127.596 159.033C127.488 159.033 127.38 159.011 127.271 158.99C125.69 158.816 124.11 158.578 122.594 158.232C122.486 158.21 122.377 158.188 122.269 158.167C120.645 157.799 119.086 157.344 117.592 156.781C117.483 156.738 117.375 156.694 117.267 156.651C115.794 156.088 114.409 155.438 113.109 154.68C112.936 154.572 112.763 154.486 112.59 154.377C112.481 154.312 112.373 154.247 112.265 154.182C110.294 152.926 108.735 151.541 107.587 150.09C107.479 149.938 107.371 149.787 107.263 149.657C106.05 147.989 105.379 146.214 105.249 144.416H105.227V138.375H106.829C106.959 138.158 107.111 137.92 107.284 137.703C107.392 137.552 107.501 137.4 107.609 137.27C108.02 136.729 108.497 136.209 109.038 135.69C109.688 135.062 110.424 134.455 111.247 133.871C111.832 133.459 112.46 133.048 113.131 132.658C123.677 126.573 140.784 126.573 151.329 132.658C152.001 133.048 152.629 133.459 153.213 133.871C154.036 134.455 154.772 135.062 155.422 135.69C156.18 136.404 156.808 137.162 157.328 137.942C157.436 138.093 157.522 138.245 157.631 138.396H159.168V138.375Z" fill="#FF9D4D"/>
<path d="M132.165 128.414C139.333 128.414 146.046 130.016 151.113 132.939C151.762 133.329 152.39 133.719 152.975 134.13C153.776 134.693 154.513 135.3 155.141 135.928C155.855 136.621 156.505 137.357 157.024 138.115C157.111 138.245 157.219 138.396 157.306 138.548L157.393 138.699H157.566H158.843V143.68V144.091L158.822 144.394C158.692 145.889 158.194 147.361 157.328 148.769C157.241 148.92 157.133 149.094 157.003 149.267C155.92 150.848 154.361 152.32 152.412 153.619C152.304 153.684 152.196 153.771 152.087 153.836C151.762 154.031 151.438 154.247 151.091 154.442C149.965 155.092 148.752 155.676 147.453 156.196C147.345 156.239 147.237 156.283 147.128 156.326C145.656 156.889 144.097 157.387 142.494 157.777C142.386 157.799 142.278 157.82 142.17 157.864C140.675 158.21 139.116 158.47 137.535 158.665C137.427 158.686 137.319 158.686 137.211 158.708C135.673 158.881 134.114 158.968 132.577 158.99C132.468 158.99 132.36 158.99 132.252 158.99H132.165C130.628 158.99 129.112 158.903 127.596 158.773C127.488 158.773 127.38 158.751 127.271 158.73C125.691 158.556 124.131 158.318 122.637 157.972C122.529 157.95 122.421 157.929 122.312 157.907C120.688 157.539 119.129 157.084 117.678 156.543L117.635 156.521C117.548 156.478 117.44 156.456 117.354 156.413C115.881 155.85 114.517 155.2 113.239 154.464C113.066 154.356 112.893 154.269 112.72 154.161C112.611 154.096 112.503 154.031 112.395 153.966C110.489 152.753 108.952 151.411 107.804 149.938C107.696 149.808 107.587 149.678 107.479 149.505C106.31 147.881 105.66 146.192 105.509 144.438L105.487 144.091V138.721H106.765H106.938L107.024 138.569C107.154 138.353 107.306 138.136 107.457 137.92C107.544 137.79 107.652 137.638 107.782 137.487C108.194 136.967 108.67 136.447 109.19 135.928C109.839 135.3 110.576 134.693 111.355 134.13C111.94 133.719 112.568 133.307 113.218 132.939C118.285 130.016 124.998 128.414 132.165 128.414ZM132.165 128.089C125.257 128.089 118.328 129.605 113.066 132.658C112.395 133.048 111.767 133.459 111.182 133.87C110.359 134.455 109.623 135.061 108.973 135.689C108.432 136.209 107.956 136.729 107.544 137.27C107.436 137.422 107.328 137.573 107.219 137.703C107.068 137.92 106.916 138.136 106.765 138.375H105.162V144.416H105.184C105.335 146.192 106.007 147.967 107.198 149.657C107.306 149.808 107.414 149.96 107.522 150.09C108.67 151.562 110.229 152.948 112.2 154.182C112.308 154.247 112.416 154.312 112.525 154.377C112.698 154.485 112.871 154.594 113.044 154.68C114.344 155.438 115.729 156.088 117.202 156.651C117.31 156.694 117.419 156.738 117.527 156.781C119.021 157.344 120.58 157.799 122.204 158.167C122.312 158.188 122.421 158.21 122.529 158.232C124.045 158.556 125.626 158.816 127.206 158.99C127.315 159.011 127.423 159.011 127.531 159.033C129.047 159.184 130.584 159.271 132.122 159.271C132.144 159.271 132.187 159.271 132.208 159.271C132.317 159.271 132.425 159.271 132.533 159.271C134.092 159.249 135.673 159.163 137.211 158.99C137.319 158.99 137.427 158.968 137.535 158.946C139.116 158.751 140.697 158.492 142.213 158.145C142.321 158.123 142.429 158.102 142.538 158.058C144.162 157.669 145.721 157.192 147.215 156.608C147.323 156.564 147.432 156.521 147.54 156.478C148.839 155.958 150.052 155.373 151.221 154.702C151.568 154.507 151.914 154.291 152.217 154.096C152.325 154.031 152.434 153.944 152.542 153.879C154.578 152.537 156.137 151.021 157.219 149.44C157.328 149.267 157.458 149.094 157.544 148.92C158.454 147.469 158.952 145.932 159.082 144.416H159.103V143.68V138.375H157.501C157.414 138.223 157.306 138.071 157.198 137.92C156.678 137.14 156.028 136.404 155.292 135.668C154.642 135.04 153.906 134.433 153.083 133.849C152.499 133.437 151.871 133.026 151.199 132.636C145.981 129.605 139.073 128.089 132.165 128.089Z" fill="#FFE840"/>
<path d="M132.165 153.814C147.09 153.814 159.19 146.834 159.19 138.223C159.19 129.612 147.09 122.632 132.165 122.632C117.24 122.632 105.14 129.612 105.14 138.223C105.14 146.834 117.24 153.814 132.165 153.814Z" fill="#FFE840"/>
<path d="M155.357 135.69C154.491 133.004 152.261 130.557 148.839 128.587C144.378 126.01 138.445 124.602 132.144 124.602C125.842 124.602 119.909 126.01 115.448 128.587C112.048 130.557 109.796 133.026 108.93 135.69C108.67 136.512 108.519 137.357 108.519 138.223C108.519 140.843 109.796 143.355 112.156 145.521C112.265 145.629 112.373 145.716 112.481 145.802C113.326 146.538 114.322 147.231 115.405 147.859C115.968 148.184 116.552 148.487 117.137 148.769C117.245 148.812 117.354 148.877 117.462 148.92C118.913 149.592 120.493 150.133 122.139 150.588C122.247 150.609 122.356 150.653 122.464 150.674C123.958 151.064 125.517 151.346 127.141 151.541C127.25 151.562 127.358 151.562 127.466 151.584C128.96 151.757 130.498 151.844 132.057 151.844H132.144C132.252 151.844 132.36 151.844 132.468 151.844C134.049 151.822 135.63 151.714 137.146 151.541C137.254 151.519 137.362 151.519 137.471 151.497C139.095 151.281 140.654 150.956 142.148 150.566C142.256 150.544 142.364 150.501 142.473 150.479C144.14 150.003 145.699 149.418 147.15 148.725C147.258 148.682 147.367 148.617 147.475 148.574C147.908 148.357 148.319 148.141 148.731 147.903C150.052 147.145 151.199 146.3 152.152 145.412C152.261 145.304 152.369 145.196 152.477 145.088C154.534 143.03 155.639 140.692 155.639 138.266C155.769 137.357 155.617 136.512 155.357 135.69ZM152.607 143.377C152.499 143.507 152.39 143.658 152.282 143.788C151.221 145.066 149.77 146.257 147.951 147.318C147.843 147.383 147.735 147.448 147.605 147.513C147.497 147.578 147.388 147.643 147.28 147.686C145.851 148.444 144.27 149.094 142.603 149.592C142.494 149.635 142.386 149.657 142.278 149.7C140.784 150.133 139.203 150.479 137.6 150.696C137.492 150.718 137.384 150.718 137.276 150.739C135.738 150.956 134.179 151.064 132.598 151.064C132.49 151.064 132.382 151.064 132.273 151.064C130.714 151.064 129.134 150.978 127.596 150.783C127.488 150.761 127.38 150.761 127.271 150.739C125.669 150.523 124.11 150.22 122.594 149.808C122.486 149.787 122.377 149.743 122.269 149.722C120.623 149.245 119.043 148.639 117.592 147.924C117.483 147.859 117.375 147.816 117.267 147.751C116.985 147.599 116.704 147.448 116.444 147.296C114.885 146.387 113.586 145.391 112.59 144.308C112.481 144.178 112.373 144.07 112.265 143.94C109.536 140.778 109.19 137.119 111.225 133.827C112.308 132.095 114.04 130.471 116.444 129.063C125.149 124.039 139.289 124.039 147.995 129.063C150.398 130.449 152.131 132.073 153.213 133.827C155.054 136.945 154.859 140.367 152.607 143.377Z" fill="#FF9D4D"/>
<path d="M133.031 136.014L135.565 137.487C135.5 137.508 135.457 137.552 135.392 137.573L134.006 138.375L131.624 137.01L132.403 136.556C132.685 136.404 132.901 136.209 133.031 136.014Z" fill="#D1975D"/>
<path d="M108.237 145.304V150.761C108.129 150.609 108.02 150.458 107.912 150.328V144.849C107.999 145.022 108.107 145.174 108.237 145.304Z" fill="#FFE840"/>
<path d="M112.546 148.942V154.421C112.438 154.356 112.33 154.291 112.221 154.226V148.747C112.308 148.79 112.416 148.877 112.546 148.942Z" fill="#FFE840"/>
<path d="M117.548 151.346V156.824C117.44 156.781 117.332 156.738 117.224 156.694V151.216C117.31 151.259 117.44 151.302 117.548 151.346Z" fill="#FFE840"/>
<path d="M122.551 152.796V158.275C122.442 158.253 122.334 158.232 122.226 158.21V152.731C122.334 152.753 122.442 152.775 122.551 152.796Z" fill="#FFE840"/>
<path d="M127.553 153.576V159.055C127.444 159.055 127.336 159.033 127.228 159.011V153.533C127.336 153.554 127.444 153.576 127.553 153.576Z" fill="#FFE840"/>
<path d="M132.577 153.814V159.293C132.468 159.293 132.36 159.293 132.252 159.293V153.814C132.338 153.814 132.447 153.814 132.577 153.814Z" fill="#FFE840"/>
<path d="M137.579 153.489V158.968C137.47 158.989 137.362 158.989 137.254 159.011V153.533C137.362 153.533 137.47 153.511 137.579 153.489Z" fill="#FFE840"/>
<path d="M142.581 152.602V158.08C142.473 158.102 142.364 158.145 142.256 158.167V152.688C142.364 152.666 142.473 152.645 142.581 152.602Z" fill="#FFE840"/>
<path d="M147.583 151.021V156.499C147.475 156.543 147.367 156.586 147.258 156.629V151.151C147.367 151.107 147.475 151.064 147.583 151.021Z" fill="#FFE840"/>
<path d="M152.607 148.422V153.901C152.499 153.966 152.39 154.052 152.282 154.117V148.639C152.369 148.552 152.499 148.487 152.607 148.422Z" fill="#FFE840"/>
<path d="M157.046 144.005V149.483C156.938 149.657 156.829 149.83 156.721 150.003V144.524C156.829 144.351 156.938 144.178 157.046 144.005Z" fill="#FFE840"/>
<path d="M146.587 125.512V130.817V131.553H146.565C146.435 133.091 145.937 134.607 145.028 136.057C144.92 136.231 144.811 136.404 144.703 136.577C143.62 138.158 142.061 139.674 140.026 141.016C139.917 141.081 139.809 141.168 139.701 141.233C139.376 141.449 139.051 141.644 138.705 141.839C137.557 142.51 136.323 143.095 135.023 143.615C134.915 143.658 134.807 143.701 134.699 143.745C133.204 144.329 131.645 144.806 130.021 145.196C129.913 145.217 129.805 145.261 129.696 145.282C128.181 145.629 126.6 145.91 125.019 146.083C124.911 146.105 124.803 146.105 124.694 146.127C123.157 146.3 121.576 146.387 120.017 146.408C119.909 146.408 119.8 146.408 119.692 146.408C118.133 146.408 116.552 146.343 115.015 146.17C114.907 146.17 114.798 146.148 114.69 146.127C113.109 145.954 111.528 145.715 110.013 145.369C109.904 145.347 109.796 145.326 109.688 145.304C108.064 144.936 106.505 144.481 105.01 143.918C104.902 143.875 104.794 143.831 104.686 143.788C103.213 143.225 101.827 142.575 100.528 141.818C100.355 141.709 100.181 141.623 100.008 141.514C99.9 141.449 99.7917 141.384 99.6834 141.319C97.7129 140.064 96.1538 138.678 95.0061 137.227C94.8978 137.075 94.7895 136.924 94.6813 136.794C93.4686 135.126 92.7973 133.351 92.6674 131.553H92.6458V125.512H94.2482C94.3781 125.295 94.5297 125.057 94.7029 124.84C94.8112 124.689 94.9195 124.537 95.0277 124.407C95.4392 123.866 95.9156 123.346 96.4569 122.827C97.1066 122.199 97.8428 121.592 98.6657 121.008C99.2504 120.596 99.8783 120.185 100.55 119.795C111.095 113.71 128.202 113.71 138.748 119.795C139.419 120.185 140.047 120.596 140.632 121.008C141.455 121.592 142.191 122.199 142.841 122.827C143.599 123.541 144.227 124.299 144.746 125.079C144.855 125.23 144.941 125.382 145.049 125.533H146.587V125.512Z" fill="#FF9D4D"/>
<path d="M119.584 115.551C126.752 115.551 133.464 117.153 138.532 120.076C139.181 120.466 139.809 120.856 140.394 121.267C141.195 121.83 141.931 122.437 142.559 123.065C143.274 123.758 143.923 124.494 144.443 125.252C144.53 125.382 144.638 125.533 144.725 125.685L144.811 125.837H144.985H146.262V130.817V131.228L146.24 131.532C146.111 133.026 145.613 134.498 144.746 135.906C144.66 136.057 144.551 136.231 144.422 136.404C143.339 137.985 141.78 139.457 139.831 140.756C139.723 140.821 139.614 140.908 139.506 140.973C139.181 141.168 138.856 141.384 138.51 141.579C137.384 142.229 136.171 142.814 134.872 143.333C134.764 143.377 134.655 143.42 134.547 143.463C133.075 144.026 131.515 144.524 129.913 144.914C129.805 144.936 129.697 144.957 129.588 145.001C128.094 145.347 126.535 145.607 124.954 145.802C124.846 145.824 124.738 145.824 124.629 145.845C123.092 146.018 121.533 146.105 119.995 146.127C119.887 146.127 119.779 146.127 119.671 146.127H119.584C118.046 146.127 116.531 146.04 115.015 145.91C114.907 145.91 114.798 145.889 114.69 145.867C113.109 145.694 111.55 145.455 110.056 145.109C109.948 145.087 109.839 145.066 109.731 145.044C108.107 144.676 106.548 144.221 105.097 143.68L105.054 143.658C104.967 143.615 104.859 143.593 104.772 143.55C103.3 142.987 101.936 142.337 100.658 141.601C100.485 141.493 100.311 141.406 100.138 141.298C100.03 141.233 99.9217 141.168 99.8134 141.103C97.9078 139.89 96.3703 138.548 95.2227 137.075C95.1144 136.945 95.0061 136.815 94.8978 136.642C93.7285 135.018 93.0789 133.329 92.9273 131.575L92.9056 131.272V125.901H94.1832H94.3565L94.4431 125.75C94.573 125.533 94.7246 125.317 94.8762 125.1C94.9628 124.97 95.0711 124.819 95.201 124.667C95.6124 124.147 96.0888 123.628 96.6085 123.108C97.2582 122.48 97.9944 121.874 98.774 121.311C99.3586 120.899 99.9866 120.488 100.636 120.12C105.703 117.153 112.416 115.551 119.584 115.551ZM119.584 115.226C112.676 115.226 105.747 116.742 100.485 119.795C99.8134 120.185 99.1854 120.596 98.6007 121.008C97.7779 121.592 97.0416 122.199 96.392 122.827C95.8506 123.346 95.3742 123.866 94.9628 124.407C94.8545 124.559 94.7463 124.711 94.638 124.84C94.4864 125.057 94.3348 125.274 94.1832 125.512H92.5808V131.553H92.6025C92.754 133.329 93.4253 135.105 94.6163 136.794C94.7246 136.945 94.8329 137.097 94.9411 137.227C96.0888 138.699 97.6479 140.085 99.6185 141.319C99.7268 141.384 99.835 141.449 99.9433 141.514C100.117 141.623 100.29 141.731 100.463 141.818C101.762 142.575 103.148 143.225 104.621 143.788C104.729 143.831 104.837 143.875 104.945 143.918C106.44 144.481 107.999 144.936 109.623 145.304C109.731 145.326 109.839 145.347 109.948 145.369C111.463 145.694 113.044 145.953 114.625 146.127C114.733 146.148 114.842 146.148 114.95 146.17C116.466 146.322 118.003 146.408 119.541 146.408C119.562 146.408 119.606 146.408 119.627 146.408C119.735 146.408 119.844 146.408 119.952 146.408C121.511 146.387 123.092 146.3 124.629 146.127C124.738 146.127 124.846 146.105 124.954 146.083C126.535 145.889 128.116 145.629 129.632 145.282C129.74 145.261 129.848 145.239 129.956 145.196C131.58 144.806 133.14 144.329 134.634 143.745C134.742 143.701 134.85 143.658 134.959 143.615C136.258 143.095 137.47 142.51 138.64 141.839C138.986 141.644 139.333 141.428 139.636 141.233C139.744 141.168 139.852 141.081 139.961 141.016C141.996 139.674 143.555 138.158 144.638 136.577C144.746 136.404 144.876 136.231 144.963 136.057C145.872 134.607 146.37 133.069 146.5 131.553H146.522V130.817V125.512H144.92C144.833 125.36 144.725 125.209 144.616 125.057C144.097 124.277 143.447 123.541 142.711 122.805C142.061 122.177 141.325 121.571 140.502 120.986C139.917 120.575 139.289 120.163 138.618 119.773C133.399 116.742 126.492 115.226 119.584 115.226Z" fill="#FFE840"/>
<path d="M119.584 140.951C134.509 140.951 146.609 133.971 146.609 125.36C146.609 116.749 134.509 109.769 119.584 109.769C104.658 109.769 92.5591 116.749 92.5591 125.36C92.5591 133.971 104.658 140.951 119.584 140.951Z" fill="#FFE840"/>
<path d="M142.776 122.826C141.91 120.141 139.679 117.694 136.258 115.724C131.797 113.147 125.864 111.739 119.562 111.739C113.261 111.739 107.327 113.147 102.867 115.724C99.4669 117.694 97.2149 120.163 96.3487 122.826C96.0888 123.649 95.9373 124.494 95.9373 125.36C95.9373 127.98 97.2149 130.492 99.5752 132.658C99.6835 132.766 99.7917 132.852 99.9 132.939C100.745 133.675 101.741 134.368 102.823 134.996C103.386 135.321 103.971 135.624 104.556 135.906C104.664 135.949 104.772 136.014 104.881 136.057C106.331 136.729 107.912 137.27 109.558 137.725C109.666 137.746 109.774 137.79 109.883 137.811C111.377 138.201 112.936 138.483 114.56 138.677C114.668 138.699 114.777 138.699 114.885 138.721C116.379 138.894 117.917 138.981 119.476 138.981H119.562C119.671 138.981 119.779 138.981 119.887 138.981C121.468 138.959 123.049 138.851 124.564 138.677C124.673 138.656 124.781 138.656 124.889 138.634C126.513 138.418 128.072 138.093 129.567 137.703C129.675 137.681 129.783 137.638 129.891 137.616C131.559 137.14 133.118 136.555 134.569 135.862C134.677 135.819 134.785 135.754 134.894 135.711C135.327 135.494 135.738 135.278 136.15 135.04C137.47 134.282 138.618 133.437 139.571 132.549C139.679 132.441 139.787 132.333 139.896 132.224C141.953 130.167 143.057 127.829 143.057 125.403C143.187 124.494 143.036 123.649 142.776 122.826ZM140.026 130.514C139.917 130.644 139.809 130.795 139.701 130.925C138.64 132.203 137.189 133.394 135.37 134.455C135.262 134.52 135.153 134.585 135.024 134.65C134.915 134.715 134.807 134.78 134.699 134.823C133.269 135.581 131.689 136.231 130.021 136.729C129.913 136.772 129.805 136.794 129.697 136.837C128.202 137.27 126.622 137.616 125.019 137.833C124.911 137.855 124.803 137.855 124.694 137.876C123.157 138.093 121.598 138.201 120.017 138.201C119.909 138.201 119.8 138.201 119.692 138.201C118.133 138.201 116.552 138.114 115.015 137.92C114.907 137.898 114.798 137.898 114.69 137.876C113.088 137.66 111.528 137.357 110.013 136.945C109.904 136.923 109.796 136.88 109.688 136.858C108.042 136.382 106.461 135.776 105.01 135.061C104.902 134.996 104.794 134.953 104.686 134.888C104.404 134.736 104.123 134.585 103.863 134.433C102.304 133.524 101.004 132.528 100.008 131.445C99.9 131.315 99.7917 131.207 99.6835 131.077C96.955 127.915 96.6085 124.256 98.6441 120.964C99.7268 119.232 101.459 117.608 103.863 116.2C112.568 111.176 126.708 111.176 135.413 116.2C137.817 117.586 139.549 119.21 140.632 120.964C142.473 124.082 142.278 127.504 140.026 130.514Z" fill="#FF9D4D"/>
<path d="M95.6556 132.441V137.898C95.5474 137.746 95.4391 137.595 95.3308 137.465V131.986C95.4174 132.16 95.5257 132.311 95.6556 132.441Z" fill="#FFE840"/>
<path d="M99.9432 136.079V141.558C99.835 141.493 99.7267 141.428 99.6184 141.363V135.863C99.7267 135.927 99.835 136.014 99.9432 136.079Z" fill="#FFE840"/>
<path d="M104.967 138.483V143.961C104.859 143.918 104.751 143.875 104.642 143.831V138.353C104.729 138.396 104.859 138.439 104.967 138.483Z" fill="#FFE840"/>
<path d="M109.969 139.933V145.412C109.861 145.39 109.753 145.369 109.644 145.347V139.868C109.753 139.89 109.861 139.912 109.969 139.933Z" fill="#FFE840"/>
<path d="M114.971 140.713V146.192C114.863 146.192 114.755 146.17 114.646 146.148V140.67C114.755 140.691 114.863 140.713 114.971 140.713Z" fill="#FFE840"/>
<path d="M119.995 140.951V146.43C119.887 146.43 119.779 146.43 119.67 146.43V140.951C119.757 140.951 119.865 140.951 119.995 140.951Z" fill="#FFE840"/>
<path d="M124.997 140.626V146.105C124.889 146.127 124.781 146.127 124.673 146.148V140.67C124.781 140.67 124.889 140.648 124.997 140.626Z" fill="#FFE840"/>
<path d="M130 139.739V145.217C129.891 145.239 129.783 145.282 129.675 145.304V139.825C129.783 139.804 129.891 139.782 130 139.739Z" fill="#FFE840"/>
<path d="M135.002 138.158V143.636C134.894 143.68 134.785 143.723 134.677 143.766V138.288C134.785 138.245 134.894 138.201 135.002 138.158Z" fill="#FFE840"/>
<path d="M140.026 135.559V141.038C139.917 141.103 139.809 141.19 139.701 141.254V135.776C139.787 135.689 139.917 135.624 140.026 135.559Z" fill="#FFE840"/>
<path d="M144.465 131.142V136.62C144.356 136.794 144.248 136.967 144.14 137.14V131.662C144.248 131.488 144.356 131.315 144.465 131.142Z" fill="#FFE840"/>
<path d="M117.353 123.26L94.5946 139.414L90.5235 174.191L83.5941 173.974L82.8579 134C82.8146 132.203 83.6158 130.579 84.8934 129.518L85.4348 129.085L108.02 110.614C111.377 107.863 116.336 108.362 119.107 111.718C121.858 115.074 121.359 120.033 118.003 122.805C117.808 122.935 117.57 123.108 117.353 123.26Z" fill="url(#paint0_linear)"/>
<path d="M132.836 125.447C132.598 125.62 132.36 125.772 132.122 125.923L109.536 141.969L104.166 180.817L97.1499 180.362L97.1716 179.15L97.8428 136.166C97.8862 134.347 98.774 132.744 100.117 131.727L100.658 131.337L123.677 114.251C125.344 113.017 127.358 112.541 129.263 112.757C131.342 112.995 133.334 114.078 134.677 115.897C137.254 119.362 136.323 122.87 132.836 125.447Z" fill="url(#paint1_linear)"/>
<path d="M129.09 123.974C128.852 124.148 128.614 124.299 128.376 124.451L105.79 140.497L100.42 179.345L97.1716 179.128L97.8429 136.144C97.8862 134.325 98.7741 132.723 100.117 131.705L100.658 131.315L123.677 114.23C125.344 112.995 127.358 112.519 129.263 112.736C129.891 113.19 130.454 113.753 130.931 114.403C133.508 117.889 132.577 121.397 129.09 123.974Z" fill="url(#paint2_linear)"/>
<path d="M97.2799 180.341H97.02L97.713 136.144C97.7563 134.347 98.6008 132.679 100.03 131.597L123.59 114.122L123.742 114.338L100.182 131.813C98.7957 132.853 97.9945 134.433 97.9512 136.144L97.2799 180.341Z" fill="#7B5BAA"/>
<path d="M122.724 72.8915L119.432 97.1228L119.389 97.426C119.216 98.6603 118.306 99.5914 117.159 99.8513L94.3998 104.918C93.2954 105.157 92.191 104.464 91.9529 103.359C91.7147 102.32 92.3426 101.28 93.3387 100.956L115.556 93.8963L113.282 96.6247L113.997 72.1769C114.062 69.7516 116.098 67.846 118.501 67.9326C120.926 67.9976 122.832 70.0331 122.745 72.4367C122.767 72.5883 122.745 72.7399 122.724 72.8915Z" fill="url(#paint3_linear)"/>
<path d="M122.962 68.7772C122.962 68.7772 118.956 68.2358 117.202 68.0193C116.704 67.9543 116.206 68.1492 115.881 68.539L115.838 68.5823C112.265 72.8482 111.464 78.3701 111.68 83.9137L110.965 93.2251L109.363 113.45C109.255 114.858 109.969 116.2 111.225 116.872L117.375 120.185C119.606 121.397 122.009 122.22 124.5 122.675L130.454 123.736C133.984 124.364 137.254 121.744 137.406 118.171C137.622 113.602 137.774 107.842 137.514 104.615C137.146 100.003 139.463 86.0141 140.48 80.0592C140.762 78.3918 139.982 76.746 138.51 75.9015C135.175 74.0176 129.891 71.1375 129.891 71.1375L122.962 68.7772Z" fill="url(#paint4_linear)"/>
<path d="M131.472 123.953C131.126 123.953 130.779 123.931 130.411 123.866L124.456 122.805C121.944 122.372 119.541 121.527 117.289 120.315L111.139 117.002C109.861 116.309 109.103 114.923 109.211 113.45L110.814 93.225L111.528 83.827C111.29 77.374 112.481 72.6533 115.318 68.9721C115.664 68.5173 116.119 68.1709 116.596 67.976C116.834 67.8894 117.05 67.846 117.202 67.8677C118.956 68.1059 122.962 68.6256 122.962 68.6256H122.984L129.913 70.9426C129.978 70.9859 135.262 73.866 138.575 75.7283C140.091 76.5728 140.913 78.3051 140.61 80.0158C139.593 85.8625 137.254 99.9379 137.644 104.55C137.904 107.842 137.73 113.753 137.535 118.128C137.449 119.86 136.626 121.484 135.262 122.588C134.201 123.476 132.858 123.953 131.472 123.953ZM117.137 68.1276C117.029 68.1276 116.877 68.1709 116.725 68.2358C116.292 68.4091 115.881 68.7339 115.556 69.1453C112.763 72.7616 111.572 77.439 111.81 83.8487L111.095 93.2467L109.493 113.472C109.385 114.815 110.078 116.114 111.29 116.763L117.44 120.077C119.649 121.268 122.052 122.112 124.521 122.545L130.476 123.606C132.122 123.888 133.811 123.455 135.11 122.415C136.409 121.376 137.211 119.817 137.276 118.149C137.47 113.775 137.644 107.863 137.384 104.594C137.016 99.9596 139.333 85.8625 140.372 79.9942C140.654 78.3918 139.896 76.7893 138.467 75.9881C135.175 74.1258 129.891 71.2458 129.848 71.2241L122.94 68.9071C122.702 68.8638 118.891 68.3658 117.202 68.1492C117.18 68.1276 117.159 68.1276 117.137 68.1276Z" fill="#7B5BAA"/>
<path d="M116.379 49.9812C116.379 49.9812 116.206 53.879 116.769 55.1566C117.484 56.759 119.541 58.1016 119.541 58.1016L120.537 49.6564L116.379 49.9812Z" fill="#704E34"/>
<path d="M130.108 66.2652C130.108 66.2652 126.383 64.0348 124.478 64.901C122.551 65.7455 121.143 70.3363 121.143 70.3363L120.364 74.8404C120.19 75.8365 121.186 76.6377 122.139 76.2479L129.372 73.1514C129.978 72.8915 130.325 72.2202 130.151 71.5706C129.653 69.5351 130.108 66.2652 130.108 66.2652Z" fill="#EFC392"/>
<path d="M116.964 58.5129C117.05 60.4618 117.873 62.3024 117.938 64.2513C118.003 66.1136 117.483 68.3224 118.869 69.5567C119.822 70.4229 121.273 70.3579 122.551 70.2496C125.366 70.0114 128.506 69.6216 130.26 67.4129C130.844 66.6766 131.234 65.7672 131.602 64.901C132.122 63.645 132.642 62.4107 133.161 61.1548C133.941 59.2925 134.72 57.3652 134.655 55.373C134.569 53.1643 133.464 51.1288 132.36 49.2015C130.693 46.2782 124.305 45.6069 121.36 47.2959C118.198 49.1582 116.834 55.1781 116.964 58.5129Z" fill="#FFD89F"/>
<path d="M119.021 52.2981C119.584 52.1249 120.212 52.2765 120.645 52.6879L121.554 53.5541C121.771 53.7706 122.053 53.9222 122.377 53.9872L125.864 54.7017C126.383 54.81 126.838 55.1781 127.055 55.6762L127.358 56.3691C127.639 57.0404 128.354 57.4519 129.069 57.3436L130.26 57.192C130.996 57.1054 131.039 57.9283 131.321 58.6212L131.472 60.5701C131.927 61.6961 134.136 60.1154 134.959 59.2059L135.153 58.9893C135.305 58.8161 135.413 58.6212 135.478 58.4263C135.716 57.7334 136.085 56.001 135.695 52.7312C135.175 48.2271 133.746 45.7585 131.191 45.4553C128.635 45.1521 124.456 43.5714 122.572 44.6974C120.688 45.8234 116.119 46.4298 116.054 48.292C116.011 49.3748 116.596 50.6524 117.115 51.5619C117.505 52.1898 118.285 52.5147 119.021 52.2981Z" fill="#89603E"/>
<path d="M132.447 59.141C132.447 59.141 132.88 61.9777 131.97 64.0565C131.082 66.1137 132.923 63.775 132.923 63.775L135.478 58.3831L132.447 59.141Z" fill="#89603E"/>
<path d="M97.2583 179.951C97.2583 179.951 94.1834 183.741 93.014 184.26C91.8447 184.78 85.1318 189.392 88.4233 190.67C91.7147 191.948 96.5437 191.623 98.1894 190.042C100.636 187.682 103.56 188.007 103.971 186.837C104.404 185.668 104.556 180.059 104.556 180.059L97.2583 179.951Z" fill="#1A142D"/>
<path d="M83.8324 173.195C83.8324 173.195 81.2339 176.898 80.0646 177.439C78.8952 177.98 72.1607 182.55 75.4522 183.827C78.7436 185.105 83.5726 184.78 85.2183 183.199C87.6653 180.839 90.5886 181.164 91 179.994C91.4331 178.825 91.0434 173.195 91.0434 173.195H83.8324Z" fill="#1A142D"/>
<path d="M109.255 124.862L107.457 126.096L107.436 127.201C107.609 127.222 107.782 127.179 107.912 127.071L121.901 117.413C122.572 116.958 122.875 116.2 122.81 115.507L122.702 114.273L122.356 114.36C122.161 114.1 121.901 113.883 121.576 113.732L107.826 107.235L109.255 124.862Z" fill="#7B5BAA"/>
<path d="M73.8496 110.224L73.8929 110.722C73.9362 111.155 74.1961 111.545 74.6075 111.74L107.197 127.136C107.284 127.179 107.371 127.201 107.457 127.201L107.479 126.097L73.8496 110.224Z" fill="#634D99"/>
<path d="M73.8496 110.224L107.457 126.118L109.255 124.884L107.847 107.257L105.877 106.326L95.4174 101.389C92.9055 100.198 89.9389 100.436 87.6435 102.017L75.4087 110.462L73.8496 110.224Z" fill="#7B5BAA"/>
<path d="M107.457 126.118L73.8496 110.224L87.5352 100.783C89.8306 99.2017 92.7972 98.9635 95.3091 100.155L121.511 112.519C123.005 113.234 123.157 115.269 121.814 116.2L107.457 126.118Z" fill="white"/>
<path d="M109.493 120.098L83.3994 107.712L91.9962 101.779L118.09 114.165L109.493 120.098Z" fill="#BF89EF"/>
<path d="M142.949 82.3546L140.069 107.972L140.026 108.405C139.831 110.051 138.618 111.307 137.081 111.631L113.001 116.742C111.658 117.023 110.316 116.157 110.034 114.815C109.774 113.58 110.489 112.346 111.658 111.935L134.872 103.728L131.884 107.387L132.685 81.6184C132.771 78.76 135.153 76.5296 137.99 76.6162C140.848 76.7028 143.079 79.0848 142.992 81.9215C142.971 82.0731 142.949 82.2247 142.949 82.3546Z" fill="url(#paint5_linear)"/>
<path d="M113.152 111.371C113.759 111.934 114.127 112.627 114.214 113.32L114.04 115.767C114.127 116.504 113.629 117.045 112.871 117.11L108.995 117.803L108.54 112.433L111.42 112.324L110.229 112.043C109.255 111.805 108.302 111.371 107.436 110.765C106.851 110.354 106.483 109.726 106.483 109.141C106.483 108.838 106.851 108.73 107.133 108.946L107.652 109.314C108.475 109.899 109.428 110.245 110.359 110.31L110.857 110.354C111.658 110.397 112.503 110.765 113.152 111.371Z" fill="#FFD89F"/>
<path d="M108.518 112.454L105.703 112.866L102.997 112.757C102.932 112.757 102.888 112.801 102.91 112.866C102.91 112.887 102.932 112.909 102.953 112.952C103.126 113.32 103.538 113.602 103.949 113.667L106.071 113.992L109.32 114.122L108.518 112.454Z" fill="#FFD89F"/>
<path d="M108.995 115.442L108.064 115.594C107.739 115.637 107.371 115.616 107.003 115.529L105.27 115.053C105.119 115.009 104.967 114.923 104.837 114.814L104.166 114.186C104.036 114.078 103.993 113.905 104.079 113.797C104.166 113.688 104.339 113.667 104.491 113.775L104.837 113.992C105.01 114.1 105.184 114.165 105.357 114.208L107.003 114.533C107.197 114.576 107.414 114.576 107.587 114.533L108.951 114.186L108.995 115.442Z" fill="#FFD89F"/>
<path d="M108.973 115.464L107.544 115.81C107.457 115.832 107.371 115.832 107.284 115.832L106.201 115.702C106.093 115.681 106.006 115.659 105.898 115.616L104.772 115.053C104.621 114.966 104.447 115.031 104.426 115.161C104.404 115.312 104.491 115.464 104.642 115.572L105.573 116.222C105.768 116.374 106.006 116.46 106.223 116.503L107.501 116.785C107.609 116.807 107.717 116.807 107.804 116.807L108.995 116.742L108.973 115.464Z" fill="#FFD89F"/>
<path d="M109.125 116.742L107.739 116.872C107.501 116.893 107.263 116.828 107.024 116.698L106.526 116.417C106.353 116.33 106.18 116.352 106.093 116.46C106.05 116.525 106.072 116.655 106.18 116.72L106.548 116.98C106.916 117.24 107.306 117.413 107.717 117.521L108.995 117.824L109.125 116.742Z" fill="#FFD89F"/>
<path d="M104.707 97.7725C105.075 98.4222 105.292 99.1584 105.357 99.938L105.877 106.304L107.457 126.118L109.255 124.884L107.847 107.257L107.154 98.7253C107.089 97.9458 106.873 97.2095 106.505 96.5599L104.707 97.7725Z" fill="#7B5BAA"/>
<path d="M106.505 96.5381L104.707 97.7941C104.166 96.8196 103.343 96.0184 102.304 95.542L74.3261 82.3328C73.6981 82.0297 73.0268 82.1379 72.5071 82.4844L74.3044 81.2501C74.8024 80.9036 75.4737 80.7953 76.1234 81.0985L104.101 94.3077C105.14 94.7625 105.963 95.5637 106.505 96.5381Z" fill="#BF89EF"/>
<path d="M105.357 99.938L107.284 123.931L75.647 108.99L73.5682 83.1559V83.1775L72.5288 82.4413C73.0269 82.0948 73.6981 81.9865 74.3478 82.2897L102.325 95.4989C103.365 95.9969 104.188 96.7981 104.729 97.7509C105.075 98.4439 105.292 99.1585 105.357 99.938Z" fill="#00CBFC"/>
<path d="M71.7492 84.0868L73.8497 110.224L107.457 126.118L105.877 106.304L105.357 99.9379C105.292 99.1583 105.075 98.4437 104.707 97.7724C104.166 96.798 103.343 95.9968 102.304 95.5204L74.3261 82.3112C73.6981 82.008 73.0268 82.1163 72.5071 82.4627C72.0091 82.8092 71.6843 83.3939 71.7492 84.0868Z" fill="url(#paint6_linear)"/>
<defs>
<filter id="filter0_d" x="0.236816" y="0.519409" width="232.501" height="247.509" filterUnits="userSpaceOnUse" color-interpolation-filters="sRGB">
<feFlood flood-opacity="0" result="BackgroundImageFix"/>
<feColorMatrix in="SourceAlpha" type="matrix" values="0 0 0 0 0 0 0 0 0 0 0 0 0 0 0 0 0 0 127 0"/>
<feOffset dy="4"/>
<feGaussianBlur stdDeviation="7.5"/>
<feColorMatrix type="matrix" values="0 0 0 0 0 0 0 0 0 0 0 0 0 0 0 0 0 0 0.05 0"/>
<feBlend mode="normal" in2="BackgroundImageFix" result="effect1_dropShadow"/>
<feBlend mode="normal" in="SourceGraphic" in2="effect1_dropShadow" result="shape"/>
</filter>
<linearGradient id="paint0_linear" x1="82.8722" y1="141.49" x2="120.896" y2="141.49" gradientUnits="userSpaceOnUse">
<stop stop-color="#6A5EBF"/>
<stop offset="1" stop-color="#6E3AA5"/>
</linearGradient>
<linearGradient id="paint1_linear" x1="97.1441" y1="146.74" x2="136.151" y2="146.74" gradientUnits="userSpaceOnUse">
<stop stop-color="#2E256B"/>
<stop offset="1" stop-color="#5A3087"/>
</linearGradient>
<linearGradient id="paint2_linear" x1="97.1682" y1="146.004" x2="132.401" y2="146.004" gradientUnits="userSpaceOnUse">
<stop stop-color="#6A5EBF"/>
<stop offset="1" stop-color="#6E3AA5"/>
</linearGradient>
<linearGradient id="paint3_linear" x1="91.9171" y1="86.4441" x2="122.774" y2="86.4441" gradientUnits="userSpaceOnUse">
<stop stop-color="#6A5EBF"/>
<stop offset="1" stop-color="#6E3AA5"/>
</linearGradient>
<linearGradient id="paint4_linear" x1="109.361" y1="95.9015" x2="140.557" y2="95.9015" gradientUnits="userSpaceOnUse">
<stop stop-color="#2E256B"/>
<stop offset="1" stop-color="#5A3087"/>
</linearGradient>
<linearGradient id="paint5_linear" x1="109.965" y1="96.7135" x2="142.973" y2="96.7135" gradientUnits="userSpaceOnUse">
<stop stop-color="#6A5EBF"/>
<stop offset="1" stop-color="#6E3AA5"/>
</linearGradient>
<linearGradient id="paint6_linear" x1="71.7387" y1="104.119" x2="107.461" y2="104.119" gradientUnits="userSpaceOnUse">
<stop stop-color="#2E256B"/>
<stop offset="1" stop-color="#5A3087"/>
</linearGradient>
</defs>
</svg>
