<?xml version="1.0" standalone="no"?>
<!DOCTYPE svg PUBLIC "-//W3C//DTD SVG 20010904//EN"
 "http://www.w3.org/TR/2001/REC-SVG-20010904/DTD/svg10.dtd">
<svg version="1.0" xmlns="http://www.w3.org/2000/svg"
 width="260.000000pt" height="260.000000pt" viewBox="0 0 260.000000 260.000000"
 preserveAspectRatio="xMidYMid meet">
<metadata>
Created by potrace 1.11, written by Peter Selinger 2001-2013
</metadata>
<g transform="translate(0.000000,260.000000) scale(0.100000,-0.100000)"
fill="#000000" stroke="none">
<path d="M0 1300 l0 -1300 1300 0 1300 0 0 1300 0 1300 -1300 0 -1300 0 0
-1300z m1388 564 c56 -39 1 -86 -118 -105 -41 -6 -84 -13 -96 -15 -18 -3 -28
-30 -72 -183 -29 -99 -52 -184 -52 -189 0 -4 33 -3 73 4 86 16 108 16 126 5
39 -25 -51 -80 -171 -104 l-62 -13 -51 -159 c-56 -176 -76 -218 -113 -234 -60
-28 -88 21 -79 137 10 128 97 524 153 694 36 109 50 124 137 143 168 36 290
44 325 19z m490 -140 c56 -39 1 -86 -118 -105 -41 -6 -84 -13 -96 -15 -18 -3
-28 -30 -72 -183 -29 -99 -52 -184 -52 -189 0 -4 33 -3 73 4 86 16 108 16 126
5 39 -25 -51 -80 -171 -104 l-62 -13 -51 -159 c-56 -176 -76 -218 -113 -234
-60 -28 -88 21 -79 137 10 128 97 524 153 694 36 109 50 124 137 143 168 36
290 44 325 19z"/>
</g>
</svg>
