<svg xmlns="http://www.w3.org/2000/svg" viewBox="0 0 35 35"><g data-name="Слой 2"><rect width="35" height="35" rx="12.26" ry="12.26" fill="#d3eff2"/><path d="M27.2 19.32L25 17.25l2-4.38a.78.78 0 0 0 0-.6.77.77 0 0 0-.41-.44l-5.75-2.55a3 3 0 0 0 .12-.7 2 2 0 0 0-2-2 .79.79 0 0 0 0 1.57.44.44 0 0 1 .43.45 3.67 3.67 0 0 1-.2.7.33.33 0 0 0-.06.1L16 16.5a4.31 4.31 0 0 0 .93 4.82l4.34 4.14a4.14 4.14 0 0 0 1.23.84 4.25 4.25 0 0 0 1.74.37 4.31 4.31 0 0 0 1.41-.24.79.79 0 0 0 .48-1 .78.78 0 0 0-1-.48 2.64 2.64 0 0 1-2-.09 2.67 2.67 0 0 1-.79-.53L18 20.19a2.73 2.73 0 0 1-.58-3.05l.79-1.78 1.49-.55.54 1.49a.77.77 0 0 0 .41.44.78.78 0 0 0 .6 0l1.49-.56.55 1.51a.81.81 0 0 0 .31.39l2.49 2.34a2.74 2.74 0 0 1 .66 2.83.78.78 0 1 0 1.48.51 4.31 4.31 0 0 0-1.06-4.47zM23 14.47l-1.5.56-.56-1.51a.81.81 0 0 0-.4-.45.83.83 0 0 0-.6 0l-.81.3.66-1.49a.75.75 0 0 0 .07-.12c.12-.23.29-.59.47-1L25.2 13l-1.07 2.42-.13-.48a.8.8 0 0 0-.41-.44.76.76 0 0 0-.59 0zm-3.68 10.75a.79.79 0 0 1-.32 1.05 4.36 4.36 0 0 1-1.83.41 4.27 4.27 0 0 1-3-1.21l-4.36-4.14a4.3 4.3 0 0 1-.92-4.82l.94-2.13a.77.77 0 0 1 .07-.16L12 9.38l.05-.1a3 3 0 0 0 .2-.7.44.44 0 0 0-.43-.45.79.79 0 0 1 0-1.57 2 2 0 0 1 2 2 2.56 2.56 0 0 1-.12.7l2.55 1.16a.78.78 0 0 1-.64 1.43l-2.46-1.11c-.17.39-.34.75-.46 1l-.08.12-.61 1.37.47-.18a.83.83 0 0 1 .6 0 .77.77 0 0 1 .4.45l.6 1.5h.07a.79.79 0 0 1 1 .48.8.8 0 0 1-.48 1l-.78.27a.75.75 0 0 1-.26.05.8.8 0 0 1-.33-.08.77.77 0 0 1-.41-.44l-.54-1.49-1.17.43-.85 1.91a2.73 2.73 0 0 0 .59 3.05l4.33 4.14a3 3 0 0 0 .79.53 2.65 2.65 0 0 0 2.27 0 .79.79 0 0 1 1 .38z" fill="#36a9e1"/></g></svg>