<svg xmlns="http://www.w3.org/2000/svg" width="79" height="69" viewBox="0 0 79 69"><g><g><g><path d="M40.172 47.746H1.498a1.496 1.496 0 1 1 0-2.993h38.674a1.496 1.496 0 1 1 0 2.993z"/></g><g><path d="M40.172 57.7H5.373C2.411 57.7 0 55.25 0 52.24V12.246c0-3.01 2.411-5.46 5.373-5.46h34.799a1.496 1.496 0 1 1 0 2.993H5.373c-1.31 0-2.377 1.108-2.377 2.467V52.24c0 1.36 1.066 2.468 2.377 2.468h34.799a1.496 1.496 0 1 1 0 2.992z"/></g><g><path d="M40.172 69.066H19.205a1.496 1.496 0 1 1 0-2.993h20.967a1.496 1.496 0 1 1 0 2.993z"/></g><g><path d="M22.818 69.069c-.109 0-.22-.012-.33-.04a1.495 1.495 0 0 1-1.133-1.787l2.556-11.366c.18-.81.992-1.332 1.789-1.132.807.18 1.314.98 1.133 1.788l-2.555 11.366a1.498 1.498 0 0 1-1.46 1.17z"/></g><g><path d="M37.615 69.069a1.499 1.499 0 0 1-1.46-1.172l-2.554-11.365a1.495 1.495 0 0 1 1.134-1.788c.796-.197 1.608.325 1.789 1.132l2.554 11.366a1.495 1.495 0 0 1-1.134 1.787c-.109.028-.22.04-.33.04z"/></g><g><path d="M30.305 52.68c-.827 0-1.541-.667-1.541-1.496 0-.828.626-1.496 1.454-1.496h.087a1.496 1.496 0 1 1 0 2.993z"/></g><g><path d="M74.44 3.172c.825 0 1.497.71 1.497 1.584v59.73c0 .874-.672 1.587-1.498 1.587H49.774c-.845 0-1.585-.743-1.585-1.587V4.756c0-.844.74-1.584 1.585-1.584zm4.492 61.314V4.756c0-2.525-2.015-4.576-4.493-4.576H49.774c-2.482 0-4.581 2.094-4.581 4.576v59.73c0 2.483 2.099 4.58 4.581 4.58l24.665-1c2.478 0 4.493-1.055 4.493-3.58z"/></g><g><path d="M63.075 51.36a.96.96 0 0 1-.968.968c-.58 0-.968-.388-.968-.967 0-.477.362-.972.968-.972.498 0 .968.473.968.972zm2.995 0c0-2.149-1.815-3.963-3.963-3.963a3.969 3.969 0 0 0-3.964 3.964c0 2.22 1.74 3.96 3.964 3.96a3.966 3.966 0 0 0 3.963-3.96z"/></g><g><path d="M62.107 61.312c-.827 0-1.542-.668-1.542-1.497 0-.828.626-1.496 1.454-1.496h.088a1.496 1.496 0 1 1 0 2.993z"/></g><g><path d="M68.802 41.139h-13.39a1.496 1.496 0 1 1 0-2.993h13.39a1.496 1.496 0 1 1 0 2.993z"/></g><g><path d="M68.802 34.532h-13.39a1.496 1.496 0 1 1 0-2.993h13.39a1.496 1.496 0 1 1 0 2.993z"/></g><g><path d="M64.926 11.099h-5.639a1.496 1.496 0 1 1 0-2.992h5.639a1.496 1.496 0 1 1 0 2.992z"/></g></g></g></svg>