<svg xmlns="http://www.w3.org/2000/svg" width="76" height="75" viewBox="0 0 76 75"><g><g><path d="M68.934 10.067c0-1.461-1.12-2.65-2.497-2.65H9.477c-1.376 0-2.496 1.189-2.496 2.65v54.648c0 1.46 1.12 2.648 2.497 2.648h56.959c1.376 0 2.497-1.188 2.497-2.648zm6.982 0v54.648c0 5.542-4.253 10.05-9.48 10.05H9.479C4.25 74.766 0 70.258 0 64.716V10.067C0 4.524 4.251.015 9.478.015h56.959c5.226 0 9.479 4.51 9.479 10.052zm-17.313 7.107h-3.268v9.587h3.268zm-5.432 0h-3.267v9.587h3.267zm-5.432 0h-3.267v9.587h3.267zm-5.432 0H39.04v9.587h3.267zm-5.432 0h-3.267v9.587h3.267zm-5.431 0h-3.268v9.587h3.268zm-5.433 0h-3.267v9.587h3.267zm-5.431 0h-3.268v9.587h3.268zm40.974-2.626c.354 0 .645.31.645.685v29.694c0 .376-.29.683-.645.683h-9.439c-.354 0-.641.31-.641.685v6.288c0 .376-.291.684-.648.684h-3.663c-.355 0-.646.31-.646.685v4.319c0 .377-.287.686-.642.686H30.04c-.355 0-.644-.31-.644-.686v-4.32c0-.375-.292-.684-.645-.684h-3.665c-.354 0-.643-.308-.643-.684v-6.288c0-.376-.29-.685-.643-.685h-9.44c-.355 0-.645-.307-.645-.683V15.233c0-.375.29-.685.644-.685z"/></g></g></svg>