<svg xmlns="http://www.w3.org/2000/svg" width="53" height="76" viewBox="0 0 53 76"><g><g><path d="M52.5 4.019c0-1.73-.92-1.1-.92-1.1l-12.74 7.99s-1.795 1.208-1.795 5.27v54.899c0 .435-.043.86-.117 1.273l14.785-23.654s.787-.9.787-2.92zM27.742 9.147h2.55c1.826 0 7.503.195 11.008-1.964 2.617-1.613 6.555-4.095 8.647-5.417 1.512-.902-.682-.902-.682-.902H33.856c-1.725 0-3.474.664-3.474.664L7.326 9.147h20.416zm2.25 10.69c0 .774-.607 1.407-1.35 1.407H5.483c-.743 0-1.35-.633-1.35-1.407v-.125c0-.775.607-1.407 1.35-1.407h23.159c.743 0 1.35.632 1.35 1.407zm0 7.033c0 .774-.607 1.406-1.35 1.406H5.483c-.743 0-1.35-.632-1.35-1.406v-.125c0-.774.607-1.407 1.35-1.407h23.159c.743 0 1.35.633 1.35 1.407zm0 7.032c0 .775-.607 1.407-1.35 1.407H5.483c-.743 0-1.35-.632-1.35-1.407v-.125c0-.773.607-1.406 1.35-1.406h23.159c.743 0 1.35.633 1.35 1.406zM24.89 47.593c-1.16 0-2.1-.98-2.1-2.188 0-1.208.94-2.187 2.1-2.187 1.162 0 2.101.979 2.101 2.187 0 1.209-.94 2.188-2.1 2.188zm5.403-36.102H4.733c-2.476 0-4.502 2.11-4.502 4.688v54.899c0 2.578 2.026 4.688 4.502 4.688h25.56c2.475 0 4.5-2.11 4.5-4.688V16.179c0-2.578-2.025-4.688-4.5-4.688z"/></g></g></svg>