<svg xmlns="http://www.w3.org/2000/svg" width="96" height="67" viewBox="0 0 96 67"><g><g><g><g><g><path fill="#ffc925" d="M72.398 60.416a6.048 6.048 0 0 1-6.041-6.042 6.048 6.048 0 0 1 6.041-6.041 6.048 6.048 0 0 1 6.042 6.041 6.048 6.048 0 0 1-6.042 6.042zm0-18.125c-6.662 0-12.083 5.42-12.083 12.083s5.42 12.084 12.083 12.084c6.664 0 12.084-5.42 12.084-12.084 0-6.663-5.42-12.083-12.084-12.083z"/></g></g></g><g><g><g><path fill="#ffc925" d="M31.114 60.416a6.048 6.048 0 0 1-6.041-6.042 6.048 6.048 0 0 1 6.041-6.041c3.331 0 6.042 2.71 6.042 6.041a6.048 6.048 0 0 1-6.042 6.042zm0-18.125c-6.663 0-12.083 5.42-12.083 12.083s5.42 12.084 12.083 12.084 12.083-5.42 12.083-12.084c0-6.663-5.42-12.083-12.083-12.083z"/></g></g></g><g><g><g><path fill="#ffc925" d="M80.535 7.705a3.023 3.023 0 0 0-2.7-1.663H61.927v6.041h14.047l8.225 16.36 5.4-2.714z"/></g></g></g><g><g><g><path fill="#ffc925" d="M40.479 57.496v-6.042h22.857v6.042z"/></g></g></g><g><g><g><path fill="#ffc925" d="M22.052 51.454H11.58a3.02 3.02 0 1 0 0 6.042h10.472a3.02 3.02 0 1 0 0-6.042z"/></g></g></g><g><g><g><path fill="#ffc925" d="M95.226 32.987l-5.942-7.653a3.017 3.017 0 0 0-2.386-1.168h-21.95V3.021A3.02 3.02 0 0 0 61.925 0H11.58a3.02 3.02 0 1 0 0 6.041h47.326v21.146a3.02 3.02 0 0 0 3.02 3.02H85.42l4.4 5.668v15.579H81.46a3.02 3.02 0 1 0 0 6.041h11.378a3.02 3.02 0 0 0 3.02-3.02V34.84c0-.67-.223-1.323-.633-1.853z"/></g></g></g><g><g><g><path fill="#ffc925" d="M21.85 36.149H7.955a3.02 3.02 0 1 0 0 6.041H21.85a3.02 3.02 0 1 0 0-6.041z"/></g></g></g><g><g><g><path fill="#ffc925" d="M28.798 24.267H3.021a3.02 3.02 0 1 0 0 6.042h25.777a3.02 3.02 0 1 0 0-6.042z"/></g></g></g><g><g><g><path fill="#ffc925" d="M33.732 12.385H7.955a3.02 3.02 0 1 0 0 6.042h25.777a3.02 3.02 0 1 0 0-6.042z"/></g></g></g></g></g></svg>