<svg xmlns="http://www.w3.org/2000/svg" width="77" height="105" viewBox="0 0 77 105"><g><g><path d="M45.166 64.158c0-3.327-2.92-6.023-6.525-6.023-3.601 0-6.524 2.696-6.524 6.023 0 2.878 2.728 4.723 2.728 4.723.305.276.553.823.553 1.216V83.46c0 .394.346.714.773.714h4.943c.425 0 .771-.32.771-.714V70.097c0-.393.25-.94.553-1.216 0 0 2.728-2.009 2.728-4.723zm17.505 5.671c0 12.182-10.739 22.092-23.939 22.092-13.197 0-23.935-9.91-23.935-22.092 0-12.18 10.738-22.09 23.935-22.09 13.2 0 23.94 9.91 23.94 22.09zm4.642 0c0-14.544-12.82-26.375-28.58-26.375-15.757 0-28.577 11.831-28.577 26.375s12.82 26.376 28.576 26.376c15.76 0 28.58-11.832 28.58-26.376zM77 69.684C77 89.157 59.835 105 38.735 105 17.634 105 .47 89.157.47 69.684c0-19.474 17.165-35.316 38.266-35.316C59.835 34.368 77 50.21 77 69.684zM8.985 43.202V27.608C8.985 12.505 22.3.216 38.666.216c16.365 0 29.678 12.29 29.678 27.392v15.449a40.035 40.035 0 0 0-10.6-7.66v-7.789c0-9.708-8.559-17.607-19.078-17.607-10.52 0-19.078 7.899-19.078 17.607v7.857a39.991 39.991 0 0 0-10.603 7.737z"/></g></g></svg>