<svg xmlns="http://www.w3.org/2000/svg" width="552" height="442" viewBox="0 0 552 442"><g><g><g><g><path d="M552 21.907c0-11.792-9.648-21.44-21.44-21.44H22.21C10.417.467.77 10.115.77 21.907v291.49H552z"/></g><g><path fill="#2658fb" d="M22.188 21.997h508.394v269.87H22.188z"/></g><g><g><path d="M.77 313.397H552z"/></g><g><path d="M.77 318.878v39.619c0 11.792 9.648 21.44 21.44 21.44h508.35c11.792 0 21.44-9.648 21.44-21.44v-39.619z"/></g></g><g><path fill="#fff" d="M266.793 349.408a9.591 9.591 0 1 1 19.183 0 9.591 9.591 0 0 1-19.183 0z"/></g><g><path d="M360.941 430.637h-16.697l-9.536-45.219H218.062l-9.536 45.219h-16.697a5.481 5.481 0 0 0 0 10.962H360.94a5.48 5.48 0 0 0 0-10.962z"/></g></g></g></g></svg>