<svg xmlns="http://www.w3.org/2000/svg" width="72" height="69" viewBox="0 0 72 69"><g><g><path fill="#72f0e6" d="M66.773 12.868l-9.589.04V9.553c0-2.454 2.151-4.451 4.795-4.451 2.643 0 4.794 1.997 4.794 4.451zM52.235 9.553V59.82c0 2.454-2.15 4.451-4.795 4.451-2.643 0-4.794-1.997-4.794-4.451v-5.603c0-1.268-1.107-2.297-2.475-2.297H20.087l.109-40.194c.01-3.652 3.219-6.624 7.153-6.624h26.2c-.811 1.321-1.314 2.826-1.314 4.452zM10.167 64.27zm0-.014c-2.572-.077-4.64-2.032-4.64-4.437v-3.305h32.17v3.305c0 1.625.503 3.131 1.314 4.451H10.167zM61.979.506h-34.63c-6.656 0-12.085 5.028-12.102 11.208l-.109 40.205H3.052c-1.367 0-2.474 1.029-2.474 2.298v5.602c0 4.89 4.21 8.862 9.434 9.018.054.004 37.11.03 37.428.03 5.373 0 9.744-4.06 9.744-9.048V17.504l12.074-.05c1.362-.006 2.464-1.034 2.464-2.298V9.553c0-4.988-4.372-9.047-9.743-9.047z"/></g></g></svg>