<svg xmlns="http://www.w3.org/2000/svg" width="30" height="35" viewBox="0 0 30 35"><g><g><g><path fill="#52cc00" d="M27.968 29.407l-1.32-23.883c-.187-3.406-3.626-5.703-6.97-4.657L4.85 5.5c-2.727.852-4.304 3.63-3.587 6.319l4.968 18.61c.582 2.178 2.535 3.738 4.847 3.87l11.178.638c3.211.183 5.884-2.406 5.711-5.531z"/></g><g><g><g><path d="M25.526 26.703c-.006 0-.006.006 0 0-.242.252-.49.48-.757.732a16.02 16.02 0 0 0-1.198 1.199c-.627.647-1.365.953-2.333.953-.094 0-.193 0-.286-.006-1.843-.114-3.556-.81-4.84-1.403a27.453 27.453 0 0 1-9.161-6.93c-2.117-2.464-3.532-4.742-4.469-7.188-.577-1.493-.788-2.656-.695-3.753a2.713 2.713 0 0 1 .856-1.78L4.76 6.483c.304-.276.627-.426.943-.426.391 0 .708.228.906.42l.019.018c.378.341.738.695 1.117 1.073.192.192.391.383.59.581l1.694 1.637c.658.635.658 1.223 0 1.858-.18.174-.354.348-.534.516-.521.515-1.018.995-1.558 1.463-.012.012-.024.018-.03.03-.534.515-.435 1.019-.323 1.36l.018.054c.44 1.031 1.062 2.003 2.005 3.16l.006.006c1.713 2.038 3.52 3.627 5.511 4.844.255.155.515.281.764.401.223.108.434.21.614.318.025.012.05.03.075.042.21.102.41.15.614.15.515 0 .838-.312.943-.414l2.123-2.05c.211-.204.546-.45.937-.45.385 0 .701.234.894.438l.012.012 3.42 3.303c.64.612.64 1.241.006 1.877zm-2.222-6.312c-.602-.606-1.328-.93-2.097-.93-.764 0-1.496.318-2.123.924l-1.961 1.888c-.162-.084-.323-.162-.478-.24a7.983 7.983 0 0 1-.615-.317c-1.837-1.127-3.506-2.596-5.107-4.496-.776-.948-1.297-1.745-1.676-2.554.509-.45.98-.918 1.44-1.367.174-.168.347-.342.521-.51 1.303-1.259 1.303-2.89 0-4.148L9.514 7.004a25.411 25.411 0 0 1-.577-.57A28.85 28.85 0 0 0 7.77 5.32c-.602-.576-1.322-.882-2.08-.882-.756 0-1.489.306-2.11.882l-.012.012-2.11 2.056C.664 8.155.211 9.09.111 10.175c-.149 1.751.385 3.382.795 4.449 1.005 2.62 2.507 5.047 4.748 7.65a29.084 29.084 0 0 0 9.725 7.355c1.427.653 3.333 1.427 5.461 1.559.13.006.267.012.391.012 1.434 0 2.638-.498 3.581-1.487.007-.012.019-.018.025-.03.323-.378.695-.72 1.086-1.085.267-.246.54-.504.807-.773.615-.618.937-1.337.937-2.075 0-.743-.329-1.456-.955-2.056z"/></g><g><path d="M15.956 9.552a7.967 7.967 0 0 1 4.282 2.146 7.558 7.558 0 0 1 2.222 4.137.825.825 0 0 0 .826.671c.05 0 .093-.006.142-.012a.814.814 0 0 0 .69-.935c-.336-1.9-1.267-3.633-2.688-5.006a9.69 9.69 0 0 0-5.182-2.596c-.46-.072-.888.222-.969.66a.803.803 0 0 0 .677.935z"/></g><g><path d="M29.436 15.325c-.552-3.13-2.079-5.977-4.425-8.243a15.942 15.942 0 0 0-8.534-4.274.832.832 0 0 0-.962.66c-.074.443.23.856.69.934a14.276 14.276 0 0 1 7.627 3.82c2.098 2.025 3.463 4.573 3.953 7.367a.825.825 0 0 0 .826.671c.05 0 .093-.006.142-.012a.798.798 0 0 0 .683-.923z"/></g></g></g></g></g></svg>