<svg xmlns="http://www.w3.org/2000/svg" width="57" height="56" viewBox="0 0 57 56"><g><g><path d="M28.5 36.187c-4.467 0-8.089-3.502-8.089-7.822s3.622-7.822 8.09-7.822 8.09 3.502 8.09 7.822-3.622 7.822-8.09 7.822zm0-20.448c-7.212 0-13.058 5.653-13.058 12.626S21.288 40.99 28.501 40.99c7.213 0 13.058-5.653 13.058-12.626s-5.845-12.626-13.058-12.626zm0 28.128c-8.854 0-16.032-6.94-16.032-15.502 0-8.562 7.178-15.503 16.033-15.503s16.033 6.94 16.033 15.503c0 8.562-7.178 15.502-16.033 15.502zm22.392-17.51l5.452-3.61-.078-.332a27.014 27.014 0 0 0-.715-2.541c-.278-.825-.6-1.653-.966-2.463l-.139-.316-6.606.176a21.554 21.554 0 0 0-2.447-3.252l2.221-6.024-.267-.226a28.578 28.578 0 0 0-4.404-3.09l-.306-.171-5.239 3.895a23.096 23.096 0 0 0-3.95-1.24l-1.868-6.14-.354-.036a29.017 29.017 0 0 0-5.441.004l-.352.032-1.87 6.137A22.72 22.72 0 0 0 19.61 8.4l-5.24-3.903-.308.175a27.871 27.871 0 0 0-4.402 3.09l-.264.226 2.218 6.028a22.056 22.056 0 0 0-2.445 3.248l-6.607-.176-.14.312a27.086 27.086 0 0 0-1.688 5l-.076.337 5.454 3.617a20.88 20.88 0 0 0-.002 4.018l-5.454 3.61.078.336c.197.86.44 1.714.718 2.542.276.824.6 1.652.962 2.462l.141.316 6.606-.18a21.44 21.44 0 0 0 2.447 3.252L9.39 48.735l.267.229a28.81 28.81 0 0 0 4.402 3.09l.306.173 5.239-3.897a23.12 23.12 0 0 0 3.95 1.24l1.87 6.14.354.033c1.804.168 3.635.168 5.439 0l.352-.032 1.87-6.137c.682-.15 1.355-.326 2.006-.53a23.798 23.798 0 0 0 1.948-.71l5.24 3.9.306-.173a28.377 28.377 0 0 0 4.402-3.09l.266-.229-2.22-6.028a21.87 21.87 0 0 0 2.446-3.249l6.606.18.14-.315a26.896 26.896 0 0 0 1.687-5l.078-.337-5.455-3.613c.13-1.345.132-2.696.003-4.022z"/></g></g></svg>