<svg xmlns="http://www.w3.org/2000/svg" width="69" height="66" viewBox="0 0 69 66"><g><g><path d="M34.567 26.622c-.267 0-.525.185-.707.508L22.593 47.088c-.274.487-.218.864-.16 1.046.057.182.219.485.648.485h5.137c.291 0 .527.349.527.778v14.815c0 .858.473 1.554 1.054 1.554h9.536c.582 0 1.053-.696 1.053-1.554V49.397c0-.43.237-.778.528-.778h5.136c.43 0 .59-.303.649-.485.058-.182.113-.559-.161-1.046L35.275 27.13c-.181-.323-.44-.508-.708-.508zM68.63 42.174c0-9.434-5.189-17.082-11.595-17.082-.07 0-.135.005-.204.01a32.11 32.11 0 0 0 .091-2.388c0-12.068-6.643-21.85-14.835-21.85-6.416 0-11.882 6.001-13.948 14.403-1.53-.936-3.21-1.457-4.974-1.457-7.059 0-12.794 8.3-12.962 18.635a6.097 6.097 0 0 0-.587-.033c-5.032 0-9.112 6.01-9.112 13.422 0 7.412 4.08 13.42 9.112 13.42h17.25V51.39H23.08c-1.04 0-1.94-.797-2.35-2.078-.409-1.281-.25-2.811.415-3.992l11.268-19.96c.54-.958 1.324-1.508 2.153-1.508.828 0 1.613.55 2.154 1.508l11.264 19.957c.666 1.18.826 2.71.418 3.992-.407 1.283-1.308 2.08-2.35 2.08h-3.784v7.865h14.766c6.406 0 11.595-7.649 11.595-17.08z"/></g></g></svg>