<svg xmlns="http://www.w3.org/2000/svg" width="65" height="69" viewBox="0 0 65 69"><g><g><g><path fill="#921515" d="M16.235 66.588c-1.696 0-3.077-1.23-3.077-2.74v-8.654h38.373v8.654c0 1.51-1.38 2.74-3.076 2.74zm0-63.804h32.219c1.697 0 3.077 1.23 3.077 2.74v1.818H13.158V5.524c0-1.51 1.38-2.74 3.077-2.74zM13.158 9.62h38.373v43.296H13.158zM16.235.506c-3.106 0-5.635 2.252-5.635 5.018v58.322c0 2.768 2.529 5.02 5.635 5.02h32.219c3.107 0 5.635-2.252 5.635-5.018V5.524c0-2.766-2.528-5.018-5.634-5.018z"/></g><g><path fill="#921515" d="M32.345 64.814c-.894 0-1.621-.727-1.621-1.62 0-.895.727-1.622 1.62-1.622.895 0 1.622.727 1.622 1.621s-.727 1.621-1.621 1.621zm0-4.863a3.245 3.245 0 0 0-3.242 3.242 3.245 3.245 0 0 0 3.242 3.242 3.245 3.245 0 0 0 3.242-3.242 3.245 3.245 0 0 0-3.242-3.242z"/></g><g><path fill="#921515" d="M28.513 4.558h3.242a.81.81 0 1 0 0-1.621h-3.242a.81.81 0 1 0 0 1.62z"/></g><g><path fill="#921515" d="M35.755 4.558h.81a.81.81 0 1 0 0-1.621h-.81a.81.81 0 1 0 0 1.62z"/></g><g><path fill="#921515" d="M61.88 4.209a.81.81 0 1 0-1.147 1.146c3.028 3.027 3.028 7.954 0 10.983a.81.81 0 1 0 1.146 1.146c3.66-3.66 3.66-9.615 0-13.275z"/></g><g><path fill="#921515" d="M58.467 6.053A.81.81 0 1 0 57.32 7.2a5.281 5.281 0 0 1 1.554 3.76 5.28 5.28 0 0 1-1.554 3.759.81.81 0 1 0 1.146 1.146 6.888 6.888 0 0 0 2.029-4.905c0-1.854-.72-3.598-2.03-4.906z"/></g><g><path fill="#921515" d="M3.956 5.355A.81.81 0 1 0 2.81 4.209c-3.66 3.66-3.66 9.615 0 13.275a.808.808 0 0 0 1.146 0 .81.81 0 0 0 0-1.146C.928 13.31.928 8.383 3.956 5.355z"/></g><g><path fill="#921515" d="M7.369 5.83a.81.81 0 0 0-1.146 0 6.888 6.888 0 0 0-2.03 4.904c0 1.855.721 3.597 2.03 4.906a.808.808 0 0 0 1.146 0 .81.81 0 0 0 0-1.146 5.281 5.281 0 0 1-1.554-3.76c0-1.421.55-2.756 1.554-3.759a.811.811 0 0 0 0-1.146z"/></g></g></g></svg>